<svg width="1016" height="736" viewBox="0 0 1016 736" fill="none" xmlns="http://www.w3.org/2000/svg">
<rect width="1016" height="736" fill="black" fill-opacity="0.6"/>
<rect x="172" y="184" width="741" height="353" fill="#F7F9FA"/>
<rect x="172" y="120" width="741" height="64" fill="white"/>
<rect x="172" y="183" width="741" height="1" fill="#E3E7E8"/>
<path fill-rule="evenodd" clip-rule="evenodd" d="M876 168C884.837 168 892 160.837 892 152C892 143.163 884.837 136 876 136C867.163 136 860 143.163 860 152C860 160.837 867.163 168 876 168Z" fill="#F7F9FA"/>
<path fill-rule="evenodd" clip-rule="evenodd" d="M876.737 151.936L880.505 148.119L880.873 147.746L880.136 147L879.768 147.373L876 151.19L872.232 147.373L871.864 147L871.127 147.746L871.495 148.119L875.263 151.936L871.368 155.881L871 156.254L871.737 157L872.105 156.627L876 152.682L879.895 156.627L880.263 157L881 156.254L880.632 155.881L876.737 151.936Z" fill="#888888"/>
<path d="M198.168 159V141.34H202.422C204.906 141.34 206.859 141.664 208.281 142.312C209.703 142.961 210.824 143.953 211.645 145.289C212.473 146.617 212.887 148.25 212.887 150.188C212.887 152.594 212.105 154.664 210.543 156.398C208.988 158.133 206.297 159 202.469 159H198.168ZM200.348 143.191V157.148H202.621C205.41 157.148 207.438 156.559 208.703 155.379C209.969 154.199 210.602 152.457 210.602 150.152C210.602 147.965 209.961 146.258 208.68 145.031C207.398 143.805 205.379 143.191 202.621 143.191H200.348ZM218.184 143.109H215.852V140.965H218.184V143.109ZM218.055 159H215.992V145.758H218.055V159ZM230.055 155.848V152.004C227.141 152.137 225.266 152.461 224.43 152.977C223.602 153.484 223.188 154.188 223.188 155.086C223.188 156.672 224.148 157.465 226.07 157.465C227.375 157.465 228.703 156.926 230.055 155.848ZM230.055 159V157.523C228.953 158.32 228.047 158.824 227.336 159.035C226.625 159.254 225.902 159.363 225.168 159.363C223.988 159.363 223.008 158.973 222.227 158.191C221.445 157.41 221.055 156.418 221.055 155.215C221.055 153.676 221.633 152.52 222.789 151.746C223.953 150.965 226.375 150.5 230.055 150.352V149.953C230.055 149.031 229.781 148.352 229.234 147.914C228.688 147.469 227.727 147.246 226.352 147.246C225.141 147.246 223.793 147.559 222.309 148.184H222.215V146.039C223.676 145.641 225.082 145.441 226.434 145.441C228.395 145.441 229.828 145.809 230.734 146.543C231.648 147.27 232.105 148.402 232.105 149.941V159H230.055ZM238.07 159H236.008V140.555H238.07V159ZM247.211 159.363C245.328 159.363 243.84 158.742 242.746 157.5C241.652 156.25 241.105 154.547 241.105 152.391C241.105 150.234 241.656 148.527 242.758 147.27C243.859 146.012 245.344 145.383 247.211 145.383C249.078 145.383 250.562 146.008 251.664 147.258C252.766 148.508 253.316 150.219 253.316 152.391C253.316 154.562 252.766 156.27 251.664 157.512C250.57 158.746 249.086 159.363 247.211 159.363ZM247.211 147.141C245.938 147.141 244.957 147.59 244.27 148.488C243.582 149.387 243.238 150.688 243.238 152.391C243.238 154.07 243.582 155.359 244.27 156.258C244.957 157.156 245.938 157.605 247.211 157.605C248.484 157.605 249.465 157.156 250.152 156.258C250.84 155.359 251.184 154.07 251.184 152.391C251.184 148.891 249.859 147.141 247.211 147.141ZM266.91 157.5C266.91 161.844 264.852 164.016 260.734 164.016C259.383 164.016 258.039 163.832 256.703 163.465V161.332H256.797C258.164 161.895 259.516 162.176 260.852 162.176C262.203 162.176 263.207 161.871 263.863 161.262C264.52 160.66 264.848 159.684 264.848 158.332V157.02C263.434 158.207 261.953 158.801 260.406 158.801C258.836 158.801 257.605 158.223 256.715 157.066C255.824 155.91 255.379 154.309 255.379 152.262C255.379 150.215 255.926 148.559 257.02 147.293C258.121 146.02 259.484 145.383 261.109 145.383C262.391 145.383 263.637 145.73 264.848 146.426L265 145.758H266.91V157.5ZM264.848 155.355V148.031C263.684 147.492 262.598 147.223 261.59 147.223C260.301 147.223 259.297 147.648 258.578 148.5C257.867 149.352 257.512 150.57 257.512 152.156C257.512 155.312 258.684 156.891 261.027 156.891C262.27 156.891 263.543 156.379 264.848 155.355ZM275.453 159V143.238H269.184V141.34H283.902V143.238H277.633V159H275.453ZM288.379 143.109H286.047V140.965H288.379V143.109ZM288.25 159H286.188V145.758H288.25V159ZM296.441 159.258C293.707 159.258 292.34 157.754 292.34 154.746V147.445H290.828V145.758H292.352V141.949H294.402V145.758H299.043V147.445H294.402V153.574C294.402 154.965 294.496 155.867 294.684 156.281C294.879 156.688 295.172 156.988 295.562 157.184C295.953 157.371 296.453 157.465 297.062 157.465C297.641 157.465 298.277 157.324 298.973 157.043H299.043V158.918C298.113 159.145 297.246 159.258 296.441 159.258ZM303.438 159H301.375V140.555H303.438V159ZM308.582 151.008H316.352C316.289 148.375 315.082 147.059 312.73 147.059C311.543 147.059 310.582 147.41 309.848 148.113C309.113 148.816 308.691 149.781 308.582 151.008ZM313.422 159.305C311.219 159.305 309.508 158.711 308.289 157.523C307.078 156.328 306.473 154.641 306.473 152.461C306.473 150.297 307.055 148.578 308.219 147.305C309.383 146.023 310.926 145.383 312.848 145.383C314.598 145.383 315.953 145.906 316.914 146.953C317.883 148 318.367 149.492 318.367 151.43V152.566H308.582C308.582 154.16 309.012 155.387 309.871 156.246C310.738 157.098 311.934 157.523 313.457 157.523C314.973 157.523 316.488 156.996 318.004 155.941H318.098V158.18C316.215 158.93 314.656 159.305 313.422 159.305Z" fill="#333333"/>
<rect x="172.5" y="537.5" width="740" height="95" fill="white" stroke="#E3E7E8"/>
<rect x="196.5" y="561.5" width="159" height="47" stroke="#E3E7E8"/>
<g filter="url(#filter0_i_424_883)">
<rect x="197" y="562" width="158" height="46" fill="#F7F9FA"/>
</g>
<rect x="196.5" y="561.5" width="159" height="47" stroke="#E3E7E8"/>
<path d="M258.352 579.281H245.602V578.195H258.352V579.281ZM253.172 584.078C253.172 585.391 252.953 586.461 252.516 587.289C252.083 588.117 251.398 588.82 250.461 589.398C249.523 589.971 248.326 590.406 246.867 590.703L246.445 589.602C248.081 589.253 249.378 588.677 250.336 587.875C251.294 587.068 251.773 585.898 251.773 584.367V583.555H244.688V582.414H259.312V583.555H253.172V584.078ZM275.508 585.391L268.914 586.031L269.344 590.805L268 590.93L267.57 586.164L260.625 586.836L260.516 585.695L267.469 585.016L267.125 581.117L261.188 581.602L261.117 580.469L267.023 579.992L266.781 577.344L268.109 577.188L268.359 579.883L274.047 579.422L274.125 580.547L268.461 581.008L268.812 584.891L275.422 584.242L275.508 585.391ZM291.57 589.875L290.461 590.734C289.034 589.266 287.083 587.49 284.609 585.406C282.021 587.896 279.445 589.651 276.883 590.672L276.289 589.68C278.435 588.805 280.57 587.419 282.695 585.523C284.826 583.622 286.318 581.547 287.172 579.297H278.258V578.211H288.578L288.898 578.5C288.169 580.708 287 582.724 285.391 584.547C286.984 585.792 289.044 587.568 291.57 589.875ZM307.188 585.141L306.367 586.227C305.284 585.503 303.99 584.792 302.484 584.094C300.979 583.396 299.638 582.87 298.461 582.516V590.805H297.07V577.125H298.477V581.312C301.565 582.24 304.469 583.516 307.188 585.141Z" fill="#3498DB"/>
<rect x="726.5" y="561.5" width="162" height="47" stroke="#E3E7E8"/>
<g filter="url(#filter1_i_424_883)">
<rect x="727" y="562" width="161" height="46" fill="#3498DB"/>
</g>
<path d="M789.852 579.281H777.102V578.195H789.852V579.281ZM784.672 584.078C784.672 585.391 784.453 586.461 784.016 587.289C783.583 588.117 782.898 588.82 781.961 589.398C781.023 589.971 779.826 590.406 778.367 590.703L777.945 589.602C779.581 589.253 780.878 588.677 781.836 587.875C782.794 587.068 783.273 585.898 783.273 584.367V583.555H776.188V582.414H790.812V583.555H784.672V584.078ZM807.008 585.391L800.414 586.031L800.844 590.805L799.5 590.93L799.07 586.164L792.125 586.836L792.016 585.695L798.969 585.016L798.625 581.117L792.688 581.602L792.617 580.469L798.523 579.992L798.281 577.344L799.609 577.188L799.859 579.883L805.547 579.422L805.625 580.547L799.961 581.008L800.312 584.891L806.922 584.242L807.008 585.391ZM823.07 589.875L821.961 590.734C820.534 589.266 818.583 587.49 816.109 585.406C813.521 587.896 810.945 589.651 808.383 590.672L807.789 589.68C809.935 588.805 812.07 587.419 814.195 585.523C816.326 583.622 817.818 581.547 818.672 579.297H809.758V578.211H820.078L820.398 578.5C819.669 580.708 818.5 582.724 816.891 584.547C818.484 585.792 820.544 587.568 823.07 589.875ZM838.688 585.141L837.867 586.227C836.784 585.503 835.49 584.792 833.984 584.094C832.479 583.396 831.138 582.87 829.961 582.516V590.805H828.57V577.125H829.977V581.312C833.065 582.24 835.969 583.516 838.688 585.141Z" fill="white"/>
<rect x="40" y="140" width="110" height="24" rx="2" fill="#282828"/>
<path d="M49.6016 156V146.434H52.5913C53.9455 146.434 55.0013 146.608 55.7588 146.955C56.5163 147.302 57.113 147.835 57.5488 148.554C57.9889 149.274 58.209 150.164 58.209 151.227C58.209 152.187 57.9805 153.05 57.5234 153.816C57.0706 154.578 56.4634 155.132 55.7017 155.479C54.9399 155.826 53.9116 156 52.6167 156H49.6016ZM51.6963 147.938V154.496H52.7246C54.9209 154.496 56.019 153.4 56.019 151.208C56.019 149.028 54.9209 147.938 52.7246 147.938H51.6963ZM61.7637 147.729H59.6753V146.009H61.7637V147.729ZM61.6938 156H59.7451V148.649H61.6938V156ZM69.9521 156H68.0161V155.042C67.4194 155.554 66.9349 155.873 66.5625 156C66.1943 156.131 65.8008 156.197 65.3818 156.197C64.7386 156.197 64.2054 155.989 63.7822 155.575C63.359 155.156 63.1475 154.618 63.1475 153.962C63.1475 153.133 63.4585 152.505 64.0806 152.077C64.7069 151.65 66.0251 151.383 68.0352 151.277V151.081C68.0352 150.619 67.8765 150.285 67.5591 150.078C67.2417 149.87 66.717 149.767 65.9849 149.767C65.4855 149.767 64.7703 149.957 63.8394 150.338H63.7695V148.795C64.7513 148.558 65.64 148.44 66.4355 148.44C67.6755 148.44 68.5705 148.641 69.1206 149.043C69.675 149.441 69.9521 150.076 69.9521 150.947V156ZM68.0161 154.21V152.356C66.7381 152.462 65.9383 152.627 65.6167 152.852C65.2951 153.072 65.1343 153.378 65.1343 153.772C65.1343 154.191 65.2464 154.483 65.4707 154.648C65.695 154.813 66.0462 154.896 66.5244 154.896C67.028 154.896 67.5252 154.667 68.0161 154.21ZM73.856 156H71.9072V146.009H73.856V156ZM79.0928 156.229C77.8994 156.229 76.9727 155.886 76.3125 155.2C75.6523 154.51 75.3223 153.554 75.3223 152.331C75.3223 151.104 75.6545 150.145 76.3188 149.456C76.9875 148.766 77.9121 148.421 79.0928 148.421C80.2819 148.421 81.2065 148.766 81.8667 149.456C82.5311 150.145 82.8633 151.104 82.8633 152.331C82.8633 153.554 82.5311 154.51 81.8667 155.2C81.2065 155.886 80.2819 156.229 79.0928 156.229ZM79.0928 149.779C77.9375 149.779 77.3599 150.636 77.3599 152.35C77.3599 154.03 77.946 154.87 79.1182 154.87C80.2565 154.87 80.8257 154.03 80.8257 152.35C80.8257 150.636 80.248 149.779 79.0928 149.779ZM90.9565 155.156C90.9565 156.37 90.6519 157.267 90.0425 157.847C89.4331 158.427 88.4577 158.717 87.1162 158.717C86.2487 158.717 85.3896 158.622 84.5391 158.431V156.844H84.6343C85.4764 157.145 86.2064 157.295 86.8242 157.295C87.5817 157.295 88.134 157.162 88.481 156.895C88.8322 156.628 89.0078 156.102 89.0078 155.314V154.908C88.2503 155.56 87.5161 155.886 86.8052 155.886C84.7866 155.886 83.7773 154.635 83.7773 152.134C83.7773 151.026 84.0693 150.135 84.6533 149.462C85.2415 148.785 85.9927 148.446 86.9067 148.446C87.6219 148.446 88.3138 148.671 88.9824 149.119L89.1157 148.649H90.9565V155.156ZM89.0078 153.842V150.135C88.5804 149.953 88.1847 149.862 87.8208 149.862C86.4709 149.862 85.7959 150.634 85.7959 152.179C85.7959 152.953 85.9355 153.514 86.2148 153.861C86.4984 154.204 86.9364 154.375 87.5288 154.375C87.9901 154.375 88.4831 154.197 89.0078 153.842ZM101.316 156H99.2212V151.646H95.2031V156H93.1084V146.434H95.2031V150.071H99.2212V146.434H101.316V156ZM110.088 152.629H104.877C104.962 154.102 105.797 154.838 107.384 154.838C108.214 154.838 109.047 154.538 109.885 153.937H109.955V155.625C108.961 156.006 108.025 156.197 107.149 156.197C105.77 156.197 104.718 155.869 103.995 155.213C103.271 154.557 102.909 153.611 102.909 152.375C102.909 151.148 103.252 150.183 103.938 149.481C104.623 148.774 105.569 148.421 106.775 148.421C108.984 148.421 110.088 149.595 110.088 151.944V152.629ZM108.14 151.525C108.123 150.26 107.609 149.627 106.597 149.627C105.522 149.627 104.949 150.26 104.877 151.525H108.14ZM117.763 156H115.827V155.042C115.23 155.554 114.745 155.873 114.373 156C114.005 156.131 113.611 156.197 113.192 156.197C112.549 156.197 112.016 155.989 111.593 155.575C111.17 155.156 110.958 154.618 110.958 153.962C110.958 153.133 111.269 152.505 111.891 152.077C112.517 151.65 113.836 151.383 115.846 151.277V151.081C115.846 150.619 115.687 150.285 115.37 150.078C115.052 149.87 114.528 149.767 113.795 149.767C113.296 149.767 112.581 149.957 111.65 150.338H111.58V148.795C112.562 148.558 113.451 148.44 114.246 148.44C115.486 148.44 116.381 148.641 116.931 149.043C117.486 149.441 117.763 150.076 117.763 150.947V156ZM115.827 154.21V152.356C114.549 152.462 113.749 152.627 113.427 152.852C113.106 153.072 112.945 153.378 112.945 153.772C112.945 154.191 113.057 154.483 113.281 154.648C113.506 154.813 113.857 154.896 114.335 154.896C114.839 154.896 115.336 154.667 115.827 154.21ZM126.351 156H124.402V155.035C123.768 155.551 123.289 155.875 122.968 156.006C122.646 156.138 122.301 156.203 121.933 156.203C121.091 156.203 120.42 155.862 119.921 155.181C119.422 154.496 119.172 153.565 119.172 152.388C119.172 151.22 119.474 150.272 120.08 149.544C120.685 148.812 121.436 148.446 122.333 148.446C122.655 148.446 122.949 148.482 123.215 148.554C123.482 148.626 123.878 148.8 124.402 149.075V146.009H126.351V156ZM124.402 154.115V150.135C123.979 149.953 123.586 149.862 123.222 149.862C121.868 149.862 121.19 150.687 121.19 152.337C121.19 153.171 121.33 153.774 121.609 154.146C121.889 154.515 122.327 154.699 122.923 154.699C123.372 154.699 123.865 154.504 124.402 154.115ZM134.997 152.629H129.785C129.87 154.102 130.706 154.838 132.292 154.838C133.122 154.838 133.956 154.538 134.793 153.937H134.863V155.625C133.869 156.006 132.934 156.197 132.058 156.197C130.678 156.197 129.626 155.869 128.903 155.213C128.179 154.557 127.817 153.611 127.817 152.375C127.817 151.148 128.16 150.183 128.846 149.481C129.531 148.774 130.477 148.421 131.683 148.421C133.892 148.421 134.997 149.595 134.997 151.944V152.629ZM133.048 151.525C133.031 150.26 132.517 149.627 131.505 149.627C130.431 149.627 129.857 150.26 129.785 151.525H133.048ZM141.408 150.636H141.344C141.082 150.569 140.731 150.535 140.291 150.535C139.601 150.535 138.966 150.645 138.386 150.865V156H136.438V148.649H138.386V149.982C138.983 149.445 139.474 149.085 139.859 148.903C140.244 148.717 140.623 148.624 140.995 148.624C141.092 148.624 141.23 148.628 141.408 148.637V150.636Z" fill="white"/>
<rect x="214" y="77" width="90" height="24" rx="2" fill="#282828"/>
<path d="M223.313 93V83.4341H226.303C227.657 83.4341 228.713 83.6076 229.471 83.9546C230.228 84.3016 230.825 84.8348 231.261 85.5542C231.701 86.2736 231.921 87.1644 231.921 88.2266C231.921 89.1872 231.692 90.0505 231.235 90.8164C230.783 91.5781 230.175 92.1325 229.414 92.4795C228.652 92.8265 227.624 93 226.329 93H223.313ZM225.408 84.9385V91.4956H226.437C228.633 91.4956 229.731 90.3996 229.731 88.2075C229.731 86.0282 228.633 84.9385 226.437 84.9385H225.408ZM235.476 84.729H233.387V83.0088H235.476V84.729ZM235.406 93H233.457V85.6494H235.406V93ZM243.664 93H241.728V92.0415C241.131 92.5535 240.647 92.873 240.274 93C239.906 93.1312 239.513 93.1968 239.094 93.1968C238.451 93.1968 237.917 92.9894 237.494 92.5747C237.071 92.1558 236.859 91.6183 236.859 90.9624C236.859 90.133 237.17 89.5046 237.792 89.0771C238.419 88.6497 239.737 88.3831 241.747 88.2773V88.0806C241.747 87.6193 241.588 87.285 241.271 87.0776C240.954 86.8703 240.429 86.7666 239.697 86.7666C239.197 86.7666 238.482 86.957 237.551 87.3379H237.481V85.7954C238.463 85.5584 239.352 85.4399 240.147 85.4399C241.387 85.4399 242.282 85.641 242.833 86.043C243.387 86.4408 243.664 87.0755 243.664 87.9473V93ZM241.728 91.21V89.3564C240.45 89.4622 239.65 89.6273 239.329 89.8516C239.007 90.0716 238.846 90.3784 238.846 90.772C238.846 91.1909 238.958 91.4829 239.183 91.6479C239.407 91.813 239.758 91.8955 240.236 91.8955C240.74 91.8955 241.237 91.667 241.728 91.21ZM247.568 93H245.619V83.0088H247.568V93ZM252.805 93.2285C251.611 93.2285 250.685 92.8857 250.024 92.2002C249.364 91.5104 249.034 90.554 249.034 89.3311C249.034 88.1038 249.366 87.1453 250.031 86.4556C250.699 85.7658 251.624 85.4209 252.805 85.4209C253.994 85.4209 254.918 85.7658 255.579 86.4556C256.243 87.1453 256.575 88.1038 256.575 89.3311C256.575 90.554 256.243 91.5104 255.579 92.2002C254.918 92.8857 253.994 93.2285 252.805 93.2285ZM252.805 86.7793C251.649 86.7793 251.072 87.6362 251.072 89.3501C251.072 91.0301 251.658 91.8701 252.83 91.8701C253.968 91.8701 254.538 91.0301 254.538 89.3501C254.538 87.6362 253.96 86.7793 252.805 86.7793ZM264.668 92.1558C264.668 93.3703 264.364 94.2674 263.754 94.8472C263.145 95.4269 262.17 95.7168 260.828 95.7168C259.961 95.7168 259.102 95.6216 258.251 95.4312V93.8442H258.346C259.188 94.1447 259.918 94.2949 260.536 94.2949C261.294 94.2949 261.846 94.1616 262.193 93.895C262.544 93.6284 262.72 93.1016 262.72 92.3145V91.9082C261.962 92.5599 261.228 92.8857 260.517 92.8857C258.499 92.8857 257.489 91.6353 257.489 89.1343C257.489 88.0256 257.781 87.1348 258.365 86.4619C258.953 85.7848 259.705 85.4463 260.619 85.4463C261.334 85.4463 262.026 85.6706 262.694 86.1191L262.828 85.6494H264.668V92.1558ZM262.72 90.8418V87.1348C262.292 86.9528 261.897 86.8618 261.533 86.8618C260.183 86.8618 259.508 87.6341 259.508 89.1787C259.508 89.9531 259.647 90.5138 259.927 90.8608C260.21 91.2036 260.648 91.375 261.241 91.375C261.702 91.375 262.195 91.1973 262.72 90.8418ZM274.171 85.021H271.029V93H268.934V85.021H265.792V83.4341H274.171V85.021ZM277.307 84.729H275.218V83.0088H277.307V84.729ZM277.237 93H275.288V85.6494H277.237V93ZM283.597 92.9556C283.077 93.0825 282.52 93.146 281.928 93.146C281.052 93.146 280.411 92.9598 280.004 92.5874C279.598 92.2108 279.395 91.6035 279.395 90.7656V86.938H278.43V85.6494H279.401V83.5864H281.344V85.6494H283.597V86.938H281.344V89.9658C281.344 90.7445 281.443 91.2523 281.642 91.4893C281.841 91.7262 282.175 91.8447 282.645 91.8447C282.945 91.8447 283.244 91.7707 283.54 91.6226H283.597V92.9556ZM286.746 93H284.797V83.0088H286.746V93ZM295.391 89.6294H290.18C290.264 91.1021 291.1 91.8384 292.687 91.8384C293.516 91.8384 294.35 91.5379 295.188 90.937H295.258V92.6255C294.263 93.0063 293.328 93.1968 292.452 93.1968C291.073 93.1968 290.021 92.8688 289.297 92.2129C288.574 91.557 288.212 90.6112 288.212 89.3755C288.212 88.1483 288.555 87.1834 289.24 86.481C289.926 85.7743 290.872 85.4209 292.078 85.4209C294.287 85.4209 295.391 86.5952 295.391 88.9438V89.6294ZM293.442 88.5249C293.425 87.2596 292.911 86.627 291.9 86.627C290.825 86.627 290.252 87.2596 290.18 88.5249H293.442Z" fill="white"/>
<rect x="827" y="77" width="100" height="24" rx="2" fill="#282828"/>
<path d="M843.916 92.3589C843.112 92.7271 842.473 92.9577 841.999 93.0508C841.525 93.1439 841.068 93.1904 840.628 93.1904C839.164 93.1904 838.011 92.7546 837.168 91.8828C836.326 91.0111 835.905 89.7944 835.905 88.2329C835.905 86.701 836.331 85.4886 837.181 84.5957C838.036 83.6986 839.187 83.25 840.634 83.25C841.756 83.25 842.85 83.5187 843.916 84.0562V86.0176H843.694C842.699 85.1712 841.758 84.748 840.869 84.748C840.019 84.748 839.346 85.0527 838.851 85.6621C838.355 86.2673 838.108 87.1263 838.108 88.2393C838.108 89.3438 838.36 90.1965 838.863 90.7974C839.367 91.394 840.04 91.6924 840.882 91.6924C841.322 91.6924 841.751 91.6162 842.17 91.4639C842.589 91.3073 843.104 90.9624 843.713 90.4292H843.916V92.3589ZM847.287 93H845.338V83.0088H847.287V93ZM852.523 93.2285C851.33 93.2285 850.403 92.8857 849.743 92.2002C849.083 91.5104 848.753 90.554 848.753 89.3311C848.753 88.1038 849.085 87.1453 849.75 86.4556C850.418 85.7658 851.343 85.4209 852.523 85.4209C853.713 85.4209 854.637 85.7658 855.297 86.4556C855.962 87.1453 856.294 88.1038 856.294 89.3311C856.294 90.554 855.962 91.5104 855.297 92.2002C854.637 92.8857 853.713 93.2285 852.523 93.2285ZM852.523 86.7793C851.368 86.7793 850.791 87.6362 850.791 89.3501C850.791 91.0301 851.377 91.8701 852.549 91.8701C853.687 91.8701 854.256 91.0301 854.256 89.3501C854.256 87.6362 853.679 86.7793 852.523 86.7793ZM857.252 92.6509V90.8481H857.329C858.205 91.5549 859.127 91.9082 860.096 91.9082C861.078 91.9082 861.569 91.6416 861.569 91.1084C861.569 90.8926 861.493 90.7297 861.34 90.6196C861.188 90.5054 860.913 90.4038 860.515 90.3149C860.24 90.2642 859.849 90.1816 859.341 90.0674C858.833 89.9531 858.433 89.7944 858.141 89.5913C857.853 89.3882 857.64 89.1427 857.5 88.855C857.36 88.5672 857.291 88.235 857.291 87.8584C857.291 87.1432 857.602 86.5635 858.224 86.1191C858.846 85.6706 859.681 85.4463 860.731 85.4463C861.658 85.4463 862.493 85.6092 863.238 85.9351V87.6489H863.188C862.337 87.0438 861.514 86.7412 860.718 86.7412C860.308 86.7412 859.965 86.8174 859.69 86.9697C859.415 87.1221 859.277 87.3125 859.277 87.541C859.277 87.7992 859.362 87.9875 859.531 88.106C859.705 88.2202 859.993 88.3239 860.395 88.417C860.907 88.5101 861.417 88.6222 861.924 88.7534C862.432 88.8846 862.832 89.1174 863.124 89.4517C863.416 89.7817 863.562 90.2091 863.562 90.7339C863.562 91.4829 863.245 92.0817 862.61 92.5303C861.979 92.9788 861.127 93.2031 860.052 93.2031C858.985 93.2031 858.052 93.019 857.252 92.6509ZM871.522 89.6294H866.311C866.395 91.1021 867.231 91.8384 868.818 91.8384C869.647 91.8384 870.481 91.5379 871.319 90.937H871.389V92.6255C870.394 93.0063 869.459 93.1968 868.583 93.1968C867.203 93.1968 866.152 92.8688 865.428 92.2129C864.705 91.557 864.343 90.6112 864.343 89.3755C864.343 88.1483 864.686 87.1834 865.371 86.481C866.057 85.7743 867.002 85.4209 868.208 85.4209C870.417 85.4209 871.522 86.5952 871.522 88.9438V89.6294ZM869.573 88.5249C869.556 87.2596 869.042 86.627 868.031 86.627C866.956 86.627 866.382 87.2596 866.311 88.5249H869.573ZM873.09 93V83.4341H876.53C877.986 83.4341 878.974 83.6266 879.495 84.0117C880.019 84.3926 880.282 84.9321 880.282 85.6304C880.282 86.5529 879.829 87.2236 878.923 87.6426V87.6934C880.29 87.9811 880.974 88.7703 880.974 90.061C880.974 90.9624 880.635 91.6776 879.958 92.2065C879.285 92.7355 878.308 93 877.025 93H873.09ZM875.172 84.9385V87.2554H875.959C876.606 87.2554 877.066 87.2215 877.336 87.1538C877.607 87.0819 877.808 86.9486 877.939 86.7539C878.071 86.555 878.136 86.3075 878.136 86.0112C878.136 85.7743 878.077 85.5711 877.958 85.4019C877.844 85.2326 877.656 85.1141 877.394 85.0464C877.131 84.9744 876.602 84.9385 875.807 84.9385H875.172ZM875.172 88.6772V91.4956H875.826C876.405 91.4956 876.852 91.4893 877.165 91.4766C877.478 91.4639 877.762 91.4025 878.016 91.2925C878.274 91.1825 878.468 91.0238 878.6 90.8164C878.735 90.609 878.803 90.3573 878.803 90.061C878.803 89.7394 878.733 89.4749 878.593 89.2676C878.458 89.0602 878.259 88.91 877.997 88.8169C877.738 88.7238 877.131 88.6772 876.175 88.6772H875.172ZM889.295 93H887.347V91.9717C886.754 92.4541 886.272 92.7799 885.899 92.9492C885.527 93.1185 885.14 93.2031 884.738 93.2031C883.189 93.2031 882.415 92.2954 882.415 90.48V85.6494H884.376V89.312C884.376 90.3361 884.488 90.973 884.712 91.2227C884.937 91.4723 885.303 91.5972 885.811 91.5972C886.246 91.5972 886.758 91.4067 887.347 91.0259V85.6494H889.295V93ZM895.656 92.9556C895.135 93.0825 894.579 93.146 893.986 93.146C893.11 93.146 892.469 92.9598 892.063 92.5874C891.657 92.2108 891.454 91.6035 891.454 90.7656V86.938H890.489V85.6494H891.46V83.5864H893.402V85.6494H895.656V86.938H893.402V89.9658C893.402 90.7445 893.502 91.2523 893.701 91.4893C893.9 91.7262 894.234 91.8447 894.704 91.8447C895.004 91.8447 895.302 91.7707 895.599 91.6226H895.656V92.9556ZM901.191 92.9556C900.67 93.0825 900.114 93.146 899.521 93.146C898.646 93.146 898.004 92.9598 897.598 92.5874C897.192 92.2108 896.989 91.6035 896.989 90.7656V86.938H896.024V85.6494H896.995V83.5864H898.938V85.6494H901.191V86.938H898.938V89.9658C898.938 90.7445 899.037 91.2523 899.236 91.4893C899.435 91.7262 899.769 91.8447 900.239 91.8447C900.539 91.8447 900.838 91.7707 901.134 91.6226H901.191V92.9556ZM905.552 93.2285C904.358 93.2285 903.432 92.8857 902.771 92.2002C902.111 91.5104 901.781 90.554 901.781 89.3311C901.781 88.1038 902.113 87.1453 902.778 86.4556C903.446 85.7658 904.371 85.4209 905.552 85.4209C906.741 85.4209 907.666 85.7658 908.326 86.4556C908.99 87.1453 909.322 88.1038 909.322 89.3311C909.322 90.554 908.99 91.5104 908.326 92.2002C907.666 92.8857 906.741 93.2285 905.552 93.2285ZM905.552 86.7793C904.396 86.7793 903.819 87.6362 903.819 89.3501C903.819 91.0301 904.405 91.8701 905.577 91.8701C906.715 91.8701 907.285 91.0301 907.285 89.3501C907.285 87.6362 906.707 86.7793 905.552 86.7793ZM917.663 93H915.702V89.3374C915.702 88.3133 915.587 87.6785 915.359 87.4331C915.135 87.1834 914.769 87.0586 914.261 87.0586C913.838 87.0586 913.328 87.2469 912.731 87.6235V93H910.782V85.6494H912.731V86.6777C913.34 86.1784 913.827 85.8483 914.191 85.6875C914.559 85.5267 914.942 85.4463 915.34 85.4463C916.889 85.4463 917.663 86.354 917.663 88.1694V93Z" fill="white"/>
<rect x="219" y="645" width="114" height="24" rx="2" fill="#282828"/>
<path d="M236.765 661H234.747L230.456 653.986V661H228.513V651.434H231.052L234.823 657.617V651.434H236.765V661ZM242.123 661.229C240.929 661.229 240.002 660.886 239.342 660.2C238.682 659.51 238.352 658.554 238.352 657.331C238.352 656.104 238.684 655.145 239.349 654.456C240.017 653.766 240.942 653.421 242.123 653.421C243.312 653.421 244.236 653.766 244.896 654.456C245.561 655.145 245.893 656.104 245.893 657.331C245.893 658.554 245.561 659.51 244.896 660.2C244.236 660.886 243.312 661.229 242.123 661.229ZM242.123 654.779C240.967 654.779 240.39 655.636 240.39 657.35C240.39 659.03 240.976 659.87 242.148 659.87C243.286 659.87 243.855 659.03 243.855 657.35C243.855 655.636 243.278 654.779 242.123 654.779ZM252.323 655.636H252.26C251.997 655.569 251.646 655.535 251.206 655.535C250.516 655.535 249.882 655.645 249.302 655.865V661H247.353V653.649H249.302V654.982C249.898 654.445 250.389 654.085 250.774 653.903C251.16 653.717 251.538 653.624 251.911 653.624C252.008 653.624 252.146 653.628 252.323 653.637V655.636ZM264.841 661H262.879V657.312C262.879 656.821 262.856 656.392 262.81 656.023C262.767 655.651 262.638 655.397 262.422 655.262C262.211 655.126 261.917 655.059 261.54 655.059C261.206 655.059 260.734 655.245 260.125 655.617V661H258.163V657.312C258.163 656.796 258.138 656.36 258.087 656.004C258.036 655.645 257.903 655.397 257.687 655.262C257.475 655.126 257.186 655.059 256.817 655.059C256.466 655.059 255.996 655.247 255.408 655.624V661H253.459V653.649H255.408V654.678C256.051 654.149 256.538 653.812 256.868 653.668C257.202 653.52 257.547 653.446 257.903 653.446C258.825 653.446 259.507 653.916 259.947 654.855C260.569 654.314 261.077 653.944 261.47 653.745C261.864 653.546 262.249 653.446 262.625 653.446C264.102 653.446 264.841 654.354 264.841 656.169V661ZM273.036 661H271.1V660.042C270.503 660.554 270.018 660.873 269.646 661C269.278 661.131 268.884 661.197 268.465 661.197C267.822 661.197 267.289 660.989 266.866 660.575C266.443 660.156 266.231 659.618 266.231 658.962C266.231 658.133 266.542 657.505 267.164 657.077C267.79 656.65 269.109 656.383 271.119 656.277V656.081C271.119 655.619 270.96 655.285 270.643 655.078C270.325 654.87 269.8 654.767 269.068 654.767C268.569 654.767 267.854 654.957 266.923 655.338H266.853V653.795C267.835 653.558 268.723 653.44 269.519 653.44C270.759 653.44 271.654 653.641 272.204 654.043C272.758 654.441 273.036 655.076 273.036 655.947V661ZM271.1 659.21V657.356C269.822 657.462 269.022 657.627 268.7 657.852C268.379 658.072 268.218 658.378 268.218 658.772C268.218 659.191 268.33 659.483 268.554 659.648C268.778 659.813 269.13 659.896 269.608 659.896C270.111 659.896 270.609 659.667 271.1 659.21ZM276.939 661H274.991V651.009H276.939V661ZM279.091 661V651.434H282.532C283.987 651.434 284.976 651.627 285.496 652.012C286.021 652.393 286.283 652.932 286.283 653.63C286.283 654.553 285.83 655.224 284.925 655.643V655.693C286.292 655.981 286.975 656.77 286.975 658.061C286.975 658.962 286.637 659.678 285.959 660.207C285.287 660.736 284.309 661 283.027 661H279.091ZM281.173 652.938V655.255H281.96C282.608 655.255 283.067 655.222 283.338 655.154C283.609 655.082 283.81 654.949 283.941 654.754C284.072 654.555 284.138 654.307 284.138 654.011C284.138 653.774 284.078 653.571 283.96 653.402C283.846 653.233 283.657 653.114 283.395 653.046C283.133 652.974 282.604 652.938 281.808 652.938H281.173ZM281.173 656.677V659.496H281.827C282.407 659.496 282.853 659.489 283.167 659.477C283.48 659.464 283.763 659.403 284.017 659.292C284.275 659.182 284.47 659.024 284.601 658.816C284.736 658.609 284.804 658.357 284.804 658.061C284.804 657.739 284.734 657.475 284.595 657.268C284.459 657.06 284.26 656.91 283.998 656.817C283.74 656.724 283.133 656.677 282.176 656.677H281.173ZM295.297 661H293.348V659.972C292.756 660.454 292.273 660.78 291.901 660.949C291.528 661.118 291.141 661.203 290.739 661.203C289.19 661.203 288.416 660.295 288.416 658.48V653.649H290.377V657.312C290.377 658.336 290.49 658.973 290.714 659.223C290.938 659.472 291.304 659.597 291.812 659.597C292.248 659.597 292.76 659.407 293.348 659.026V653.649H295.297V661ZM301.657 660.956C301.137 661.083 300.58 661.146 299.988 661.146C299.112 661.146 298.471 660.96 298.064 660.587C297.658 660.211 297.455 659.604 297.455 658.766V654.938H296.49V653.649H297.461V651.586H299.404V653.649H301.657V654.938H299.404V657.966C299.404 658.744 299.503 659.252 299.702 659.489C299.901 659.726 300.235 659.845 300.705 659.845C301.006 659.845 301.304 659.771 301.6 659.623H301.657V660.956ZM307.192 660.956C306.672 661.083 306.115 661.146 305.523 661.146C304.647 661.146 304.006 660.96 303.6 660.587C303.193 660.211 302.99 659.604 302.99 658.766V654.938H302.025V653.649H302.997V651.586H304.939V653.649H307.192V654.938H304.939V657.966C304.939 658.744 305.038 659.252 305.237 659.489C305.436 659.726 305.771 659.845 306.24 659.845C306.541 659.845 306.839 659.771 307.135 659.623H307.192V660.956ZM311.553 661.229C310.36 661.229 309.433 660.886 308.773 660.2C308.113 659.51 307.783 658.554 307.783 657.331C307.783 656.104 308.115 655.145 308.779 654.456C309.448 653.766 310.373 653.421 311.553 653.421C312.742 653.421 313.667 653.766 314.327 654.456C314.992 655.145 315.324 656.104 315.324 657.331C315.324 658.554 314.992 659.51 314.327 660.2C313.667 660.886 312.742 661.229 311.553 661.229ZM311.553 654.779C310.398 654.779 309.82 655.636 309.82 657.35C309.82 659.03 310.406 659.87 311.579 659.87C312.717 659.87 313.286 659.03 313.286 657.35C313.286 655.636 312.708 654.779 311.553 654.779ZM323.665 661H321.703V657.337C321.703 656.313 321.589 655.679 321.36 655.433C321.136 655.183 320.77 655.059 320.262 655.059C319.839 655.059 319.329 655.247 318.732 655.624V661H316.784V653.649H318.732V654.678C319.342 654.178 319.828 653.848 320.192 653.688C320.561 653.527 320.944 653.446 321.341 653.446C322.89 653.446 323.665 654.354 323.665 656.169V661Z" fill="white"/>
<rect x="749" y="645" width="118" height="24" rx="2" fill="#282828"/>
<path d="M760.545 657.744V661H758.45V651.434H762.068C763.308 651.434 764.25 651.688 764.893 652.196C765.536 652.699 765.858 653.438 765.858 654.411C765.858 655.427 765.502 656.237 764.792 656.842C764.081 657.443 763.154 657.744 762.011 657.744H760.545ZM760.532 652.938V656.227H761.091C762.14 656.227 762.834 656.083 763.173 655.795C763.516 655.503 763.687 655.056 763.687 654.456C763.687 653.96 763.522 653.584 763.192 653.326C762.866 653.068 762.219 652.938 761.25 652.938H760.532ZM772.167 655.636H772.104C771.842 655.569 771.49 655.535 771.05 655.535C770.361 655.535 769.726 655.645 769.146 655.865V661H767.197V653.649H769.146V654.982C769.743 654.445 770.234 654.085 770.619 653.903C771.004 653.717 771.382 653.624 771.755 653.624C771.852 653.624 771.99 653.628 772.167 653.637V655.636ZM775.322 652.729H773.234V651.009H775.322V652.729ZM775.252 661H773.304V653.649H775.252V661ZM788.659 661H786.697V657.312C786.697 656.821 786.674 656.392 786.627 656.023C786.585 655.651 786.456 655.397 786.24 655.262C786.029 655.126 785.735 655.059 785.358 655.059C785.024 655.059 784.552 655.245 783.942 655.617V661H781.981V657.312C781.981 656.796 781.956 656.36 781.905 656.004C781.854 655.645 781.721 655.397 781.505 655.262C781.293 655.126 781.003 655.059 780.635 655.059C780.284 655.059 779.814 655.247 779.226 655.624V661H777.277V653.649H779.226V654.678C779.869 654.149 780.356 653.812 780.686 653.668C781.02 653.52 781.365 653.446 781.721 653.446C782.643 653.446 783.325 653.916 783.765 654.855C784.387 654.314 784.895 653.944 785.288 653.745C785.682 653.546 786.067 653.446 786.443 653.446C787.92 653.446 788.659 654.354 788.659 656.169V661ZM796.854 661H794.917V660.042C794.321 660.554 793.836 660.873 793.464 661C793.096 661.131 792.702 661.197 792.283 661.197C791.64 661.197 791.107 660.989 790.684 660.575C790.26 660.156 790.049 659.618 790.049 658.962C790.049 658.133 790.36 657.505 790.982 657.077C791.608 656.65 792.926 656.383 794.937 656.277V656.081C794.937 655.619 794.778 655.285 794.46 655.078C794.143 654.87 793.618 654.767 792.886 654.767C792.387 654.767 791.672 654.957 790.741 655.338H790.671V653.795C791.653 653.558 792.541 653.44 793.337 653.44C794.577 653.44 795.472 653.641 796.022 654.043C796.576 654.441 796.854 655.076 796.854 655.947V661ZM794.917 659.21V657.356C793.639 657.462 792.84 657.627 792.518 657.852C792.196 658.072 792.036 658.378 792.036 658.772C792.036 659.191 792.148 659.483 792.372 659.648C792.596 659.813 792.948 659.896 793.426 659.896C793.929 659.896 794.427 659.667 794.917 659.21ZM803.779 655.636H803.715C803.453 655.569 803.102 655.535 802.662 655.535C801.972 655.535 801.337 655.645 800.757 655.865V661H798.809V653.649H800.757V654.982C801.354 654.445 801.845 654.085 802.23 653.903C802.615 653.717 802.994 653.624 803.366 653.624C803.464 653.624 803.601 653.628 803.779 653.637V655.636ZM811.98 653.649L807.949 663.647H805.893L807.01 661.013L804.134 653.649H806.248L808.102 658.899L809.974 653.649H811.98ZM813.154 661V651.434H816.595C818.05 651.434 819.039 651.627 819.559 652.012C820.084 652.393 820.346 652.932 820.346 653.63C820.346 654.553 819.893 655.224 818.988 655.643V655.693C820.355 655.981 821.038 656.77 821.038 658.061C821.038 658.962 820.7 659.678 820.022 660.207C819.35 660.736 818.372 661 817.09 661H813.154ZM815.236 652.938V655.255H816.023C816.671 655.255 817.13 655.222 817.401 655.154C817.672 655.082 817.873 654.949 818.004 654.754C818.135 654.555 818.201 654.307 818.201 654.011C818.201 653.774 818.141 653.571 818.023 653.402C817.909 653.233 817.72 653.114 817.458 653.046C817.196 652.974 816.667 652.938 815.871 652.938H815.236ZM815.236 656.677V659.496H815.89C816.47 659.496 816.916 659.489 817.229 659.477C817.543 659.464 817.826 659.403 818.08 659.292C818.338 659.182 818.533 659.024 818.664 658.816C818.799 658.609 818.867 658.357 818.867 658.061C818.867 657.739 818.797 657.475 818.658 657.268C818.522 657.06 818.323 656.91 818.061 656.817C817.803 656.724 817.196 656.677 816.239 656.677H815.236ZM829.36 661H827.411V659.972C826.819 660.454 826.336 660.78 825.964 660.949C825.591 661.118 825.204 661.203 824.802 661.203C823.253 661.203 822.479 660.295 822.479 658.48V653.649H824.44V657.312C824.44 658.336 824.553 658.973 824.777 659.223C825.001 659.472 825.367 659.597 825.875 659.597C826.311 659.597 826.823 659.407 827.411 659.026V653.649H829.36V661ZM835.72 660.956C835.2 661.083 834.643 661.146 834.051 661.146C833.175 661.146 832.534 660.96 832.127 660.587C831.721 660.211 831.518 659.604 831.518 658.766V654.938H830.553V653.649H831.524V651.586H833.467V653.649H835.72V654.938H833.467V657.966C833.467 658.744 833.566 659.252 833.765 659.489C833.964 659.726 834.298 659.845 834.768 659.845C835.069 659.845 835.367 659.771 835.663 659.623H835.72V660.956ZM841.255 660.956C840.735 661.083 840.178 661.146 839.586 661.146C838.71 661.146 838.069 660.96 837.663 660.587C837.256 660.211 837.053 659.604 837.053 658.766V654.938H836.088V653.649H837.06V651.586H839.002V653.649H841.255V654.938H839.002V657.966C839.002 658.744 839.101 659.252 839.3 659.489C839.499 659.726 839.833 659.845 840.303 659.845C840.604 659.845 840.902 659.771 841.198 659.623H841.255V660.956ZM845.616 661.229C844.423 661.229 843.496 660.886 842.836 660.2C842.176 659.51 841.846 658.554 841.846 657.331C841.846 656.104 842.178 655.145 842.842 654.456C843.511 653.766 844.436 653.421 845.616 653.421C846.805 653.421 847.73 653.766 848.39 654.456C849.055 655.145 849.387 656.104 849.387 657.331C849.387 658.554 849.055 659.51 848.39 660.2C847.73 660.886 846.805 661.229 845.616 661.229ZM845.616 654.779C844.461 654.779 843.883 655.636 843.883 657.35C843.883 659.03 844.469 659.87 845.642 659.87C846.78 659.87 847.349 659.03 847.349 657.35C847.349 655.636 846.771 654.779 845.616 654.779ZM857.728 661H855.766V657.337C855.766 656.313 855.652 655.679 855.423 655.433C855.199 655.183 854.833 655.059 854.325 655.059C853.902 655.059 853.392 655.247 852.795 655.624V661H850.847V653.649H852.795V654.678C853.405 654.178 853.891 653.848 854.255 653.688C854.624 653.527 855.007 653.446 855.404 653.446C856.953 653.446 857.728 654.354 857.728 656.169V661Z" fill="white"/>
<rect x="508" y="680" width="69" height="24" rx="2" fill="#282828"/>
<path d="M521.502 696.203C520.046 696.203 518.902 695.761 518.068 694.876C517.238 693.988 516.824 692.771 516.824 691.227C516.824 689.674 517.236 688.455 518.062 687.57C518.891 686.682 520.038 686.237 521.502 686.237C522.962 686.237 524.107 686.682 524.936 687.57C525.77 688.459 526.187 689.678 526.187 691.227C526.187 692.763 525.772 693.977 524.942 694.87C524.117 695.759 522.97 696.203 521.502 696.203ZM521.508 687.748C520.751 687.748 520.148 688.051 519.699 688.656C519.251 689.261 519.026 690.118 519.026 691.227C519.026 692.331 519.251 693.186 519.699 693.791C520.148 694.392 520.751 694.692 521.508 694.692C522.262 694.692 522.862 694.39 523.311 693.785C523.76 693.175 523.984 692.32 523.984 691.22C523.984 690.116 523.76 689.261 523.311 688.656C522.867 688.051 522.266 687.748 521.508 687.748ZM534.604 688.649L531.595 696H529.754L526.758 688.649H528.872L530.744 693.74L532.598 688.649H534.604ZM542.17 692.629H536.958C537.043 694.102 537.879 694.838 539.466 694.838C540.295 694.838 541.129 694.538 541.967 693.937H542.037V695.625C541.042 696.006 540.107 696.197 539.231 696.197C537.851 696.197 536.8 695.869 536.076 695.213C535.353 694.557 534.991 693.611 534.991 692.375C534.991 691.148 535.333 690.183 536.019 689.481C536.705 688.774 537.65 688.421 538.856 688.421C541.065 688.421 542.17 689.595 542.17 691.944V692.629ZM540.221 691.525C540.204 690.26 539.69 689.627 538.679 689.627C537.604 689.627 537.03 690.26 536.958 691.525H540.221ZM548.581 690.636H548.518C548.255 690.569 547.904 690.535 547.464 690.535C546.774 690.535 546.139 690.645 545.56 690.865V696H543.611V688.649H545.56V689.982C546.156 689.445 546.647 689.085 547.032 688.903C547.417 688.717 547.796 688.624 548.168 688.624C548.266 688.624 548.403 688.628 548.581 688.637V690.636ZM551.666 696H549.717V686.009H551.666V696ZM559.924 696H557.988V695.042C557.392 695.554 556.907 695.873 556.535 696C556.167 696.131 555.773 696.197 555.354 696.197C554.711 696.197 554.178 695.989 553.754 695.575C553.331 695.156 553.12 694.618 553.12 693.962C553.12 693.133 553.431 692.505 554.053 692.077C554.679 691.65 555.997 691.383 558.007 691.277V691.081C558.007 690.619 557.849 690.285 557.531 690.078C557.214 689.87 556.689 689.767 555.957 689.767C555.458 689.767 554.743 689.957 553.812 690.338H553.742V688.795C554.723 688.558 555.612 688.44 556.408 688.44C557.648 688.44 558.543 688.641 559.093 689.043C559.647 689.441 559.924 690.076 559.924 690.947V696ZM557.988 694.21V692.356C556.71 692.462 555.91 692.627 555.589 692.852C555.267 693.072 555.106 693.378 555.106 693.772C555.106 694.191 555.219 694.483 555.443 694.648C555.667 694.813 556.018 694.896 556.497 694.896C557 694.896 557.497 694.667 557.988 694.21ZM568.665 688.649L564.634 698.647H562.578L563.695 696.013L560.819 688.649H562.933L564.787 693.899L566.659 688.649H568.665Z" fill="white"/>
<rect x="39" y="572" width="111" height="24" rx="2" fill="#282828"/>
<path d="M48.6001 588V578.434H51.5898C52.944 578.434 53.9998 578.608 54.7573 578.955C55.5148 579.302 56.1115 579.835 56.5474 580.554C56.9875 581.274 57.2075 582.164 57.2075 583.227C57.2075 584.187 56.979 585.05 56.522 585.816C56.0692 586.578 55.4619 587.132 54.7002 587.479C53.9385 587.826 52.9102 588 51.6152 588H48.6001ZM50.6948 579.938V586.496H51.7231C53.9194 586.496 55.0176 585.4 55.0176 583.208C55.0176 581.028 53.9194 579.938 51.7231 579.938H50.6948ZM60.7622 579.729H58.6738V578.009H60.7622V579.729ZM60.6924 588H58.7437V580.649H60.6924V588ZM68.9507 588H67.0146V587.042C66.418 587.554 65.9334 587.873 65.561 588C65.1929 588.131 64.7993 588.197 64.3804 588.197C63.7371 588.197 63.2039 587.989 62.7808 587.575C62.3576 587.156 62.146 586.618 62.146 585.962C62.146 585.133 62.457 584.505 63.0791 584.077C63.7054 583.65 65.0236 583.383 67.0337 583.277V583.081C67.0337 582.619 66.875 582.285 66.5576 582.078C66.2402 581.87 65.7155 581.767 64.9834 581.767C64.484 581.767 63.7689 581.957 62.8379 582.338H62.7681V580.795C63.7498 580.558 64.6385 580.44 65.4341 580.44C66.674 580.44 67.569 580.641 68.1191 581.043C68.6735 581.441 68.9507 582.076 68.9507 582.947V588ZM67.0146 586.21V584.356C65.7367 584.462 64.9368 584.627 64.6152 584.852C64.2936 585.072 64.1328 585.378 64.1328 585.772C64.1328 586.191 64.245 586.483 64.4692 586.648C64.6935 586.813 65.0448 586.896 65.5229 586.896C66.0265 586.896 66.5238 586.667 67.0146 586.21ZM72.8545 588H70.9058V578.009H72.8545V588ZM78.0913 588.229C76.8979 588.229 75.9712 587.886 75.311 587.2C74.6509 586.51 74.3208 585.554 74.3208 584.331C74.3208 583.104 74.653 582.145 75.3174 581.456C75.986 580.766 76.9106 580.421 78.0913 580.421C79.2804 580.421 80.2051 580.766 80.8652 581.456C81.5296 582.145 81.8618 583.104 81.8618 584.331C81.8618 585.554 81.5296 586.51 80.8652 587.2C80.2051 587.886 79.2804 588.229 78.0913 588.229ZM78.0913 581.779C76.936 581.779 76.3584 582.636 76.3584 584.35C76.3584 586.03 76.9445 586.87 78.1167 586.87C79.255 586.87 79.8242 586.03 79.8242 584.35C79.8242 582.636 79.2466 581.779 78.0913 581.779ZM89.9551 587.156C89.9551 588.37 89.6504 589.267 89.041 589.847C88.4316 590.427 87.4562 590.717 86.1147 590.717C85.2472 590.717 84.3882 590.622 83.5376 590.431V588.844H83.6328C84.4749 589.145 85.2049 589.295 85.8228 589.295C86.5802 589.295 87.1325 589.162 87.4795 588.895C87.8307 588.628 88.0063 588.102 88.0063 587.314V586.908C87.2489 587.56 86.5146 587.886 85.8037 587.886C83.7852 587.886 82.7759 586.635 82.7759 584.134C82.7759 583.026 83.0679 582.135 83.6519 581.462C84.2401 580.785 84.9912 580.446 85.9053 580.446C86.6204 580.446 87.3123 580.671 87.981 581.119L88.1143 580.649H89.9551V587.156ZM88.0063 585.842V582.135C87.5789 581.953 87.1833 581.862 86.8193 581.862C85.4694 581.862 84.7944 582.634 84.7944 584.179C84.7944 584.953 84.9341 585.514 85.2134 585.861C85.4969 586.204 85.9349 586.375 86.5273 586.375C86.9886 586.375 87.4816 586.197 88.0063 585.842ZM100.556 588H98.3403L97.6167 585.924H93.8525L93.1289 588H91.0088L94.6206 578.434H96.9438L100.556 588ZM97.0898 584.439L95.7378 580.58L94.3857 584.439H97.0898ZM107.246 587.638C106.425 588.011 105.682 588.197 105.018 588.197C103.732 588.197 102.729 587.865 102.009 587.2C101.29 586.536 100.93 585.588 100.93 584.356C100.93 583.117 101.294 582.156 102.022 581.475C102.75 580.789 103.723 580.446 104.942 580.446C105.737 580.446 106.506 580.635 107.246 581.011V582.801H107.145C106.425 582.158 105.716 581.836 105.018 581.836C104.371 581.836 103.867 582.059 103.507 582.503C103.148 582.947 102.968 583.565 102.968 584.356C102.968 585.148 103.148 585.755 103.507 586.178C103.871 586.597 104.385 586.807 105.05 586.807C105.757 586.807 106.455 586.485 107.145 585.842H107.246V587.638ZM112.934 587.956C112.413 588.083 111.857 588.146 111.264 588.146C110.388 588.146 109.747 587.96 109.341 587.587C108.935 587.211 108.731 586.604 108.731 585.766V581.938H107.767V580.649H108.738V578.586H110.68V580.649H112.934V581.938H110.68V584.966C110.68 585.744 110.78 586.252 110.979 586.489C111.177 586.726 111.512 586.845 111.981 586.845C112.282 586.845 112.58 586.771 112.876 586.623H112.934V587.956ZM116.152 579.729H114.063V578.009H116.152V579.729ZM116.082 588H114.133V580.649H116.082V588ZM121.319 588.229C120.125 588.229 119.199 587.886 118.539 587.2C117.878 586.51 117.548 585.554 117.548 584.331C117.548 583.104 117.881 582.145 118.545 581.456C119.214 580.766 120.138 580.421 121.319 580.421C122.508 580.421 123.433 580.766 124.093 581.456C124.757 582.145 125.089 583.104 125.089 584.331C125.089 585.554 124.757 586.51 124.093 587.2C123.433 587.886 122.508 588.229 121.319 588.229ZM121.319 581.779C120.164 581.779 119.586 582.636 119.586 584.35C119.586 586.03 120.172 586.87 121.344 586.87C122.483 586.87 123.052 586.03 123.052 584.35C123.052 582.636 122.474 581.779 121.319 581.779ZM133.43 588H131.469V584.337C131.469 583.313 131.354 582.679 131.126 582.433C130.902 582.183 130.536 582.059 130.028 582.059C129.605 582.059 129.095 582.247 128.498 582.624V588H126.549V580.649H128.498V581.678C129.107 581.178 129.594 580.848 129.958 580.688C130.326 580.527 130.709 580.446 131.107 580.446C132.656 580.446 133.43 581.354 133.43 583.169V588ZM134.896 587.651V585.848H134.973C135.849 586.555 136.771 586.908 137.74 586.908C138.722 586.908 139.213 586.642 139.213 586.108C139.213 585.893 139.137 585.73 138.984 585.62C138.832 585.505 138.557 585.404 138.159 585.315C137.884 585.264 137.493 585.182 136.985 585.067C136.477 584.953 136.077 584.794 135.785 584.591C135.497 584.388 135.284 584.143 135.144 583.855C135.004 583.567 134.935 583.235 134.935 582.858C134.935 582.143 135.246 581.563 135.868 581.119C136.49 580.671 137.326 580.446 138.375 580.446C139.302 580.446 140.138 580.609 140.882 580.935V582.649H140.832C139.981 582.044 139.158 581.741 138.362 581.741C137.952 581.741 137.609 581.817 137.334 581.97C137.059 582.122 136.921 582.312 136.921 582.541C136.921 582.799 137.006 582.987 137.175 583.106C137.349 583.22 137.637 583.324 138.039 583.417C138.551 583.51 139.061 583.622 139.568 583.753C140.076 583.885 140.476 584.117 140.768 584.452C141.06 584.782 141.206 585.209 141.206 585.734C141.206 586.483 140.889 587.082 140.254 587.53C139.623 587.979 138.771 588.203 137.696 588.203C136.629 588.203 135.696 588.019 134.896 587.651Z" fill="white"/>
<rect x="55" y="337" width="95" height="24" rx="2" fill="#282828"/>
<path d="M64.6172 353V343.434H67.6069C68.9611 343.434 70.0169 343.608 70.7744 343.955C71.5319 344.302 72.1286 344.835 72.5645 345.554C73.0046 346.274 73.2246 347.164 73.2246 348.227C73.2246 349.187 72.9961 350.05 72.5391 350.816C72.0863 351.578 71.479 352.132 70.7173 352.479C69.9556 352.826 68.9272 353 67.6323 353H64.6172ZM66.7119 344.938V351.496H67.7402C69.9365 351.496 71.0347 350.4 71.0347 348.208C71.0347 346.028 69.9365 344.938 67.7402 344.938H66.7119ZM76.7793 344.729H74.6909V343.009H76.7793V344.729ZM76.7095 353H74.7607V345.649H76.7095V353ZM84.9678 353H83.0317V352.042C82.4351 352.554 81.9505 352.873 81.5781 353C81.21 353.131 80.8164 353.197 80.3975 353.197C79.7542 353.197 79.221 352.989 78.7979 352.575C78.3747 352.156 78.1631 351.618 78.1631 350.962C78.1631 350.133 78.4741 349.505 79.0962 349.077C79.7225 348.65 81.0407 348.383 83.0508 348.277V348.081C83.0508 347.619 82.8921 347.285 82.5747 347.078C82.2573 346.87 81.7326 346.767 81.0005 346.767C80.5011 346.767 79.786 346.957 78.855 347.338H78.7852V345.795C79.7669 345.558 80.6556 345.44 81.4512 345.44C82.6911 345.44 83.5861 345.641 84.1362 346.043C84.6906 346.441 84.9678 347.076 84.9678 347.947V353ZM83.0317 351.21V349.356C81.7537 349.462 80.9539 349.627 80.6323 349.852C80.3107 350.072 80.1499 350.378 80.1499 350.772C80.1499 351.191 80.262 351.483 80.4863 351.648C80.7106 351.813 81.0618 351.896 81.54 351.896C82.0436 351.896 82.5409 351.667 83.0317 351.21ZM88.8716 353H86.9229V343.009H88.8716V353ZM94.1084 353.229C92.915 353.229 91.9883 352.886 91.3281 352.2C90.668 351.51 90.3379 350.554 90.3379 349.331C90.3379 348.104 90.6701 347.145 91.3345 346.456C92.0031 345.766 92.9277 345.421 94.1084 345.421C95.2975 345.421 96.2222 345.766 96.8823 346.456C97.5467 347.145 97.8789 348.104 97.8789 349.331C97.8789 350.554 97.5467 351.51 96.8823 352.2C96.2222 352.886 95.2975 353.229 94.1084 353.229ZM94.1084 346.779C92.9531 346.779 92.3755 347.636 92.3755 349.35C92.3755 351.03 92.9616 351.87 94.1338 351.87C95.2721 351.87 95.8413 351.03 95.8413 349.35C95.8413 347.636 95.2637 346.779 94.1084 346.779ZM105.972 352.156C105.972 353.37 105.667 354.267 105.058 354.847C104.449 355.427 103.473 355.717 102.132 355.717C101.264 355.717 100.405 355.622 99.5547 355.431V353.844H99.6499C100.492 354.145 101.222 354.295 101.84 354.295C102.597 354.295 103.15 354.162 103.497 353.895C103.848 353.628 104.023 353.102 104.023 352.314V351.908C103.266 352.56 102.532 352.886 101.821 352.886C99.8022 352.886 98.793 351.635 98.793 349.134C98.793 348.026 99.085 347.135 99.6689 346.462C100.257 345.785 101.008 345.446 101.922 345.446C102.638 345.446 103.329 345.671 103.998 346.119L104.131 345.649H105.972V352.156ZM104.023 350.842V347.135C103.596 346.953 103.2 346.862 102.836 346.862C101.486 346.862 100.812 347.634 100.812 349.179C100.812 349.953 100.951 350.514 101.23 350.861C101.514 351.204 101.952 351.375 102.544 351.375C103.006 351.375 103.499 351.197 104.023 350.842ZM108.124 353V343.434H111.564C113.02 343.434 114.008 343.627 114.529 344.012C115.054 344.393 115.316 344.932 115.316 345.63C115.316 346.553 114.863 347.224 113.958 347.643V347.693C115.324 347.981 116.008 348.77 116.008 350.061C116.008 350.962 115.669 351.678 114.992 352.207C114.319 352.736 113.342 353 112.06 353H108.124ZM110.206 344.938V347.255H110.993C111.641 347.255 112.1 347.222 112.371 347.154C112.641 347.082 112.842 346.949 112.974 346.754C113.105 346.555 113.17 346.307 113.17 346.011C113.17 345.774 113.111 345.571 112.993 345.402C112.878 345.233 112.69 345.114 112.428 345.046C112.165 344.974 111.636 344.938 110.841 344.938H110.206ZM110.206 348.677V351.496H110.86C111.44 351.496 111.886 351.489 112.199 351.477C112.512 351.464 112.796 351.403 113.05 351.292C113.308 351.182 113.503 351.024 113.634 350.816C113.769 350.609 113.837 350.357 113.837 350.061C113.837 349.739 113.767 349.475 113.627 349.268C113.492 349.06 113.293 348.91 113.031 348.817C112.773 348.724 112.165 348.677 111.209 348.677H110.206ZM120.718 353.229C119.524 353.229 118.598 352.886 117.938 352.2C117.277 351.51 116.947 350.554 116.947 349.331C116.947 348.104 117.279 347.145 117.944 346.456C118.612 345.766 119.537 345.421 120.718 345.421C121.907 345.421 122.832 345.766 123.492 346.456C124.156 347.145 124.488 348.104 124.488 349.331C124.488 350.554 124.156 351.51 123.492 352.2C122.832 352.886 121.907 353.229 120.718 353.229ZM120.718 346.779C119.562 346.779 118.985 347.636 118.985 349.35C118.985 351.03 119.571 351.87 120.743 351.87C121.882 351.87 122.451 351.03 122.451 349.35C122.451 347.636 121.873 346.779 120.718 346.779ZM132.582 353H130.633V352.035C129.998 352.551 129.52 352.875 129.198 353.006C128.877 353.138 128.532 353.203 128.164 353.203C127.321 353.203 126.651 352.862 126.151 352.181C125.652 351.496 125.402 350.565 125.402 349.388C125.402 348.22 125.705 347.272 126.31 346.544C126.915 345.812 127.666 345.446 128.563 345.446C128.885 345.446 129.179 345.482 129.446 345.554C129.712 345.626 130.108 345.8 130.633 346.075V343.009H132.582V353ZM130.633 351.115V347.135C130.21 346.953 129.816 346.862 129.452 346.862C128.098 346.862 127.421 347.687 127.421 349.337C127.421 350.171 127.561 350.774 127.84 351.146C128.119 351.515 128.557 351.699 129.154 351.699C129.602 351.699 130.095 351.504 130.633 351.115ZM141.481 345.649L137.45 355.647H135.394L136.511 353.013L133.635 345.649H135.749L137.603 350.899L139.475 345.649H141.481Z" fill="white"/>
<line x1="258" y1="140" x2="258" y2="101" stroke="#282828" stroke-width="2"/>
<line x1="275" y1="645" x2="275" y2="609" stroke="#282828" stroke-width="2"/>
<line x1="807" y1="645" x2="807" y2="608" stroke="#282828" stroke-width="2"/>
<rect x="214" y="77" width="90" height="24" rx="2" fill="#282828"/>
<path d="M223.313 93V83.4341H226.303C227.657 83.4341 228.713 83.6076 229.471 83.9546C230.228 84.3016 230.825 84.8348 231.261 85.5542C231.701 86.2736 231.921 87.1644 231.921 88.2266C231.921 89.1872 231.692 90.0505 231.235 90.8164C230.783 91.5781 230.175 92.1325 229.414 92.4795C228.652 92.8265 227.624 93 226.329 93H223.313ZM225.408 84.9385V91.4956H226.437C228.633 91.4956 229.731 90.3996 229.731 88.2075C229.731 86.0282 228.633 84.9385 226.437 84.9385H225.408ZM235.476 84.729H233.387V83.0088H235.476V84.729ZM235.406 93H233.457V85.6494H235.406V93ZM243.664 93H241.728V92.0415C241.131 92.5535 240.647 92.873 240.274 93C239.906 93.1312 239.513 93.1968 239.094 93.1968C238.451 93.1968 237.917 92.9894 237.494 92.5747C237.071 92.1558 236.859 91.6183 236.859 90.9624C236.859 90.133 237.17 89.5046 237.792 89.0771C238.419 88.6497 239.737 88.3831 241.747 88.2773V88.0806C241.747 87.6193 241.588 87.285 241.271 87.0776C240.954 86.8703 240.429 86.7666 239.697 86.7666C239.197 86.7666 238.482 86.957 237.551 87.3379H237.481V85.7954C238.463 85.5584 239.352 85.4399 240.147 85.4399C241.387 85.4399 242.282 85.641 242.833 86.043C243.387 86.4408 243.664 87.0755 243.664 87.9473V93ZM241.728 91.21V89.3564C240.45 89.4622 239.65 89.6273 239.329 89.8516C239.007 90.0716 238.846 90.3784 238.846 90.772C238.846 91.1909 238.958 91.4829 239.183 91.6479C239.407 91.813 239.758 91.8955 240.236 91.8955C240.74 91.8955 241.237 91.667 241.728 91.21ZM247.568 93H245.619V83.0088H247.568V93ZM252.805 93.2285C251.611 93.2285 250.685 92.8857 250.024 92.2002C249.364 91.5104 249.034 90.554 249.034 89.3311C249.034 88.1038 249.366 87.1453 250.031 86.4556C250.699 85.7658 251.624 85.4209 252.805 85.4209C253.994 85.4209 254.918 85.7658 255.579 86.4556C256.243 87.1453 256.575 88.1038 256.575 89.3311C256.575 90.554 256.243 91.5104 255.579 92.2002C254.918 92.8857 253.994 93.2285 252.805 93.2285ZM252.805 86.7793C251.649 86.7793 251.072 87.6362 251.072 89.3501C251.072 91.0301 251.658 91.8701 252.83 91.8701C253.968 91.8701 254.538 91.0301 254.538 89.3501C254.538 87.6362 253.96 86.7793 252.805 86.7793ZM264.668 92.1558C264.668 93.3703 264.364 94.2674 263.754 94.8472C263.145 95.4269 262.17 95.7168 260.828 95.7168C259.961 95.7168 259.102 95.6216 258.251 95.4312V93.8442H258.346C259.188 94.1447 259.918 94.2949 260.536 94.2949C261.294 94.2949 261.846 94.1616 262.193 93.895C262.544 93.6284 262.72 93.1016 262.72 92.3145V91.9082C261.962 92.5599 261.228 92.8857 260.517 92.8857C258.499 92.8857 257.489 91.6353 257.489 89.1343C257.489 88.0256 257.781 87.1348 258.365 86.4619C258.953 85.7848 259.705 85.4463 260.619 85.4463C261.334 85.4463 262.026 85.6706 262.694 86.1191L262.828 85.6494H264.668V92.1558ZM262.72 90.8418V87.1348C262.292 86.9528 261.897 86.8618 261.533 86.8618C260.183 86.8618 259.508 87.6341 259.508 89.1787C259.508 89.9531 259.647 90.5138 259.927 90.8608C260.21 91.2036 260.648 91.375 261.241 91.375C261.702 91.375 262.195 91.1973 262.72 90.8418ZM274.171 85.021H271.029V93H268.934V85.021H265.792V83.4341H274.171V85.021ZM277.307 84.729H275.218V83.0088H277.307V84.729ZM277.237 93H275.288V85.6494H277.237V93ZM283.597 92.9556C283.077 93.0825 282.52 93.146 281.928 93.146C281.052 93.146 280.411 92.9598 280.004 92.5874C279.598 92.2108 279.395 91.6035 279.395 90.7656V86.938H278.43V85.6494H279.401V83.5864H281.344V85.6494H283.597V86.938H281.344V89.9658C281.344 90.7445 281.443 91.2523 281.642 91.4893C281.841 91.7262 282.175 91.8447 282.645 91.8447C282.945 91.8447 283.244 91.7707 283.54 91.6226H283.597V92.9556ZM286.746 93H284.797V83.0088H286.746V93ZM295.391 89.6294H290.18C290.264 91.1021 291.1 91.8384 292.687 91.8384C293.516 91.8384 294.35 91.5379 295.188 90.937H295.258V92.6255C294.263 93.0063 293.328 93.1968 292.452 93.1968C291.073 93.1968 290.021 92.8688 289.297 92.2129C288.574 91.557 288.212 90.6112 288.212 89.3755C288.212 88.1483 288.555 87.1834 289.24 86.481C289.926 85.7743 290.872 85.4209 292.078 85.4209C294.287 85.4209 295.391 86.5952 295.391 88.9438V89.6294ZM293.442 88.5249C293.425 87.2596 292.911 86.627 291.9 86.627C290.825 86.627 290.252 87.2596 290.18 88.5249H293.442Z" fill="white"/>
<rect x="827" y="77" width="100" height="24" rx="2" fill="#282828"/>
<path d="M843.916 92.3589C843.112 92.7271 842.473 92.9577 841.999 93.0508C841.525 93.1439 841.068 93.1904 840.628 93.1904C839.164 93.1904 838.011 92.7546 837.168 91.8828C836.326 91.0111 835.905 89.7944 835.905 88.2329C835.905 86.701 836.331 85.4886 837.181 84.5957C838.036 83.6986 839.187 83.25 840.634 83.25C841.756 83.25 842.85 83.5187 843.916 84.0562V86.0176H843.694C842.699 85.1712 841.758 84.748 840.869 84.748C840.019 84.748 839.346 85.0527 838.851 85.6621C838.355 86.2673 838.108 87.1263 838.108 88.2393C838.108 89.3438 838.36 90.1965 838.863 90.7974C839.367 91.394 840.04 91.6924 840.882 91.6924C841.322 91.6924 841.751 91.6162 842.17 91.4639C842.589 91.3073 843.104 90.9624 843.713 90.4292H843.916V92.3589ZM847.287 93H845.338V83.0088H847.287V93ZM852.523 93.2285C851.33 93.2285 850.403 92.8857 849.743 92.2002C849.083 91.5104 848.753 90.554 848.753 89.3311C848.753 88.1038 849.085 87.1453 849.75 86.4556C850.418 85.7658 851.343 85.4209 852.523 85.4209C853.713 85.4209 854.637 85.7658 855.297 86.4556C855.962 87.1453 856.294 88.1038 856.294 89.3311C856.294 90.554 855.962 91.5104 855.297 92.2002C854.637 92.8857 853.713 93.2285 852.523 93.2285ZM852.523 86.7793C851.368 86.7793 850.791 87.6362 850.791 89.3501C850.791 91.0301 851.377 91.8701 852.549 91.8701C853.687 91.8701 854.256 91.0301 854.256 89.3501C854.256 87.6362 853.679 86.7793 852.523 86.7793ZM857.252 92.6509V90.8481H857.329C858.205 91.5549 859.127 91.9082 860.096 91.9082C861.078 91.9082 861.569 91.6416 861.569 91.1084C861.569 90.8926 861.493 90.7297 861.34 90.6196C861.188 90.5054 860.913 90.4038 860.515 90.3149C860.24 90.2642 859.849 90.1816 859.341 90.0674C858.833 89.9531 858.433 89.7944 858.141 89.5913C857.853 89.3882 857.64 89.1427 857.5 88.855C857.36 88.5672 857.291 88.235 857.291 87.8584C857.291 87.1432 857.602 86.5635 858.224 86.1191C858.846 85.6706 859.681 85.4463 860.731 85.4463C861.658 85.4463 862.493 85.6092 863.238 85.9351V87.6489H863.188C862.337 87.0438 861.514 86.7412 860.718 86.7412C860.308 86.7412 859.965 86.8174 859.69 86.9697C859.415 87.1221 859.277 87.3125 859.277 87.541C859.277 87.7992 859.362 87.9875 859.531 88.106C859.705 88.2202 859.993 88.3239 860.395 88.417C860.907 88.5101 861.417 88.6222 861.924 88.7534C862.432 88.8846 862.832 89.1174 863.124 89.4517C863.416 89.7817 863.562 90.2091 863.562 90.7339C863.562 91.4829 863.245 92.0817 862.61 92.5303C861.979 92.9788 861.127 93.2031 860.052 93.2031C858.985 93.2031 858.052 93.019 857.252 92.6509ZM871.522 89.6294H866.311C866.395 91.1021 867.231 91.8384 868.818 91.8384C869.647 91.8384 870.481 91.5379 871.319 90.937H871.389V92.6255C870.394 93.0063 869.459 93.1968 868.583 93.1968C867.203 93.1968 866.152 92.8688 865.428 92.2129C864.705 91.557 864.343 90.6112 864.343 89.3755C864.343 88.1483 864.686 87.1834 865.371 86.481C866.057 85.7743 867.002 85.4209 868.208 85.4209C870.417 85.4209 871.522 86.5952 871.522 88.9438V89.6294ZM869.573 88.5249C869.556 87.2596 869.042 86.627 868.031 86.627C866.956 86.627 866.382 87.2596 866.311 88.5249H869.573ZM873.09 93V83.4341H876.53C877.986 83.4341 878.974 83.6266 879.495 84.0117C880.019 84.3926 880.282 84.9321 880.282 85.6304C880.282 86.5529 879.829 87.2236 878.923 87.6426V87.6934C880.29 87.9811 880.974 88.7703 880.974 90.061C880.974 90.9624 880.635 91.6776 879.958 92.2065C879.285 92.7355 878.308 93 877.025 93H873.09ZM875.172 84.9385V87.2554H875.959C876.606 87.2554 877.066 87.2215 877.336 87.1538C877.607 87.0819 877.808 86.9486 877.939 86.7539C878.071 86.555 878.136 86.3075 878.136 86.0112C878.136 85.7743 878.077 85.5711 877.958 85.4019C877.844 85.2326 877.656 85.1141 877.394 85.0464C877.131 84.9744 876.602 84.9385 875.807 84.9385H875.172ZM875.172 88.6772V91.4956H875.826C876.405 91.4956 876.852 91.4893 877.165 91.4766C877.478 91.4639 877.762 91.4025 878.016 91.2925C878.274 91.1825 878.468 91.0238 878.6 90.8164C878.735 90.609 878.803 90.3573 878.803 90.061C878.803 89.7394 878.733 89.4749 878.593 89.2676C878.458 89.0602 878.259 88.91 877.997 88.8169C877.738 88.7238 877.131 88.6772 876.175 88.6772H875.172ZM889.295 93H887.347V91.9717C886.754 92.4541 886.272 92.7799 885.899 92.9492C885.527 93.1185 885.14 93.2031 884.738 93.2031C883.189 93.2031 882.415 92.2954 882.415 90.48V85.6494H884.376V89.312C884.376 90.3361 884.488 90.973 884.712 91.2227C884.937 91.4723 885.303 91.5972 885.811 91.5972C886.246 91.5972 886.758 91.4067 887.347 91.0259V85.6494H889.295V93ZM895.656 92.9556C895.135 93.0825 894.579 93.146 893.986 93.146C893.11 93.146 892.469 92.9598 892.063 92.5874C891.657 92.2108 891.454 91.6035 891.454 90.7656V86.938H890.489V85.6494H891.46V83.5864H893.402V85.6494H895.656V86.938H893.402V89.9658C893.402 90.7445 893.502 91.2523 893.701 91.4893C893.9 91.7262 894.234 91.8447 894.704 91.8447C895.004 91.8447 895.302 91.7707 895.599 91.6226H895.656V92.9556ZM901.191 92.9556C900.67 93.0825 900.114 93.146 899.521 93.146C898.646 93.146 898.004 92.9598 897.598 92.5874C897.192 92.2108 896.989 91.6035 896.989 90.7656V86.938H896.024V85.6494H896.995V83.5864H898.938V85.6494H901.191V86.938H898.938V89.9658C898.938 90.7445 899.037 91.2523 899.236 91.4893C899.435 91.7262 899.769 91.8447 900.239 91.8447C900.539 91.8447 900.838 91.7707 901.134 91.6226H901.191V92.9556ZM905.552 93.2285C904.358 93.2285 903.432 92.8857 902.771 92.2002C902.111 91.5104 901.781 90.554 901.781 89.3311C901.781 88.1038 902.113 87.1453 902.778 86.4556C903.446 85.7658 904.371 85.4209 905.552 85.4209C906.741 85.4209 907.666 85.7658 908.326 86.4556C908.99 87.1453 909.322 88.1038 909.322 89.3311C909.322 90.554 908.99 91.5104 908.326 92.2002C907.666 92.8857 906.741 93.2285 905.552 93.2285ZM905.552 86.7793C904.396 86.7793 903.819 87.6362 903.819 89.3501C903.819 91.0301 904.405 91.8701 905.577 91.8701C906.715 91.8701 907.285 91.0301 907.285 89.3501C907.285 87.6362 906.707 86.7793 905.552 86.7793ZM917.663 93H915.702V89.3374C915.702 88.3133 915.587 87.6785 915.359 87.4331C915.135 87.1834 914.769 87.0586 914.261 87.0586C913.838 87.0586 913.328 87.2469 912.731 87.6235V93H910.782V85.6494H912.731V86.6777C913.34 86.1784 913.827 85.8483 914.191 85.6875C914.559 85.5267 914.942 85.4463 915.34 85.4463C916.889 85.4463 917.663 86.354 917.663 88.1694V93Z" fill="white"/>
<line x1="876" y1="131" x2="876" y2="101" stroke="#282828" stroke-width="2"/>
<line x1="185" y1="153" x2="146" y2="153" stroke="#282828" stroke-width="2"/>
<line x1="189" y1="350" x2="150" y2="350" stroke="#282828" stroke-width="2"/>
<line x1="189" y1="585" x2="150" y2="585" stroke="#282828" stroke-width="2"/>
<defs>
<filter id="filter0_i_424_883" x="196" y="561" width="161" height="49" filterUnits="userSpaceOnUse" color-interpolation-filters="sRGB">
<feFlood flood-opacity="0" result="BackgroundImageFix"/>
<feBlend mode="normal" in="SourceGraphic" in2="BackgroundImageFix" result="shape"/>
<feColorMatrix in="SourceAlpha" type="matrix" values="0 0 0 0 0 0 0 0 0 0 0 0 0 0 0 0 0 0 127 0" result="hardAlpha"/>
<feOffset dx="1" dy="1"/>
<feGaussianBlur stdDeviation="0.5"/>
<feComposite in2="hardAlpha" operator="arithmetic" k2="-1" k3="1"/>
<feColorMatrix type="matrix" values="0 0 0 0 1 0 0 0 0 1 0 0 0 0 1 0 0 0 1 0"/>
<feBlend mode="normal" in2="shape" result="effect1_innerShadow_424_883"/>
</filter>
<filter id="filter1_i_424_883" x="727" y="562" width="162" height="47" filterUnits="userSpaceOnUse" color-interpolation-filters="sRGB">
<feFlood flood-opacity="0" result="BackgroundImageFix"/>
<feBlend mode="normal" in="SourceGraphic" in2="BackgroundImageFix" result="shape"/>
<feColorMatrix in="SourceAlpha" type="matrix" values="0 0 0 0 0 0 0 0 0 0 0 0 0 0 0 0 0 0 127 0" result="hardAlpha"/>
<feOffset dx="1" dy="1"/>
<feGaussianBlur stdDeviation="0.5"/>
<feComposite in2="hardAlpha" operator="arithmetic" k2="-1" k3="1"/>
<feColorMatrix type="matrix" values="0 0 0 0 0.54902 0 0 0 0 0.796078 0 0 0 0 0.933333 0 0 0 1 0"/>
<feBlend mode="normal" in2="shape" result="effect1_innerShadow_424_883"/>
</filter>
</defs>
</svg>
