<svg width="411" height="243" viewBox="0 0 411 243" fill="none" xmlns="http://www.w3.org/2000/svg">
<rect width="411" height="243" fill="white"/>
<g filter="url(#filter0_d_368_631)">
<rect x="92" y="76" width="226" height="94" fill="white"/>
</g>
<path d="M128.637 103.791H124.969V106.756H124.096V99.3379H126.387V96.1152H127.307V99.3379H129.545V105.836C129.545 106.074 129.443 106.268 129.24 106.416C129.037 106.568 128.801 106.645 128.531 106.645H127.219L127.131 105.883H128.139C128.268 105.883 128.383 105.846 128.484 105.771C128.586 105.693 128.637 105.596 128.637 105.479V103.791ZM128.637 101.219V99.9707H124.969V101.219H128.637ZM124.969 103.152H128.637V101.857H124.969V103.152ZM132.814 106.609H131.367L131.232 105.824H132.346C132.658 105.824 132.814 105.682 132.814 105.396V96.2031H133.729V105.771C133.729 106.021 133.637 106.223 133.453 106.375C133.273 106.531 133.061 106.609 132.814 106.609ZM128.918 98.9102L128.162 98.7227C128.479 98.0781 128.793 97.3203 129.105 96.4492L130.008 96.6426C129.59 97.5645 129.227 98.3203 128.918 98.9102ZM124.688 98.9453C124.395 98.293 124.051 97.5859 123.656 96.8242L124.43 96.5078C124.797 97.1484 125.152 97.8496 125.496 98.6113L124.688 98.9453ZM130.623 103.984V97H131.514V103.984H130.623ZM146.174 99.8125C145.475 99.4609 144.805 99.002 144.164 98.4355C143.523 97.8691 143.018 97.3008 142.646 96.7305C142.303 97.3164 141.816 97.8965 141.188 98.4707C140.559 99.0449 139.924 99.5137 139.283 99.877L138.891 99.3086C139.496 98.9648 140.121 98.4609 140.766 97.7969C141.41 97.1328 141.85 96.5723 142.084 96.1152H143.15C144.029 97.3848 145.195 98.3965 146.648 99.1504L146.174 99.8125ZM138.305 99.8887C138.41 100.021 138.562 100.254 138.762 100.586C138.965 100.918 139.102 101.242 139.172 101.559C139.246 101.875 139.283 102.166 139.283 102.432V102.455C139.283 102.748 139.258 103.018 139.207 103.264C139.156 103.506 139.08 103.715 138.979 103.891C138.881 104.062 138.758 104.205 138.609 104.318C138.465 104.428 138.309 104.502 138.141 104.541C137.977 104.58 137.74 104.6 137.432 104.6H137.115L136.98 103.838C137.32 103.838 137.562 103.834 137.707 103.826C137.855 103.814 137.982 103.766 138.088 103.68C138.193 103.59 138.275 103.445 138.334 103.246C138.393 103.043 138.422 102.787 138.422 102.479C138.422 101.646 138.117 100.836 137.508 100.047V100.035C137.508 100.023 137.502 99.9922 137.49 99.9414C137.475 99.8906 137.467 99.8594 137.467 99.8477C137.604 99.5195 137.771 99.0293 137.971 98.377C138.174 97.7207 138.275 97.3145 138.275 97.1582H136.723V106.779H135.879V96.4375H139.172L139.354 96.666C139.26 97.0762 139.092 97.6641 138.85 98.4297C138.611 99.1914 138.43 99.6777 138.305 99.8887ZM142.254 106.691H140.859L140.748 105.906H141.861C142.174 105.906 142.33 105.76 142.33 105.467V102.42H139.688V101.711H142.33V100.023H140.285V99.3379H145.254V100.023H143.273V101.711H146.086V102.42H143.273V105.824C143.273 106.09 143.176 106.301 142.98 106.457C142.785 106.613 142.543 106.691 142.254 106.691ZM145.758 105.947C145.512 105.658 145.203 105.234 144.832 104.676C144.461 104.113 144.197 103.664 144.041 103.328L144.814 103.059C144.92 103.293 145.154 103.668 145.518 104.184C145.881 104.695 146.217 105.135 146.525 105.502L145.758 105.947ZM139.23 105.971L138.645 105.49C139.004 105.182 139.369 104.795 139.74 104.33C140.115 103.861 140.395 103.441 140.578 103.07L141.41 103.328C141.203 103.723 140.875 104.191 140.426 104.734C139.98 105.273 139.582 105.686 139.23 105.971ZM158.127 101.898C157.686 103.461 157.035 104.609 156.176 105.344C155.316 106.078 154.211 106.445 152.859 106.445C152.332 106.445 151.863 106.393 151.453 106.287C151.043 106.182 150.691 106.025 150.398 105.818C150.105 105.607 149.871 105.346 149.695 105.033C149.52 104.717 149.406 104.375 149.355 104.008C149.309 103.641 149.285 103.033 149.285 102.186C149.285 100.744 149.371 98.9746 149.543 96.877H150.504C150.297 98.8887 150.193 100.674 150.193 102.232C150.193 102.775 150.205 103.234 150.229 103.609C150.256 103.98 150.369 104.324 150.568 104.641C150.771 104.957 151.072 105.197 151.471 105.361C151.869 105.525 152.363 105.607 152.953 105.607C154.012 105.607 154.893 105.311 155.596 104.717C156.299 104.119 156.869 103.078 157.307 101.594L158.127 101.898ZM169.852 105.109L169.348 105.889C168.426 105.197 167.25 104.586 165.82 104.055V104.922C165.82 105.93 164.891 106.434 163.031 106.434C162.293 106.434 161.656 106.275 161.121 105.959C160.586 105.639 160.318 105.201 160.318 104.646C160.318 104.072 160.572 103.617 161.08 103.281C161.588 102.941 162.199 102.771 162.914 102.771C163.664 102.771 164.32 102.844 164.883 102.988V101.26H160.441V100.492H164.883V98.7051H160.131V97.9375H164.883V96.6777H165.791V97.9375H170.139V98.7051H165.791V100.492H169.635V101.26H165.791V103.193C167.588 103.873 168.941 104.512 169.852 105.109ZM164.906 104.617V103.791C164.406 103.607 163.744 103.516 162.92 103.516C162.49 103.516 162.094 103.613 161.73 103.809C161.367 104.004 161.186 104.262 161.186 104.582C161.186 104.922 161.367 105.182 161.73 105.361C162.098 105.537 162.557 105.625 163.107 105.625C163.635 105.625 164.016 105.582 164.25 105.496C164.488 105.41 164.656 105.311 164.754 105.197C164.855 105.084 164.906 104.891 164.906 104.617ZM177.832 100.984C177.609 100.543 177.145 100.322 176.438 100.322C176.094 100.326 175.787 100.469 175.518 100.75C175.248 101.031 175.115 101.346 175.119 101.693C175.119 102.072 175.225 102.377 175.436 102.607C175.646 102.838 175.934 102.953 176.297 102.953C176.758 102.953 177.125 102.803 177.398 102.502C177.676 102.201 177.82 101.807 177.832 101.318V100.984ZM182.461 98.6055H178.764V100.861C179.021 101.314 179.15 101.936 179.15 102.725C179.146 103.756 178.764 104.623 178.002 105.326C177.244 106.025 176.307 106.41 175.189 106.48L174.949 105.748C175.887 105.682 176.674 105.359 177.311 104.781C177.951 104.203 178.271 103.486 178.271 102.631C178.271 102.486 178.264 102.355 178.248 102.238C178.15 102.691 177.922 103.049 177.562 103.311C177.203 103.568 176.771 103.697 176.268 103.697C175.697 103.697 175.215 103.518 174.82 103.158C174.426 102.795 174.229 102.34 174.229 101.793C174.229 101.164 174.449 100.641 174.891 100.223C175.336 99.8008 175.881 99.5898 176.525 99.5898C177.01 99.5898 177.441 99.7324 177.82 100.018V98.6055H171.949V97.8379H177.82V96.4375H178.764V97.8379H182.461V98.6055ZM184.008 104.957C184.008 104.531 184.162 104.168 184.471 103.867C184.779 103.566 185.152 103.416 185.59 103.416C186.027 103.416 186.4 103.566 186.709 103.867C187.018 104.168 187.172 104.531 187.172 104.957C187.172 105.383 187.018 105.746 186.709 106.047C186.4 106.348 186.027 106.498 185.59 106.498C185.152 106.498 184.779 106.348 184.471 106.047C184.162 105.746 184.008 105.383 184.008 104.957ZM184.693 104.957C184.693 105.203 184.781 105.414 184.957 105.59C185.133 105.766 185.344 105.854 185.59 105.854C185.836 105.854 186.047 105.766 186.223 105.59C186.398 105.414 186.486 105.203 186.486 104.957C186.486 104.711 186.398 104.5 186.223 104.324C186.047 104.148 185.836 104.061 185.59 104.061C185.344 104.061 185.133 104.148 184.957 104.324C184.781 104.5 184.693 104.711 184.693 104.957ZM206.215 105.197L205.629 105.965C205.102 105.551 204.455 105.131 203.689 104.705C202.924 104.275 202.25 103.957 201.668 103.75L201.656 104.43C201.633 105.766 200.811 106.434 199.189 106.434C198.248 106.434 197.502 106.268 196.951 105.936C196.4 105.604 196.125 105.119 196.125 104.482C196.125 103.857 196.422 103.375 197.016 103.035C197.613 102.695 198.359 102.523 199.254 102.52C199.711 102.52 200.195 102.57 200.707 102.672V96.3848H201.656V98.5938H205.723V99.3848H201.656V102.906C203.227 103.371 204.746 104.135 206.215 105.197ZM200.742 103.48C200.203 103.352 199.707 103.287 199.254 103.287C198.668 103.287 198.146 103.395 197.689 103.609C197.232 103.82 197.006 104.113 197.01 104.488C197.01 104.844 197.211 105.123 197.613 105.326C198.016 105.525 198.482 105.625 199.014 105.625C200.166 105.625 200.742 105.23 200.742 104.441V103.48ZM210.035 106.252L210.111 105.438C210.838 105.57 211.506 105.637 212.115 105.637C213.471 105.641 214.59 105.43 215.473 105.004C216.359 104.574 216.805 103.955 216.809 103.146C216.809 102.451 216.553 101.92 216.041 101.553C215.529 101.182 214.834 100.996 213.955 100.996C213.104 100.996 212.242 101.162 211.371 101.494C210.504 101.826 209.512 102.439 208.395 103.334L207.938 102.625L212.051 99.8125L215.016 97.7559H209.221V96.9883H216.146L216.627 97.6094C216.162 97.9609 215.461 98.4355 214.523 99.0332C213.555 99.6543 212.852 100.125 212.414 100.445L212.449 100.504C213.172 100.34 213.721 100.258 214.096 100.258C215.166 100.258 216.043 100.51 216.727 101.014C217.41 101.518 217.752 102.215 217.752 103.105C217.752 104.207 217.258 105.043 216.27 105.613C215.281 106.184 213.93 106.469 212.215 106.469C211.457 106.469 210.73 106.396 210.035 106.252ZM230.127 101.898C229.686 103.461 229.035 104.609 228.176 105.344C227.316 106.078 226.211 106.445 224.859 106.445C224.332 106.445 223.863 106.393 223.453 106.287C223.043 106.182 222.691 106.025 222.398 105.818C222.105 105.607 221.871 105.346 221.695 105.033C221.52 104.717 221.406 104.375 221.355 104.008C221.309 103.641 221.285 103.033 221.285 102.186C221.285 100.744 221.371 98.9746 221.543 96.877H222.504C222.297 98.8887 222.193 100.674 222.193 102.232C222.193 102.775 222.205 103.234 222.229 103.609C222.256 103.98 222.369 104.324 222.568 104.641C222.771 104.957 223.072 105.197 223.471 105.361C223.869 105.525 224.363 105.607 224.953 105.607C226.012 105.607 226.893 105.311 227.596 104.717C228.299 104.119 228.869 103.078 229.307 101.594L230.127 101.898ZM236.906 102.906C236.773 103.277 236.562 103.73 236.273 104.266C235.988 104.801 235.695 105.248 235.395 105.607C235.098 105.963 234.789 106.141 234.469 106.141C234.273 106.141 234.1 106.094 233.947 106C233.795 105.906 233.596 105.725 233.35 105.455C233.104 105.186 232.877 104.816 232.67 104.348C232.467 103.875 232.316 103.381 232.219 102.865C232.121 102.35 232.072 101.848 232.072 101.359C232.072 100.922 232.117 100.303 232.207 99.502C232.301 98.6621 232.352 98.0488 232.359 97.6621H233.344C233.328 98.0137 233.266 98.627 233.156 99.502C233.059 100.283 233.01 100.9 233.01 101.354C233.01 102.033 233.08 102.645 233.221 103.188C233.365 103.727 233.572 104.191 233.842 104.582C234.115 104.973 234.314 105.168 234.439 105.168C234.643 105.168 234.916 104.891 235.26 104.336C235.604 103.777 235.912 103.176 236.186 102.531L236.906 102.906ZM242.268 104.629L241.283 104.658V104.553C241.283 103.396 241.096 102.271 240.721 101.178C240.346 100.084 239.811 99.1074 239.115 98.248L239.836 97.791C241.43 99.6152 242.24 101.895 242.268 104.629ZM253.84 98.377H250.904C250.189 98.6816 249.492 99.2402 248.812 100.053C248.137 100.861 247.799 101.703 247.799 102.578C247.799 103.254 247.979 103.818 248.338 104.271C248.697 104.721 249.178 105.051 249.779 105.262C250.381 105.469 251.178 105.572 252.17 105.572C252.4 105.572 252.637 105.566 252.879 105.555L252.82 106.422H252.791C252.068 106.422 251.469 106.408 250.992 106.381C250.516 106.357 250.014 106.262 249.486 106.094C248.959 105.93 248.494 105.678 248.092 105.338C247.689 104.998 247.391 104.605 247.195 104.16C247 103.715 246.902 103.211 246.902 102.648C246.902 101.863 247.141 101.086 247.617 100.316C248.098 99.543 248.73 98.8887 249.516 98.3535H243.639V97.5742H253.84V98.377ZM254.092 100.516L253.418 100.791C253.156 100.186 252.877 99.6465 252.58 99.1738L253.201 98.8691C253.471 99.291 253.768 99.8398 254.092 100.516ZM252.387 100.873L251.713 101.178C251.432 100.545 251.148 99.9961 250.863 99.5312L251.496 99.2441C251.836 99.7715 252.133 100.314 252.387 100.873ZM261.832 100.984C261.609 100.543 261.145 100.322 260.438 100.322C260.094 100.326 259.787 100.469 259.518 100.75C259.248 101.031 259.115 101.346 259.119 101.693C259.119 102.072 259.225 102.377 259.436 102.607C259.646 102.838 259.934 102.953 260.297 102.953C260.758 102.953 261.125 102.803 261.398 102.502C261.676 102.201 261.82 101.807 261.832 101.318V100.984ZM266.461 98.6055H262.764V100.861C263.021 101.314 263.15 101.936 263.15 102.725C263.146 103.756 262.764 104.623 262.002 105.326C261.244 106.025 260.307 106.41 259.189 106.48L258.949 105.748C259.887 105.682 260.674 105.359 261.311 104.781C261.951 104.203 262.271 103.486 262.271 102.631C262.271 102.486 262.264 102.355 262.248 102.238C262.15 102.691 261.922 103.049 261.562 103.311C261.203 103.568 260.771 103.697 260.268 103.697C259.697 103.697 259.215 103.518 258.82 103.158C258.426 102.795 258.229 102.34 258.229 101.793C258.229 101.164 258.449 100.641 258.891 100.223C259.336 99.8008 259.881 99.5898 260.525 99.5898C261.01 99.5898 261.441 99.7324 261.82 100.018V98.6055H255.949V97.8379H261.82V96.4375H262.764V97.8379H266.461V98.6055ZM271.119 97.5742C271.119 97.9258 271.1 98.3262 271.061 98.7754H273.311C273.865 98.7754 274.299 98.9746 274.611 99.373C274.928 99.7676 275.088 100.285 275.092 100.926C275.088 102.504 274.92 103.811 274.588 104.846C274.256 105.877 273.674 106.393 272.842 106.393C272.357 106.393 271.678 106.162 270.803 105.701L271.096 104.957C271.299 105.055 271.59 105.166 271.969 105.291C272.348 105.416 272.607 105.479 272.748 105.479C273.061 105.479 273.311 105.316 273.498 104.992C273.689 104.664 273.848 104.188 273.973 103.562C274.102 102.938 274.166 102.191 274.166 101.324C274.166 100.551 274.062 100.061 273.855 99.8535C273.648 99.6465 273.371 99.543 273.023 99.543H270.984C270.828 100.539 270.658 101.393 270.475 102.104C270.291 102.814 270 103.561 269.602 104.342C269.207 105.123 268.729 105.828 268.166 106.457L267.504 105.977C268.016 105.375 268.521 104.539 269.021 103.469C269.525 102.395 269.863 101.127 270.035 99.666H267.744V98.8809H270.129C270.156 98.6074 270.17 97.8203 270.17 96.5195H271.119V97.5742ZM278.783 102.314L277.875 102.555C277.34 100.598 276.562 99.0742 275.543 97.9844L276.229 97.5156C276.768 98.0664 277.281 98.8047 277.77 99.7305C278.262 100.652 278.6 101.514 278.783 102.314ZM282.357 102.285V103.656H281.379V101.875C282.395 101.312 283.031 100.848 283.289 100.48C283.547 100.113 283.676 99.7285 283.676 99.3262C283.676 98.877 283.527 98.5312 283.23 98.2891C282.938 98.043 282.527 97.9199 282 97.9199C281.344 97.9199 280.648 98.123 279.914 98.5293H279.85V97.4102C280.619 97.1289 281.363 96.9883 282.082 96.9883C282.914 96.9883 283.574 97.1934 284.062 97.6035C284.555 98.0098 284.801 98.5547 284.801 99.2383C284.801 99.7656 284.654 100.252 284.361 100.697C284.072 101.143 283.404 101.672 282.357 102.285ZM282.486 106H281.291V104.764H282.486V106Z" fill="black"/>
<rect x="100.5" y="126.5" width="97" height="35" stroke="#E3E7E8"/>
<g filter="url(#filter1_i_368_631)">
<rect x="101" y="127" width="96" height="34" fill="#F7F9FA"/>
</g>
<path d="M127.569 143.967L121.8 144.527L122.176 148.704L121 148.813L120.624 144.644L114.547 145.231L114.451 144.233L120.535 143.639L120.234 140.228L115.039 140.651L114.978 139.66L120.146 139.243L119.934 136.926L121.096 136.789L121.314 139.147L126.291 138.744L126.359 139.729L121.403 140.132L121.711 143.529L127.494 142.962L127.569 143.967ZM134.549 148.69L133.448 148.868L132.108 142.258L129.709 142.6L129.524 141.704L131.924 141.376L131.459 139.072L132.539 138.915L133.011 141.226L139.553 140.344L140.141 140.836C139.803 141.734 139.327 142.581 138.712 143.379C138.101 144.172 137.465 144.826 136.805 145.341L136.162 144.685C136.691 144.215 137.192 143.666 137.666 143.037C138.145 142.404 138.489 141.836 138.698 141.335L133.195 142.107L134.549 148.69ZM149.294 140.077L148.521 140.973C146.895 139.97 145.272 139.125 143.654 138.437L144.242 137.582C145.947 138.22 147.631 139.052 149.294 140.077ZM155.255 141.813C154.489 143.149 153.496 144.304 152.274 145.279C151.053 146.25 149.782 146.975 148.46 147.453C147.143 147.927 145.591 148.26 143.805 148.451L143.565 147.398C145.051 147.248 146.382 146.977 147.558 146.585C148.733 146.188 149.729 145.712 150.545 145.156C151.365 144.596 152.056 144.042 152.616 143.495C153.177 142.944 153.744 142.187 154.318 141.226L155.255 141.813ZM169.289 139.489C168.195 141.426 166.842 143.017 165.229 144.261L164.483 143.577C165.755 142.556 166.814 141.344 167.662 139.94L160.703 140.979V145.272C160.703 145.915 160.863 146.396 161.182 146.715C161.505 147.029 162.111 147.187 163 147.187H168.824V148.198H162.706C160.596 148.198 159.541 147.25 159.541 145.354V141.15L156.629 141.588L156.506 140.583L159.596 140.146V136.967H160.785V139.981L168.585 138.888L169.289 139.489ZM183.986 143.27C183.403 144.514 182.501 145.598 181.279 146.523C180.062 147.444 178.859 148.068 177.67 148.396L177.171 147.932V137.288H178.319V146.94C179.071 146.717 179.887 146.255 180.767 145.553C181.651 144.851 182.439 143.889 183.132 142.668L183.986 143.27ZM174.259 140.836C174.259 141.911 174.211 142.789 174.115 143.468C174.02 144.142 173.801 144.805 173.459 145.457C173.122 146.104 172.696 146.697 172.181 147.234C171.666 147.772 171.112 148.196 170.52 148.506L170.014 147.638C170.583 147.287 171.11 146.824 171.593 146.25C172.076 145.676 172.447 144.997 172.707 144.213C172.967 143.429 173.097 142.228 173.097 140.61V137.726H174.259V140.836Z" fill="#3498DB"/>
<g filter="url(#filter2_i_368_631)">
<path fill-rule="evenodd" clip-rule="evenodd" d="M214 126H310V161H214V126Z" fill="#E74C3C"/>
</g>
<path d="M240.576 145.423H236.297V148.882H235.278V140.228H237.951V136.468H239.024V140.228H241.636V147.809C241.636 148.087 241.517 148.312 241.28 148.485C241.043 148.663 240.768 148.752 240.453 148.752H238.922L238.819 147.863H239.995C240.146 147.863 240.28 147.82 240.398 147.733C240.517 147.642 240.576 147.528 240.576 147.392V145.423ZM240.576 142.422V140.966H236.297V142.422H240.576ZM236.297 144.678H240.576V143.167H236.297V144.678ZM245.45 148.711H243.762L243.604 147.795H244.903C245.268 147.795 245.45 147.629 245.45 147.296V136.57H246.517V147.733C246.517 148.025 246.41 148.26 246.195 148.438C245.986 148.62 245.737 148.711 245.45 148.711ZM240.904 139.729L240.022 139.51C240.392 138.758 240.758 137.874 241.123 136.857L242.176 137.083C241.688 138.159 241.264 139.04 240.904 139.729ZM235.969 139.77C235.627 139.008 235.226 138.184 234.766 137.295L235.668 136.926C236.096 137.673 236.511 138.491 236.912 139.38L235.969 139.77ZM242.894 145.648V137.5H243.933V145.648H242.894ZM261.036 140.781C260.22 140.371 259.439 139.836 258.691 139.175C257.944 138.514 257.354 137.851 256.921 137.186C256.52 137.869 255.952 138.546 255.219 139.216C254.485 139.886 253.744 140.433 252.997 140.856L252.539 140.193C253.245 139.792 253.975 139.204 254.727 138.43C255.479 137.655 255.991 137.001 256.265 136.468H257.509C258.534 137.949 259.895 139.129 261.59 140.009L261.036 140.781ZM251.855 140.87C251.979 141.025 252.156 141.296 252.389 141.684C252.626 142.071 252.785 142.449 252.867 142.818C252.954 143.188 252.997 143.527 252.997 143.837V143.864C252.997 144.206 252.967 144.521 252.908 144.808C252.849 145.09 252.76 145.334 252.642 145.539C252.528 145.74 252.384 145.906 252.211 146.038C252.042 146.166 251.86 146.252 251.664 146.298C251.473 146.343 251.197 146.366 250.837 146.366H250.468L250.311 145.478C250.707 145.478 250.99 145.473 251.158 145.464C251.331 145.45 251.479 145.393 251.603 145.293C251.726 145.188 251.821 145.02 251.89 144.787C251.958 144.55 251.992 144.252 251.992 143.892C251.992 142.921 251.637 141.975 250.926 141.055V141.041C250.926 141.027 250.919 140.991 250.905 140.932C250.887 140.872 250.878 140.836 250.878 140.822C251.037 140.439 251.233 139.868 251.466 139.106C251.703 138.341 251.821 137.867 251.821 137.685H250.01V148.909H249.025V136.844H252.867L253.079 137.11C252.97 137.589 252.774 138.275 252.491 139.168C252.213 140.057 252.001 140.624 251.855 140.87ZM256.463 148.807H254.836L254.706 147.891H256.005C256.369 147.891 256.552 147.72 256.552 147.378V143.823H253.469V142.996H256.552V141.027H254.166V140.228H259.963V141.027H257.652V142.996H260.934V143.823H257.652V147.795C257.652 148.105 257.538 148.351 257.311 148.533C257.083 148.715 256.8 148.807 256.463 148.807ZM260.551 147.938C260.264 147.601 259.904 147.107 259.471 146.455C259.038 145.799 258.73 145.275 258.548 144.883L259.45 144.568C259.573 144.842 259.847 145.279 260.271 145.881C260.694 146.478 261.086 146.991 261.446 147.419L260.551 147.938ZM252.936 147.966L252.252 147.405C252.671 147.045 253.097 146.594 253.53 146.052C253.968 145.505 254.294 145.015 254.508 144.582L255.479 144.883C255.237 145.343 254.854 145.89 254.33 146.523C253.811 147.152 253.346 147.633 252.936 147.966ZM269.971 142.148C269.711 141.633 269.169 141.376 268.344 141.376C267.943 141.381 267.585 141.547 267.271 141.875C266.956 142.203 266.801 142.57 266.806 142.976C266.806 143.418 266.929 143.773 267.175 144.042C267.421 144.311 267.756 144.445 268.18 144.445C268.717 144.445 269.146 144.27 269.465 143.919C269.788 143.568 269.957 143.108 269.971 142.538V142.148ZM275.371 139.373H271.058V142.005C271.358 142.534 271.509 143.258 271.509 144.179C271.504 145.382 271.058 146.394 270.169 147.214C269.285 148.03 268.191 148.479 266.888 148.561L266.607 147.706C267.701 147.629 268.619 147.253 269.362 146.578C270.11 145.904 270.483 145.067 270.483 144.069C270.483 143.901 270.474 143.748 270.456 143.611C270.342 144.14 270.076 144.557 269.656 144.862C269.237 145.163 268.733 145.313 268.146 145.313C267.48 145.313 266.917 145.104 266.457 144.685C265.997 144.261 265.767 143.73 265.767 143.092C265.767 142.358 266.024 141.747 266.539 141.26C267.059 140.768 267.694 140.521 268.446 140.521C269.011 140.521 269.515 140.688 269.957 141.021V139.373H263.107V138.478H269.957V136.844H271.058V138.478H275.371V139.373ZM284.873 147.501C286.582 147.091 287.437 146.211 287.437 144.862C287.437 144.028 287.122 143.383 286.493 142.928C285.864 142.472 285.026 142.244 283.978 142.244C283.257 142.244 282.553 142.335 281.865 142.518C281.182 142.7 280.393 143.071 279.5 143.632C278.611 144.192 277.992 144.621 277.641 144.917L277.135 144.076C279.91 142.285 282.622 140.401 285.27 138.423L278.352 138.45V137.541H286.698L287.177 138.238L282.357 141.574L282.412 141.656C282.968 141.488 283.522 141.403 284.073 141.403C285.381 141.403 286.454 141.704 287.293 142.306C288.136 142.907 288.558 143.739 288.558 144.801C288.558 146.045 288.043 146.995 287.013 147.651C285.983 148.303 284.602 148.629 282.87 148.629C280.491 148.629 279.302 147.975 279.302 146.667C279.302 146.152 279.548 145.719 280.04 145.368C280.532 145.017 281.072 144.842 281.66 144.842C282.485 144.842 283.191 145.072 283.779 145.532C284.367 145.993 284.732 146.649 284.873 147.501ZM283.868 147.679C283.604 146.371 282.893 145.717 281.735 145.717C281.366 145.717 281.034 145.808 280.737 145.99C280.446 146.173 280.3 146.414 280.3 146.715C280.3 147.412 281.106 147.761 282.72 147.761C283.071 147.761 283.453 147.733 283.868 147.679Z" fill="white"/>
<path d="M27 95C27 94.4477 27.4477 94 28 94H83C83.5523 94 84 94.4477 84 95V109C84 109.552 83.5523 110 83 110H28C27.4477 110 27 109.552 27 109V95Z" fill="#282828"/>
<path d="M42.4351 105H41.0024V100.346L39.5742 103.436H38.6118L37.1836 100.359V105H35.8389V98.3774H37.4648L39.1392 101.897L40.8091 98.3774H42.4351V105ZM48.5083 102.667H44.9004C44.959 103.686 45.5376 104.196 46.6362 104.196C47.2104 104.196 47.7876 103.988 48.3677 103.572H48.416V104.741C47.7275 105.004 47.0801 105.136 46.4736 105.136C45.5186 105.136 44.7905 104.909 44.2896 104.455C43.7886 104.001 43.5381 103.346 43.5381 102.491C43.5381 101.641 43.7754 100.973 44.25 100.487C44.7246 99.9976 45.3794 99.7529 46.2144 99.7529C47.7437 99.7529 48.5083 100.566 48.5083 102.192V102.667ZM47.1592 101.902C47.1475 101.026 46.7915 100.588 46.0913 100.588C45.3472 100.588 44.9502 101.026 44.9004 101.902H47.1592ZM49.1587 104.758V103.51H49.2114C49.8179 104 50.4565 104.244 51.1274 104.244C51.8071 104.244 52.147 104.06 52.147 103.69C52.147 103.541 52.0942 103.428 51.9888 103.352C51.8833 103.273 51.6929 103.203 51.4175 103.141C51.2271 103.106 50.9561 103.049 50.6045 102.97C50.2529 102.891 49.9761 102.781 49.7739 102.64C49.5747 102.5 49.4268 102.33 49.3301 102.13C49.2334 101.931 49.1851 101.701 49.1851 101.44C49.1851 100.945 49.4004 100.544 49.8311 100.236C50.2617 99.9258 50.8403 99.7705 51.5669 99.7705C52.2085 99.7705 52.7871 99.8833 53.3027 100.109V101.295H53.2676C52.6787 100.876 52.1089 100.667 51.5581 100.667C51.2739 100.667 51.0366 100.72 50.8462 100.825C50.6558 100.931 50.5605 101.062 50.5605 101.221C50.5605 101.399 50.6191 101.53 50.7363 101.612C50.8564 101.691 51.0557 101.763 51.334 101.827C51.6885 101.892 52.0415 101.969 52.3931 102.06C52.7446 102.151 53.0215 102.312 53.2236 102.543C53.4258 102.772 53.5269 103.068 53.5269 103.431C53.5269 103.95 53.3071 104.364 52.8677 104.675C52.4312 104.985 51.8408 105.141 51.0967 105.141C50.3584 105.141 49.7124 105.013 49.1587 104.758ZM54.1069 104.758V103.51H54.1597C54.7661 104 55.4048 104.244 56.0757 104.244C56.7554 104.244 57.0952 104.06 57.0952 103.69C57.0952 103.541 57.0425 103.428 56.937 103.352C56.8315 103.273 56.6411 103.203 56.3657 103.141C56.1753 103.106 55.9043 103.049 55.5527 102.97C55.2012 102.891 54.9243 102.781 54.7222 102.64C54.5229 102.5 54.375 102.33 54.2783 102.13C54.1816 101.931 54.1333 101.701 54.1333 101.44C54.1333 100.945 54.3486 100.544 54.7793 100.236C55.21 99.9258 55.7886 99.7705 56.5151 99.7705C57.1567 99.7705 57.7354 99.8833 58.251 100.109V101.295H58.2158C57.627 100.876 57.0571 100.667 56.5063 100.667C56.2222 100.667 55.9849 100.72 55.7944 100.825C55.604 100.931 55.5088 101.062 55.5088 101.221C55.5088 101.399 55.5674 101.53 55.6846 101.612C55.8047 101.691 56.0039 101.763 56.2822 101.827C56.6367 101.892 56.9897 101.969 57.3413 102.06C57.6929 102.151 57.9697 102.312 58.1719 102.543C58.374 102.772 58.4751 103.068 58.4751 103.431C58.4751 103.95 58.2554 104.364 57.8159 104.675C57.3794 104.985 56.7891 105.141 56.0449 105.141C55.3066 105.141 54.6606 105.013 54.1069 104.758ZM63.7178 105H62.3774V104.336C61.9644 104.691 61.6289 104.912 61.3711 105C61.1162 105.091 60.8438 105.136 60.5537 105.136C60.1084 105.136 59.7393 104.993 59.4463 104.706C59.1533 104.416 59.0068 104.043 59.0068 103.589C59.0068 103.015 59.2222 102.58 59.6528 102.284C60.0864 101.988 60.999 101.804 62.3906 101.73V101.594C62.3906 101.275 62.2808 101.043 62.061 100.9C61.8413 100.756 61.478 100.685 60.9712 100.685C60.6255 100.685 60.1304 100.816 59.4858 101.08H59.4375V100.012C60.1172 99.8481 60.7324 99.7661 61.2832 99.7661C62.1416 99.7661 62.7612 99.9053 63.1421 100.184C63.5259 100.459 63.7178 100.898 63.7178 101.502V105ZM62.3774 103.761V102.478C61.4927 102.551 60.939 102.665 60.7163 102.82C60.4937 102.973 60.3823 103.185 60.3823 103.458C60.3823 103.748 60.46 103.95 60.6152 104.064C60.7705 104.178 61.0137 104.235 61.3447 104.235C61.6934 104.235 62.0376 104.077 62.3774 103.761ZM69.6636 104.416C69.6636 105.256 69.4526 105.877 69.0308 106.279C68.6089 106.68 67.9336 106.881 67.0049 106.881C66.4043 106.881 65.8096 106.815 65.2207 106.683V105.584H65.2866C65.8696 105.792 66.375 105.896 66.8027 105.896C67.3271 105.896 67.7095 105.804 67.9497 105.62C68.1929 105.435 68.3145 105.07 68.3145 104.525V104.244C67.79 104.695 67.2817 104.921 66.7896 104.921C65.3921 104.921 64.6934 104.055 64.6934 102.324C64.6934 101.556 64.8955 100.939 65.2998 100.474C65.707 100.005 66.2271 99.7705 66.8599 99.7705C67.355 99.7705 67.834 99.9258 68.2969 100.236L68.3892 99.9111H69.6636V104.416ZM68.3145 103.506V100.939C68.0186 100.813 67.7446 100.75 67.4927 100.75C66.5581 100.75 66.0908 101.285 66.0908 102.354C66.0908 102.891 66.1875 103.279 66.3809 103.519C66.5771 103.756 66.8804 103.875 67.2905 103.875C67.6099 103.875 67.9512 103.752 68.3145 103.506ZM75.6489 102.667H72.041C72.0996 103.686 72.6782 104.196 73.7769 104.196C74.3511 104.196 74.9282 103.988 75.5083 103.572H75.5566V104.741C74.8682 105.004 74.2207 105.136 73.6143 105.136C72.6592 105.136 71.9312 104.909 71.4302 104.455C70.9292 104.001 70.6787 103.346 70.6787 102.491C70.6787 101.641 70.916 100.973 71.3906 100.487C71.8652 99.9976 72.52 99.7529 73.355 99.7529C74.8843 99.7529 75.6489 100.566 75.6489 102.192V102.667ZM74.2998 101.902C74.2881 101.026 73.9321 100.588 73.2319 100.588C72.4878 100.588 72.0908 101.026 72.041 101.902H74.2998Z" fill="white"/>
<path d="M235 34C235 33.4477 235.448 33 236 33H327C327.552 33 328 33.4477 328 34V48C328 48.5523 327.552 49 327 49H236C235.448 49 235 48.5523 235 48V34Z" fill="#282828"/>
<path d="M245.601 41.7456V44H244.151V37.3774H246.656C247.514 37.3774 248.166 37.5532 248.611 37.9048C249.057 38.2534 249.279 38.7646 249.279 39.4385C249.279 40.1416 249.033 40.7026 248.541 41.1216C248.049 41.5376 247.407 41.7456 246.616 41.7456H245.601ZM245.592 38.4189V40.6953H245.979C246.706 40.6953 247.186 40.5957 247.42 40.3965C247.658 40.1943 247.776 39.8853 247.776 39.4692C247.776 39.1265 247.662 38.8657 247.434 38.687C247.208 38.5083 246.76 38.4189 246.089 38.4189H245.592ZM252.246 44.1582C251.419 44.1582 250.778 43.9209 250.321 43.4463C249.864 42.9688 249.635 42.3066 249.635 41.46C249.635 40.6104 249.865 39.9468 250.325 39.4692C250.788 38.9917 251.428 38.7529 252.246 38.7529C253.069 38.7529 253.709 38.9917 254.166 39.4692C254.626 39.9468 254.856 40.6104 254.856 41.46C254.856 42.3066 254.626 42.9688 254.166 43.4463C253.709 43.9209 253.069 44.1582 252.246 44.1582ZM252.246 39.6934C251.446 39.6934 251.046 40.2866 251.046 41.4731C251.046 42.6362 251.452 43.2178 252.263 43.2178C253.051 43.2178 253.445 42.6362 253.445 41.4731C253.445 40.2866 253.045 39.6934 252.246 39.6934ZM257.216 43.6396V45.8325H255.867V38.9111H257.216V39.5923C257.608 39.2612 257.928 39.0415 258.174 38.9331C258.423 38.8247 258.685 38.7705 258.96 38.7705C259.555 38.7705 260.017 38.999 260.345 39.4561C260.673 39.9131 260.837 40.5518 260.837 41.3721C260.837 42.1777 260.629 42.8311 260.213 43.332C259.797 43.8301 259.278 44.0791 258.657 44.0791C258.224 44.0791 257.743 43.9326 257.216 43.6396ZM257.216 40.1724V42.9761C257.456 43.0757 257.73 43.1255 258.038 43.1255C258.972 43.1255 259.439 42.5586 259.439 41.4248C259.439 40.3496 259.048 39.812 258.266 39.812C257.947 39.812 257.597 39.9321 257.216 40.1724ZM266.585 44H265.236V43.2881C264.826 43.6221 264.492 43.8477 264.234 43.9648C263.976 44.082 263.708 44.1406 263.43 44.1406C262.357 44.1406 261.821 43.5122 261.821 42.2554V38.9111H263.179V41.4468C263.179 42.1558 263.257 42.5967 263.412 42.7695C263.567 42.9424 263.821 43.0288 264.172 43.0288C264.474 43.0288 264.829 42.897 265.236 42.6333V38.9111H266.585V44ZM269.336 43.6396V45.8325H267.987V38.9111H269.336V39.5923C269.729 39.2612 270.048 39.0415 270.294 38.9331C270.543 38.8247 270.805 38.7705 271.081 38.7705C271.675 38.7705 272.137 38.999 272.465 39.4561C272.793 39.9131 272.957 40.5518 272.957 41.3721C272.957 42.1777 272.749 42.8311 272.333 43.332C271.917 43.8301 271.398 44.0791 270.777 44.0791C270.344 44.0791 269.863 43.9326 269.336 43.6396ZM269.336 40.1724V42.9761C269.576 43.0757 269.85 43.1255 270.158 43.1255C271.092 43.1255 271.56 42.5586 271.56 41.4248C271.56 40.3496 271.168 39.812 270.386 39.812C270.067 39.812 269.717 39.9321 269.336 40.1724ZM279.193 43.5562C278.636 43.811 278.194 43.9707 277.866 44.0352C277.538 44.0996 277.221 44.1318 276.917 44.1318C275.903 44.1318 275.104 43.8301 274.521 43.2266C273.938 42.623 273.647 41.7808 273.647 40.6997C273.647 39.6392 273.941 38.7998 274.53 38.1816C275.122 37.5605 275.919 37.25 276.921 37.25C277.697 37.25 278.455 37.436 279.193 37.8081V39.166H279.039C278.351 38.5801 277.699 38.2871 277.083 38.2871C276.495 38.2871 276.029 38.498 275.686 38.9199C275.343 39.3389 275.172 39.9336 275.172 40.7041C275.172 41.4688 275.346 42.0591 275.695 42.4751C276.043 42.8882 276.509 43.0947 277.092 43.0947C277.397 43.0947 277.694 43.042 277.984 42.9365C278.274 42.8281 278.63 42.5894 279.052 42.2202H279.193V43.5562ZM282.401 44.1582C281.575 44.1582 280.933 43.9209 280.476 43.4463C280.019 42.9688 279.791 42.3066 279.791 41.46C279.791 40.6104 280.021 39.9468 280.48 39.4692C280.943 38.9917 281.583 38.7529 282.401 38.7529C283.224 38.7529 283.864 38.9917 284.321 39.4692C284.781 39.9468 285.011 40.6104 285.011 41.46C285.011 42.3066 284.781 42.9688 284.321 43.4463C283.864 43.9209 283.224 44.1582 282.401 44.1582ZM282.401 39.6934C281.601 39.6934 281.201 40.2866 281.201 41.4731C281.201 42.6362 281.607 43.2178 282.418 43.2178C283.207 43.2178 283.601 42.6362 283.601 41.4731C283.601 40.2866 283.201 39.6934 282.401 39.6934ZM290.786 44H289.428V41.4644C289.428 40.7554 289.349 40.3159 289.19 40.146C289.035 39.9731 288.782 39.8867 288.43 39.8867C288.137 39.8867 287.784 40.0171 287.371 40.2778V44H286.022V38.9111H287.371V39.623C287.793 39.2773 288.13 39.0488 288.382 38.9375C288.637 38.8262 288.902 38.7705 289.177 38.7705C290.25 38.7705 290.786 39.3989 290.786 40.6558V44ZM295.149 43.9692C294.789 44.0571 294.404 44.1011 293.994 44.1011C293.387 44.1011 292.943 43.9722 292.662 43.7144C292.381 43.4536 292.24 43.0332 292.24 42.4531V39.8032H291.572V38.9111H292.245V37.4829H293.589V38.9111H295.149V39.8032H293.589V41.8994C293.589 42.4385 293.658 42.79 293.796 42.9541C293.934 43.1182 294.165 43.2002 294.49 43.2002C294.698 43.2002 294.905 43.1489 295.11 43.0464H295.149V43.9692ZM300.295 44H298.955V43.3364C298.542 43.6909 298.207 43.9121 297.949 44C297.694 44.0908 297.421 44.1362 297.131 44.1362C296.686 44.1362 296.317 43.9927 296.024 43.7056C295.731 43.4155 295.584 43.0435 295.584 42.5894C295.584 42.0151 295.8 41.5801 296.23 41.2842C296.664 40.9883 297.577 40.8037 298.968 40.7305V40.5942C298.968 40.2749 298.858 40.0435 298.639 39.8999C298.419 39.7563 298.056 39.6846 297.549 39.6846C297.203 39.6846 296.708 39.8164 296.063 40.0801H296.015V39.0122C296.695 38.8481 297.31 38.7661 297.861 38.7661C298.719 38.7661 299.339 38.9053 299.72 39.1836C300.104 39.459 300.295 39.8984 300.295 40.502V44ZM298.955 42.7607V41.4775C298.07 41.5508 297.517 41.665 297.294 41.8203C297.071 41.9727 296.96 42.1851 296.96 42.4575C296.96 42.7476 297.038 42.9497 297.193 43.064C297.348 43.1782 297.591 43.2354 297.922 43.2354C298.271 43.2354 298.615 43.0771 298.955 42.7607ZM303.046 38.2739H301.601V37.083H303.046V38.2739ZM302.998 44H301.649V38.9111H302.998V44ZM309.164 44H307.806V41.4644C307.806 40.7554 307.727 40.3159 307.568 40.146C307.413 39.9731 307.16 39.8867 306.808 39.8867C306.515 39.8867 306.162 40.0171 305.749 40.2778V44H304.4V38.9111H305.749V39.623C306.171 39.2773 306.508 39.0488 306.76 38.9375C307.015 38.8262 307.28 38.7705 307.555 38.7705C308.627 38.7705 309.164 39.3989 309.164 40.6558V44ZM315.109 41.6665H311.501C311.56 42.686 312.139 43.1958 313.237 43.1958C313.812 43.1958 314.389 42.9878 314.969 42.5718H315.017V43.7407C314.329 44.0044 313.681 44.1362 313.075 44.1362C312.12 44.1362 311.392 43.9092 310.891 43.4551C310.39 43.001 310.139 42.3462 310.139 41.4907C310.139 40.6411 310.376 39.9731 310.851 39.4868C311.326 38.9976 311.98 38.7529 312.815 38.7529C314.345 38.7529 315.109 39.5659 315.109 41.1919V41.6665ZM313.76 40.9019C313.749 40.0259 313.393 39.5879 312.692 39.5879C311.948 39.5879 311.551 40.0259 311.501 40.9019H313.76ZM319.548 40.2866H319.504C319.322 40.2397 319.079 40.2163 318.774 40.2163C318.297 40.2163 317.857 40.2925 317.456 40.4448V44H316.107V38.9111H317.456V39.834C317.869 39.4619 318.209 39.2129 318.476 39.0869C318.742 38.958 319.004 38.8936 319.262 38.8936C319.33 38.8936 319.425 38.8965 319.548 38.9023V40.2866Z" fill="white"/>
<line x1="248" y1="76" x2="248" y2="49" stroke="#282828" stroke-width="2"/>
<path d="M113 189C113 188.448 113.448 188 114 188H192C192.552 188 193 188.448 193 189V203C193 203.552 192.552 204 192 204H114C113.448 204 113 203.552 113 203V189Z" fill="#282828"/>
<path d="M127.134 198.556C126.577 198.811 126.135 198.971 125.807 199.035C125.479 199.1 125.162 199.132 124.857 199.132C123.844 199.132 123.045 198.83 122.462 198.227C121.879 197.623 121.588 196.781 121.588 195.7C121.588 194.639 121.882 193.8 122.471 193.182C123.063 192.561 123.86 192.25 124.862 192.25C125.638 192.25 126.396 192.436 127.134 192.808V194.166H126.98C126.292 193.58 125.64 193.287 125.024 193.287C124.436 193.287 123.97 193.498 123.627 193.92C123.284 194.339 123.113 194.934 123.113 195.704C123.113 196.469 123.287 197.059 123.636 197.475C123.984 197.888 124.45 198.095 125.033 198.095C125.338 198.095 125.635 198.042 125.925 197.937C126.215 197.828 126.571 197.589 126.993 197.22H127.134V198.556ZM132.434 199H131.093V198.336C130.68 198.691 130.345 198.912 130.087 199C129.832 199.091 129.56 199.136 129.27 199.136C128.824 199.136 128.455 198.993 128.162 198.706C127.869 198.416 127.723 198.043 127.723 197.589C127.723 197.015 127.938 196.58 128.369 196.284C128.802 195.988 129.715 195.804 131.106 195.73V195.594C131.106 195.275 130.997 195.043 130.777 194.9C130.557 194.756 130.194 194.685 129.687 194.685C129.341 194.685 128.846 194.816 128.202 195.08H128.153V194.012C128.833 193.848 129.448 193.766 129.999 193.766C130.857 193.766 131.477 193.905 131.858 194.184C132.242 194.459 132.434 194.898 132.434 195.502V199ZM131.093 197.761V196.478C130.208 196.551 129.655 196.665 129.432 196.82C129.209 196.973 129.098 197.185 129.098 197.458C129.098 197.748 129.176 197.95 129.331 198.064C129.486 198.178 129.729 198.235 130.061 198.235C130.409 198.235 130.753 198.077 131.093 197.761ZM138.551 199H137.193V196.464C137.193 195.755 137.114 195.316 136.956 195.146C136.8 194.973 136.547 194.887 136.195 194.887C135.902 194.887 135.549 195.017 135.136 195.278V199H133.787V193.911H135.136V194.623C135.558 194.277 135.895 194.049 136.147 193.938C136.402 193.826 136.667 193.771 136.942 193.771C138.015 193.771 138.551 194.399 138.551 195.656V199ZM143.899 198.75C143.331 199.007 142.816 199.136 142.356 199.136C141.466 199.136 140.771 198.906 140.273 198.446C139.775 197.986 139.526 197.33 139.526 196.478C139.526 195.619 139.778 194.954 140.282 194.482C140.786 194.008 141.46 193.771 142.304 193.771C142.854 193.771 143.386 193.901 143.899 194.162V195.401H143.829C143.331 194.956 142.84 194.733 142.356 194.733C141.908 194.733 141.56 194.887 141.311 195.194C141.062 195.502 140.937 195.93 140.937 196.478C140.937 197.025 141.062 197.446 141.311 197.739C141.562 198.029 141.918 198.174 142.378 198.174C142.868 198.174 143.351 197.951 143.829 197.506H143.899V198.75ZM149.418 196.667H145.811C145.869 197.686 146.448 198.196 147.546 198.196C148.121 198.196 148.698 197.988 149.278 197.572H149.326V198.741C148.638 199.004 147.99 199.136 147.384 199.136C146.429 199.136 145.701 198.909 145.2 198.455C144.699 198.001 144.448 197.346 144.448 196.491C144.448 195.641 144.686 194.973 145.16 194.487C145.635 193.998 146.29 193.753 147.125 193.753C148.654 193.753 149.418 194.566 149.418 196.192V196.667ZM148.069 195.902C148.058 195.026 147.702 194.588 147.001 194.588C146.257 194.588 145.86 195.026 145.811 195.902H148.069ZM151.765 199H150.416V192.083H151.765V199ZM153.255 199V192.377H155.637C156.645 192.377 157.329 192.511 157.689 192.777C158.052 193.041 158.234 193.415 158.234 193.898C158.234 194.537 157.92 195.001 157.293 195.291V195.326C158.24 195.525 158.713 196.072 158.713 196.965C158.713 197.589 158.479 198.084 158.01 198.451C157.544 198.817 156.867 199 155.979 199H153.255ZM154.696 193.419V195.023H155.241C155.689 195.023 156.007 195 156.195 194.953C156.382 194.903 156.521 194.811 156.612 194.676C156.703 194.538 156.749 194.367 156.749 194.162C156.749 193.998 156.708 193.857 156.625 193.74C156.546 193.623 156.416 193.541 156.234 193.494C156.053 193.444 155.687 193.419 155.136 193.419H154.696ZM154.696 196.007V197.958H155.149C155.55 197.958 155.859 197.954 156.076 197.945C156.293 197.937 156.489 197.894 156.665 197.818C156.844 197.742 156.979 197.632 157.069 197.488C157.163 197.345 157.21 197.17 157.21 196.965C157.21 196.743 157.162 196.56 157.065 196.416C156.971 196.272 156.833 196.168 156.652 196.104C156.473 196.04 156.053 196.007 155.391 196.007H154.696ZM164.474 199H163.125V198.288C162.715 198.622 162.381 198.848 162.123 198.965C161.865 199.082 161.597 199.141 161.319 199.141C160.247 199.141 159.71 198.512 159.71 197.255V193.911H161.068V196.447C161.068 197.156 161.146 197.597 161.301 197.77C161.457 197.942 161.71 198.029 162.062 198.029C162.363 198.029 162.718 197.897 163.125 197.633V193.911H164.474V199ZM168.877 198.969C168.517 199.057 168.132 199.101 167.722 199.101C167.115 199.101 166.671 198.972 166.39 198.714C166.109 198.454 165.968 198.033 165.968 197.453V194.803H165.3V193.911H165.973V192.483H167.317V193.911H168.877V194.803H167.317V196.899C167.317 197.438 167.386 197.79 167.524 197.954C167.662 198.118 167.893 198.2 168.218 198.2C168.426 198.2 168.633 198.149 168.838 198.046H168.877V198.969ZM172.709 198.969C172.349 199.057 171.964 199.101 171.554 199.101C170.947 199.101 170.503 198.972 170.222 198.714C169.941 198.454 169.8 198.033 169.8 197.453V194.803H169.132V193.911H169.805V192.483H171.149V193.911H172.709V194.803H171.149V196.899C171.149 197.438 171.218 197.79 171.356 197.954C171.494 198.118 171.725 198.2 172.05 198.2C172.258 198.2 172.465 198.149 172.67 198.046H172.709V198.969ZM175.729 199.158C174.902 199.158 174.261 198.921 173.804 198.446C173.347 197.969 173.118 197.307 173.118 196.46C173.118 195.61 173.348 194.947 173.808 194.469C174.271 193.992 174.911 193.753 175.729 193.753C176.552 193.753 177.192 193.992 177.649 194.469C178.109 194.947 178.339 195.61 178.339 196.46C178.339 197.307 178.109 197.969 177.649 198.446C177.192 198.921 176.552 199.158 175.729 199.158ZM175.729 194.693C174.929 194.693 174.529 195.287 174.529 196.473C174.529 197.636 174.935 198.218 175.746 198.218C176.534 198.218 176.928 197.636 176.928 196.473C176.928 195.287 176.528 194.693 175.729 194.693ZM184.113 199H182.755V196.464C182.755 195.755 182.676 195.316 182.518 195.146C182.363 194.973 182.109 194.887 181.758 194.887C181.465 194.887 181.112 195.017 180.699 195.278V199H179.35V193.911H180.699V194.623C181.121 194.277 181.458 194.049 181.709 193.938C181.964 193.826 182.229 193.771 182.505 193.771C183.577 193.771 184.113 194.399 184.113 195.656V199Z" fill="white"/>
<line x1="152" y1="188" x2="152" y2="161" stroke="#282828" stroke-width="2"/>
<path d="M224 189C224 188.448 224.448 188 225 188H302C302.552 188 303 188.448 303 189V203C303 203.552 302.552 204 302 204H225C224.448 204 224 203.552 224 203V189Z" fill="#282828"/>
<path d="M232.932 199V192.377H235.001C235.939 192.377 236.67 192.498 237.194 192.738C237.719 192.978 238.132 193.347 238.434 193.845C238.738 194.343 238.891 194.96 238.891 195.695C238.891 196.36 238.732 196.958 238.416 197.488C238.103 198.016 237.682 198.399 237.155 198.64C236.627 198.88 235.916 199 235.019 199H232.932ZM234.382 193.419V197.958H235.094C236.614 197.958 237.375 197.2 237.375 195.682C237.375 194.173 236.614 193.419 235.094 193.419H234.382ZM244.538 196.667H240.93C240.988 197.686 241.567 198.196 242.666 198.196C243.24 198.196 243.817 197.988 244.397 197.572H244.445V198.741C243.757 199.004 243.109 199.136 242.503 199.136C241.548 199.136 240.82 198.909 240.319 198.455C239.818 198.001 239.567 197.346 239.567 196.491C239.567 195.641 239.805 194.973 240.279 194.487C240.754 193.998 241.409 193.753 242.244 193.753C243.773 193.753 244.538 194.566 244.538 196.192V196.667ZM243.188 195.902C243.177 195.026 242.821 194.588 242.121 194.588C241.376 194.588 240.979 195.026 240.93 195.902H243.188ZM246.884 199H245.535V192.083H246.884V199ZM252.87 196.667H249.262C249.32 197.686 249.899 198.196 250.998 198.196C251.572 198.196 252.149 197.988 252.729 197.572H252.777V198.741C252.089 199.004 251.441 199.136 250.835 199.136C249.88 199.136 249.152 198.909 248.651 198.455C248.15 198.001 247.899 197.346 247.899 196.491C247.899 195.641 248.137 194.973 248.611 194.487C249.086 193.998 249.741 193.753 250.576 193.753C252.105 193.753 252.87 194.566 252.87 196.192V196.667ZM251.521 195.902C251.509 195.026 251.153 194.588 250.453 194.588C249.708 194.588 249.312 195.026 249.262 195.902H251.521ZM256.869 198.969C256.508 199.057 256.123 199.101 255.713 199.101C255.106 199.101 254.663 198.972 254.381 198.714C254.1 198.454 253.959 198.033 253.959 197.453V194.803H253.292V193.911H253.964V192.483H255.309V193.911H256.869V194.803H255.309V196.899C255.309 197.438 255.377 197.79 255.515 197.954C255.653 198.118 255.884 198.2 256.209 198.2C256.417 198.2 256.624 198.149 256.829 198.046H256.869V198.969ZM262.248 196.667H258.64C258.698 197.686 259.277 198.196 260.375 198.196C260.95 198.196 261.527 197.988 262.107 197.572H262.155V198.741C261.467 199.004 260.819 199.136 260.213 199.136C259.258 199.136 258.53 198.909 258.029 198.455C257.528 198.001 257.277 197.346 257.277 196.491C257.277 195.641 257.515 194.973 257.989 194.487C258.464 193.998 259.119 193.753 259.954 193.753C261.483 193.753 262.248 194.566 262.248 196.192V196.667ZM260.898 195.902C260.887 195.026 260.531 194.588 259.831 194.588C259.086 194.588 258.689 195.026 258.64 195.902H260.898ZM263.333 199V192.377H265.715C266.723 192.377 267.407 192.511 267.767 192.777C268.13 193.041 268.312 193.415 268.312 193.898C268.312 194.537 267.999 195.001 267.372 195.291V195.326C268.318 195.525 268.791 196.072 268.791 196.965C268.791 197.589 268.557 198.084 268.088 198.451C267.622 198.817 266.945 199 266.058 199H263.333ZM264.774 193.419V195.023H265.319C265.768 195.023 266.085 195 266.273 194.953C266.46 194.903 266.6 194.811 266.69 194.676C266.781 194.538 266.827 194.367 266.827 194.162C266.827 193.998 266.786 193.857 266.704 193.74C266.625 193.623 266.494 193.541 266.312 193.494C266.131 193.444 265.765 193.419 265.214 193.419H264.774ZM264.774 196.007V197.958H265.227C265.628 197.958 265.938 197.954 266.154 197.945C266.371 197.937 266.567 197.894 266.743 197.818C266.922 197.742 267.057 197.632 267.147 197.488C267.241 197.345 267.288 197.17 267.288 196.965C267.288 196.743 267.24 196.56 267.143 196.416C267.049 196.272 266.912 196.168 266.73 196.104C266.551 196.04 266.131 196.007 265.469 196.007H264.774ZM274.552 199H273.203V198.288C272.793 198.622 272.459 198.848 272.201 198.965C271.943 199.082 271.675 199.141 271.397 199.141C270.325 199.141 269.789 198.512 269.789 197.255V193.911H271.146V196.447C271.146 197.156 271.224 197.597 271.379 197.77C271.535 197.942 271.788 198.029 272.14 198.029C272.441 198.029 272.796 197.897 273.203 197.633V193.911H274.552V199ZM278.956 198.969C278.595 199.057 278.21 199.101 277.8 199.101C277.193 199.101 276.75 198.972 276.468 198.714C276.187 198.454 276.046 198.033 276.046 197.453V194.803H275.378V193.911H276.051V192.483H277.396V193.911H278.956V194.803H277.396V196.899C277.396 197.438 277.464 197.79 277.602 197.954C277.74 198.118 277.971 198.2 278.296 198.2C278.504 198.2 278.711 198.149 278.916 198.046H278.956V198.969ZM282.788 198.969C282.427 199.057 282.042 199.101 281.632 199.101C281.025 199.101 280.582 198.972 280.3 198.714C280.019 198.454 279.878 198.033 279.878 197.453V194.803H279.21V193.911H279.883V192.483H281.228V193.911H282.788V194.803H281.228V196.899C281.228 197.438 281.296 197.79 281.434 197.954C281.572 198.118 281.803 198.2 282.128 198.2C282.336 198.2 282.543 198.149 282.748 198.046H282.788V198.969ZM285.807 199.158C284.98 199.158 284.339 198.921 283.882 198.446C283.425 197.969 283.196 197.307 283.196 196.46C283.196 195.61 283.426 194.947 283.886 194.469C284.349 193.992 284.989 193.753 285.807 193.753C286.63 193.753 287.27 193.992 287.727 194.469C288.187 194.947 288.417 195.61 288.417 196.46C288.417 197.307 288.187 197.969 287.727 198.446C287.27 198.921 286.63 199.158 285.807 199.158ZM285.807 194.693C285.007 194.693 284.607 195.287 284.607 196.473C284.607 197.636 285.013 198.218 285.824 198.218C286.612 198.218 287.006 197.636 287.006 196.473C287.006 195.287 286.606 194.693 285.807 194.693ZM294.191 199H292.833V196.464C292.833 195.755 292.754 195.316 292.596 195.146C292.441 194.973 292.188 194.887 291.836 194.887C291.543 194.887 291.19 195.017 290.777 195.278V199H289.428V193.911H290.777V194.623C291.199 194.277 291.536 194.049 291.788 193.938C292.042 193.826 292.308 193.771 292.583 193.771C293.655 193.771 294.191 194.399 294.191 195.656V199Z" fill="white"/>
<line x1="263" y1="188" x2="263" y2="161" stroke="#282828" stroke-width="2"/>
<line x1="120" y1="102" x2="83" y2="102" stroke="#282828" stroke-width="2"/>
<defs>
<filter id="filter0_d_368_631" x="88" y="76" width="234" height="102" filterUnits="userSpaceOnUse" color-interpolation-filters="sRGB">
<feFlood flood-opacity="0" result="BackgroundImageFix"/>
<feColorMatrix in="SourceAlpha" type="matrix" values="0 0 0 0 0 0 0 0 0 0 0 0 0 0 0 0 0 0 127 0" result="hardAlpha"/>
<feOffset dy="4"/>
<feGaussianBlur stdDeviation="2"/>
<feColorMatrix type="matrix" values="0 0 0 0 0 0 0 0 0 0 0 0 0 0 0 0 0 0 0.25 0"/>
<feBlend mode="normal" in2="BackgroundImageFix" result="effect1_dropShadow_368_631"/>
<feBlend mode="normal" in="SourceGraphic" in2="effect1_dropShadow_368_631" result="shape"/>
</filter>
<filter id="filter1_i_368_631" x="101" y="127" width="97" height="35" filterUnits="userSpaceOnUse" color-interpolation-filters="sRGB">
<feFlood flood-opacity="0" result="BackgroundImageFix"/>
<feBlend mode="normal" in="SourceGraphic" in2="BackgroundImageFix" result="shape"/>
<feColorMatrix in="SourceAlpha" type="matrix" values="0 0 0 0 0 0 0 0 0 0 0 0 0 0 0 0 0 0 127 0" result="hardAlpha"/>
<feOffset dx="1" dy="1"/>
<feGaussianBlur stdDeviation="0.5"/>
<feComposite in2="hardAlpha" operator="arithmetic" k2="-1" k3="1"/>
<feColorMatrix type="matrix" values="0 0 0 0 1 0 0 0 0 1 0 0 0 0 1 0 0 0 1 0"/>
<feBlend mode="normal" in2="shape" result="effect1_innerShadow_368_631"/>
</filter>
<filter id="filter2_i_368_631" x="214" y="126" width="97" height="36" filterUnits="userSpaceOnUse" color-interpolation-filters="sRGB">
<feFlood flood-opacity="0" result="BackgroundImageFix"/>
<feBlend mode="normal" in="SourceGraphic" in2="BackgroundImageFix" result="shape"/>
<feColorMatrix in="SourceAlpha" type="matrix" values="0 0 0 0 0 0 0 0 0 0 0 0 0 0 0 0 0 0 127 0" result="hardAlpha"/>
<feOffset dx="1" dy="1"/>
<feGaussianBlur stdDeviation="0.5"/>
<feComposite in2="hardAlpha" operator="arithmetic" k2="-1" k3="1"/>
<feColorMatrix type="matrix" values="0 0 0 0 1 0 0 0 0 1 0 0 0 0 1 0 0 0 1 0"/>
<feBlend mode="normal" in2="shape" result="effect1_innerShadow_368_631"/>
</filter>
</defs>
</svg>
