<svg width="654" height="489" viewBox="0 0 654 489" fill="none" xmlns="http://www.w3.org/2000/svg">
<rect width="654" height="489" fill="white"/>
<g filter="url(#filter0_d_335_321)">
<rect x="185" y="111" width="272" height="286" fill="white"/>
<rect x="185.5" y="111.5" width="271" height="285" stroke="#E3E7E8"/>
</g>
<rect x="186" y="269" width="270" height="30" fill="white"/>
<path d="M213.104 288.171C212.207 288.171 211.365 287.975 210.578 287.581V286.286H210.622C211.477 286.921 212.325 287.238 213.167 287.238C214.348 287.238 214.938 286.866 214.938 286.121C214.938 285.829 214.86 285.603 214.704 285.442C214.547 285.281 214.221 285.144 213.726 285.029C213.311 284.949 212.835 284.845 212.298 284.718C211.76 284.591 211.344 284.369 211.047 284.052C210.755 283.73 210.609 283.32 210.609 282.82C210.609 282.186 210.868 281.667 211.384 281.265C211.9 280.859 212.59 280.656 213.453 280.656C214.342 280.656 215.123 280.829 215.795 281.176V282.408H215.751C215.01 281.862 214.225 281.589 213.396 281.589C212.884 281.589 212.48 281.684 212.184 281.875C211.887 282.061 211.739 282.321 211.739 282.655C211.739 282.951 211.818 283.178 211.974 283.334C212.135 283.491 212.452 283.629 212.926 283.747L214.329 284.052C214.909 284.179 215.345 284.403 215.637 284.725C215.929 285.042 216.075 285.455 216.075 285.962C216.075 286.618 215.806 287.152 215.269 287.562C214.731 287.968 214.01 288.171 213.104 288.171ZM221.883 286.292V284.21C220.304 284.282 219.289 284.458 218.836 284.737C218.387 285.012 218.163 285.393 218.163 285.88C218.163 286.739 218.684 287.168 219.725 287.168C220.431 287.168 221.151 286.876 221.883 286.292ZM221.883 288V287.2C221.286 287.632 220.795 287.905 220.41 288.019C220.025 288.138 219.634 288.197 219.236 288.197C218.597 288.197 218.066 287.985 217.643 287.562C217.219 287.139 217.008 286.601 217.008 285.95C217.008 285.116 217.321 284.49 217.947 284.071C218.578 283.648 219.89 283.396 221.883 283.315V283.1C221.883 282.6 221.735 282.232 221.438 281.995C221.142 281.754 220.622 281.633 219.877 281.633C219.221 281.633 218.491 281.803 217.687 282.141H217.636V280.979C218.428 280.764 219.189 280.656 219.921 280.656C220.984 280.656 221.76 280.855 222.251 281.252C222.746 281.646 222.994 282.26 222.994 283.093V288H221.883ZM234.343 288V283.982C234.343 283.208 234.288 282.691 234.178 282.433C234.072 282.171 233.907 281.98 233.683 281.862C233.463 281.739 233.184 281.678 232.845 281.678C232.265 281.678 231.582 281.997 230.795 282.636C230.82 282.856 230.833 283.138 230.833 283.48V288H229.716V283.982C229.716 283.186 229.661 282.664 229.551 282.414C229.445 282.16 229.282 281.974 229.062 281.855C228.846 281.737 228.571 281.678 228.237 281.678C227.632 281.678 226.957 281.987 226.212 282.604V288H225.095V280.827H226.212V281.69C227.062 280.979 227.867 280.624 228.624 280.624C229.602 280.624 230.262 281.015 230.604 281.798C231.527 281.015 232.403 280.624 233.232 280.624C234.718 280.624 235.46 281.525 235.46 283.328V288H234.343ZM238.691 287.587V290.647H237.574V280.827H238.691V281.621C239.508 280.956 240.302 280.624 241.072 280.624C241.918 280.624 242.591 280.954 243.09 281.614C243.59 282.27 243.839 283.174 243.839 284.325C243.839 285.455 243.537 286.373 242.932 287.08C242.326 287.786 241.577 288.14 240.685 288.14C240.003 288.14 239.339 287.956 238.691 287.587ZM238.691 282.528V286.718C239.326 287.001 239.914 287.143 240.456 287.143C241.154 287.143 241.7 286.902 242.094 286.419C242.487 285.933 242.684 285.247 242.684 284.363C242.684 282.573 242.039 281.678 240.748 281.678C240.062 281.678 239.377 281.961 238.691 282.528ZM246.613 288H245.496V278.009H246.613V288ZM249.4 283.671H253.608C253.575 282.245 252.921 281.532 251.647 281.532C251.004 281.532 250.483 281.722 250.085 282.103C249.688 282.484 249.459 283.007 249.4 283.671ZM252.021 288.165C250.828 288.165 249.901 287.843 249.241 287.2C248.585 286.553 248.257 285.639 248.257 284.458C248.257 283.286 248.573 282.355 249.203 281.665C249.834 280.971 250.669 280.624 251.71 280.624C252.658 280.624 253.393 280.908 253.913 281.475C254.438 282.042 254.7 282.85 254.7 283.899V284.515H249.4C249.4 285.378 249.633 286.043 250.098 286.508C250.568 286.97 251.215 287.2 252.041 287.2C252.861 287.2 253.682 286.915 254.503 286.343H254.554V287.556C253.534 287.962 252.69 288.165 252.021 288.165Z" fill="#333333"/>
<rect x="186" y="299" width="270" height="30" fill="white"/>
<path d="M213.104 318.171C212.207 318.171 211.365 317.975 210.578 317.581V316.286H210.622C211.477 316.921 212.325 317.238 213.167 317.238C214.348 317.238 214.938 316.866 214.938 316.121C214.938 315.829 214.86 315.603 214.704 315.442C214.547 315.281 214.221 315.144 213.726 315.029C213.311 314.949 212.835 314.845 212.298 314.718C211.76 314.591 211.344 314.369 211.047 314.052C210.755 313.73 210.609 313.32 210.609 312.82C210.609 312.186 210.868 311.667 211.384 311.265C211.9 310.859 212.59 310.656 213.453 310.656C214.342 310.656 215.123 310.829 215.795 311.176V312.408H215.751C215.01 311.862 214.225 311.589 213.396 311.589C212.884 311.589 212.48 311.684 212.184 311.875C211.887 312.061 211.739 312.321 211.739 312.655C211.739 312.951 211.818 313.178 211.974 313.334C212.135 313.491 212.452 313.629 212.926 313.747L214.329 314.052C214.909 314.179 215.345 314.403 215.637 314.725C215.929 315.042 216.075 315.455 216.075 315.962C216.075 316.618 215.806 317.152 215.269 317.562C214.731 317.968 214.01 318.171 213.104 318.171ZM221.883 316.292V314.21C220.304 314.282 219.289 314.458 218.836 314.737C218.387 315.012 218.163 315.393 218.163 315.88C218.163 316.739 218.684 317.168 219.725 317.168C220.431 317.168 221.151 316.876 221.883 316.292ZM221.883 318V317.2C221.286 317.632 220.795 317.905 220.41 318.019C220.025 318.138 219.634 318.197 219.236 318.197C218.597 318.197 218.066 317.985 217.643 317.562C217.219 317.139 217.008 316.601 217.008 315.95C217.008 315.116 217.321 314.49 217.947 314.071C218.578 313.648 219.89 313.396 221.883 313.315V313.1C221.883 312.6 221.735 312.232 221.438 311.995C221.142 311.754 220.622 311.633 219.877 311.633C219.221 311.633 218.491 311.803 217.687 312.141H217.636V310.979C218.428 310.764 219.189 310.656 219.921 310.656C220.984 310.656 221.76 310.855 222.251 311.252C222.746 311.646 222.994 312.26 222.994 313.093V318H221.883ZM234.343 318V313.982C234.343 313.208 234.288 312.691 234.178 312.433C234.072 312.171 233.907 311.98 233.683 311.862C233.463 311.739 233.184 311.678 232.845 311.678C232.265 311.678 231.582 311.997 230.795 312.636C230.82 312.856 230.833 313.138 230.833 313.48V318H229.716V313.982C229.716 313.186 229.661 312.664 229.551 312.414C229.445 312.16 229.282 311.974 229.062 311.855C228.846 311.737 228.571 311.678 228.237 311.678C227.632 311.678 226.957 311.987 226.212 312.604V318H225.095V310.827H226.212V311.69C227.062 310.979 227.867 310.624 228.624 310.624C229.602 310.624 230.262 311.015 230.604 311.798C231.527 311.015 232.403 310.624 233.232 310.624C234.718 310.624 235.46 311.525 235.46 313.328V318H234.343ZM238.691 317.587V320.647H237.574V310.827H238.691V311.621C239.508 310.956 240.302 310.624 241.072 310.624C241.918 310.624 242.591 310.954 243.09 311.614C243.59 312.27 243.839 313.174 243.839 314.325C243.839 315.455 243.537 316.373 242.932 317.08C242.326 317.786 241.577 318.14 240.685 318.14C240.003 318.14 239.339 317.956 238.691 317.587ZM238.691 312.528V316.718C239.326 317.001 239.914 317.143 240.456 317.143C241.154 317.143 241.7 316.902 242.094 316.419C242.487 315.933 242.684 315.247 242.684 314.363C242.684 312.573 242.039 311.678 240.748 311.678C240.062 311.678 239.377 311.961 238.691 312.528ZM246.613 318H245.496V308.009H246.613V318ZM249.4 313.671H253.608C253.575 312.245 252.921 311.532 251.647 311.532C251.004 311.532 250.483 311.722 250.085 312.103C249.688 312.484 249.459 313.007 249.4 313.671ZM252.021 318.165C250.828 318.165 249.901 317.843 249.241 317.2C248.585 316.553 248.257 315.639 248.257 314.458C248.257 313.286 248.573 312.355 249.203 311.665C249.834 310.971 250.669 310.624 251.71 310.624C252.658 310.624 253.393 310.908 253.913 311.475C254.438 312.042 254.7 312.85 254.7 313.899V314.515H249.4C249.4 315.378 249.633 316.043 250.098 316.508C250.568 316.97 251.215 317.2 252.041 317.2C252.861 317.2 253.682 316.915 254.503 316.343H254.554V317.556C253.534 317.962 252.69 318.165 252.021 318.165Z" fill="#333333"/>
<rect x="186" y="329" width="270" height="30" fill="white"/>
<path d="M213.104 348.171C212.207 348.171 211.365 347.975 210.578 347.581V346.286H210.622C211.477 346.921 212.325 347.238 213.167 347.238C214.348 347.238 214.938 346.866 214.938 346.121C214.938 345.829 214.86 345.603 214.704 345.442C214.547 345.281 214.221 345.144 213.726 345.029C213.311 344.949 212.835 344.845 212.298 344.718C211.76 344.591 211.344 344.369 211.047 344.052C210.755 343.73 210.609 343.32 210.609 342.82C210.609 342.186 210.868 341.667 211.384 341.265C211.9 340.859 212.59 340.656 213.453 340.656C214.342 340.656 215.123 340.829 215.795 341.176V342.408H215.751C215.01 341.862 214.225 341.589 213.396 341.589C212.884 341.589 212.48 341.684 212.184 341.875C211.887 342.061 211.739 342.321 211.739 342.655C211.739 342.951 211.818 343.178 211.974 343.334C212.135 343.491 212.452 343.629 212.926 343.747L214.329 344.052C214.909 344.179 215.345 344.403 215.637 344.725C215.929 345.042 216.075 345.455 216.075 345.962C216.075 346.618 215.806 347.152 215.269 347.562C214.731 347.968 214.01 348.171 213.104 348.171ZM221.883 346.292V344.21C220.304 344.282 219.289 344.458 218.836 344.737C218.387 345.012 218.163 345.393 218.163 345.88C218.163 346.739 218.684 347.168 219.725 347.168C220.431 347.168 221.151 346.876 221.883 346.292ZM221.883 348V347.2C221.286 347.632 220.795 347.905 220.41 348.019C220.025 348.138 219.634 348.197 219.236 348.197C218.597 348.197 218.066 347.985 217.643 347.562C217.219 347.139 217.008 346.601 217.008 345.95C217.008 345.116 217.321 344.49 217.947 344.071C218.578 343.648 219.89 343.396 221.883 343.315V343.1C221.883 342.6 221.735 342.232 221.438 341.995C221.142 341.754 220.622 341.633 219.877 341.633C219.221 341.633 218.491 341.803 217.687 342.141H217.636V340.979C218.428 340.764 219.189 340.656 219.921 340.656C220.984 340.656 221.76 340.855 222.251 341.252C222.746 341.646 222.994 342.26 222.994 343.093V348H221.883ZM234.343 348V343.982C234.343 343.208 234.288 342.691 234.178 342.433C234.072 342.171 233.907 341.98 233.683 341.862C233.463 341.739 233.184 341.678 232.845 341.678C232.265 341.678 231.582 341.997 230.795 342.636C230.82 342.856 230.833 343.138 230.833 343.48V348H229.716V343.982C229.716 343.186 229.661 342.664 229.551 342.414C229.445 342.16 229.282 341.974 229.062 341.855C228.846 341.737 228.571 341.678 228.237 341.678C227.632 341.678 226.957 341.987 226.212 342.604V348H225.095V340.827H226.212V341.69C227.062 340.979 227.867 340.624 228.624 340.624C229.602 340.624 230.262 341.015 230.604 341.798C231.527 341.015 232.403 340.624 233.232 340.624C234.718 340.624 235.46 341.525 235.46 343.328V348H234.343ZM238.691 347.587V350.647H237.574V340.827H238.691V341.621C239.508 340.956 240.302 340.624 241.072 340.624C241.918 340.624 242.591 340.954 243.09 341.614C243.59 342.27 243.839 343.174 243.839 344.325C243.839 345.455 243.537 346.373 242.932 347.08C242.326 347.786 241.577 348.14 240.685 348.14C240.003 348.14 239.339 347.956 238.691 347.587ZM238.691 342.528V346.718C239.326 347.001 239.914 347.143 240.456 347.143C241.154 347.143 241.7 346.902 242.094 346.419C242.487 345.933 242.684 345.247 242.684 344.363C242.684 342.573 242.039 341.678 240.748 341.678C240.062 341.678 239.377 341.961 238.691 342.528ZM246.613 348H245.496V338.009H246.613V348ZM249.4 343.671H253.608C253.575 342.245 252.921 341.532 251.647 341.532C251.004 341.532 250.483 341.722 250.085 342.103C249.688 342.484 249.459 343.007 249.4 343.671ZM252.021 348.165C250.828 348.165 249.901 347.843 249.241 347.2C248.585 346.553 248.257 345.639 248.257 344.458C248.257 343.286 248.573 342.355 249.203 341.665C249.834 340.971 250.669 340.624 251.71 340.624C252.658 340.624 253.393 340.908 253.913 341.475C254.438 342.042 254.7 342.85 254.7 343.899V344.515H249.4C249.4 345.378 249.633 346.043 250.098 346.508C250.568 346.97 251.215 347.2 252.041 347.2C252.861 347.2 253.682 346.915 254.503 346.343H254.554V347.556C253.534 347.962 252.69 348.165 252.021 348.165Z" fill="#333333"/>
<rect x="186" y="359" width="270" height="30" fill="white"/>
<path d="M213.104 378.171C212.207 378.171 211.365 377.975 210.578 377.581V376.286H210.622C211.477 376.921 212.325 377.238 213.167 377.238C214.348 377.238 214.938 376.866 214.938 376.121C214.938 375.829 214.86 375.603 214.704 375.442C214.547 375.281 214.221 375.144 213.726 375.029C213.311 374.949 212.835 374.845 212.298 374.718C211.76 374.591 211.344 374.369 211.047 374.052C210.755 373.73 210.609 373.32 210.609 372.82C210.609 372.186 210.868 371.667 211.384 371.265C211.9 370.859 212.59 370.656 213.453 370.656C214.342 370.656 215.123 370.829 215.795 371.176V372.408H215.751C215.01 371.862 214.225 371.589 213.396 371.589C212.884 371.589 212.48 371.684 212.184 371.875C211.887 372.061 211.739 372.321 211.739 372.655C211.739 372.951 211.818 373.178 211.974 373.334C212.135 373.491 212.452 373.629 212.926 373.747L214.329 374.052C214.909 374.179 215.345 374.403 215.637 374.725C215.929 375.042 216.075 375.455 216.075 375.962C216.075 376.618 215.806 377.152 215.269 377.562C214.731 377.968 214.01 378.171 213.104 378.171ZM221.883 376.292V374.21C220.304 374.282 219.289 374.458 218.836 374.737C218.387 375.012 218.163 375.393 218.163 375.88C218.163 376.739 218.684 377.168 219.725 377.168C220.431 377.168 221.151 376.876 221.883 376.292ZM221.883 378V377.2C221.286 377.632 220.795 377.905 220.41 378.019C220.025 378.138 219.634 378.197 219.236 378.197C218.597 378.197 218.066 377.985 217.643 377.562C217.219 377.139 217.008 376.601 217.008 375.95C217.008 375.116 217.321 374.49 217.947 374.071C218.578 373.648 219.89 373.396 221.883 373.315V373.1C221.883 372.6 221.735 372.232 221.438 371.995C221.142 371.754 220.622 371.633 219.877 371.633C219.221 371.633 218.491 371.803 217.687 372.141H217.636V370.979C218.428 370.764 219.189 370.656 219.921 370.656C220.984 370.656 221.76 370.855 222.251 371.252C222.746 371.646 222.994 372.26 222.994 373.093V378H221.883ZM234.343 378V373.982C234.343 373.208 234.288 372.691 234.178 372.433C234.072 372.171 233.907 371.98 233.683 371.862C233.463 371.739 233.184 371.678 232.845 371.678C232.265 371.678 231.582 371.997 230.795 372.636C230.82 372.856 230.833 373.138 230.833 373.48V378H229.716V373.982C229.716 373.186 229.661 372.664 229.551 372.414C229.445 372.16 229.282 371.974 229.062 371.855C228.846 371.737 228.571 371.678 228.237 371.678C227.632 371.678 226.957 371.987 226.212 372.604V378H225.095V370.827H226.212V371.69C227.062 370.979 227.867 370.624 228.624 370.624C229.602 370.624 230.262 371.015 230.604 371.798C231.527 371.015 232.403 370.624 233.232 370.624C234.718 370.624 235.46 371.525 235.46 373.328V378H234.343ZM238.691 377.587V380.647H237.574V370.827H238.691V371.621C239.508 370.956 240.302 370.624 241.072 370.624C241.918 370.624 242.591 370.954 243.09 371.614C243.59 372.27 243.839 373.174 243.839 374.325C243.839 375.455 243.537 376.373 242.932 377.08C242.326 377.786 241.577 378.14 240.685 378.14C240.003 378.14 239.339 377.956 238.691 377.587ZM238.691 372.528V376.718C239.326 377.001 239.914 377.143 240.456 377.143C241.154 377.143 241.7 376.902 242.094 376.419C242.487 375.933 242.684 375.247 242.684 374.363C242.684 372.573 242.039 371.678 240.748 371.678C240.062 371.678 239.377 371.961 238.691 372.528ZM246.613 378H245.496V368.009H246.613V378ZM249.4 373.671H253.608C253.575 372.245 252.921 371.532 251.647 371.532C251.004 371.532 250.483 371.722 250.085 372.103C249.688 372.484 249.459 373.007 249.4 373.671ZM252.021 378.165C250.828 378.165 249.901 377.843 249.241 377.2C248.585 376.553 248.257 375.639 248.257 374.458C248.257 373.286 248.573 372.355 249.203 371.665C249.834 370.971 250.669 370.624 251.71 370.624C252.658 370.624 253.393 370.908 253.913 371.475C254.438 372.042 254.7 372.85 254.7 373.899V374.515H249.4C249.4 375.378 249.633 376.043 250.098 376.508C250.568 376.97 251.215 377.2 252.041 377.2C252.861 377.2 253.682 376.915 254.503 376.343H254.554V377.556C253.534 377.962 252.69 378.165 252.021 378.165Z" fill="#333333"/>
<rect x="186" y="149" width="270" height="30" fill="white"/>
<path d="M213.104 168.171C212.207 168.171 211.365 167.975 210.578 167.581V166.286H210.622C211.477 166.921 212.325 167.238 213.167 167.238C214.348 167.238 214.938 166.866 214.938 166.121C214.938 165.829 214.86 165.603 214.704 165.442C214.547 165.281 214.221 165.144 213.726 165.029C213.311 164.949 212.835 164.845 212.298 164.718C211.76 164.591 211.344 164.369 211.047 164.052C210.755 163.73 210.609 163.32 210.609 162.82C210.609 162.186 210.868 161.667 211.384 161.265C211.9 160.859 212.59 160.656 213.453 160.656C214.342 160.656 215.123 160.829 215.795 161.176V162.408H215.751C215.01 161.862 214.225 161.589 213.396 161.589C212.884 161.589 212.48 161.684 212.184 161.875C211.887 162.061 211.739 162.321 211.739 162.655C211.739 162.951 211.818 163.178 211.974 163.334C212.135 163.491 212.452 163.629 212.926 163.747L214.329 164.052C214.909 164.179 215.345 164.403 215.637 164.725C215.929 165.042 216.075 165.455 216.075 165.962C216.075 166.618 215.806 167.152 215.269 167.562C214.731 167.968 214.01 168.171 213.104 168.171ZM221.883 166.292V164.21C220.304 164.282 219.289 164.458 218.836 164.737C218.387 165.012 218.163 165.393 218.163 165.88C218.163 166.739 218.684 167.168 219.725 167.168C220.431 167.168 221.151 166.876 221.883 166.292ZM221.883 168V167.2C221.286 167.632 220.795 167.905 220.41 168.019C220.025 168.138 219.634 168.197 219.236 168.197C218.597 168.197 218.066 167.985 217.643 167.562C217.219 167.139 217.008 166.601 217.008 165.95C217.008 165.116 217.321 164.49 217.947 164.071C218.578 163.648 219.89 163.396 221.883 163.315V163.1C221.883 162.6 221.735 162.232 221.438 161.995C221.142 161.754 220.622 161.633 219.877 161.633C219.221 161.633 218.491 161.803 217.687 162.141H217.636V160.979C218.428 160.764 219.189 160.656 219.921 160.656C220.984 160.656 221.76 160.855 222.251 161.252C222.746 161.646 222.994 162.26 222.994 163.093V168H221.883ZM234.343 168V163.982C234.343 163.208 234.288 162.691 234.178 162.433C234.072 162.171 233.907 161.98 233.683 161.862C233.463 161.739 233.184 161.678 232.845 161.678C232.265 161.678 231.582 161.997 230.795 162.636C230.82 162.856 230.833 163.138 230.833 163.48V168H229.716V163.982C229.716 163.186 229.661 162.664 229.551 162.414C229.445 162.16 229.282 161.974 229.062 161.855C228.846 161.737 228.571 161.678 228.237 161.678C227.632 161.678 226.957 161.987 226.212 162.604V168H225.095V160.827H226.212V161.69C227.062 160.979 227.867 160.624 228.624 160.624C229.602 160.624 230.262 161.015 230.604 161.798C231.527 161.015 232.403 160.624 233.232 160.624C234.718 160.624 235.46 161.525 235.46 163.328V168H234.343ZM238.691 167.587V170.647H237.574V160.827H238.691V161.621C239.508 160.956 240.302 160.624 241.072 160.624C241.918 160.624 242.591 160.954 243.09 161.614C243.59 162.27 243.839 163.174 243.839 164.325C243.839 165.455 243.537 166.373 242.932 167.08C242.326 167.786 241.577 168.14 240.685 168.14C240.003 168.14 239.339 167.956 238.691 167.587ZM238.691 162.528V166.718C239.326 167.001 239.914 167.143 240.456 167.143C241.154 167.143 241.7 166.902 242.094 166.419C242.487 165.933 242.684 165.247 242.684 164.363C242.684 162.573 242.039 161.678 240.748 161.678C240.062 161.678 239.377 161.961 238.691 162.528ZM246.613 168H245.496V158.009H246.613V168ZM249.4 163.671H253.608C253.575 162.245 252.921 161.532 251.647 161.532C251.004 161.532 250.483 161.722 250.085 162.103C249.688 162.484 249.459 163.007 249.4 163.671ZM252.021 168.165C250.828 168.165 249.901 167.843 249.241 167.2C248.585 166.553 248.257 165.639 248.257 164.458C248.257 163.286 248.573 162.355 249.203 161.665C249.834 160.971 250.669 160.624 251.71 160.624C252.658 160.624 253.393 160.908 253.913 161.475C254.438 162.042 254.7 162.85 254.7 163.899V164.515H249.4C249.4 165.378 249.633 166.043 250.098 166.508C250.568 166.97 251.215 167.2 252.041 167.2C252.861 167.2 253.682 166.915 254.503 166.343H254.554V167.556C253.534 167.962 252.69 168.165 252.021 168.165Z" fill="#333333"/>
<rect x="186" y="119" width="270" height="31" fill="white"/>
<path d="M214.104 139.171C213.207 139.171 212.365 138.975 211.578 138.581V137.286H211.622C212.477 137.921 213.325 138.238 214.167 138.238C215.348 138.238 215.938 137.866 215.938 137.121C215.938 136.829 215.86 136.603 215.704 136.442C215.547 136.281 215.221 136.144 214.726 136.029C214.311 135.949 213.835 135.845 213.298 135.718C212.76 135.591 212.344 135.369 212.047 135.052C211.755 134.73 211.609 134.32 211.609 133.82C211.609 133.186 211.868 132.667 212.384 132.265C212.9 131.859 213.59 131.656 214.453 131.656C215.342 131.656 216.123 131.829 216.795 132.176V133.408H216.751C216.01 132.862 215.225 132.589 214.396 132.589C213.884 132.589 213.48 132.684 213.184 132.875C212.887 133.061 212.739 133.321 212.739 133.655C212.739 133.951 212.818 134.178 212.974 134.334C213.135 134.491 213.452 134.629 213.926 134.747L215.329 135.052C215.909 135.179 216.345 135.403 216.637 135.725C216.929 136.042 217.075 136.455 217.075 136.962C217.075 137.618 216.806 138.152 216.269 138.562C215.731 138.968 215.01 139.171 214.104 139.171ZM222.883 137.292V135.21C221.304 135.282 220.289 135.458 219.836 135.737C219.387 136.012 219.163 136.393 219.163 136.88C219.163 137.739 219.684 138.168 220.725 138.168C221.431 138.168 222.151 137.876 222.883 137.292ZM222.883 139V138.2C222.286 138.632 221.795 138.905 221.41 139.019C221.025 139.138 220.634 139.197 220.236 139.197C219.597 139.197 219.066 138.985 218.643 138.562C218.219 138.139 218.008 137.601 218.008 136.95C218.008 136.116 218.321 135.49 218.947 135.071C219.578 134.648 220.89 134.396 222.883 134.315V134.1C222.883 133.6 222.735 133.232 222.438 132.995C222.142 132.754 221.622 132.633 220.877 132.633C220.221 132.633 219.491 132.803 218.687 133.141H218.636V131.979C219.428 131.764 220.189 131.656 220.921 131.656C221.984 131.656 222.76 131.855 223.251 132.252C223.746 132.646 223.994 133.26 223.994 134.093V139H222.883ZM235.343 139V134.982C235.343 134.208 235.288 133.691 235.178 133.433C235.072 133.171 234.907 132.98 234.683 132.862C234.463 132.739 234.184 132.678 233.845 132.678C233.265 132.678 232.582 132.997 231.795 133.636C231.82 133.856 231.833 134.138 231.833 134.48V139H230.716V134.982C230.716 134.186 230.661 133.664 230.551 133.414C230.445 133.16 230.282 132.974 230.062 132.855C229.846 132.737 229.571 132.678 229.237 132.678C228.632 132.678 227.957 132.987 227.212 133.604V139H226.095V131.827H227.212V132.69C228.062 131.979 228.867 131.624 229.624 131.624C230.602 131.624 231.262 132.015 231.604 132.798C232.527 132.015 233.403 131.624 234.232 131.624C235.718 131.624 236.46 132.525 236.46 134.328V139H235.343ZM239.691 138.587V141.647H238.574V131.827H239.691V132.621C240.508 131.956 241.302 131.624 242.072 131.624C242.918 131.624 243.591 131.954 244.09 132.614C244.59 133.27 244.839 134.174 244.839 135.325C244.839 136.455 244.537 137.373 243.932 138.08C243.326 138.786 242.577 139.14 241.685 139.14C241.003 139.14 240.339 138.956 239.691 138.587ZM239.691 133.528V137.718C240.326 138.001 240.914 138.143 241.456 138.143C242.154 138.143 242.7 137.902 243.094 137.419C243.487 136.933 243.684 136.247 243.684 135.363C243.684 133.573 243.039 132.678 241.748 132.678C241.062 132.678 240.377 132.961 239.691 133.528ZM247.613 139H246.496V129.009H247.613V139ZM250.4 134.671H254.608C254.575 133.245 253.921 132.532 252.647 132.532C252.004 132.532 251.483 132.722 251.085 133.103C250.688 133.484 250.459 134.007 250.4 134.671ZM253.021 139.165C251.828 139.165 250.901 138.843 250.241 138.2C249.585 137.553 249.257 136.639 249.257 135.458C249.257 134.286 249.573 133.355 250.203 132.665C250.834 131.971 251.669 131.624 252.71 131.624C253.658 131.624 254.393 131.908 254.913 132.475C255.438 133.042 255.7 133.85 255.7 134.899V135.515H250.4C250.4 136.378 250.633 137.043 251.098 137.508C251.568 137.97 252.215 138.2 253.041 138.2C253.861 138.2 254.682 137.915 255.503 137.343H255.554V138.556C254.534 138.962 253.69 139.165 253.021 139.165Z" fill="#333333"/>
<rect x="186" y="179" width="270" height="30" fill="white"/>
<path d="M213.104 198.171C212.207 198.171 211.365 197.975 210.578 197.581V196.286H210.622C211.477 196.921 212.325 197.238 213.167 197.238C214.348 197.238 214.938 196.866 214.938 196.121C214.938 195.829 214.86 195.603 214.704 195.442C214.547 195.281 214.221 195.144 213.726 195.029C213.311 194.949 212.835 194.845 212.298 194.718C211.76 194.591 211.344 194.369 211.047 194.052C210.755 193.73 210.609 193.32 210.609 192.82C210.609 192.186 210.868 191.667 211.384 191.265C211.9 190.859 212.59 190.656 213.453 190.656C214.342 190.656 215.123 190.829 215.795 191.176V192.408H215.751C215.01 191.862 214.225 191.589 213.396 191.589C212.884 191.589 212.48 191.684 212.184 191.875C211.887 192.061 211.739 192.321 211.739 192.655C211.739 192.951 211.818 193.178 211.974 193.334C212.135 193.491 212.452 193.629 212.926 193.747L214.329 194.052C214.909 194.179 215.345 194.403 215.637 194.725C215.929 195.042 216.075 195.455 216.075 195.962C216.075 196.618 215.806 197.152 215.269 197.562C214.731 197.968 214.01 198.171 213.104 198.171ZM221.883 196.292V194.21C220.304 194.282 219.289 194.458 218.836 194.737C218.387 195.012 218.163 195.393 218.163 195.88C218.163 196.739 218.684 197.168 219.725 197.168C220.431 197.168 221.151 196.876 221.883 196.292ZM221.883 198V197.2C221.286 197.632 220.795 197.905 220.41 198.019C220.025 198.138 219.634 198.197 219.236 198.197C218.597 198.197 218.066 197.985 217.643 197.562C217.219 197.139 217.008 196.601 217.008 195.95C217.008 195.116 217.321 194.49 217.947 194.071C218.578 193.648 219.89 193.396 221.883 193.315V193.1C221.883 192.6 221.735 192.232 221.438 191.995C221.142 191.754 220.622 191.633 219.877 191.633C219.221 191.633 218.491 191.803 217.687 192.141H217.636V190.979C218.428 190.764 219.189 190.656 219.921 190.656C220.984 190.656 221.76 190.855 222.251 191.252C222.746 191.646 222.994 192.26 222.994 193.093V198H221.883ZM234.343 198V193.982C234.343 193.208 234.288 192.691 234.178 192.433C234.072 192.171 233.907 191.98 233.683 191.862C233.463 191.739 233.184 191.678 232.845 191.678C232.265 191.678 231.582 191.997 230.795 192.636C230.82 192.856 230.833 193.138 230.833 193.48V198H229.716V193.982C229.716 193.186 229.661 192.664 229.551 192.414C229.445 192.16 229.282 191.974 229.062 191.855C228.846 191.737 228.571 191.678 228.237 191.678C227.632 191.678 226.957 191.987 226.212 192.604V198H225.095V190.827H226.212V191.69C227.062 190.979 227.867 190.624 228.624 190.624C229.602 190.624 230.262 191.015 230.604 191.798C231.527 191.015 232.403 190.624 233.232 190.624C234.718 190.624 235.46 191.525 235.46 193.328V198H234.343ZM238.691 197.587V200.647H237.574V190.827H238.691V191.621C239.508 190.956 240.302 190.624 241.072 190.624C241.918 190.624 242.591 190.954 243.09 191.614C243.59 192.27 243.839 193.174 243.839 194.325C243.839 195.455 243.537 196.373 242.932 197.08C242.326 197.786 241.577 198.14 240.685 198.14C240.003 198.14 239.339 197.956 238.691 197.587ZM238.691 192.528V196.718C239.326 197.001 239.914 197.143 240.456 197.143C241.154 197.143 241.7 196.902 242.094 196.419C242.487 195.933 242.684 195.247 242.684 194.363C242.684 192.573 242.039 191.678 240.748 191.678C240.062 191.678 239.377 191.961 238.691 192.528ZM246.613 198H245.496V188.009H246.613V198ZM249.4 193.671H253.608C253.575 192.245 252.921 191.532 251.647 191.532C251.004 191.532 250.483 191.722 250.085 192.103C249.688 192.484 249.459 193.007 249.4 193.671ZM252.021 198.165C250.828 198.165 249.901 197.843 249.241 197.2C248.585 196.553 248.257 195.639 248.257 194.458C248.257 193.286 248.573 192.355 249.203 191.665C249.834 190.971 250.669 190.624 251.71 190.624C252.658 190.624 253.393 190.908 253.913 191.475C254.438 192.042 254.7 192.85 254.7 193.899V194.515H249.4C249.4 195.378 249.633 196.043 250.098 196.508C250.568 196.97 251.215 197.2 252.041 197.2C252.861 197.2 253.682 196.915 254.503 196.343H254.554V197.556C253.534 197.962 252.69 198.165 252.021 198.165Z" fill="#333333"/>
<rect x="186" y="209" width="270" height="30" fill="white"/>
<path d="M213.104 228.171C212.207 228.171 211.365 227.975 210.578 227.581V226.286H210.622C211.477 226.921 212.325 227.238 213.167 227.238C214.348 227.238 214.938 226.866 214.938 226.121C214.938 225.829 214.86 225.603 214.704 225.442C214.547 225.281 214.221 225.144 213.726 225.029C213.311 224.949 212.835 224.845 212.298 224.718C211.76 224.591 211.344 224.369 211.047 224.052C210.755 223.73 210.609 223.32 210.609 222.82C210.609 222.186 210.868 221.667 211.384 221.265C211.9 220.859 212.59 220.656 213.453 220.656C214.342 220.656 215.123 220.829 215.795 221.176V222.408H215.751C215.01 221.862 214.225 221.589 213.396 221.589C212.884 221.589 212.48 221.684 212.184 221.875C211.887 222.061 211.739 222.321 211.739 222.655C211.739 222.951 211.818 223.178 211.974 223.334C212.135 223.491 212.452 223.629 212.926 223.747L214.329 224.052C214.909 224.179 215.345 224.403 215.637 224.725C215.929 225.042 216.075 225.455 216.075 225.962C216.075 226.618 215.806 227.152 215.269 227.562C214.731 227.968 214.01 228.171 213.104 228.171ZM221.883 226.292V224.21C220.304 224.282 219.289 224.458 218.836 224.737C218.387 225.012 218.163 225.393 218.163 225.88C218.163 226.739 218.684 227.168 219.725 227.168C220.431 227.168 221.151 226.876 221.883 226.292ZM221.883 228V227.2C221.286 227.632 220.795 227.905 220.41 228.019C220.025 228.138 219.634 228.197 219.236 228.197C218.597 228.197 218.066 227.985 217.643 227.562C217.219 227.139 217.008 226.601 217.008 225.95C217.008 225.116 217.321 224.49 217.947 224.071C218.578 223.648 219.89 223.396 221.883 223.315V223.1C221.883 222.6 221.735 222.232 221.438 221.995C221.142 221.754 220.622 221.633 219.877 221.633C219.221 221.633 218.491 221.803 217.687 222.141H217.636V220.979C218.428 220.764 219.189 220.656 219.921 220.656C220.984 220.656 221.76 220.855 222.251 221.252C222.746 221.646 222.994 222.26 222.994 223.093V228H221.883ZM234.343 228V223.982C234.343 223.208 234.288 222.691 234.178 222.433C234.072 222.171 233.907 221.98 233.683 221.862C233.463 221.739 233.184 221.678 232.845 221.678C232.265 221.678 231.582 221.997 230.795 222.636C230.82 222.856 230.833 223.138 230.833 223.48V228H229.716V223.982C229.716 223.186 229.661 222.664 229.551 222.414C229.445 222.16 229.282 221.974 229.062 221.855C228.846 221.737 228.571 221.678 228.237 221.678C227.632 221.678 226.957 221.987 226.212 222.604V228H225.095V220.827H226.212V221.69C227.062 220.979 227.867 220.624 228.624 220.624C229.602 220.624 230.262 221.015 230.604 221.798C231.527 221.015 232.403 220.624 233.232 220.624C234.718 220.624 235.46 221.525 235.46 223.328V228H234.343ZM238.691 227.587V230.647H237.574V220.827H238.691V221.621C239.508 220.956 240.302 220.624 241.072 220.624C241.918 220.624 242.591 220.954 243.09 221.614C243.59 222.27 243.839 223.174 243.839 224.325C243.839 225.455 243.537 226.373 242.932 227.08C242.326 227.786 241.577 228.14 240.685 228.14C240.003 228.14 239.339 227.956 238.691 227.587ZM238.691 222.528V226.718C239.326 227.001 239.914 227.143 240.456 227.143C241.154 227.143 241.7 226.902 242.094 226.419C242.487 225.933 242.684 225.247 242.684 224.363C242.684 222.573 242.039 221.678 240.748 221.678C240.062 221.678 239.377 221.961 238.691 222.528ZM246.613 228H245.496V218.009H246.613V228ZM249.4 223.671H253.608C253.575 222.245 252.921 221.532 251.647 221.532C251.004 221.532 250.483 221.722 250.085 222.103C249.688 222.484 249.459 223.007 249.4 223.671ZM252.021 228.165C250.828 228.165 249.901 227.843 249.241 227.2C248.585 226.553 248.257 225.639 248.257 224.458C248.257 223.286 248.573 222.355 249.203 221.665C249.834 220.971 250.669 220.624 251.71 220.624C252.658 220.624 253.393 220.908 253.913 221.475C254.438 222.042 254.7 222.85 254.7 223.899V224.515H249.4C249.4 225.378 249.633 226.043 250.098 226.508C250.568 226.97 251.215 227.2 252.041 227.2C252.861 227.2 253.682 226.915 254.503 226.343H254.554V227.556C253.534 227.962 252.69 228.165 252.021 228.165Z" fill="#333333"/>
<rect x="186" y="239" width="270" height="30" fill="#E2F2FE"/>
<path d="M210.508 257.651V255.848H210.584C211.46 256.555 212.382 256.908 213.352 256.908C214.333 256.908 214.824 256.642 214.824 256.108C214.824 255.893 214.748 255.73 214.596 255.62C214.443 255.505 214.168 255.404 213.771 255.315C213.495 255.264 213.104 255.182 212.596 255.067C212.088 254.953 211.688 254.794 211.396 254.591C211.109 254.388 210.895 254.143 210.755 253.855C210.616 253.567 210.546 253.235 210.546 252.858C210.546 252.143 210.857 251.563 211.479 251.119C212.101 250.671 212.937 250.446 213.986 250.446C214.913 250.446 215.749 250.609 216.494 250.935V252.649H216.443C215.592 252.044 214.769 251.741 213.974 251.741C213.563 251.741 213.22 251.817 212.945 251.97C212.67 252.122 212.533 252.312 212.533 252.541C212.533 252.799 212.617 252.987 212.787 253.106C212.96 253.22 213.248 253.324 213.65 253.417C214.162 253.51 214.672 253.622 215.18 253.753C215.688 253.885 216.087 254.117 216.379 254.452C216.671 254.782 216.817 255.209 216.817 255.734C216.817 256.483 216.5 257.082 215.865 257.53C215.235 257.979 214.382 258.203 213.307 258.203C212.241 258.203 211.308 258.019 210.508 257.651ZM224.39 258H222.454V257.042C221.857 257.554 221.373 257.873 221 258C220.632 258.131 220.239 258.197 219.82 258.197C219.177 258.197 218.643 257.989 218.22 257.575C217.797 257.156 217.585 256.618 217.585 255.962C217.585 255.133 217.896 254.505 218.519 254.077C219.145 253.65 220.463 253.383 222.473 253.277V253.081C222.473 252.619 222.314 252.285 221.997 252.078C221.68 251.87 221.155 251.767 220.423 251.767C219.924 251.767 219.208 251.957 218.277 252.338H218.208V250.795C219.189 250.558 220.078 250.44 220.874 250.44C222.113 250.44 223.008 250.641 223.559 251.043C224.113 251.441 224.39 252.076 224.39 252.947V258ZM222.454 256.21V254.356C221.176 254.462 220.376 254.627 220.055 254.852C219.733 255.072 219.572 255.378 219.572 255.772C219.572 256.191 219.684 256.483 219.909 256.648C220.133 256.813 220.484 256.896 220.962 256.896C221.466 256.896 221.963 256.667 222.454 256.21ZM237.727 258H235.765V254.312C235.765 253.821 235.742 253.392 235.695 253.023C235.653 252.651 235.524 252.397 235.308 252.262C235.097 252.126 234.802 252.059 234.426 252.059C234.091 252.059 233.62 252.245 233.01 252.617V258H231.049V254.312C231.049 253.796 231.023 253.36 230.973 253.004C230.922 252.645 230.789 252.397 230.573 252.262C230.361 252.126 230.071 252.059 229.703 252.059C229.352 252.059 228.882 252.247 228.294 252.624V258H226.345V250.649H228.294V251.678C228.937 251.149 229.424 250.812 229.754 250.668C230.088 250.52 230.433 250.446 230.789 250.446C231.711 250.446 232.392 250.916 232.833 251.855C233.455 251.314 233.962 250.944 234.356 250.745C234.75 250.546 235.135 250.446 235.511 250.446C236.988 250.446 237.727 251.354 237.727 253.169V258ZM241.637 257.479V260.647H239.688V250.649H241.637V251.633C242.204 251.155 242.665 250.838 243.021 250.681C243.38 250.525 243.759 250.446 244.157 250.446C245.016 250.446 245.682 250.776 246.156 251.437C246.63 252.097 246.867 253.019 246.867 254.204C246.867 255.368 246.567 256.312 245.966 257.035C245.365 257.755 244.616 258.114 243.719 258.114C243.092 258.114 242.398 257.903 241.637 257.479ZM241.637 252.471V256.521C241.984 256.665 242.379 256.737 242.824 256.737C244.174 256.737 244.849 255.918 244.849 254.28C244.849 252.727 244.284 251.951 243.154 251.951C242.693 251.951 242.187 252.124 241.637 252.471ZM250.295 258H248.346V248.009H250.295V258ZM258.94 254.629H253.729C253.814 256.102 254.649 256.838 256.236 256.838C257.066 256.838 257.899 256.538 258.737 255.937H258.807V257.625C257.813 258.006 256.877 258.197 256.001 258.197C254.622 258.197 253.57 257.869 252.847 257.213C252.123 256.557 251.761 255.611 251.761 254.375C251.761 253.148 252.104 252.183 252.79 251.481C253.475 250.774 254.421 250.421 255.627 250.421C257.836 250.421 258.94 251.595 258.94 253.944V254.629ZM256.992 253.525C256.975 252.26 256.461 251.627 255.449 251.627C254.374 251.627 253.801 252.26 253.729 253.525H256.992Z" fill="#3498DB"/>
<path fill-rule="evenodd" clip-rule="evenodd" d="M192 254L193.5 252L196.5 254.5L201.5 249L203 250.5L196.5 257.5L192 254Z" fill="#3498DB"/>
<rect x="186" y="389" width="270" height="7" fill="white"/>
<g filter="url(#filter1_ii_335_321)">
<rect x="186" y="78.8" width="158" height="30.4" fill="white"/>
</g>
<rect x="185.5" y="78.5" width="159" height="31" stroke="#E3E7E8"/>
<path d="M207.467 92.3484C206.624 93.6154 205.215 94.8686 203.242 96.1082C201.273 97.3478 199.234 98.1954 197.124 98.6512L196.379 98.077V87.5223H197.541V97.4002C199.382 96.949 201.121 96.1925 202.757 95.1307C204.397 94.0688 205.692 92.9135 206.64 91.6648L207.467 92.3484ZM220.024 98.2273H209.285V97.2498H218.849V89.2859H209.415V88.3426H220.024V98.2273ZM234.592 93.6746H223.285V92.6629H234.592V93.6746ZM249.009 93.948L248.291 94.8982C247.343 94.2648 246.211 93.6427 244.894 93.032C243.576 92.4214 242.403 91.9611 241.373 91.6512V98.9041H240.156V86.9344H241.387V90.5984C244.089 91.4096 246.63 92.5262 249.009 93.948ZM248.373 89.1834L247.594 89.5047C247.302 88.8165 246.974 88.1876 246.609 87.618L247.327 87.283C247.687 87.839 248.036 88.4725 248.373 89.1834ZM246.391 89.6072L245.604 89.9559C245.272 89.1993 244.941 88.559 244.613 88.035L245.352 87.7C245.753 88.3198 246.099 88.9555 246.391 89.6072ZM250.643 94.0643L250.232 93.3533C251.928 92.8064 253.523 91.9337 255.018 90.7352H250.615V89.9559H253.493C253.201 89.3771 252.967 88.9419 252.789 88.6502L253.685 88.4109C253.871 88.7026 254.152 89.2176 254.525 89.9559H256.412V88.0896C254.945 88.1398 253.393 88.1648 251.757 88.1648L251.627 87.3855H252.762C254.425 87.3855 255.738 87.3605 256.699 87.3103C257.665 87.2557 258.616 87.1896 259.55 87.1121C260.484 87.0301 261.177 86.9435 261.628 86.8523L262.1 87.6385C260.942 87.8071 259.652 87.9301 258.23 88.0076L257.485 88.0486V89.9559H259.481C259.8 89.4637 260.135 88.8963 260.486 88.2537L261.484 88.5408C261.211 88.9783 260.892 89.45 260.527 89.9559H263.337V90.7352H258.805C259.424 91.2273 260.272 91.7172 261.348 92.2049C262.423 92.6925 263.255 93.0138 263.843 93.1687L263.31 93.9686C262.229 93.6085 261.154 93.13 260.083 92.533C259.017 91.936 258.192 91.3367 257.608 90.7352H257.485V92.9978H256.412V90.7352H256.289C255.738 91.3322 254.942 91.936 253.903 92.5467C252.864 93.1528 251.777 93.6587 250.643 94.0643ZM260.869 98.5213H253.09V98.993H252.058V93.5789H261.929V98.993H260.869V98.5213ZM260.869 95.6365V94.3103H257.499V95.6365H260.869ZM256.426 94.3103H253.09V95.6365H256.426V94.3103ZM253.09 97.7898H256.426V96.368H253.09V97.7898ZM257.499 97.7898H260.869V96.368H257.499V97.7898ZM266.16 90.6326V87.1258H275.758V90.6326H266.16ZM274.685 87.8914H267.22V89.867H274.685V87.8914ZM271.526 99.0203L271.39 98.077H273.146C273.926 98.077 274.377 97.7215 274.5 97.0105C274.623 96.295 274.685 95.6844 274.685 95.1785H267.343L267.158 96.0057H266.071L266.823 92.7654H264.458V91.9178H277.412V92.7654H267.903L267.548 94.3514H275.84C275.84 94.9119 275.812 95.493 275.758 96.0945C275.703 96.6915 275.603 97.2293 275.457 97.7078C275.311 98.1818 275.097 98.5145 274.814 98.7059C274.532 98.8973 274.211 98.9975 273.851 99.0066C273.491 99.0158 273.003 99.0203 272.388 99.0203H271.526Z" fill="#888888"/>
<path d="M315.5 108.8V78.8H314.5V108.8H315.5Z" fill="#E3E7E8"/>
<g clip-path="url(#clip0_335_321)">
<path fill-rule="evenodd" clip-rule="evenodd" d="M334.115 91.3L334.737 91.7105L330.579 96.3658H329.421L325.263 91.7105L325.885 91.3L329.815 95.6595H330.185L334.115 91.3Z" fill="#3498DB"/>
</g>
<line x1="424" y1="396" x2="424" y2="423" stroke="#282828" stroke-width="2" stroke-linecap="round"/>
<line x1="207" y1="58" x2="207" y2="85" stroke="#282828" stroke-width="2" stroke-linecap="round"/>
<line x1="325" y1="58" x2="325" y2="85" stroke="#282828" stroke-width="2" stroke-linecap="round"/>
<line x1="443" y1="244" x2="470" y2="244" stroke="#282828" stroke-width="2" stroke-linecap="round"/>
<line x1="167" y1="98" x2="185" y2="98" stroke="#282828" stroke-width="2" stroke-linecap="round"/>
<rect x="463" y="233" width="83" height="24" rx="2" fill="#282828"/>
<path d="M476.753 248H472.156V241.377H473.606V246.901H476.753V248ZM478.897 242.274H477.452V241.083H478.897V242.274ZM478.849 248H477.5V242.911H478.849V248ZM479.904 247.758V246.51H479.957C480.563 247 481.202 247.244 481.873 247.244C482.552 247.244 482.892 247.06 482.892 246.69C482.892 246.541 482.839 246.428 482.734 246.352C482.628 246.273 482.438 246.203 482.163 246.141C481.972 246.106 481.701 246.049 481.35 245.97C480.998 245.891 480.721 245.781 480.519 245.64C480.32 245.5 480.172 245.33 480.075 245.13C479.979 244.931 479.93 244.701 479.93 244.44C479.93 243.945 480.146 243.544 480.576 243.236C481.007 242.926 481.585 242.771 482.312 242.771C482.954 242.771 483.532 242.883 484.048 243.109V244.295H484.013C483.424 243.876 482.854 243.667 482.303 243.667C482.019 243.667 481.782 243.72 481.591 243.825C481.401 243.931 481.306 244.062 481.306 244.221C481.306 244.399 481.364 244.53 481.481 244.612C481.602 244.691 481.801 244.763 482.079 244.827C482.434 244.892 482.787 244.969 483.138 245.06C483.49 245.151 483.767 245.312 483.969 245.543C484.171 245.772 484.272 246.068 484.272 246.431C484.272 246.95 484.052 247.364 483.613 247.675C483.176 247.985 482.586 248.141 481.842 248.141C481.104 248.141 480.458 248.013 479.904 247.758ZM488.201 247.969C487.84 248.057 487.455 248.101 487.045 248.101C486.438 248.101 485.995 247.972 485.713 247.714C485.432 247.454 485.292 247.033 485.292 246.453V243.803H484.624V242.911H485.296V241.483H486.641V242.911H488.201V243.803H486.641V245.899C486.641 246.438 486.709 246.79 486.847 246.954C486.985 247.118 487.216 247.2 487.542 247.2C487.75 247.2 487.956 247.149 488.161 247.046H488.201V247.969ZM490.385 247.64L490.297 248H489.031V241.083H490.38V243.592C490.773 243.261 491.092 243.042 491.338 242.933C491.587 242.825 491.85 242.771 492.125 242.771C492.723 242.771 493.184 243 493.509 243.46C493.837 243.92 494.001 244.566 494.001 245.398C494.001 246.213 493.793 246.874 493.377 247.38C492.961 247.887 492.443 248.141 491.822 248.141C491.376 248.141 490.897 247.974 490.385 247.64ZM490.38 244.172V246.994C490.679 247.105 490.953 247.161 491.202 247.161C492.137 247.161 492.604 246.585 492.604 245.434C492.604 244.353 492.213 243.812 491.431 243.812C491.111 243.812 490.761 243.932 490.38 244.172ZM497.249 248.158C496.423 248.158 495.781 247.921 495.324 247.446C494.867 246.969 494.639 246.307 494.639 245.46C494.639 244.61 494.869 243.947 495.329 243.469C495.792 242.992 496.432 242.753 497.249 242.753C498.072 242.753 498.712 242.992 499.169 243.469C499.629 243.947 499.859 244.61 499.859 245.46C499.859 246.307 499.629 246.969 499.169 247.446C498.712 247.921 498.072 248.158 497.249 248.158ZM497.249 243.693C496.449 243.693 496.049 244.287 496.049 245.473C496.049 246.636 496.455 247.218 497.267 247.218C498.055 247.218 498.449 246.636 498.449 245.473C498.449 244.287 498.049 243.693 497.249 243.693ZM505.739 248H504.135L502.944 246.317L501.736 248H500.215L502.162 245.46L500.242 242.911H501.841L503.015 244.563L504.197 242.911H505.722L503.788 245.42L505.739 248ZM509.47 248.141C508.462 248.141 507.67 247.834 507.093 247.222C506.519 246.607 506.231 245.765 506.231 244.695C506.231 243.62 506.517 242.776 507.088 242.164C507.663 241.549 508.457 241.241 509.47 241.241C510.481 241.241 511.273 241.549 511.848 242.164C512.425 242.779 512.713 243.623 512.713 244.695C512.713 245.759 512.426 246.6 511.852 247.218C511.281 247.833 510.487 248.141 509.47 248.141ZM509.475 242.287C508.95 242.287 508.533 242.497 508.222 242.916C507.912 243.334 507.756 243.928 507.756 244.695C507.756 245.46 507.912 246.052 508.222 246.471C508.533 246.887 508.95 247.095 509.475 247.095C509.996 247.095 510.412 246.885 510.723 246.466C511.033 246.044 511.188 245.453 511.188 244.691C511.188 243.926 511.033 243.334 510.723 242.916C510.415 242.497 509.999 242.287 509.475 242.287ZM515.13 247.64V249.833H513.781V242.911H515.13V243.592C515.523 243.261 515.842 243.042 516.088 242.933C516.337 242.825 516.6 242.771 516.875 242.771C517.47 242.771 517.931 242.999 518.259 243.456C518.587 243.913 518.751 244.552 518.751 245.372C518.751 246.178 518.543 246.831 518.127 247.332C517.711 247.83 517.193 248.079 516.572 248.079C516.138 248.079 515.658 247.933 515.13 247.64ZM515.13 244.172V246.976C515.371 247.076 515.645 247.125 515.952 247.125C516.887 247.125 517.354 246.559 517.354 245.425C517.354 244.35 516.963 243.812 516.181 243.812C515.861 243.812 515.511 243.932 515.13 244.172ZM522.777 247.969C522.417 248.057 522.031 248.101 521.621 248.101C521.015 248.101 520.571 247.972 520.29 247.714C520.008 247.454 519.868 247.033 519.868 246.453V243.803H519.2V242.911H519.872V241.483H521.217V242.911H522.777V243.803H521.217V245.899C521.217 246.438 521.286 246.79 521.423 246.954C521.561 247.118 521.792 247.2 522.118 247.2C522.326 247.2 522.532 247.149 522.737 247.046H522.777V247.969ZM525.005 242.274H523.559V241.083H525.005V242.274ZM524.957 248H523.607V242.911H524.957V248ZM528.582 248.158C527.756 248.158 527.114 247.921 526.657 247.446C526.2 246.969 525.972 246.307 525.972 245.46C525.972 244.61 526.202 243.947 526.662 243.469C527.125 242.992 527.765 242.753 528.582 242.753C529.405 242.753 530.045 242.992 530.502 243.469C530.962 243.947 531.192 244.61 531.192 245.46C531.192 246.307 530.962 246.969 530.502 247.446C530.045 247.921 529.405 248.158 528.582 248.158ZM528.582 243.693C527.782 243.693 527.382 244.287 527.382 245.473C527.382 246.636 527.788 247.218 528.6 247.218C529.388 247.218 529.782 246.636 529.782 245.473C529.782 244.287 529.382 243.693 528.582 243.693ZM536.967 248H535.609V245.464C535.609 244.755 535.53 244.316 535.372 244.146C535.216 243.973 534.963 243.887 534.611 243.887C534.318 243.887 533.965 244.017 533.552 244.278V248H532.203V242.911H533.552V243.623C533.974 243.277 534.311 243.049 534.563 242.938C534.818 242.826 535.083 242.771 535.358 242.771C536.431 242.771 536.967 243.399 536.967 244.656V248Z" fill="white"/>
<rect x="359" y="418" width="127" height="24" rx="2" fill="#282828"/>
<path d="M372.499 433H367.902V426.377H369.353V431.901H372.499V433ZM374.644 427.274H373.198V426.083H374.644V427.274ZM374.595 433H373.246V427.911H374.595V433ZM375.65 432.758V431.51H375.703C376.309 432 376.948 432.244 377.619 432.244C378.298 432.244 378.638 432.06 378.638 431.69C378.638 431.541 378.585 431.428 378.48 431.352C378.375 431.273 378.184 431.203 377.909 431.141C377.718 431.106 377.447 431.049 377.096 430.97C376.744 430.891 376.467 430.781 376.265 430.64C376.066 430.5 375.918 430.33 375.821 430.13C375.725 429.931 375.676 429.701 375.676 429.44C375.676 428.945 375.892 428.544 376.322 428.236C376.753 427.926 377.332 427.771 378.058 427.771C378.7 427.771 379.278 427.883 379.794 428.109V429.295H379.759C379.17 428.876 378.6 428.667 378.049 428.667C377.765 428.667 377.528 428.72 377.337 428.825C377.147 428.931 377.052 429.062 377.052 429.221C377.052 429.399 377.11 429.53 377.228 429.612C377.348 429.691 377.547 429.763 377.825 429.827C378.18 429.892 378.533 429.969 378.884 430.06C379.236 430.151 379.513 430.312 379.715 430.543C379.917 430.772 380.018 431.068 380.018 431.431C380.018 431.95 379.798 432.364 379.359 432.675C378.922 432.985 378.332 433.141 377.588 433.141C376.85 433.141 376.204 433.013 375.65 432.758ZM383.947 432.969C383.586 433.057 383.201 433.101 382.791 433.101C382.185 433.101 381.741 432.972 381.459 432.714C381.178 432.454 381.038 432.033 381.038 431.453V428.803H380.37V427.911H381.042V426.483H382.387V427.911H383.947V428.803H382.387V430.899C382.387 431.438 382.456 431.79 382.593 431.954C382.731 432.118 382.962 432.2 383.288 432.2C383.496 432.2 383.702 432.149 383.907 432.046H383.947V432.969ZM386.131 432.64L386.043 433H384.777V426.083H386.126V428.592C386.519 428.261 386.838 428.042 387.084 427.933C387.333 427.825 387.596 427.771 387.871 427.771C388.469 427.771 388.93 428 389.255 428.46C389.583 428.92 389.748 429.566 389.748 430.398C389.748 431.213 389.54 431.874 389.124 432.38C388.708 432.887 388.189 433.141 387.568 433.141C387.123 433.141 386.644 432.974 386.131 432.64ZM386.126 429.172V431.994C386.425 432.105 386.699 432.161 386.948 432.161C387.883 432.161 388.35 431.585 388.35 430.434C388.35 429.353 387.959 428.812 387.177 428.812C386.857 428.812 386.507 428.932 386.126 429.172ZM392.995 433.158C392.169 433.158 391.527 432.921 391.07 432.446C390.613 431.969 390.385 431.307 390.385 430.46C390.385 429.61 390.615 428.947 391.075 428.469C391.538 427.992 392.178 427.753 392.995 427.753C393.818 427.753 394.458 427.992 394.916 428.469C395.375 428.947 395.605 429.61 395.605 430.46C395.605 431.307 395.375 431.969 394.916 432.446C394.458 432.921 393.818 433.158 392.995 433.158ZM392.995 428.693C392.195 428.693 391.795 429.287 391.795 430.473C391.795 431.636 392.201 432.218 393.013 432.218C393.801 432.218 394.195 431.636 394.195 430.473C394.195 429.287 393.795 428.693 392.995 428.693ZM401.485 433H399.881L398.69 431.317L397.482 433H395.961L397.908 430.46L395.988 427.911H397.587L398.761 429.563L399.943 427.911H401.468L399.534 430.42L401.485 433ZM403.85 430.746V433H402.399V426.377H404.904C405.763 426.377 406.415 426.553 406.86 426.905C407.305 427.253 407.528 427.765 407.528 428.438C407.528 429.142 407.282 429.703 406.79 430.122C406.297 430.538 405.656 430.746 404.865 430.746H403.85ZM403.841 427.419V429.695H404.228C404.954 429.695 405.435 429.596 405.669 429.396C405.906 429.194 406.025 428.885 406.025 428.469C406.025 428.126 405.911 427.866 405.682 427.687C405.457 427.508 405.008 427.419 404.337 427.419H403.841ZM410.494 433.158C409.668 433.158 409.026 432.921 408.569 432.446C408.112 431.969 407.884 431.307 407.884 430.46C407.884 429.61 408.114 428.947 408.574 428.469C409.037 427.992 409.677 427.753 410.494 427.753C411.317 427.753 411.958 427.992 412.415 428.469C412.875 428.947 413.104 429.61 413.104 430.46C413.104 431.307 412.875 431.969 412.415 432.446C411.958 432.921 411.317 433.158 410.494 433.158ZM410.494 428.693C409.694 428.693 409.294 429.287 409.294 430.473C409.294 431.636 409.7 432.218 410.512 432.218C411.3 432.218 411.694 431.636 411.694 430.473C411.694 429.287 411.294 428.693 410.494 428.693ZM415.464 432.64V434.833H414.115V427.911H415.464V428.592C415.857 428.261 416.176 428.042 416.422 427.933C416.671 427.825 416.934 427.771 417.209 427.771C417.804 427.771 418.265 427.999 418.593 428.456C418.921 428.913 419.085 429.552 419.085 430.372C419.085 431.178 418.877 431.831 418.461 432.332C418.045 432.83 417.527 433.079 416.906 433.079C416.472 433.079 415.992 432.933 415.464 432.64ZM415.464 429.172V431.976C415.705 432.076 415.979 432.125 416.286 432.125C417.221 432.125 417.688 431.559 417.688 430.425C417.688 429.35 417.297 428.812 416.515 428.812C416.195 428.812 415.845 428.932 415.464 429.172ZM424.833 433H423.484V432.288C423.074 432.622 422.74 432.848 422.482 432.965C422.225 433.082 421.957 433.141 421.678 433.141C420.606 433.141 420.07 432.512 420.07 431.255V427.911H421.428V430.447C421.428 431.156 421.505 431.597 421.661 431.77C421.816 431.942 422.069 432.029 422.421 432.029C422.723 432.029 423.077 431.897 423.484 431.633V427.911H424.833V433ZM427.584 432.64V434.833H426.235V427.911H427.584V428.592C427.977 428.261 428.296 428.042 428.542 427.933C428.792 427.825 429.054 427.771 429.329 427.771C429.924 427.771 430.385 427.999 430.713 428.456C431.042 428.913 431.206 429.552 431.206 430.372C431.206 431.178 430.998 431.831 430.582 432.332C430.166 432.83 429.647 433.079 429.026 433.079C428.592 433.079 428.112 432.933 427.584 432.64ZM427.584 429.172V431.976C427.825 432.076 428.099 432.125 428.406 432.125C429.341 432.125 429.808 431.559 429.808 430.425C429.808 429.35 429.417 428.812 428.635 428.812C428.315 428.812 427.965 428.932 427.584 429.172ZM437.441 432.556C436.885 432.811 436.442 432.971 436.114 433.035C435.786 433.1 435.47 433.132 435.165 433.132C434.151 433.132 433.353 432.83 432.77 432.227C432.187 431.623 431.896 430.781 431.896 429.7C431.896 428.639 432.19 427.8 432.779 427.182C433.371 426.561 434.167 426.25 435.169 426.25C435.946 426.25 436.703 426.436 437.441 426.808V428.166H437.288C436.599 427.58 435.947 427.287 435.332 427.287C434.743 427.287 434.277 427.498 433.935 427.92C433.592 428.339 433.42 428.934 433.42 429.704C433.42 430.469 433.595 431.059 433.943 431.475C434.292 431.888 434.758 432.095 435.341 432.095C435.646 432.095 435.943 432.042 436.233 431.937C436.523 431.828 436.879 431.589 437.301 431.22H437.441V432.556ZM440.649 433.158C439.823 433.158 439.182 432.921 438.725 432.446C438.268 431.969 438.039 431.307 438.039 430.46C438.039 429.61 438.269 428.947 438.729 428.469C439.192 427.992 439.832 427.753 440.649 427.753C441.473 427.753 442.113 427.992 442.57 428.469C443.03 428.947 443.26 429.61 443.26 430.46C443.26 431.307 443.03 431.969 442.57 432.446C442.113 432.921 441.473 433.158 440.649 433.158ZM440.649 428.693C439.85 428.693 439.45 429.287 439.45 430.473C439.45 431.636 439.855 432.218 440.667 432.218C441.455 432.218 441.849 431.636 441.849 430.473C441.849 429.287 441.449 428.693 440.649 428.693ZM449.034 433H447.676V430.464C447.676 429.755 447.597 429.316 447.439 429.146C447.284 428.973 447.03 428.887 446.679 428.887C446.386 428.887 446.033 429.017 445.62 429.278V433H444.271V427.911H445.62V428.623C446.042 428.277 446.378 428.049 446.63 427.938C446.885 427.826 447.15 427.771 447.426 427.771C448.498 427.771 449.034 428.399 449.034 429.656V433ZM453.398 432.969C453.038 433.057 452.652 433.101 452.242 433.101C451.636 433.101 451.192 432.972 450.911 432.714C450.629 432.454 450.489 432.033 450.489 431.453V428.803H449.821V427.911H450.493V426.483H451.838V427.911H453.398V428.803H451.838V430.899C451.838 431.438 451.907 431.79 452.044 431.954C452.182 432.118 452.414 432.2 452.739 432.2C452.947 432.2 453.153 432.149 453.358 432.046H453.398V432.969ZM458.544 433H457.204V432.336C456.791 432.691 456.455 432.912 456.197 433C455.942 433.091 455.67 433.136 455.38 433.136C454.935 433.136 454.565 432.993 454.272 432.706C453.979 432.416 453.833 432.043 453.833 431.589C453.833 431.015 454.048 430.58 454.479 430.284C454.913 429.988 455.825 429.804 457.217 429.73V429.594C457.217 429.275 457.107 429.043 456.887 428.9C456.667 428.756 456.304 428.685 455.797 428.685C455.452 428.685 454.957 428.816 454.312 429.08H454.264V428.012C454.943 427.848 455.559 427.766 456.109 427.766C456.968 427.766 457.587 427.905 457.968 428.184C458.352 428.459 458.544 428.898 458.544 429.502V433ZM457.204 431.761V430.478C456.319 430.551 455.765 430.665 455.542 430.82C455.32 430.973 455.208 431.185 455.208 431.458C455.208 431.748 455.286 431.95 455.441 432.064C455.597 432.178 455.84 432.235 456.171 432.235C456.52 432.235 456.864 432.077 457.204 431.761ZM461.295 427.274H459.849V426.083H461.295V427.274ZM461.247 433H459.897V427.911H461.247V433ZM467.412 433H466.054V430.464C466.054 429.755 465.975 429.316 465.817 429.146C465.662 428.973 465.408 428.887 465.057 428.887C464.764 428.887 464.411 429.017 463.998 429.278V433H462.648V427.911H463.998V428.623C464.419 428.277 464.756 428.049 465.008 427.938C465.263 427.826 465.528 427.771 465.804 427.771C466.876 427.771 467.412 428.399 467.412 429.656V433ZM473.358 430.667H469.75C469.809 431.686 470.387 432.196 471.486 432.196C472.06 432.196 472.637 431.988 473.217 431.572H473.266V432.741C472.577 433.004 471.93 433.136 471.323 433.136C470.368 433.136 469.64 432.909 469.139 432.455C468.638 432.001 468.388 431.346 468.388 430.491C468.388 429.641 468.625 428.973 469.1 428.487C469.574 427.998 470.229 427.753 471.064 427.753C472.593 427.753 473.358 428.566 473.358 430.192V430.667ZM472.009 429.902C471.997 429.026 471.641 428.588 470.941 428.588C470.197 428.588 469.8 429.026 469.75 429.902H472.009ZM477.796 429.287H477.752C477.571 429.24 477.328 429.216 477.023 429.216C476.545 429.216 476.106 429.292 475.705 429.445V433H474.355V427.911H475.705V428.834C476.118 428.462 476.458 428.213 476.724 428.087C476.991 427.958 477.253 427.894 477.511 427.894C477.578 427.894 477.673 427.896 477.796 427.902V429.287Z" fill="white"/>
<rect x="283" y="36" width="81" height="24" rx="2" fill="#282828"/>
<path d="M291.464 50.6045V49.2026H291.613C291.941 49.4722 292.318 49.686 292.743 49.8442C293.17 50.0024 293.581 50.0815 293.973 50.0815C294.38 50.0815 294.708 50.0083 294.958 49.8618C295.207 49.7153 295.331 49.5117 295.331 49.251C295.331 49.0488 295.271 48.8877 295.151 48.7676C295.034 48.6475 294.81 48.5479 294.479 48.4688C294.241 48.4248 293.835 48.3384 293.261 48.2095C292.69 48.0806 292.253 47.855 291.952 47.5327C291.653 47.2075 291.503 46.793 291.503 46.2891C291.503 45.6885 291.76 45.2007 292.272 44.8257C292.785 44.4478 293.444 44.2588 294.25 44.2588C295.07 44.2588 295.841 44.4082 296.562 44.707V46.0474H296.417C295.801 45.5493 295.095 45.3003 294.298 45.3003C293.92 45.3003 293.608 45.3706 293.362 45.5112C293.119 45.6519 292.998 45.8438 292.998 46.0869C292.998 46.2949 293.066 46.4604 293.204 46.5835C293.345 46.7065 293.583 46.8076 293.92 46.8867C294.257 46.9482 294.632 47.0303 295.045 47.1328C295.461 47.2324 295.771 47.3452 295.973 47.4712C296.178 47.5972 296.34 47.7349 296.46 47.8843C296.583 48.0308 296.674 48.1948 296.733 48.3765C296.794 48.5581 296.825 48.7588 296.825 48.9785C296.825 49.623 296.562 50.1416 296.034 50.5342C295.51 50.9268 294.814 51.123 293.947 51.123C293.103 51.123 292.275 50.9502 291.464 50.6045ZM302.402 48.6665H298.794C298.853 49.686 299.431 50.1958 300.53 50.1958C301.104 50.1958 301.681 49.9878 302.261 49.5718H302.31V50.7407C301.621 51.0044 300.974 51.1362 300.367 51.1362C299.412 51.1362 298.684 50.9092 298.183 50.4551C297.682 50.001 297.432 49.3462 297.432 48.4907C297.432 47.6411 297.669 46.9731 298.144 46.4868C298.618 45.9976 299.273 45.7529 300.108 45.7529C301.637 45.7529 302.402 46.5659 302.402 48.1919V48.6665ZM301.053 47.9019C301.041 47.0259 300.685 46.5879 299.985 46.5879C299.241 46.5879 298.844 47.0259 298.794 47.9019H301.053ZM307.715 51H306.375V50.3364C305.961 50.6909 305.626 50.9121 305.368 51C305.113 51.0908 304.841 51.1362 304.551 51.1362C304.105 51.1362 303.736 50.9927 303.443 50.7056C303.15 50.4155 303.004 50.0435 303.004 49.5894C303.004 49.0151 303.219 48.5801 303.65 48.2842C304.083 47.9883 304.996 47.8037 306.388 47.7305V47.5942C306.388 47.2749 306.278 47.0435 306.058 46.8999C305.838 46.7563 305.475 46.6846 304.968 46.6846C304.623 46.6846 304.127 46.8164 303.483 47.0801H303.435V46.0122C304.114 45.8481 304.729 45.7661 305.28 45.7661C306.139 45.7661 306.758 45.9053 307.139 46.1836C307.523 46.459 307.715 46.8984 307.715 47.502V51ZM306.375 49.7607V48.4775C305.49 48.5508 304.936 48.665 304.713 48.8203C304.491 48.9727 304.379 49.1851 304.379 49.4575C304.379 49.7476 304.457 49.9497 304.612 50.064C304.768 50.1782 305.011 50.2354 305.342 50.2354C305.69 50.2354 306.035 50.0771 306.375 49.7607ZM312.509 47.2866H312.465C312.284 47.2397 312.041 47.2163 311.736 47.2163C311.258 47.2163 310.819 47.2925 310.417 47.4448V51H309.068V45.9111H310.417V46.834C310.831 46.4619 311.17 46.2129 311.437 46.0869C311.704 45.958 311.966 45.8936 312.224 45.8936C312.291 45.8936 312.386 45.8965 312.509 45.9023V47.2866ZM317.282 50.7495C316.713 51.0073 316.199 51.1362 315.739 51.1362C314.849 51.1362 314.154 50.9062 313.656 50.4463C313.158 49.9863 312.909 49.3301 312.909 48.4775C312.909 47.6191 313.161 46.9541 313.665 46.4824C314.169 46.0078 314.843 45.7705 315.687 45.7705C316.237 45.7705 316.769 45.9009 317.282 46.1616V47.4009H317.211C316.713 46.9556 316.223 46.7329 315.739 46.7329C315.291 46.7329 314.942 46.8867 314.693 47.1943C314.444 47.502 314.32 47.9297 314.32 48.4775C314.32 49.0254 314.444 49.4458 314.693 49.7388C314.945 50.0288 315.301 50.1738 315.761 50.1738C316.25 50.1738 316.734 49.9512 317.211 49.5059H317.282V50.7495ZM322.981 51H321.624V48.4644C321.624 47.7554 321.544 47.3159 321.386 47.146C321.231 46.9731 320.978 46.8867 320.626 46.8867C320.333 46.8867 319.98 47.0171 319.567 47.2778V51H318.218V44.083H319.567V46.623C319.989 46.2773 320.326 46.0488 320.578 45.9375C320.833 45.8262 321.098 45.7705 321.373 45.7705C322.445 45.7705 322.981 46.3989 322.981 47.6558V51ZM324.432 51V44.3774H326.813C327.821 44.3774 328.505 44.5107 328.866 44.7773C329.229 45.041 329.411 45.4146 329.411 45.8979C329.411 46.5366 329.097 47.001 328.47 47.291V47.3262C329.417 47.5254 329.89 48.0718 329.89 48.9653C329.89 49.5894 329.655 50.0845 329.187 50.4507C328.721 50.8169 328.044 51 327.156 51H324.432ZM325.873 45.4189V47.0229H326.418C326.866 47.0229 327.184 46.9995 327.372 46.9526C327.559 46.9028 327.698 46.8105 327.789 46.6758C327.88 46.5381 327.925 46.3667 327.925 46.1616C327.925 45.9976 327.884 45.8569 327.802 45.7397C327.723 45.6226 327.593 45.5405 327.411 45.4937C327.229 45.4438 326.863 45.4189 326.312 45.4189H325.873ZM325.873 48.0073V49.9585H326.326C326.727 49.9585 327.036 49.9541 327.253 49.9453C327.47 49.9365 327.666 49.894 327.842 49.8179C328.021 49.7417 328.155 49.6318 328.246 49.4883C328.34 49.3447 328.387 49.1704 328.387 48.9653C328.387 48.7427 328.338 48.5596 328.242 48.416C328.148 48.2725 328.01 48.1685 327.829 48.104C327.65 48.0396 327.229 48.0073 326.567 48.0073H325.873ZM335.651 51H334.302V50.2881C333.892 50.6221 333.558 50.8477 333.3 50.9648C333.042 51.082 332.774 51.1406 332.496 51.1406C331.423 51.1406 330.887 50.5122 330.887 49.2554V45.9111H332.245V48.4468C332.245 49.1558 332.323 49.5967 332.478 49.7695C332.633 49.9424 332.887 50.0288 333.238 50.0288C333.54 50.0288 333.895 49.897 334.302 49.6333V45.9111H335.651V51ZM340.054 50.9692C339.694 51.0571 339.309 51.1011 338.898 51.1011C338.292 51.1011 337.848 50.9722 337.567 50.7144C337.286 50.4536 337.145 50.0332 337.145 49.4531V46.8032H336.477V45.9111H337.149V44.4829H338.494V45.9111H340.054V46.8032H338.494V48.8994C338.494 49.4385 338.563 49.79 338.701 49.9541C338.838 50.1182 339.07 50.2002 339.395 50.2002C339.603 50.2002 339.81 50.1489 340.015 50.0464H340.054V50.9692ZM343.886 50.9692C343.526 51.0571 343.141 51.1011 342.73 51.1011C342.124 51.1011 341.68 50.9722 341.399 50.7144C341.118 50.4536 340.977 50.0332 340.977 49.4531V46.8032H340.309V45.9111H340.981V44.4829H342.326V45.9111H343.886V46.8032H342.326V48.8994C342.326 49.4385 342.395 49.79 342.533 49.9541C342.67 50.1182 342.902 50.2002 343.227 50.2002C343.435 50.2002 343.642 50.1489 343.847 50.0464H343.886V50.9692ZM346.905 51.1582C346.079 51.1582 345.438 50.9209 344.98 50.4463C344.523 49.9688 344.295 49.3066 344.295 48.46C344.295 47.6104 344.525 46.9468 344.985 46.4692C345.448 45.9917 346.088 45.7529 346.905 45.7529C347.729 45.7529 348.369 45.9917 348.826 46.4692C349.286 46.9468 349.516 47.6104 349.516 48.46C349.516 49.3066 349.286 49.9688 348.826 50.4463C348.369 50.9209 347.729 51.1582 346.905 51.1582ZM346.905 46.6934C346.105 46.6934 345.706 47.2866 345.706 48.4731C345.706 49.6362 346.111 50.2178 346.923 50.2178C347.711 50.2178 348.105 49.6362 348.105 48.4731C348.105 47.2866 347.705 46.6934 346.905 46.6934ZM355.29 51H353.932V48.4644C353.932 47.7554 353.853 47.3159 353.695 47.146C353.54 46.9731 353.286 46.8867 352.935 46.8867C352.642 46.8867 352.289 47.0171 351.875 47.2778V51H350.526V45.9111H351.875V46.623C352.297 46.2773 352.634 46.0488 352.886 45.9375C353.141 45.8262 353.406 45.7705 353.682 45.7705C354.754 45.7705 355.29 46.3989 355.29 47.6558V51Z" fill="white"/>
<rect x="174" y="36" width="67" height="24" rx="2" fill="#282828"/>
<path d="M182.557 50.6045V49.2026H182.706C183.034 49.4722 183.411 49.686 183.835 49.8442C184.263 50.0024 184.673 50.0815 185.066 50.0815C185.473 50.0815 185.801 50.0083 186.05 49.8618C186.299 49.7153 186.424 49.5117 186.424 49.251C186.424 49.0488 186.364 48.8877 186.244 48.7676C186.126 48.6475 185.902 48.5479 185.571 48.4688C185.334 48.4248 184.928 48.3384 184.354 48.2095C183.783 48.0806 183.346 47.855 183.044 47.5327C182.746 47.2075 182.596 46.793 182.596 46.2891C182.596 45.6885 182.853 45.2007 183.365 44.8257C183.878 44.4478 184.537 44.2588 185.343 44.2588C186.163 44.2588 186.934 44.4082 187.654 44.707V46.0474H187.509C186.894 45.5493 186.188 45.3003 185.391 45.3003C185.013 45.3003 184.701 45.3706 184.455 45.5112C184.212 45.6519 184.09 45.8438 184.09 46.0869C184.09 46.2949 184.159 46.4604 184.297 46.5835C184.438 46.7065 184.676 46.8076 185.013 46.8867C185.35 46.9482 185.725 47.0303 186.138 47.1328C186.554 47.2324 186.863 47.3452 187.065 47.4712C187.271 47.5972 187.433 47.7349 187.553 47.8843C187.676 48.0308 187.767 48.1948 187.826 48.3765C187.887 48.5581 187.918 48.7588 187.918 48.9785C187.918 49.623 187.654 50.1416 187.127 50.5342C186.603 50.9268 185.907 51.123 185.04 51.123C184.196 51.123 183.368 50.9502 182.557 50.6045ZM193.495 48.6665H189.887C189.945 49.686 190.524 50.1958 191.623 50.1958C192.197 50.1958 192.774 49.9878 193.354 49.5718H193.402V50.7407C192.714 51.0044 192.066 51.1362 191.46 51.1362C190.505 51.1362 189.777 50.9092 189.276 50.4551C188.775 50.001 188.524 49.3462 188.524 48.4907C188.524 47.6411 188.762 46.9731 189.236 46.4868C189.711 45.9976 190.366 45.7529 191.201 45.7529C192.73 45.7529 193.495 46.5659 193.495 48.1919V48.6665ZM192.146 47.9019C192.134 47.0259 191.778 46.5879 191.078 46.5879C190.333 46.5879 189.937 47.0259 189.887 47.9019H192.146ZM198.808 51H197.467V50.3364C197.054 50.6909 196.719 50.9121 196.461 51C196.206 51.0908 195.934 51.1362 195.644 51.1362C195.198 51.1362 194.829 50.9927 194.536 50.7056C194.243 50.4155 194.097 50.0435 194.097 49.5894C194.097 49.0151 194.312 48.5801 194.743 48.2842C195.176 47.9883 196.089 47.8037 197.48 47.7305V47.5942C197.48 47.2749 197.371 47.0435 197.151 46.8999C196.931 46.7563 196.568 46.6846 196.061 46.6846C195.715 46.6846 195.22 46.8164 194.576 47.0801H194.527V46.0122C195.207 45.8481 195.822 45.7661 196.373 45.7661C197.231 45.7661 197.851 45.9053 198.232 46.1836C198.616 46.459 198.808 46.8984 198.808 47.502V51ZM197.467 49.7607V48.4775C196.583 48.5508 196.029 48.665 195.806 48.8203C195.583 48.9727 195.472 49.1851 195.472 49.4575C195.472 49.7476 195.55 49.9497 195.705 50.064C195.86 50.1782 196.104 50.2354 196.435 50.2354C196.783 50.2354 197.127 50.0771 197.467 49.7607ZM203.602 47.2866H203.558C203.376 47.2397 203.133 47.2163 202.829 47.2163C202.351 47.2163 201.912 47.2925 201.51 47.4448V51H200.161V45.9111H201.51V46.834C201.923 46.4619 202.263 46.2129 202.53 46.0869C202.796 45.958 203.059 45.8936 203.316 45.8936C203.384 45.8936 203.479 45.8965 203.602 45.9023V47.2866ZM208.375 50.7495C207.806 51.0073 207.292 51.1362 206.832 51.1362C205.941 51.1362 205.247 50.9062 204.749 50.4463C204.251 49.9863 204.002 49.3301 204.002 48.4775C204.002 47.6191 204.254 46.9541 204.758 46.4824C205.262 46.0078 205.936 45.7705 206.779 45.7705C207.33 45.7705 207.862 45.9009 208.375 46.1616V47.4009H208.304C207.806 46.9556 207.315 46.7329 206.832 46.7329C206.384 46.7329 206.035 46.8867 205.786 47.1943C205.537 47.502 205.413 47.9297 205.413 48.4775C205.413 49.0254 205.537 49.4458 205.786 49.7388C206.038 50.0288 206.394 50.1738 206.854 50.1738C207.343 50.1738 207.827 49.9512 208.304 49.5059H208.375V50.7495ZM214.074 51H212.716V48.4644C212.716 47.7554 212.637 47.3159 212.479 47.146C212.324 46.9731 212.07 46.8867 211.719 46.8867C211.426 46.8867 211.073 47.0171 210.66 47.2778V51H209.311V44.083H210.66V46.623C211.082 46.2773 211.418 46.0488 211.67 45.9375C211.925 45.8262 212.19 45.7705 212.466 45.7705C213.538 45.7705 214.074 46.3989 214.074 47.6558V51ZM215.524 51V44.3774H217.906C218.914 44.3774 219.598 44.5107 219.958 44.7773C220.322 45.041 220.503 45.4146 220.503 45.8979C220.503 46.5366 220.19 47.001 219.563 47.291V47.3262C220.509 47.5254 220.982 48.0718 220.982 48.9653C220.982 49.5894 220.748 50.0845 220.279 50.4507C219.813 50.8169 219.137 51 218.249 51H215.524ZM216.966 45.4189V47.0229H217.511C217.959 47.0229 218.277 46.9995 218.464 46.9526C218.652 46.9028 218.791 46.8105 218.882 46.6758C218.973 46.5381 219.018 46.3667 219.018 46.1616C219.018 45.9976 218.977 45.8569 218.895 45.7397C218.816 45.6226 218.686 45.5405 218.504 45.4937C218.322 45.4438 217.956 45.4189 217.405 45.4189H216.966ZM216.966 48.0073V49.9585H217.418C217.82 49.9585 218.129 49.9541 218.346 49.9453C218.562 49.9365 218.759 49.894 218.935 49.8179C219.113 49.7417 219.248 49.6318 219.339 49.4883C219.433 49.3447 219.479 49.1704 219.479 48.9653C219.479 48.7427 219.431 48.5596 219.334 48.416C219.241 48.2725 219.103 48.1685 218.921 48.104C218.743 48.0396 218.322 48.0073 217.66 48.0073H216.966ZM224.243 51.1582C223.417 51.1582 222.775 50.9209 222.318 50.4463C221.861 49.9688 221.633 49.3066 221.633 48.46C221.633 47.6104 221.863 46.9468 222.323 46.4692C222.786 45.9917 223.426 45.7529 224.243 45.7529C225.066 45.7529 225.707 45.9917 226.164 46.4692C226.624 46.9468 226.854 47.6104 226.854 48.46C226.854 49.3066 226.624 49.9688 226.164 50.4463C225.707 50.9209 225.066 51.1582 224.243 51.1582ZM224.243 46.6934C223.443 46.6934 223.043 47.2866 223.043 48.4731C223.043 49.6362 223.449 50.2178 224.261 50.2178C225.049 50.2178 225.443 49.6362 225.443 48.4731C225.443 47.2866 225.043 46.6934 224.243 46.6934ZM232.733 51H231.129L229.938 49.3169L228.73 51H227.209L229.156 48.46L227.236 45.9111H228.835L230.009 47.5635L231.191 45.9111H232.716L230.782 48.4204L232.733 51Z" fill="white"/>
<rect x="125" y="86" width="49" height="24" rx="2" fill="#282828"/>
<path d="M133.618 100.604V99.2026H133.768C134.096 99.4722 134.472 99.686 134.897 99.8442C135.325 100.002 135.735 100.082 136.127 100.082C136.535 100.082 136.863 100.008 137.112 99.8618C137.361 99.7153 137.485 99.5117 137.485 99.251C137.485 99.0488 137.425 98.8877 137.305 98.7676C137.188 98.6475 136.964 98.5479 136.633 98.4688C136.396 98.4248 135.99 98.3384 135.416 98.2095C134.844 98.0806 134.408 97.855 134.106 97.5327C133.807 97.2075 133.658 96.793 133.658 96.2891C133.658 95.6885 133.914 95.2007 134.427 94.8257C134.939 94.4478 135.599 94.2588 136.404 94.2588C137.225 94.2588 137.995 94.4082 138.716 94.707V96.0474H138.571C137.956 95.5493 137.25 95.3003 136.453 95.3003C136.075 95.3003 135.763 95.3706 135.517 95.5112C135.273 95.6519 135.152 95.8438 135.152 96.0869C135.152 96.2949 135.221 96.4604 135.358 96.5835C135.499 96.7065 135.738 96.8076 136.075 96.8867C136.412 96.9482 136.787 97.0303 137.2 97.1328C137.616 97.2324 137.925 97.3452 138.127 97.4712C138.332 97.5972 138.495 97.7349 138.615 97.8843C138.738 98.0308 138.829 98.1948 138.887 98.3765C138.949 98.5581 138.979 98.7588 138.979 98.9785C138.979 99.623 138.716 100.142 138.188 100.534C137.664 100.927 136.968 101.123 136.101 101.123C135.257 101.123 134.43 100.95 133.618 100.604ZM144.556 98.6665H140.948C141.007 99.686 141.585 100.196 142.684 100.196C143.258 100.196 143.835 99.9878 144.416 99.5718H144.464V100.741C143.775 101.004 143.128 101.136 142.521 101.136C141.566 101.136 140.838 100.909 140.337 100.455C139.836 100.001 139.586 99.3462 139.586 98.4907C139.586 97.6411 139.823 96.9731 140.298 96.4868C140.772 95.9976 141.427 95.7529 142.262 95.7529C143.792 95.7529 144.556 96.5659 144.556 98.1919V98.6665ZM143.207 97.9019C143.195 97.0259 142.839 96.5879 142.139 96.5879C141.395 96.5879 140.998 97.0259 140.948 97.9019H143.207ZM149.869 101H148.529V100.336C148.116 100.691 147.78 100.912 147.522 101C147.268 101.091 146.995 101.136 146.705 101.136C146.26 101.136 145.891 100.993 145.598 100.706C145.305 100.416 145.158 100.043 145.158 99.5894C145.158 99.0151 145.374 98.5801 145.804 98.2842C146.238 97.9883 147.15 97.8037 148.542 97.7305V97.5942C148.542 97.2749 148.432 97.0435 148.212 96.8999C147.993 96.7563 147.629 96.6846 147.123 96.6846C146.777 96.6846 146.282 96.8164 145.637 97.0801H145.589V96.0122C146.269 95.8481 146.884 95.7661 147.435 95.7661C148.293 95.7661 148.913 95.9053 149.293 96.1836C149.677 96.459 149.869 96.8984 149.869 97.502V101ZM148.529 99.7607V98.4775C147.644 98.5508 147.09 98.665 146.868 98.8203C146.645 98.9727 146.534 99.1851 146.534 99.4575C146.534 99.7476 146.611 99.9497 146.767 100.064C146.922 100.178 147.165 100.235 147.496 100.235C147.845 100.235 148.189 100.077 148.529 99.7607ZM154.664 97.2866H154.62C154.438 97.2397 154.195 97.2163 153.89 97.2163C153.413 97.2163 152.973 97.2925 152.572 97.4448V101H151.223V95.9111H152.572V96.834C152.985 96.4619 153.325 96.2129 153.591 96.0869C153.858 95.958 154.12 95.8936 154.378 95.8936C154.445 95.8936 154.541 95.8965 154.664 95.9023V97.2866ZM159.436 100.75C158.868 101.007 158.354 101.136 157.894 101.136C157.003 101.136 156.309 100.906 155.811 100.446C155.312 99.9863 155.063 99.3301 155.063 98.4775C155.063 97.6191 155.315 96.9541 155.819 96.4824C156.323 96.0078 156.997 95.7705 157.841 95.7705C158.392 95.7705 158.923 95.9009 159.436 96.1616V97.4009H159.366C158.868 96.9556 158.377 96.7329 157.894 96.7329C157.445 96.7329 157.097 96.8867 156.848 97.1943C156.599 97.502 156.474 97.9297 156.474 98.4775C156.474 99.0254 156.599 99.4458 156.848 99.7388C157.1 100.029 157.456 100.174 157.916 100.174C158.405 100.174 158.888 99.9512 159.366 99.5059H159.436V100.75ZM165.136 101H163.778V98.4644C163.778 97.7554 163.699 97.3159 163.541 97.146C163.385 96.9731 163.132 96.8867 162.78 96.8867C162.487 96.8867 162.134 97.0171 161.721 97.2778V101H160.372V94.083H161.721V96.623C162.143 96.2773 162.48 96.0488 162.732 95.9375C162.987 95.8262 163.252 95.7705 163.527 95.7705C164.6 95.7705 165.136 96.3989 165.136 97.6558V101Z" fill="white"/>
<rect x="96" y="221" width="78" height="24" rx="2" fill="#282828"/>
<path d="M104.673 235.604V234.203H104.823C105.151 234.472 105.527 234.686 105.952 234.844C106.38 235.002 106.79 235.082 107.183 235.082C107.59 235.082 107.918 235.008 108.167 234.862C108.416 234.715 108.541 234.512 108.541 234.251C108.541 234.049 108.48 233.888 108.36 233.768C108.243 233.647 108.019 233.548 107.688 233.469C107.451 233.425 107.045 233.338 106.471 233.209C105.899 233.081 105.463 232.855 105.161 232.533C104.862 232.208 104.713 231.793 104.713 231.289C104.713 230.688 104.969 230.201 105.482 229.826C105.995 229.448 106.654 229.259 107.459 229.259C108.28 229.259 109.05 229.408 109.771 229.707V231.047H109.626C109.011 230.549 108.305 230.3 107.508 230.3C107.13 230.3 106.818 230.371 106.572 230.511C106.329 230.652 106.207 230.844 106.207 231.087C106.207 231.295 106.276 231.46 106.414 231.583C106.554 231.707 106.793 231.808 107.13 231.887C107.467 231.948 107.842 232.03 108.255 232.133C108.671 232.232 108.98 232.345 109.182 232.471C109.387 232.597 109.55 232.735 109.67 232.884C109.793 233.031 109.884 233.195 109.942 233.376C110.004 233.558 110.035 233.759 110.035 233.979C110.035 234.623 109.771 235.142 109.244 235.534C108.719 235.927 108.023 236.123 107.156 236.123C106.312 236.123 105.485 235.95 104.673 235.604ZM115.611 233.667H112.003C112.062 234.686 112.641 235.196 113.739 235.196C114.313 235.196 114.891 234.988 115.471 234.572H115.519V235.741C114.831 236.004 114.183 236.136 113.577 236.136C112.622 236.136 111.894 235.909 111.393 235.455C110.892 235.001 110.641 234.346 110.641 233.491C110.641 232.641 110.878 231.973 111.353 231.487C111.828 230.998 112.482 230.753 113.317 230.753C114.847 230.753 115.611 231.566 115.611 233.192V233.667ZM114.262 232.902C114.25 232.026 113.895 231.588 113.194 231.588C112.45 231.588 112.053 232.026 112.003 232.902H114.262ZM117.958 236H116.609V229.083H117.958V236ZM123.943 233.667H120.335C120.394 234.686 120.973 235.196 122.071 235.196C122.646 235.196 123.223 234.988 123.803 234.572H123.851V235.741C123.163 236.004 122.515 236.136 121.909 236.136C120.954 236.136 120.226 235.909 119.725 235.455C119.224 235.001 118.973 234.346 118.973 233.491C118.973 232.641 119.21 231.973 119.685 231.487C120.16 230.998 120.814 230.753 121.649 230.753C123.179 230.753 123.943 231.566 123.943 233.192V233.667ZM122.594 232.902C122.583 232.026 122.227 231.588 121.526 231.588C120.782 231.588 120.385 232.026 120.335 232.902H122.594ZM128.927 235.75C128.358 236.007 127.844 236.136 127.384 236.136C126.494 236.136 125.799 235.906 125.301 235.446C124.803 234.986 124.554 234.33 124.554 233.478C124.554 232.619 124.806 231.954 125.31 231.482C125.814 231.008 126.488 230.771 127.332 230.771C127.882 230.771 128.414 230.901 128.927 231.162V232.401H128.856C128.358 231.956 127.868 231.733 127.384 231.733C126.936 231.733 126.587 231.887 126.338 232.194C126.089 232.502 125.965 232.93 125.965 233.478C125.965 234.025 126.089 234.446 126.338 234.739C126.59 235.029 126.946 235.174 127.406 235.174C127.896 235.174 128.379 234.951 128.856 234.506H128.927V235.75ZM132.864 235.969C132.504 236.057 132.119 236.101 131.708 236.101C131.102 236.101 130.658 235.972 130.377 235.714C130.096 235.454 129.955 235.033 129.955 234.453V231.803H129.287V230.911H129.959V229.483H131.304V230.911H132.864V231.803H131.304V233.899C131.304 234.438 131.373 234.79 131.511 234.954C131.648 235.118 131.88 235.2 132.205 235.2C132.413 235.2 132.62 235.149 132.825 235.046H132.864V235.969ZM138.243 233.667H134.635C134.694 234.686 135.272 235.196 136.371 235.196C136.945 235.196 137.522 234.988 138.103 234.572H138.151V235.741C137.462 236.004 136.815 236.136 136.208 236.136C135.253 236.136 134.525 235.909 134.024 235.455C133.523 235.001 133.273 234.346 133.273 233.491C133.273 232.641 133.51 231.973 133.985 231.487C134.459 230.998 135.114 230.753 135.949 230.753C137.479 230.753 138.243 231.566 138.243 233.192V233.667ZM136.894 232.902C136.882 232.026 136.526 231.588 135.826 231.588C135.082 231.588 134.685 232.026 134.635 232.902H136.894ZM143.833 236H142.484V235.332C142.044 235.689 141.713 235.914 141.491 236.004C141.268 236.095 141.029 236.141 140.774 236.141C140.191 236.141 139.727 235.905 139.381 235.433C139.036 234.958 138.863 234.314 138.863 233.5C138.863 232.691 139.072 232.035 139.491 231.531C139.91 231.024 140.43 230.771 141.051 230.771C141.274 230.771 141.478 230.795 141.662 230.845C141.847 230.895 142.121 231.015 142.484 231.206V229.083H143.833V236ZM142.484 234.695V231.939C142.191 231.813 141.918 231.75 141.667 231.75C140.729 231.75 140.26 232.322 140.26 233.464C140.26 234.042 140.357 234.459 140.55 234.717C140.744 234.972 141.047 235.099 141.46 235.099C141.771 235.099 142.112 234.964 142.484 234.695ZM148.632 236H145.02V235.011H146.101V230.366H145.02V229.377H148.632V230.366H147.551V235.011H148.632V236ZM153.536 235.75C152.968 236.007 152.454 236.136 151.994 236.136C151.103 236.136 150.409 235.906 149.911 235.446C149.413 234.986 149.164 234.33 149.164 233.478C149.164 232.619 149.416 231.954 149.919 231.482C150.423 231.008 151.097 230.771 151.941 230.771C152.492 230.771 153.023 230.901 153.536 231.162V232.401H153.466C152.968 231.956 152.477 231.733 151.994 231.733C151.545 231.733 151.197 231.887 150.948 232.194C150.699 232.502 150.574 232.93 150.574 233.478C150.574 234.025 150.699 234.446 150.948 234.739C151.2 235.029 151.556 235.174 152.016 235.174C152.505 235.174 152.988 234.951 153.466 234.506H153.536V235.75ZM156.696 236.158C155.87 236.158 155.228 235.921 154.771 235.446C154.314 234.969 154.085 234.307 154.085 233.46C154.085 232.61 154.315 231.947 154.775 231.469C155.238 230.992 155.878 230.753 156.696 230.753C157.519 230.753 158.159 230.992 158.616 231.469C159.076 231.947 159.306 232.61 159.306 233.46C159.306 234.307 159.076 234.969 158.616 235.446C158.159 235.921 157.519 236.158 156.696 236.158ZM156.696 231.693C155.896 231.693 155.496 232.287 155.496 233.473C155.496 234.636 155.902 235.218 156.713 235.218C157.501 235.218 157.896 234.636 157.896 233.473C157.896 232.287 157.496 231.693 156.696 231.693ZM165.081 236H163.723V233.464C163.723 232.755 163.644 232.316 163.485 232.146C163.33 231.973 163.077 231.887 162.725 231.887C162.432 231.887 162.079 232.017 161.666 232.278V236H160.317V230.911H161.666V231.623C162.088 231.277 162.425 231.049 162.677 230.938C162.932 230.826 163.197 230.771 163.472 230.771C164.544 230.771 165.081 231.399 165.081 232.656V236Z" fill="white"/>
<rect x="132" y="261" width="42" height="24" rx="2" fill="#282828"/>
<path d="M145.67 276H141.073V269.377H142.523V274.901H145.67V276ZM150.732 276H149.392V275.336C148.979 275.691 148.644 275.912 148.386 276C148.131 276.091 147.858 276.136 147.568 276.136C147.123 276.136 146.754 275.993 146.461 275.706C146.168 275.416 146.021 275.043 146.021 274.589C146.021 274.015 146.237 273.58 146.667 273.284C147.101 272.988 148.014 272.804 149.405 272.73V272.594C149.405 272.275 149.295 272.043 149.076 271.9C148.856 271.756 148.493 271.685 147.986 271.685C147.64 271.685 147.145 271.816 146.5 272.08H146.452V271.012C147.132 270.848 147.747 270.766 148.298 270.766C149.156 270.766 149.776 270.905 150.157 271.184C150.541 271.459 150.732 271.898 150.732 272.502V276ZM149.392 274.761V273.478C148.507 273.551 147.954 273.665 147.731 273.82C147.508 273.973 147.397 274.185 147.397 274.458C147.397 274.748 147.475 274.95 147.63 275.064C147.785 275.178 148.028 275.235 148.359 275.235C148.708 275.235 149.052 275.077 149.392 274.761ZM153.439 275.64L153.352 276H152.086V269.083H153.435V271.592C153.828 271.261 154.147 271.042 154.393 270.933C154.642 270.825 154.904 270.771 155.18 270.771C155.777 270.771 156.239 271 156.564 271.46C156.892 271.92 157.056 272.566 157.056 273.398C157.056 274.213 156.848 274.874 156.432 275.38C156.016 275.887 155.498 276.141 154.876 276.141C154.431 276.141 153.952 275.974 153.439 275.64ZM153.435 272.172V274.994C153.734 275.105 154.008 275.161 154.257 275.161C155.191 275.161 155.659 274.585 155.659 273.434C155.659 272.353 155.268 271.812 154.485 271.812C154.166 271.812 153.816 271.932 153.435 272.172ZM162.664 273.667H159.056C159.114 274.686 159.693 275.196 160.792 275.196C161.366 275.196 161.943 274.988 162.523 274.572H162.571V275.741C161.883 276.004 161.235 276.136 160.629 276.136C159.674 276.136 158.946 275.909 158.445 275.455C157.944 275.001 157.693 274.346 157.693 273.491C157.693 272.641 157.931 271.973 158.405 271.487C158.88 270.998 159.535 270.753 160.37 270.753C161.899 270.753 162.664 271.566 162.664 273.192V273.667ZM161.314 272.902C161.303 272.026 160.947 271.588 160.247 271.588C159.502 271.588 159.105 272.026 159.056 272.902H161.314ZM165.01 276H163.661V269.083H165.01V276Z" fill="white"/>
<path d="M231 262V273H173" stroke="#282828" stroke-width="2" stroke-linecap="round"/>
<path d="M197 244V233H169" stroke="#282828" stroke-width="2" stroke-linecap="round"/>
<defs>
<filter id="filter0_d_335_321" x="175" y="106" width="292" height="306" filterUnits="userSpaceOnUse" color-interpolation-filters="sRGB">
<feFlood flood-opacity="0" result="BackgroundImageFix"/>
<feColorMatrix in="SourceAlpha" type="matrix" values="0 0 0 0 0 0 0 0 0 0 0 0 0 0 0 0 0 0 127 0" result="hardAlpha"/>
<feOffset dy="5"/>
<feGaussianBlur stdDeviation="5"/>
<feColorMatrix type="matrix" values="0 0 0 0 0 0 0 0 0 0 0 0 0 0 0 0 0 0 0.1 0"/>
<feBlend mode="normal" in2="BackgroundImageFix" result="effect1_dropShadow_335_321"/>
<feBlend mode="normal" in="SourceGraphic" in2="effect1_dropShadow_335_321" result="shape"/>
</filter>
<filter id="filter1_ii_335_321" x="184" y="76.8" width="162" height="34.4" filterUnits="userSpaceOnUse" color-interpolation-filters="sRGB">
<feFlood flood-opacity="0" result="BackgroundImageFix"/>
<feBlend mode="normal" in="SourceGraphic" in2="BackgroundImageFix" result="shape"/>
<feColorMatrix in="SourceAlpha" type="matrix" values="0 0 0 0 0 0 0 0 0 0 0 0 0 0 0 0 0 0 127 0" result="hardAlpha"/>
<feOffset dx="2" dy="2"/>
<feGaussianBlur stdDeviation="2"/>
<feComposite in2="hardAlpha" operator="arithmetic" k2="-1" k3="1"/>
<feColorMatrix type="matrix" values="0 0 0 0 0.960784 0 0 0 0 0.960784 0 0 0 0 0.960784 0 0 0 1 0"/>
<feBlend mode="normal" in2="shape" result="effect1_innerShadow_335_321"/>
<feColorMatrix in="SourceAlpha" type="matrix" values="0 0 0 0 0 0 0 0 0 0 0 0 0 0 0 0 0 0 127 0" result="hardAlpha"/>
<feOffset dx="-2" dy="-2"/>
<feGaussianBlur stdDeviation="2"/>
<feComposite in2="hardAlpha" operator="arithmetic" k2="-1" k3="1"/>
<feColorMatrix type="matrix" values="0 0 0 0 0.960784 0 0 0 0 0.960784 0 0 0 0 0.960784 0 0 0 1 0"/>
<feBlend mode="normal" in2="effect1_innerShadow_335_321" result="effect2_innerShadow_335_321"/>
</filter>
<clipPath id="clip0_335_321">
<rect width="9.47368" height="8.68421" fill="white" transform="translate(325.263 89.8526)"/>
</clipPath>
</defs>
</svg>
