<svg width="182" height="71" viewBox="0 0 182 71" fill="none" xmlns="http://www.w3.org/2000/svg">
<rect width="182" height="71" fill="white"/>
<rect x="25" y="26" width="19" height="19" rx="1" fill="white" stroke="#3498DB" stroke-width="2"/>
<path fill-rule="evenodd" clip-rule="evenodd" d="M29 36L30.5 34L33.5 36.5L38.5 31L40 32.5L33.5 39.5L29 36Z" fill="#3498DB"/>
<path d="M60.5645 40.1846C59.0241 40.1846 57.8164 39.7197 56.9414 38.79C56.071 37.8604 55.6357 36.5501 55.6357 34.8594C55.6357 33.2005 56.0778 31.8949 56.9619 30.9424C57.8506 29.9899 59.0537 29.5137 60.5713 29.5137C61.6605 29.5137 62.7952 29.8213 63.9756 30.4365V31.9336H63.8799C62.8089 31.0358 61.6787 30.5869 60.4893 30.5869C59.4046 30.5869 58.5456 30.9652 57.9121 31.7217C57.2786 32.4736 56.9619 33.5195 56.9619 34.8594C56.9619 36.1901 57.2832 37.2314 57.9258 37.9834C58.5729 38.7308 59.432 39.1045 60.5029 39.1045C61.0817 39.1045 61.6331 39.0133 62.1572 38.8311C62.6813 38.6442 63.2555 38.2819 63.8799 37.7441H63.9756V39.248C63.1006 39.6628 62.4193 39.9225 61.9316 40.0273C61.4486 40.1322 60.9928 40.1846 60.5645 40.1846ZM71.9668 40H70.7637V35.6797C70.7637 34.6725 70.6315 34.0072 70.3672 33.6836C70.1029 33.3555 69.6676 33.1914 69.0615 33.1914C68.3506 33.1914 67.5918 33.5218 66.7852 34.1826V40H65.582V29.2402H66.7852V33.1982C67.6875 32.4372 68.583 32.0566 69.4717 32.0566C70.2692 32.0566 70.8844 32.3073 71.3174 32.8086C71.7503 33.3053 71.9668 34.0254 71.9668 34.9688V40ZM74.8994 35.3379H79.4316C79.3952 33.8021 78.6911 33.0342 77.3193 33.0342C76.6266 33.0342 76.0661 33.2393 75.6377 33.6494C75.2093 34.0596 74.9632 34.6224 74.8994 35.3379ZM77.7227 40.1777C76.4375 40.1777 75.4395 39.8314 74.7285 39.1387C74.0221 38.4414 73.6689 37.457 73.6689 36.1855C73.6689 34.9232 74.0085 33.9206 74.6875 33.1777C75.3665 32.4303 76.2666 32.0566 77.3877 32.0566C78.4085 32.0566 79.1992 32.362 79.7598 32.9727C80.3249 33.5833 80.6074 34.4538 80.6074 35.584V36.2471H74.8994C74.8994 37.1768 75.1501 37.8923 75.6514 38.3936C76.1572 38.8903 76.8545 39.1387 77.7432 39.1387C78.6273 39.1387 79.5114 38.8311 80.3955 38.2158H80.4502V39.5215C79.3519 39.959 78.4427 40.1777 77.7227 40.1777ZM87.9287 39.5283C87.0036 39.9613 86.1969 40.1777 85.5088 40.1777C84.3193 40.1777 83.3942 39.8291 82.7334 39.1318C82.0771 38.4346 81.749 37.4411 81.749 36.1514C81.749 34.889 82.0885 33.8955 82.7676 33.1709C83.4466 32.4463 84.3626 32.084 85.5156 32.084C86.2767 32.084 87.0811 32.2959 87.9287 32.7197V34.0596H87.874C87.0218 33.4352 86.2266 33.123 85.4883 33.123C84.6999 33.123 84.0869 33.3851 83.6494 33.9092C83.2119 34.4333 82.9932 35.1807 82.9932 36.1514C82.9932 37.1221 83.2096 37.8626 83.6426 38.373C84.0801 38.8835 84.6953 39.1387 85.4883 39.1387C86.2493 39.1387 87.0446 38.8311 87.874 38.2158H87.9287V39.5283ZM96.0156 40H94.4229L91.333 36.5889L90.6152 37.2793V40H89.4121V29.2402H90.6152V36.0762L94.2314 32.2754H95.7354L92.2217 35.8301L96.0156 40ZM98.3467 39.5898L98.2441 40H97.1367V29.2402H98.3398V33.123C99.2194 32.4121 100.074 32.0566 100.903 32.0566C101.81 32.0566 102.533 32.4144 103.07 33.1299C103.613 33.8454 103.884 34.8252 103.884 36.0693C103.884 37.2998 103.558 38.2979 102.906 39.0635C102.255 39.8291 101.448 40.2119 100.486 40.2119C99.7344 40.2119 99.0212 40.0046 98.3467 39.5898ZM98.3398 34.1006V38.6807C99.0234 38.986 99.6569 39.1387 100.24 39.1387C100.997 39.1387 101.585 38.8743 102.004 38.3457C102.428 37.8171 102.64 37.0697 102.64 36.1035C102.64 34.1621 101.945 33.1914 100.555 33.1914C99.8164 33.1914 99.0781 33.4945 98.3398 34.1006ZM108.648 40.2119C107.55 40.2119 106.682 39.8496 106.044 39.125C105.406 38.3958 105.087 37.4023 105.087 36.1445C105.087 34.8867 105.408 33.891 106.051 33.1572C106.693 32.4235 107.559 32.0566 108.648 32.0566C109.738 32.0566 110.604 32.4212 111.246 33.1504C111.889 33.8796 112.21 34.8776 112.21 36.1445C112.21 37.4115 111.889 38.4072 111.246 39.1318C110.608 39.8519 109.742 40.2119 108.648 40.2119ZM108.648 33.082C107.906 33.082 107.334 33.3441 106.933 33.8682C106.532 34.3923 106.331 35.151 106.331 36.1445C106.331 37.1243 106.532 37.8763 106.933 38.4004C107.334 38.9245 107.906 39.1865 108.648 39.1865C109.391 39.1865 109.963 38.9245 110.364 38.4004C110.765 37.8763 110.966 37.1243 110.966 36.1445C110.966 34.1029 110.193 33.082 108.648 33.082ZM120.181 40H118.725L116.544 36.999L114.309 40H112.962L115.901 36.165L112.989 32.2754H114.445L116.612 35.2559L118.827 32.2754H120.181L117.255 36.0898L120.181 40ZM128.145 40H121.726V29.6982H122.997V38.8926H128.145V40ZM134.078 38.1611V35.9189C132.378 35.9964 131.285 36.1855 130.797 36.4863C130.314 36.7826 130.072 37.1927 130.072 37.7168C130.072 38.6419 130.633 39.1045 131.754 39.1045C132.515 39.1045 133.29 38.79 134.078 38.1611ZM134.078 40V39.1387C133.436 39.6035 132.907 39.8975 132.492 40.0205C132.077 40.1481 131.656 40.2119 131.228 40.2119C130.539 40.2119 129.967 39.984 129.512 39.5283C129.056 39.0726 128.828 38.4938 128.828 37.792C128.828 36.8942 129.165 36.2197 129.84 35.7686C130.519 35.3128 131.932 35.0417 134.078 34.9551V34.7227C134.078 34.1849 133.919 33.7884 133.6 33.5332C133.281 33.2734 132.72 33.1436 131.918 33.1436C131.212 33.1436 130.425 33.3258 129.56 33.6904H129.505V32.4395C130.357 32.207 131.177 32.0908 131.966 32.0908C133.11 32.0908 133.946 32.305 134.475 32.7334C135.008 33.1572 135.274 33.818 135.274 34.7158V40H134.078ZM138.747 39.5898L138.645 40H137.537V29.2402H138.74V33.123C139.62 32.4121 140.474 32.0566 141.304 32.0566C142.211 32.0566 142.933 32.4144 143.471 33.1299C144.013 33.8454 144.284 34.8252 144.284 36.0693C144.284 37.2998 143.958 38.2979 143.307 39.0635C142.655 39.8291 141.848 40.2119 140.887 40.2119C140.135 40.2119 139.422 40.0046 138.747 39.5898ZM138.74 34.1006V38.6807C139.424 38.986 140.057 39.1387 140.641 39.1387C141.397 39.1387 141.985 38.8743 142.404 38.3457C142.828 37.8171 143.04 37.0697 143.04 36.1035C143.04 34.1621 142.345 33.1914 140.955 33.1914C140.217 33.1914 139.479 33.4945 138.74 34.1006ZM146.718 35.3379H151.25C151.214 33.8021 150.509 33.0342 149.138 33.0342C148.445 33.0342 147.884 33.2393 147.456 33.6494C147.028 34.0596 146.782 34.6224 146.718 35.3379ZM149.541 40.1777C148.256 40.1777 147.258 39.8314 146.547 39.1387C145.84 38.4414 145.487 37.457 145.487 36.1855C145.487 34.9232 145.827 33.9206 146.506 33.1777C147.185 32.4303 148.085 32.0566 149.206 32.0566C150.227 32.0566 151.018 32.362 151.578 32.9727C152.143 33.5833 152.426 34.4538 152.426 35.584V36.2471H146.718C146.718 37.1768 146.968 37.8923 147.47 38.3936C147.976 38.8903 148.673 39.1387 149.562 39.1387C150.446 39.1387 151.33 38.8311 152.214 38.2158H152.269V39.5215C151.17 39.959 150.261 40.1777 149.541 40.1777ZM155.352 40H154.148V29.2402H155.352V40Z" fill="#333333"/>
</svg>
