<svg width="356" height="180" viewBox="0 0 356 180" fill="none" xmlns="http://www.w3.org/2000/svg">
<rect width="356" height="180" fill="white"/>
<rect x="129" y="79" width="19" height="19" rx="1" fill="white" stroke="#3498DB" stroke-width="2"/>
<path fill-rule="evenodd" clip-rule="evenodd" d="M133 89L134.5 87L137.5 89.5L142.5 84L144 85.5L137.5 92.5L133 89Z" fill="#3498DB"/>
<path d="M163.156 93.2119C162.058 93.2119 161.19 92.8496 160.552 92.125C159.914 91.3958 159.595 90.4023 159.595 89.1445C159.595 87.8867 159.916 86.891 160.559 86.1572C161.201 85.4235 162.067 85.0566 163.156 85.0566C164.245 85.0566 165.111 85.4212 165.754 86.1504C166.396 86.8796 166.718 87.8776 166.718 89.1445C166.718 90.4115 166.396 91.4072 165.754 92.1318C165.116 92.8519 164.25 93.2119 163.156 93.2119ZM163.156 86.082C162.413 86.082 161.841 86.3441 161.44 86.8682C161.039 87.3923 160.839 88.151 160.839 89.1445C160.839 90.1243 161.039 90.8763 161.44 91.4004C161.841 91.9245 162.413 92.1865 163.156 92.1865C163.899 92.1865 164.471 91.9245 164.872 91.4004C165.273 90.8763 165.474 90.1243 165.474 89.1445C165.474 87.1029 164.701 86.082 163.156 86.082ZM169.678 92.5557V95.8506H168.475V85.2754H169.678V86.1299C170.557 85.4144 171.412 85.0566 172.241 85.0566C173.153 85.0566 173.877 85.4121 174.415 86.123C174.953 86.8294 175.222 87.8024 175.222 89.042C175.222 90.2588 174.896 91.2477 174.244 92.0088C173.592 92.7699 172.786 93.1504 171.824 93.1504C171.09 93.1504 170.375 92.9521 169.678 92.5557ZM169.678 87.1074V91.6191C170.361 91.9245 170.995 92.0771 171.578 92.0771C172.33 92.0771 172.918 91.8174 173.342 91.2979C173.766 90.7738 173.978 90.0355 173.978 89.083C173.978 87.1553 173.283 86.1914 171.893 86.1914C171.154 86.1914 170.416 86.4967 169.678 87.1074ZM179.433 93.1504C177.838 93.1504 177.04 92.2731 177.04 90.5186V86.2598H176.158V85.2754H177.047V83.0537H178.243V85.2754H180.95V86.2598H178.243V89.835C178.243 90.6462 178.298 91.1725 178.407 91.4141C178.521 91.651 178.692 91.8265 178.92 91.9404C179.148 92.0498 179.439 92.1045 179.795 92.1045C180.132 92.1045 180.504 92.0225 180.909 91.8584H180.95V92.9521C180.408 93.0843 179.902 93.1504 179.433 93.1504ZM183.589 83.7305H182.229V82.4795H183.589V83.7305ZM183.514 93H182.311V85.2754H183.514V93ZM188.846 93.2119C187.747 93.2119 186.879 92.8496 186.241 92.125C185.603 91.3958 185.284 90.4023 185.284 89.1445C185.284 87.8867 185.605 86.891 186.248 86.1572C186.891 85.4235 187.757 85.0566 188.846 85.0566C189.935 85.0566 190.801 85.4212 191.443 86.1504C192.086 86.8796 192.407 87.8776 192.407 89.1445C192.407 90.4115 192.086 91.4072 191.443 92.1318C190.805 92.8519 189.939 93.2119 188.846 93.2119ZM188.846 86.082C188.103 86.082 187.531 86.3441 187.13 86.8682C186.729 87.3923 186.528 88.151 186.528 89.1445C186.528 90.1243 186.729 90.8763 187.13 91.4004C187.531 91.9245 188.103 92.1865 188.846 92.1865C189.589 92.1865 190.16 91.9245 190.562 91.4004C190.963 90.8763 191.163 90.1243 191.163 89.1445C191.163 87.1029 190.391 86.082 188.846 86.082ZM200.549 93H199.346V88.6729C199.346 87.6702 199.214 87.0072 198.949 86.6836C198.685 86.3555 198.25 86.1914 197.644 86.1914C196.928 86.1914 196.169 86.5241 195.367 87.1895V93H194.164V85.2754H195.367V86.2051C196.274 85.4395 197.17 85.0566 198.054 85.0566C198.851 85.0566 199.466 85.3073 199.899 85.8086C200.332 86.3053 200.549 87.0254 200.549 87.9688V93Z" fill="#333333"/>
<rect x="113" y="73" width="103" height="31" rx="1" stroke="#282828" stroke-width="2"/>
<line x1="139" y1="99" x2="139" y2="128" stroke="#282828" stroke-width="2"/>
<line x1="123" y1="51" x2="123" y2="74" stroke="#282828" stroke-width="2"/>
<path d="M94 128C94 126.895 94.8954 126 96 126H181C182.105 126 183 126.895 183 128V148C183 149.105 182.105 150 181 150H96C94.8954 150 94 149.105 94 148V128Z" fill="#282828"/>
<path d="M108.125 140.556C107.568 140.811 107.126 140.971 106.798 141.035C106.47 141.1 106.153 141.132 105.849 141.132C104.835 141.132 104.037 140.83 103.454 140.227C102.871 139.623 102.579 138.781 102.579 137.7C102.579 136.639 102.874 135.8 103.462 135.182C104.054 134.561 104.851 134.25 105.853 134.25C106.629 134.25 107.387 134.436 108.125 134.808V136.166H107.971C107.283 135.58 106.631 135.287 106.016 135.287C105.427 135.287 104.961 135.498 104.618 135.92C104.275 136.339 104.104 136.934 104.104 137.704C104.104 138.469 104.278 139.059 104.627 139.475C104.976 139.888 105.441 140.095 106.024 140.095C106.329 140.095 106.626 140.042 106.917 139.937C107.207 139.828 107.562 139.589 107.984 139.22H108.125V140.556ZM113.873 141H112.515V138.464C112.515 137.755 112.436 137.316 112.278 137.146C112.123 136.973 111.869 136.887 111.518 136.887C111.225 136.887 110.872 137.017 110.458 137.278V141H109.109V134.083H110.458V136.623C110.88 136.277 111.217 136.049 111.469 135.938C111.724 135.826 111.989 135.771 112.265 135.771C113.337 135.771 113.873 136.399 113.873 137.656V141ZM119.819 138.667H116.211C116.27 139.686 116.848 140.196 117.947 140.196C118.521 140.196 119.098 139.988 119.678 139.572H119.727V140.741C119.038 141.004 118.391 141.136 117.784 141.136C116.829 141.136 116.101 140.909 115.6 140.455C115.099 140.001 114.849 139.346 114.849 138.491C114.849 137.641 115.086 136.973 115.561 136.487C116.035 135.998 116.69 135.753 117.525 135.753C119.054 135.753 119.819 136.566 119.819 138.192V138.667ZM118.47 137.902C118.458 137.026 118.102 136.588 117.402 136.588C116.658 136.588 116.261 137.026 116.211 137.902H118.47ZM124.802 140.75C124.234 141.007 123.72 141.136 123.26 141.136C122.369 141.136 121.675 140.906 121.177 140.446C120.679 139.986 120.43 139.33 120.43 138.478C120.43 137.619 120.682 136.954 121.186 136.482C121.689 136.008 122.363 135.771 123.207 135.771C123.758 135.771 124.29 135.901 124.802 136.162V137.401H124.732C124.234 136.956 123.743 136.733 123.26 136.733C122.812 136.733 122.463 136.887 122.214 137.194C121.965 137.502 121.84 137.93 121.84 138.478C121.84 139.025 121.965 139.446 122.214 139.739C122.466 140.029 122.822 140.174 123.282 140.174C123.771 140.174 124.254 139.951 124.732 139.506H124.802V140.75ZM130.691 141H129.091L127.663 138.781L127.079 139.501V141H125.738V134.083H127.087V138.381L129.003 135.911H130.555L128.753 138.108L130.691 141ZM132.726 140.64L132.638 141H131.372V134.083H132.721V136.592C133.114 136.261 133.433 136.042 133.679 135.933C133.928 135.825 134.19 135.771 134.466 135.771C135.063 135.771 135.525 136 135.85 136.46C136.178 136.92 136.342 137.566 136.342 138.398C136.342 139.213 136.134 139.874 135.718 140.38C135.302 140.887 134.784 141.141 134.163 141.141C133.717 141.141 133.238 140.974 132.726 140.64ZM132.721 137.172V139.994C133.02 140.105 133.294 140.161 133.543 140.161C134.478 140.161 134.945 139.585 134.945 138.434C134.945 137.353 134.554 136.812 133.771 136.812C133.452 136.812 133.102 136.932 132.721 137.172ZM139.59 141.158C138.764 141.158 138.122 140.921 137.665 140.446C137.208 139.969 136.979 139.307 136.979 138.46C136.979 137.61 137.209 136.947 137.669 136.469C138.132 135.992 138.772 135.753 139.59 135.753C140.413 135.753 141.053 135.992 141.51 136.469C141.97 136.947 142.2 137.61 142.2 138.46C142.2 139.307 141.97 139.969 141.51 140.446C141.053 140.921 140.413 141.158 139.59 141.158ZM139.59 136.693C138.79 136.693 138.39 137.287 138.39 138.473C138.39 139.636 138.796 140.218 139.607 140.218C140.396 140.218 140.79 139.636 140.79 138.473C140.79 137.287 140.39 136.693 139.59 136.693ZM148.08 141H146.476L145.285 139.317L144.077 141H142.556L144.503 138.46L142.583 135.911H144.182L145.355 137.563L146.538 135.911H148.062L146.129 138.42L148.08 141ZM152.303 141H148.691V140.011H149.772V135.366H148.691V134.377H152.303V135.366H151.222V140.011H152.303V141ZM158.17 141H156.812V138.464C156.812 137.755 156.733 137.316 156.575 137.146C156.419 136.973 156.166 136.887 155.814 136.887C155.521 136.887 155.168 137.017 154.755 137.278V141H153.406V135.911H154.755V136.623C155.177 136.277 155.514 136.049 155.766 135.938C156.021 135.826 156.286 135.771 156.562 135.771C157.634 135.771 158.17 136.399 158.17 137.656V141ZM160.881 140.64V142.833H159.532V135.911H160.881V136.592C161.274 136.261 161.593 136.042 161.839 135.933C162.088 135.825 162.351 135.771 162.626 135.771C163.221 135.771 163.682 135.999 164.01 136.456C164.338 136.913 164.502 137.552 164.502 138.372C164.502 139.178 164.294 139.831 163.878 140.332C163.462 140.83 162.944 141.079 162.323 141.079C161.889 141.079 161.409 140.933 160.881 140.64ZM160.881 137.172V139.976C161.122 140.076 161.396 140.125 161.703 140.125C162.638 140.125 163.105 139.559 163.105 138.425C163.105 137.35 162.714 136.812 161.932 136.812C161.612 136.812 161.262 136.932 160.881 137.172ZM170.25 141H168.901V140.288C168.491 140.622 168.157 140.848 167.899 140.965C167.642 141.082 167.374 141.141 167.095 141.141C166.023 141.141 165.487 140.512 165.487 139.255V135.911H166.845V138.447C166.845 139.156 166.922 139.597 167.078 139.77C167.233 139.942 167.486 140.029 167.838 140.029C168.14 140.029 168.494 139.897 168.901 139.633V135.911H170.25V141ZM174.654 140.969C174.293 141.057 173.908 141.101 173.498 141.101C172.892 141.101 172.448 140.972 172.167 140.714C171.885 140.454 171.745 140.033 171.745 139.453V136.803H171.077V135.911H171.749V134.483H173.094V135.911H174.654V136.803H173.094V138.899C173.094 139.438 173.163 139.79 173.3 139.954C173.438 140.118 173.669 140.2 173.995 140.2C174.203 140.2 174.409 140.149 174.614 140.046H174.654V140.969Z" fill="white"/>
<path d="M35 33C35 31.8954 35.8954 31 37 31H142C143.105 31 144 31.8954 144 33V53C144 54.1046 143.105 55 142 55H37C35.8954 55 35 54.1046 35 53V33Z" fill="#282828"/>
<path d="M49.2373 45.5562C48.6807 45.811 48.2383 45.9707 47.9102 46.0352C47.582 46.0996 47.2656 46.1318 46.9609 46.1318C45.9473 46.1318 45.1489 45.8301 44.5659 45.2266C43.9829 44.623 43.6914 43.7808 43.6914 42.6997C43.6914 41.6392 43.9858 40.7998 44.5747 40.1816C45.1665 39.5605 45.9634 39.25 46.9653 39.25C47.7417 39.25 48.499 39.436 49.2373 39.8081V41.166H49.0835C48.395 40.5801 47.7432 40.2871 47.1279 40.2871C46.5391 40.2871 46.0732 40.498 45.7305 40.9199C45.3877 41.3389 45.2163 41.9336 45.2163 42.7041C45.2163 43.4688 45.3906 44.0591 45.7393 44.4751C46.0879 44.8882 46.5537 45.0947 47.1367 45.0947C47.4414 45.0947 47.7388 45.042 48.0288 44.9365C48.3188 44.8281 48.6748 44.5894 49.0967 44.2202H49.2373V45.5562ZM54.9854 46H53.6274V43.4644C53.6274 42.7554 53.5483 42.3159 53.3901 42.146C53.2349 41.9731 52.9814 41.8867 52.6299 41.8867C52.3369 41.8867 51.9839 42.0171 51.5708 42.2778V46H50.2217V39.083H51.5708V41.623C51.9927 41.2773 52.3296 41.0488 52.5815 40.9375C52.8364 40.8262 53.1016 40.7705 53.377 40.7705C54.4492 40.7705 54.9854 41.3989 54.9854 42.6558V46ZM60.9312 43.6665H57.3232C57.3818 44.686 57.9604 45.1958 59.0591 45.1958C59.6333 45.1958 60.2104 44.9878 60.7905 44.5718H60.8389V45.7407C60.1504 46.0044 59.5029 46.1362 58.8965 46.1362C57.9414 46.1362 57.2134 45.9092 56.7124 45.4551C56.2114 45.001 55.9609 44.3462 55.9609 43.4907C55.9609 42.6411 56.1982 41.9731 56.6729 41.4868C57.1475 40.9976 57.8022 40.7529 58.6372 40.7529C60.1665 40.7529 60.9312 41.5659 60.9312 43.1919V43.6665ZM59.582 42.9019C59.5703 42.0259 59.2144 41.5879 58.5142 41.5879C57.77 41.5879 57.373 42.0259 57.3232 42.9019H59.582ZM65.9146 45.7495C65.3462 46.0073 64.832 46.1362 64.3721 46.1362C63.4814 46.1362 62.7871 45.9062 62.2891 45.4463C61.791 44.9863 61.542 44.3301 61.542 43.4775C61.542 42.6191 61.7939 41.9541 62.2979 41.4824C62.8018 41.0078 63.4756 40.7705 64.3193 40.7705C64.8701 40.7705 65.4019 40.9009 65.9146 41.1616V42.4009H65.8442C65.3462 41.9556 64.8555 41.7329 64.3721 41.7329C63.9238 41.7329 63.5752 41.8867 63.3262 42.1943C63.0771 42.502 62.9526 42.9297 62.9526 43.4775C62.9526 44.0254 63.0771 44.4458 63.3262 44.7388C63.5781 45.0288 63.9341 45.1738 64.394 45.1738C64.8833 45.1738 65.3667 44.9512 65.8442 44.5059H65.9146V45.7495ZM71.8032 46H70.2036L68.7754 43.7808L68.1909 44.5015V46H66.8506V39.083H68.1997V43.3809L70.1157 40.9111H71.667L69.8652 43.1084L71.8032 46ZM73.8379 45.6396L73.75 46H72.4844V39.083H73.8335V41.5923C74.2261 41.2612 74.5454 41.0415 74.7915 40.9331C75.0405 40.8247 75.3027 40.7705 75.5781 40.7705C76.1758 40.7705 76.6372 41.0005 76.9624 41.4604C77.2905 41.9204 77.4546 42.5664 77.4546 43.3984C77.4546 44.2129 77.2466 44.8735 76.8306 45.3804C76.4146 45.8872 75.896 46.1406 75.2749 46.1406C74.8296 46.1406 74.3506 45.9736 73.8379 45.6396ZM73.8335 42.1724V44.9937C74.1323 45.105 74.4062 45.1606 74.6553 45.1606C75.5898 45.1606 76.0571 44.585 76.0571 43.4336C76.0571 42.3525 75.666 41.812 74.8838 41.812C74.5645 41.812 74.2144 41.9321 73.8335 42.1724ZM80.7021 46.1582C79.876 46.1582 79.2344 45.9209 78.7773 45.4463C78.3203 44.9688 78.0918 44.3066 78.0918 43.46C78.0918 42.6104 78.3218 41.9468 78.7817 41.4692C79.2446 40.9917 79.8848 40.7529 80.7021 40.7529C81.5254 40.7529 82.1655 40.9917 82.6226 41.4692C83.0825 41.9468 83.3125 42.6104 83.3125 43.46C83.3125 44.3066 83.0825 44.9688 82.6226 45.4463C82.1655 45.9209 81.5254 46.1582 80.7021 46.1582ZM80.7021 41.6934C79.9023 41.6934 79.5024 42.2866 79.5024 43.4731C79.5024 44.6362 79.9082 45.2178 80.7197 45.2178C81.5078 45.2178 81.9019 44.6362 81.9019 43.4731C81.9019 42.2866 81.502 41.6934 80.7021 41.6934ZM89.1924 46H87.5884L86.3975 44.3169L85.189 46H83.6685L85.6152 43.46L83.6948 40.9111H85.2944L86.4678 42.5635L87.6499 40.9111H89.1748L87.2412 43.4204L89.1924 46ZM95.2305 45.5562C94.6738 45.811 94.2314 45.9707 93.9033 46.0352C93.5752 46.0996 93.2588 46.1318 92.9541 46.1318C91.9404 46.1318 91.1421 45.8301 90.5591 45.2266C89.9761 44.623 89.6846 43.7808 89.6846 42.6997C89.6846 41.6392 89.979 40.7998 90.5679 40.1816C91.1597 39.5605 91.9565 39.25 92.9585 39.25C93.7349 39.25 94.4922 39.436 95.2305 39.8081V41.166H95.0767C94.3882 40.5801 93.7363 40.2871 93.1211 40.2871C92.5322 40.2871 92.0664 40.498 91.7236 40.9199C91.3809 41.3389 91.2095 41.9336 91.2095 42.7041C91.2095 43.4688 91.3838 44.0591 91.7324 44.4751C92.0811 44.8882 92.5469 45.0947 93.1299 45.0947C93.4346 45.0947 93.7319 45.042 94.022 44.9365C94.312 44.8281 94.668 44.5894 95.0898 44.2202H95.2305V45.5562ZM98.4385 46.1582C97.6123 46.1582 96.9707 45.9209 96.5137 45.4463C96.0566 44.9688 95.8281 44.3066 95.8281 43.46C95.8281 42.6104 96.0581 41.9468 96.5181 41.4692C96.981 40.9917 97.6211 40.7529 98.4385 40.7529C99.2617 40.7529 99.9019 40.9917 100.359 41.4692C100.819 41.9468 101.049 42.6104 101.049 43.46C101.049 44.3066 100.819 44.9688 100.359 45.4463C99.9019 45.9209 99.2617 46.1582 98.4385 46.1582ZM98.4385 41.6934C97.6387 41.6934 97.2388 42.2866 97.2388 43.4731C97.2388 44.6362 97.6445 45.2178 98.4561 45.2178C99.2441 45.2178 99.6382 44.6362 99.6382 43.4731C99.6382 42.2866 99.2383 41.6934 98.4385 41.6934ZM106.823 46H105.465V43.4644C105.465 42.7554 105.386 42.3159 105.228 42.146C105.073 41.9731 104.819 41.8867 104.468 41.8867C104.175 41.8867 103.822 42.0171 103.409 42.2778V46H102.06V40.9111H103.409V41.623C103.831 41.2773 104.167 41.0488 104.419 40.9375C104.674 40.8262 104.939 40.7705 105.215 40.7705C106.287 40.7705 106.823 41.3989 106.823 42.6558V46ZM111.187 45.9692C110.827 46.0571 110.441 46.1011 110.031 46.1011C109.425 46.1011 108.981 45.9722 108.7 45.7144C108.418 45.4536 108.278 45.0332 108.278 44.4531V41.8032H107.61V40.9111H108.282V39.4829H109.627V40.9111H111.187V41.8032H109.627V43.8994C109.627 44.4385 109.696 44.79 109.833 44.9541C109.971 45.1182 110.203 45.2002 110.528 45.2002C110.736 45.2002 110.942 45.1489 111.147 45.0464H111.187V45.9692ZM116.333 46H114.993V45.3364C114.58 45.6909 114.244 45.9121 113.986 46C113.731 46.0908 113.459 46.1362 113.169 46.1362C112.724 46.1362 112.354 45.9927 112.062 45.7056C111.769 45.4155 111.622 45.0435 111.622 44.5894C111.622 44.0151 111.837 43.5801 112.268 43.2842C112.702 42.9883 113.614 42.8037 115.006 42.7305V42.5942C115.006 42.2749 114.896 42.0435 114.676 41.8999C114.457 41.7563 114.093 41.6846 113.586 41.6846C113.241 41.6846 112.746 41.8164 112.101 42.0801H112.053V41.0122C112.732 40.8481 113.348 40.7661 113.898 40.7661C114.757 40.7661 115.376 40.9053 115.757 41.1836C116.141 41.459 116.333 41.8984 116.333 42.502V46ZM114.993 44.7607V43.4775C114.108 43.5508 113.554 43.665 113.332 43.8203C113.109 43.9727 112.998 44.1851 112.998 44.4575C112.998 44.7476 113.075 44.9497 113.23 45.064C113.386 45.1782 113.629 45.2354 113.96 45.2354C114.309 45.2354 114.653 45.0771 114.993 44.7607ZM119.084 40.2739H117.638V39.083H119.084V40.2739ZM119.036 46H117.687V40.9111H119.036V46ZM125.201 46H123.843V43.4644C123.843 42.7554 123.764 42.3159 123.606 42.146C123.451 41.9731 123.197 41.8867 122.846 41.8867C122.553 41.8867 122.2 42.0171 121.787 42.2778V46H120.438V40.9111H121.787V41.623C122.208 41.2773 122.545 41.0488 122.797 40.9375C123.052 40.8262 123.317 40.7705 123.593 40.7705C124.665 40.7705 125.201 41.3989 125.201 42.6558V46ZM131.147 43.6665H127.539C127.598 44.686 128.176 45.1958 129.275 45.1958C129.849 45.1958 130.426 44.9878 131.006 44.5718H131.055V45.7407C130.366 46.0044 129.719 46.1362 129.112 46.1362C128.157 46.1362 127.429 45.9092 126.928 45.4551C126.427 45.001 126.177 44.3462 126.177 43.4907C126.177 42.6411 126.414 41.9731 126.889 41.4868C127.363 40.9976 128.018 40.7529 128.853 40.7529C130.382 40.7529 131.147 41.5659 131.147 43.1919V43.6665ZM129.798 42.9019C129.786 42.0259 129.43 41.5879 128.73 41.5879C127.986 41.5879 127.589 42.0259 127.539 42.9019H129.798ZM135.585 42.2866H135.542C135.36 42.2397 135.117 42.2163 134.812 42.2163C134.334 42.2163 133.895 42.2925 133.494 42.4448V46H132.145V40.9111H133.494V41.834C133.907 41.4619 134.247 41.2129 134.513 41.0869C134.78 40.958 135.042 40.8936 135.3 40.8936C135.367 40.8936 135.462 40.8965 135.585 40.9023V42.2866Z" fill="white"/>
<line x1="205" y1="89" x2="236" y2="89" stroke="#282828" stroke-width="2" stroke-linecap="square"/>
<path d="M233 78C233 76.8954 233.895 76 235 76H319C320.105 76 321 76.8954 321 78V98C321 99.1046 320.105 100 319 100H235C233.895 100 233 99.1046 233 98V78Z" fill="#282828"/>
<path d="M247.201 90.5562C246.644 90.811 246.202 90.9707 245.874 91.0352C245.545 91.0996 245.229 91.1318 244.924 91.1318C243.911 91.1318 243.112 90.8301 242.529 90.2266C241.946 89.623 241.655 88.7808 241.655 87.6997C241.655 86.6392 241.949 85.7998 242.538 85.1816C243.13 84.5605 243.927 84.25 244.929 84.25C245.705 84.25 246.462 84.436 247.201 84.8081V86.166H247.047C246.358 85.5801 245.707 85.2871 245.091 85.2871C244.502 85.2871 244.037 85.498 243.694 85.9199C243.351 86.3389 243.18 86.9336 243.18 87.7041C243.18 88.4688 243.354 89.0591 243.703 89.4751C244.051 89.8882 244.517 90.0947 245.1 90.0947C245.405 90.0947 245.702 90.042 245.992 89.9365C246.282 89.8281 246.638 89.5894 247.06 89.2202H247.201V90.5562ZM252.949 91H251.591V88.4644C251.591 87.7554 251.512 87.3159 251.354 87.146C251.198 86.9731 250.945 86.8867 250.593 86.8867C250.3 86.8867 249.947 87.0171 249.534 87.2778V91H248.185V84.083H249.534V86.623C249.956 86.2773 250.293 86.0488 250.545 85.9375C250.8 85.8262 251.065 85.7705 251.34 85.7705C252.413 85.7705 252.949 86.3989 252.949 87.6558V91ZM258.895 88.6665H255.287C255.345 89.686 255.924 90.1958 257.022 90.1958C257.597 90.1958 258.174 89.9878 258.754 89.5718H258.802V90.7407C258.114 91.0044 257.466 91.1362 256.86 91.1362C255.905 91.1362 255.177 90.9092 254.676 90.4551C254.175 90.001 253.924 89.3462 253.924 88.4907C253.924 87.6411 254.162 86.9731 254.636 86.4868C255.111 85.9976 255.766 85.7529 256.601 85.7529C258.13 85.7529 258.895 86.5659 258.895 88.1919V88.6665ZM257.545 87.9019C257.534 87.0259 257.178 86.5879 256.478 86.5879C255.733 86.5879 255.336 87.0259 255.287 87.9019H257.545ZM263.878 90.7495C263.31 91.0073 262.795 91.1362 262.335 91.1362C261.445 91.1362 260.75 90.9062 260.252 90.4463C259.754 89.9863 259.505 89.3301 259.505 88.4775C259.505 87.6191 259.757 86.9541 260.261 86.4824C260.765 86.0078 261.439 85.7705 262.283 85.7705C262.833 85.7705 263.365 85.9009 263.878 86.1616V87.4009H263.808C263.31 86.9556 262.819 86.7329 262.335 86.7329C261.887 86.7329 261.539 86.8867 261.29 87.1943C261.041 87.502 260.916 87.9297 260.916 88.4775C260.916 89.0254 261.041 89.4458 261.29 89.7388C261.542 90.0288 261.897 90.1738 262.357 90.1738C262.847 90.1738 263.33 89.9512 263.808 89.5059H263.878V90.7495ZM269.767 91H268.167L266.739 88.7808L266.154 89.5015V91H264.814V84.083H266.163V88.3809L268.079 85.9111H269.63L267.829 88.1084L269.767 91ZM271.801 90.6396L271.713 91H270.448V84.083H271.797V86.5923C272.189 86.2612 272.509 86.0415 272.755 85.9331C273.004 85.8247 273.266 85.7705 273.542 85.7705C274.139 85.7705 274.601 86.0005 274.926 86.4604C275.254 86.9204 275.418 87.5664 275.418 88.3984C275.418 89.2129 275.21 89.8735 274.794 90.3804C274.378 90.8872 273.859 91.1406 273.238 91.1406C272.793 91.1406 272.314 90.9736 271.801 90.6396ZM271.797 87.1724V89.9937C272.096 90.105 272.37 90.1606 272.619 90.1606C273.553 90.1606 274.021 89.585 274.021 88.4336C274.021 87.3525 273.629 86.812 272.847 86.812C272.528 86.812 272.178 86.9321 271.797 87.1724ZM278.666 91.1582C277.839 91.1582 277.198 90.9209 276.741 90.4463C276.284 89.9688 276.055 89.3066 276.055 88.46C276.055 87.6104 276.285 86.9468 276.745 86.4692C277.208 85.9917 277.848 85.7529 278.666 85.7529C279.489 85.7529 280.129 85.9917 280.586 86.4692C281.046 86.9468 281.276 87.6104 281.276 88.46C281.276 89.3066 281.046 89.9688 280.586 90.4463C280.129 90.9209 279.489 91.1582 278.666 91.1582ZM278.666 86.6934C277.866 86.6934 277.466 87.2866 277.466 88.4731C277.466 89.6362 277.872 90.2178 278.683 90.2178C279.471 90.2178 279.865 89.6362 279.865 88.4731C279.865 87.2866 279.465 86.6934 278.666 86.6934ZM287.156 91H285.552L284.361 89.3169L283.152 91H281.632L283.579 88.46L281.658 85.9111H283.258L284.431 87.5635L285.613 85.9111H287.138L285.205 88.4204L287.156 91ZM292.667 91H288.07V84.3774H289.52V89.9014H292.667V91ZM297.729 91H296.389V90.3364C295.976 90.6909 295.64 90.9121 295.382 91C295.127 91.0908 294.855 91.1362 294.565 91.1362C294.12 91.1362 293.75 90.9927 293.458 90.7056C293.165 90.4155 293.018 90.0435 293.018 89.5894C293.018 89.0151 293.233 88.5801 293.664 88.2842C294.098 87.9883 295.01 87.8037 296.402 87.7305V87.5942C296.402 87.2749 296.292 87.0435 296.072 86.8999C295.853 86.7563 295.489 86.6846 294.982 86.6846C294.637 86.6846 294.142 86.8164 293.497 87.0801H293.449V86.0122C294.128 85.8481 294.744 85.7661 295.294 85.7661C296.153 85.7661 296.772 85.9053 297.153 86.1836C297.537 86.459 297.729 86.8984 297.729 87.502V91ZM296.389 89.7607V88.4775C295.504 88.5508 294.95 88.665 294.728 88.8203C294.505 88.9727 294.394 89.1851 294.394 89.4575C294.394 89.7476 294.471 89.9497 294.626 90.064C294.782 90.1782 295.025 90.2354 295.356 90.2354C295.705 90.2354 296.049 90.0771 296.389 89.7607ZM300.436 90.6396L300.348 91H299.083V84.083H300.432V86.5923C300.824 86.2612 301.144 86.0415 301.39 85.9331C301.639 85.8247 301.901 85.7705 302.176 85.7705C302.774 85.7705 303.235 86.0005 303.561 86.4604C303.889 86.9204 304.053 87.5664 304.053 88.3984C304.053 89.2129 303.845 89.8735 303.429 90.3804C303.013 90.8872 302.494 91.1406 301.873 91.1406C301.428 91.1406 300.949 90.9736 300.436 90.6396ZM300.432 87.1724V89.9937C300.73 90.105 301.004 90.1606 301.253 90.1606C302.188 90.1606 302.655 89.585 302.655 88.4336C302.655 87.3525 302.264 86.812 301.482 86.812C301.163 86.812 300.812 86.9321 300.432 87.1724ZM309.66 88.6665H306.052C306.111 89.686 306.689 90.1958 307.788 90.1958C308.362 90.1958 308.939 89.9878 309.52 89.5718H309.568V90.7407C308.879 91.0044 308.232 91.1362 307.625 91.1362C306.67 91.1362 305.942 90.9092 305.441 90.4551C304.94 90.001 304.69 89.3462 304.69 88.4907C304.69 87.6411 304.927 86.9731 305.402 86.4868C305.876 85.9976 306.531 85.7529 307.366 85.7529C308.896 85.7529 309.66 86.5659 309.66 88.1919V88.6665ZM308.311 87.9019C308.299 87.0259 307.943 86.5879 307.243 86.5879C306.499 86.5879 306.102 87.0259 306.052 87.9019H308.311ZM312.007 91H310.658V84.083H312.007V91Z" fill="white"/>
</svg>
