<svg width="148" height="30" viewBox="0 0 148 30" fill="none" xmlns="http://www.w3.org/2000/svg">
<rect x="2" y="6" width="18" height="18" rx="1" fill="white" stroke="#3498DB" stroke-width="2"/>
<path fill-rule="evenodd" clip-rule="evenodd" d="M5.76191 15.4762L7.19048 13.5714L10.0476 15.9524L14.8095 10.7143L16.2381 12.1429L10.0476 18.8095L5.76191 15.4762Z" fill="#3498DB"/>
<path d="M39.0527 13.7637C39.0436 14.6797 38.957 15.4089 38.793 15.9512C38.6289 16.4935 38.3053 17.0335 37.8223 17.5713C37.3438 18.1045 36.749 18.5443 36.0381 18.8906C35.3271 19.237 34.5387 19.4922 33.6729 19.6562L33.2559 18.7471C33.8848 18.6331 34.4977 18.4463 35.0947 18.1865C35.6963 17.9268 36.234 17.5667 36.708 17.1064C37.182 16.6416 37.4941 16.1699 37.6445 15.6914C37.7995 15.2129 37.877 14.5703 37.877 13.7637H31.6426V12.7725H37.877V10.0039C36.6647 10.1452 35.0583 10.2546 33.0576 10.332L32.8867 9.38184C34.6595 9.34538 36.4232 9.20638 38.1777 8.96484C39.9323 8.72331 41.3291 8.41569 42.3682 8.04199L43.0518 8.9375C42.2087 9.25651 40.8757 9.55729 39.0527 9.83984L39.0459 12.7725H44.4531V13.7637H39.0527ZM57.168 19.2256H46.2988V18.3027H51.1865V12.1572H47.1533V11.2344H56.3271V12.1572H52.3213V18.3027H57.168V19.2256ZM66.8271 14.4541L65.7471 14.8164C65.4326 13.7044 64.8812 12.401 64.0928 10.9062L65.0498 10.5303C65.5648 11.4827 65.8861 12.1253 66.0137 12.458C66.1413 12.7861 66.4124 13.4515 66.8271 14.4541ZM70.6895 10.9678C70.3477 13.8115 69.4977 15.9079 68.1396 17.2568C66.7861 18.6058 64.9199 19.4443 62.541 19.7725L62.2334 18.8633C64.8311 18.4896 66.6631 17.5941 67.7295 16.1768C68.7959 14.7594 69.4089 12.9889 69.5684 10.8652L70.6895 10.9678ZM63.5049 15.1104L62.4316 15.459C62.0443 14.1921 61.4928 12.891 60.7773 11.5557L61.7275 11.2002C62.1195 11.8838 62.3975 12.4056 62.5615 12.7656C62.7256 13.1257 63.04 13.9072 63.5049 15.1104ZM80 7.9668C79.8678 8.39974 79.6787 8.86686 79.4326 9.36816H86.0635L86.0088 10.3184C85.9951 10.5918 85.8789 11.1227 85.6602 11.9111C85.5189 12.417 85.3434 12.9251 85.1338 13.4355C84.9287 13.946 84.6576 14.4746 84.3203 15.0215C83.9831 15.5684 83.5752 16.0833 83.0967 16.5664C82.6227 17.0495 82.069 17.4915 81.4355 17.8926C80.8021 18.2891 80.0684 18.6423 79.2344 18.9521C78.4049 19.262 77.5026 19.5127 76.5273 19.7041L76.124 18.7197C78.7536 18.2093 80.7542 17.2682 82.126 15.8965C83.5023 14.5247 84.3659 12.6813 84.7168 10.3662H78.8926C78.3548 11.2503 77.6872 12.0889 76.8896 12.8818C76.0967 13.6702 75.2673 14.3151 74.4014 14.8164L73.7588 14.0576C74.9665 13.292 76.0192 12.3167 76.917 11.1318C77.8148 9.94238 78.4232 8.83268 78.7422 7.80273L80 7.9668ZM94.6152 19.6016H93.4121V11.2002H87.7725V10.2227H93.4121V7.92578H94.6152V10.2227H100.118V11.2002H94.6152V19.6016ZM100.877 17.9404L99.9473 18.6787C99.209 17.986 98.5208 17.0677 97.8828 15.9238C97.2448 14.7799 96.7913 13.7523 96.5225 12.8408L97.6367 12.6016C98.2656 14.543 99.3457 16.3226 100.877 17.9404ZM91.5391 12.8818C90.8327 15.2607 89.6273 17.1885 87.9229 18.665L87.0957 18.0088C87.9844 17.1702 88.7021 16.2497 89.249 15.2471C89.8005 14.2399 90.1605 13.3809 90.3291 12.6699L91.5391 12.8818ZM100.385 8.89648L99.5986 9.21777C99.2887 8.49316 98.9629 7.86198 98.6211 7.32422L99.332 6.98926C99.7012 7.55892 100.052 8.19466 100.385 8.89648ZM98.3955 9.31348L97.6094 9.66211C97.2812 8.91927 96.9508 8.28125 96.6182 7.74805L97.3633 7.40625C97.7507 8.00326 98.0947 8.639 98.3955 9.31348ZM108.827 14.4541L107.747 14.8164C107.433 13.7044 106.881 12.401 106.093 10.9062L107.05 10.5303C107.565 11.4827 107.886 12.1253 108.014 12.458C108.141 12.7861 108.412 13.4515 108.827 14.4541ZM112.689 10.9678C112.348 13.8115 111.498 15.9079 110.14 17.2568C108.786 18.6058 106.92 19.4443 104.541 19.7725L104.233 18.8633C106.831 18.4896 108.663 17.5941 109.729 16.1768C110.796 14.7594 111.409 12.9889 111.568 10.8652L112.689 10.9678ZM105.505 15.1104L104.432 15.459C104.044 14.1921 103.493 12.891 102.777 11.5557L103.728 11.2002C104.119 11.8838 104.397 12.4056 104.562 12.7656C104.726 13.1257 105.04 13.9072 105.505 15.1104ZM122 7.9668C121.868 8.39974 121.679 8.86686 121.433 9.36816H128.063L128.009 10.3184C127.995 10.5918 127.879 11.1227 127.66 11.9111C127.519 12.417 127.343 12.9251 127.134 13.4355C126.929 13.946 126.658 14.4746 126.32 15.0215C125.983 15.5684 125.575 16.0833 125.097 16.5664C124.623 17.0495 124.069 17.4915 123.436 17.8926C122.802 18.2891 122.068 18.6423 121.234 18.9521C120.405 19.262 119.503 19.5127 118.527 19.7041L118.124 18.7197C120.754 18.2093 122.754 17.2682 124.126 15.8965C125.502 14.5247 126.366 12.6813 126.717 10.3662H120.893C120.355 11.2503 119.687 12.0889 118.89 12.8818C118.097 13.6702 117.267 14.3151 116.401 14.8164L115.759 14.0576C116.966 13.292 118.019 12.3167 118.917 11.1318C119.815 9.94238 120.423 8.83268 120.742 7.80273L122 7.9668ZM142.624 18.8906L141.653 19.6426C140.405 18.3574 138.698 16.8034 136.533 14.9805C134.268 17.1589 132.015 18.6947 129.772 19.5879L129.253 18.7197C131.131 17.9541 132.999 16.7419 134.858 15.083C136.722 13.4196 138.028 11.6035 138.775 9.63477H130.976V8.68457H140.006L140.286 8.9375C139.648 10.8698 138.625 12.6335 137.217 14.2285C138.611 15.3177 140.414 16.8717 142.624 18.8906Z" fill="#888888"/>
</svg>
