<svg width="408" height="260" viewBox="0 0 408 260" fill="none" xmlns="http://www.w3.org/2000/svg">
<rect width="408" height="260" fill="white"/>
<g filter="url(#filter0_d_362_615)">
<rect x="145" y="78" width="197" height="166" fill="white"/>
<rect x="145.5" y="78.5" width="196" height="165" stroke="#E3E7E8"/>
</g>
<rect x="146" y="116" width="195" height="30" fill="white"/>
<path d="M170.508 134.651V132.848H170.584C171.46 133.555 172.382 133.908 173.352 133.908C174.333 133.908 174.824 133.642 174.824 133.108C174.824 132.893 174.748 132.73 174.596 132.62C174.443 132.505 174.168 132.404 173.771 132.315C173.495 132.264 173.104 132.182 172.596 132.067C172.088 131.953 171.688 131.794 171.396 131.591C171.109 131.388 170.895 131.143 170.755 130.855C170.616 130.567 170.546 130.235 170.546 129.858C170.546 129.143 170.857 128.563 171.479 128.119C172.101 127.671 172.937 127.446 173.986 127.446C174.913 127.446 175.749 127.609 176.494 127.935V129.649H176.443C175.592 129.044 174.769 128.741 173.974 128.741C173.563 128.741 173.22 128.817 172.945 128.97C172.67 129.122 172.533 129.312 172.533 129.541C172.533 129.799 172.617 129.987 172.787 130.106C172.96 130.22 173.248 130.324 173.65 130.417C174.162 130.51 174.672 130.622 175.18 130.753C175.688 130.885 176.087 131.117 176.379 131.452C176.671 131.782 176.817 132.209 176.817 132.734C176.817 133.483 176.5 134.082 175.865 134.53C175.235 134.979 174.382 135.203 173.307 135.203C172.241 135.203 171.308 135.019 170.508 134.651ZM184.39 135H182.454V134.042C181.857 134.554 181.373 134.873 181 135C180.632 135.131 180.239 135.197 179.82 135.197C179.177 135.197 178.643 134.989 178.22 134.575C177.797 134.156 177.585 133.618 177.585 132.962C177.585 132.133 177.896 131.505 178.519 131.077C179.145 130.65 180.463 130.383 182.473 130.277V130.081C182.473 129.619 182.314 129.285 181.997 129.078C181.68 128.87 181.155 128.767 180.423 128.767C179.924 128.767 179.208 128.957 178.277 129.338H178.208V127.795C179.189 127.558 180.078 127.44 180.874 127.44C182.113 127.44 183.008 127.641 183.559 128.043C184.113 128.441 184.39 129.076 184.39 129.947V135ZM182.454 133.21V131.356C181.176 131.462 180.376 131.627 180.055 131.852C179.733 132.072 179.572 132.378 179.572 132.772C179.572 133.191 179.684 133.483 179.909 133.648C180.133 133.813 180.484 133.896 180.962 133.896C181.466 133.896 181.963 133.667 182.454 133.21ZM197.727 135H195.765V131.312C195.765 130.821 195.742 130.392 195.695 130.023C195.653 129.651 195.524 129.397 195.308 129.262C195.097 129.126 194.802 129.059 194.426 129.059C194.091 129.059 193.62 129.245 193.01 129.617V135H191.049V131.312C191.049 130.796 191.023 130.36 190.973 130.004C190.922 129.645 190.789 129.397 190.573 129.262C190.361 129.126 190.071 129.059 189.703 129.059C189.352 129.059 188.882 129.247 188.294 129.624V135H186.345V127.649H188.294V128.678C188.937 128.149 189.424 127.812 189.754 127.668C190.088 127.52 190.433 127.446 190.789 127.446C191.711 127.446 192.392 127.916 192.833 128.855C193.455 128.314 193.962 127.944 194.356 127.745C194.75 127.546 195.135 127.446 195.511 127.446C196.988 127.446 197.727 128.354 197.727 130.169V135ZM201.637 134.479V137.647H199.688V127.649H201.637V128.633C202.204 128.155 202.665 127.838 203.021 127.681C203.38 127.525 203.759 127.446 204.157 127.446C205.016 127.446 205.682 127.776 206.156 128.437C206.63 129.097 206.867 130.019 206.867 131.204C206.867 132.368 206.567 133.312 205.966 134.035C205.365 134.755 204.616 135.114 203.719 135.114C203.092 135.114 202.398 134.903 201.637 134.479ZM201.637 129.471V133.521C201.984 133.665 202.379 133.737 202.824 133.737C204.174 133.737 204.849 132.918 204.849 131.28C204.849 129.727 204.284 128.951 203.154 128.951C202.693 128.951 202.187 129.124 201.637 129.471ZM210.295 135H208.346V125.009H210.295V135ZM218.94 131.629H213.729C213.814 133.102 214.649 133.838 216.236 133.838C217.066 133.838 217.899 133.538 218.737 132.937H218.807V134.625C217.813 135.006 216.877 135.197 216.001 135.197C214.622 135.197 213.57 134.869 212.847 134.213C212.123 133.557 211.761 132.611 211.761 131.375C211.761 130.148 212.104 129.183 212.79 128.481C213.475 127.774 214.421 127.421 215.627 127.421C217.836 127.421 218.94 128.595 218.94 130.944V131.629ZM216.992 130.525C216.975 129.26 216.461 128.627 215.449 128.627C214.374 128.627 213.801 129.26 213.729 130.525H216.992ZM227.072 135H220.984V133.604H223.035V128.068H220.984V126.786C221.797 126.778 222.37 126.666 222.705 126.45C223.043 126.23 223.24 125.885 223.295 125.415H225.066V133.604H227.072V135Z" fill="#3498DB"/>
<path fill-rule="evenodd" clip-rule="evenodd" d="M152 131L153.5 129L156.5 131.5L161.5 126L163 127.5L156.5 134.5L152 131Z" fill="#3498DB"/>
<rect x="146" y="86" width="195" height="31" fill="white"/>
<path d="M183.194 106.92H181.943C180.471 105.152 179.734 103.18 179.734 101.004C179.734 98.8462 180.471 96.8763 181.943 95.0947H183.194V95.1582C182.5 95.8014 181.935 96.5864 181.499 97.5132C180.983 98.6134 180.725 99.7772 180.725 101.004C180.725 102.24 180.983 103.41 181.499 104.515C181.935 105.441 182.5 106.226 183.194 106.87V106.92ZM186.349 98.0781C185.98 97.4095 185.473 96.6795 184.825 95.8882L185.631 95.3867C186.313 96.2288 186.848 96.944 187.237 97.5322L186.349 98.0781ZM194.175 99.7793V100.706H195.896V101.379H194.175V102.521H196.2V103.207H187.891V102.521H189.878V101.379H188.234V100.706H189.878V99.7793C189.357 99.7624 189.019 99.7412 188.862 99.7158C188.706 99.6862 188.562 99.6016 188.431 99.4619C188.299 99.318 188.234 99.1403 188.234 98.9287V97.2021H190.621V96.1421H188.208V95.5708H191.389V97.7227H188.989V98.6875C188.989 98.8822 189.049 99.0049 189.167 99.0557C189.29 99.1064 189.605 99.1318 190.113 99.1318C190.714 99.1318 191.05 99.0811 191.122 98.9795C191.194 98.8779 191.23 98.6388 191.23 98.2622L191.865 98.3193V98.9795C191.865 99.4619 191.596 99.7179 191.059 99.7476L190.805 99.7603V100.706H193.229V99.7412L193.045 99.7222C192.868 99.7052 192.707 99.6227 192.563 99.4746C192.423 99.3223 192.354 99.1403 192.354 98.9287V97.2021H194.861V96.1421H192.328V95.5708H195.616V97.7227H193.115V98.6875C193.115 98.8822 193.174 99.0049 193.293 99.0557C193.411 99.1064 193.742 99.1318 194.283 99.1318C194.901 99.1318 195.25 99.0895 195.331 99.0049C195.415 98.916 195.458 98.6685 195.458 98.2622L196.099 98.3193V98.9795C196.099 99.2165 196.033 99.3984 195.902 99.5254C195.775 99.6523 195.574 99.7264 195.299 99.7476C195.024 99.7687 194.681 99.7793 194.271 99.7793H194.175ZM190.805 102.521H193.229V101.379H190.805V102.521ZM188.488 105.2L188.151 104.578C189.061 104.248 189.857 103.84 190.538 103.353L191.135 103.886C190.851 104.106 190.43 104.352 189.872 104.623C189.317 104.893 188.856 105.086 188.488 105.2ZM195.407 105.238C194.56 104.976 193.72 104.529 192.887 103.899L193.483 103.353C194.097 103.802 194.901 104.214 195.896 104.591L195.407 105.238ZM196.587 106.527C195.648 106.535 193.93 106.54 191.433 106.54C189.969 106.54 188.873 106.419 188.145 106.178C187.421 105.941 186.916 105.57 186.628 105.067C185.925 105.786 185.231 106.313 184.546 106.647L184.203 105.797C184.44 105.691 184.764 105.505 185.174 105.238C185.589 104.967 185.887 104.747 186.069 104.578V100.693H184.387V99.9062H187.066V103.981C187.066 104.379 187.206 104.705 187.485 104.959C187.764 105.209 188.092 105.378 188.469 105.467C188.845 105.551 189.199 105.617 189.529 105.664C189.859 105.71 190.817 105.733 192.404 105.733C194.452 105.733 195.908 105.706 196.771 105.651L196.587 106.527ZM201.602 101.157C201.327 101.284 200.872 101.451 200.237 101.658V105.86C200.237 106.123 200.129 106.336 199.914 106.501C199.702 106.667 199.478 106.749 199.241 106.749H197.768L197.654 105.943H198.803C199.124 105.943 199.285 105.797 199.285 105.505V101.957C198.545 102.181 197.937 102.346 197.463 102.452L197.279 101.607C197.707 101.527 198.375 101.36 199.285 101.106V98.4082H197.692V97.6401H199.285V95.228H200.237V97.6401H201.513V98.4082H200.237V100.827C200.838 100.64 201.264 100.499 201.513 100.401L201.602 101.157ZM209.771 106.063L209.137 106.806C207.194 105.397 205.988 103.359 205.519 100.693H203.462C203.377 103.279 202.721 105.312 201.494 106.793L200.834 106.26C201.41 105.524 201.833 104.606 202.104 103.505C202.379 102.405 202.516 101.311 202.516 100.224V95.812H208.845V100.693H206.452C206.913 103.046 208.02 104.836 209.771 106.063ZM207.861 99.9634V96.5801H203.5V99.9634H207.861ZM222.054 101.557C221.576 103.249 220.871 104.493 219.94 105.289C219.009 106.085 217.812 106.482 216.348 106.482C215.776 106.482 215.269 106.425 214.824 106.311C214.38 106.197 213.999 106.028 213.682 105.803C213.364 105.575 213.11 105.291 212.92 104.953C212.729 104.61 212.607 104.24 212.552 103.842C212.501 103.444 212.476 102.786 212.476 101.868C212.476 100.306 212.569 98.3892 212.755 96.1167H213.796C213.572 98.2961 213.459 100.23 213.459 101.918C213.459 102.507 213.472 103.004 213.498 103.41C213.527 103.812 213.65 104.185 213.866 104.527C214.086 104.87 214.412 105.13 214.843 105.308C215.275 105.486 215.81 105.575 216.449 105.575C217.596 105.575 218.55 105.253 219.312 104.61C220.074 103.962 220.692 102.835 221.166 101.227L222.054 101.557ZM234.87 97.7417H231.69C230.916 98.0718 230.162 98.6769 229.43 99.5571C228.698 100.433 228.332 101.345 228.332 102.293C228.332 103.025 228.527 103.637 228.916 104.127C229.305 104.614 229.824 104.972 230.471 105.2C231.123 105.424 231.988 105.537 233.067 105.537C233.313 105.537 233.567 105.53 233.829 105.518L233.766 106.457H233.734C232.951 106.457 232.301 106.442 231.785 106.413C231.273 106.387 230.729 106.284 230.154 106.102C229.583 105.924 229.079 105.651 228.643 105.283C228.207 104.915 227.883 104.489 227.672 104.007C227.46 103.524 227.354 102.979 227.354 102.369C227.354 101.519 227.615 100.676 228.135 99.8428C228.656 99.0049 229.339 98.2961 230.186 97.7163H223.819V96.8721H234.87V97.7417ZM246.378 105.924L245.585 106.705C244.286 105.486 242.839 104.345 241.243 103.283C240.951 103.101 240.528 102.828 239.974 102.464C239.419 102.096 239.07 101.851 238.926 101.728C238.787 101.605 238.672 101.466 238.583 101.309C238.499 101.153 238.457 100.994 238.457 100.833C238.457 100.435 238.717 100.052 239.237 99.6841C240.744 98.7192 241.874 97.9596 242.627 97.4053C243.38 96.8467 244.127 96.2352 244.868 95.5708L245.648 96.2246C244.133 97.4941 242.369 98.7679 240.354 100.046C239.961 100.27 239.715 100.425 239.618 100.509C239.521 100.594 239.472 100.693 239.472 100.808C239.472 100.909 239.502 100.99 239.561 101.049C239.625 101.108 239.883 101.286 240.335 101.582C242.037 102.682 243.302 103.533 244.131 104.134C244.961 104.735 245.71 105.331 246.378 105.924ZM253.539 95.6406C253.539 96.1146 253.517 96.6816 253.475 97.3418H258.039V98.186H253.405C253.253 99.8153 252.893 101.425 252.326 103.017C251.759 104.608 251.184 105.759 250.6 106.47L249.844 105.975C250.458 105.103 251.008 103.935 251.495 102.471C251.986 101.002 252.288 99.5741 252.402 98.186H250.092V97.3418H252.459C252.485 96.7959 252.498 96.2288 252.498 95.6406H253.539ZM260.781 99.3984L260.769 100.23C260.561 100.222 260.371 100.217 260.197 100.217C258.682 100.217 257.017 100.304 255.202 100.478L255.138 99.6396C256.793 99.4661 258.428 99.3794 260.045 99.3794C260.328 99.3794 260.574 99.3857 260.781 99.3984ZM261.156 106C260.483 106.114 259.573 106.171 258.426 106.171C257.457 106.171 256.695 106.131 256.141 106.051C255.591 105.97 255.157 105.786 254.84 105.499C254.522 105.211 254.364 104.86 254.364 104.445C254.364 103.844 254.605 103.275 255.087 102.737L255.798 103.137C255.489 103.552 255.335 103.952 255.335 104.337C255.331 104.599 255.472 104.826 255.76 105.016C256.052 105.207 256.865 105.302 258.198 105.302C259.213 105.302 260.182 105.245 261.105 105.13L261.156 106ZM261.092 96.6626L260.362 96.9609C260.083 96.305 259.78 95.721 259.455 95.209L260.127 94.8853C260.419 95.3381 260.741 95.9305 261.092 96.6626ZM259.245 97.0562L258.515 97.3799C258.215 96.6943 257.908 96.0998 257.595 95.5962L258.287 95.2852C258.651 95.8564 258.97 96.4468 259.245 97.0562ZM273.115 106C272.125 106.267 270.925 106.4 269.516 106.4C265.796 106.4 263.936 105.535 263.936 103.804C263.936 102.907 264.321 102.208 265.091 101.709C265.861 101.205 266.833 100.954 268.005 100.954C268.974 100.954 269.958 101.045 270.957 101.227C270.567 100.676 270.089 99.8534 269.522 98.7573H263.327V97.9258H269.128C268.87 97.291 268.657 96.6118 268.487 95.8882L269.478 95.7422C269.664 96.5674 269.888 97.2952 270.15 97.9258H274.34V98.7573H270.544C271.331 100.277 272.101 101.301 272.854 101.83L272.391 102.579C271.384 102.033 269.941 101.76 268.062 101.76C267.182 101.76 266.445 101.935 265.853 102.287C265.261 102.638 264.964 103.131 264.964 103.766C264.964 104.951 266.494 105.543 269.554 105.543C270.717 105.543 271.841 105.41 272.924 105.143L273.115 106ZM281.398 102.648C281.255 103.05 281.026 103.541 280.713 104.121C280.404 104.701 280.087 105.185 279.761 105.575C279.439 105.96 279.105 106.152 278.758 106.152C278.546 106.152 278.358 106.102 278.193 106C278.028 105.898 277.812 105.702 277.545 105.41C277.279 105.118 277.033 104.718 276.809 104.21C276.589 103.698 276.426 103.163 276.32 102.604C276.215 102.045 276.162 101.502 276.162 100.973C276.162 100.499 276.21 99.828 276.308 98.9604C276.409 98.0506 276.464 97.3862 276.473 96.9673H277.539C277.522 97.3481 277.454 98.0125 277.336 98.9604C277.23 99.8068 277.177 100.475 277.177 100.966C277.177 101.703 277.253 102.365 277.406 102.953C277.562 103.537 277.787 104.041 278.079 104.464C278.375 104.887 278.591 105.099 278.726 105.099C278.946 105.099 279.242 104.798 279.615 104.197C279.987 103.592 280.321 102.94 280.618 102.242L281.398 102.648ZM287.207 104.515L286.14 104.546V104.432C286.14 103.18 285.937 101.961 285.531 100.776C285.125 99.591 284.545 98.533 283.792 97.6021L284.572 97.1069C286.299 99.0832 287.177 101.552 287.207 104.515ZM292.183 100.998C292.183 103.173 291.447 105.145 289.974 106.914H288.73V106.863C289.424 106.22 289.989 105.435 290.425 104.508C290.941 103.404 291.199 102.234 291.199 100.998C291.199 99.7708 290.941 98.6071 290.425 97.5068C289.989 96.5801 289.424 95.7951 288.73 95.1519V95.082H289.974C291.447 96.8636 292.183 98.8356 292.183 100.998Z" fill="#333333"/>
<rect x="146" y="146" width="195" height="31" fill="#E2F2FE"/>
<path d="M174.104 166.171C173.207 166.171 172.365 165.975 171.578 165.581V164.286H171.622C172.477 164.921 173.325 165.238 174.167 165.238C175.348 165.238 175.938 164.866 175.938 164.121C175.938 163.829 175.86 163.603 175.704 163.442C175.547 163.281 175.221 163.144 174.726 163.029C174.311 162.949 173.835 162.845 173.298 162.718C172.76 162.591 172.344 162.369 172.047 162.052C171.755 161.73 171.609 161.32 171.609 160.82C171.609 160.186 171.868 159.667 172.384 159.265C172.9 158.859 173.59 158.656 174.453 158.656C175.342 158.656 176.123 158.829 176.795 159.176V160.408H176.751C176.01 159.862 175.225 159.589 174.396 159.589C173.884 159.589 173.48 159.684 173.184 159.875C172.887 160.061 172.739 160.321 172.739 160.655C172.739 160.951 172.818 161.178 172.974 161.334C173.135 161.491 173.452 161.629 173.926 161.747L175.329 162.052C175.909 162.179 176.345 162.403 176.637 162.725C176.929 163.042 177.075 163.455 177.075 163.962C177.075 164.618 176.806 165.152 176.269 165.562C175.731 165.968 175.01 166.171 174.104 166.171ZM182.883 164.292V162.21C181.304 162.282 180.289 162.458 179.836 162.737C179.387 163.012 179.163 163.393 179.163 163.88C179.163 164.739 179.684 165.168 180.725 165.168C181.431 165.168 182.151 164.876 182.883 164.292ZM182.883 166V165.2C182.286 165.632 181.795 165.905 181.41 166.019C181.025 166.138 180.634 166.197 180.236 166.197C179.597 166.197 179.066 165.985 178.643 165.562C178.219 165.139 178.008 164.601 178.008 163.95C178.008 163.116 178.321 162.49 178.947 162.071C179.578 161.648 180.89 161.396 182.883 161.315V161.1C182.883 160.6 182.735 160.232 182.438 159.995C182.142 159.754 181.622 159.633 180.877 159.633C180.221 159.633 179.491 159.803 178.687 160.141H178.636V158.979C179.428 158.764 180.189 158.656 180.921 158.656C181.984 158.656 182.76 158.855 183.251 159.252C183.746 159.646 183.994 160.26 183.994 161.093V166H182.883ZM195.343 166V161.982C195.343 161.208 195.288 160.691 195.178 160.433C195.072 160.171 194.907 159.98 194.683 159.862C194.463 159.739 194.184 159.678 193.845 159.678C193.265 159.678 192.582 159.997 191.795 160.636C191.82 160.856 191.833 161.138 191.833 161.48V166H190.716V161.982C190.716 161.186 190.661 160.664 190.551 160.414C190.445 160.16 190.282 159.974 190.062 159.855C189.846 159.737 189.571 159.678 189.237 159.678C188.632 159.678 187.957 159.987 187.212 160.604V166H186.095V158.827H187.212V159.69C188.062 158.979 188.867 158.624 189.624 158.624C190.602 158.624 191.262 159.015 191.604 159.798C192.527 159.015 193.403 158.624 194.232 158.624C195.718 158.624 196.46 159.525 196.46 161.328V166H195.343ZM199.691 165.587V168.647H198.574V158.827H199.691V159.621C200.508 158.956 201.302 158.624 202.072 158.624C202.918 158.624 203.591 158.954 204.09 159.614C204.59 160.27 204.839 161.174 204.839 162.325C204.839 163.455 204.537 164.373 203.932 165.08C203.326 165.786 202.577 166.14 201.685 166.14C201.003 166.14 200.339 165.956 199.691 165.587ZM199.691 160.528V164.718C200.326 165.001 200.914 165.143 201.456 165.143C202.154 165.143 202.7 164.902 203.094 164.419C203.487 163.933 203.684 163.247 203.684 162.363C203.684 160.573 203.039 159.678 201.748 159.678C201.062 159.678 200.377 159.961 199.691 160.528ZM207.613 166H206.496V156.009H207.613V166ZM210.4 161.671H214.608C214.575 160.245 213.921 159.532 212.647 159.532C212.004 159.532 211.483 159.722 211.085 160.103C210.688 160.484 210.459 161.007 210.4 161.671ZM213.021 166.165C211.828 166.165 210.901 165.843 210.241 165.2C209.585 164.553 209.257 163.639 209.257 162.458C209.257 161.286 209.573 160.355 210.203 159.665C210.834 158.971 211.669 158.624 212.71 158.624C213.658 158.624 214.393 158.908 214.913 159.475C215.438 160.042 215.7 160.85 215.7 161.899V162.515H210.4C210.4 163.378 210.633 164.043 211.098 164.508C211.568 164.97 212.215 165.2 213.041 165.2C213.861 165.2 214.682 164.915 215.503 164.343H215.554V165.556C214.534 165.962 213.69 166.165 213.021 166.165ZM223.533 166H217.135V164.762C217.812 164.178 218.571 163.499 219.414 162.725C220.26 161.95 220.888 161.269 221.299 160.681C221.709 160.092 221.915 159.504 221.915 158.916C221.915 158.396 221.741 157.989 221.394 157.697C221.051 157.405 220.584 157.259 219.991 157.259C219.124 157.259 218.271 157.534 217.433 158.084H217.37V156.847C218.224 156.44 219.109 156.237 220.023 156.237C220.988 156.237 221.747 156.472 222.302 156.942C222.856 157.407 223.133 158.044 223.133 158.853C223.133 159.284 223.061 159.697 222.917 160.09C222.778 160.484 222.558 160.867 222.257 161.239C221.957 161.612 221.597 162.007 221.178 162.426C220.759 162.845 219.797 163.696 218.29 164.978H223.533V166Z" fill="#333333"/>
<rect x="146" y="176" width="195" height="31" fill="white"/>
<path d="M174.104 196.171C173.207 196.171 172.365 195.975 171.578 195.581V194.286H171.622C172.477 194.921 173.325 195.238 174.167 195.238C175.348 195.238 175.938 194.866 175.938 194.121C175.938 193.829 175.86 193.603 175.704 193.442C175.547 193.281 175.221 193.144 174.726 193.029C174.311 192.949 173.835 192.845 173.298 192.718C172.76 192.591 172.344 192.369 172.047 192.052C171.755 191.73 171.609 191.32 171.609 190.82C171.609 190.186 171.868 189.667 172.384 189.265C172.9 188.859 173.59 188.656 174.453 188.656C175.342 188.656 176.123 188.829 176.795 189.176V190.408H176.751C176.01 189.862 175.225 189.589 174.396 189.589C173.884 189.589 173.48 189.684 173.184 189.875C172.887 190.061 172.739 190.321 172.739 190.655C172.739 190.951 172.818 191.178 172.974 191.334C173.135 191.491 173.452 191.629 173.926 191.747L175.329 192.052C175.909 192.179 176.345 192.403 176.637 192.725C176.929 193.042 177.075 193.455 177.075 193.962C177.075 194.618 176.806 195.152 176.269 195.562C175.731 195.968 175.01 196.171 174.104 196.171ZM182.883 194.292V192.21C181.304 192.282 180.289 192.458 179.836 192.737C179.387 193.012 179.163 193.393 179.163 193.88C179.163 194.739 179.684 195.168 180.725 195.168C181.431 195.168 182.151 194.876 182.883 194.292ZM182.883 196V195.2C182.286 195.632 181.795 195.905 181.41 196.019C181.025 196.138 180.634 196.197 180.236 196.197C179.597 196.197 179.066 195.985 178.643 195.562C178.219 195.139 178.008 194.601 178.008 193.95C178.008 193.116 178.321 192.49 178.947 192.071C179.578 191.648 180.89 191.396 182.883 191.315V191.1C182.883 190.6 182.735 190.232 182.438 189.995C182.142 189.754 181.622 189.633 180.877 189.633C180.221 189.633 179.491 189.803 178.687 190.141H178.636V188.979C179.428 188.764 180.189 188.656 180.921 188.656C181.984 188.656 182.76 188.855 183.251 189.252C183.746 189.646 183.994 190.26 183.994 191.093V196H182.883ZM195.343 196V191.982C195.343 191.208 195.288 190.691 195.178 190.433C195.072 190.171 194.907 189.98 194.683 189.862C194.463 189.739 194.184 189.678 193.845 189.678C193.265 189.678 192.582 189.997 191.795 190.636C191.82 190.856 191.833 191.138 191.833 191.48V196H190.716V191.982C190.716 191.186 190.661 190.664 190.551 190.414C190.445 190.16 190.282 189.974 190.062 189.855C189.846 189.737 189.571 189.678 189.237 189.678C188.632 189.678 187.957 189.987 187.212 190.604V196H186.095V188.827H187.212V189.69C188.062 188.979 188.867 188.624 189.624 188.624C190.602 188.624 191.262 189.015 191.604 189.798C192.527 189.015 193.403 188.624 194.232 188.624C195.718 188.624 196.46 189.525 196.46 191.328V196H195.343ZM199.691 195.587V198.647H198.574V188.827H199.691V189.621C200.508 188.956 201.302 188.624 202.072 188.624C202.918 188.624 203.591 188.954 204.09 189.614C204.59 190.27 204.839 191.174 204.839 192.325C204.839 193.455 204.537 194.373 203.932 195.08C203.326 195.786 202.577 196.14 201.685 196.14C201.003 196.14 200.339 195.956 199.691 195.587ZM199.691 190.528V194.718C200.326 195.001 200.914 195.143 201.456 195.143C202.154 195.143 202.7 194.902 203.094 194.419C203.487 193.933 203.684 193.247 203.684 192.363C203.684 190.573 203.039 189.678 201.748 189.678C201.062 189.678 200.377 189.961 199.691 190.528ZM207.613 196H206.496V186.009H207.613V196ZM210.4 191.671H214.608C214.575 190.245 213.921 189.532 212.647 189.532C212.004 189.532 211.483 189.722 211.085 190.103C210.688 190.484 210.459 191.007 210.4 191.671ZM213.021 196.165C211.828 196.165 210.901 195.843 210.241 195.2C209.585 194.553 209.257 193.639 209.257 192.458C209.257 191.286 209.573 190.355 210.203 189.665C210.834 188.971 211.669 188.624 212.71 188.624C213.658 188.624 214.393 188.908 214.913 189.475C215.438 190.042 215.7 190.85 215.7 191.899V192.515H210.4C210.4 193.378 210.633 194.043 211.098 194.508C211.568 194.97 212.215 195.2 213.041 195.2C213.861 195.2 214.682 194.915 215.503 194.343H215.554V195.556C214.534 195.962 213.69 196.165 213.021 196.165ZM217.173 195.6V194.324H217.274C218.133 194.891 219.022 195.175 219.94 195.175C220.618 195.175 221.159 194.991 221.565 194.623C221.976 194.254 222.181 193.742 222.181 193.086C222.181 192.477 222.003 192.028 221.648 191.741C221.292 191.453 220.717 191.309 219.921 191.309H219.363V190.332H219.794C220.48 190.332 221.017 190.186 221.407 189.894C221.796 189.602 221.991 189.191 221.991 188.662C221.991 188.214 221.819 187.869 221.477 187.627C221.138 187.382 220.67 187.259 220.074 187.259C219.215 187.259 218.362 187.536 217.516 188.091H217.446V186.84C218.301 186.438 219.187 186.237 220.105 186.237C221.091 186.237 221.853 186.445 222.391 186.859C222.932 187.27 223.203 187.826 223.203 188.529C223.203 189.045 223.023 189.506 222.664 189.913C222.304 190.319 221.853 190.577 221.312 190.687V190.789C222.704 191.038 223.4 191.84 223.4 193.194C223.4 194.07 223.08 194.79 222.441 195.353C221.802 195.915 220.979 196.197 219.972 196.197C219.012 196.197 218.078 195.998 217.173 195.6Z" fill="#333333"/>
<rect x="146" y="206" width="195" height="31" fill="white"/>
<path d="M174.104 226.171C173.207 226.171 172.365 225.975 171.578 225.581V224.286H171.622C172.477 224.921 173.325 225.238 174.167 225.238C175.348 225.238 175.938 224.866 175.938 224.121C175.938 223.829 175.86 223.603 175.704 223.442C175.547 223.281 175.221 223.144 174.726 223.029C174.311 222.949 173.835 222.845 173.298 222.718C172.76 222.591 172.344 222.369 172.047 222.052C171.755 221.73 171.609 221.32 171.609 220.82C171.609 220.186 171.868 219.667 172.384 219.265C172.9 218.859 173.59 218.656 174.453 218.656C175.342 218.656 176.123 218.829 176.795 219.176V220.408H176.751C176.01 219.862 175.225 219.589 174.396 219.589C173.884 219.589 173.48 219.684 173.184 219.875C172.887 220.061 172.739 220.321 172.739 220.655C172.739 220.951 172.818 221.178 172.974 221.334C173.135 221.491 173.452 221.629 173.926 221.747L175.329 222.052C175.909 222.179 176.345 222.403 176.637 222.725C176.929 223.042 177.075 223.455 177.075 223.962C177.075 224.618 176.806 225.152 176.269 225.562C175.731 225.968 175.01 226.171 174.104 226.171ZM182.883 224.292V222.21C181.304 222.282 180.289 222.458 179.836 222.737C179.387 223.012 179.163 223.393 179.163 223.88C179.163 224.739 179.684 225.168 180.725 225.168C181.431 225.168 182.151 224.876 182.883 224.292ZM182.883 226V225.2C182.286 225.632 181.795 225.905 181.41 226.019C181.025 226.138 180.634 226.197 180.236 226.197C179.597 226.197 179.066 225.985 178.643 225.562C178.219 225.139 178.008 224.601 178.008 223.95C178.008 223.116 178.321 222.49 178.947 222.071C179.578 221.648 180.89 221.396 182.883 221.315V221.1C182.883 220.6 182.735 220.232 182.438 219.995C182.142 219.754 181.622 219.633 180.877 219.633C180.221 219.633 179.491 219.803 178.687 220.141H178.636V218.979C179.428 218.764 180.189 218.656 180.921 218.656C181.984 218.656 182.76 218.855 183.251 219.252C183.746 219.646 183.994 220.26 183.994 221.093V226H182.883ZM195.343 226V221.982C195.343 221.208 195.288 220.691 195.178 220.433C195.072 220.171 194.907 219.98 194.683 219.862C194.463 219.739 194.184 219.678 193.845 219.678C193.265 219.678 192.582 219.997 191.795 220.636C191.82 220.856 191.833 221.138 191.833 221.48V226H190.716V221.982C190.716 221.186 190.661 220.664 190.551 220.414C190.445 220.16 190.282 219.974 190.062 219.855C189.846 219.737 189.571 219.678 189.237 219.678C188.632 219.678 187.957 219.987 187.212 220.604V226H186.095V218.827H187.212V219.69C188.062 218.979 188.867 218.624 189.624 218.624C190.602 218.624 191.262 219.015 191.604 219.798C192.527 219.015 193.403 218.624 194.232 218.624C195.718 218.624 196.46 219.525 196.46 221.328V226H195.343ZM199.691 225.587V228.647H198.574V218.827H199.691V219.621C200.508 218.956 201.302 218.624 202.072 218.624C202.918 218.624 203.591 218.954 204.09 219.614C204.59 220.27 204.839 221.174 204.839 222.325C204.839 223.455 204.537 224.373 203.932 225.08C203.326 225.786 202.577 226.14 201.685 226.14C201.003 226.14 200.339 225.956 199.691 225.587ZM199.691 220.528V224.718C200.326 225.001 200.914 225.143 201.456 225.143C202.154 225.143 202.7 224.902 203.094 224.419C203.487 223.933 203.684 223.247 203.684 222.363C203.684 220.573 203.039 219.678 201.748 219.678C201.062 219.678 200.377 219.961 199.691 220.528ZM207.613 226H206.496V216.009H207.613V226ZM210.4 221.671H214.608C214.575 220.245 213.921 219.532 212.647 219.532C212.004 219.532 211.483 219.722 211.085 220.103C210.688 220.484 210.459 221.007 210.4 221.671ZM213.021 226.165C211.828 226.165 210.901 225.843 210.241 225.2C209.585 224.553 209.257 223.639 209.257 222.458C209.257 221.286 209.573 220.355 210.203 219.665C210.834 218.971 211.669 218.624 212.71 218.624C213.658 218.624 214.393 218.908 214.913 219.475C215.438 220.042 215.7 220.85 215.7 221.899V222.515H210.4C210.4 223.378 210.633 224.043 211.098 224.508C211.568 224.97 212.215 225.2 213.041 225.2C213.861 225.2 214.682 224.915 215.503 224.343H215.554V225.556C214.534 225.962 213.69 226.165 213.021 226.165ZM223.749 223.245H222.346V226H221.204V223.245H216.602V221.912L221.254 216.434H222.346V222.306H223.749V223.245ZM221.204 222.306V217.831L217.401 222.306H221.204Z" fill="#333333"/>
<rect x="146" y="236" width="195" height="7" fill="white"/>
<g filter="url(#filter1_i_362_615)">
<rect width="175" height="32" transform="translate(146 46)" fill="#F7F9FA"/>
<path fill-rule="evenodd" clip-rule="evenodd" d="M310.212 58.6667L311 59.1394L305.733 64.5H304.267L299 59.1394L299.788 58.6667L304.765 63.6867H305.235L310.212 58.6667Z" fill="#3498DB"/>
<path d="M180.423 66.1846C179.265 66.1846 178.051 65.8975 176.779 65.3232V63.7715H176.868C177.916 64.6647 179.106 65.1113 180.437 65.1113C181.257 65.1113 181.899 64.945 182.364 64.6123C182.834 64.2751 183.068 63.8285 183.068 63.2725C183.068 62.8441 182.968 62.5091 182.768 62.2676C182.572 62.0215 182.228 61.8301 181.735 61.6934L179.438 61.2285C178.586 61.0508 177.939 60.7295 177.497 60.2646C177.06 59.7952 176.841 59.1868 176.841 58.4395C176.841 57.5918 177.183 56.8923 177.866 56.3408C178.55 55.7894 179.441 55.5137 180.539 55.5137C181.688 55.5137 182.836 55.7666 183.984 56.2725V57.7695H183.889C182.941 56.9811 181.824 56.5869 180.539 56.5869C179.828 56.5869 179.254 56.7441 178.816 57.0586C178.383 57.373 178.167 57.7855 178.167 58.2959C178.167 59.1481 178.664 59.6973 179.657 59.9434C180.231 60.0482 180.869 60.1803 181.571 60.3398C182.278 60.4948 182.781 60.6589 183.082 60.832C183.387 61.0007 183.633 61.1943 183.82 61.4131C184.012 61.6318 184.153 61.8802 184.244 62.1582C184.34 62.4362 184.388 62.7438 184.388 63.0811C184.388 63.9743 184.025 64.7148 183.301 65.3027C182.576 65.8906 181.617 66.1846 180.423 66.1846ZM190.711 64.1611V61.9189C189.011 61.9964 187.917 62.1855 187.43 62.4863C186.947 62.7826 186.705 63.1927 186.705 63.7168C186.705 64.6419 187.266 65.1045 188.387 65.1045C189.148 65.1045 189.923 64.79 190.711 64.1611ZM190.711 66V65.1387C190.068 65.6035 189.54 65.8975 189.125 66.0205C188.71 66.1481 188.289 66.2119 187.86 66.2119C187.172 66.2119 186.6 65.984 186.145 65.5283C185.689 65.0726 185.461 64.4938 185.461 63.792C185.461 62.8942 185.798 62.2197 186.473 61.7686C187.152 61.3128 188.564 61.0417 190.711 60.9551V60.7227C190.711 60.1849 190.551 59.7884 190.232 59.5332C189.913 59.2734 189.353 59.1436 188.551 59.1436C187.844 59.1436 187.058 59.3258 186.192 59.6904H186.138V58.4395C186.99 58.207 187.81 58.0908 188.599 58.0908C189.743 58.0908 190.579 58.305 191.107 58.7334C191.641 59.1572 191.907 59.818 191.907 60.7158V66H190.711ZM204.13 66V61.6729C204.13 60.8389 204.071 60.2829 203.952 60.0049C203.838 59.7223 203.66 59.5173 203.419 59.3896C203.182 59.2575 202.881 59.1914 202.517 59.1914C201.892 59.1914 201.156 59.5355 200.309 60.2236C200.336 60.4606 200.35 60.7637 200.35 61.1328V66H199.146V61.6729C199.146 60.8161 199.087 60.2533 198.969 59.9844C198.855 59.7109 198.679 59.5104 198.442 59.3828C198.21 59.2552 197.914 59.1914 197.554 59.1914C196.902 59.1914 196.175 59.5241 195.373 60.1895V66H194.17V58.2754H195.373V59.2051C196.289 58.4395 197.155 58.0566 197.971 58.0566C199.023 58.0566 199.734 58.4782 200.104 59.3213C201.097 58.4782 202.04 58.0566 202.934 58.0566C204.533 58.0566 205.333 59.0273 205.333 60.9688V66H204.13ZM208.812 65.5557V68.8506H207.609V58.2754H208.812V59.1299C209.692 58.4144 210.547 58.0566 211.376 58.0566C212.287 58.0566 213.012 58.4121 213.55 59.123C214.088 59.8294 214.356 60.8024 214.356 62.042C214.356 63.2588 214.031 64.2477 213.379 65.0088C212.727 65.7699 211.921 66.1504 210.959 66.1504C210.225 66.1504 209.51 65.9521 208.812 65.5557ZM208.812 60.1074V64.6191C209.496 64.9245 210.13 65.0771 210.713 65.0771C211.465 65.0771 212.053 64.8174 212.477 64.2979C212.9 63.7738 213.112 63.0355 213.112 62.083C213.112 60.1553 212.417 59.1914 211.027 59.1914C210.289 59.1914 209.551 59.4967 208.812 60.1074ZM217.344 66H216.141V55.2402H217.344V66ZM220.345 61.3379H224.877C224.84 59.8021 224.136 59.0342 222.765 59.0342C222.072 59.0342 221.511 59.2393 221.083 59.6494C220.655 60.0596 220.409 60.6224 220.345 61.3379ZM223.168 66.1777C221.883 66.1777 220.885 65.8314 220.174 65.1387C219.467 64.4414 219.114 63.457 219.114 62.1855C219.114 60.9232 219.454 59.9206 220.133 59.1777C220.812 58.4303 221.712 58.0566 222.833 58.0566C223.854 58.0566 224.645 58.362 225.205 58.9727C225.77 59.5833 226.053 60.4538 226.053 61.584V62.2471H220.345C220.345 63.1768 220.595 63.8923 221.097 64.3936C221.603 64.8903 222.3 65.1387 223.188 65.1387C224.073 65.1387 224.957 64.8311 225.841 64.2158H225.896V65.5215C224.797 65.959 223.888 66.1777 223.168 66.1777ZM233.9 66H228.418V65.0566H230.564V57.9746H228.418V57.1406C229.257 57.1361 229.856 57.0176 230.216 56.7852C230.576 56.5482 230.779 56.1745 230.824 55.6641H231.795V65.0566H233.9V66Z" fill="#3498DB"/>
</g>
<rect x="145.5" y="45.5" width="176" height="31" stroke="#E3E7E8"/>
<rect x="171" y="50" width="69" height="24" rx="1" stroke="#282828" stroke-width="2"/>
<rect x="165" y="180" width="67" height="24" rx="1" stroke="#282828" stroke-width="2"/>
<rect x="45" y="44" width="86" height="16" rx="1" fill="#282828"/>
<path d="M58.4863 55H53.8896V48.3774H55.3398V53.9014H58.4863V55ZM60.6309 49.2739H59.1851V48.083H60.6309V49.2739ZM60.5825 55H59.2334V49.9111H60.5825V55ZM61.6372 54.7583V53.5103H61.6899C62.2964 53.9995 62.9351 54.2441 63.606 54.2441C64.2856 54.2441 64.6255 54.0596 64.6255 53.6904C64.6255 53.541 64.5728 53.4282 64.4673 53.3521C64.3618 53.2729 64.1714 53.2026 63.896 53.1411C63.7056 53.106 63.4346 53.0488 63.083 52.9697C62.7314 52.8906 62.4546 52.7808 62.2524 52.6401C62.0532 52.4995 61.9053 52.3296 61.8086 52.1304C61.7119 51.9312 61.6636 51.7012 61.6636 51.4404C61.6636 50.9453 61.8789 50.5439 62.3096 50.2363C62.7402 49.9258 63.3188 49.7705 64.0454 49.7705C64.687 49.7705 65.2656 49.8833 65.7812 50.1089V51.2954H65.7461C65.1572 50.8765 64.5874 50.667 64.0366 50.667C63.7524 50.667 63.5151 50.7197 63.3247 50.8252C63.1343 50.9307 63.0391 51.0625 63.0391 51.2207C63.0391 51.3994 63.0977 51.5298 63.2148 51.6118C63.335 51.6909 63.5342 51.7627 63.8125 51.8271C64.167 51.8916 64.52 51.9692 64.8716 52.0601C65.2231 52.1509 65.5 52.312 65.7021 52.5435C65.9043 52.772 66.0054 53.0679 66.0054 53.4312C66.0054 53.9497 65.7856 54.3643 65.3462 54.6748C64.9097 54.9854 64.3193 55.1406 63.5752 55.1406C62.8369 55.1406 62.1909 55.0132 61.6372 54.7583ZM69.9341 54.9692C69.5737 55.0571 69.1885 55.1011 68.7783 55.1011C68.1719 55.1011 67.728 54.9722 67.4468 54.7144C67.1655 54.4536 67.0249 54.0332 67.0249 53.4531V50.8032H66.3569V49.9111H67.0293V48.4829H68.374V49.9111H69.9341V50.8032H68.374V52.8994C68.374 53.4385 68.4429 53.79 68.5806 53.9541C68.7183 54.1182 68.9497 54.2002 69.2749 54.2002C69.4829 54.2002 69.6895 54.1489 69.8945 54.0464H69.9341V54.9692ZM72.1182 54.6396L72.0303 55H70.7646V48.083H72.1138V50.5923C72.5063 50.2612 72.8257 50.0415 73.0718 49.9331C73.3208 49.8247 73.583 49.7705 73.8584 49.7705C74.4561 49.7705 74.9175 50.0005 75.2427 50.4604C75.5708 50.9204 75.7349 51.5664 75.7349 52.3984C75.7349 53.2129 75.5269 53.8735 75.1108 54.3804C74.6948 54.8872 74.1763 55.1406 73.5552 55.1406C73.1099 55.1406 72.6309 54.9736 72.1182 54.6396ZM72.1138 51.1724V53.9937C72.4126 54.105 72.6865 54.1606 72.9355 54.1606C73.8701 54.1606 74.3374 53.585 74.3374 52.4336C74.3374 51.3525 73.9463 50.812 73.1641 50.812C72.8447 50.812 72.4946 50.9321 72.1138 51.1724ZM78.9824 55.1582C78.1562 55.1582 77.5146 54.9209 77.0576 54.4463C76.6006 53.9688 76.3721 53.3066 76.3721 52.46C76.3721 51.6104 76.6021 50.9468 77.062 50.4692C77.5249 49.9917 78.165 49.7529 78.9824 49.7529C79.8057 49.7529 80.4458 49.9917 80.9028 50.4692C81.3628 50.9468 81.5928 51.6104 81.5928 52.46C81.5928 53.3066 81.3628 53.9688 80.9028 54.4463C80.4458 54.9209 79.8057 55.1582 78.9824 55.1582ZM78.9824 50.6934C78.1826 50.6934 77.7827 51.2866 77.7827 52.4731C77.7827 53.6362 78.1885 54.2178 79 54.2178C79.7881 54.2178 80.1821 53.6362 80.1821 52.4731C80.1821 51.2866 79.7822 50.6934 78.9824 50.6934ZM87.4727 55H85.8687L84.6777 53.3169L83.4692 55H81.9487L83.8955 52.46L81.9751 49.9111H83.5747L84.748 51.5635L85.9302 49.9111H87.4551L85.5215 52.4204L87.4727 55ZM91.375 55V48.3774H93.7568C94.7646 48.3774 95.4487 48.5107 95.8091 48.7773C96.1724 49.041 96.354 49.4146 96.354 49.8979C96.354 50.5366 96.0405 51.001 95.4136 51.291V51.3262C96.3599 51.5254 96.833 52.0718 96.833 52.9653C96.833 53.5894 96.5986 54.0845 96.1299 54.4507C95.6641 54.8169 94.9873 55 94.0996 55H91.375ZM92.8164 49.4189V51.0229H93.3613C93.8096 51.0229 94.1274 50.9995 94.3149 50.9526C94.5024 50.9028 94.6416 50.8105 94.7324 50.6758C94.8232 50.5381 94.8687 50.3667 94.8687 50.1616C94.8687 49.9976 94.8276 49.8569 94.7456 49.7397C94.6665 49.6226 94.5361 49.5405 94.3545 49.4937C94.1729 49.4438 93.8066 49.4189 93.2559 49.4189H92.8164ZM92.8164 52.0073V53.9585H93.269C93.6704 53.9585 93.9795 53.9541 94.1963 53.9453C94.4131 53.9365 94.6094 53.894 94.7852 53.8179C94.9639 53.7417 95.0986 53.6318 95.1895 53.4883C95.2832 53.3447 95.3301 53.1704 95.3301 52.9653C95.3301 52.7427 95.2817 52.5596 95.1851 52.416C95.0913 52.2725 94.9536 52.1685 94.772 52.104C94.5933 52.0396 94.1729 52.0073 93.5107 52.0073H92.8164ZM102.594 55H101.245V54.2881C100.835 54.6221 100.501 54.8477 100.243 54.9648C99.9854 55.082 99.7173 55.1406 99.439 55.1406C98.3667 55.1406 97.8306 54.5122 97.8306 53.2554V49.9111H99.1885V52.4468C99.1885 53.1558 99.2661 53.5967 99.4214 53.7695C99.5767 53.9424 99.8301 54.0288 100.182 54.0288C100.483 54.0288 100.838 53.897 101.245 53.6333V49.9111H102.594V55ZM106.998 54.9692C106.637 55.0571 106.252 55.1011 105.842 55.1011C105.235 55.1011 104.792 54.9722 104.51 54.7144C104.229 54.4536 104.088 54.0332 104.088 53.4531V50.8032H103.42V49.9111H104.093V48.4829H105.438V49.9111H106.998V50.8032H105.438V52.8994C105.438 53.4385 105.506 53.79 105.644 53.9541C105.782 54.1182 106.013 54.2002 106.338 54.2002C106.546 54.2002 106.753 54.1489 106.958 54.0464H106.998V54.9692ZM110.83 54.9692C110.469 55.0571 110.084 55.1011 109.674 55.1011C109.067 55.1011 108.624 54.9722 108.342 54.7144C108.061 54.4536 107.92 54.0332 107.92 53.4531V50.8032H107.252V49.9111H107.925V48.4829H109.27V49.9111H110.83V50.8032H109.27V52.8994C109.27 53.4385 109.338 53.79 109.476 53.9541C109.614 54.1182 109.845 54.2002 110.17 54.2002C110.378 54.2002 110.585 54.1489 110.79 54.0464H110.83V54.9692ZM113.849 55.1582C113.022 55.1582 112.381 54.9209 111.924 54.4463C111.467 53.9688 111.238 53.3066 111.238 52.46C111.238 51.6104 111.468 50.9468 111.928 50.4692C112.391 49.9917 113.031 49.7529 113.849 49.7529C114.672 49.7529 115.312 49.9917 115.769 50.4692C116.229 50.9468 116.459 51.6104 116.459 52.46C116.459 53.3066 116.229 53.9688 115.769 54.4463C115.312 54.9209 114.672 55.1582 113.849 55.1582ZM113.849 50.6934C113.049 50.6934 112.649 51.2866 112.649 52.4731C112.649 53.6362 113.055 54.2178 113.866 54.2178C114.654 54.2178 115.048 53.6362 115.048 52.4731C115.048 51.2866 114.648 50.6934 113.849 50.6934ZM122.233 55H120.875V52.4644C120.875 51.7554 120.796 51.3159 120.638 51.146C120.483 50.9731 120.229 50.8867 119.878 50.8867C119.585 50.8867 119.232 51.0171 118.819 51.2778V55H117.47V49.9111H118.819V50.623C119.241 50.2773 119.578 50.0488 119.83 49.9375C120.084 49.8262 120.35 49.7705 120.625 49.7705C121.697 49.7705 122.233 50.3989 122.233 51.6558V55Z" fill="white"/>
<rect x="292" y="16" width="100" height="16" rx="1" fill="#282828"/>
<path d="M307.011 27H305.477L304.976 25.563H302.37L301.869 27H300.401L302.902 20.3774H304.51L307.011 27ZM304.611 24.5347L303.675 21.8628L302.739 24.5347H304.611ZM311.098 23.2866H311.054C310.872 23.2397 310.629 23.2163 310.324 23.2163C309.847 23.2163 309.407 23.2925 309.006 23.4448V27H307.657V21.9111H309.006V22.834C309.419 22.4619 309.759 22.2129 310.025 22.0869C310.292 21.958 310.554 21.8936 310.812 21.8936C310.879 21.8936 310.975 21.8965 311.098 21.9023V23.2866ZM315.325 23.2866H315.281C315.1 23.2397 314.856 23.2163 314.552 23.2163C314.074 23.2163 313.635 23.2925 313.233 23.4448V27H311.884V21.9111H313.233V22.834C313.646 22.4619 313.986 22.2129 314.253 22.0869C314.52 21.958 314.782 21.8936 315.04 21.8936C315.107 21.8936 315.202 21.8965 315.325 21.9023V23.2866ZM318.335 27.1582C317.509 27.1582 316.868 26.9209 316.411 26.4463C315.954 25.9688 315.725 25.3066 315.725 24.46C315.725 23.6104 315.955 22.9468 316.415 22.4692C316.878 21.9917 317.518 21.7529 318.335 21.7529C319.159 21.7529 319.799 21.9917 320.256 22.4692C320.716 22.9468 320.946 23.6104 320.946 24.46C320.946 25.3066 320.716 25.9688 320.256 26.4463C319.799 26.9209 319.159 27.1582 318.335 27.1582ZM318.335 22.6934C317.536 22.6934 317.136 23.2866 317.136 24.4731C317.136 25.6362 317.542 26.2178 318.353 26.2178C319.141 26.2178 319.535 25.6362 319.535 24.4731C319.535 23.2866 319.135 22.6934 318.335 22.6934ZM329.186 21.9111L327.639 27H326.461L325.288 23.3657L324.114 27H322.928L321.381 21.9111H322.796L323.675 25.2598L324.743 21.9111H325.925L326.966 25.251L327.823 21.9111H329.186ZM333.083 27V20.3774H335.153C336.091 20.3774 336.822 20.4976 337.346 20.7378C337.871 20.978 338.284 21.3472 338.585 21.8452C338.89 22.3433 339.042 22.96 339.042 23.6953C339.042 24.3604 338.884 24.958 338.568 25.4883C338.254 26.0156 337.834 26.3994 337.307 26.6396C336.779 26.8799 336.067 27 335.171 27H333.083ZM334.534 21.4189V25.9585H335.246C336.766 25.9585 337.526 25.1997 337.526 23.6821C337.526 22.1733 336.766 21.4189 335.246 21.4189H334.534ZM342.33 27.1582C341.503 27.1582 340.862 26.9209 340.405 26.4463C339.948 25.9688 339.719 25.3066 339.719 24.46C339.719 23.6104 339.949 22.9468 340.409 22.4692C340.872 21.9917 341.512 21.7529 342.33 21.7529C343.153 21.7529 343.793 21.9917 344.25 22.4692C344.71 22.9468 344.94 23.6104 344.94 24.46C344.94 25.3066 344.71 25.9688 344.25 26.4463C343.793 26.9209 343.153 27.1582 342.33 27.1582ZM342.33 22.6934C341.53 22.6934 341.13 23.2866 341.13 24.4731C341.13 25.6362 341.536 26.2178 342.347 26.2178C343.135 26.2178 343.529 25.6362 343.529 24.4731C343.529 23.2866 343.129 22.6934 342.33 22.6934ZM353.18 21.9111L351.633 27H350.455L349.282 23.3657L348.108 27H346.922L345.375 21.9111H346.79L347.669 25.2598L348.737 21.9111H349.919L350.96 25.251L351.817 21.9111H353.18ZM358.765 27H357.407V24.4644C357.407 23.7554 357.328 23.3159 357.17 23.146C357.015 22.9731 356.761 22.8867 356.41 22.8867C356.117 22.8867 355.764 23.0171 355.351 23.2778V27H354.001V21.9111H355.351V22.623C355.772 22.2773 356.109 22.0488 356.361 21.9375C356.616 21.8262 356.881 21.7705 357.157 21.7705C358.229 21.7705 358.765 22.3989 358.765 23.6558V27ZM366.513 27H362.9V26.0112H363.981V21.3662H362.9V20.3774H366.513V21.3662H365.432V26.0112H366.513V27ZM371.417 26.7495C370.849 27.0073 370.334 27.1362 369.875 27.1362C368.984 27.1362 368.29 26.9062 367.792 26.4463C367.293 25.9863 367.044 25.3301 367.044 24.4775C367.044 23.6191 367.296 22.9541 367.8 22.4824C368.304 22.0078 368.978 21.7705 369.822 21.7705C370.373 21.7705 370.904 21.9009 371.417 22.1616V23.4009H371.347C370.849 22.9556 370.358 22.7329 369.875 22.7329C369.426 22.7329 369.078 22.8867 368.829 23.1943C368.58 23.502 368.455 23.9297 368.455 24.4775C368.455 25.0254 368.58 25.4458 368.829 25.7388C369.081 26.0288 369.437 26.1738 369.896 26.1738C370.386 26.1738 370.869 25.9512 371.347 25.5059H371.417V26.7495ZM374.577 27.1582C373.75 27.1582 373.109 26.9209 372.652 26.4463C372.195 25.9688 371.966 25.3066 371.966 24.46C371.966 23.6104 372.196 22.9468 372.656 22.4692C373.119 21.9917 373.759 21.7529 374.577 21.7529C375.4 21.7529 376.04 21.9917 376.497 22.4692C376.957 22.9468 377.187 23.6104 377.187 24.46C377.187 25.3066 376.957 25.9688 376.497 26.4463C376.04 26.9209 375.4 27.1582 374.577 27.1582ZM374.577 22.6934C373.777 22.6934 373.377 23.2866 373.377 24.4731C373.377 25.6362 373.783 26.2178 374.594 26.2178C375.382 26.2178 375.776 25.6362 375.776 24.4731C375.776 23.2866 375.376 22.6934 374.577 22.6934ZM382.961 27H381.604V24.4644C381.604 23.7554 381.524 23.3159 381.366 23.146C381.211 22.9731 380.958 22.8867 380.606 22.8867C380.313 22.8867 379.96 23.0171 379.547 23.2778V27H378.198V21.9111H379.547V22.623C379.969 22.2773 380.306 22.0488 380.558 21.9375C380.812 21.8262 381.078 21.7705 381.353 21.7705C382.425 21.7705 382.961 22.3989 382.961 23.6558V27Z" fill="white"/>
<rect x="48" y="123" width="81" height="16" rx="1" fill="#282828"/>
<path d="M56.6792 133.604V132.203H56.8286C57.1567 132.472 57.5332 132.686 57.958 132.844C58.3857 133.002 58.7959 133.082 59.1885 133.082C59.5957 133.082 59.9238 133.008 60.1729 132.862C60.4219 132.715 60.5464 132.512 60.5464 132.251C60.5464 132.049 60.4863 131.888 60.3662 131.768C60.249 131.647 60.0249 131.548 59.6938 131.469C59.4565 131.425 59.0508 131.338 58.4766 131.209C57.9053 131.081 57.4688 130.855 57.167 130.533C56.8682 130.208 56.7188 129.793 56.7188 129.289C56.7188 128.688 56.9751 128.201 57.4878 127.826C58.0005 127.448 58.6597 127.259 59.4653 127.259C60.2856 127.259 61.0562 127.408 61.7769 127.707V129.047H61.6318C61.0166 128.549 60.3105 128.3 59.5137 128.3C59.1357 128.3 58.8237 128.371 58.5776 128.511C58.3345 128.652 58.2129 128.844 58.2129 129.087C58.2129 129.295 58.2817 129.46 58.4194 129.583C58.5601 129.707 58.7988 129.808 59.1357 129.887C59.4727 129.948 59.8477 130.03 60.2607 130.133C60.6768 130.232 60.9858 130.345 61.188 130.471C61.3931 130.597 61.5557 130.735 61.6758 130.884C61.7988 131.031 61.8896 131.195 61.9482 131.376C62.0098 131.558 62.0405 131.759 62.0405 131.979C62.0405 132.623 61.7769 133.142 61.2495 133.534C60.7251 133.927 60.0293 134.123 59.1621 134.123C58.3184 134.123 57.4907 133.95 56.6792 133.604ZM67.6172 131.667H64.0093C64.0679 132.686 64.6465 133.196 65.7451 133.196C66.3193 133.196 66.8965 132.988 67.4766 132.572H67.5249V133.741C66.8364 134.004 66.189 134.136 65.5825 134.136C64.6274 134.136 63.8994 133.909 63.3984 133.455C62.8975 133.001 62.647 132.346 62.647 131.491C62.647 130.641 62.8843 129.973 63.3589 129.487C63.8335 128.998 64.4883 128.753 65.3232 128.753C66.8525 128.753 67.6172 129.566 67.6172 131.192V131.667ZM66.2681 130.902C66.2563 130.026 65.9004 129.588 65.2002 129.588C64.4561 129.588 64.0591 130.026 64.0093 130.902H66.2681ZM69.9639 134H68.6147V127.083H69.9639V134ZM75.9492 131.667H72.3413C72.3999 132.686 72.9785 133.196 74.0771 133.196C74.6514 133.196 75.2285 132.988 75.8086 132.572H75.8569V133.741C75.1685 134.004 74.521 134.136 73.9146 134.136C72.9595 134.136 72.2314 133.909 71.7305 133.455C71.2295 133.001 70.979 132.346 70.979 131.491C70.979 130.641 71.2163 129.973 71.6909 129.487C72.1655 128.998 72.8203 128.753 73.6553 128.753C75.1846 128.753 75.9492 129.566 75.9492 131.192V131.667ZM74.6001 130.902C74.5884 130.026 74.2324 129.588 73.5322 129.588C72.7881 129.588 72.3911 130.026 72.3413 130.902H74.6001ZM80.9326 133.75C80.3643 134.007 79.8501 134.136 79.3901 134.136C78.4995 134.136 77.8052 133.906 77.3071 133.446C76.8091 132.986 76.5601 132.33 76.5601 131.478C76.5601 130.619 76.812 129.954 77.3159 129.482C77.8198 129.008 78.4937 128.771 79.3374 128.771C79.8882 128.771 80.4199 128.901 80.9326 129.162V130.401H80.8623C80.3643 129.956 79.8735 129.733 79.3901 129.733C78.9419 129.733 78.5933 129.887 78.3442 130.194C78.0952 130.502 77.9707 130.93 77.9707 131.478C77.9707 132.025 78.0952 132.446 78.3442 132.739C78.5962 133.029 78.9521 133.174 79.4121 133.174C79.9014 133.174 80.3848 132.951 80.8623 132.506H80.9326V133.75ZM84.8701 133.969C84.5098 134.057 84.1245 134.101 83.7144 134.101C83.1079 134.101 82.6641 133.972 82.3828 133.714C82.1016 133.454 81.9609 133.033 81.9609 132.453V129.803H81.293V128.911H81.9653V127.483H83.3101V128.911H84.8701V129.803H83.3101V131.899C83.3101 132.438 83.3789 132.79 83.5166 132.954C83.6543 133.118 83.8857 133.2 84.2109 133.2C84.4189 133.2 84.6255 133.149 84.8306 133.046H84.8701V133.969ZM90.249 131.667H86.6411C86.6997 132.686 87.2783 133.196 88.377 133.196C88.9512 133.196 89.5283 132.988 90.1084 132.572H90.1567V133.741C89.4683 134.004 88.8208 134.136 88.2144 134.136C87.2593 134.136 86.5312 133.909 86.0303 133.455C85.5293 133.001 85.2788 132.346 85.2788 131.491C85.2788 130.641 85.5161 129.973 85.9907 129.487C86.4653 128.998 87.1201 128.753 87.9551 128.753C89.4844 128.753 90.249 129.566 90.249 131.192V131.667ZM88.8999 130.902C88.8882 130.026 88.5322 129.588 87.832 129.588C87.0879 129.588 86.6909 130.026 86.6411 130.902H88.8999ZM95.8389 134H94.4897V133.332C94.0503 133.689 93.7192 133.914 93.4966 134.004C93.2739 134.095 93.0352 134.141 92.7803 134.141C92.1973 134.141 91.7329 133.905 91.3872 133.433C91.0415 132.958 90.8687 132.314 90.8687 131.5C90.8687 130.691 91.0781 130.035 91.4971 129.531C91.916 129.024 92.436 128.771 93.0571 128.771C93.2798 128.771 93.4834 128.795 93.668 128.845C93.8525 128.895 94.1265 129.015 94.4897 129.206V127.083H95.8389V134ZM94.4897 132.695V129.939C94.1968 129.813 93.9243 129.75 93.6724 129.75C92.7349 129.75 92.2661 130.322 92.2661 131.464C92.2661 132.042 92.3628 132.459 92.5562 132.717C92.7495 132.972 93.0527 133.099 93.4658 133.099C93.7764 133.099 94.1177 132.964 94.4897 132.695ZM103.626 134H100.014V133.011H101.095V128.366H100.014V127.377H103.626V128.366H102.545V133.011H103.626V134ZM108.53 133.75C107.962 134.007 107.448 134.136 106.988 134.136C106.097 134.136 105.403 133.906 104.905 133.446C104.407 132.986 104.158 132.33 104.158 131.478C104.158 130.619 104.41 129.954 104.914 129.482C105.417 129.008 106.091 128.771 106.935 128.771C107.486 128.771 108.018 128.901 108.53 129.162V130.401H108.46C107.962 129.956 107.471 129.733 106.988 129.733C106.54 129.733 106.191 129.887 105.942 130.194C105.693 130.502 105.568 130.93 105.568 131.478C105.568 132.025 105.693 132.446 105.942 132.739C106.194 133.029 106.55 133.174 107.01 133.174C107.499 133.174 107.982 132.951 108.46 132.506H108.53V133.75ZM111.69 134.158C110.864 134.158 110.222 133.921 109.765 133.446C109.308 132.969 109.08 132.307 109.08 131.46C109.08 130.61 109.31 129.947 109.77 129.469C110.232 128.992 110.873 128.753 111.69 128.753C112.513 128.753 113.153 128.992 113.61 129.469C114.07 129.947 114.3 130.61 114.3 131.46C114.3 132.307 114.07 132.969 113.61 133.446C113.153 133.921 112.513 134.158 111.69 134.158ZM111.69 129.693C110.89 129.693 110.49 130.287 110.49 131.473C110.49 132.636 110.896 133.218 111.708 133.218C112.496 133.218 112.89 132.636 112.89 131.473C112.89 130.287 112.49 129.693 111.69 129.693ZM120.075 134H118.717V131.464C118.717 130.755 118.638 130.316 118.479 130.146C118.324 129.973 118.071 129.887 117.719 129.887C117.426 129.887 117.073 130.017 116.66 130.278V134H115.311V128.911H116.66V129.623C117.082 129.277 117.419 129.049 117.671 128.938C117.926 128.826 118.191 128.771 118.466 128.771C119.539 128.771 120.075 129.399 120.075 130.656V134Z" fill="white"/>
<rect x="16" y="61" width="115" height="16" rx="1" fill="#282828"/>
<path d="M29.7788 72H25.1821V65.3774H26.6323V70.9014H29.7788V72ZM31.9233 66.2739H30.4775V65.083H31.9233V66.2739ZM31.875 72H30.5259V66.9111H31.875V72ZM32.9297 71.7583V70.5103H32.9824C33.5889 70.9995 34.2275 71.2441 34.8984 71.2441C35.5781 71.2441 35.918 71.0596 35.918 70.6904C35.918 70.541 35.8652 70.4282 35.7598 70.3521C35.6543 70.2729 35.4639 70.2026 35.1885 70.1411C34.998 70.106 34.7271 70.0488 34.3755 69.9697C34.0239 69.8906 33.7471 69.7808 33.5449 69.6401C33.3457 69.4995 33.1978 69.3296 33.1011 69.1304C33.0044 68.9312 32.9561 68.7012 32.9561 68.4404C32.9561 67.9453 33.1714 67.5439 33.6021 67.2363C34.0327 66.9258 34.6113 66.7705 35.3379 66.7705C35.9795 66.7705 36.5581 66.8833 37.0737 67.1089V68.2954H37.0386C36.4497 67.8765 35.8799 67.667 35.3291 67.667C35.0449 67.667 34.8076 67.7197 34.6172 67.8252C34.4268 67.9307 34.3315 68.0625 34.3315 68.2207C34.3315 68.3994 34.3901 68.5298 34.5073 68.6118C34.6274 68.6909 34.8267 68.7627 35.105 68.8271C35.4595 68.8916 35.8125 68.9692 36.1641 69.0601C36.5156 69.1509 36.7925 69.312 36.9946 69.5435C37.1968 69.772 37.2979 70.0679 37.2979 70.4312C37.2979 70.9497 37.0781 71.3643 36.6387 71.6748C36.2021 71.9854 35.6118 72.1406 34.8677 72.1406C34.1294 72.1406 33.4834 72.0132 32.9297 71.7583ZM41.2266 71.9692C40.8662 72.0571 40.481 72.1011 40.0708 72.1011C39.4644 72.1011 39.0205 71.9722 38.7393 71.7144C38.458 71.4536 38.3174 71.0332 38.3174 70.4531V67.8032H37.6494V66.9111H38.3218V65.4829H39.6665V66.9111H41.2266V67.8032H39.6665V69.8994C39.6665 70.4385 39.7354 70.79 39.873 70.9541C40.0107 71.1182 40.2422 71.2002 40.5674 71.2002C40.7754 71.2002 40.9819 71.1489 41.187 71.0464H41.2266V71.9692ZM43.4106 71.6396L43.3228 72H42.0571V65.083H43.4062V67.5923C43.7988 67.2612 44.1182 67.0415 44.3643 66.9331C44.6133 66.8247 44.8755 66.7705 45.1509 66.7705C45.7485 66.7705 46.21 67.0005 46.5352 67.4604C46.8633 67.9204 47.0273 68.5664 47.0273 69.3984C47.0273 70.2129 46.8193 70.8735 46.4033 71.3804C45.9873 71.8872 45.4688 72.1406 44.8477 72.1406C44.4023 72.1406 43.9233 71.9736 43.4106 71.6396ZM43.4062 68.1724V70.9937C43.7051 71.105 43.979 71.1606 44.228 71.1606C45.1626 71.1606 45.6299 70.585 45.6299 69.4336C45.6299 68.3525 45.2388 67.812 44.4565 67.812C44.1372 67.812 43.7871 67.9321 43.4062 68.1724ZM50.2749 72.1582C49.4487 72.1582 48.8071 71.9209 48.3501 71.4463C47.8931 70.9688 47.6646 70.3066 47.6646 69.46C47.6646 68.6104 47.8945 67.9468 48.3545 67.4692C48.8174 66.9917 49.4575 66.7529 50.2749 66.7529C51.0981 66.7529 51.7383 66.9917 52.1953 67.4692C52.6553 67.9468 52.8853 68.6104 52.8853 69.46C52.8853 70.3066 52.6553 70.9688 52.1953 71.4463C51.7383 71.9209 51.0981 72.1582 50.2749 72.1582ZM50.2749 67.6934C49.4751 67.6934 49.0752 68.2866 49.0752 69.4731C49.0752 70.6362 49.481 71.2178 50.2925 71.2178C51.0806 71.2178 51.4746 70.6362 51.4746 69.4731C51.4746 68.2866 51.0747 67.6934 50.2749 67.6934ZM58.7651 72H57.1611L55.9702 70.3169L54.7617 72H53.2412L55.188 69.46L53.2676 66.9111H54.8672L56.0405 68.5635L57.2227 66.9111H58.7476L56.814 69.4204L58.7651 72ZM62.6675 72V65.3774H65.0493C66.0571 65.3774 66.7412 65.5107 67.1016 65.7773C67.4648 66.041 67.6465 66.4146 67.6465 66.8979C67.6465 67.5366 67.333 68.001 66.7061 68.291V68.3262C67.6523 68.5254 68.1255 69.0718 68.1255 69.9653C68.1255 70.5894 67.8911 71.0845 67.4224 71.4507C66.9565 71.8169 66.2798 72 65.3921 72H62.6675ZM64.1089 66.4189V68.0229H64.6538C65.1021 68.0229 65.4199 67.9995 65.6074 67.9526C65.7949 67.9028 65.9341 67.8105 66.0249 67.6758C66.1157 67.5381 66.1611 67.3667 66.1611 67.1616C66.1611 66.9976 66.1201 66.8569 66.0381 66.7397C65.959 66.6226 65.8286 66.5405 65.647 66.4937C65.4653 66.4438 65.0991 66.4189 64.5483 66.4189H64.1089ZM64.1089 69.0073V70.9585H64.5615C64.9629 70.9585 65.272 70.9541 65.4888 70.9453C65.7056 70.9365 65.9019 70.894 66.0776 70.8179C66.2563 70.7417 66.3911 70.6318 66.4819 70.4883C66.5757 70.3447 66.6226 70.1704 66.6226 69.9653C66.6226 69.7427 66.5742 69.5596 66.4775 69.416C66.3838 69.2725 66.2461 69.1685 66.0645 69.104C65.8857 69.0396 65.4653 69.0073 64.8032 69.0073H64.1089ZM73.8867 72H72.5376V71.2881C72.1274 71.6221 71.7935 71.8477 71.5356 71.9648C71.2778 72.082 71.0098 72.1406 70.7314 72.1406C69.6592 72.1406 69.123 71.5122 69.123 70.2554V66.9111H70.481V69.4468C70.481 70.1558 70.5586 70.5967 70.7139 70.7695C70.8691 70.9424 71.1226 71.0288 71.4741 71.0288C71.7759 71.0288 72.1304 70.897 72.5376 70.6333V66.9111H73.8867V72ZM78.29 71.9692C77.9297 72.0571 77.5444 72.1011 77.1343 72.1011C76.5278 72.1011 76.084 71.9722 75.8027 71.7144C75.5215 71.4536 75.3809 71.0332 75.3809 70.4531V67.8032H74.7129V66.9111H75.3853V65.4829H76.73V66.9111H78.29V67.8032H76.73V69.8994C76.73 70.4385 76.7988 70.79 76.9365 70.9541C77.0742 71.1182 77.3057 71.2002 77.6309 71.2002C77.8389 71.2002 78.0454 71.1489 78.2505 71.0464H78.29V71.9692ZM82.1221 71.9692C81.7617 72.0571 81.3765 72.1011 80.9663 72.1011C80.3599 72.1011 79.916 71.9722 79.6348 71.7144C79.3535 71.4536 79.2129 71.0332 79.2129 70.4531V67.8032H78.5449V66.9111H79.2173V65.4829H80.562V66.9111H82.1221V67.8032H80.562V69.8994C80.562 70.4385 80.6309 70.79 80.7686 70.9541C80.9062 71.1182 81.1377 71.2002 81.4629 71.2002C81.6709 71.2002 81.8774 71.1489 82.0825 71.0464H82.1221V71.9692ZM85.1411 72.1582C84.3149 72.1582 83.6733 71.9209 83.2163 71.4463C82.7593 70.9688 82.5308 70.3066 82.5308 69.46C82.5308 68.6104 82.7607 67.9468 83.2207 67.4692C83.6836 66.9917 84.3237 66.7529 85.1411 66.7529C85.9644 66.7529 86.6045 66.9917 87.0615 67.4692C87.5215 67.9468 87.7515 68.6104 87.7515 69.46C87.7515 70.3066 87.5215 70.9688 87.0615 71.4463C86.6045 71.9209 85.9644 72.1582 85.1411 72.1582ZM85.1411 67.6934C84.3413 67.6934 83.9414 68.2866 83.9414 69.4731C83.9414 70.6362 84.3472 71.2178 85.1587 71.2178C85.9468 71.2178 86.3408 70.6362 86.3408 69.4731C86.3408 68.2866 85.9409 67.6934 85.1411 67.6934ZM93.5259 72H92.168V69.4644C92.168 68.7554 92.0889 68.3159 91.9307 68.146C91.7754 67.9731 91.522 67.8867 91.1704 67.8867C90.8774 67.8867 90.5244 68.0171 90.1113 68.2778V72H88.7622V66.9111H90.1113V67.623C90.5332 67.2773 90.8701 67.0488 91.1221 66.9375C91.377 66.8262 91.6421 66.7705 91.9175 66.7705C92.9897 66.7705 93.5259 67.3989 93.5259 68.6558V72ZM102.561 72H97.9644V65.3774H99.4146V70.9014H102.561V72ZM107.624 72H106.283V71.3364C105.87 71.6909 105.535 71.9121 105.277 72C105.022 72.0908 104.75 72.1362 104.459 72.1362C104.014 72.1362 103.645 71.9927 103.352 71.7056C103.059 71.4155 102.913 71.0435 102.913 70.5894C102.913 70.0151 103.128 69.5801 103.559 69.2842C103.992 68.9883 104.905 68.8037 106.296 68.7305V68.5942C106.296 68.2749 106.187 68.0435 105.967 67.8999C105.747 67.7563 105.384 67.6846 104.877 67.6846C104.531 67.6846 104.036 67.8164 103.392 68.0801H103.343V67.0122C104.023 66.8481 104.638 66.7661 105.189 66.7661C106.047 66.7661 106.667 66.9053 107.048 67.1836C107.432 67.459 107.624 67.8984 107.624 68.502V72ZM106.283 70.7607V69.4775C105.398 69.5508 104.845 69.665 104.622 69.8203C104.399 69.9727 104.288 70.1851 104.288 70.4575C104.288 70.7476 104.366 70.9497 104.521 71.064C104.676 71.1782 104.919 71.2354 105.25 71.2354C105.599 71.2354 105.943 71.0771 106.283 70.7607ZM110.331 71.6396L110.243 72H108.977V65.083H110.326V67.5923C110.719 67.2612 111.038 67.0415 111.284 66.9331C111.533 66.8247 111.795 66.7705 112.071 66.7705C112.668 66.7705 113.13 67.0005 113.455 67.4604C113.783 67.9204 113.947 68.5664 113.947 69.3984C113.947 70.2129 113.739 70.8735 113.323 71.3804C112.907 71.8872 112.389 72.1406 111.768 72.1406C111.322 72.1406 110.843 71.9736 110.331 71.6396ZM110.326 68.1724V70.9937C110.625 71.105 110.899 71.1606 111.148 71.1606C112.083 71.1606 112.55 70.585 112.55 69.4336C112.55 68.3525 112.159 67.812 111.376 67.812C111.057 67.812 110.707 67.9321 110.326 68.1724ZM119.555 69.6665H115.947C116.005 70.686 116.584 71.1958 117.683 71.1958C118.257 71.1958 118.834 70.9878 119.414 70.5718H119.462V71.7407C118.774 72.0044 118.126 72.1362 117.52 72.1362C116.565 72.1362 115.837 71.9092 115.336 71.4551C114.835 71.001 114.584 70.3462 114.584 69.4907C114.584 68.6411 114.822 67.9731 115.296 67.4868C115.771 66.9976 116.426 66.7529 117.261 66.7529C118.79 66.7529 119.555 67.5659 119.555 69.1919V69.6665ZM118.206 68.9019C118.194 68.0259 117.838 67.5879 117.138 67.5879C116.394 67.5879 115.997 68.0259 115.947 68.9019H118.206ZM121.901 72H120.552V65.083H121.901V72Z" fill="white"/>
<rect x="45" y="90" width="84" height="16" rx="1" fill="#282828"/>
<path d="M58.6816 101H54.085V94.3774H55.5352V99.9014H58.6816V101ZM60.8262 95.2739H59.3804V94.083H60.8262V95.2739ZM60.7778 101H59.4287V95.9111H60.7778V101ZM61.8325 100.758V99.5103H61.8853C62.4917 99.9995 63.1304 100.244 63.8013 100.244C64.481 100.244 64.8208 100.06 64.8208 99.6904C64.8208 99.541 64.7681 99.4282 64.6626 99.3521C64.5571 99.2729 64.3667 99.2026 64.0913 99.1411C63.9009 99.106 63.6299 99.0488 63.2783 98.9697C62.9268 98.8906 62.6499 98.7808 62.4478 98.6401C62.2485 98.4995 62.1006 98.3296 62.0039 98.1304C61.9072 97.9312 61.8589 97.7012 61.8589 97.4404C61.8589 96.9453 62.0742 96.5439 62.5049 96.2363C62.9355 95.9258 63.5142 95.7705 64.2407 95.7705C64.8823 95.7705 65.4609 95.8833 65.9766 96.1089V97.2954H65.9414C65.3525 96.8765 64.7827 96.667 64.2319 96.667C63.9478 96.667 63.7104 96.7197 63.52 96.8252C63.3296 96.9307 63.2344 97.0625 63.2344 97.2207C63.2344 97.3994 63.293 97.5298 63.4102 97.6118C63.5303 97.6909 63.7295 97.7627 64.0078 97.8271C64.3623 97.8916 64.7153 97.9692 65.0669 98.0601C65.4185 98.1509 65.6953 98.312 65.8975 98.5435C66.0996 98.772 66.2007 99.0679 66.2007 99.4312C66.2007 99.9497 65.981 100.364 65.5415 100.675C65.105 100.985 64.5146 101.141 63.7705 101.141C63.0322 101.141 62.3862 101.013 61.8325 100.758ZM70.1294 100.969C69.769 101.057 69.3838 101.101 68.9736 101.101C68.3672 101.101 67.9233 100.972 67.6421 100.714C67.3608 100.454 67.2202 100.033 67.2202 99.4531V96.8032H66.5522V95.9111H67.2246V94.4829H68.5693V95.9111H70.1294V96.8032H68.5693V98.8994C68.5693 99.4385 68.6382 99.79 68.7759 99.9541C68.9136 100.118 69.145 100.2 69.4702 100.2C69.6782 100.2 69.8848 100.149 70.0898 100.046H70.1294V100.969ZM72.3135 100.64L72.2256 101H70.96V94.083H72.3091V96.5923C72.7017 96.2612 73.021 96.0415 73.2671 95.9331C73.5161 95.8247 73.7783 95.7705 74.0537 95.7705C74.6514 95.7705 75.1128 96.0005 75.438 96.4604C75.7661 96.9204 75.9302 97.5664 75.9302 98.3984C75.9302 99.2129 75.7222 99.8735 75.3062 100.38C74.8901 100.887 74.3716 101.141 73.7505 101.141C73.3052 101.141 72.8262 100.974 72.3135 100.64ZM72.3091 97.1724V99.9937C72.6079 100.105 72.8818 100.161 73.1309 100.161C74.0654 100.161 74.5327 99.585 74.5327 98.4336C74.5327 97.3525 74.1416 96.812 73.3594 96.812C73.04 96.812 72.6899 96.9321 72.3091 97.1724ZM79.1777 101.158C78.3516 101.158 77.71 100.921 77.2529 100.446C76.7959 99.9688 76.5674 99.3066 76.5674 98.46C76.5674 97.6104 76.7974 96.9468 77.2573 96.4692C77.7202 95.9917 78.3604 95.7529 79.1777 95.7529C80.001 95.7529 80.6411 95.9917 81.0981 96.4692C81.5581 96.9468 81.7881 97.6104 81.7881 98.46C81.7881 99.3066 81.5581 99.9688 81.0981 100.446C80.6411 100.921 80.001 101.158 79.1777 101.158ZM79.1777 96.6934C78.3779 96.6934 77.978 97.2866 77.978 98.4731C77.978 99.6362 78.3838 100.218 79.1953 100.218C79.9834 100.218 80.3774 99.6362 80.3774 98.4731C80.3774 97.2866 79.9775 96.6934 79.1777 96.6934ZM87.668 101H86.064L84.873 99.3169L83.6646 101H82.144L84.0908 98.46L82.1704 95.9111H83.77L84.9434 97.5635L86.1255 95.9111H87.6504L85.7168 98.4204L87.668 101ZM93.0205 98.7456V101H91.5703V94.3774H94.0752C94.9336 94.3774 95.5854 94.5532 96.0308 94.9048C96.4761 95.2534 96.6987 95.7646 96.6987 96.4385C96.6987 97.1416 96.4526 97.7026 95.9604 98.1216C95.4683 98.5376 94.8267 98.7456 94.0356 98.7456H93.0205ZM93.0117 95.4189V97.6953H93.3984C94.125 97.6953 94.6055 97.5957 94.8398 97.3965C95.0771 97.1943 95.1958 96.8853 95.1958 96.4692C95.1958 96.1265 95.0815 95.8657 94.853 95.687C94.6274 95.5083 94.1792 95.4189 93.5083 95.4189H93.0117ZM99.665 101.158C98.8389 101.158 98.1973 100.921 97.7402 100.446C97.2832 99.9688 97.0547 99.3066 97.0547 98.46C97.0547 97.6104 97.2847 96.9468 97.7446 96.4692C98.2075 95.9917 98.8477 95.7529 99.665 95.7529C100.488 95.7529 101.128 95.9917 101.585 96.4692C102.045 96.9468 102.275 97.6104 102.275 98.46C102.275 99.3066 102.045 99.9688 101.585 100.446C101.128 100.921 100.488 101.158 99.665 101.158ZM99.665 96.6934C98.8652 96.6934 98.4653 97.2866 98.4653 98.4731C98.4653 99.6362 98.8711 100.218 99.6826 100.218C100.471 100.218 100.865 99.6362 100.865 98.4731C100.865 97.2866 100.465 96.6934 99.665 96.6934ZM104.635 100.64V102.833H103.286V95.9111H104.635V96.5923C105.028 96.2612 105.347 96.0415 105.593 95.9331C105.842 95.8247 106.104 95.7705 106.38 95.7705C106.975 95.7705 107.436 95.999 107.764 96.4561C108.092 96.9131 108.256 97.5518 108.256 98.3721C108.256 99.1777 108.048 99.8311 107.632 100.332C107.216 100.83 106.698 101.079 106.077 101.079C105.643 101.079 105.163 100.933 104.635 100.64ZM104.635 97.1724V99.9761C104.875 100.076 105.149 100.125 105.457 100.125C106.392 100.125 106.859 99.5586 106.859 98.4248C106.859 97.3496 106.468 96.812 105.686 96.812C105.366 96.812 105.016 96.9321 104.635 97.1724ZM114.004 101H112.655V100.288C112.245 100.622 111.911 100.848 111.653 100.965C111.396 101.082 111.127 101.141 110.849 101.141C109.777 101.141 109.241 100.512 109.241 99.2554V95.9111H110.599V98.4468C110.599 99.1558 110.676 99.5967 110.832 99.7695C110.987 99.9424 111.24 100.029 111.592 100.029C111.894 100.029 112.248 99.897 112.655 99.6333V95.9111H114.004V101ZM116.755 100.64V102.833H115.406V95.9111H116.755V96.5923C117.148 96.2612 117.467 96.0415 117.713 95.9331C117.962 95.8247 118.225 95.7705 118.5 95.7705C119.095 95.7705 119.556 95.999 119.884 96.4561C120.212 96.9131 120.376 97.5518 120.376 98.3721C120.376 99.1777 120.168 99.8311 119.752 100.332C119.336 100.83 118.818 101.079 118.197 101.079C117.763 101.079 117.283 100.933 116.755 100.64ZM116.755 97.1724V99.9761C116.996 100.076 117.27 100.125 117.577 100.125C118.512 100.125 118.979 99.5586 118.979 98.4248C118.979 97.3496 118.588 96.812 117.806 96.812C117.486 96.812 117.136 96.9321 116.755 97.1724Z" fill="white"/>
<line x1="305" y1="59" x2="305" y2="32" stroke="#282828" stroke-width="2"/>
<line x1="145" y1="98" x2="129" y2="98" stroke="#282828" stroke-width="2"/>
<line x1="152" y1="131" x2="129" y2="131" stroke="#282828" stroke-width="2"/>
<line x1="170" y1="69" x2="129" y2="69" stroke="#282828" stroke-width="2"/>
<line x1="165" y1="200" x2="130" y2="200" stroke="#282828" stroke-width="2"/>
<line x1="155" y1="183" x2="130" y2="183" stroke="#282828" stroke-width="2"/>
<line x1="145" y1="53" x2="128" y2="53" stroke="#282828" stroke-width="2"/>
<rect x="44" y="175" width="86" height="16" rx="1" fill="#282828"/>
<path d="M57.7588 186H53.1621V179.377H54.6123V184.901H57.7588V186ZM59.9033 180.274H58.4575V179.083H59.9033V180.274ZM59.855 186H58.5059V180.911H59.855V186ZM60.9097 185.758V184.51H60.9624C61.5688 185 62.2075 185.244 62.8784 185.244C63.5581 185.244 63.8979 185.06 63.8979 184.69C63.8979 184.541 63.8452 184.428 63.7397 184.352C63.6343 184.273 63.4438 184.203 63.1685 184.141C62.978 184.106 62.707 184.049 62.3555 183.97C62.0039 183.891 61.7271 183.781 61.5249 183.64C61.3257 183.5 61.1777 183.33 61.0811 183.13C60.9844 182.931 60.936 182.701 60.936 182.44C60.936 181.945 61.1514 181.544 61.582 181.236C62.0127 180.926 62.5913 180.771 63.3179 180.771C63.9595 180.771 64.5381 180.883 65.0537 181.109V182.295H65.0186C64.4297 181.876 63.8599 181.667 63.3091 181.667C63.0249 181.667 62.7876 181.72 62.5972 181.825C62.4067 181.931 62.3115 182.062 62.3115 182.221C62.3115 182.399 62.3701 182.53 62.4873 182.612C62.6074 182.691 62.8066 182.763 63.085 182.827C63.4395 182.892 63.7925 182.969 64.144 183.06C64.4956 183.151 64.7725 183.312 64.9746 183.543C65.1768 183.772 65.2778 184.068 65.2778 184.431C65.2778 184.95 65.0581 185.364 64.6187 185.675C64.1821 185.985 63.5918 186.141 62.8477 186.141C62.1094 186.141 61.4634 186.013 60.9097 185.758ZM69.2065 185.969C68.8462 186.057 68.4609 186.101 68.0508 186.101C67.4443 186.101 67.0005 185.972 66.7192 185.714C66.438 185.454 66.2974 185.033 66.2974 184.453V181.803H65.6294V180.911H66.3018V179.483H67.6465V180.911H69.2065V181.803H67.6465V183.899C67.6465 184.438 67.7153 184.79 67.853 184.954C67.9907 185.118 68.2222 185.2 68.5474 185.2C68.7554 185.2 68.9619 185.149 69.167 185.046H69.2065V185.969ZM71.3906 185.64L71.3027 186H70.0371V179.083H71.3862V181.592C71.7788 181.261 72.0981 181.042 72.3442 180.933C72.5933 180.825 72.8555 180.771 73.1309 180.771C73.7285 180.771 74.1899 181 74.5151 181.46C74.8433 181.92 75.0073 182.566 75.0073 183.398C75.0073 184.213 74.7993 184.874 74.3833 185.38C73.9673 185.887 73.4487 186.141 72.8276 186.141C72.3823 186.141 71.9033 185.974 71.3906 185.64ZM71.3862 182.172V184.994C71.6851 185.105 71.959 185.161 72.208 185.161C73.1426 185.161 73.6099 184.585 73.6099 183.434C73.6099 182.353 73.2188 181.812 72.4365 181.812C72.1172 181.812 71.7671 181.932 71.3862 182.172ZM78.2549 186.158C77.4287 186.158 76.7871 185.921 76.3301 185.446C75.873 184.969 75.6445 184.307 75.6445 183.46C75.6445 182.61 75.8745 181.947 76.3345 181.469C76.7974 180.992 77.4375 180.753 78.2549 180.753C79.0781 180.753 79.7183 180.992 80.1753 181.469C80.6353 181.947 80.8652 182.61 80.8652 183.46C80.8652 184.307 80.6353 184.969 80.1753 185.446C79.7183 185.921 79.0781 186.158 78.2549 186.158ZM78.2549 181.693C77.4551 181.693 77.0552 182.287 77.0552 183.473C77.0552 184.636 77.4609 185.218 78.2725 185.218C79.0605 185.218 79.4546 184.636 79.4546 183.473C79.4546 182.287 79.0547 181.693 78.2549 181.693ZM86.7451 186H85.1411L83.9502 184.317L82.7417 186H81.2212L83.168 183.46L81.2476 180.911H82.8472L84.0205 182.563L85.2026 180.911H86.7275L84.7939 183.42L86.7451 186ZM93.4644 186.141C92.4565 186.141 91.6641 185.834 91.0869 185.222C90.5127 184.607 90.2256 183.765 90.2256 182.695C90.2256 181.62 90.5112 180.776 91.0825 180.164C91.6567 179.549 92.4507 179.241 93.4644 179.241C94.4751 179.241 95.2676 179.549 95.8418 180.164C96.4189 180.779 96.7075 181.623 96.7075 182.695C96.7075 183.759 96.4204 184.6 95.8462 185.218C95.2749 185.833 94.481 186.141 93.4644 186.141ZM93.4688 180.287C92.9443 180.287 92.5269 180.497 92.2163 180.916C91.9058 181.334 91.7505 181.928 91.7505 182.695C91.7505 183.46 91.9058 184.052 92.2163 184.471C92.5269 184.887 92.9443 185.095 93.4688 185.095C93.9902 185.095 94.4062 184.885 94.7168 184.466C95.0273 184.044 95.1826 183.453 95.1826 182.691C95.1826 181.926 95.0273 181.334 94.7168 180.916C94.4092 180.497 93.9932 180.287 93.4688 180.287ZM99.1245 185.64V187.833H97.7754V180.911H99.1245V181.592C99.5171 181.261 99.8364 181.042 100.083 180.933C100.332 180.825 100.594 180.771 100.869 180.771C101.464 180.771 101.925 180.999 102.253 181.456C102.582 181.913 102.746 182.552 102.746 183.372C102.746 184.178 102.538 184.831 102.122 185.332C101.706 185.83 101.187 186.079 100.566 186.079C100.132 186.079 99.6519 185.933 99.1245 185.64ZM99.1245 182.172V184.976C99.3647 185.076 99.6387 185.125 99.9463 185.125C100.881 185.125 101.348 184.559 101.348 183.425C101.348 182.35 100.957 181.812 100.175 181.812C99.8555 181.812 99.5054 181.932 99.1245 182.172ZM106.771 185.969C106.411 186.057 106.025 186.101 105.615 186.101C105.009 186.101 104.565 185.972 104.284 185.714C104.002 185.454 103.862 185.033 103.862 184.453V181.803H103.194V180.911H103.866V179.483H105.211V180.911H106.771V181.803H105.211V183.899C105.211 184.438 105.28 184.79 105.417 184.954C105.555 185.118 105.787 185.2 106.112 185.2C106.32 185.2 106.526 185.149 106.731 185.046H106.771V185.969ZM108.999 180.274H107.553V179.083H108.999V180.274ZM108.951 186H107.602V180.911H108.951V186ZM112.576 186.158C111.75 186.158 111.108 185.921 110.651 185.446C110.194 184.969 109.966 184.307 109.966 183.46C109.966 182.61 110.196 181.947 110.656 181.469C111.119 180.992 111.759 180.753 112.576 180.753C113.399 180.753 114.04 180.992 114.497 181.469C114.957 181.947 115.187 182.61 115.187 183.46C115.187 184.307 114.957 184.969 114.497 185.446C114.04 185.921 113.399 186.158 112.576 186.158ZM112.576 181.693C111.776 181.693 111.376 182.287 111.376 183.473C111.376 184.636 111.782 185.218 112.594 185.218C113.382 185.218 113.776 184.636 113.776 183.473C113.776 182.287 113.376 181.693 112.576 181.693ZM120.961 186H119.603V183.464C119.603 182.755 119.524 182.316 119.366 182.146C119.21 181.973 118.957 181.887 118.605 181.887C118.312 181.887 117.959 182.017 117.546 182.278V186H116.197V180.911H117.546V181.623C117.968 181.277 118.305 181.049 118.557 180.938C118.812 180.826 119.077 180.771 119.353 180.771C120.425 180.771 120.961 181.399 120.961 182.656V186Z" fill="white"/>
<rect x="16" y="196" width="114" height="16" rx="1" fill="#282828"/>
<path d="M29.5513 207H24.9546V200.377H26.4048V205.901H29.5513V207ZM31.6958 201.274H30.25V200.083H31.6958V201.274ZM31.6475 207H30.2983V201.911H31.6475V207ZM32.7021 206.758V205.51H32.7549C33.3613 206 34 206.244 34.6709 206.244C35.3506 206.244 35.6904 206.06 35.6904 205.69C35.6904 205.541 35.6377 205.428 35.5322 205.352C35.4268 205.273 35.2363 205.203 34.9609 205.141C34.7705 205.106 34.4995 205.049 34.1479 204.97C33.7964 204.891 33.5195 204.781 33.3174 204.64C33.1182 204.5 32.9702 204.33 32.8735 204.13C32.7769 203.931 32.7285 203.701 32.7285 203.44C32.7285 202.945 32.9438 202.544 33.3745 202.236C33.8052 201.926 34.3838 201.771 35.1104 201.771C35.752 201.771 36.3306 201.883 36.8462 202.109V203.295H36.811C36.2222 202.876 35.6523 202.667 35.1016 202.667C34.8174 202.667 34.5801 202.72 34.3896 202.825C34.1992 202.931 34.104 203.062 34.104 203.221C34.104 203.399 34.1626 203.53 34.2798 203.612C34.3999 203.691 34.5991 203.763 34.8774 203.827C35.2319 203.892 35.585 203.969 35.9365 204.06C36.2881 204.151 36.5649 204.312 36.7671 204.543C36.9692 204.772 37.0703 205.068 37.0703 205.431C37.0703 205.95 36.8506 206.364 36.4111 206.675C35.9746 206.985 35.3843 207.141 34.6401 207.141C33.9019 207.141 33.2559 207.013 32.7021 206.758ZM40.999 206.969C40.6387 207.057 40.2534 207.101 39.8433 207.101C39.2368 207.101 38.793 206.972 38.5117 206.714C38.2305 206.454 38.0898 206.033 38.0898 205.453V202.803H37.4219V201.911H38.0942V200.483H39.439V201.911H40.999V202.803H39.439V204.899C39.439 205.438 39.5078 205.79 39.6455 205.954C39.7832 206.118 40.0146 206.2 40.3398 206.2C40.5479 206.2 40.7544 206.149 40.9595 206.046H40.999V206.969ZM43.1831 206.64L43.0952 207H41.8296V200.083H43.1787V202.592C43.5713 202.261 43.8906 202.042 44.1367 201.933C44.3857 201.825 44.6479 201.771 44.9233 201.771C45.521 201.771 45.9824 202 46.3076 202.46C46.6357 202.92 46.7998 203.566 46.7998 204.398C46.7998 205.213 46.5918 205.874 46.1758 206.38C45.7598 206.887 45.2412 207.141 44.6201 207.141C44.1748 207.141 43.6958 206.974 43.1831 206.64ZM43.1787 203.172V205.994C43.4775 206.105 43.7515 206.161 44.0005 206.161C44.9351 206.161 45.4023 205.585 45.4023 204.434C45.4023 203.353 45.0112 202.812 44.229 202.812C43.9097 202.812 43.5596 202.932 43.1787 203.172ZM50.0474 207.158C49.2212 207.158 48.5796 206.921 48.1226 206.446C47.6655 205.969 47.437 205.307 47.437 204.46C47.437 203.61 47.667 202.947 48.127 202.469C48.5898 201.992 49.23 201.753 50.0474 201.753C50.8706 201.753 51.5107 201.992 51.9678 202.469C52.4277 202.947 52.6577 203.61 52.6577 204.46C52.6577 205.307 52.4277 205.969 51.9678 206.446C51.5107 206.921 50.8706 207.158 50.0474 207.158ZM50.0474 202.693C49.2476 202.693 48.8477 203.287 48.8477 204.473C48.8477 205.636 49.2534 206.218 50.0649 206.218C50.853 206.218 51.2471 205.636 51.2471 204.473C51.2471 203.287 50.8472 202.693 50.0474 202.693ZM58.5376 207H56.9336L55.7427 205.317L54.5342 207H53.0137L54.9604 204.46L53.04 201.911H54.6396L55.813 203.563L56.9951 201.911H58.52L56.5864 204.42L58.5376 207ZM65.2568 207.141C64.249 207.141 63.4565 206.834 62.8794 206.222C62.3052 205.607 62.0181 204.765 62.0181 203.695C62.0181 202.62 62.3037 201.776 62.875 201.164C63.4492 200.549 64.2432 200.241 65.2568 200.241C66.2676 200.241 67.0601 200.549 67.6343 201.164C68.2114 201.779 68.5 202.623 68.5 203.695C68.5 204.759 68.2129 205.6 67.6387 206.218C67.0674 206.833 66.2734 207.141 65.2568 207.141ZM65.2612 201.287C64.7368 201.287 64.3193 201.497 64.0088 201.916C63.6982 202.334 63.543 202.928 63.543 203.695C63.543 204.46 63.6982 205.052 64.0088 205.471C64.3193 205.887 64.7368 206.095 65.2612 206.095C65.7827 206.095 66.1987 205.885 66.5093 205.466C66.8198 205.044 66.9751 204.453 66.9751 203.691C66.9751 202.926 66.8198 202.334 66.5093 201.916C66.2017 201.497 65.7856 201.287 65.2612 201.287ZM70.917 206.64V208.833H69.5679V201.911H70.917V202.592C71.3096 202.261 71.6289 202.042 71.875 201.933C72.124 201.825 72.3862 201.771 72.6616 201.771C73.2563 201.771 73.7178 201.999 74.0459 202.456C74.374 202.913 74.5381 203.552 74.5381 204.372C74.5381 205.178 74.3301 205.831 73.9141 206.332C73.498 206.83 72.9795 207.079 72.3584 207.079C71.9248 207.079 71.4443 206.933 70.917 206.64ZM70.917 203.172V205.976C71.1572 206.076 71.4312 206.125 71.7388 206.125C72.6733 206.125 73.1406 205.559 73.1406 204.425C73.1406 203.35 72.7495 202.812 71.9673 202.812C71.6479 202.812 71.2979 202.932 70.917 203.172ZM78.5635 206.969C78.2031 207.057 77.8179 207.101 77.4077 207.101C76.8013 207.101 76.3574 206.972 76.0762 206.714C75.7949 206.454 75.6543 206.033 75.6543 205.453V202.803H74.9863V201.911H75.6587V200.483H77.0034V201.911H78.5635V202.803H77.0034V204.899C77.0034 205.438 77.0723 205.79 77.21 205.954C77.3477 206.118 77.5791 206.2 77.9043 206.2C78.1123 206.2 78.3188 206.149 78.5239 206.046H78.5635V206.969ZM80.7915 201.274H79.3457V200.083H80.7915V201.274ZM80.7432 207H79.394V201.911H80.7432V207ZM84.3687 207.158C83.5425 207.158 82.9009 206.921 82.4438 206.446C81.9868 205.969 81.7583 205.307 81.7583 204.46C81.7583 203.61 81.9883 202.947 82.4482 202.469C82.9111 201.992 83.5513 201.753 84.3687 201.753C85.1919 201.753 85.832 201.992 86.2891 202.469C86.749 202.947 86.979 203.61 86.979 204.46C86.979 205.307 86.749 205.969 86.2891 206.446C85.832 206.921 85.1919 207.158 84.3687 207.158ZM84.3687 202.693C83.5688 202.693 83.1689 203.287 83.1689 204.473C83.1689 205.636 83.5747 206.218 84.3862 206.218C85.1743 206.218 85.5684 205.636 85.5684 204.473C85.5684 203.287 85.1685 202.693 84.3687 202.693ZM92.7534 207H91.3955V204.464C91.3955 203.755 91.3164 203.316 91.1582 203.146C91.0029 202.973 90.7495 202.887 90.3979 202.887C90.105 202.887 89.752 203.017 89.3389 203.278V207H87.9897V201.911H89.3389V202.623C89.7607 202.277 90.0977 202.049 90.3496 201.938C90.6045 201.826 90.8696 201.771 91.145 201.771C92.2173 201.771 92.7534 202.399 92.7534 203.656V207ZM101.789 207H97.1919V200.377H98.6421V205.901H101.789V207ZM106.851 207H105.511V206.336C105.098 206.691 104.762 206.912 104.504 207C104.25 207.091 103.977 207.136 103.687 207.136C103.242 207.136 102.873 206.993 102.58 206.706C102.287 206.416 102.14 206.043 102.14 205.589C102.14 205.015 102.355 204.58 102.786 204.284C103.22 203.988 104.132 203.804 105.524 203.73V203.594C105.524 203.275 105.414 203.043 105.194 202.9C104.975 202.756 104.611 202.685 104.104 202.685C103.759 202.685 103.264 202.816 102.619 203.08H102.571V202.012C103.25 201.848 103.866 201.766 104.417 201.766C105.275 201.766 105.895 201.905 106.275 202.184C106.659 202.459 106.851 202.898 106.851 203.502V207ZM105.511 205.761V204.478C104.626 204.551 104.072 204.665 103.85 204.82C103.627 204.973 103.516 205.185 103.516 205.458C103.516 205.748 103.593 205.95 103.749 206.064C103.904 206.178 104.147 206.235 104.478 206.235C104.827 206.235 105.171 206.077 105.511 205.761ZM109.558 206.64L109.47 207H108.205V200.083H109.554V202.592C109.946 202.261 110.266 202.042 110.512 201.933C110.761 201.825 111.023 201.771 111.298 201.771C111.896 201.771 112.357 202 112.683 202.46C113.011 202.92 113.175 203.566 113.175 204.398C113.175 205.213 112.967 205.874 112.551 206.38C112.135 206.887 111.616 207.141 110.995 207.141C110.55 207.141 110.071 206.974 109.558 206.64ZM109.554 203.172V205.994C109.853 206.105 110.126 206.161 110.375 206.161C111.31 206.161 111.777 205.585 111.777 204.434C111.777 203.353 111.386 202.812 110.604 202.812C110.285 202.812 109.935 202.932 109.554 203.172ZM118.782 204.667H115.174C115.233 205.686 115.812 206.196 116.91 206.196C117.484 206.196 118.062 205.988 118.642 205.572H118.69V206.741C118.001 207.004 117.354 207.136 116.748 207.136C115.792 207.136 115.064 206.909 114.563 206.455C114.062 206.001 113.812 205.346 113.812 204.491C113.812 203.641 114.049 202.973 114.524 202.487C114.999 201.998 115.653 201.753 116.488 201.753C118.018 201.753 118.782 202.566 118.782 204.192V204.667ZM117.433 203.902C117.421 203.026 117.065 202.588 116.365 202.588C115.621 202.588 115.224 203.026 115.174 203.902H117.433ZM121.129 207H119.78V200.083H121.129V207Z" fill="white"/>
<defs>
<filter id="filter0_d_362_615" x="135" y="73" width="217" height="186" filterUnits="userSpaceOnUse" color-interpolation-filters="sRGB">
<feFlood flood-opacity="0" result="BackgroundImageFix"/>
<feColorMatrix in="SourceAlpha" type="matrix" values="0 0 0 0 0 0 0 0 0 0 0 0 0 0 0 0 0 0 127 0" result="hardAlpha"/>
<feOffset dy="5"/>
<feGaussianBlur stdDeviation="5"/>
<feColorMatrix type="matrix" values="0 0 0 0 0 0 0 0 0 0 0 0 0 0 0 0 0 0 0.1 0"/>
<feBlend mode="normal" in2="BackgroundImageFix" result="effect1_dropShadow_362_615"/>
<feBlend mode="normal" in="SourceGraphic" in2="effect1_dropShadow_362_615" result="shape"/>
</filter>
<filter id="filter1_i_362_615" x="146" y="46" width="176" height="33" filterUnits="userSpaceOnUse" color-interpolation-filters="sRGB">
<feFlood flood-opacity="0" result="BackgroundImageFix"/>
<feBlend mode="normal" in="SourceGraphic" in2="BackgroundImageFix" result="shape"/>
<feColorMatrix in="SourceAlpha" type="matrix" values="0 0 0 0 0 0 0 0 0 0 0 0 0 0 0 0 0 0 127 0" result="hardAlpha"/>
<feOffset dx="1" dy="1"/>
<feGaussianBlur stdDeviation="0.5"/>
<feComposite in2="hardAlpha" operator="arithmetic" k2="-1" k3="1"/>
<feColorMatrix type="matrix" values="0 0 0 0 1 0 0 0 0 1 0 0 0 0 1 0 0 0 1 0"/>
<feBlend mode="normal" in2="shape" result="effect1_innerShadow_362_615"/>
</filter>
</defs>
</svg>
