<svg width="75" height="142" viewBox="0 0 75 142" fill="none" xmlns="http://www.w3.org/2000/svg">
<rect x="0.5" y="35.5" width="74" height="71" fill="url(#paint0_linear_505_1046)"/>
<path d="M27.6025 75.1504C26.0075 75.1504 25.21 74.2731 25.21 72.5186V68.2598H24.3281V67.2754H25.2168V65.0537H26.4131V67.2754H29.1201V68.2598H26.4131V71.835C26.4131 72.6462 26.4678 73.1725 26.5771 73.4141C26.6911 73.651 26.862 73.8265 27.0898 73.9404C27.3177 74.0498 27.6094 74.1045 27.9648 74.1045C28.3021 74.1045 28.6735 74.0225 29.0791 73.8584H29.1201V74.9521C28.5778 75.0843 28.0719 75.1504 27.6025 75.1504ZM31.1299 70.3379H35.6621C35.6257 68.8021 34.9215 68.0342 33.5498 68.0342C32.8571 68.0342 32.2965 68.2393 31.8682 68.6494C31.4398 69.0596 31.1937 69.6224 31.1299 70.3379ZM33.9531 75.1777C32.668 75.1777 31.6699 74.8314 30.959 74.1387C30.2526 73.4414 29.8994 72.457 29.8994 71.1855C29.8994 69.9232 30.2389 68.9206 30.918 68.1777C31.597 67.4303 32.4971 67.0566 33.6182 67.0566C34.639 67.0566 35.4297 67.362 35.9902 67.9727C36.5553 68.5833 36.8379 69.4538 36.8379 70.584V71.2471H31.1299C31.1299 72.1768 31.3805 72.8923 31.8818 73.3936C32.3877 73.8903 33.085 74.1387 33.9736 74.1387C34.8577 74.1387 35.7419 73.8311 36.626 73.2158H36.6807V74.5215C35.5824 74.959 34.6732 75.1777 33.9531 75.1777ZM44.8838 75H43.4277L41.2471 71.999L39.0117 75H37.665L40.6045 71.165L37.6924 67.2754H39.1484L41.3154 70.2559L43.5303 67.2754H44.8838L41.958 71.0898L44.8838 75ZM48.7666 75.1504C47.1715 75.1504 46.374 74.2731 46.374 72.5186V68.2598H45.4922V67.2754H46.3809V65.0537H47.5771V67.2754H50.2842V68.2598H47.5771V71.835C47.5771 72.6462 47.6318 73.1725 47.7412 73.4141C47.8551 73.651 48.026 73.8265 48.2539 73.9404C48.4818 74.0498 48.7734 74.1045 49.1289 74.1045C49.4661 74.1045 49.8376 74.0225 50.2432 73.8584H50.2842V74.9521C49.7419 75.0843 49.236 75.1504 48.7666 75.1504Z" fill="black"/>
<rect x="0.5" y="35.5" width="74" height="71" stroke="#D4D7D7"/>
<rect x="3" y="118" width="68" height="24" rx="2" fill="#282828"/>
<path d="M17.686 133H16.2358V129.985H13.4541V133H12.0039V126.377H13.4541V128.896H16.2358V126.377H17.686V133ZM23.7593 130.667H20.1514C20.21 131.686 20.7886 132.196 21.8872 132.196C22.4614 132.196 23.0386 131.988 23.6187 131.572H23.667V132.741C22.9785 133.004 22.3311 133.136 21.7246 133.136C20.7695 133.136 20.0415 132.909 19.5405 132.455C19.0396 132.001 18.7891 131.346 18.7891 130.491C18.7891 129.641 19.0264 128.973 19.501 128.487C19.9756 127.998 20.6304 127.753 21.4653 127.753C22.9946 127.753 23.7593 128.566 23.7593 130.192V130.667ZM22.4102 129.902C22.3984 129.026 22.0425 128.588 21.3423 128.588C20.5981 128.588 20.2012 129.026 20.1514 129.902H22.4102ZM26.106 133H24.7568V126.083H26.106V133ZM28.8569 132.64V134.833H27.5078V127.911H28.8569V128.592C29.2495 128.261 29.5688 128.042 29.8149 127.933C30.064 127.825 30.3262 127.771 30.6016 127.771C31.1963 127.771 31.6577 127.999 31.9858 128.456C32.314 128.913 32.478 129.552 32.478 130.372C32.478 131.178 32.27 131.831 31.854 132.332C31.438 132.83 30.9194 133.079 30.2983 133.079C29.8647 133.079 29.3843 132.933 28.8569 132.64ZM28.8569 129.172V131.976C29.0972 132.076 29.3711 132.125 29.6787 132.125C30.6133 132.125 31.0806 131.559 31.0806 130.425C31.0806 129.35 30.6895 128.812 29.9072 128.812C29.5879 128.812 29.2378 128.932 28.8569 129.172ZM38.0854 130.667H34.4775C34.5361 131.686 35.1147 132.196 36.2134 132.196C36.7876 132.196 37.3647 131.988 37.9448 131.572H37.9932V132.741C37.3047 133.004 36.6572 133.136 36.0508 133.136C35.0957 133.136 34.3677 132.909 33.8667 132.455C33.3657 132.001 33.1152 131.346 33.1152 130.491C33.1152 129.641 33.3525 128.973 33.8271 128.487C34.3018 127.998 34.9565 127.753 35.7915 127.753C37.3208 127.753 38.0854 128.566 38.0854 130.192V130.667ZM36.7363 129.902C36.7246 129.026 36.3687 128.588 35.6685 128.588C34.9243 128.588 34.5273 129.026 34.4775 129.902H36.7363ZM42.5239 129.287H42.48C42.2983 129.24 42.0552 129.216 41.7505 129.216C41.2729 129.216 40.8335 129.292 40.4321 129.445V133H39.083V127.911H40.4321V128.834C40.8452 128.462 41.1851 128.213 41.4517 128.087C41.7183 127.958 41.9805 127.894 42.2383 127.894C42.3057 127.894 42.4009 127.896 42.5239 127.902V129.287ZM48.4873 127.476H46.312V133H44.8618V127.476H42.6865V126.377H48.4873V127.476ZM52.8774 130.667H49.2695C49.3281 131.686 49.9067 132.196 51.0054 132.196C51.5796 132.196 52.1567 131.988 52.7368 131.572H52.7852V132.741C52.0967 133.004 51.4492 133.136 50.8428 133.136C49.8877 133.136 49.1597 132.909 48.6587 132.455C48.1577 132.001 47.9072 131.346 47.9072 130.491C47.9072 129.641 48.1445 128.973 48.6191 128.487C49.0938 127.998 49.7485 127.753 50.5835 127.753C52.1128 127.753 52.8774 128.566 52.8774 130.192V130.667ZM51.5283 129.902C51.5166 129.026 51.1606 128.588 50.4604 128.588C49.7163 128.588 49.3193 129.026 49.2695 129.902H51.5283ZM58.8232 133H57.2192L56.0283 131.317L54.8198 133H53.2993L55.2461 130.46L53.3257 127.911H54.9253L56.0986 129.563L57.2808 127.911H58.8057L56.8721 130.42L58.8232 133ZM62.6509 132.969C62.2905 133.057 61.9053 133.101 61.4951 133.101C60.8887 133.101 60.4448 132.972 60.1636 132.714C59.8823 132.454 59.7417 132.033 59.7417 131.453V128.803H59.0737V127.911H59.7461V126.483H61.0908V127.911H62.6509V128.803H61.0908V130.899C61.0908 131.438 61.1597 131.79 61.2974 131.954C61.4351 132.118 61.6665 132.2 61.9917 132.2C62.1997 132.2 62.4062 132.149 62.6113 132.046H62.6509V132.969Z" fill="white"/>
<line x1="38" y1="84" x2="38" y2="118" stroke="#282828" stroke-width="2"/>
<rect width="75" height="24" rx="2" fill="#282828"/>
<path d="M20.2339 14.5562C19.6772 14.811 19.2349 14.9707 18.9067 15.0352C18.5786 15.0996 18.2622 15.1318 17.9575 15.1318C16.9438 15.1318 16.1455 14.8301 15.5625 14.2266C14.9795 13.623 14.688 12.7808 14.688 11.6997C14.688 10.6392 14.9824 9.7998 15.5713 9.18164C16.1631 8.56055 16.96 8.25 17.9619 8.25C18.7383 8.25 19.4956 8.43604 20.2339 8.80811V10.166H20.0801C19.3916 9.58008 18.7397 9.28711 18.1245 9.28711C17.5356 9.28711 17.0698 9.49805 16.7271 9.91992C16.3843 10.3389 16.2129 10.9336 16.2129 11.7041C16.2129 12.4688 16.3872 13.0591 16.7358 13.4751C17.0845 13.8882 17.5503 14.0947 18.1333 14.0947C18.438 14.0947 18.7354 14.042 19.0254 13.9365C19.3154 13.8281 19.6714 13.5894 20.0933 13.2202H20.2339V14.5562ZM23.4419 15.1582C22.6157 15.1582 21.9741 14.9209 21.5171 14.4463C21.0601 13.9688 20.8315 13.3066 20.8315 12.46C20.8315 11.6104 21.0615 10.9468 21.5215 10.4692C21.9844 9.9917 22.6245 9.75293 23.4419 9.75293C24.2651 9.75293 24.9053 9.9917 25.3623 10.4692C25.8223 10.9468 26.0522 11.6104 26.0522 12.46C26.0522 13.3066 25.8223 13.9688 25.3623 14.4463C24.9053 14.9209 24.2651 15.1582 23.4419 15.1582ZM23.4419 10.6934C22.6421 10.6934 22.2422 11.2866 22.2422 12.4731C22.2422 13.6362 22.6479 14.2178 23.4595 14.2178C24.2476 14.2178 24.6416 13.6362 24.6416 12.4731C24.6416 11.2866 24.2417 10.6934 23.4419 10.6934ZM31.8267 15H30.4688V12.4644C30.4688 11.7554 30.3896 11.3159 30.2314 11.146C30.0762 10.9731 29.8228 10.8867 29.4712 10.8867C29.1782 10.8867 28.8252 11.0171 28.4121 11.2778V15H27.063V9.91113H28.4121V10.623C28.834 10.2773 29.1709 10.0488 29.4229 9.9375C29.6777 9.82617 29.9429 9.77051 30.2183 9.77051C31.2905 9.77051 31.8267 10.3989 31.8267 11.6558V15ZM36.1904 14.9692C35.8301 15.0571 35.4448 15.1011 35.0347 15.1011C34.4282 15.1011 33.9844 14.9722 33.7031 14.7144C33.4219 14.4536 33.2812 14.0332 33.2812 13.4531V10.8032H32.6133V9.91113H33.2856V8.48291H34.6304V9.91113H36.1904V10.8032H34.6304V12.8994C34.6304 13.4385 34.6992 13.79 34.8369 13.9541C34.9746 14.1182 35.2061 14.2002 35.5312 14.2002C35.7393 14.2002 35.9458 14.1489 36.1509 14.0464H36.1904V14.9692ZM41.3364 15H39.9961V14.3364C39.583 14.6909 39.2476 14.9121 38.9897 15C38.7349 15.0908 38.4624 15.1362 38.1724 15.1362C37.7271 15.1362 37.3579 14.9927 37.0649 14.7056C36.772 14.4155 36.6255 14.0435 36.6255 13.5894C36.6255 13.0151 36.8408 12.5801 37.2715 12.2842C37.7051 11.9883 38.6177 11.8037 40.0093 11.7305V11.5942C40.0093 11.2749 39.8994 11.0435 39.6797 10.8999C39.46 10.7563 39.0967 10.6846 38.5898 10.6846C38.2441 10.6846 37.749 10.8164 37.1045 11.0801H37.0562V10.0122C37.7358 9.84814 38.3511 9.76611 38.9019 9.76611C39.7603 9.76611 40.3799 9.90527 40.7607 10.1836C41.1445 10.459 41.3364 10.8984 41.3364 11.502V15ZM39.9961 13.7607V12.4775C39.1113 12.5508 38.5576 12.665 38.335 12.8203C38.1123 12.9727 38.001 13.1851 38.001 13.4575C38.001 13.7476 38.0786 13.9497 38.2339 14.064C38.3892 14.1782 38.6323 14.2354 38.9634 14.2354C39.312 14.2354 39.6562 14.0771 39.9961 13.7607ZM44.0874 9.27393H42.6416V8.08301H44.0874V9.27393ZM44.0391 15H42.6899V9.91113H44.0391V15ZM50.2046 15H48.8467V12.4644C48.8467 11.7554 48.7676 11.3159 48.6094 11.146C48.4541 10.9731 48.2007 10.8867 47.8491 10.8867C47.5562 10.8867 47.2031 11.0171 46.79 11.2778V15H45.4409V9.91113H46.79V10.623C47.2119 10.2773 47.5488 10.0488 47.8008 9.9375C48.0557 9.82617 48.3208 9.77051 48.5962 9.77051C49.6685 9.77051 50.2046 10.3989 50.2046 11.6558V15ZM56.1504 12.6665H52.5425C52.6011 13.686 53.1797 14.1958 54.2783 14.1958C54.8525 14.1958 55.4297 13.9878 56.0098 13.5718H56.0581V14.7407C55.3696 15.0044 54.7222 15.1362 54.1157 15.1362C53.1606 15.1362 52.4326 14.9092 51.9316 14.4551C51.4307 14.001 51.1802 13.3462 51.1802 12.4907C51.1802 11.6411 51.4175 10.9731 51.8921 10.4868C52.3667 9.99756 53.0215 9.75293 53.8564 9.75293C55.3857 9.75293 56.1504 10.5659 56.1504 12.1919V12.6665ZM54.8013 11.9019C54.7896 11.0259 54.4336 10.5879 53.7334 10.5879C52.9893 10.5879 52.5923 11.0259 52.5425 11.9019H54.8013ZM60.5889 11.2866H60.5449C60.3633 11.2397 60.1201 11.2163 59.8154 11.2163C59.3379 11.2163 58.8984 11.2925 58.4971 11.4448V15H57.1479V9.91113H58.4971V10.834C58.9102 10.4619 59.25 10.2129 59.5166 10.0869C59.7832 9.95801 60.0454 9.89355 60.3032 9.89355C60.3706 9.89355 60.4658 9.89648 60.5889 9.90234V11.2866Z" fill="white"/>
<line x1="38" y1="19" x2="38" y2="35" stroke="#282828" stroke-width="2"/>
<rect x="10" y="58" width="55" height="26" rx="1" stroke="#282828" stroke-width="2"/>
<defs>
<linearGradient id="paint0_linear_505_1046" x1="37.5" y1="35" x2="37.5" y2="107" gradientUnits="userSpaceOnUse">
<stop stop-color="white"/>
<stop offset="1" stop-color="#EBEBEB"/>
</linearGradient>
</defs>
</svg>
