<svg width="235" height="213" viewBox="0 0 235 213" fill="none" xmlns="http://www.w3.org/2000/svg">
<rect width="235" height="213" fill="white"/>
<rect width="203" height="181" transform="translate(16 16)" fill="white"/>
<rect width="201" height="32" transform="translate(16 55)" fill="white"/>
<g filter="url(#filter0_ii_457_1127)">
<rect x="16" y="55" width="201" height="32" fill="white"/>
</g>
<rect x="16.5" y="55.5" width="200" height="31" stroke="#E3E7E8"/>
<path d="M36.5576 65.6211H25.4014V64.6709H36.5576V65.6211ZM32.0254 69.8184C32.0254 70.9668 31.834 71.9033 31.4512 72.6279C31.0729 73.3525 30.4736 73.9678 29.6533 74.4736C28.833 74.9749 27.7848 75.3555 26.5088 75.6152L26.1396 74.6514C27.5706 74.346 28.7054 73.8424 29.5439 73.1406C30.3825 72.4342 30.8018 71.4111 30.8018 70.0713V69.3604H24.6016V68.3623H37.3984V69.3604H32.0254V69.8184ZM51.5693 70.9668L45.7998 71.5273L46.1758 75.7041L45 75.8135L44.624 71.6436L38.5469 72.2314L38.4512 71.2334L44.5352 70.6387L44.2344 67.2275L39.0391 67.6514L38.9775 66.6602L44.1455 66.2432L43.9336 63.9258L45.0957 63.7891L45.3145 66.1475L50.291 65.7441L50.3594 66.7285L45.4033 67.1318L45.7109 70.5293L51.4941 69.9619L51.5693 70.9668ZM65.624 74.8906L64.6533 75.6426C63.4046 74.3574 61.6979 72.8034 59.5332 70.9805C57.2682 73.1589 55.0146 74.6947 52.7725 75.5879L52.2529 74.7197C54.1305 73.9541 55.999 72.7419 57.8584 71.083C59.7223 69.4196 61.028 67.6035 61.7754 65.6348H53.9756V64.6846H63.0059L63.2861 64.9375C62.6481 66.8698 61.625 68.6335 60.2168 70.2285C61.6113 71.3177 63.4137 72.8717 65.624 74.8906ZM79.2891 70.748L78.5713 71.6982C77.6234 71.0648 76.4909 70.4427 75.1738 69.832C73.8568 69.2214 72.6833 68.7611 71.6533 68.4512V75.7041H70.4365V63.7344H71.667V67.3984C74.3695 68.2096 76.9102 69.3262 79.2891 70.748Z" fill="#333333"/>
<rect width="200" height="32" transform="translate(17 157)" fill="white"/>
<g filter="url(#filter1_ii_457_1127)">
<rect x="17" y="157" width="200" height="32" fill="white"/>
</g>
<rect x="17.5" y="157.5" width="199" height="31" stroke="#E3E7E8"/>
<path d="M32.499 178H31.043L28.8623 174.999L26.627 178H25.2803L28.2197 174.165L25.3076 170.275H26.7637L28.9307 173.256L31.1455 170.275H32.499L29.5732 174.09L32.499 178ZM40.2783 178H38.8223L36.6416 174.999L34.4062 178H33.0596L35.999 174.165L33.0869 170.275H34.543L36.71 173.256L38.9248 170.275H40.2783L37.3525 174.09L40.2783 178ZM48.0576 178H46.6016L44.4209 174.999L42.1855 178H40.8389L43.7783 174.165L40.8662 170.275H42.3223L44.4893 173.256L46.7041 170.275H48.0576L45.1318 174.09L48.0576 178ZM57.2178 176.264H56.2061V174.021C56.2061 173.757 56.1992 173.532 56.1855 173.345C54.0892 174.397 53.041 175.352 53.041 176.209C53.041 176.637 53.2757 176.979 53.7451 177.234C54.2145 177.485 55.2035 177.61 56.7119 177.61C58.5029 177.61 59.9316 177.526 60.998 177.357L61.0664 178.349C59.9818 178.476 58.7285 178.54 57.3066 178.54C55.1146 178.54 53.6859 178.349 53.0205 177.966C52.3551 177.583 52.0225 177.036 52.0225 176.325C52.0179 175.692 52.3096 175.065 52.8975 174.445C53.4899 173.826 54.5176 173.156 55.9805 172.436C55.7936 172.025 55.4587 171.82 54.9756 171.82C54.4287 171.82 53.8385 171.921 53.2051 172.121C52.5762 172.317 51.7946 172.814 50.8604 173.611L49.7256 174.568L49.1377 173.871C50.8057 172.577 52.0498 171.082 52.8701 169.387H49.6846V168.498H53.2461C53.4557 167.956 53.6175 167.409 53.7314 166.857L54.8662 166.953C54.7523 167.477 54.5973 167.992 54.4014 168.498H59.4805V169.387H54.0391C53.7839 169.911 53.3395 170.604 52.7061 171.465L52.8086 171.52C52.9863 171.406 53.3372 171.296 53.8613 171.191C54.3854 171.082 54.7887 171.027 55.0713 171.027C55.9554 171.027 56.5592 171.358 56.8828 172.019L60.9092 170.467L61.3604 171.39C60.4124 171.7 59.0042 172.203 57.1357 172.9C57.1904 173.242 57.2178 173.673 57.2178 174.192V176.264ZM63.4248 178.718L62.9531 177.932C64.8809 177.02 66.3415 175.797 67.335 174.261C68.3285 172.72 68.8753 171.116 68.9756 169.448C68.971 169.398 68.9688 169.337 68.9688 169.264V167.938H65.2432V167.035H70.1104C70.1104 168.206 70.1149 168.872 70.124 169.031C70.1514 169.596 70.2152 170.146 70.3154 170.679C70.4202 171.207 70.6117 171.807 70.8896 172.477C71.1722 173.142 71.5459 173.803 72.0107 174.459C72.4756 175.115 73.0179 175.737 73.6377 176.325C74.262 176.909 74.9434 177.43 75.6816 177.891L74.9092 178.745C72.1839 176.845 70.4134 174.584 69.5977 171.964C68.709 174.981 66.6514 177.232 63.4248 178.718ZM82.791 170.214C82.7409 172.11 82.276 173.796 81.3965 175.272C80.5215 176.749 79.2067 177.87 77.4521 178.636L76.9258 177.85C78.4661 177.157 79.6374 176.129 80.4395 174.767C81.2461 173.404 81.6494 171.943 81.6494 170.385V170.214H77.5479V169.339H81.6494V166.57H82.791V169.339H88.6768V171.786C88.6768 173.08 88.6198 174.163 88.5059 175.033C88.3965 175.899 88.2279 176.631 88 177.228C87.8815 177.547 87.6833 177.811 87.4053 178.021C87.1318 178.235 86.8333 178.376 86.5098 178.444C86.2956 178.49 85.6279 178.513 84.5068 178.513H83.7207L83.5771 177.521H85.6074C86.4414 177.521 86.9723 177.059 87.2002 176.134C87.4326 175.209 87.5488 173.716 87.5488 171.656V170.214H82.791Z" fill="#888888"/>
<rect x="111" y="16" width="81" height="24" rx="2" fill="#282828"/>
<path d="M123.16 31H119.547V30.0112H120.628V25.3662H119.547V24.3774H123.16V25.3662H122.079V30.0112H123.16V31ZM129.026 31H127.668V28.4644C127.668 27.7554 127.589 27.3159 127.431 27.146C127.276 26.9731 127.022 26.8867 126.671 26.8867C126.378 26.8867 126.025 27.0171 125.612 27.2778V31H124.263V25.9111H125.612V26.623C126.034 26.2773 126.371 26.0488 126.623 25.9375C126.877 25.8262 127.143 25.7705 127.418 25.7705C128.49 25.7705 129.026 26.3989 129.026 27.6558V31ZM131.738 30.6396V32.8325H130.389V25.9111H131.738V26.5923C132.13 26.2612 132.45 26.0415 132.696 25.9331C132.945 25.8247 133.207 25.7705 133.482 25.7705C134.077 25.7705 134.539 25.999 134.867 26.4561C135.195 26.9131 135.359 27.5518 135.359 28.3721C135.359 29.1777 135.151 29.8311 134.735 30.332C134.319 30.8301 133.8 31.0791 133.179 31.0791C132.746 31.0791 132.265 30.9326 131.738 30.6396ZM131.738 27.1724V29.9761C131.978 30.0757 132.252 30.1255 132.56 30.1255C133.494 30.1255 133.961 29.5586 133.961 28.4248C133.961 27.3496 133.57 26.812 132.788 26.812C132.469 26.812 132.119 26.9321 131.738 27.1724ZM141.107 31H139.758V30.2881C139.348 30.6221 139.014 30.8477 138.756 30.9648C138.498 31.082 138.23 31.1406 137.952 31.1406C136.879 31.1406 136.343 30.5122 136.343 29.2554V25.9111H137.701V28.4468C137.701 29.1558 137.779 29.5967 137.934 29.7695C138.089 29.9424 138.343 30.0288 138.694 30.0288C138.996 30.0288 139.351 29.897 139.758 29.6333V25.9111H141.107V31ZM145.51 30.9692C145.15 31.0571 144.765 31.1011 144.354 31.1011C143.748 31.1011 143.304 30.9722 143.023 30.7144C142.742 30.4536 142.601 30.0332 142.601 29.4531V26.8032H141.933V25.9111H142.605V24.4829H143.95V25.9111H145.51V26.8032H143.95V28.8994C143.95 29.4385 144.019 29.79 144.157 29.9541C144.294 30.1182 144.526 30.2002 144.851 30.2002C145.059 30.2002 145.266 30.1489 145.471 30.0464H145.51V30.9692ZM151.518 25.4761H149.342V31H147.892V25.4761H145.717V24.3774H151.518V25.4761ZM155.908 28.6665H152.3C152.358 29.686 152.937 30.1958 154.036 30.1958C154.61 30.1958 155.187 29.9878 155.767 29.5718H155.815V30.7407C155.127 31.0044 154.479 31.1362 153.873 31.1362C152.918 31.1362 152.19 30.9092 151.689 30.4551C151.188 30.001 150.938 29.3462 150.938 28.4907C150.938 27.6411 151.175 26.9731 151.649 26.4868C152.124 25.9976 152.779 25.7529 153.614 25.7529C155.143 25.7529 155.908 26.5659 155.908 28.1919V28.6665ZM154.559 27.9019C154.547 27.0259 154.191 26.5879 153.491 26.5879C152.747 26.5879 152.35 27.0259 152.3 27.9019H154.559ZM161.854 31H160.25L159.059 29.3169L157.85 31H156.33L158.276 28.46L156.356 25.9111H157.956L159.129 27.5635L160.311 25.9111H161.836L159.902 28.4204L161.854 31ZM165.681 30.9692C165.321 31.0571 164.936 31.1011 164.525 31.1011C163.919 31.1011 163.475 30.9722 163.194 30.7144C162.913 30.4536 162.772 30.0332 162.772 29.4531V26.8032H162.104V25.9111H162.776V24.4829H164.121V25.9111H165.681V26.8032H164.121V28.8994C164.121 29.4385 164.19 29.79 164.328 29.9541C164.465 30.1182 164.697 30.2002 165.022 30.2002C165.23 30.2002 165.437 30.1489 165.642 30.0464H165.681V30.9692ZM166.6 31V24.3774H168.981C169.989 24.3774 170.673 24.5107 171.034 24.7773C171.397 25.041 171.579 25.4146 171.579 25.8979C171.579 26.5366 171.265 27.001 170.638 27.291V27.3262C171.584 27.5254 172.058 28.0718 172.058 28.9653C172.058 29.5894 171.823 30.0845 171.354 30.4507C170.889 30.8169 170.212 31 169.324 31H166.6ZM168.041 25.4189V27.0229H168.586C169.034 27.0229 169.352 26.9995 169.54 26.9526C169.727 26.9028 169.866 26.8105 169.957 26.6758C170.048 26.5381 170.093 26.3667 170.093 26.1616C170.093 25.9976 170.052 25.8569 169.97 25.7397C169.891 25.6226 169.761 25.5405 169.579 25.4937C169.397 25.4438 169.031 25.4189 168.48 25.4189H168.041ZM168.041 28.0073V29.9585H168.494C168.895 29.9585 169.204 29.9541 169.421 29.9453C169.638 29.9365 169.834 29.894 170.01 29.8179C170.188 29.7417 170.323 29.6318 170.414 29.4883C170.508 29.3447 170.555 29.1704 170.555 28.9653C170.555 28.7427 170.506 28.5596 170.41 28.416C170.316 28.2725 170.178 28.1685 169.997 28.104C169.818 28.0396 169.397 28.0073 168.735 28.0073H168.041ZM175.318 31.1582C174.492 31.1582 173.851 30.9209 173.394 30.4463C172.937 29.9688 172.708 29.3066 172.708 28.46C172.708 27.6104 172.938 26.9468 173.398 26.4692C173.861 25.9917 174.501 25.7529 175.318 25.7529C176.142 25.7529 176.782 25.9917 177.239 26.4692C177.699 26.9468 177.929 27.6104 177.929 28.46C177.929 29.3066 177.699 29.9688 177.239 30.4463C176.782 30.9209 176.142 31.1582 175.318 31.1582ZM175.318 26.6934C174.519 26.6934 174.119 27.2866 174.119 28.4731C174.119 29.6362 174.524 30.2178 175.336 30.2178C176.124 30.2178 176.518 29.6362 176.518 28.4731C176.518 27.2866 176.118 26.6934 175.318 26.6934ZM183.809 31H182.205L181.014 29.3169L179.805 31H178.285L180.231 28.46L178.311 25.9111H179.911L181.084 27.5635L182.266 25.9111H183.791L181.857 28.4204L183.809 31Z" fill="white"/>
<rect x="17" y="16" width="43" height="24" rx="2" fill="#282828"/>
<path d="M31.9038 24.3774L29.3901 31H27.9092L25.3999 24.3774H26.9248L28.6782 29.2158L30.4272 24.3774H31.9038ZM36.5137 31H35.1733V30.3364C34.7603 30.6909 34.4248 30.9121 34.167 31C33.9121 31.0908 33.6396 31.1362 33.3496 31.1362C32.9043 31.1362 32.5352 30.9927 32.2422 30.7056C31.9492 30.4155 31.8027 30.0435 31.8027 29.5894C31.8027 29.0151 32.0181 28.5801 32.4487 28.2842C32.8823 27.9883 33.7949 27.8037 35.1865 27.7305V27.5942C35.1865 27.2749 35.0767 27.0435 34.8569 26.8999C34.6372 26.7563 34.2739 26.6846 33.7671 26.6846C33.4214 26.6846 32.9263 26.8164 32.2817 27.0801H32.2334V26.0122C32.9131 25.8481 33.5283 25.7661 34.0791 25.7661C34.9375 25.7661 35.5571 25.9053 35.938 26.1836C36.3218 26.459 36.5137 26.8984 36.5137 27.502V31ZM35.1733 29.7607V28.4775C34.2886 28.5508 33.7349 28.665 33.5122 28.8203C33.2896 28.9727 33.1782 29.1851 33.1782 29.4575C33.1782 29.7476 33.2559 29.9497 33.4111 30.064C33.5664 30.1782 33.8096 30.2354 34.1406 30.2354C34.4893 30.2354 34.8335 30.0771 35.1733 29.7607ZM39.2163 31H37.8672V24.083H39.2163V31ZM45.3423 31H43.9932V30.2881C43.583 30.6221 43.249 30.8477 42.9912 30.9648C42.7334 31.082 42.4653 31.1406 42.187 31.1406C41.1147 31.1406 40.5786 30.5122 40.5786 29.2554V25.9111H41.9365V28.4468C41.9365 29.1558 42.0142 29.5967 42.1694 29.7695C42.3247 29.9424 42.5781 30.0288 42.9297 30.0288C43.2314 30.0288 43.5859 29.897 43.9932 29.6333V25.9111H45.3423V31ZM51.3276 28.6665H47.7197C47.7783 29.686 48.3569 30.1958 49.4556 30.1958C50.0298 30.1958 50.6069 29.9878 51.187 29.5718H51.2354V30.7407C50.5469 31.0044 49.8994 31.1362 49.293 31.1362C48.3379 31.1362 47.6099 30.9092 47.1089 30.4551C46.6079 30.001 46.3574 29.3462 46.3574 28.4907C46.3574 27.6411 46.5947 26.9731 47.0693 26.4868C47.5439 25.9976 48.1987 25.7529 49.0337 25.7529C50.563 25.7529 51.3276 26.5659 51.3276 28.1919V28.6665ZM49.9785 27.9019C49.9668 27.0259 49.6108 26.5879 48.9106 26.5879C48.1665 26.5879 47.7695 27.0259 47.7197 27.9019H49.9785Z" fill="white"/>
<rect x="17" y="127" width="72" height="24" rx="2" fill="#282828"/>
<path d="M27.4238 139.746V142H25.9736V135.377H28.4785C29.3369 135.377 29.9888 135.553 30.4341 135.905C30.8794 136.253 31.1021 136.765 31.1021 137.438C31.1021 138.142 30.856 138.703 30.3638 139.122C29.8716 139.538 29.23 139.746 28.439 139.746H27.4238ZM27.415 136.419V138.695H27.8018C28.5283 138.695 29.0088 138.596 29.2432 138.396C29.4805 138.194 29.5991 137.885 29.5991 137.469C29.5991 137.126 29.4849 136.866 29.2563 136.687C29.0308 136.508 28.5825 136.419 27.9116 136.419H27.415ZM33.4136 142H32.0645V135.083H33.4136V142ZM39.1309 142H37.7905V141.336C37.3774 141.691 37.042 141.912 36.7842 142C36.5293 142.091 36.2568 142.136 35.9668 142.136C35.5215 142.136 35.1523 141.993 34.8594 141.706C34.5664 141.416 34.4199 141.043 34.4199 140.589C34.4199 140.015 34.6353 139.58 35.0659 139.284C35.4995 138.988 36.4121 138.804 37.8037 138.73V138.594C37.8037 138.275 37.6938 138.043 37.4741 137.9C37.2544 137.756 36.8911 137.685 36.3843 137.685C36.0386 137.685 35.5435 137.816 34.8989 138.08H34.8506V137.012C35.5303 136.848 36.1455 136.766 36.6963 136.766C37.5547 136.766 38.1743 136.905 38.5552 137.184C38.939 137.459 39.1309 137.898 39.1309 138.502V142ZM37.7905 140.761V139.478C36.9058 139.551 36.3521 139.665 36.1294 139.82C35.9067 139.973 35.7954 140.185 35.7954 140.458C35.7954 140.748 35.873 140.95 36.0283 141.064C36.1836 141.178 36.4268 141.235 36.7578 141.235C37.1064 141.235 37.4507 141.077 37.7905 140.761ZM44.4702 141.75C43.9019 142.007 43.3877 142.136 42.9277 142.136C42.0371 142.136 41.3428 141.906 40.8447 141.446C40.3467 140.986 40.0977 140.33 40.0977 139.478C40.0977 138.619 40.3496 137.954 40.8535 137.482C41.3574 137.008 42.0312 136.771 42.875 136.771C43.4258 136.771 43.9575 136.901 44.4702 137.162V138.401H44.3999C43.9019 137.956 43.4111 137.733 42.9277 137.733C42.4795 137.733 42.1309 137.887 41.8818 138.194C41.6328 138.502 41.5083 138.93 41.5083 139.478C41.5083 140.025 41.6328 140.446 41.8818 140.739C42.1338 141.029 42.4897 141.174 42.9497 141.174C43.439 141.174 43.9224 140.951 44.3999 140.506H44.4702V141.75ZM49.9897 139.667H46.3818C46.4404 140.686 47.019 141.196 48.1177 141.196C48.6919 141.196 49.269 140.988 49.8491 140.572H49.8975V141.741C49.209 142.004 48.5615 142.136 47.9551 142.136C47 142.136 46.272 141.909 45.771 141.455C45.27 141.001 45.0195 140.346 45.0195 139.491C45.0195 138.641 45.2568 137.973 45.7314 137.487C46.2061 136.998 46.8608 136.753 47.6958 136.753C49.2251 136.753 49.9897 137.566 49.9897 139.192V139.667ZM48.6406 138.902C48.6289 138.026 48.2729 137.588 47.5728 137.588C46.8286 137.588 46.4316 138.026 46.3818 138.902H48.6406ZM55.751 142H54.3931V139.464C54.3931 138.755 54.314 138.316 54.1558 138.146C54.0005 137.973 53.7471 137.887 53.3955 137.887C53.1025 137.887 52.7495 138.017 52.3364 138.278V142H50.9873V135.083H52.3364V137.623C52.7583 137.277 53.0952 137.049 53.3472 136.938C53.6021 136.826 53.8672 136.771 54.1426 136.771C55.2148 136.771 55.751 137.399 55.751 138.656V142ZM59.3369 142.158C58.5107 142.158 57.8691 141.921 57.4121 141.446C56.9551 140.969 56.7266 140.307 56.7266 139.46C56.7266 138.61 56.9565 137.947 57.4165 137.469C57.8794 136.992 58.5195 136.753 59.3369 136.753C60.1602 136.753 60.8003 136.992 61.2573 137.469C61.7173 137.947 61.9473 138.61 61.9473 139.46C61.9473 140.307 61.7173 140.969 61.2573 141.446C60.8003 141.921 60.1602 142.158 59.3369 142.158ZM59.3369 137.693C58.5371 137.693 58.1372 138.287 58.1372 139.473C58.1372 140.636 58.543 141.218 59.3545 141.218C60.1426 141.218 60.5366 140.636 60.5366 139.473C60.5366 138.287 60.1367 137.693 59.3369 137.693ZM64.3071 142H62.958V135.083H64.3071V142ZM70.3013 142H68.9521V141.332C68.5127 141.689 68.1816 141.914 67.959 142.004C67.7363 142.095 67.4976 142.141 67.2427 142.141C66.6597 142.141 66.1953 141.905 65.8496 141.433C65.5039 140.958 65.3311 140.314 65.3311 139.5C65.3311 138.691 65.5405 138.035 65.9595 137.531C66.3784 137.024 66.8984 136.771 67.5195 136.771C67.7422 136.771 67.9458 136.795 68.1304 136.845C68.3149 136.895 68.5889 137.015 68.9521 137.206V135.083H70.3013V142ZM68.9521 140.695V137.939C68.6592 137.813 68.3867 137.75 68.1348 137.75C67.1973 137.75 66.7285 138.322 66.7285 139.464C66.7285 140.042 66.8252 140.459 67.0186 140.717C67.2119 140.972 67.5151 141.099 67.9282 141.099C68.2388 141.099 68.5801 140.964 68.9521 140.695ZM76.2866 139.667H72.6787C72.7373 140.686 73.3159 141.196 74.4146 141.196C74.9888 141.196 75.5659 140.988 76.146 140.572H76.1943V141.741C75.5059 142.004 74.8584 142.136 74.252 142.136C73.2969 142.136 72.5688 141.909 72.0679 141.455C71.5669 141.001 71.3164 140.346 71.3164 139.491C71.3164 138.641 71.5537 137.973 72.0283 137.487C72.5029 136.998 73.1577 136.753 73.9927 136.753C75.522 136.753 76.2866 137.566 76.2866 139.192V139.667ZM74.9375 138.902C74.9258 138.026 74.5698 137.588 73.8696 137.588C73.1255 137.588 72.7285 138.026 72.6787 138.902H74.9375ZM80.7251 138.287H80.6812C80.4995 138.24 80.2563 138.216 79.9517 138.216C79.4741 138.216 79.0347 138.292 78.6333 138.445V142H77.2842V136.911H78.6333V137.834C79.0464 137.462 79.3862 137.213 79.6528 137.087C79.9194 136.958 80.1816 136.894 80.4395 136.894C80.5068 136.894 80.6021 136.896 80.7251 136.902V138.287Z" fill="white"/>
<line x1="38" y1="58" x2="38" y2="40" stroke="#282828" stroke-width="2"/>
<line x1="151" y1="55" x2="151" y2="40" stroke="#282828" stroke-width="2"/>
<line x1="52" y1="161" x2="52" y2="145" stroke="#282828" stroke-width="2"/>
<rect x="21" y="59" width="77" height="24" rx="1" stroke="#282828" stroke-width="2"/>
<rect x="21" y="161" width="77" height="24" rx="1" stroke="#282828" stroke-width="2"/>
<defs>
<filter id="filter0_ii_457_1127" x="14" y="53" width="205" height="36" filterUnits="userSpaceOnUse" color-interpolation-filters="sRGB">
<feFlood flood-opacity="0" result="BackgroundImageFix"/>
<feBlend mode="normal" in="SourceGraphic" in2="BackgroundImageFix" result="shape"/>
<feColorMatrix in="SourceAlpha" type="matrix" values="0 0 0 0 0 0 0 0 0 0 0 0 0 0 0 0 0 0 127 0" result="hardAlpha"/>
<feOffset dx="-2" dy="-2"/>
<feGaussianBlur stdDeviation="2"/>
<feComposite in2="hardAlpha" operator="arithmetic" k2="-1" k3="1"/>
<feColorMatrix type="matrix" values="0 0 0 0 0.960784 0 0 0 0 0.960784 0 0 0 0 0.960784 0 0 0 1 0"/>
<feBlend mode="normal" in2="shape" result="effect1_innerShadow_457_1127"/>
<feColorMatrix in="SourceAlpha" type="matrix" values="0 0 0 0 0 0 0 0 0 0 0 0 0 0 0 0 0 0 127 0" result="hardAlpha"/>
<feOffset dx="2" dy="2"/>
<feGaussianBlur stdDeviation="2"/>
<feComposite in2="hardAlpha" operator="arithmetic" k2="-1" k3="1"/>
<feColorMatrix type="matrix" values="0 0 0 0 0.960784 0 0 0 0 0.960784 0 0 0 0 0.960784 0 0 0 1 0"/>
<feBlend mode="normal" in2="effect1_innerShadow_457_1127" result="effect2_innerShadow_457_1127"/>
</filter>
<filter id="filter1_ii_457_1127" x="15" y="155" width="204" height="36" filterUnits="userSpaceOnUse" color-interpolation-filters="sRGB">
<feFlood flood-opacity="0" result="BackgroundImageFix"/>
<feBlend mode="normal" in="SourceGraphic" in2="BackgroundImageFix" result="shape"/>
<feColorMatrix in="SourceAlpha" type="matrix" values="0 0 0 0 0 0 0 0 0 0 0 0 0 0 0 0 0 0 127 0" result="hardAlpha"/>
<feOffset dx="-2" dy="-2"/>
<feGaussianBlur stdDeviation="2"/>
<feComposite in2="hardAlpha" operator="arithmetic" k2="-1" k3="1"/>
<feColorMatrix type="matrix" values="0 0 0 0 0.960784 0 0 0 0 0.960784 0 0 0 0 0.960784 0 0 0 1 0"/>
<feBlend mode="normal" in2="shape" result="effect1_innerShadow_457_1127"/>
<feColorMatrix in="SourceAlpha" type="matrix" values="0 0 0 0 0 0 0 0 0 0 0 0 0 0 0 0 0 0 127 0" result="hardAlpha"/>
<feOffset dx="2" dy="2"/>
<feGaussianBlur stdDeviation="2"/>
<feComposite in2="hardAlpha" operator="arithmetic" k2="-1" k3="1"/>
<feColorMatrix type="matrix" values="0 0 0 0 0.960784 0 0 0 0 0.960784 0 0 0 0 0.960784 0 0 0 1 0"/>
<feBlend mode="normal" in2="effect1_innerShadow_457_1127" result="effect2_innerShadow_457_1127"/>
</filter>
</defs>
</svg>
