<svg width="200" height="32" viewBox="0 0 200 32" fill="none" xmlns="http://www.w3.org/2000/svg">
<g filter="url(#filter0_ii_803_1402)">
<rect width="200" height="32" fill="white"/>
<path d="M12.4229 20.6846C11.2653 20.6846 10.0508 20.3975 8.7793 19.8232V18.2715H8.86816C9.91634 19.1647 11.1058 19.6113 12.4365 19.6113C13.2568 19.6113 13.8994 19.445 14.3643 19.1123C14.8337 18.7751 15.0684 18.3285 15.0684 17.7725C15.0684 17.3441 14.9681 17.0091 14.7676 16.7676C14.5716 16.5215 14.2275 16.3301 13.7354 16.1934L11.4385 15.7285C10.5863 15.5508 9.93913 15.2295 9.49707 14.7646C9.05957 14.2952 8.84082 13.6868 8.84082 12.9395C8.84082 12.0918 9.18262 11.3923 9.86621 10.8408C10.5498 10.2894 11.4408 10.0137 12.5391 10.0137C13.6875 10.0137 14.8359 10.2666 15.9844 10.7725V12.2695H15.8887C14.9408 11.4811 13.8242 11.0869 12.5391 11.0869C11.8281 11.0869 11.2539 11.2441 10.8164 11.5586C10.3835 11.873 10.167 12.2855 10.167 12.7959C10.167 13.6481 10.6637 14.1973 11.6572 14.4434C12.2314 14.5482 12.8695 14.6803 13.5713 14.8398C14.2777 14.9948 14.7812 15.1589 15.082 15.332C15.3874 15.5007 15.6335 15.6943 15.8203 15.9131C16.0117 16.1318 16.153 16.3802 16.2441 16.6582C16.3398 16.9362 16.3877 17.2438 16.3877 17.5811C16.3877 18.4743 16.0254 19.2148 15.3008 19.8027C14.5762 20.3906 13.6169 20.6846 12.4229 20.6846ZM22.7109 18.6611V16.4189C21.0111 16.4964 19.9173 16.6855 19.4297 16.9863C18.9466 17.2826 18.7051 17.6927 18.7051 18.2168C18.7051 19.1419 19.2656 19.6045 20.3867 19.6045C21.1478 19.6045 21.9225 19.29 22.7109 18.6611ZM22.7109 20.5V19.6387C22.0684 20.1035 21.5397 20.3975 21.125 20.5205C20.7103 20.6481 20.2887 20.7119 19.8604 20.7119C19.1722 20.7119 18.6003 20.484 18.1445 20.0283C17.6888 19.5726 17.4609 18.9938 17.4609 18.292C17.4609 17.3942 17.7982 16.7197 18.4727 16.2686C19.1517 15.8128 20.5645 15.5417 22.7109 15.4551V15.2227C22.7109 14.6849 22.5514 14.2884 22.2324 14.0332C21.9134 13.7734 21.3529 13.6436 20.5508 13.6436C19.8444 13.6436 19.0583 13.8258 18.1924 14.1904H18.1377V12.9395C18.9899 12.707 19.8102 12.5908 20.5986 12.5908C21.7425 12.5908 22.5788 12.805 23.1074 13.2334C23.6406 13.6572 23.9072 14.318 23.9072 15.2158V20.5H22.7109ZM36.1299 20.5V16.1729C36.1299 15.3389 36.0706 14.7829 35.9521 14.5049C35.8382 14.2223 35.6605 14.0173 35.4189 13.8896C35.182 13.7575 34.8812 13.6914 34.5166 13.6914C33.8923 13.6914 33.1562 14.0355 32.3086 14.7236C32.3359 14.9606 32.3496 15.2637 32.3496 15.6328V20.5H31.1465V16.1729C31.1465 15.3161 31.0872 14.7533 30.9688 14.4844C30.8548 14.2109 30.6794 14.0104 30.4424 13.8828C30.21 13.7552 29.9137 13.6914 29.5537 13.6914C28.902 13.6914 28.1751 14.0241 27.373 14.6895V20.5H26.1699V12.7754H27.373V13.7051C28.2891 12.9395 29.1549 12.5566 29.9707 12.5566C31.0234 12.5566 31.7344 12.9782 32.1035 13.8213C33.097 12.9782 34.0404 12.5566 34.9336 12.5566C36.5332 12.5566 37.333 13.5273 37.333 15.4688V20.5H36.1299ZM40.8125 20.0557V23.3506H39.6094V12.7754H40.8125V13.6299C41.6921 12.9144 42.5465 12.5566 43.376 12.5566C44.2874 12.5566 45.012 12.9121 45.5498 13.623C46.0876 14.3294 46.3564 15.3024 46.3564 16.542C46.3564 17.7588 46.0306 18.7477 45.3789 19.5088C44.7272 20.2699 43.9206 20.6504 42.959 20.6504C42.2253 20.6504 41.5098 20.4521 40.8125 20.0557ZM40.8125 14.6074V19.1191C41.4961 19.4245 42.1296 19.5771 42.7129 19.5771C43.4648 19.5771 44.0527 19.3174 44.4766 18.7979C44.9004 18.2738 45.1123 17.5355 45.1123 16.583C45.1123 14.6553 44.4173 13.6914 43.0273 13.6914C42.2891 13.6914 41.5508 13.9967 40.8125 14.6074ZM49.3438 20.5H48.1406V9.74023H49.3438V20.5ZM52.3447 15.8379H56.877C56.8405 14.3021 56.1364 13.5342 54.7646 13.5342C54.0719 13.5342 53.5114 13.7393 53.083 14.1494C52.6546 14.5596 52.4085 15.1224 52.3447 15.8379ZM55.168 20.6777C53.8828 20.6777 52.8848 20.3314 52.1738 19.6387C51.4674 18.9414 51.1143 17.957 51.1143 16.6855C51.1143 15.4232 51.4538 14.4206 52.1328 13.6777C52.8118 12.9303 53.7119 12.5566 54.833 12.5566C55.8538 12.5566 56.6445 12.862 57.2051 13.4727C57.7702 14.0833 58.0527 14.9538 58.0527 16.084V16.7471H52.3447C52.3447 17.6768 52.5954 18.3923 53.0967 18.8936C53.6025 19.3903 54.2998 19.6387 55.1885 19.6387C56.0726 19.6387 56.9567 19.3311 57.8408 18.7158H57.8955V20.0215C56.7972 20.459 55.888 20.6777 55.168 20.6777ZM67.1719 20.5V11.3057H63.5146V10.1982H72.1006V11.3057H68.4434V20.5H67.1719ZM72.5791 15.8379H77.1113C77.0749 14.3021 76.3708 13.5342 74.999 13.5342C74.3063 13.5342 73.7458 13.7393 73.3174 14.1494C72.889 14.5596 72.6429 15.1224 72.5791 15.8379ZM75.4023 20.6777C74.1172 20.6777 73.1191 20.3314 72.4082 19.6387C71.7018 18.9414 71.3486 17.957 71.3486 16.6855C71.3486 15.4232 71.6882 14.4206 72.3672 13.6777C73.0462 12.9303 73.9463 12.5566 75.0674 12.5566C76.0882 12.5566 76.8789 12.862 77.4395 13.4727C78.0046 14.0833 78.2871 14.9538 78.2871 16.084V16.7471H72.5791C72.5791 17.6768 72.8298 18.3923 73.3311 18.8936C73.8369 19.3903 74.5342 19.6387 75.4229 19.6387C76.307 19.6387 77.1911 19.3311 78.0752 18.7158H78.1299V20.0215C77.0316 20.459 76.1224 20.6777 75.4023 20.6777ZM86.333 20.5H84.877L82.6963 17.499L80.4609 20.5H79.1143L82.0537 16.665L79.1416 12.7754H80.5977L82.7646 15.7559L84.9795 12.7754H86.333L83.4072 16.5898L86.333 20.5ZM90.2158 20.6504C88.6208 20.6504 87.8232 19.7731 87.8232 18.0186V13.7598H86.9414V12.7754H87.8301V10.5537H89.0264V12.7754H91.7334V13.7598H89.0264V17.335C89.0264 18.1462 89.0811 18.6725 89.1904 18.9141C89.3044 19.151 89.4753 19.3265 89.7031 19.4404C89.931 19.5498 90.2227 19.6045 90.5781 19.6045C90.9154 19.6045 91.2868 19.5225 91.6924 19.3584H91.7334V20.4521C91.1911 20.5843 90.6852 20.6504 90.2158 20.6504Z" fill="#333333"/>
<rect x="0.5" y="0.5" width="199" height="31" stroke="#E3E7E8"/>
</g>
<rect width="200" height="32" fill="#E2F2FE"/>
<path d="M12.4639 20.6846C11.3063 20.6846 10.0918 20.3975 8.82031 19.8232V18.2715H8.90918C9.95736 19.1647 11.1468 19.6113 12.4775 19.6113C13.2979 19.6113 13.9404 19.445 14.4053 19.1123C14.8747 18.7751 15.1094 18.3285 15.1094 17.7725C15.1094 17.3441 15.0091 17.0091 14.8086 16.7676C14.6126 16.5215 14.2686 16.3301 13.7764 16.1934L11.4795 15.7285C10.6273 15.5508 9.98014 15.2295 9.53809 14.7646C9.10059 14.2952 8.88184 13.6868 8.88184 12.9395C8.88184 12.0918 9.22363 11.3923 9.90723 10.8408C10.5908 10.2894 11.4818 10.0137 12.5801 10.0137C13.7285 10.0137 14.877 10.2666 16.0254 10.7725V12.2695H15.9297C14.9818 11.4811 13.8652 11.0869 12.5801 11.0869C11.8691 11.0869 11.2949 11.2441 10.8574 11.5586C10.4245 11.873 10.208 12.2855 10.208 12.7959C10.208 13.6481 10.7048 14.1973 11.6982 14.4434C12.2725 14.5482 12.9105 14.6803 13.6123 14.8398C14.3187 14.9948 14.8223 15.1589 15.123 15.332C15.4284 15.5007 15.6745 15.6943 15.8613 15.9131C16.0527 16.1318 16.194 16.3802 16.2852 16.6582C16.3809 16.9362 16.4287 17.2438 16.4287 17.5811C16.4287 18.4743 16.0664 19.2148 15.3418 19.8027C14.6172 20.3906 13.6579 20.6846 12.4639 20.6846ZM22.752 18.6611V16.4189C21.0521 16.4964 19.9583 16.6855 19.4707 16.9863C18.9876 17.2826 18.7461 17.6927 18.7461 18.2168C18.7461 19.1419 19.3066 19.6045 20.4277 19.6045C21.1888 19.6045 21.9635 19.29 22.752 18.6611ZM22.752 20.5V19.6387C22.1094 20.1035 21.5807 20.3975 21.166 20.5205C20.7513 20.6481 20.3298 20.7119 19.9014 20.7119C19.2132 20.7119 18.6413 20.484 18.1855 20.0283C17.7298 19.5726 17.502 18.9938 17.502 18.292C17.502 17.3942 17.8392 16.7197 18.5137 16.2686C19.1927 15.8128 20.6055 15.5417 22.752 15.4551V15.2227C22.752 14.6849 22.5924 14.2884 22.2734 14.0332C21.9544 13.7734 21.3939 13.6436 20.5918 13.6436C19.8854 13.6436 19.0993 13.8258 18.2334 14.1904H18.1787V12.9395C19.0309 12.707 19.8512 12.5908 20.6396 12.5908C21.7835 12.5908 22.6198 12.805 23.1484 13.2334C23.6816 13.6572 23.9482 14.318 23.9482 15.2158V20.5H22.752ZM36.1709 20.5V16.1729C36.1709 15.3389 36.1117 14.7829 35.9932 14.5049C35.8792 14.2223 35.7015 14.0173 35.46 13.8896C35.223 13.7575 34.9222 13.6914 34.5576 13.6914C33.9333 13.6914 33.1973 14.0355 32.3496 14.7236C32.377 14.9606 32.3906 15.2637 32.3906 15.6328V20.5H31.1875V16.1729C31.1875 15.3161 31.1283 14.7533 31.0098 14.4844C30.8958 14.2109 30.7204 14.0104 30.4834 13.8828C30.251 13.7552 29.9548 13.6914 29.5947 13.6914C28.943 13.6914 28.2161 14.0241 27.4141 14.6895V20.5H26.2109V12.7754H27.4141V13.7051C28.3301 12.9395 29.196 12.5566 30.0117 12.5566C31.0645 12.5566 31.7754 12.9782 32.1445 13.8213C33.138 12.9782 34.0814 12.5566 34.9746 12.5566C36.5742 12.5566 37.374 13.5273 37.374 15.4688V20.5H36.1709ZM40.8535 20.0557V23.3506H39.6504V12.7754H40.8535V13.6299C41.7331 12.9144 42.5876 12.5566 43.417 12.5566C44.3285 12.5566 45.0531 12.9121 45.5908 13.623C46.1286 14.3294 46.3975 15.3024 46.3975 16.542C46.3975 17.7588 46.0716 18.7477 45.4199 19.5088C44.7682 20.2699 43.9616 20.6504 43 20.6504C42.2663 20.6504 41.5508 20.4521 40.8535 20.0557ZM40.8535 14.6074V19.1191C41.5371 19.4245 42.1706 19.5771 42.7539 19.5771C43.5059 19.5771 44.0938 19.3174 44.5176 18.7979C44.9414 18.2738 45.1533 17.5355 45.1533 16.583C45.1533 14.6553 44.4583 13.6914 43.0684 13.6914C42.3301 13.6914 41.5918 13.9967 40.8535 14.6074ZM49.3848 20.5H48.1816V9.74023H49.3848V20.5ZM52.3857 15.8379H56.918C56.8815 14.3021 56.1774 13.5342 54.8057 13.5342C54.113 13.5342 53.5524 13.7393 53.124 14.1494C52.6956 14.5596 52.4495 15.1224 52.3857 15.8379ZM55.209 20.6777C53.9238 20.6777 52.9258 20.3314 52.2148 19.6387C51.5085 18.9414 51.1553 17.957 51.1553 16.6855C51.1553 15.4232 51.4948 14.4206 52.1738 13.6777C52.8529 12.9303 53.7529 12.5566 54.874 12.5566C55.8949 12.5566 56.6855 12.862 57.2461 13.4727C57.8112 14.0833 58.0938 14.9538 58.0938 16.084V16.7471H52.3857C52.3857 17.6768 52.6364 18.3923 53.1377 18.8936C53.6436 19.3903 54.3408 19.6387 55.2295 19.6387C56.1136 19.6387 56.9977 19.3311 57.8818 18.7158H57.9365V20.0215C56.8382 20.459 55.929 20.6777 55.209 20.6777ZM67.2129 20.5V11.3057H63.5557V10.1982H72.1416V11.3057H68.4844V20.5H67.2129ZM72.6201 15.8379H77.1523C77.1159 14.3021 76.4118 13.5342 75.04 13.5342C74.3473 13.5342 73.7868 13.7393 73.3584 14.1494C72.93 14.5596 72.6839 15.1224 72.6201 15.8379ZM75.4434 20.6777C74.1582 20.6777 73.1602 20.3314 72.4492 19.6387C71.7428 18.9414 71.3896 17.957 71.3896 16.6855C71.3896 15.4232 71.7292 14.4206 72.4082 13.6777C73.0872 12.9303 73.9873 12.5566 75.1084 12.5566C76.1292 12.5566 76.9199 12.862 77.4805 13.4727C78.0456 14.0833 78.3281 14.9538 78.3281 16.084V16.7471H72.6201C72.6201 17.6768 72.8708 18.3923 73.3721 18.8936C73.8779 19.3903 74.5752 19.6387 75.4639 19.6387C76.348 19.6387 77.2321 19.3311 78.1162 18.7158H78.1709V20.0215C77.0726 20.459 76.1634 20.6777 75.4434 20.6777ZM86.374 20.5H84.918L82.7373 17.499L80.502 20.5H79.1553L82.0947 16.665L79.1826 12.7754H80.6387L82.8057 15.7559L85.0205 12.7754H86.374L83.4482 16.5898L86.374 20.5ZM90.2568 20.6504C88.6618 20.6504 87.8643 19.7731 87.8643 18.0186V13.7598H86.9824V12.7754H87.8711V10.5537H89.0674V12.7754H91.7744V13.7598H89.0674V17.335C89.0674 18.1462 89.1221 18.6725 89.2314 18.9141C89.3454 19.151 89.5163 19.3265 89.7441 19.4404C89.972 19.5498 90.2637 19.6045 90.6191 19.6045C90.9564 19.6045 91.3278 19.5225 91.7334 19.3584H91.7744V20.4521C91.2321 20.5843 90.7262 20.6504 90.2568 20.6504Z" fill="#333333"/>
<rect x="2" y="2" width="196" height="28" rx="2" stroke="#005FCC" stroke-width="4"/>
<rect x="1" y="1" width="198" height="30" rx="3" stroke="white" stroke-width="2"/>
<defs>
<filter id="filter0_ii_803_1402" x="-2" y="-2" width="204" height="36" filterUnits="userSpaceOnUse" color-interpolation-filters="sRGB">
<feFlood flood-opacity="0" result="BackgroundImageFix"/>
<feBlend mode="normal" in="SourceGraphic" in2="BackgroundImageFix" result="shape"/>
<feColorMatrix in="SourceAlpha" type="matrix" values="0 0 0 0 0 0 0 0 0 0 0 0 0 0 0 0 0 0 127 0" result="hardAlpha"/>
<feOffset dx="2" dy="2"/>
<feGaussianBlur stdDeviation="2"/>
<feComposite in2="hardAlpha" operator="arithmetic" k2="-1" k3="1"/>
<feColorMatrix type="matrix" values="0 0 0 0 0.960784 0 0 0 0 0.960784 0 0 0 0 0.960784 0 0 0 1 0"/>
<feBlend mode="darken" in2="shape" result="effect1_innerShadow_803_1402"/>
<feColorMatrix in="SourceAlpha" type="matrix" values="0 0 0 0 0 0 0 0 0 0 0 0 0 0 0 0 0 0 127 0" result="hardAlpha"/>
<feOffset dx="-2" dy="-2"/>
<feGaussianBlur stdDeviation="2"/>
<feComposite in2="hardAlpha" operator="arithmetic" k2="-1" k3="1"/>
<feColorMatrix type="matrix" values="0 0 0 0 0.960784 0 0 0 0 0.960784 0 0 0 0 0.960784 0 0 0 1 0"/>
<feBlend mode="darken" in2="effect1_innerShadow_803_1402" result="effect2_innerShadow_803_1402"/>
</filter>
</defs>
</svg>
