<svg width="482" height="370" viewBox="0 0 482 370" fill="none" xmlns="http://www.w3.org/2000/svg">
<rect width="482" height="370" fill="white"/>
<g clip-path="url(#clip0_816_1517)">
<g filter="url(#filter0_ii_816_1517)">
<rect x="28" y="249" width="248" height="32" fill="white"/>
<path d="M49.7061 269.432H36.3076V268.406H44.4082L45.4473 260.709H38.0576V259.731H46.7393L45.5703 268.406H49.7061V269.432ZM62.5918 264.975H51.2852V263.963H62.5918V264.975ZM68.1699 265.904H66.9805V262.445H64.2803V261.454H66.9805V258.692H68.1699V261.454H73.4199V258.638H74.6094V261.454H77.3301V262.445H74.6094V264.1C74.6094 267.919 71.973 269.915 66.7002 270.088L66.4746 269.069C69.0312 268.978 70.8268 268.493 71.8613 267.613C72.9004 266.734 73.4199 265.572 73.4199 264.127V262.445H68.1699V265.904ZM77.918 259.349L77.1455 259.643C76.8311 258.854 76.528 258.216 76.2363 257.729L76.9336 257.421C77.2617 257.977 77.5898 258.619 77.918 259.349ZM76.2773 259.813L75.5049 260.135C75.318 259.684 75.015 259.034 74.5957 258.187L75.3135 257.879C75.6553 258.462 75.9766 259.107 76.2773 259.813ZM90.5918 264.975H79.2852V263.963H90.5918V264.975ZM100.88 267.764H99.8682V265.521C99.8682 265.257 99.8613 265.032 99.8477 264.845C97.7513 265.897 96.7031 266.852 96.7031 267.709C96.7031 268.137 96.9378 268.479 97.4072 268.734C97.8766 268.985 98.8656 269.11 100.374 269.11C102.165 269.11 103.594 269.026 104.66 268.857L104.729 269.849C103.644 269.976 102.391 270.04 100.969 270.04C98.7767 270.04 97.348 269.849 96.6826 269.466C96.0173 269.083 95.6846 268.536 95.6846 267.825C95.68 267.192 95.9717 266.565 96.5596 265.945C97.152 265.326 98.1797 264.656 99.6426 263.936C99.4557 263.525 99.1208 263.32 98.6377 263.32C98.0908 263.32 97.5007 263.421 96.8672 263.621C96.2383 263.817 95.4567 264.314 94.5225 265.111L93.3877 266.068L92.7998 265.371C94.4678 264.077 95.7119 262.582 96.5322 260.887H93.3467V259.998H96.9082C97.1178 259.456 97.2796 258.909 97.3936 258.357L98.5283 258.453C98.4144 258.977 98.2594 259.492 98.0635 259.998H103.143V260.887H97.7012C97.446 261.411 97.0016 262.104 96.3682 262.965L96.4707 263.02C96.6484 262.906 96.9993 262.796 97.5234 262.691C98.0475 262.582 98.4508 262.527 98.7334 262.527C99.6175 262.527 100.221 262.858 100.545 263.519L104.571 261.967L105.022 262.89C104.075 263.2 102.666 263.703 100.798 264.4C100.853 264.742 100.88 265.173 100.88 265.692V267.764ZM114.572 263.184V261.851H112.829V261.105C112.241 261.579 111.651 261.98 111.059 262.309L110.56 261.68C112.296 260.654 113.576 259.383 114.401 257.865H115.741C116.069 258.503 116.664 259.182 117.525 259.902C118.391 260.622 119.173 261.144 119.87 261.468L119.296 262.24C118.699 261.926 118.104 261.538 117.512 261.078V261.851H115.611V263.184H118.667V266.608H115.885C116.65 267.921 117.897 268.896 119.624 269.534L119.098 270.334C118.214 269.988 117.421 269.523 116.719 268.939C116.021 268.356 115.493 267.723 115.133 267.039C114.832 267.736 114.29 268.399 113.506 269.028C112.727 269.653 111.806 270.092 110.744 270.348L110.402 269.637C111.359 269.363 112.175 268.962 112.85 268.434C113.529 267.9 114.016 267.292 114.312 266.608H111.599V263.184H114.572ZM112.877 261.064H117.505C116.489 260.276 115.691 259.472 115.112 258.651C114.502 259.549 113.757 260.354 112.877 261.064ZM117.683 263.908H115.611V265.863H117.683V263.908ZM114.572 263.908H112.583V265.863H114.572V263.908ZM106.69 267.224L106.089 266.725C106.535 266.118 106.996 265.264 107.47 264.161C107.948 263.058 108.272 262.117 108.44 261.338H106.69V260.538H108.55V257.886H109.562V260.538H110.778V261.338H109.562V262.78C109.858 263.163 110.343 263.674 111.018 264.312L110.478 265.111C110.213 264.842 109.908 264.469 109.562 263.99V270.375H108.55V263.86C108.007 265.214 107.388 266.335 106.69 267.224ZM126.357 270.382V266.561L120.759 266.793L120.629 265.884C121.363 265.884 122.933 265.843 125.339 265.761L125.455 265.665C124.963 265.218 124.035 264.471 122.673 263.423L123.343 262.78C123.479 262.876 123.701 263.04 124.006 263.272C124.544 262.748 125.045 262.19 125.51 261.598H121.791V262.985H120.8V260.812H126.344V259.581H121.531V258.781H126.344V257.886H127.444V258.781H132.544V259.581H127.444V260.812H133.187V262.938H132.154V261.598H126.747C126.255 262.227 125.567 262.958 124.683 263.792L126.221 264.981C127.401 263.874 128.299 262.894 128.914 262.042L129.926 262.541C129.083 263.498 127.996 264.555 126.665 265.713L129.133 265.617L131.033 265.521C130.618 265.048 130.265 264.658 129.974 264.353L130.76 263.812C131.557 264.574 132.366 265.462 133.187 266.479L132.284 267.039C132.161 266.866 131.961 266.615 131.683 266.287C131.09 266.328 129.682 266.401 127.458 266.506V270.382H126.357ZM132.797 270.02C131.325 269.391 130.078 268.677 129.058 267.88L129.741 267.224C130.68 267.894 131.908 268.559 133.426 269.22L132.797 270.02ZM120.943 270.02L120.506 269.268C121.062 269.053 121.716 268.739 122.468 268.324C123.224 267.905 123.778 267.543 124.129 267.237L124.929 267.853C124.505 268.217 123.874 268.625 123.035 269.076C122.197 269.527 121.499 269.842 120.943 270.02Z" fill="#757575"/>
<rect x="28.5" y="249.5" width="247" height="31" stroke="#E3E7E8"/>
</g>
</g>
<rect x="276.5" y="249.5" width="31" height="31" fill="#EEEEEE"/>
<path fill-rule="evenodd" clip-rule="evenodd" d="M295.103 269.518C291.57 272.348 286.397 272.125 283.121 268.849C279.607 265.335 279.607 259.636 283.121 256.121C286.636 252.607 292.335 252.607 295.849 256.121C298.878 259.15 299.297 263.8 297.106 267.277L303.627 273.799L301.506 275.92L295.103 269.518ZM293.728 258.243C296.071 260.586 296.071 264.385 293.728 266.728C291.385 269.071 287.586 269.071 285.243 266.728C282.9 264.385 282.9 260.586 285.243 258.243C287.586 255.9 291.385 255.9 293.728 258.243Z" fill="#888888"/>
<rect x="276.5" y="249.5" width="31" height="31" stroke="#E3E7E8"/>
<rect x="316.5" y="249.5" width="31" height="31" fill="#3498DB" stroke="#E3E7E8"/>
<path fill-rule="evenodd" clip-rule="evenodd" d="M340.636 272.601C340.488 272.298 339.271 271.579 337.162 270.775C337.047 270.741 336.935 270.697 336.828 270.642C335.991 270.365 335.169 270.044 334.365 269.68L334.252 269.617C333.72 269.263 333.601 268.563 333.601 267.235C333.619 266.646 333.828 266.081 334.196 265.623C334.498 265.124 334.687 264.563 334.755 263.933C334.822 263.547 334.962 263.178 335.138 262.9C335.295 262.598 335.404 262.274 335.459 261.938L335.488 261.82C335.525 261.706 335.525 261.583 335.491 261.478C335.422 261.275 335.37 261.066 335.335 260.855L335.317 260.741L335.331 260.627C335.408 260.007 335.47 259.498 335.525 259.065C335.537 258.358 335.273 257.674 334.784 257.154C334.082 256.393 333.068 255.998 332.037 256.084L331.903 256.084C330.873 255.995 329.859 256.387 329.15 257.152C328.664 257.663 328.401 258.346 328.412 258.976C328.437 259.192 328.461 259.405 328.507 259.817C328.545 260.155 328.573 260.387 328.601 260.617L328.614 260.719L328.601 260.821C328.57 261.05 328.514 261.275 328.448 261.447C328.41 261.57 328.41 261.701 328.448 261.824L328.471 261.916C328.533 262.255 328.649 262.583 328.819 262.893C328.998 263.231 329.112 263.6 329.155 263.981C329.219 264.561 329.409 265.119 329.713 265.616C330.089 266.07 330.306 266.636 330.331 267.258V267.509C330.391 268.087 330.299 268.671 330.062 269.202L329.973 269.401L329.796 269.527C329.308 269.875 328.76 270.13 328.241 270.26L326.824 270.748C324.561 271.599 323.331 272.343 323.289 272.539C323.247 272.905 323.219 273.272 323.206 273.64H340.701L340.636 272.601ZM337.39 269.147L337.532 269.21C337.559 269.225 337.587 269.237 337.673 269.264C340.501 270.339 341.964 271.226 342.205 272.28L342.223 272.408L342.4 275.236H321.617L321.603 274.453C321.59 273.753 321.623 273.053 321.713 272.292C321.928 271.22 323.396 270.332 326.283 269.246L327.783 268.733C328.099 268.652 328.401 268.524 328.678 268.354C328.748 268.126 328.769 267.886 328.741 267.649L328.735 267.554L328.736 267.292C328.725 267.041 328.63 266.801 328.465 266.611L328.391 266.513C327.942 265.799 327.661 264.993 327.569 264.157C327.549 263.977 327.495 263.803 327.414 263.651C327.174 263.212 327.003 262.738 326.909 262.246C326.791 261.83 326.796 261.388 326.938 260.932C326.966 260.857 326.988 260.78 327.004 260.701C326.979 260.499 326.954 260.285 326.921 259.997C326.875 259.583 326.851 259.373 326.821 259.087C326.795 257.961 327.217 256.87 327.986 256.06C329.008 254.957 330.475 254.38 331.972 254.488C333.47 254.385 334.936 254.966 335.952 256.066C336.721 256.884 337.14 257.97 337.115 259.171C337.059 259.653 337.001 260.132 336.93 260.702C336.949 260.791 336.974 260.88 337.005 260.973C337.141 261.389 337.148 261.836 337.024 262.255C336.939 262.736 336.779 263.204 336.524 263.69C336.426 263.847 336.36 264.022 336.335 264.152C336.247 264.989 335.969 265.795 335.524 266.509L335.457 266.601C335.296 266.792 335.204 267.032 335.197 267.258C335.197 267.698 335.219 268.045 335.259 268.28C335.962 268.64 336.67 268.911 337.39 269.147Z" fill="white"/>
<g clip-path="url(#clip1_816_1517)">
<g filter="url(#filter1_ii_816_1517)">
<rect x="28" y="76" width="248" height="32" fill="white"/>
<path d="M44.5723 90.1836V88.8506H42.8291V88.1055C42.2412 88.5794 41.651 88.9805 41.0586 89.3086L40.5596 88.6797C42.2959 87.6543 43.5765 86.3828 44.4014 84.8652H45.7412C46.0693 85.5033 46.6641 86.1823 47.5254 86.9023C48.3913 87.6224 49.1729 88.1442 49.8701 88.4678L49.2959 89.2402C48.6989 88.9258 48.1042 88.5384 47.5117 88.0781V88.8506H45.6113V90.1836H48.667V93.6084H45.8848C46.6504 94.9209 47.8968 95.8962 49.624 96.5342L49.0977 97.334C48.2135 96.9876 47.4206 96.5228 46.7188 95.9395C46.0215 95.3561 45.4928 94.7227 45.1328 94.0391C44.832 94.7363 44.2897 95.3994 43.5059 96.0283C42.7266 96.6527 41.806 97.0924 40.7441 97.3477L40.4023 96.6367C41.3594 96.3633 42.1751 95.9622 42.8496 95.4336C43.5286 94.9004 44.0163 94.292 44.3125 93.6084H41.5986V90.1836H44.5723ZM42.877 88.0645H47.5049C46.4886 87.276 45.6911 86.4717 45.1123 85.6514C44.5016 86.5492 43.7565 87.3535 42.877 88.0645ZM47.6826 90.9082H45.6113V92.8633H47.6826V90.9082ZM44.5723 90.9082H42.583V92.8633H44.5723V90.9082ZM36.6904 94.2236L36.0889 93.7246C36.5355 93.1185 36.9958 92.264 37.4697 91.1611C37.9482 90.0583 38.2718 89.1172 38.4404 88.3379H36.6904V87.5381H38.5498V84.8857H39.5615V87.5381H40.7783V88.3379H39.5615V89.7803C39.8577 90.1631 40.3431 90.6735 41.0176 91.3115L40.4775 92.1113C40.2132 91.8424 39.9079 91.4688 39.5615 90.9902V97.375H38.5498V90.8604C38.0075 92.2139 37.3877 93.335 36.6904 94.2236ZM56.3574 97.3818V93.5605L50.7588 93.793L50.6289 92.8838C51.3626 92.8838 52.9326 92.8428 55.3389 92.7607L55.4551 92.665C54.9629 92.2184 54.0355 91.471 52.6729 90.4229L53.3428 89.7803C53.4795 89.876 53.7005 90.04 54.0059 90.2725C54.5436 89.7484 55.0449 89.1901 55.5098 88.5977H51.791V89.9854H50.7998V87.8115H56.3438V86.5811H51.5312V85.7812H56.3438V84.8857H57.4443V85.7812H62.5439V86.5811H57.4443V87.8115H63.1865V89.9375H62.1543V88.5977H56.7471C56.2549 89.2266 55.5667 89.958 54.6826 90.792L56.2207 91.9814C57.401 90.874 58.2988 89.8942 58.9141 89.042L59.9258 89.541C59.0827 90.498 57.9958 91.5553 56.665 92.7129L59.1328 92.6172L61.0332 92.5215C60.6185 92.0475 60.2653 91.6579 59.9736 91.3525L60.7598 90.8125C61.5573 91.5736 62.3662 92.4622 63.1865 93.4785L62.2842 94.0391C62.1611 93.8659 61.9606 93.6152 61.6826 93.2871C61.0902 93.3281 59.682 93.401 57.458 93.5059V97.3818H56.3574ZM62.7969 97.0195C61.3249 96.3906 60.0785 95.6774 59.0576 94.8799L59.7412 94.2236C60.68 94.8936 61.9082 95.5589 63.4258 96.2197L62.7969 97.0195ZM50.9434 97.0195L50.5059 96.2676C51.0618 96.0534 51.7158 95.7389 52.4678 95.3242C53.2243 94.9049 53.778 94.5426 54.1289 94.2373L54.9287 94.8525C54.5049 95.2171 53.8737 95.625 53.0352 96.0762C52.1966 96.5273 51.4993 96.8418 50.9434 97.0195ZM66.1943 97.3408V90.0537C65.7796 90.792 65.3034 91.5075 64.7656 92.2002L64.1094 91.7148C64.752 90.8079 65.3604 89.6937 65.9346 88.3721C66.5133 87.0459 66.9144 85.8496 67.1377 84.7832L68.1904 84.9404C67.9033 86.1481 67.4271 87.4766 66.7617 88.9258H67.2471V97.3408H66.1943ZM70.9316 95.0645V88.0439H72.5518L72.5791 86.6699H68.4023V85.8291H72.5996L72.6201 84.8857H73.7002L73.6729 85.8291H77.5146V86.6699H73.6455L73.6045 88.0439H76.5986V95.0645H70.9316ZM75.5869 90.0264V88.7822H71.9297V90.0264H75.5869ZM71.9297 92.1387H75.5869V90.7441H71.9297V92.1387ZM71.9297 94.3125H75.5869V92.8564H71.9297V94.3125ZM68.5596 97.2793V88.2285H69.5918V96.0967H77.6172V96.8691H69.5918V97.2793H68.5596Z" fill="#333333"/>
<rect x="28.5" y="76.5" width="247" height="31" stroke="#E3E7E8"/>
</g>
</g>
<rect x="276.5" y="76.5" width="31" height="31" fill="#EEEEEE"/>
<path fill-rule="evenodd" clip-rule="evenodd" d="M295.103 96.5175C291.57 99.3477 286.397 99.125 283.121 95.8493C279.607 92.3345 279.607 86.636 283.121 83.1213C286.636 79.6066 292.335 79.6066 295.849 83.1213C298.878 86.15 299.297 90.8002 297.106 94.2773L303.627 100.799L301.506 102.92L295.103 96.5175ZM293.728 85.2427C296.071 87.5858 296.071 91.3848 293.728 93.7279C291.385 96.0711 287.586 96.0711 285.243 93.7279C282.9 91.3848 282.9 87.5858 285.243 85.2427C287.586 82.8995 291.385 82.8995 293.728 85.2427Z" fill="#888888"/>
<rect x="276.5" y="76.5" width="31" height="31" stroke="#E3E7E8"/>
<rect x="316.5" y="76.5" width="31" height="31" fill="#3498DB" stroke="#E3E7E8"/>
<path fill-rule="evenodd" clip-rule="evenodd" d="M340.636 99.601C340.488 99.2984 339.271 98.5793 337.162 97.7754C337.047 97.7411 336.935 97.6966 336.828 97.6424C335.991 97.3652 335.169 97.0441 334.365 96.6804L334.252 96.6174C333.72 96.2627 333.601 95.5627 333.601 94.2348C333.619 93.6465 333.828 93.0806 334.196 92.6226C334.498 92.1239 334.687 91.5632 334.755 90.9327C334.822 90.5473 334.962 90.1783 335.138 89.9003C335.295 89.5985 335.404 89.2738 335.459 88.9382L335.488 88.8202C335.525 88.7062 335.525 88.5833 335.491 88.4778C335.422 88.2748 335.37 88.0665 335.335 87.8549L335.317 87.7412L335.331 87.6269C335.408 87.0067 335.47 86.4977 335.525 86.0647C335.537 85.3577 335.273 84.6738 334.784 84.1536C334.082 83.3931 333.068 82.9985 332.037 83.0838L331.903 83.0836C330.873 82.9952 329.859 83.3869 329.15 84.1522C328.664 84.6633 328.401 85.3459 328.412 85.9764C328.437 86.1917 328.461 86.4047 328.507 86.8173C328.545 87.1546 328.573 87.3873 328.601 87.6174L328.614 87.7195L328.601 87.8215C328.57 88.0502 328.514 88.2748 328.448 88.4467C328.41 88.5696 328.41 88.701 328.448 88.8238L328.471 88.9157C328.533 89.2552 328.649 89.5826 328.819 89.8934C328.998 90.231 329.112 90.5996 329.155 90.9812C329.219 91.5608 329.409 92.1191 329.713 92.6162C330.089 93.0704 330.306 93.6365 330.331 94.2584V94.5091C330.391 95.087 330.299 95.671 330.062 96.2022L329.973 96.4009L329.796 96.5271C329.308 96.875 328.76 97.1297 328.241 97.2602L326.824 97.7478C324.561 98.5994 323.331 99.3431 323.289 99.5391C323.247 99.9051 323.219 100.272 323.206 100.64H340.701L340.636 99.601ZM337.39 96.1474L337.532 96.2098C337.559 96.2248 337.587 96.2367 337.673 96.2644C340.501 97.339 341.964 98.226 342.205 99.2799L342.223 99.4079L342.4 102.236H321.617L321.603 101.453C321.59 100.753 321.623 100.053 321.713 99.2917C321.928 98.2201 323.396 97.3323 326.283 96.2463L327.783 95.7327C328.099 95.6516 328.401 95.5238 328.678 95.3539C328.748 95.1265 328.769 94.8864 328.741 94.6487L328.735 94.5536L328.736 94.2917C328.725 94.0406 328.63 93.8006 328.465 93.6112L328.391 93.5125C327.942 92.7994 327.661 91.9933 327.569 91.1568C327.549 90.9772 327.495 90.8029 327.414 90.6513C327.174 90.2118 327.003 89.7376 326.909 89.2458C326.791 88.8305 326.796 88.3879 326.938 87.932C326.966 87.857 326.988 87.7799 327.004 87.7015C326.979 87.4993 326.954 87.2851 326.921 86.9966C326.875 86.583 326.851 86.3733 326.821 86.0871C326.795 84.9607 327.217 83.8698 327.986 83.06C329.008 81.9575 330.475 81.3801 331.972 81.4881C333.47 81.3846 334.936 81.9657 335.952 83.0657C336.721 83.8839 337.14 84.9697 337.115 86.1709C337.059 86.6532 337.001 87.1324 336.93 87.7017C336.949 87.7911 336.974 87.8805 337.005 87.9727C337.141 88.3887 337.148 88.8358 337.024 89.2547C336.939 89.7364 336.779 90.2043 336.524 90.6904C336.426 90.8473 336.36 91.0217 336.335 91.1523C336.247 91.9893 335.969 92.7953 335.524 93.5095L335.457 93.6014C335.296 93.7924 335.204 94.0323 335.197 94.2584C335.197 94.6981 335.219 95.0451 335.259 95.2797C335.962 95.6404 336.67 95.9112 337.39 96.1474Z" fill="white"/>
<rect x="227" y="132.364" width="81" height="25.6364" rx="2" fill="#282828"/>
<path d="M235.464 146.968V145.566H235.613C235.941 145.836 236.318 146.05 236.743 146.208C237.17 146.366 237.581 146.445 237.973 146.445C238.38 146.445 238.708 146.372 238.958 146.225C239.207 146.079 239.331 145.875 239.331 145.615C239.331 145.412 239.271 145.251 239.151 145.131C239.034 145.011 238.81 144.911 238.479 144.832C238.241 144.788 237.835 144.702 237.261 144.573C236.69 144.444 236.253 144.219 235.952 143.896C235.653 143.571 235.503 143.157 235.503 142.653C235.503 142.052 235.76 141.564 236.272 141.189C236.785 140.811 237.444 140.622 238.25 140.622C239.07 140.622 239.841 140.772 240.562 141.071V142.411H240.417C239.801 141.913 239.095 141.664 238.298 141.664C237.92 141.664 237.608 141.734 237.362 141.875C237.119 142.016 236.998 142.207 236.998 142.451C236.998 142.659 237.066 142.824 237.204 142.947C237.345 143.07 237.583 143.171 237.92 143.25C238.257 143.312 238.632 143.394 239.045 143.496C239.461 143.596 239.771 143.709 239.973 143.835C240.178 143.961 240.34 144.099 240.46 144.248C240.583 144.394 240.674 144.558 240.733 144.74C240.794 144.922 240.825 145.122 240.825 145.342C240.825 145.987 240.562 146.505 240.034 146.898C239.51 147.29 238.814 147.487 237.947 147.487C237.103 147.487 236.275 147.314 235.464 146.968ZM246.402 145.03H242.794C242.853 146.05 243.431 146.559 244.53 146.559C245.104 146.559 245.681 146.351 246.261 145.935H246.31V147.104C245.621 147.368 244.974 147.5 244.367 147.5C243.412 147.5 242.684 147.273 242.183 146.819C241.682 146.365 241.432 145.71 241.432 144.854C241.432 144.005 241.669 143.337 242.144 142.85C242.618 142.361 243.273 142.117 244.108 142.117C245.637 142.117 246.402 142.93 246.402 144.556V145.03ZM245.053 144.266C245.041 143.39 244.685 142.952 243.985 142.952C243.241 142.952 242.844 143.39 242.794 144.266H245.053ZM251.715 147.364H250.375V146.7C249.961 147.055 249.626 147.276 249.368 147.364C249.113 147.454 248.841 147.5 248.551 147.5C248.105 147.5 247.736 147.356 247.443 147.069C247.15 146.779 247.004 146.407 247.004 145.953C247.004 145.379 247.219 144.944 247.65 144.648C248.083 144.352 248.996 144.167 250.388 144.094V143.958C250.388 143.639 250.278 143.407 250.058 143.264C249.838 143.12 249.475 143.048 248.968 143.048C248.623 143.048 248.127 143.18 247.483 143.444H247.435V142.376C248.114 142.212 248.729 142.13 249.28 142.13C250.139 142.13 250.758 142.269 251.139 142.547C251.523 142.823 251.715 143.262 251.715 143.866V147.364ZM250.375 146.124V144.841C249.49 144.914 248.936 145.029 248.713 145.184C248.491 145.336 248.379 145.549 248.379 145.821C248.379 146.111 248.457 146.313 248.612 146.428C248.768 146.542 249.011 146.599 249.342 146.599C249.69 146.599 250.035 146.441 250.375 146.124ZM256.509 143.65H256.465C256.284 143.603 256.041 143.58 255.736 143.58C255.258 143.58 254.819 143.656 254.417 143.808V147.364H253.068V142.275H254.417V143.198C254.831 142.826 255.17 142.577 255.437 142.451C255.704 142.322 255.966 142.257 256.224 142.257C256.291 142.257 256.386 142.26 256.509 142.266V143.65ZM261.282 147.113C260.713 147.371 260.199 147.5 259.739 147.5C258.849 147.5 258.154 147.27 257.656 146.81C257.158 146.35 256.909 145.694 256.909 144.841C256.909 143.983 257.161 143.318 257.665 142.846C258.169 142.371 258.843 142.134 259.687 142.134C260.237 142.134 260.769 142.265 261.282 142.525V143.765H261.211C260.713 143.319 260.223 143.097 259.739 143.097C259.291 143.097 258.942 143.25 258.693 143.558C258.444 143.866 258.32 144.293 258.32 144.841C258.32 145.389 258.444 145.809 258.693 146.102C258.945 146.392 259.301 146.537 259.761 146.537C260.25 146.537 260.734 146.315 261.211 145.87H261.282V147.113ZM266.981 147.364H265.624V144.828C265.624 144.119 265.544 143.68 265.386 143.51C265.231 143.337 264.978 143.25 264.626 143.25C264.333 143.25 263.98 143.381 263.567 143.641V147.364H262.218V140.447H263.567V142.987C263.989 142.641 264.326 142.412 264.578 142.301C264.833 142.19 265.098 142.134 265.373 142.134C266.445 142.134 266.981 142.763 266.981 144.019V147.364ZM268.432 147.364V140.741H270.813C271.821 140.741 272.505 140.874 272.866 141.141C273.229 141.405 273.411 141.778 273.411 142.262C273.411 142.9 273.097 143.365 272.47 143.655V143.69C273.417 143.889 273.89 144.435 273.89 145.329C273.89 145.953 273.655 146.448 273.187 146.814C272.721 147.181 272.044 147.364 271.156 147.364H268.432ZM269.873 141.783V143.387H270.418C270.866 143.387 271.184 143.363 271.372 143.316C271.559 143.266 271.698 143.174 271.789 143.039C271.88 142.902 271.925 142.73 271.925 142.525C271.925 142.361 271.884 142.221 271.802 142.103C271.723 141.986 271.593 141.904 271.411 141.857C271.229 141.807 270.863 141.783 270.312 141.783H269.873ZM269.873 144.371V146.322H270.326C270.727 146.322 271.036 146.318 271.253 146.309C271.47 146.3 271.666 146.258 271.842 146.182C272.021 146.105 272.155 145.995 272.246 145.852C272.34 145.708 272.387 145.534 272.387 145.329C272.387 145.106 272.338 144.923 272.242 144.78C272.148 144.636 272.01 144.532 271.829 144.468C271.65 144.403 271.229 144.371 270.567 144.371H269.873ZM279.651 147.364H278.302V146.652C277.892 146.986 277.558 147.211 277.3 147.328C277.042 147.446 276.774 147.504 276.496 147.504C275.423 147.504 274.887 146.876 274.887 145.619V142.275H276.245V144.81C276.245 145.519 276.323 145.96 276.478 146.133C276.633 146.306 276.887 146.392 277.238 146.392C277.54 146.392 277.895 146.261 278.302 145.997V142.275H279.651V147.364ZM284.054 147.333C283.694 147.421 283.309 147.465 282.898 147.465C282.292 147.465 281.848 147.336 281.567 147.078C281.286 146.817 281.145 146.397 281.145 145.817V143.167H280.477V142.275H281.149V140.847H282.494V142.275H284.054V143.167H282.494V145.263C282.494 145.802 282.563 146.154 282.701 146.318C282.838 146.482 283.07 146.564 283.395 146.564C283.603 146.564 283.81 146.513 284.015 146.41H284.054V147.333ZM287.886 147.333C287.526 147.421 287.141 147.465 286.73 147.465C286.124 147.465 285.68 147.336 285.399 147.078C285.118 146.817 284.977 146.397 284.977 145.817V143.167H284.309V142.275H284.981V140.847H286.326V142.275H287.886V143.167H286.326V145.263C286.326 145.802 286.395 146.154 286.533 146.318C286.67 146.482 286.902 146.564 287.227 146.564C287.435 146.564 287.642 146.513 287.847 146.41H287.886V147.333ZM290.905 147.522C290.079 147.522 289.438 147.285 288.98 146.81C288.523 146.332 288.295 145.67 288.295 144.824C288.295 143.974 288.525 143.31 288.985 142.833C289.448 142.355 290.088 142.117 290.905 142.117C291.729 142.117 292.369 142.355 292.826 142.833C293.286 143.31 293.516 143.974 293.516 144.824C293.516 145.67 293.286 146.332 292.826 146.81C292.369 147.285 291.729 147.522 290.905 147.522ZM290.905 143.057C290.105 143.057 289.706 143.65 289.706 144.837C289.706 146 290.111 146.581 290.923 146.581C291.711 146.581 292.105 146 292.105 144.837C292.105 143.65 291.705 143.057 290.905 143.057ZM299.29 147.364H297.932V144.828C297.932 144.119 297.853 143.68 297.695 143.51C297.54 143.337 297.286 143.25 296.935 143.25C296.642 143.25 296.289 143.381 295.875 143.641V147.364H294.526V142.275H295.875V142.987C296.297 142.641 296.634 142.412 296.886 142.301C297.141 142.19 297.406 142.134 297.682 142.134C298.754 142.134 299.29 142.763 299.29 144.019V147.364Z" fill="white"/>
<rect x="316" y="132.364" width="133" height="25.6364" rx="2" fill="#282828"/>
<path d="M327.823 147.504C326.815 147.504 326.023 147.198 325.446 146.586C324.872 145.971 324.584 145.128 324.584 144.059C324.584 142.984 324.87 142.14 325.441 141.528C326.016 140.912 326.81 140.605 327.823 140.605C328.834 140.605 329.626 140.912 330.201 141.528C330.778 142.143 331.066 142.987 331.066 144.059C331.066 145.122 330.779 145.963 330.205 146.581C329.634 147.197 328.84 147.504 327.823 147.504ZM327.828 141.651C327.303 141.651 326.886 141.86 326.575 142.279C326.265 142.698 326.109 143.291 326.109 144.059C326.109 144.824 326.265 145.415 326.575 145.834C326.886 146.25 327.303 146.458 327.828 146.458C328.349 146.458 328.765 146.249 329.076 145.83C329.386 145.408 329.542 144.816 329.542 144.055C329.542 143.29 329.386 142.698 329.076 142.279C328.768 141.86 328.352 141.651 327.828 141.651ZM333.483 147.003V149.196H332.134V142.275H333.483V142.956C333.876 142.625 334.195 142.405 334.441 142.297C334.69 142.188 334.953 142.134 335.228 142.134C335.823 142.134 336.284 142.363 336.612 142.82C336.94 143.277 337.104 143.915 337.104 144.736C337.104 145.541 336.896 146.195 336.48 146.696C336.064 147.194 335.546 147.443 334.925 147.443C334.491 147.443 334.011 147.296 333.483 147.003ZM333.483 143.536V146.34C333.724 146.439 333.998 146.489 334.305 146.489C335.24 146.489 335.707 145.922 335.707 144.788C335.707 143.713 335.316 143.176 334.534 143.176C334.214 143.176 333.864 143.296 333.483 143.536ZM342.712 145.03H339.104C339.163 146.05 339.741 146.559 340.84 146.559C341.414 146.559 341.991 146.351 342.571 145.935H342.62V147.104C341.931 147.368 341.284 147.5 340.677 147.5C339.722 147.5 338.994 147.273 338.493 146.819C337.992 146.365 337.742 145.71 337.742 144.854C337.742 144.005 337.979 143.337 338.454 142.85C338.928 142.361 339.583 142.117 340.418 142.117C341.947 142.117 342.712 142.93 342.712 144.556V145.03ZM341.363 144.266C341.351 143.39 340.995 142.952 340.295 142.952C339.551 142.952 339.154 143.39 339.104 144.266H341.363ZM348.473 147.364H347.115V144.828C347.115 144.119 347.036 143.68 346.878 143.51C346.723 143.337 346.469 143.25 346.118 143.25C345.825 143.25 345.472 143.381 345.059 143.641V147.364H343.709V142.275H345.059V142.987C345.48 142.641 345.817 142.412 346.069 142.301C346.324 142.19 346.589 142.134 346.865 142.134C347.937 142.134 348.473 142.763 348.473 144.019V147.364ZM351.374 145.109V147.364H349.923V140.741H352.428C353.287 140.741 353.938 140.917 354.384 141.268C354.829 141.617 355.052 142.128 355.052 142.802C355.052 143.505 354.806 144.066 354.313 144.485C353.821 144.901 353.18 145.109 352.389 145.109H351.374ZM351.365 141.783V144.059H351.751C352.478 144.059 352.958 143.959 353.193 143.76C353.43 143.558 353.549 143.249 353.549 142.833C353.549 142.49 353.435 142.229 353.206 142.051C352.98 141.872 352.532 141.783 351.861 141.783H351.365ZM357.412 141.638H355.966V140.447H357.412V141.638ZM357.363 147.364H356.014V142.275H357.363V147.364ZM362.751 147.113C362.183 147.371 361.668 147.5 361.208 147.5C360.318 147.5 359.624 147.27 359.125 146.81C358.627 146.35 358.378 145.694 358.378 144.841C358.378 143.983 358.63 143.318 359.134 142.846C359.638 142.371 360.312 142.134 361.156 142.134C361.707 142.134 362.238 142.265 362.751 142.525V143.765H362.681C362.183 143.319 361.692 143.097 361.208 143.097C360.76 143.097 360.412 143.25 360.163 143.558C359.914 143.866 359.789 144.293 359.789 144.841C359.789 145.389 359.914 145.809 360.163 146.102C360.415 146.392 360.771 146.537 361.23 146.537C361.72 146.537 362.203 146.315 362.681 145.87H362.751V147.113ZM368.64 147.364H367.04L365.612 145.144L365.027 145.865V147.364H363.687V140.447H365.036V144.745L366.952 142.275H368.503L366.702 144.472L368.64 147.364ZM373.825 145.03H370.217C370.276 146.05 370.854 146.559 371.953 146.559C372.527 146.559 373.104 146.351 373.685 145.935H373.733V147.104C373.044 147.368 372.397 147.5 371.791 147.5C370.835 147.5 370.107 147.273 369.606 146.819C369.105 146.365 368.855 145.71 368.855 144.854C368.855 144.005 369.092 143.337 369.567 142.85C370.042 142.361 370.696 142.117 371.531 142.117C373.061 142.117 373.825 142.93 373.825 144.556V145.03ZM372.476 144.266C372.464 143.39 372.108 142.952 371.408 142.952C370.664 142.952 370.267 143.39 370.217 144.266H372.476ZM378.264 143.65H378.22C378.038 143.603 377.795 143.58 377.49 143.58C377.013 143.58 376.573 143.656 376.172 143.808V147.364H374.823V142.275H376.172V143.198C376.585 142.826 376.925 142.577 377.191 142.451C377.458 142.322 377.72 142.257 377.978 142.257C378.045 142.257 378.141 142.26 378.264 142.266V143.65ZM379.138 147.364V140.741H381.208C382.146 140.741 382.876 140.861 383.401 141.101C383.925 141.342 384.338 141.711 384.64 142.209C384.945 142.707 385.097 143.324 385.097 144.059C385.097 144.724 384.939 145.322 384.623 145.852C384.309 146.379 383.889 146.763 383.361 147.003C382.834 147.244 382.122 147.364 381.226 147.364H379.138ZM380.588 141.783V146.322H381.3C382.821 146.322 383.581 145.563 383.581 144.046C383.581 142.537 382.821 141.783 381.3 141.783H380.588ZM387.558 141.638H386.112V140.447H387.558V141.638ZM387.51 147.364H386.161V142.275H387.51V147.364ZM393.227 147.364H391.887V146.7C391.474 147.055 391.138 147.276 390.88 147.364C390.625 147.454 390.353 147.5 390.063 147.5C389.618 147.5 389.249 147.356 388.956 147.069C388.663 146.779 388.516 146.407 388.516 145.953C388.516 145.379 388.731 144.944 389.162 144.648C389.596 144.352 390.508 144.167 391.9 144.094V143.958C391.9 143.639 391.79 143.407 391.57 143.264C391.351 143.12 390.987 143.048 390.48 143.048C390.135 143.048 389.64 143.18 388.995 143.444H388.947V142.376C389.626 142.212 390.242 142.13 390.792 142.13C391.651 142.13 392.271 142.269 392.651 142.547C393.035 142.823 393.227 143.262 393.227 143.866V147.364ZM391.887 146.124V144.841C391.002 144.914 390.448 145.029 390.226 145.184C390.003 145.336 389.892 145.549 389.892 145.821C389.892 146.111 389.969 146.313 390.125 146.428C390.28 146.542 390.523 146.599 390.854 146.599C391.203 146.599 391.547 146.441 391.887 146.124ZM395.93 147.364H394.581V140.447H395.93V147.364ZM399.555 147.522C398.729 147.522 398.087 147.285 397.63 146.81C397.173 146.332 396.945 145.67 396.945 144.824C396.945 143.974 397.175 143.31 397.635 142.833C398.098 142.355 398.738 142.117 399.555 142.117C400.378 142.117 401.019 142.355 401.476 142.833C401.936 143.31 402.166 143.974 402.166 144.824C402.166 145.67 401.936 146.332 401.476 146.81C401.019 147.285 400.378 147.522 399.555 147.522ZM399.555 143.057C398.755 143.057 398.355 143.65 398.355 144.837C398.355 146 398.761 146.581 399.573 146.581C400.361 146.581 400.755 146 400.755 144.837C400.755 143.65 400.355 143.057 399.555 143.057ZM407.769 146.779C407.769 147.62 407.558 148.241 407.136 148.642C406.714 149.044 406.039 149.245 405.11 149.245C404.509 149.245 403.915 149.179 403.326 149.047V147.948H403.392C403.975 148.156 404.48 148.26 404.908 148.26C405.432 148.26 405.814 148.168 406.055 147.983C406.298 147.799 406.419 147.434 406.419 146.889V146.608C405.895 147.059 405.387 147.285 404.895 147.285C403.497 147.285 402.798 146.419 402.798 144.687C402.798 143.92 403 143.303 403.405 142.837C403.812 142.369 404.332 142.134 404.965 142.134C405.46 142.134 405.939 142.289 406.402 142.6L406.494 142.275H407.769V146.779ZM406.419 145.87V143.303C406.124 143.177 405.85 143.114 405.598 143.114C404.663 143.114 404.196 143.649 404.196 144.718C404.196 145.254 404.292 145.642 404.486 145.883C404.682 146.12 404.985 146.239 405.396 146.239C405.715 146.239 406.056 146.116 406.419 145.87ZM409.258 147.364V140.741H411.64C412.648 140.741 413.332 140.874 413.692 141.141C414.056 141.405 414.237 141.778 414.237 142.262C414.237 142.9 413.924 143.365 413.297 143.655V143.69C414.243 143.889 414.716 144.435 414.716 145.329C414.716 145.953 414.482 146.448 414.013 146.814C413.547 147.181 412.871 147.364 411.983 147.364H409.258ZM410.7 141.783V143.387H411.245C411.693 143.387 412.011 143.363 412.198 143.316C412.386 143.266 412.525 143.174 412.616 143.039C412.707 142.902 412.752 142.73 412.752 142.525C412.752 142.361 412.711 142.221 412.629 142.103C412.55 141.986 412.419 141.904 412.238 141.857C412.056 141.807 411.69 141.783 411.139 141.783H410.7ZM410.7 144.371V146.322H411.152C411.554 146.322 411.863 146.318 412.08 146.309C412.296 146.3 412.493 146.258 412.668 146.182C412.847 146.105 412.982 145.995 413.073 145.852C413.167 145.708 413.213 145.534 413.213 145.329C413.213 145.106 413.165 144.923 413.068 144.78C412.975 144.636 412.837 144.532 412.655 144.468C412.477 144.403 412.056 144.371 411.394 144.371H410.7ZM420.478 147.364H419.128V146.652C418.718 146.986 418.384 147.211 418.126 147.328C417.869 147.446 417.601 147.504 417.322 147.504C416.25 147.504 415.714 146.876 415.714 145.619V142.275H417.072V144.81C417.072 145.519 417.149 145.96 417.305 146.133C417.46 146.306 417.713 146.392 418.065 146.392C418.367 146.392 418.721 146.261 419.128 145.997V142.275H420.478V147.364ZM424.881 147.333C424.521 147.421 424.135 147.465 423.725 147.465C423.119 147.465 422.675 147.336 422.394 147.078C422.112 146.817 421.972 146.397 421.972 145.817V143.167H421.304V142.275H421.976V140.847H423.321V142.275H424.881V143.167H423.321V145.263C423.321 145.802 423.39 146.154 423.527 146.318C423.665 146.482 423.896 146.564 424.222 146.564C424.43 146.564 424.636 146.513 424.841 146.41H424.881V147.333ZM428.713 147.333C428.353 147.421 427.967 147.465 427.557 147.465C426.951 147.465 426.507 147.336 426.226 147.078C425.944 146.817 425.804 146.397 425.804 145.817V143.167H425.136V142.275H425.808V140.847H427.153V142.275H428.713V143.167H427.153V145.263C427.153 145.802 427.222 146.154 427.359 146.318C427.497 146.482 427.729 146.564 428.054 146.564C428.262 146.564 428.468 146.513 428.673 146.41H428.713V147.333ZM431.732 147.522C430.906 147.522 430.264 147.285 429.807 146.81C429.35 146.332 429.122 145.67 429.122 144.824C429.122 143.974 429.352 143.31 429.812 142.833C430.274 142.355 430.915 142.117 431.732 142.117C432.555 142.117 433.195 142.355 433.652 142.833C434.112 143.31 434.342 143.974 434.342 144.824C434.342 145.67 434.112 146.332 433.652 146.81C433.195 147.285 432.555 147.522 431.732 147.522ZM431.732 143.057C430.932 143.057 430.532 143.65 430.532 144.837C430.532 146 430.938 146.581 431.75 146.581C432.538 146.581 432.932 146 432.932 144.837C432.932 143.65 432.532 143.057 431.732 143.057ZM440.117 147.364H438.759V144.828C438.759 144.119 438.68 143.68 438.521 143.51C438.366 143.337 438.113 143.25 437.761 143.25C437.468 143.25 437.115 143.381 436.702 143.641V147.364H435.353V142.275H436.702V142.987C437.124 142.641 437.461 142.412 437.713 142.301C437.968 142.19 438.233 142.134 438.508 142.134C439.581 142.134 440.117 142.763 440.117 144.019V147.364Z" fill="white"/>
<line x1="52.6765" y1="43" x2="52.6765" y2="61" stroke="#282828" stroke-width="2"/>
<line x1="29.0588" y1="73" x2="29.0588" y2="61" stroke="#282828" stroke-width="2"/>
<line x1="308" y1="62" x2="30.0588" y2="62" stroke="#282828" stroke-width="2"/>
<line x1="307" y1="73" x2="307" y2="61" stroke="#282828" stroke-width="2"/>
<path d="M53 136.8L53 123" stroke="#282828" stroke-width="2"/>
<line y1="-1" x2="9.2" y2="-1" transform="matrix(0 1 1 0 31 114)" stroke="#282828" stroke-width="2"/>
<line y1="-1" x2="243" y2="-1" transform="matrix(-1 2.01348e-08 9.48946e-08 1 274 123.2)" stroke="#282828" stroke-width="2"/>
<line y1="-1" x2="9.2" y2="-1" transform="matrix(0 1 1 0 274 114)" stroke="#282828" stroke-width="2"/>
<line y1="-1" x2="13.8" y2="-1" transform="matrix(-8.44665e-09 -1 -1 4.02145e-07 291.125 136.8)" stroke="#282828" stroke-width="2"/>
<line y1="-1" x2="9.2" y2="-1" transform="matrix(0 1 1 0 278 114)" stroke="#282828" stroke-width="2"/>
<line y1="-1" x2="30" y2="-1" transform="matrix(-1 1.63092e-07 1.17154e-08 1 308 123.2)" stroke="#282828" stroke-width="2"/>
<line y1="-1" x2="9.2" y2="-1" transform="matrix(0 1 1 0 308 114)" stroke="#282828" stroke-width="2"/>
<line y1="-1" x2="13.8" y2="-1" transform="matrix(-8.44665e-09 -1 -1 4.02145e-07 330.125 136.8)" stroke="#282828" stroke-width="2"/>
<line y1="-1" x2="9.2" y2="-1" transform="matrix(0 1 1 0 317 114)" stroke="#282828" stroke-width="2"/>
<line y1="-1" x2="30" y2="-1" transform="matrix(-1 1.63092e-07 1.17154e-08 1 347 123.2)" stroke="#282828" stroke-width="2"/>
<line y1="-1" x2="9.2" y2="-1" transform="matrix(0 1 1 0 347 114)" stroke="#282828" stroke-width="2"/>
<rect x="28" y="19" width="50.4412" height="24" rx="2" fill="#282828"/>
<path d="M36.6182 33.6045V32.2026H36.7676C37.0957 32.4722 37.4722 32.686 37.897 32.8442C38.3247 33.0024 38.7349 33.0815 39.1274 33.0815C39.5347 33.0815 39.8628 33.0083 40.1118 32.8618C40.3608 32.7153 40.4854 32.5117 40.4854 32.251C40.4854 32.0488 40.4253 31.8877 40.3052 31.7676C40.188 31.6475 39.9639 31.5479 39.6328 31.4688C39.3955 31.4248 38.9897 31.3384 38.4155 31.2095C37.8442 31.0806 37.4077 30.855 37.106 30.5327C36.8071 30.2075 36.6577 29.793 36.6577 29.2891C36.6577 28.6885 36.9141 28.2007 37.4268 27.8257C37.9395 27.4478 38.5986 27.2588 39.4043 27.2588C40.2246 27.2588 40.9951 27.4082 41.7158 27.707V29.0474H41.5708C40.9556 28.5493 40.2495 28.3003 39.4526 28.3003C39.0747 28.3003 38.7627 28.3706 38.5166 28.5112C38.2734 28.6519 38.1519 28.8438 38.1519 29.0869C38.1519 29.2949 38.2207 29.4604 38.3584 29.5835C38.499 29.7065 38.7378 29.8076 39.0747 29.8867C39.4116 29.9482 39.7866 30.0303 40.1997 30.1328C40.6157 30.2324 40.9248 30.3452 41.127 30.4712C41.332 30.5972 41.4946 30.7349 41.6147 30.8843C41.7378 31.0308 41.8286 31.1948 41.8872 31.3765C41.9487 31.5581 41.9795 31.7588 41.9795 31.9785C41.9795 32.623 41.7158 33.1416 41.1885 33.5342C40.6641 33.9268 39.9683 34.123 39.1011 34.123C38.2573 34.123 37.4297 33.9502 36.6182 33.6045ZM47.5562 31.6665H43.9482C44.0068 32.686 44.5854 33.1958 45.6841 33.1958C46.2583 33.1958 46.8354 32.9878 47.4155 32.5718H47.4639V33.7407C46.7754 34.0044 46.1279 34.1362 45.5215 34.1362C44.5664 34.1362 43.8384 33.9092 43.3374 33.4551C42.8364 33.001 42.5859 32.3462 42.5859 31.4907C42.5859 30.6411 42.8232 29.9731 43.2979 29.4868C43.7725 28.9976 44.4272 28.7529 45.2622 28.7529C46.7915 28.7529 47.5562 29.5659 47.5562 31.1919V31.6665ZM46.207 30.9019C46.1953 30.0259 45.8394 29.5879 45.1392 29.5879C44.395 29.5879 43.998 30.0259 43.9482 30.9019H46.207ZM52.8691 34H51.5288V33.3364C51.1157 33.6909 50.7803 33.9121 50.5225 34C50.2676 34.0908 49.9951 34.1362 49.7051 34.1362C49.2598 34.1362 48.8906 33.9927 48.5977 33.7056C48.3047 33.4155 48.1582 33.0435 48.1582 32.5894C48.1582 32.0151 48.3735 31.5801 48.8042 31.2842C49.2378 30.9883 50.1504 30.8037 51.542 30.7305V30.5942C51.542 30.2749 51.4321 30.0435 51.2124 29.8999C50.9927 29.7563 50.6294 29.6846 50.1226 29.6846C49.7769 29.6846 49.2817 29.8164 48.6372 30.0801H48.5889V29.0122C49.2686 28.8481 49.8838 28.7661 50.4346 28.7661C51.293 28.7661 51.9126 28.9053 52.2935 29.1836C52.6772 29.459 52.8691 29.8984 52.8691 30.502V34ZM51.5288 32.7607V31.4775C50.644 31.5508 50.0903 31.665 49.8677 31.8203C49.645 31.9727 49.5337 32.1851 49.5337 32.4575C49.5337 32.7476 49.6113 32.9497 49.7666 33.064C49.9219 33.1782 50.165 33.2354 50.4961 33.2354C50.8447 33.2354 51.189 33.0771 51.5288 32.7607ZM57.6636 30.2866H57.6196C57.438 30.2397 57.1948 30.2163 56.8901 30.2163C56.4126 30.2163 55.9731 30.2925 55.5718 30.4448V34H54.2227V28.9111H55.5718V29.834C55.9849 29.4619 56.3247 29.2129 56.5913 29.0869C56.8579 28.958 57.1201 28.8936 57.3779 28.8936C57.4453 28.8936 57.5405 28.8965 57.6636 28.9023V30.2866ZM62.436 33.7495C61.8677 34.0073 61.3535 34.1362 60.8936 34.1362C60.0029 34.1362 59.3086 33.9062 58.8105 33.4463C58.3125 32.9863 58.0635 32.3301 58.0635 31.4775C58.0635 30.6191 58.3154 29.9541 58.8193 29.4824C59.3232 29.0078 59.9971 28.7705 60.8408 28.7705C61.3916 28.7705 61.9233 28.9009 62.436 29.1616V30.4009H62.3657C61.8677 29.9556 61.377 29.7329 60.8936 29.7329C60.4453 29.7329 60.0967 29.8867 59.8477 30.1943C59.5986 30.502 59.4741 30.9297 59.4741 31.4775C59.4741 32.0254 59.5986 32.4458 59.8477 32.7388C60.0996 33.0288 60.4556 33.1738 60.9155 33.1738C61.4048 33.1738 61.8882 32.9512 62.3657 32.5059H62.436V33.7495ZM68.1357 34H66.7778V31.4644C66.7778 30.7554 66.6987 30.3159 66.5405 30.146C66.3853 29.9731 66.1318 29.8867 65.7803 29.8867C65.4873 29.8867 65.1343 30.0171 64.7212 30.2778V34H63.3721V27.083H64.7212V29.623C65.1431 29.2773 65.48 29.0488 65.7319 28.9375C65.9868 28.8262 66.252 28.7705 66.5273 28.7705C67.5996 28.7705 68.1357 29.3989 68.1357 30.6558V34Z" fill="white"/>
<rect x="28" y="133" width="67" height="24" rx="2" fill="#282828"/>
<path d="M36.5566 147.604V146.203H36.7061C37.0342 146.472 37.4106 146.686 37.8354 146.844C38.2632 147.002 38.6733 147.082 39.0659 147.082C39.4731 147.082 39.8013 147.008 40.0503 146.862C40.2993 146.715 40.4238 146.512 40.4238 146.251C40.4238 146.049 40.3638 145.888 40.2437 145.768C40.1265 145.647 39.9023 145.548 39.5713 145.469C39.334 145.425 38.9282 145.338 38.354 145.209C37.7827 145.081 37.3462 144.855 37.0444 144.533C36.7456 144.208 36.5962 143.793 36.5962 143.289C36.5962 142.688 36.8525 142.201 37.3652 141.826C37.8779 141.448 38.5371 141.259 39.3428 141.259C40.1631 141.259 40.9336 141.408 41.6543 141.707V143.047H41.5093C40.894 142.549 40.188 142.3 39.3911 142.3C39.0132 142.3 38.7012 142.371 38.4551 142.511C38.2119 142.652 38.0903 142.844 38.0903 143.087C38.0903 143.295 38.1592 143.46 38.2969 143.583C38.4375 143.707 38.6763 143.808 39.0132 143.887C39.3501 143.948 39.7251 144.03 40.1382 144.133C40.5542 144.232 40.8633 144.345 41.0654 144.471C41.2705 144.597 41.4331 144.735 41.5532 144.884C41.6763 145.031 41.7671 145.195 41.8257 145.376C41.8872 145.558 41.918 145.759 41.918 145.979C41.918 146.623 41.6543 147.142 41.127 147.534C40.6025 147.927 39.9067 148.123 39.0396 148.123C38.1958 148.123 37.3682 147.95 36.5566 147.604ZM47.4946 145.667H43.8867C43.9453 146.686 44.5239 147.196 45.6226 147.196C46.1968 147.196 46.7739 146.988 47.354 146.572H47.4023V147.741C46.7139 148.004 46.0664 148.136 45.46 148.136C44.5049 148.136 43.7769 147.909 43.2759 147.455C42.7749 147.001 42.5244 146.346 42.5244 145.491C42.5244 144.641 42.7617 143.973 43.2363 143.487C43.7109 142.998 44.3657 142.753 45.2007 142.753C46.73 142.753 47.4946 143.566 47.4946 145.192V145.667ZM46.1455 144.902C46.1338 144.026 45.7778 143.588 45.0776 143.588C44.3335 143.588 43.9365 144.026 43.8867 144.902H46.1455ZM52.8076 148H51.4673V147.336C51.0542 147.691 50.7188 147.912 50.4609 148C50.2061 148.091 49.9336 148.136 49.6436 148.136C49.1982 148.136 48.8291 147.993 48.5361 147.706C48.2432 147.416 48.0967 147.043 48.0967 146.589C48.0967 146.015 48.312 145.58 48.7427 145.284C49.1763 144.988 50.0889 144.804 51.4805 144.73V144.594C51.4805 144.275 51.3706 144.043 51.1509 143.9C50.9312 143.756 50.5679 143.685 50.061 143.685C49.7153 143.685 49.2202 143.816 48.5757 144.08H48.5273V143.012C49.207 142.848 49.8223 142.766 50.373 142.766C51.2314 142.766 51.8511 142.905 52.2319 143.184C52.6157 143.459 52.8076 143.898 52.8076 144.502V148ZM51.4673 146.761V145.478C50.5825 145.551 50.0288 145.665 49.8062 145.82C49.5835 145.973 49.4722 146.185 49.4722 146.458C49.4722 146.748 49.5498 146.95 49.7051 147.064C49.8604 147.178 50.1035 147.235 50.4346 147.235C50.7832 147.235 51.1274 147.077 51.4673 146.761ZM57.6021 144.287H57.5581C57.3765 144.24 57.1333 144.216 56.8286 144.216C56.3511 144.216 55.9116 144.292 55.5103 144.445V148H54.1611V142.911H55.5103V143.834C55.9233 143.462 56.2632 143.213 56.5298 143.087C56.7964 142.958 57.0586 142.894 57.3164 142.894C57.3838 142.894 57.479 142.896 57.6021 142.902V144.287ZM62.3745 147.75C61.8062 148.007 61.292 148.136 60.832 148.136C59.9414 148.136 59.2471 147.906 58.749 147.446C58.251 146.986 58.002 146.33 58.002 145.478C58.002 144.619 58.2539 143.954 58.7578 143.482C59.2617 143.008 59.9355 142.771 60.7793 142.771C61.3301 142.771 61.8618 142.901 62.3745 143.162V144.401H62.3042C61.8062 143.956 61.3154 143.733 60.832 143.733C60.3838 143.733 60.0352 143.887 59.7861 144.194C59.5371 144.502 59.4126 144.93 59.4126 145.478C59.4126 146.025 59.5371 146.446 59.7861 146.739C60.0381 147.029 60.394 147.174 60.854 147.174C61.3433 147.174 61.8267 146.951 62.3042 146.506H62.3745V147.75ZM68.0742 148H66.7163V145.464C66.7163 144.755 66.6372 144.316 66.479 144.146C66.3237 143.973 66.0703 143.887 65.7188 143.887C65.4258 143.887 65.0728 144.017 64.6597 144.278V148H63.3105V141.083H64.6597V143.623C65.0815 143.277 65.4185 143.049 65.6704 142.938C65.9253 142.826 66.1904 142.771 66.4658 142.771C67.5381 142.771 68.0742 143.399 68.0742 144.656V148ZM69.5244 148V141.377H71.9062C72.9141 141.377 73.5981 141.511 73.9585 141.777C74.3218 142.041 74.5034 142.415 74.5034 142.898C74.5034 143.537 74.1899 144.001 73.563 144.291V144.326C74.5093 144.525 74.9824 145.072 74.9824 145.965C74.9824 146.589 74.748 147.084 74.2793 147.451C73.8135 147.817 73.1367 148 72.249 148H69.5244ZM70.9658 142.419V144.023H71.5107C71.959 144.023 72.2769 144 72.4644 143.953C72.6519 143.903 72.791 143.811 72.8818 143.676C72.9727 143.538 73.0181 143.367 73.0181 143.162C73.0181 142.998 72.9771 142.857 72.895 142.74C72.8159 142.623 72.6855 142.541 72.5039 142.494C72.3223 142.444 71.9561 142.419 71.4053 142.419H70.9658ZM70.9658 145.007V146.958H71.4185C71.8198 146.958 72.1289 146.954 72.3457 146.945C72.5625 146.937 72.7588 146.894 72.9346 146.818C73.1133 146.742 73.248 146.632 73.3389 146.488C73.4326 146.345 73.4795 146.17 73.4795 145.965C73.4795 145.743 73.4312 145.56 73.3345 145.416C73.2407 145.272 73.103 145.168 72.9214 145.104C72.7427 145.04 72.3223 145.007 71.6602 145.007H70.9658ZM78.2432 148.158C77.417 148.158 76.7754 147.921 76.3184 147.446C75.8613 146.969 75.6328 146.307 75.6328 145.46C75.6328 144.61 75.8628 143.947 76.3228 143.469C76.7856 142.992 77.4258 142.753 78.2432 142.753C79.0664 142.753 79.7065 142.992 80.1636 143.469C80.6235 143.947 80.8535 144.61 80.8535 145.46C80.8535 146.307 80.6235 146.969 80.1636 147.446C79.7065 147.921 79.0664 148.158 78.2432 148.158ZM78.2432 143.693C77.4434 143.693 77.0435 144.287 77.0435 145.473C77.0435 146.636 77.4492 147.218 78.2607 147.218C79.0488 147.218 79.4429 146.636 79.4429 145.473C79.4429 144.287 79.043 143.693 78.2432 143.693ZM86.7334 148H85.1294L83.9385 146.317L82.73 148H81.2095L83.1562 145.46L81.2358 142.911H82.8354L84.0088 144.563L85.1909 142.911H86.7158L84.7822 145.42L86.7334 148Z" fill="white"/>
<rect x="104" y="133" width="43" height="24" rx="2" fill="#282828"/>
<path d="M118.904 141.377L116.39 148H114.909L112.4 141.377H113.925L115.678 146.216L117.427 141.377H118.904ZM123.514 148H122.173V147.336C121.76 147.691 121.425 147.912 121.167 148C120.912 148.091 120.64 148.136 120.35 148.136C119.904 148.136 119.535 147.993 119.242 147.706C118.949 147.416 118.803 147.043 118.803 146.589C118.803 146.015 119.018 145.58 119.449 145.284C119.882 144.988 120.795 144.804 122.187 144.73V144.594C122.187 144.275 122.077 144.043 121.857 143.9C121.637 143.756 121.274 143.685 120.767 143.685C120.421 143.685 119.926 143.816 119.282 144.08H119.233V143.012C119.913 142.848 120.528 142.766 121.079 142.766C121.938 142.766 122.557 142.905 122.938 143.184C123.322 143.459 123.514 143.898 123.514 144.502V148ZM122.173 146.761V145.478C121.289 145.551 120.735 145.665 120.512 145.82C120.29 145.973 120.178 146.185 120.178 146.458C120.178 146.748 120.256 146.95 120.411 147.064C120.566 147.178 120.81 147.235 121.141 147.235C121.489 147.235 121.833 147.077 122.173 146.761ZM126.216 148H124.867V141.083H126.216V148ZM132.342 148H130.993V147.288C130.583 147.622 130.249 147.848 129.991 147.965C129.733 148.082 129.465 148.141 129.187 148.141C128.115 148.141 127.579 147.512 127.579 146.255V142.911H128.937V145.447C128.937 146.156 129.014 146.597 129.169 146.77C129.325 146.942 129.578 147.029 129.93 147.029C130.231 147.029 130.586 146.897 130.993 146.633V142.911H132.342V148ZM138.328 145.667H134.72C134.778 146.686 135.357 147.196 136.456 147.196C137.03 147.196 137.607 146.988 138.187 146.572H138.235V147.741C137.547 148.004 136.899 148.136 136.293 148.136C135.338 148.136 134.61 147.909 134.109 147.455C133.608 147.001 133.357 146.346 133.357 145.491C133.357 144.641 133.595 143.973 134.069 143.487C134.544 142.998 135.199 142.753 136.034 142.753C137.563 142.753 138.328 143.566 138.328 145.192V145.667ZM136.979 144.902C136.967 144.026 136.611 143.588 135.911 143.588C135.167 143.588 134.77 144.026 134.72 144.902H136.979Z" fill="white"/>
<line x1="53.0003" y1="317.023" x2="52.0003" y2="273.023" stroke="#282828" stroke-width="2"/>
<rect x="32" y="307" width="72" height="24" rx="2" fill="#282828"/>
<path d="M42.4238 319.746V322H40.9736V315.377H43.4785C44.3369 315.377 44.9888 315.553 45.4341 315.905C45.8794 316.253 46.1021 316.765 46.1021 317.438C46.1021 318.142 45.856 318.703 45.3638 319.122C44.8716 319.538 44.23 319.746 43.439 319.746H42.4238ZM42.415 316.419V318.695H42.8018C43.5283 318.695 44.0088 318.596 44.2432 318.396C44.4805 318.194 44.5991 317.885 44.5991 317.469C44.5991 317.126 44.4849 316.866 44.2563 316.687C44.0308 316.508 43.5825 316.419 42.9116 316.419H42.415ZM48.4136 322H47.0645V315.083H48.4136V322ZM54.1309 322H52.7905V321.336C52.3774 321.691 52.042 321.912 51.7842 322C51.5293 322.091 51.2568 322.136 50.9668 322.136C50.5215 322.136 50.1523 321.993 49.8594 321.706C49.5664 321.416 49.4199 321.043 49.4199 320.589C49.4199 320.015 49.6353 319.58 50.0659 319.284C50.4995 318.988 51.4121 318.804 52.8037 318.73V318.594C52.8037 318.275 52.6938 318.043 52.4741 317.9C52.2544 317.756 51.8911 317.685 51.3843 317.685C51.0386 317.685 50.5435 317.816 49.8989 318.08H49.8506V317.012C50.5303 316.848 51.1455 316.766 51.6963 316.766C52.5547 316.766 53.1743 316.905 53.5552 317.184C53.939 317.459 54.1309 317.898 54.1309 318.502V322ZM52.7905 320.761V319.478C51.9058 319.551 51.3521 319.665 51.1294 319.82C50.9067 319.973 50.7954 320.185 50.7954 320.458C50.7954 320.748 50.873 320.95 51.0283 321.064C51.1836 321.178 51.4268 321.235 51.7578 321.235C52.1064 321.235 52.4507 321.077 52.7905 320.761ZM59.4702 321.75C58.9019 322.007 58.3877 322.136 57.9277 322.136C57.0371 322.136 56.3428 321.906 55.8447 321.446C55.3467 320.986 55.0977 320.33 55.0977 319.478C55.0977 318.619 55.3496 317.954 55.8535 317.482C56.3574 317.008 57.0312 316.771 57.875 316.771C58.4258 316.771 58.9575 316.901 59.4702 317.162V318.401H59.3999C58.9019 317.956 58.4111 317.733 57.9277 317.733C57.4795 317.733 57.1309 317.887 56.8818 318.194C56.6328 318.502 56.5083 318.93 56.5083 319.478C56.5083 320.025 56.6328 320.446 56.8818 320.739C57.1338 321.029 57.4897 321.174 57.9497 321.174C58.439 321.174 58.9224 320.951 59.3999 320.506H59.4702V321.75ZM64.9897 319.667H61.3818C61.4404 320.686 62.019 321.196 63.1177 321.196C63.6919 321.196 64.269 320.988 64.8491 320.572H64.8975V321.741C64.209 322.004 63.5615 322.136 62.9551 322.136C62 322.136 61.272 321.909 60.771 321.455C60.27 321.001 60.0195 320.346 60.0195 319.491C60.0195 318.641 60.2568 317.973 60.7314 317.487C61.2061 316.998 61.8608 316.753 62.6958 316.753C64.2251 316.753 64.9897 317.566 64.9897 319.192V319.667ZM63.6406 318.902C63.6289 318.026 63.2729 317.588 62.5728 317.588C61.8286 317.588 61.4316 318.026 61.3818 318.902H63.6406ZM70.751 322H69.3931V319.464C69.3931 318.755 69.314 318.316 69.1558 318.146C69.0005 317.973 68.7471 317.887 68.3955 317.887C68.1025 317.887 67.7495 318.017 67.3364 318.278V322H65.9873V315.083H67.3364V317.623C67.7583 317.277 68.0952 317.049 68.3472 316.938C68.6021 316.826 68.8672 316.771 69.1426 316.771C70.2148 316.771 70.751 317.399 70.751 318.656V322ZM74.3369 322.158C73.5107 322.158 72.8691 321.921 72.4121 321.446C71.9551 320.969 71.7266 320.307 71.7266 319.46C71.7266 318.61 71.9565 317.947 72.4165 317.469C72.8794 316.992 73.5195 316.753 74.3369 316.753C75.1602 316.753 75.8003 316.992 76.2573 317.469C76.7173 317.947 76.9473 318.61 76.9473 319.46C76.9473 320.307 76.7173 320.969 76.2573 321.446C75.8003 321.921 75.1602 322.158 74.3369 322.158ZM74.3369 317.693C73.5371 317.693 73.1372 318.287 73.1372 319.473C73.1372 320.636 73.543 321.218 74.3545 321.218C75.1426 321.218 75.5366 320.636 75.5366 319.473C75.5366 318.287 75.1367 317.693 74.3369 317.693ZM79.3071 322H77.958V315.083H79.3071V322ZM85.3013 322H83.9521V321.332C83.5127 321.689 83.1816 321.914 82.959 322.004C82.7363 322.095 82.4976 322.141 82.2427 322.141C81.6597 322.141 81.1953 321.905 80.8496 321.433C80.5039 320.958 80.3311 320.314 80.3311 319.5C80.3311 318.691 80.5405 318.035 80.9595 317.531C81.3784 317.024 81.8984 316.771 82.5195 316.771C82.7422 316.771 82.9458 316.795 83.1304 316.845C83.3149 316.895 83.5889 317.015 83.9521 317.206V315.083H85.3013V322ZM83.9521 320.695V317.939C83.6592 317.813 83.3867 317.75 83.1348 317.75C82.1973 317.75 81.7285 318.322 81.7285 319.464C81.7285 320.042 81.8252 320.459 82.0186 320.717C82.2119 320.972 82.5151 321.099 82.9282 321.099C83.2388 321.099 83.5801 320.964 83.9521 320.695ZM91.2866 319.667H87.6787C87.7373 320.686 88.3159 321.196 89.4146 321.196C89.9888 321.196 90.5659 320.988 91.146 320.572H91.1943V321.741C90.5059 322.004 89.8584 322.136 89.252 322.136C88.2969 322.136 87.5688 321.909 87.0679 321.455C86.5669 321.001 86.3164 320.346 86.3164 319.491C86.3164 318.641 86.5537 317.973 87.0283 317.487C87.5029 316.998 88.1577 316.753 88.9927 316.753C90.522 316.753 91.2866 317.566 91.2866 319.192V319.667ZM89.9375 318.902C89.9258 318.026 89.5698 317.588 88.8696 317.588C88.1255 317.588 87.7285 318.026 87.6787 318.902H89.9375ZM95.7251 318.287H95.6812C95.4995 318.24 95.2563 318.216 94.9517 318.216C94.4741 318.216 94.0347 318.292 93.6333 318.445V322H92.2842V316.911H93.6333V317.834C94.0464 317.462 94.3862 317.213 94.6528 317.087C94.9194 316.958 95.1816 316.894 95.4395 316.894C95.5068 316.894 95.6021 316.896 95.7251 316.902V318.287Z" fill="white"/>
<path d="M81 92H126V134" stroke="#282828" stroke-width="2"/>
<defs>
<filter id="filter0_ii_816_1517" x="26" y="247" width="252" height="36" filterUnits="userSpaceOnUse" color-interpolation-filters="sRGB">
<feFlood flood-opacity="0" result="BackgroundImageFix"/>
<feBlend mode="normal" in="SourceGraphic" in2="BackgroundImageFix" result="shape"/>
<feColorMatrix in="SourceAlpha" type="matrix" values="0 0 0 0 0 0 0 0 0 0 0 0 0 0 0 0 0 0 127 0" result="hardAlpha"/>
<feOffset dx="2" dy="2"/>
<feGaussianBlur stdDeviation="2"/>
<feComposite in2="hardAlpha" operator="arithmetic" k2="-1" k3="1"/>
<feColorMatrix type="matrix" values="0 0 0 0 0.960784 0 0 0 0 0.960784 0 0 0 0 0.960784 0 0 0 1 0"/>
<feBlend mode="darken" in2="shape" result="effect1_innerShadow_816_1517"/>
<feColorMatrix in="SourceAlpha" type="matrix" values="0 0 0 0 0 0 0 0 0 0 0 0 0 0 0 0 0 0 127 0" result="hardAlpha"/>
<feOffset dx="-2" dy="-2"/>
<feGaussianBlur stdDeviation="2"/>
<feComposite in2="hardAlpha" operator="arithmetic" k2="-1" k3="1"/>
<feColorMatrix type="matrix" values="0 0 0 0 0.960784 0 0 0 0 0.960784 0 0 0 0 0.960784 0 0 0 1 0"/>
<feBlend mode="darken" in2="effect1_innerShadow_816_1517" result="effect2_innerShadow_816_1517"/>
</filter>
<filter id="filter1_ii_816_1517" x="26" y="74" width="252" height="36" filterUnits="userSpaceOnUse" color-interpolation-filters="sRGB">
<feFlood flood-opacity="0" result="BackgroundImageFix"/>
<feBlend mode="normal" in="SourceGraphic" in2="BackgroundImageFix" result="shape"/>
<feColorMatrix in="SourceAlpha" type="matrix" values="0 0 0 0 0 0 0 0 0 0 0 0 0 0 0 0 0 0 127 0" result="hardAlpha"/>
<feOffset dx="2" dy="2"/>
<feGaussianBlur stdDeviation="2"/>
<feComposite in2="hardAlpha" operator="arithmetic" k2="-1" k3="1"/>
<feColorMatrix type="matrix" values="0 0 0 0 0.960784 0 0 0 0 0.960784 0 0 0 0 0.960784 0 0 0 1 0"/>
<feBlend mode="darken" in2="shape" result="effect1_innerShadow_816_1517"/>
<feColorMatrix in="SourceAlpha" type="matrix" values="0 0 0 0 0 0 0 0 0 0 0 0 0 0 0 0 0 0 127 0" result="hardAlpha"/>
<feOffset dx="-2" dy="-2"/>
<feGaussianBlur stdDeviation="2"/>
<feComposite in2="hardAlpha" operator="arithmetic" k2="-1" k3="1"/>
<feColorMatrix type="matrix" values="0 0 0 0 0.960784 0 0 0 0 0.960784 0 0 0 0 0.960784 0 0 0 1 0"/>
<feBlend mode="darken" in2="effect1_innerShadow_816_1517" result="effect2_innerShadow_816_1517"/>
</filter>
<clipPath id="clip0_816_1517">
<rect width="248" height="32" fill="white" transform="translate(28 249)"/>
</clipPath>
<clipPath id="clip1_816_1517">
<rect width="248" height="32" fill="white" transform="translate(28 76)"/>
</clipPath>
</defs>
</svg>
