<svg width="748" height="271" viewBox="0 0 748 271" fill="none" xmlns="http://www.w3.org/2000/svg">
<rect width="748" height="271" fill="white"/>
<rect width="476" height="48" transform="translate(198 42)" fill="#F2F4F6"/>
<g clip-path="url(#clip0_939_2490)">
<path d="M256.587 49.4775H223.413V82.7184H256.587V49.4775Z" fill="#717272"/>
<path d="M239.941 55.6555C242.405 55.6555 244.647 58.0457 244.608 61.4286C244.569 64.7853 243.2 65.4384 242.431 66.862C242.144 67.3976 242.066 69.0694 242.613 69.3959C245.129 70.9241 247.593 72.0865 249.691 73.3143C250.617 73.8629 250.747 74.9992 250.747 75.7698C249.053 75.7698 244.477 75.7698 239.941 75.7698C235.405 75.7698 230.83 75.7698 229.136 75.7698C229.136 74.9992 229.266 73.8629 230.191 73.3143C232.29 72.0865 234.754 70.9241 237.269 69.3959C237.817 69.0694 237.738 67.3976 237.452 66.862C236.683 65.4384 235.314 64.7723 235.275 61.4286C235.236 58.0457 237.478 55.6555 239.941 55.6555Z" fill="white"/>
</g>
<path d="M269.445 70.5V58.7266H272.914C273.445 58.7266 273.896 58.737 274.266 58.7578C274.641 58.7786 275.023 58.8464 275.414 58.9609C275.81 59.0755 276.148 59.25 276.43 59.4844C276.711 59.7135 276.919 59.9844 277.055 60.2969C277.19 60.6094 277.258 60.9661 277.258 61.3672C277.258 62.4089 276.732 63.2109 275.68 63.7734V63.8359C276.477 64.0026 277.099 64.3542 277.547 64.8906C277.995 65.4219 278.219 66.0833 278.219 66.875C278.219 67.9948 277.815 68.8802 277.008 69.5312C276.206 70.1771 275.06 70.5 273.57 70.5H269.445ZM270.898 59.9609V63.5391H273C274.016 63.5391 274.727 63.375 275.133 63.0469C275.539 62.7188 275.742 62.2135 275.742 61.5312C275.742 61.0573 275.581 60.6771 275.258 60.3906C274.935 60.1042 274.122 59.9609 272.82 59.9609H270.898ZM270.898 64.7422V69.2656H273.016C274.51 69.2656 275.497 69.0599 275.977 68.6484C276.461 68.2318 276.703 67.6719 276.703 66.9688C276.703 66.5104 276.615 66.1198 276.438 65.7969C276.26 65.4688 275.982 65.2109 275.602 65.0234C275.227 64.8359 274.495 64.7422 273.406 64.7422H270.898ZM280.852 65.1719H286.031C285.99 63.4167 285.185 62.5391 283.617 62.5391C282.826 62.5391 282.185 62.7734 281.695 63.2422C281.206 63.7109 280.924 64.3542 280.852 65.1719ZM284.078 70.7031C282.609 70.7031 281.469 70.3073 280.656 69.5156C279.849 68.7188 279.445 67.5938 279.445 66.1406C279.445 64.6979 279.833 63.5521 280.609 62.7031C281.385 61.849 282.414 61.4219 283.695 61.4219C284.862 61.4219 285.766 61.7708 286.406 62.4688C287.052 63.1667 287.375 64.1615 287.375 65.4531V66.2109H280.852C280.852 67.2734 281.138 68.0911 281.711 68.6641C282.289 69.2318 283.086 69.5156 284.102 69.5156C285.112 69.5156 286.122 69.1641 287.133 68.4609H287.195V69.9531C285.94 70.4531 284.901 70.7031 284.078 70.7031ZM290.719 70.5H289.344V58.2031H290.719V70.5ZM296.812 70.7422C295.557 70.7422 294.565 70.3281 293.836 69.5C293.107 68.6667 292.742 67.5312 292.742 66.0938C292.742 64.6562 293.109 63.5182 293.844 62.6797C294.578 61.8411 295.568 61.4219 296.812 61.4219C298.057 61.4219 299.047 61.8385 299.781 62.6719C300.516 63.5052 300.883 64.6458 300.883 66.0938C300.883 67.5417 300.516 68.6797 299.781 69.5078C299.052 70.3307 298.062 70.7422 296.812 70.7422ZM296.812 62.5938C295.964 62.5938 295.31 62.8932 294.852 63.4922C294.393 64.0911 294.164 64.9583 294.164 66.0938C294.164 67.2135 294.393 68.0729 294.852 68.6719C295.31 69.2708 295.964 69.5703 296.812 69.5703C297.661 69.5703 298.315 69.2708 298.773 68.6719C299.232 68.0729 299.461 67.2135 299.461 66.0938C299.461 63.7604 298.578 62.5938 296.812 62.5938ZM310.188 70.5H308.812V65.5547C308.812 64.4089 308.661 63.651 308.359 63.2812C308.057 62.9062 307.56 62.7188 306.867 62.7188C306.049 62.7188 305.182 63.099 304.266 63.8594V70.5H302.891V61.6719H304.266V62.7344C305.302 61.8594 306.326 61.4219 307.336 61.4219C308.247 61.4219 308.951 61.7083 309.445 62.2812C309.94 62.849 310.188 63.6719 310.188 64.75V70.5ZM319.836 69.5C319.836 72.3958 318.464 73.8438 315.719 73.8438C314.818 73.8438 313.922 73.7214 313.031 73.4766V72.0547H313.094C314.005 72.4297 314.906 72.6172 315.797 72.6172C316.698 72.6172 317.367 72.4141 317.805 72.0078C318.242 71.6068 318.461 70.9557 318.461 70.0547V69.1797C317.518 69.9714 316.531 70.3672 315.5 70.3672C314.453 70.3672 313.633 69.9818 313.039 69.2109C312.445 68.4401 312.148 67.3724 312.148 66.0078C312.148 64.6432 312.513 63.5391 313.242 62.6953C313.977 61.8464 314.885 61.4219 315.969 61.4219C316.823 61.4219 317.654 61.6536 318.461 62.1172L318.562 61.6719H319.836V69.5ZM318.461 68.0703V63.1875C317.685 62.8281 316.961 62.6484 316.289 62.6484C315.43 62.6484 314.76 62.9323 314.281 63.5C313.807 64.0677 313.57 64.8802 313.57 65.9375C313.57 68.0417 314.352 69.0938 315.914 69.0938C316.742 69.0938 317.591 68.7526 318.461 68.0703ZM323.258 65.1719H328.438C328.396 63.4167 327.591 62.5391 326.023 62.5391C325.232 62.5391 324.591 62.7734 324.102 63.2422C323.612 63.7109 323.331 64.3542 323.258 65.1719ZM326.484 70.7031C325.016 70.7031 323.875 70.3073 323.062 69.5156C322.255 68.7188 321.852 67.5938 321.852 66.1406C321.852 64.6979 322.24 63.5521 323.016 62.7031C323.792 61.849 324.82 61.4219 326.102 61.4219C327.268 61.4219 328.172 61.7708 328.812 62.4688C329.458 63.1667 329.781 64.1615 329.781 65.4531V66.2109H323.258C323.258 67.2734 323.544 68.0911 324.117 68.6641C324.695 69.2318 325.492 69.5156 326.508 69.5156C327.518 69.5156 328.529 69.1641 329.539 68.4609H329.602V69.9531C328.346 70.4531 327.307 70.7031 326.484 70.7031ZM337.438 68.4062V63.1797C336.667 62.8255 335.945 62.6484 335.273 62.6484C334.409 62.6484 333.734 62.9531 333.25 63.5625C332.766 64.1667 332.523 65.0182 332.523 66.1172C332.523 68.3359 333.318 69.4453 334.906 69.4453C335.797 69.4453 336.641 69.099 337.438 68.4062ZM337.438 70.5V69.5234C336.432 70.3359 335.458 70.7422 334.516 70.7422C333.474 70.7422 332.643 70.3333 332.023 69.5156C331.409 68.6979 331.102 67.5807 331.102 66.1641C331.102 64.763 331.474 63.6224 332.219 62.7422C332.964 61.862 333.883 61.4219 334.977 61.4219C335.742 61.4219 336.562 61.6536 337.438 62.1172V58.2031H338.812V70.5H337.438ZM349.25 70.5H341.586V58.7266H349.25V59.9922H343.039V63.4219H349.094V64.6875H343.039V69.2344H349.25V70.5ZM358.656 70.5H357.281V65.5547C357.281 64.4089 357.13 63.651 356.828 63.2812C356.526 62.9062 356.029 62.7188 355.336 62.7188C354.518 62.7188 353.651 63.099 352.734 63.8594V70.5H351.359V61.6719H352.734V62.7344C353.771 61.8594 354.794 61.4219 355.805 61.4219C356.716 61.4219 357.419 61.7083 357.914 62.2812C358.409 62.849 358.656 63.6719 358.656 64.75V70.5ZM364.039 70.6719C362.216 70.6719 361.305 69.6693 361.305 67.6641V62.7969H360.297V61.6719H361.312V59.1328H362.68V61.6719H365.773V62.7969H362.68V66.8828C362.68 67.8099 362.742 68.4115 362.867 68.6875C362.997 68.9583 363.193 69.1589 363.453 69.2891C363.714 69.4141 364.047 69.4766 364.453 69.4766C364.839 69.4766 365.263 69.3828 365.727 69.1953H365.773V70.4453C365.154 70.5964 364.576 70.6719 364.039 70.6719ZM368.789 59.9062H367.234V58.4766H368.789V59.9062ZM368.703 70.5H367.328V61.6719H368.703V70.5ZM374.164 70.6719C372.341 70.6719 371.43 69.6693 371.43 67.6641V62.7969H370.422V61.6719H371.438V59.1328H372.805V61.6719H375.898V62.7969H372.805V66.8828C372.805 67.8099 372.867 68.4115 372.992 68.6875C373.122 68.9583 373.318 69.1589 373.578 69.2891C373.839 69.4141 374.172 69.4766 374.578 69.4766C374.964 69.4766 375.388 69.3828 375.852 69.1953H375.898V70.4453C375.279 70.5964 374.701 70.6719 374.164 70.6719ZM384.852 61.6719L379.672 73.7578H378.203L379.844 70.1172L376.289 61.6719H377.781L380.594 68.3906L383.414 61.6719H384.852ZM393.891 70.5H386.555V58.7266H388.008V69.2344H393.891V70.5ZM400.672 68.3984V65.8359C398.729 65.9245 397.479 66.1406 396.922 66.4844C396.37 66.8229 396.094 67.2917 396.094 67.8906C396.094 68.9479 396.734 69.4766 398.016 69.4766C398.885 69.4766 399.771 69.1172 400.672 68.3984ZM400.672 70.5V69.5156C399.938 70.0469 399.333 70.3828 398.859 70.5234C398.385 70.6693 397.904 70.7422 397.414 70.7422C396.628 70.7422 395.974 70.4818 395.453 69.9609C394.932 69.4401 394.672 68.7786 394.672 67.9766C394.672 66.9505 395.057 66.1797 395.828 65.6641C396.604 65.1432 398.219 64.8333 400.672 64.7344V64.4688C400.672 63.8542 400.49 63.401 400.125 63.1094C399.76 62.8125 399.12 62.6641 398.203 62.6641C397.396 62.6641 396.497 62.8724 395.508 63.2891H395.445V61.8594C396.419 61.5938 397.357 61.4609 398.258 61.4609C399.565 61.4609 400.521 61.7057 401.125 62.1953C401.734 62.6797 402.039 63.4349 402.039 64.4609V70.5H400.672ZM406.008 70.0312L405.891 70.5H404.625V58.2031H406V62.6406C407.005 61.8281 407.982 61.4219 408.93 61.4219C409.966 61.4219 410.792 61.8307 411.406 62.6484C412.026 63.4661 412.336 64.5859 412.336 66.0078C412.336 67.4141 411.964 68.5547 411.219 69.4297C410.474 70.3047 409.552 70.7422 408.453 70.7422C407.594 70.7422 406.779 70.5052 406.008 70.0312ZM406 63.7578V68.9922C406.781 69.3411 407.505 69.5156 408.172 69.5156C409.036 69.5156 409.708 69.2135 410.188 68.6094C410.672 68.0052 410.914 67.151 410.914 66.0469C410.914 63.8281 410.12 62.7188 408.531 62.7188C407.688 62.7188 406.844 63.0651 406 63.7578ZM415.117 65.1719H420.297C420.255 63.4167 419.451 62.5391 417.883 62.5391C417.091 62.5391 416.451 62.7734 415.961 63.2422C415.471 63.7109 415.19 64.3542 415.117 65.1719ZM418.344 70.7031C416.875 70.7031 415.734 70.3073 414.922 69.5156C414.115 68.7188 413.711 67.5938 413.711 66.1406C413.711 64.6979 414.099 63.5521 414.875 62.7031C415.651 61.849 416.68 61.4219 417.961 61.4219C419.128 61.4219 420.031 61.7708 420.672 62.4688C421.318 63.1667 421.641 64.1615 421.641 65.4531V66.2109H415.117C415.117 67.2734 415.404 68.0911 415.977 68.6641C416.555 69.2318 417.352 69.5156 418.367 69.5156C419.378 69.5156 420.388 69.1641 421.398 68.4609H421.461V69.9531C420.206 70.4531 419.167 70.7031 418.344 70.7031ZM424.984 70.5H423.609V58.2031H424.984V70.5Z" fill="#333333"/>
<g clip-path="url(#clip1_939_2490)">
<path d="M256.587 97.4775H223.413V130.718H256.587V97.4775Z" fill="#717272"/>
<path d="M239.941 103.656C242.405 103.656 244.647 106.046 244.608 109.429C244.569 112.785 243.2 113.438 242.431 114.862C242.144 115.398 242.066 117.069 242.613 117.396C245.129 118.924 247.593 120.087 249.691 121.314C250.617 121.863 250.747 122.999 250.747 123.77C249.053 123.77 244.477 123.77 239.941 123.77C235.405 123.77 230.83 123.77 229.136 123.77C229.136 122.999 229.266 121.863 230.191 121.314C232.29 120.087 234.754 118.924 237.269 117.396C237.817 117.069 237.738 115.398 237.452 114.862C236.683 113.438 235.314 112.772 235.275 109.429C235.236 106.046 237.478 103.656 239.941 103.656Z" fill="white"/>
</g>
<path d="M269.445 118.5V106.727H272.914C273.445 106.727 273.896 106.737 274.266 106.758C274.641 106.779 275.023 106.846 275.414 106.961C275.81 107.076 276.148 107.25 276.43 107.484C276.711 107.714 276.919 107.984 277.055 108.297C277.19 108.609 277.258 108.966 277.258 109.367C277.258 110.409 276.732 111.211 275.68 111.773V111.836C276.477 112.003 277.099 112.354 277.547 112.891C277.995 113.422 278.219 114.083 278.219 114.875C278.219 115.995 277.815 116.88 277.008 117.531C276.206 118.177 275.06 118.5 273.57 118.5H269.445ZM270.898 107.961V111.539H273C274.016 111.539 274.727 111.375 275.133 111.047C275.539 110.719 275.742 110.214 275.742 109.531C275.742 109.057 275.581 108.677 275.258 108.391C274.935 108.104 274.122 107.961 272.82 107.961H270.898ZM270.898 112.742V117.266H273.016C274.51 117.266 275.497 117.06 275.977 116.648C276.461 116.232 276.703 115.672 276.703 114.969C276.703 114.51 276.615 114.12 276.438 113.797C276.26 113.469 275.982 113.211 275.602 113.023C275.227 112.836 274.495 112.742 273.406 112.742H270.898ZM280.852 113.172H286.031C285.99 111.417 285.185 110.539 283.617 110.539C282.826 110.539 282.185 110.773 281.695 111.242C281.206 111.711 280.924 112.354 280.852 113.172ZM284.078 118.703C282.609 118.703 281.469 118.307 280.656 117.516C279.849 116.719 279.445 115.594 279.445 114.141C279.445 112.698 279.833 111.552 280.609 110.703C281.385 109.849 282.414 109.422 283.695 109.422C284.862 109.422 285.766 109.771 286.406 110.469C287.052 111.167 287.375 112.161 287.375 113.453V114.211H280.852C280.852 115.273 281.138 116.091 281.711 116.664C282.289 117.232 283.086 117.516 284.102 117.516C285.112 117.516 286.122 117.164 287.133 116.461H287.195V117.953C285.94 118.453 284.901 118.703 284.078 118.703ZM290.719 118.5H289.344V106.203H290.719V118.5ZM296.812 118.742C295.557 118.742 294.565 118.328 293.836 117.5C293.107 116.667 292.742 115.531 292.742 114.094C292.742 112.656 293.109 111.518 293.844 110.68C294.578 109.841 295.568 109.422 296.812 109.422C298.057 109.422 299.047 109.839 299.781 110.672C300.516 111.505 300.883 112.646 300.883 114.094C300.883 115.542 300.516 116.68 299.781 117.508C299.052 118.331 298.062 118.742 296.812 118.742ZM296.812 110.594C295.964 110.594 295.31 110.893 294.852 111.492C294.393 112.091 294.164 112.958 294.164 114.094C294.164 115.214 294.393 116.073 294.852 116.672C295.31 117.271 295.964 117.57 296.812 117.57C297.661 117.57 298.315 117.271 298.773 116.672C299.232 116.073 299.461 115.214 299.461 114.094C299.461 111.76 298.578 110.594 296.812 110.594ZM310.188 118.5H308.812V113.555C308.812 112.409 308.661 111.651 308.359 111.281C308.057 110.906 307.56 110.719 306.867 110.719C306.049 110.719 305.182 111.099 304.266 111.859V118.5H302.891V109.672H304.266V110.734C305.302 109.859 306.326 109.422 307.336 109.422C308.247 109.422 308.951 109.708 309.445 110.281C309.94 110.849 310.188 111.672 310.188 112.75V118.5ZM319.836 117.5C319.836 120.396 318.464 121.844 315.719 121.844C314.818 121.844 313.922 121.721 313.031 121.477V120.055H313.094C314.005 120.43 314.906 120.617 315.797 120.617C316.698 120.617 317.367 120.414 317.805 120.008C318.242 119.607 318.461 118.956 318.461 118.055V117.18C317.518 117.971 316.531 118.367 315.5 118.367C314.453 118.367 313.633 117.982 313.039 117.211C312.445 116.44 312.148 115.372 312.148 114.008C312.148 112.643 312.513 111.539 313.242 110.695C313.977 109.846 314.885 109.422 315.969 109.422C316.823 109.422 317.654 109.654 318.461 110.117L318.562 109.672H319.836V117.5ZM318.461 116.07V111.188C317.685 110.828 316.961 110.648 316.289 110.648C315.43 110.648 314.76 110.932 314.281 111.5C313.807 112.068 313.57 112.88 313.57 113.938C313.57 116.042 314.352 117.094 315.914 117.094C316.742 117.094 317.591 116.753 318.461 116.07ZM323.258 113.172H328.438C328.396 111.417 327.591 110.539 326.023 110.539C325.232 110.539 324.591 110.773 324.102 111.242C323.612 111.711 323.331 112.354 323.258 113.172ZM326.484 118.703C325.016 118.703 323.875 118.307 323.062 117.516C322.255 116.719 321.852 115.594 321.852 114.141C321.852 112.698 322.24 111.552 323.016 110.703C323.792 109.849 324.82 109.422 326.102 109.422C327.268 109.422 328.172 109.771 328.812 110.469C329.458 111.167 329.781 112.161 329.781 113.453V114.211H323.258C323.258 115.273 323.544 116.091 324.117 116.664C324.695 117.232 325.492 117.516 326.508 117.516C327.518 117.516 328.529 117.164 329.539 116.461H329.602V117.953C328.346 118.453 327.307 118.703 326.484 118.703ZM337.438 116.406V111.18C336.667 110.826 335.945 110.648 335.273 110.648C334.409 110.648 333.734 110.953 333.25 111.562C332.766 112.167 332.523 113.018 332.523 114.117C332.523 116.336 333.318 117.445 334.906 117.445C335.797 117.445 336.641 117.099 337.438 116.406ZM337.438 118.5V117.523C336.432 118.336 335.458 118.742 334.516 118.742C333.474 118.742 332.643 118.333 332.023 117.516C331.409 116.698 331.102 115.581 331.102 114.164C331.102 112.763 331.474 111.622 332.219 110.742C332.964 109.862 333.883 109.422 334.977 109.422C335.742 109.422 336.562 109.654 337.438 110.117V106.203H338.812V118.5H337.438ZM349.25 118.5H341.586V106.727H349.25V107.992H343.039V111.422H349.094V112.688H343.039V117.234H349.25V118.5ZM358.656 118.5H357.281V113.555C357.281 112.409 357.13 111.651 356.828 111.281C356.526 110.906 356.029 110.719 355.336 110.719C354.518 110.719 353.651 111.099 352.734 111.859V118.5H351.359V109.672H352.734V110.734C353.771 109.859 354.794 109.422 355.805 109.422C356.716 109.422 357.419 109.708 357.914 110.281C358.409 110.849 358.656 111.672 358.656 112.75V118.5ZM364.039 118.672C362.216 118.672 361.305 117.669 361.305 115.664V110.797H360.297V109.672H361.312V107.133H362.68V109.672H365.773V110.797H362.68V114.883C362.68 115.81 362.742 116.411 362.867 116.688C362.997 116.958 363.193 117.159 363.453 117.289C363.714 117.414 364.047 117.477 364.453 117.477C364.839 117.477 365.263 117.383 365.727 117.195H365.773V118.445C365.154 118.596 364.576 118.672 364.039 118.672ZM368.789 107.906H367.234V106.477H368.789V107.906ZM368.703 118.5H367.328V109.672H368.703V118.5ZM374.164 118.672C372.341 118.672 371.43 117.669 371.43 115.664V110.797H370.422V109.672H371.438V107.133H372.805V109.672H375.898V110.797H372.805V114.883C372.805 115.81 372.867 116.411 372.992 116.688C373.122 116.958 373.318 117.159 373.578 117.289C373.839 117.414 374.172 117.477 374.578 117.477C374.964 117.477 375.388 117.383 375.852 117.195H375.898V118.445C375.279 118.596 374.701 118.672 374.164 118.672ZM384.852 109.672L379.672 121.758H378.203L379.844 118.117L376.289 109.672H377.781L380.594 116.391L383.414 109.672H384.852ZM393.891 118.5H386.555V106.727H388.008V117.234H393.891V118.5ZM400.672 116.398V113.836C398.729 113.924 397.479 114.141 396.922 114.484C396.37 114.823 396.094 115.292 396.094 115.891C396.094 116.948 396.734 117.477 398.016 117.477C398.885 117.477 399.771 117.117 400.672 116.398ZM400.672 118.5V117.516C399.938 118.047 399.333 118.383 398.859 118.523C398.385 118.669 397.904 118.742 397.414 118.742C396.628 118.742 395.974 118.482 395.453 117.961C394.932 117.44 394.672 116.779 394.672 115.977C394.672 114.951 395.057 114.18 395.828 113.664C396.604 113.143 398.219 112.833 400.672 112.734V112.469C400.672 111.854 400.49 111.401 400.125 111.109C399.76 110.812 399.12 110.664 398.203 110.664C397.396 110.664 396.497 110.872 395.508 111.289H395.445V109.859C396.419 109.594 397.357 109.461 398.258 109.461C399.565 109.461 400.521 109.706 401.125 110.195C401.734 110.68 402.039 111.435 402.039 112.461V118.5H400.672ZM406.008 118.031L405.891 118.5H404.625V106.203H406V110.641C407.005 109.828 407.982 109.422 408.93 109.422C409.966 109.422 410.792 109.831 411.406 110.648C412.026 111.466 412.336 112.586 412.336 114.008C412.336 115.414 411.964 116.555 411.219 117.43C410.474 118.305 409.552 118.742 408.453 118.742C407.594 118.742 406.779 118.505 406.008 118.031ZM406 111.758V116.992C406.781 117.341 407.505 117.516 408.172 117.516C409.036 117.516 409.708 117.214 410.188 116.609C410.672 116.005 410.914 115.151 410.914 114.047C410.914 111.828 410.12 110.719 408.531 110.719C407.688 110.719 406.844 111.065 406 111.758ZM415.117 113.172H420.297C420.255 111.417 419.451 110.539 417.883 110.539C417.091 110.539 416.451 110.773 415.961 111.242C415.471 111.711 415.19 112.354 415.117 113.172ZM418.344 118.703C416.875 118.703 415.734 118.307 414.922 117.516C414.115 116.719 413.711 115.594 413.711 114.141C413.711 112.698 414.099 111.552 414.875 110.703C415.651 109.849 416.68 109.422 417.961 109.422C419.128 109.422 420.031 109.771 420.672 110.469C421.318 111.167 421.641 112.161 421.641 113.453V114.211H415.117C415.117 115.273 415.404 116.091 415.977 116.664C416.555 117.232 417.352 117.516 418.367 117.516C419.378 117.516 420.388 117.164 421.398 116.461H421.461V117.953C420.206 118.453 419.167 118.703 418.344 118.703ZM424.984 118.5H423.609V106.203H424.984V118.5Z" fill="#333333"/>
<rect width="476" height="48" transform="translate(198 138)" fill="#F2F4F6"/>
<path d="M409.68 167C408.461 167.328 406.984 167.492 405.25 167.492C400.672 167.492 398.383 166.427 398.383 164.297C398.383 163.193 398.857 162.333 399.805 161.719C400.753 161.099 401.948 160.789 403.391 160.789C404.583 160.789 405.794 160.901 407.023 161.125C406.544 160.448 405.956 159.435 405.258 158.086H397.633V157.062H404.773C404.456 156.281 404.193 155.445 403.984 154.555L405.203 154.375C405.432 155.391 405.708 156.286 406.031 157.062H411.188V158.086H406.516C407.484 159.956 408.432 161.216 409.359 161.867L408.789 162.789C407.549 162.117 405.773 161.781 403.461 161.781C402.378 161.781 401.471 161.997 400.742 162.43C400.013 162.862 399.648 163.469 399.648 164.25C399.648 165.708 401.531 166.438 405.297 166.438C406.729 166.438 408.112 166.273 409.445 165.945L409.68 167ZM424.945 156.438L424.336 157.461C423.956 157.284 423.383 157.078 422.617 156.844C421.857 156.604 421.057 156.375 420.219 156.156C419.385 155.932 418.102 155.669 416.367 155.367L416.719 154.375C418.615 154.693 420.318 155.06 421.828 155.477C423.339 155.893 424.378 156.214 424.945 156.438ZM416.773 167.609L416.609 166.539C419.953 166.497 422.206 166.206 423.367 165.664C424.529 165.117 425.109 164.357 425.109 163.383C425.109 162.523 424.805 161.862 424.195 161.398C423.591 160.93 422.776 160.695 421.75 160.695C420.521 160.695 419.25 160.966 417.938 161.508C416.63 162.044 415.633 162.729 414.945 163.562L413.922 162.969C414.599 161.229 414.977 159.112 415.055 156.617L416.32 156.648C416.284 158.055 416.003 159.74 415.477 161.703C416.19 161.115 417.135 160.63 418.312 160.25C419.495 159.865 420.596 159.672 421.617 159.672C423.128 159.672 424.302 159.99 425.141 160.625C425.979 161.26 426.398 162.18 426.398 163.383C426.398 164.716 425.714 165.755 424.344 166.5C422.979 167.24 420.573 167.609 417.125 167.609H416.773ZM431.875 167.156L430.758 167.414C430.221 165.701 429.953 163.841 429.953 161.836C429.953 159.648 430.31 157.289 431.023 154.758L432.227 154.969C431.508 157.339 431.148 159.648 431.148 161.898C431.148 163.747 431.391 165.5 431.875 167.156ZM442.453 156.836C441.625 156.82 440.844 156.812 440.109 156.812C439.031 156.812 437.081 156.885 434.258 157.031C434.258 156.797 434.242 156.445 434.211 155.977C436.893 155.82 439.073 155.742 440.75 155.742C441.583 155.742 442.138 155.75 442.414 155.766V155.836C442.414 156.076 442.427 156.409 442.453 156.836ZM442.547 166.773C441.458 166.888 440.393 166.945 439.352 166.945C437.904 166.945 436.82 166.862 436.102 166.695C435.388 166.523 434.846 166.242 434.477 165.852C434.107 165.461 433.922 164.958 433.922 164.344C433.922 163.448 434.312 162.503 435.094 161.508L436 161.992C435.359 162.695 435.039 163.456 435.039 164.273C435.039 164.68 435.211 165.008 435.555 165.258C435.904 165.508 436.367 165.674 436.945 165.758C437.529 165.836 438.354 165.875 439.422 165.875C440.505 165.875 441.547 165.812 442.547 165.688V166.773ZM446.078 167.906L445.883 166.883C446.424 166.852 447.185 166.797 448.164 166.719V163.703C447.018 164.302 445.844 164.789 444.641 165.164L444.219 164.32C446.651 163.508 448.721 162.385 450.43 160.953H444.758V159.977H451.297V158.328H445.797V157.383H451.297V155.867H445.195V154.914H451.297V153.727H452.523V154.914H458.805V155.867H452.523V157.383H457.992V158.328H452.523V159.977H459.25V160.953H453.031C453.516 162.016 454.107 162.938 454.805 163.719C456.117 162.922 457.065 162.245 457.648 161.688L458.562 162.477C457.807 163.086 456.799 163.747 455.539 164.461C456.674 165.487 458.042 166.31 459.641 166.93L458.891 167.875C455.526 166.505 453.198 164.26 451.906 161.141C451.234 161.766 450.396 162.388 449.391 163.008V166.617C451.703 166.414 453.318 166.245 454.234 166.109V167.094C453.849 167.193 451.13 167.464 446.078 167.906ZM461.992 155.914V154.938H474.023V155.914H461.992ZM467.352 167.883H465.047L464.914 166.773H466.797C466.979 166.773 467.138 166.719 467.273 166.609C467.409 166.495 467.477 166.352 467.477 166.18V160.273H460.82V159.328H475.133V160.273H468.734V166.609C468.734 166.969 468.594 167.271 468.312 167.516C468.036 167.76 467.716 167.883 467.352 167.883ZM461.078 166.789L460.344 165.984C461.036 165.51 461.781 164.826 462.578 163.93C463.375 163.034 463.948 162.268 464.297 161.633L465.406 162.172C464.115 164.188 462.672 165.727 461.078 166.789ZM474.672 166.773C474.099 166.331 473.391 165.641 472.547 164.703C471.708 163.76 471.062 162.932 470.609 162.219L471.656 161.648C472.312 162.555 473.003 163.391 473.727 164.156C474.451 164.922 475.065 165.49 475.57 165.859L474.672 166.773Z" fill="#0072BF"/>
<path fill-rule="evenodd" clip-rule="evenodd" d="M243.936 127.069L244.367 211.988L246.366 211.931L245.935 127.012L243.936 127.069Z" fill="#282828"/>
<path fill-rule="evenodd" clip-rule="evenodd" d="M290.759 124L290.759 212L292.759 212L292.759 124H290.759Z" fill="#282828"/>
<path fill-rule="evenodd" clip-rule="evenodd" d="M182 96.2114H181V97.2114V113.704H95V115.704H181V133.882V134.882H182H192V132.882H183V98.2114H192V96.2114H182Z" fill="#282828"/>
<path fill-rule="evenodd" clip-rule="evenodd" d="M434 186L434 211.977L436 211.977L436 186H434Z" fill="#282828"/>
<path d="M49 36L49 108" stroke="#282828" stroke-width="2"/>
<path fill-rule="evenodd" clip-rule="evenodd" d="M62 42.9856H61V43.9856V106.4H48V108.4H61V185.014V186.014H62H72V184.014H63V44.9856H72V42.9856H62Z" fill="#282828"/>
<rect x="77" y="102" width="89" height="24" rx="2" fill="#282828"/>
<path d="M86.124 117V110.377H88.5059C89.5137 110.377 90.1978 110.511 90.5581 110.777C90.9214 111.041 91.103 111.415 91.103 111.898C91.103 112.537 90.7896 113.001 90.1626 113.291V113.326C91.1089 113.525 91.582 114.072 91.582 114.965C91.582 115.589 91.3477 116.084 90.8789 116.451C90.4131 116.817 89.7363 117 88.8486 117H86.124ZM87.5654 111.419V113.023H88.1104C88.5586 113.023 88.8765 113 89.064 112.953C89.2515 112.903 89.3906 112.811 89.4814 112.676C89.5723 112.538 89.6177 112.367 89.6177 112.162C89.6177 111.998 89.5767 111.857 89.4946 111.74C89.4155 111.623 89.2852 111.541 89.1035 111.494C88.9219 111.444 88.5557 111.419 88.0049 111.419H87.5654ZM87.5654 114.007V115.958H88.0181C88.4194 115.958 88.7285 115.954 88.9453 115.945C89.1621 115.937 89.3584 115.894 89.5342 115.818C89.7129 115.742 89.8477 115.632 89.9385 115.488C90.0322 115.345 90.0791 115.17 90.0791 114.965C90.0791 114.743 90.0308 114.56 89.9341 114.416C89.8403 114.272 89.7026 114.168 89.521 114.104C89.3423 114.04 88.9219 114.007 88.2598 114.007H87.5654ZM97.2026 114.667H93.5947C93.6533 115.686 94.2319 116.196 95.3306 116.196C95.9048 116.196 96.4819 115.988 97.062 115.572H97.1104V116.741C96.4219 117.004 95.7744 117.136 95.168 117.136C94.2129 117.136 93.4849 116.909 92.9839 116.455C92.4829 116.001 92.2324 115.346 92.2324 114.491C92.2324 113.641 92.4697 112.973 92.9443 112.487C93.4189 111.998 94.0737 111.753 94.9087 111.753C96.438 111.753 97.2026 112.566 97.2026 114.192V114.667ZM95.8535 113.902C95.8418 113.026 95.4858 112.588 94.7856 112.588C94.0415 112.588 93.6445 113.026 93.5947 113.902H95.8535ZM99.5493 117H98.2002V110.083H99.5493V117ZM103.175 117.158C102.349 117.158 101.707 116.921 101.25 116.446C100.793 115.969 100.564 115.307 100.564 114.46C100.564 113.61 100.794 112.947 101.254 112.469C101.717 111.992 102.357 111.753 103.175 111.753C103.998 111.753 104.638 111.992 105.095 112.469C105.555 112.947 105.785 113.61 105.785 114.46C105.785 115.307 105.555 115.969 105.095 116.446C104.638 116.921 103.998 117.158 103.175 117.158ZM103.175 112.693C102.375 112.693 101.975 113.287 101.975 114.473C101.975 115.636 102.381 116.218 103.192 116.218C103.98 116.218 104.375 115.636 104.375 114.473C104.375 113.287 103.975 112.693 103.175 112.693ZM111.56 117H110.202V114.464C110.202 113.755 110.123 113.316 109.964 113.146C109.809 112.973 109.556 112.887 109.204 112.887C108.911 112.887 108.558 113.017 108.145 113.278V117H106.796V111.911H108.145V112.623C108.567 112.277 108.904 112.049 109.156 111.938C109.411 111.826 109.676 111.771 109.951 111.771C111.023 111.771 111.56 112.399 111.56 113.656V117ZM117.514 116.416C117.514 117.256 117.303 117.877 116.881 118.279C116.459 118.68 115.784 118.881 114.855 118.881C114.255 118.881 113.66 118.815 113.071 118.683V117.584H113.137C113.72 117.792 114.226 117.896 114.653 117.896C115.178 117.896 115.56 117.804 115.8 117.62C116.043 117.435 116.165 117.07 116.165 116.525V116.244C115.641 116.695 115.132 116.921 114.64 116.921C113.243 116.921 112.544 116.055 112.544 114.324C112.544 113.556 112.746 112.939 113.15 112.474C113.558 112.005 114.078 111.771 114.71 111.771C115.206 111.771 115.685 111.926 116.147 112.236L116.24 111.911H117.514V116.416ZM116.165 115.506V112.939C115.869 112.813 115.595 112.75 115.343 112.75C114.409 112.75 113.941 113.285 113.941 114.354C113.941 114.891 114.038 115.279 114.231 115.519C114.428 115.756 114.731 115.875 115.141 115.875C115.46 115.875 115.802 115.752 116.165 115.506ZM123.5 114.667H119.892C119.95 115.686 120.529 116.196 121.627 116.196C122.202 116.196 122.779 115.988 123.359 115.572H123.407V116.741C122.719 117.004 122.071 117.136 121.465 117.136C120.51 117.136 119.782 116.909 119.281 116.455C118.78 116.001 118.529 115.346 118.529 114.491C118.529 113.641 118.767 112.973 119.241 112.487C119.716 111.998 120.371 111.753 121.206 111.753C122.735 111.753 123.5 112.566 123.5 114.192V114.667ZM122.15 113.902C122.139 113.026 121.783 112.588 121.083 112.588C120.338 112.588 119.941 113.026 119.892 113.902H122.15ZM129.089 117H127.74V116.332C127.301 116.689 126.97 116.914 126.747 117.004C126.524 117.095 126.286 117.141 126.031 117.141C125.448 117.141 124.983 116.905 124.638 116.433C124.292 115.958 124.119 115.314 124.119 114.5C124.119 113.691 124.329 113.035 124.748 112.531C125.167 112.024 125.687 111.771 126.308 111.771C126.53 111.771 126.734 111.795 126.918 111.845C127.103 111.895 127.377 112.015 127.74 112.206V110.083H129.089V117ZM127.74 115.695V112.939C127.447 112.813 127.175 112.75 126.923 112.75C125.985 112.75 125.517 113.322 125.517 114.464C125.517 115.042 125.613 115.459 125.807 115.717C126 115.972 126.303 116.099 126.716 116.099C127.027 116.099 127.368 115.964 127.74 115.695ZM135.193 117H130.579V110.377H135.193V111.476H132.021V112.891H134.969V113.985H132.021V115.901H135.193V117ZM141.135 117H139.777V114.464C139.777 113.755 139.698 113.316 139.54 113.146C139.384 112.973 139.131 112.887 138.779 112.887C138.486 112.887 138.133 113.017 137.72 113.278V117H136.371V111.911H137.72V112.623C138.142 112.277 138.479 112.049 138.731 111.938C138.986 111.826 139.251 111.771 139.526 111.771C140.599 111.771 141.135 112.399 141.135 113.656V117ZM145.499 116.969C145.138 117.057 144.753 117.101 144.343 117.101C143.736 117.101 143.292 116.972 143.011 116.714C142.73 116.454 142.589 116.033 142.589 115.453V112.803H141.921V111.911H142.594V110.483H143.938V111.911H145.499V112.803H143.938V114.899C143.938 115.438 144.007 115.79 144.145 115.954C144.283 116.118 144.514 116.2 144.839 116.2C145.047 116.2 145.254 116.149 145.459 116.046H145.499V116.969ZM147.727 111.274H146.281V110.083H147.727V111.274ZM147.678 117H146.329V111.911H147.678V117ZM152.082 116.969C151.721 117.057 151.336 117.101 150.926 117.101C150.319 117.101 149.875 116.972 149.594 116.714C149.313 116.454 149.172 116.033 149.172 115.453V112.803H148.504V111.911H149.177V110.483H150.521V111.911H152.082V112.803H150.521V114.899C150.521 115.438 150.59 115.79 150.728 115.954C150.866 116.118 151.097 116.2 151.422 116.2C151.63 116.2 151.837 116.149 152.042 116.046H152.082V116.969ZM157.636 111.911L154.846 118.833H153.422L154.195 117.009L152.205 111.911H153.668L154.951 115.545L156.248 111.911H157.636Z" fill="white"/>
<rect x="191" y="212" width="66" height="24" rx="2" fill="#282828"/>
<path d="M204.862 227H200.248V220.377H204.862V221.476H201.689V222.891H204.638V223.985H201.689V225.901H204.862V227ZM210.803 227H209.445V224.464C209.445 223.755 209.366 223.316 209.208 223.146C209.053 222.973 208.799 222.887 208.448 222.887C208.155 222.887 207.802 223.017 207.389 223.278V227H206.04V221.911H207.389V222.623C207.811 222.277 208.147 222.049 208.399 221.938C208.654 221.826 208.919 221.771 209.195 221.771C210.267 221.771 210.803 222.399 210.803 223.656V227ZM215.167 226.969C214.807 227.057 214.421 227.101 214.011 227.101C213.405 227.101 212.961 226.972 212.68 226.714C212.398 226.454 212.258 226.033 212.258 225.453V222.803H211.59V221.911H212.262V220.483H213.607V221.911H215.167V222.803H213.607V224.899C213.607 225.438 213.676 225.79 213.813 225.954C213.951 226.118 214.183 226.2 214.508 226.2C214.716 226.2 214.922 226.149 215.127 226.046H215.167V226.969ZM217.395 221.274H215.949V220.083H217.395V221.274ZM217.347 227H215.998V221.911H217.347V227ZM221.75 226.969C221.39 227.057 221.004 227.101 220.594 227.101C219.988 227.101 219.544 226.972 219.263 226.714C218.981 226.454 218.841 226.033 218.841 225.453V222.803H218.173V221.911H218.845V220.483H220.19V221.911H221.75V222.803H220.19V224.899C220.19 225.438 220.259 225.79 220.396 225.954C220.534 226.118 220.766 226.2 221.091 226.2C221.299 226.2 221.505 226.149 221.71 226.046H221.75V226.969ZM227.305 221.911L224.514 228.833H223.09L223.864 227.009L221.873 221.911H223.336L224.62 225.545L225.916 221.911H227.305ZM231.427 227H227.814V226.011H228.896V221.366H227.814V220.377H231.427V221.366H230.346V226.011H231.427V227ZM236.331 226.75C235.763 227.007 235.249 227.136 234.789 227.136C233.898 227.136 233.204 226.906 232.706 226.446C232.208 225.986 231.958 225.33 231.958 224.478C231.958 223.619 232.21 222.954 232.714 222.482C233.218 222.008 233.892 221.771 234.736 221.771C235.287 221.771 235.818 221.901 236.331 222.162V223.401H236.261C235.763 222.956 235.272 222.733 234.789 222.733C234.34 222.733 233.992 222.887 233.743 223.194C233.494 223.502 233.369 223.93 233.369 224.478C233.369 225.025 233.494 225.446 233.743 225.739C233.995 226.029 234.351 226.174 234.811 226.174C235.3 226.174 235.783 225.951 236.261 225.506H236.331V226.75ZM239.491 227.158C238.665 227.158 238.023 226.921 237.566 226.446C237.109 225.969 236.88 225.307 236.88 224.46C236.88 223.61 237.11 222.947 237.57 222.469C238.033 221.992 238.673 221.753 239.491 221.753C240.314 221.753 240.954 221.992 241.411 222.469C241.871 222.947 242.101 223.61 242.101 224.46C242.101 225.307 241.871 225.969 241.411 226.446C240.954 226.921 240.314 227.158 239.491 227.158ZM239.491 222.693C238.691 222.693 238.291 223.287 238.291 224.473C238.291 225.636 238.697 226.218 239.508 226.218C240.296 226.218 240.69 225.636 240.69 224.473C240.69 223.287 240.291 222.693 239.491 222.693ZM247.875 227H246.518V224.464C246.518 223.755 246.438 223.316 246.28 223.146C246.125 222.973 245.872 222.887 245.52 222.887C245.227 222.887 244.874 223.017 244.461 223.278V227H243.112V221.911H244.461V222.623C244.883 222.277 245.22 222.049 245.472 221.938C245.727 221.826 245.992 221.771 246.267 221.771C247.339 221.771 247.875 222.399 247.875 223.656V227Z" fill="white"/>
<rect x="266" y="212" width="70" height="24" rx="2" fill="#282828"/>
<path d="M279.752 227H275.138V220.377H279.752V221.476H276.58V222.891H279.528V223.985H276.58V225.901H279.752V227ZM285.694 227H284.336V224.464C284.336 223.755 284.257 223.316 284.099 223.146C283.943 222.973 283.69 222.887 283.338 222.887C283.045 222.887 282.692 223.017 282.279 223.278V227H280.93V221.911H282.279V222.623C282.701 222.277 283.038 222.049 283.29 221.938C283.545 221.826 283.81 221.771 284.085 221.771C285.158 221.771 285.694 222.399 285.694 223.656V227ZM290.058 226.969C289.697 227.057 289.312 227.101 288.902 227.101C288.295 227.101 287.852 226.972 287.57 226.714C287.289 226.454 287.148 226.033 287.148 225.453V222.803H286.48V221.911H287.153V220.483H288.498V221.911H290.058V222.803H288.498V224.899C288.498 225.438 288.566 225.79 288.704 225.954C288.842 226.118 289.073 226.2 289.398 226.2C289.606 226.2 289.813 226.149 290.018 226.046H290.058V226.969ZM292.286 221.274H290.84V220.083H292.286V221.274ZM292.237 227H290.888V221.911H292.237V227ZM296.641 226.969C296.28 227.057 295.895 227.101 295.485 227.101C294.878 227.101 294.435 226.972 294.153 226.714C293.872 226.454 293.731 226.033 293.731 225.453V222.803H293.063V221.911H293.736V220.483H295.081V221.911H296.641V222.803H295.081V224.899C295.081 225.438 295.149 225.79 295.287 225.954C295.425 226.118 295.656 226.2 295.981 226.2C296.189 226.2 296.396 226.149 296.601 226.046H296.641V226.969ZM302.195 221.911L299.405 228.833H297.981L298.754 227.009L296.764 221.911H298.227L299.51 225.545L300.807 221.911H302.195ZM307.605 227H303.008V220.377H304.458V225.901H307.605V227ZM312.667 227H311.327V226.336C310.914 226.691 310.579 226.912 310.321 227C310.066 227.091 309.793 227.136 309.503 227.136C309.058 227.136 308.689 226.993 308.396 226.706C308.103 226.416 307.957 226.043 307.957 225.589C307.957 225.015 308.172 224.58 308.603 224.284C309.036 223.988 309.949 223.804 311.34 223.73V223.594C311.34 223.275 311.23 223.043 311.011 222.9C310.791 222.756 310.428 222.685 309.921 222.685C309.575 222.685 309.08 222.816 308.436 223.08H308.387V222.012C309.067 221.848 309.682 221.766 310.233 221.766C311.091 221.766 311.711 221.905 312.092 222.184C312.476 222.459 312.667 222.898 312.667 223.502V227ZM311.327 225.761V224.478C310.442 224.551 309.889 224.665 309.666 224.82C309.443 224.973 309.332 225.185 309.332 225.458C309.332 225.748 309.41 225.95 309.565 226.064C309.72 226.178 309.963 226.235 310.294 226.235C310.643 226.235 310.987 226.077 311.327 225.761ZM315.375 226.64L315.287 227H314.021V220.083H315.37V222.592C315.763 222.261 316.082 222.042 316.328 221.933C316.577 221.825 316.839 221.771 317.115 221.771C317.712 221.771 318.174 222 318.499 222.46C318.827 222.92 318.991 223.566 318.991 224.398C318.991 225.213 318.783 225.874 318.367 226.38C317.951 226.887 317.433 227.141 316.812 227.141C316.366 227.141 315.887 226.974 315.375 226.64ZM315.37 223.172V225.994C315.669 226.105 315.943 226.161 316.192 226.161C317.126 226.161 317.594 225.585 317.594 224.434C317.594 223.353 317.203 222.812 316.42 222.812C316.101 222.812 315.751 222.932 315.37 223.172ZM324.599 224.667H320.991C321.049 225.686 321.628 226.196 322.727 226.196C323.301 226.196 323.878 225.988 324.458 225.572H324.506V226.741C323.818 227.004 323.17 227.136 322.564 227.136C321.609 227.136 320.881 226.909 320.38 226.455C319.879 226.001 319.628 225.346 319.628 224.491C319.628 223.641 319.866 222.973 320.34 222.487C320.815 221.998 321.47 221.753 322.305 221.753C323.834 221.753 324.599 222.566 324.599 224.192V224.667ZM323.25 223.902C323.238 223.026 322.882 222.588 322.182 222.588C321.438 222.588 321.041 223.026 320.991 223.902H323.25ZM326.945 227H325.596V220.083H326.945V227Z" fill="white"/>
<rect x="388" y="212" width="96" height="24" rx="2" fill="#282828"/>
<path d="M402.918 227H401.125L399.183 224.491H398.26V227H396.81V220.377H399.345C400.265 220.377 400.927 220.542 401.332 220.87C401.739 221.195 401.942 221.637 401.942 222.197C401.942 223.073 401.501 223.722 400.62 224.144L402.918 227ZM398.251 221.419V223.48H398.901C399.525 223.48 399.938 223.376 400.141 223.168C400.343 222.96 400.444 222.688 400.444 222.351C400.444 222.052 400.347 221.822 400.154 221.661C399.96 221.5 399.58 221.419 399.011 221.419H398.251ZM407.879 224.667H404.271C404.33 225.686 404.909 226.196 406.007 226.196C406.582 226.196 407.159 225.988 407.739 225.572H407.787V226.741C407.099 227.004 406.451 227.136 405.845 227.136C404.89 227.136 404.162 226.909 403.661 226.455C403.16 226.001 402.909 225.346 402.909 224.491C402.909 223.641 403.146 222.973 403.621 222.487C404.096 221.998 404.75 221.753 405.585 221.753C407.115 221.753 407.879 222.566 407.879 224.192V224.667ZM406.53 223.902C406.519 223.026 406.163 222.588 405.462 222.588C404.718 222.588 404.321 223.026 404.271 223.902H406.53ZM413.192 227H411.852V226.336C411.439 226.691 411.104 226.912 410.846 227C410.591 227.091 410.318 227.136 410.028 227.136C409.583 227.136 409.214 226.993 408.921 226.706C408.628 226.416 408.481 226.043 408.481 225.589C408.481 225.015 408.697 224.58 409.127 224.284C409.561 223.988 410.474 223.804 411.865 223.73V223.594C411.865 223.275 411.755 223.043 411.536 222.9C411.316 222.756 410.953 222.685 410.446 222.685C410.1 222.685 409.605 222.816 408.96 223.08H408.912V222.012C409.592 221.848 410.207 221.766 410.758 221.766C411.616 221.766 412.236 221.905 412.617 222.184C413 222.459 413.192 222.898 413.192 223.502V227ZM411.852 225.761V224.478C410.967 224.551 410.414 224.665 410.191 224.82C409.968 224.973 409.857 225.185 409.857 225.458C409.857 225.748 409.935 225.95 410.09 226.064C410.245 226.178 410.488 226.235 410.819 226.235C411.168 226.235 411.512 226.077 411.852 225.761ZM419.138 227H417.789V226.332C417.35 226.689 417.019 226.914 416.796 227.004C416.573 227.095 416.334 227.141 416.08 227.141C415.497 227.141 415.032 226.905 414.687 226.433C414.341 225.958 414.168 225.314 414.168 224.5C414.168 223.691 414.377 223.035 414.796 222.531C415.215 222.024 415.735 221.771 416.356 221.771C416.579 221.771 416.783 221.795 416.967 221.845C417.152 221.895 417.426 222.015 417.789 222.206V220.083H419.138V227ZM417.789 225.695V222.939C417.496 222.813 417.224 222.75 416.972 222.75C416.034 222.75 415.565 223.322 415.565 224.464C415.565 225.042 415.662 225.459 415.855 225.717C416.049 225.972 416.352 226.099 416.765 226.099C417.076 226.099 417.417 225.964 417.789 225.695ZM427.224 227H425.792V222.346L424.363 225.436H423.401L421.973 222.359V227H420.628V220.377H422.254L423.928 223.897L425.598 220.377H427.224V227ZM430.938 227.158C430.111 227.158 429.47 226.921 429.013 226.446C428.556 225.969 428.327 225.307 428.327 224.46C428.327 223.61 428.557 222.947 429.017 222.469C429.48 221.992 430.12 221.753 430.938 221.753C431.761 221.753 432.401 221.992 432.858 222.469C433.318 222.947 433.548 223.61 433.548 224.46C433.548 225.307 433.318 225.969 432.858 226.446C432.401 226.921 431.761 227.158 430.938 227.158ZM430.938 222.693C430.138 222.693 429.738 223.287 429.738 224.473C429.738 225.636 430.144 226.218 430.955 226.218C431.743 226.218 432.137 225.636 432.137 224.473C432.137 223.287 431.737 222.693 430.938 222.693ZM438 223.287H437.956C437.774 223.24 437.531 223.216 437.226 223.216C436.749 223.216 436.309 223.292 435.908 223.445V227H434.559V221.911H435.908V222.834C436.321 222.462 436.661 222.213 436.927 222.087C437.194 221.958 437.456 221.894 437.714 221.894C437.781 221.894 437.876 221.896 438 221.902V223.287ZM443.37 224.667H439.762C439.82 225.686 440.399 226.196 441.498 226.196C442.072 226.196 442.649 225.988 443.229 225.572H443.277V226.741C442.589 227.004 441.941 227.136 441.335 227.136C440.38 227.136 439.652 226.909 439.151 226.455C438.65 226.001 438.399 225.346 438.399 224.491C438.399 223.641 438.637 222.973 439.111 222.487C439.586 221.998 440.241 221.753 441.076 221.753C442.605 221.753 443.37 222.566 443.37 224.192V224.667ZM442.021 223.902C442.009 223.026 441.653 222.588 440.953 222.588C440.208 222.588 439.812 223.026 439.762 223.902H442.021ZM444.455 227V220.377H446.837C447.845 220.377 448.529 220.511 448.889 220.777C449.252 221.041 449.434 221.415 449.434 221.898C449.434 222.537 449.121 223.001 448.494 223.291V223.326C449.44 223.525 449.913 224.072 449.913 224.965C449.913 225.589 449.679 226.084 449.21 226.451C448.744 226.817 448.067 227 447.18 227H444.455ZM445.896 221.419V223.023H446.441C446.89 223.023 447.208 223 447.395 222.953C447.583 222.903 447.722 222.811 447.812 222.676C447.903 222.538 447.949 222.367 447.949 222.162C447.949 221.998 447.908 221.857 447.826 221.74C447.747 221.623 447.616 221.541 447.435 221.494C447.253 221.444 446.887 221.419 446.336 221.419H445.896ZM445.896 224.007V225.958H446.349C446.75 225.958 447.06 225.954 447.276 225.945C447.493 225.937 447.689 225.894 447.865 225.818C448.044 225.742 448.179 225.632 448.27 225.488C448.363 225.345 448.41 225.17 448.41 224.965C448.41 224.743 448.362 224.56 448.265 224.416C448.171 224.272 448.034 224.168 447.852 224.104C447.673 224.04 447.253 224.007 446.591 224.007H445.896ZM455.674 227H454.325V226.288C453.915 226.622 453.581 226.848 453.323 226.965C453.065 227.082 452.797 227.141 452.519 227.141C451.447 227.141 450.911 226.512 450.911 225.255V221.911H452.269V224.447C452.269 225.156 452.346 225.597 452.501 225.77C452.657 225.942 452.91 226.029 453.262 226.029C453.563 226.029 453.918 225.897 454.325 225.633V221.911H455.674V227ZM460.078 226.969C459.717 227.057 459.332 227.101 458.922 227.101C458.315 227.101 457.872 226.972 457.59 226.714C457.309 226.454 457.168 226.033 457.168 225.453V222.803H456.5V221.911H457.173V220.483H458.518V221.911H460.078V222.803H458.518V224.899C458.518 225.438 458.586 225.79 458.724 225.954C458.862 226.118 459.093 226.2 459.418 226.2C459.626 226.2 459.833 226.149 460.038 226.046H460.078V226.969ZM463.91 226.969C463.549 227.057 463.164 227.101 462.754 227.101C462.147 227.101 461.704 226.972 461.422 226.714C461.141 226.454 461 226.033 461 225.453V222.803H460.333V221.911H461.005V220.483H462.35V221.911H463.91V222.803H462.35V224.899C462.35 225.438 462.418 225.79 462.556 225.954C462.694 226.118 462.925 226.2 463.25 226.2C463.458 226.2 463.665 226.149 463.87 226.046H463.91V226.969ZM466.929 227.158C466.103 227.158 465.461 226.921 465.004 226.446C464.547 225.969 464.318 225.307 464.318 224.46C464.318 223.61 464.548 222.947 465.008 222.469C465.471 221.992 466.111 221.753 466.929 221.753C467.752 221.753 468.392 221.992 468.849 222.469C469.309 222.947 469.539 223.61 469.539 224.46C469.539 225.307 469.309 225.969 468.849 226.446C468.392 226.921 467.752 227.158 466.929 227.158ZM466.929 222.693C466.129 222.693 465.729 223.287 465.729 224.473C465.729 225.636 466.135 226.218 466.946 226.218C467.734 226.218 468.128 225.636 468.128 224.473C468.128 223.287 467.729 222.693 466.929 222.693ZM475.313 227H473.956V224.464C473.956 223.755 473.876 223.316 473.718 223.146C473.563 222.973 473.31 222.887 472.958 222.887C472.665 222.887 472.312 223.017 471.899 223.278V227H470.55V221.911H471.899V222.623C472.321 222.277 472.658 222.049 472.91 221.938C473.165 221.826 473.43 221.771 473.705 221.771C474.777 221.771 475.313 222.399 475.313 223.656V227Z" fill="white"/>
<rect x="32" y="12" width="106" height="24" rx="2" fill="#282828"/>
<path d="M41.1426 27V20.3774H43.5244C44.5322 20.3774 45.2163 20.5107 45.5767 20.7773C45.9399 21.041 46.1216 21.4146 46.1216 21.8979C46.1216 22.5366 45.8081 23.001 45.1812 23.291V23.3262C46.1274 23.5254 46.6006 24.0718 46.6006 24.9653C46.6006 25.5894 46.3662 26.0845 45.8975 26.4507C45.4316 26.8169 44.7549 27 43.8672 27H41.1426ZM42.584 21.4189V23.0229H43.1289C43.5771 23.0229 43.895 22.9995 44.0825 22.9526C44.27 22.9028 44.4092 22.8105 44.5 22.6758C44.5908 22.5381 44.6362 22.3667 44.6362 22.1616C44.6362 21.9976 44.5952 21.8569 44.5132 21.7397C44.4341 21.6226 44.3037 21.5405 44.1221 21.4937C43.9404 21.4438 43.5742 21.4189 43.0234 21.4189H42.584ZM42.584 24.0073V25.9585H43.0366C43.438 25.9585 43.7471 25.9541 43.9639 25.9453C44.1807 25.9365 44.377 25.894 44.5527 25.8179C44.7314 25.7417 44.8662 25.6318 44.957 25.4883C45.0508 25.3447 45.0977 25.1704 45.0977 24.9653C45.0977 24.7427 45.0493 24.5596 44.9526 24.416C44.8589 24.2725 44.7212 24.1685 44.5396 24.104C44.3608 24.0396 43.9404 24.0073 43.2783 24.0073H42.584ZM52.2212 24.6665H48.6133C48.6719 25.686 49.2505 26.1958 50.3491 26.1958C50.9233 26.1958 51.5005 25.9878 52.0806 25.5718H52.1289V26.7407C51.4404 27.0044 50.793 27.1362 50.1865 27.1362C49.2314 27.1362 48.5034 26.9092 48.0024 26.4551C47.5015 26.001 47.251 25.3462 47.251 24.4907C47.251 23.6411 47.4883 22.9731 47.9629 22.4868C48.4375 21.9976 49.0923 21.7529 49.9272 21.7529C51.4565 21.7529 52.2212 22.5659 52.2212 24.1919V24.6665ZM50.8721 23.9019C50.8604 23.0259 50.5044 22.5879 49.8042 22.5879C49.0601 22.5879 48.6631 23.0259 48.6133 23.9019H50.8721ZM54.5679 27H53.2188V20.083H54.5679V27ZM58.1934 27.1582C57.3672 27.1582 56.7256 26.9209 56.2686 26.4463C55.8115 25.9688 55.583 25.3066 55.583 24.46C55.583 23.6104 55.813 22.9468 56.2729 22.4692C56.7358 21.9917 57.376 21.7529 58.1934 21.7529C59.0166 21.7529 59.6567 21.9917 60.1138 22.4692C60.5737 22.9468 60.8037 23.6104 60.8037 24.46C60.8037 25.3066 60.5737 25.9688 60.1138 26.4463C59.6567 26.9209 59.0166 27.1582 58.1934 27.1582ZM58.1934 22.6934C57.3936 22.6934 56.9937 23.2866 56.9937 24.4731C56.9937 25.6362 57.3994 26.2178 58.2109 26.2178C58.999 26.2178 59.3931 25.6362 59.3931 24.4731C59.3931 23.2866 58.9932 22.6934 58.1934 22.6934ZM66.5781 27H65.2202V24.4644C65.2202 23.7554 65.1411 23.3159 64.9829 23.146C64.8276 22.9731 64.5742 22.8867 64.2227 22.8867C63.9297 22.8867 63.5767 23.0171 63.1636 23.2778V27H61.8145V21.9111H63.1636V22.623C63.5854 22.2773 63.9224 22.0488 64.1743 21.9375C64.4292 21.8262 64.6943 21.7705 64.9697 21.7705C66.042 21.7705 66.5781 22.3989 66.5781 23.6558V27ZM72.5327 26.4155C72.5327 27.2563 72.3218 27.8774 71.8999 28.2788C71.478 28.6802 70.8027 28.8809 69.874 28.8809C69.2734 28.8809 68.6787 28.8149 68.0898 28.6831V27.5845H68.1558C68.7388 27.7925 69.2441 27.8965 69.6719 27.8965C70.1963 27.8965 70.5786 27.8042 70.8188 27.6196C71.062 27.4351 71.1836 27.0703 71.1836 26.5254V26.2441C70.6592 26.6953 70.1509 26.9209 69.6587 26.9209C68.2612 26.9209 67.5625 26.0552 67.5625 24.3237C67.5625 23.5562 67.7646 22.9395 68.1689 22.4736C68.5762 22.0049 69.0962 21.7705 69.729 21.7705C70.2241 21.7705 70.7031 21.9258 71.166 22.2363L71.2583 21.9111H72.5327V26.4155ZM71.1836 25.5059V22.9395C70.8877 22.8135 70.6138 22.7505 70.3618 22.7505C69.4272 22.7505 68.96 23.2852 68.96 24.3545C68.96 24.8906 69.0566 25.2788 69.25 25.519C69.4463 25.7563 69.7495 25.875 70.1597 25.875C70.479 25.875 70.8203 25.752 71.1836 25.5059ZM78.5181 24.6665H74.9102C74.9688 25.686 75.5474 26.1958 76.646 26.1958C77.2202 26.1958 77.7974 25.9878 78.3774 25.5718H78.4258V26.7407C77.7373 27.0044 77.0898 27.1362 76.4834 27.1362C75.5283 27.1362 74.8003 26.9092 74.2993 26.4551C73.7983 26.001 73.5479 25.3462 73.5479 24.4907C73.5479 23.6411 73.7852 22.9731 74.2598 22.4868C74.7344 21.9976 75.3892 21.7529 76.2241 21.7529C77.7534 21.7529 78.5181 22.5659 78.5181 24.1919V24.6665ZM77.1689 23.9019C77.1572 23.0259 76.8013 22.5879 76.1011 22.5879C75.3569 22.5879 74.96 23.0259 74.9102 23.9019H77.1689ZM84.1079 27H82.7588V26.332C82.3193 26.6895 81.9883 26.9136 81.7656 27.0044C81.543 27.0952 81.3042 27.1406 81.0493 27.1406C80.4663 27.1406 80.002 26.9048 79.6562 26.4331C79.3105 25.9585 79.1377 25.314 79.1377 24.4995C79.1377 23.6909 79.3472 23.0347 79.7661 22.5308C80.1851 22.0239 80.7051 21.7705 81.3262 21.7705C81.5488 21.7705 81.7524 21.7954 81.937 21.8452C82.1216 21.895 82.3955 22.0151 82.7588 22.2056V20.083H84.1079V27ZM82.7588 25.6948V22.9395C82.4658 22.8135 82.1934 22.7505 81.9414 22.7505C81.0039 22.7505 80.5352 23.3218 80.5352 24.4644C80.5352 25.0415 80.6318 25.459 80.8252 25.7168C81.0186 25.9717 81.3218 26.0991 81.7349 26.0991C82.0454 26.0991 82.3867 25.9644 82.7588 25.6948ZM90.2119 27H85.5977V20.3774H90.2119V21.4761H87.0391V22.8911H89.9878V23.9854H87.0391V25.9014H90.2119V27ZM96.1533 27H94.7954V24.4644C94.7954 23.7554 94.7163 23.3159 94.5581 23.146C94.4028 22.9731 94.1494 22.8867 93.7979 22.8867C93.5049 22.8867 93.1519 23.0171 92.7388 23.2778V27H91.3896V21.9111H92.7388V22.623C93.1606 22.2773 93.4976 22.0488 93.7495 21.9375C94.0044 21.8262 94.2695 21.7705 94.5449 21.7705C95.6172 21.7705 96.1533 22.3989 96.1533 23.6558V27ZM100.517 26.9692C100.157 27.0571 99.7715 27.1011 99.3613 27.1011C98.7549 27.1011 98.311 26.9722 98.0298 26.7144C97.7485 26.4536 97.6079 26.0332 97.6079 25.4531V22.8032H96.9399V21.9111H97.6123V20.4829H98.957V21.9111H100.517V22.8032H98.957V24.8994C98.957 25.4385 99.0259 25.79 99.1636 25.9541C99.3013 26.1182 99.5327 26.2002 99.8579 26.2002C100.066 26.2002 100.272 26.1489 100.478 26.0464H100.517V26.9692ZM102.745 21.2739H101.299V20.083H102.745V21.2739ZM102.697 27H101.348V21.9111H102.697V27ZM107.1 26.9692C106.74 27.0571 106.354 27.1011 105.944 27.1011C105.338 27.1011 104.894 26.9722 104.613 26.7144C104.332 26.4536 104.191 26.0332 104.191 25.4531V22.8032H103.523V21.9111H104.195V20.4829H105.54V21.9111H107.1V22.8032H105.54V24.8994C105.54 25.4385 105.609 25.79 105.747 25.9541C105.884 26.1182 106.116 26.2002 106.441 26.2002C106.649 26.2002 106.855 26.1489 107.061 26.0464H107.1V26.9692ZM112.655 21.9111L109.864 28.8325H108.44L109.214 27.0088L107.223 21.9111H108.687L109.97 25.5454L111.266 21.9111H112.655ZM118.064 27H113.468V20.3774H114.918V25.9014H118.064V27ZM120.209 21.2739H118.763V20.083H120.209V21.2739ZM120.161 27H118.812V21.9111H120.161V27ZM121.215 26.7583V25.5103H121.268C121.875 25.9995 122.513 26.2441 123.184 26.2441C123.864 26.2441 124.204 26.0596 124.204 25.6904C124.204 25.541 124.151 25.4282 124.045 25.3521C123.94 25.2729 123.75 25.2026 123.474 25.1411C123.284 25.106 123.013 25.0488 122.661 24.9697C122.31 24.8906 122.033 24.7808 121.831 24.6401C121.631 24.4995 121.483 24.3296 121.387 24.1304C121.29 23.9312 121.242 23.7012 121.242 23.4404C121.242 22.9453 121.457 22.5439 121.888 22.2363C122.318 21.9258 122.897 21.7705 123.624 21.7705C124.265 21.7705 124.844 21.8833 125.359 22.1089V23.2954H125.324C124.735 22.8765 124.166 22.667 123.615 22.667C123.331 22.667 123.093 22.7197 122.903 22.8252C122.712 22.9307 122.617 23.0625 122.617 23.2207C122.617 23.3994 122.676 23.5298 122.793 23.6118C122.913 23.6909 123.112 23.7627 123.391 23.8271C123.745 23.8916 124.098 23.9692 124.45 24.0601C124.801 24.1509 125.078 24.312 125.28 24.5435C125.482 24.772 125.583 25.0679 125.583 25.4312C125.583 25.9497 125.364 26.3643 124.924 26.6748C124.488 26.9854 123.897 27.1406 123.153 27.1406C122.415 27.1406 121.769 27.0132 121.215 26.7583ZM129.512 26.9692C129.152 27.0571 128.767 27.1011 128.356 27.1011C127.75 27.1011 127.306 26.9722 127.025 26.7144C126.744 26.4536 126.603 26.0332 126.603 25.4531V22.8032H125.935V21.9111H126.607V20.4829H127.952V21.9111H129.512V22.8032H127.952V24.8994C127.952 25.4385 128.021 25.79 128.159 25.9541C128.296 26.1182 128.528 26.2002 128.853 26.2002C129.061 26.2002 129.268 26.1489 129.473 26.0464H129.512V26.9692Z" fill="white"/>
<defs>
<clipPath id="clip0_939_2490">
<rect width="32" height="32" fill="white" transform="translate(224 50)"/>
</clipPath>
<clipPath id="clip1_939_2490">
<rect width="32" height="32" fill="white" transform="translate(224 98)"/>
</clipPath>
</defs>
</svg>
