<svg width="568" height="292" viewBox="0 0 568 292" fill="none" xmlns="http://www.w3.org/2000/svg">
<rect width="568" height="292" fill="white"/>
<rect width="280" height="149" transform="translate(190 76)" fill="#E3E7E8"/>
<g filter="url(#filter0_d_816_1518)">
<rect width="278" height="48" transform="translate(191 77)" fill="#F7F9FA"/>
<g clip-path="url(#clip0_816_1518)">
<path d="M239 77H191V125H239V77Z" fill="#4F91C5"/>
<path fill-rule="evenodd" clip-rule="evenodd" d="M223 85.0003H206V98.0003H223V85.0003ZM221 87.0002H218V90.0002H221V87.0002ZM216 106H231V118H216V106ZM214 106H199V118H214V106ZM227 109H229V111H227V109ZM212 109H210V111H212V109Z" fill="#EFF3F4"/>
<path fill-rule="evenodd" clip-rule="evenodd" d="M216 98H214V101H205V103V106H207V103H222V106H224V103V101H216V98Z" fill="#A6B2B3"/>
</g>
<path d="M259.572 99.1836V97.8506H257.829V97.1055C257.241 97.5794 256.651 97.9805 256.059 98.3086L255.56 97.6797C257.296 96.6543 258.576 95.3828 259.401 93.8652H260.741C261.069 94.5033 261.664 95.1823 262.525 95.9023C263.391 96.6224 264.173 97.1442 264.87 97.4678L264.296 98.2402C263.699 97.9258 263.104 97.5384 262.512 97.0781V97.8506H260.611V99.1836H263.667V102.608H260.885C261.65 103.921 262.897 104.896 264.624 105.534L264.098 106.334C263.214 105.988 262.421 105.523 261.719 104.939C261.021 104.356 260.493 103.723 260.133 103.039C259.832 103.736 259.29 104.399 258.506 105.028C257.727 105.653 256.806 106.092 255.744 106.348L255.402 105.637C256.359 105.363 257.175 104.962 257.85 104.434C258.529 103.9 259.016 103.292 259.312 102.608H256.599V99.1836H259.572ZM257.877 97.0645H262.505C261.489 96.276 260.691 95.4717 260.112 94.6514C259.502 95.5492 258.757 96.3535 257.877 97.0645ZM262.683 99.9082H260.611V101.863H262.683V99.9082ZM259.572 99.9082H257.583V101.863H259.572V99.9082ZM251.69 103.224L251.089 102.725C251.535 102.118 251.996 101.264 252.47 100.161C252.948 99.0583 253.272 98.1172 253.44 97.3379H251.69V96.5381H253.55V93.8857H254.562V96.5381H255.778V97.3379H254.562V98.7803C254.858 99.1631 255.343 99.6735 256.018 100.312L255.478 101.111C255.213 100.842 254.908 100.469 254.562 99.9902V106.375H253.55V99.8604C253.007 101.214 252.388 102.335 251.69 103.224ZM271.357 106.382V102.561L265.759 102.793L265.629 101.884C266.363 101.884 267.933 101.843 270.339 101.761L270.455 101.665C269.963 101.218 269.035 100.471 267.673 99.4229L268.343 98.7803C268.479 98.876 268.701 99.04 269.006 99.2725C269.544 98.7484 270.045 98.1901 270.51 97.5977H266.791V98.9854H265.8V96.8115H271.344V95.5811H266.531V94.7812H271.344V93.8857H272.444V94.7812H277.544V95.5811H272.444V96.8115H278.187V98.9375H277.154V97.5977H271.747C271.255 98.2266 270.567 98.958 269.683 99.792L271.221 100.981C272.401 99.874 273.299 98.8942 273.914 98.042L274.926 98.541C274.083 99.498 272.996 100.555 271.665 101.713L274.133 101.617L276.033 101.521C275.618 101.048 275.265 100.658 274.974 100.353L275.76 99.8125C276.557 100.574 277.366 101.462 278.187 102.479L277.284 103.039C277.161 102.866 276.961 102.615 276.683 102.287C276.09 102.328 274.682 102.401 272.458 102.506V106.382H271.357ZM277.797 106.02C276.325 105.391 275.078 104.677 274.058 103.88L274.741 103.224C275.68 103.894 276.908 104.559 278.426 105.22L277.797 106.02ZM265.943 106.02L265.506 105.268C266.062 105.053 266.716 104.739 267.468 104.324C268.224 103.905 268.778 103.543 269.129 103.237L269.929 103.853C269.505 104.217 268.874 104.625 268.035 105.076C267.197 105.527 266.499 105.842 265.943 106.02ZM281.646 106.354V100.64L279.444 100.783L279.349 99.9424H279.506C279.638 99.9424 279.866 99.9378 280.189 99.9287C280.581 99.4365 280.987 98.9033 281.406 98.3291L279.376 96.4287L279.991 95.8271L280.265 96.0732C280.889 95.2438 281.345 94.5055 281.632 93.8584L282.603 94.1865C282.083 95.0615 281.511 95.8704 280.887 96.6133C281.251 96.9368 281.602 97.2604 281.939 97.584C282.582 96.668 283.045 95.9342 283.327 95.3828L284.271 95.7588C283.345 97.1852 282.325 98.5615 281.208 99.8877C282.101 99.8421 282.903 99.7897 283.614 99.7305L283.259 98.6982L284.072 98.5C284.291 99.0833 284.558 99.8581 284.872 100.824L284.031 101.057C283.995 100.911 283.933 100.706 283.847 100.441C283.541 100.482 283.14 100.523 282.644 100.564V106.354H281.646ZM285.159 99.7236V98.9238H288.044V96.5586H284.975V95.7383H288.044V94.0156H289.158V95.7383H292.597V96.5586H289.158V98.9238H292.228V99.7236H285.159ZM290.696 105.698H286.588V106.238H285.542V101.098H291.77V106.238H290.696V105.698ZM286.588 104.878H290.696V101.897H286.588V104.878ZM280.189 105.254L279.349 105.083C279.69 103.898 279.889 102.754 279.943 101.651L280.887 101.768C280.704 103.504 280.472 104.666 280.189 105.254ZM284.346 101.651C284.382 102.371 284.487 103.215 284.66 104.181L283.771 104.297L283.457 101.754L284.346 101.651ZM293.492 105.931L293.13 105.145C293.918 104.917 294.827 104.529 295.857 103.982C296.887 103.431 297.824 102.786 298.667 102.048H293.588V101.193H299.316V99.9629H294.688V94.4326H305.182V99.9629H300.39V101.193H306.098V102.048H300.984C302.702 103.506 304.63 104.507 306.768 105.049L306.282 105.944C305.239 105.657 304.165 105.206 303.062 104.591C301.964 103.976 301.073 103.331 300.39 102.656V106.389H299.316V102.704C298.747 103.224 298.193 103.661 297.655 104.017C297.118 104.372 296.443 104.739 295.632 105.117C294.825 105.495 294.112 105.767 293.492 105.931ZM304.115 95.2324H300.39V96.8525H304.115V95.2324ZM299.316 95.2324H295.734V96.8525H299.316V95.2324ZM304.115 97.6182H300.39V99.1631H304.115V97.6182ZM299.316 97.6182H295.734V99.1631H299.316V97.6182ZM313.439 94.4668C313.307 94.8997 313.118 95.3669 312.872 95.8682H319.503L319.448 96.8184C319.435 97.0918 319.318 97.6227 319.1 98.4111C318.958 98.917 318.783 99.4251 318.573 99.9355C318.368 100.446 318.097 100.975 317.76 101.521C317.423 102.068 317.015 102.583 316.536 103.066C316.062 103.549 315.508 103.992 314.875 104.393C314.242 104.789 313.508 105.142 312.674 105.452C311.844 105.762 310.942 106.013 309.967 106.204L309.563 105.22C312.193 104.709 314.194 103.768 315.565 102.396C316.942 101.025 317.805 99.1813 318.156 96.8662H312.332C311.794 97.7503 311.127 98.5889 310.329 99.3818C309.536 100.17 308.707 100.815 307.841 101.316L307.198 100.558C308.406 99.792 309.459 98.8167 310.356 97.6318C311.254 96.4424 311.863 95.3327 312.182 94.3027L313.439 94.4668ZM320.747 95.0547L319.961 95.376C319.656 94.665 319.33 94.0361 318.983 93.4893L319.701 93.1543C320.061 93.7103 320.41 94.3438 320.747 95.0547ZM318.744 95.3076L317.965 95.6562C317.669 94.9863 317.34 94.362 316.98 93.7832L317.726 93.4482C318.127 94.0726 318.466 94.6924 318.744 95.3076ZM334.986 100.77C334.403 102.014 333.501 103.098 332.279 104.023C331.062 104.944 329.859 105.568 328.67 105.896L328.171 105.432V94.7881H329.319V104.44C330.071 104.217 330.887 103.755 331.767 103.053C332.651 102.351 333.439 101.389 334.132 100.168L334.986 100.77ZM325.259 98.3359C325.259 99.4115 325.211 100.289 325.115 100.968C325.02 101.642 324.801 102.305 324.459 102.957C324.122 103.604 323.696 104.197 323.181 104.734C322.666 105.272 322.112 105.696 321.52 106.006L321.014 105.138C321.583 104.787 322.11 104.324 322.593 103.75C323.076 103.176 323.447 102.497 323.707 101.713C323.967 100.929 324.097 99.7282 324.097 98.1104V95.2256H325.259V98.3359ZM347.592 100.975H336.285V99.9629H347.592V100.975ZM360.471 96.0049C360.302 98.0785 359.887 99.776 359.227 101.098C358.57 102.419 357.481 103.527 355.959 104.42C354.437 105.313 352.557 105.874 350.319 106.102L350.039 105.069C352.423 104.841 354.503 104.099 356.28 102.841C358.062 101.583 359.051 99.4183 359.247 96.3467H349.882V95.335H359.814C359.723 95.1481 359.675 94.9362 359.671 94.6992C359.671 94.2982 359.817 93.9587 360.108 93.6807C360.405 93.4027 360.771 93.2591 361.209 93.25C361.619 93.25 361.968 93.389 362.255 93.667C362.547 93.945 362.697 94.2959 362.706 94.7197C362.706 95.1253 362.56 95.4671 362.269 95.7451C361.977 96.0231 361.624 96.1667 361.209 96.1758C360.936 96.1758 360.689 96.1188 360.471 96.0049ZM361.182 95.6904C361.446 95.6904 361.676 95.597 361.872 95.4102C362.073 95.2233 362.173 94.9954 362.173 94.7266C362.173 94.4531 362.075 94.2184 361.879 94.0225C361.688 93.8265 361.455 93.7285 361.182 93.7285C360.917 93.7285 360.687 93.8265 360.491 94.0225C360.295 94.2139 360.197 94.4417 360.197 94.7061C360.197 94.9704 360.293 95.2005 360.484 95.3965C360.68 95.5924 360.913 95.6904 361.182 95.6904Z" fill="#0072BF"/>
<path d="M469 125H191V127H469V125Z" fill="#E3E7E8" mask="url(#path-1-inside-1_816_1518)"/>
</g>
<g filter="url(#filter1_d_816_1518)">
<rect width="278" height="48" transform="translate(191 126)" fill="#F7F9FA"/>
<g clip-path="url(#clip1_816_1518)">
<path d="M239 126H191V173.855H239V126Z" fill="#86BAC0"/>
<path d="M239.001 149.415L221.189 131.58L196.624 156.029L214.624 173.855H239.001V149.415Z" fill="#6C969B"/>
<path fill-rule="evenodd" clip-rule="evenodd" d="M215.171 126.128C228.431 126.128 239 136.844 239 150.064C239 163.284 228.431 174 215.171 174C201.911 174 191.163 163.284 191.163 150.064C191.163 136.844 201.911 126.128 215.171 126.128Z" fill="#86BAC0"/>
<path fill-rule="evenodd" clip-rule="evenodd" d="M238.975 151.013C238.469 163.327 228.809 173.299 216.5 173.974L201.277 158.798L228.723 140.673L238.983 150.901L238.975 151.013Z" fill="#6C969B"/>
<path d="M228.723 140.673H201.277V158.798H228.723V140.673Z" fill="#E5E5E4"/>
<path fill-rule="evenodd" clip-rule="evenodd" d="M201.277 158.798L215 146.723L228.723 158.798H201.277Z" fill="#CCCCCC"/>
<path fill-rule="evenodd" clip-rule="evenodd" d="M201.277 158.798L215 147.569L228.723 158.798H201.277Z" fill="#E5E5E4"/>
<path fill-rule="evenodd" clip-rule="evenodd" d="M201.277 140.673L215 152.73L228.723 140.673H201.277Z" fill="#CCCCCC"/>
<path fill-rule="evenodd" clip-rule="evenodd" d="M201.277 140.673L215 151.901L228.723 140.673H201.277Z" fill="white"/>
<path d="M239 126H191V173.855H239V126Z" fill="#9CC076"/>
<path fill-rule="evenodd" clip-rule="evenodd" d="M236.591 162.9H215.302C215.288 162.164 215.323 161.428 215.408 160.696C215.556 159.958 217.056 159.054 219.907 157.985L221.505 157.437C222.045 157.299 222.555 157.063 223.009 156.741C223.214 156.281 223.291 155.774 223.231 155.275V154.948C223.211 154.469 223.028 154.011 222.712 153.65C222.284 152.974 222.017 152.209 221.929 151.414C221.894 151.104 221.801 150.803 221.654 150.528C221.424 150.11 221.263 149.658 221.177 149.189C221.083 148.883 221.083 148.556 221.177 148.25C221.244 148.073 221.29 147.889 221.315 147.701C221.241 147.111 221.177 146.51 221.103 145.877C221.08 144.862 221.46 143.88 222.162 143.145C223.129 142.105 224.524 141.568 225.941 141.689C227.36 141.572 228.754 142.113 229.721 143.155C230.417 143.894 230.797 144.874 230.779 145.887C230.705 146.52 230.631 147.121 230.557 147.712C230.588 147.898 230.634 148.082 230.695 148.26C230.795 148.565 230.795 148.894 230.695 149.199C230.618 149.663 230.468 150.111 230.25 150.528C230.081 150.799 229.966 151.1 229.911 151.414C229.827 152.208 229.563 152.973 229.138 153.65C228.83 154.014 228.655 154.472 228.641 154.948C228.641 156.002 228.747 156.677 228.969 156.825C229.856 157.225 230.764 157.577 231.69 157.88C231.777 157.929 231.869 157.967 231.965 157.996C234.788 159.065 236.284 159.968 236.454 160.707L236.591 162.9Z" fill="#D4D7D8"/>
<path fill-rule="evenodd" clip-rule="evenodd" d="M215.002 162.9H193.713C193.699 162.164 193.734 161.428 193.819 160.696C193.967 159.958 195.467 159.054 198.318 157.985L199.917 157.437C200.456 157.299 200.966 157.063 201.42 156.741C201.626 156.281 201.702 155.774 201.642 155.275V154.948C201.622 154.469 201.439 154.011 201.123 153.65C200.696 152.974 200.428 152.209 200.34 151.414C200.305 151.104 200.212 150.803 200.065 150.528C199.835 150.11 199.674 149.658 199.588 149.189C199.494 148.883 199.494 148.556 199.588 148.25C199.655 148.073 199.701 147.889 199.726 147.701C199.652 147.111 199.588 146.51 199.514 145.877C199.491 144.862 199.872 143.88 200.573 143.145C201.54 142.105 202.935 141.568 204.352 141.689C205.771 141.572 207.165 142.113 208.132 143.155C208.828 143.894 209.208 144.874 209.19 145.887C209.116 146.52 209.042 147.121 208.968 147.712C208.999 147.898 209.045 148.082 209.106 148.26C209.206 148.565 209.206 148.894 209.106 149.199C209.029 149.663 208.879 150.111 208.661 150.528C208.492 150.799 208.377 151.1 208.322 151.414C208.238 152.208 207.974 152.973 207.549 153.65C207.241 154.014 207.066 154.472 207.052 154.948C207.052 156.002 207.158 156.677 207.38 156.825C208.267 157.225 209.175 157.577 210.101 157.88C210.188 157.929 210.28 157.967 210.376 157.996C213.199 159.065 214.695 159.968 214.865 160.707L215.002 162.9Z" fill="#D4D7D8"/>
<path fill-rule="evenodd" clip-rule="evenodd" d="M228.015 162.9H201.994C201.977 162 202.021 161.1 202.124 160.206C202.305 159.304 204.138 158.199 207.623 156.893L209.577 156.222C210.236 156.054 210.859 155.765 211.414 155.372C211.665 154.81 211.759 154.191 211.686 153.58V153.18C211.661 152.595 211.437 152.036 211.052 151.594C210.529 150.768 210.201 149.833 210.094 148.861C210.052 148.482 209.937 148.115 209.758 147.779C209.477 147.267 209.28 146.715 209.175 146.141C209.06 145.768 209.06 145.368 209.175 144.994C209.257 144.777 209.313 144.553 209.344 144.324C209.253 143.602 209.175 142.867 209.085 142.093C209.057 140.854 209.522 139.653 210.379 138.754C211.561 137.484 213.265 136.827 214.998 136.975C216.733 136.833 218.436 137.494 219.617 138.767C220.469 139.67 220.933 140.868 220.911 142.106C220.821 142.88 220.73 143.615 220.64 144.336C220.677 144.564 220.733 144.788 220.808 145.007C220.93 145.38 220.93 145.781 220.808 146.154C220.714 146.721 220.53 147.269 220.264 147.779C220.057 148.109 219.917 148.477 219.85 148.861C219.747 149.832 219.424 150.766 218.906 151.594C218.529 152.039 218.315 152.598 218.298 153.18C218.298 154.469 218.427 155.294 218.699 155.475C219.783 155.964 220.893 156.394 222.024 156.764C222.131 156.824 222.243 156.871 222.36 156.906C225.811 158.212 227.64 159.317 227.847 160.219L228.015 162.9Z" fill="white"/>
</g>
<path d="M259.572 148.184V146.851H257.829V146.105C257.241 146.579 256.651 146.98 256.059 147.309L255.56 146.68C257.296 145.654 258.576 144.383 259.401 142.865H260.741C261.069 143.503 261.664 144.182 262.525 144.902C263.391 145.622 264.173 146.144 264.87 146.468L264.296 147.24C263.699 146.926 263.104 146.538 262.512 146.078V146.851H260.611V148.184H263.667V151.608H260.885C261.65 152.921 262.897 153.896 264.624 154.534L264.098 155.334C263.214 154.988 262.421 154.523 261.719 153.939C261.021 153.356 260.493 152.723 260.133 152.039C259.832 152.736 259.29 153.399 258.506 154.028C257.727 154.653 256.806 155.092 255.744 155.348L255.402 154.637C256.359 154.363 257.175 153.962 257.85 153.434C258.529 152.9 259.016 152.292 259.312 151.608H256.599V148.184H259.572ZM257.877 146.064H262.505C261.489 145.276 260.691 144.472 260.112 143.651C259.502 144.549 258.757 145.354 257.877 146.064ZM262.683 148.908H260.611V150.863H262.683V148.908ZM259.572 148.908H257.583V150.863H259.572V148.908ZM251.69 152.224L251.089 151.725C251.535 151.118 251.996 150.264 252.47 149.161C252.948 148.058 253.272 147.117 253.44 146.338H251.69V145.538H253.55V142.886H254.562V145.538H255.778V146.338H254.562V147.78C254.858 148.163 255.343 148.674 256.018 149.312L255.478 150.111C255.213 149.842 254.908 149.469 254.562 148.99V155.375H253.55V148.86C253.007 150.214 252.388 151.335 251.69 152.224ZM271.357 155.382V151.561L265.759 151.793L265.629 150.884C266.363 150.884 267.933 150.843 270.339 150.761L270.455 150.665C269.963 150.218 269.035 149.471 267.673 148.423L268.343 147.78C268.479 147.876 268.701 148.04 269.006 148.272C269.544 147.748 270.045 147.19 270.51 146.598H266.791V147.985H265.8V145.812H271.344V144.581H266.531V143.781H271.344V142.886H272.444V143.781H277.544V144.581H272.444V145.812H278.187V147.938H277.154V146.598H271.747C271.255 147.227 270.567 147.958 269.683 148.792L271.221 149.981C272.401 148.874 273.299 147.894 273.914 147.042L274.926 147.541C274.083 148.498 272.996 149.555 271.665 150.713L274.133 150.617L276.033 150.521C275.618 150.048 275.265 149.658 274.974 149.353L275.76 148.812C276.557 149.574 277.366 150.462 278.187 151.479L277.284 152.039C277.161 151.866 276.961 151.615 276.683 151.287C276.09 151.328 274.682 151.401 272.458 151.506V155.382H271.357ZM277.797 155.02C276.325 154.391 275.078 153.677 274.058 152.88L274.741 152.224C275.68 152.894 276.908 153.559 278.426 154.22L277.797 155.02ZM265.943 155.02L265.506 154.268C266.062 154.053 266.716 153.739 267.468 153.324C268.224 152.905 268.778 152.543 269.129 152.237L269.929 152.853C269.505 153.217 268.874 153.625 268.035 154.076C267.197 154.527 266.499 154.842 265.943 155.02ZM281.646 155.354V149.64L279.444 149.783L279.349 148.942H279.506C279.638 148.942 279.866 148.938 280.189 148.929C280.581 148.437 280.987 147.903 281.406 147.329L279.376 145.429L279.991 144.827L280.265 145.073C280.889 144.244 281.345 143.506 281.632 142.858L282.603 143.187C282.083 144.062 281.511 144.87 280.887 145.613C281.251 145.937 281.602 146.26 281.939 146.584C282.582 145.668 283.045 144.934 283.327 144.383L284.271 144.759C283.345 146.185 282.325 147.562 281.208 148.888C282.101 148.842 282.903 148.79 283.614 148.73L283.259 147.698L284.072 147.5C284.291 148.083 284.558 148.858 284.872 149.824L284.031 150.057C283.995 149.911 283.933 149.706 283.847 149.441C283.541 149.482 283.14 149.523 282.644 149.564V155.354H281.646ZM285.159 148.724V147.924H288.044V145.559H284.975V144.738H288.044V143.016H289.158V144.738H292.597V145.559H289.158V147.924H292.228V148.724H285.159ZM290.696 154.698H286.588V155.238H285.542V150.098H291.77V155.238H290.696V154.698ZM286.588 153.878H290.696V150.897H286.588V153.878ZM280.189 154.254L279.349 154.083C279.69 152.898 279.889 151.754 279.943 150.651L280.887 150.768C280.704 152.504 280.472 153.666 280.189 154.254ZM284.346 150.651C284.382 151.371 284.487 152.215 284.66 153.181L283.771 153.297L283.457 150.754L284.346 150.651ZM293.492 154.931L293.13 154.145C293.918 153.917 294.827 153.529 295.857 152.982C296.887 152.431 297.824 151.786 298.667 151.048H293.588V150.193H299.316V148.963H294.688V143.433H305.182V148.963H300.39V150.193H306.098V151.048H300.984C302.702 152.506 304.63 153.507 306.768 154.049L306.282 154.944C305.239 154.657 304.165 154.206 303.062 153.591C301.964 152.976 301.073 152.331 300.39 151.656V155.389H299.316V151.704C298.747 152.224 298.193 152.661 297.655 153.017C297.118 153.372 296.443 153.739 295.632 154.117C294.825 154.495 294.112 154.767 293.492 154.931ZM304.115 144.232H300.39V145.853H304.115V144.232ZM299.316 144.232H295.734V145.853H299.316V144.232ZM304.115 146.618H300.39V148.163H304.115V146.618ZM299.316 146.618H295.734V148.163H299.316V146.618ZM313.439 143.467C313.307 143.9 313.118 144.367 312.872 144.868H319.503L319.448 145.818C319.435 146.092 319.318 146.623 319.1 147.411C318.958 147.917 318.783 148.425 318.573 148.936C318.368 149.446 318.097 149.975 317.76 150.521C317.423 151.068 317.015 151.583 316.536 152.066C316.062 152.549 315.508 152.992 314.875 153.393C314.242 153.789 313.508 154.142 312.674 154.452C311.844 154.762 310.942 155.013 309.967 155.204L309.563 154.22C312.193 153.709 314.194 152.768 315.565 151.396C316.942 150.025 317.805 148.181 318.156 145.866H312.332C311.794 146.75 311.127 147.589 310.329 148.382C309.536 149.17 308.707 149.815 307.841 150.316L307.198 149.558C308.406 148.792 309.459 147.817 310.356 146.632C311.254 145.442 311.863 144.333 312.182 143.303L313.439 143.467ZM320.747 144.055L319.961 144.376C319.656 143.665 319.33 143.036 318.983 142.489L319.701 142.154C320.061 142.71 320.41 143.344 320.747 144.055ZM318.744 144.308L317.965 144.656C317.669 143.986 317.34 143.362 316.98 142.783L317.726 142.448C318.127 143.073 318.466 143.692 318.744 144.308ZM334.986 149.77C334.403 151.014 333.501 152.098 332.279 153.023C331.062 153.944 329.859 154.568 328.67 154.896L328.171 154.432V143.788H329.319V153.44C330.071 153.217 330.887 152.755 331.767 152.053C332.651 151.351 333.439 150.389 334.132 149.168L334.986 149.77ZM325.259 147.336C325.259 148.411 325.211 149.289 325.115 149.968C325.02 150.642 324.801 151.305 324.459 151.957C324.122 152.604 323.696 153.197 323.181 153.734C322.666 154.272 322.112 154.696 321.52 155.006L321.014 154.138C321.583 153.787 322.11 153.324 322.593 152.75C323.076 152.176 323.447 151.497 323.707 150.713C323.967 149.929 324.097 148.728 324.097 147.11V144.226H325.259V147.336ZM347.592 149.975H336.285V148.963H347.592V149.975ZM360.471 145.005C360.302 147.078 359.887 148.776 359.227 150.098C358.57 151.419 357.481 152.527 355.959 153.42C354.437 154.313 352.557 154.874 350.319 155.102L350.039 154.069C352.423 153.841 354.503 153.099 356.28 151.841C358.062 150.583 359.051 148.418 359.247 145.347H349.882V144.335H359.814C359.723 144.148 359.675 143.936 359.671 143.699C359.671 143.298 359.817 142.959 360.108 142.681C360.405 142.403 360.771 142.259 361.209 142.25C361.619 142.25 361.968 142.389 362.255 142.667C362.547 142.945 362.697 143.296 362.706 143.72C362.706 144.125 362.56 144.467 362.269 144.745C361.977 145.023 361.624 145.167 361.209 145.176C360.936 145.176 360.689 145.119 360.471 145.005ZM361.182 144.69C361.446 144.69 361.676 144.597 361.872 144.41C362.073 144.223 362.173 143.995 362.173 143.727C362.173 143.453 362.075 143.218 361.879 143.022C361.688 142.826 361.455 142.729 361.182 142.729C360.917 142.729 360.687 142.826 360.491 143.022C360.295 143.214 360.197 143.442 360.197 143.706C360.197 143.97 360.293 144.201 360.484 144.396C360.68 144.592 360.913 144.69 361.182 144.69Z" fill="#0072BF"/>
<path d="M469 174H191V176H469V174Z" fill="#E3E7E8" mask="url(#path-7-inside-2_816_1518)"/>
</g>
<g filter="url(#filter2_d_816_1518)">
<rect width="278" height="48" transform="translate(191 175)" fill="#F7F9FA"/>
<g clip-path="url(#clip2_816_1518)">
<path d="M239.88 174.216H190.12V224.078H239.88V174.216Z" fill="#717272"/>
<path d="M214.912 183.483C218.607 183.483 221.97 187.069 221.912 192.143C221.853 197.178 219.8 198.158 218.646 200.293C218.216 201.096 218.099 203.604 218.92 204.094C222.694 206.386 226.389 208.13 229.537 209.971C230.925 210.794 231.121 212.499 231.121 213.655C228.579 213.655 221.716 213.655 214.912 213.655C208.108 213.655 201.245 213.655 198.703 213.655C198.703 212.499 198.899 210.794 200.287 209.971C203.435 208.13 207.13 206.386 210.904 204.094C211.725 203.604 211.608 201.096 211.178 200.293C210.024 198.158 207.971 197.158 207.912 192.143C207.854 187.069 211.217 183.483 214.912 183.483Z" fill="white"/>
</g>
<path d="M259.572 197.184V195.851H257.829V195.105C257.241 195.579 256.651 195.98 256.059 196.309L255.56 195.68C257.296 194.654 258.576 193.383 259.401 191.865H260.741C261.069 192.503 261.664 193.182 262.525 193.902C263.391 194.622 264.173 195.144 264.87 195.468L264.296 196.24C263.699 195.926 263.104 195.538 262.512 195.078V195.851H260.611V197.184H263.667V200.608H260.885C261.65 201.921 262.897 202.896 264.624 203.534L264.098 204.334C263.214 203.988 262.421 203.523 261.719 202.939C261.021 202.356 260.493 201.723 260.133 201.039C259.832 201.736 259.29 202.399 258.506 203.028C257.727 203.653 256.806 204.092 255.744 204.348L255.402 203.637C256.359 203.363 257.175 202.962 257.85 202.434C258.529 201.9 259.016 201.292 259.312 200.608H256.599V197.184H259.572ZM257.877 195.064H262.505C261.489 194.276 260.691 193.472 260.112 192.651C259.502 193.549 258.757 194.354 257.877 195.064ZM262.683 197.908H260.611V199.863H262.683V197.908ZM259.572 197.908H257.583V199.863H259.572V197.908ZM251.69 201.224L251.089 200.725C251.535 200.118 251.996 199.264 252.47 198.161C252.948 197.058 253.272 196.117 253.44 195.338H251.69V194.538H253.55V191.886H254.562V194.538H255.778V195.338H254.562V196.78C254.858 197.163 255.343 197.674 256.018 198.312L255.478 199.111C255.213 198.842 254.908 198.469 254.562 197.99V204.375H253.55V197.86C253.007 199.214 252.388 200.335 251.69 201.224ZM271.357 204.382V200.561L265.759 200.793L265.629 199.884C266.363 199.884 267.933 199.843 270.339 199.761L270.455 199.665C269.963 199.218 269.035 198.471 267.673 197.423L268.343 196.78C268.479 196.876 268.701 197.04 269.006 197.272C269.544 196.748 270.045 196.19 270.51 195.598H266.791V196.985H265.8V194.812H271.344V193.581H266.531V192.781H271.344V191.886H272.444V192.781H277.544V193.581H272.444V194.812H278.187V196.938H277.154V195.598H271.747C271.255 196.227 270.567 196.958 269.683 197.792L271.221 198.981C272.401 197.874 273.299 196.894 273.914 196.042L274.926 196.541C274.083 197.498 272.996 198.555 271.665 199.713L274.133 199.617L276.033 199.521C275.618 199.048 275.265 198.658 274.974 198.353L275.76 197.812C276.557 198.574 277.366 199.462 278.187 200.479L277.284 201.039C277.161 200.866 276.961 200.615 276.683 200.287C276.09 200.328 274.682 200.401 272.458 200.506V204.382H271.357ZM277.797 204.02C276.325 203.391 275.078 202.677 274.058 201.88L274.741 201.224C275.68 201.894 276.908 202.559 278.426 203.22L277.797 204.02ZM265.943 204.02L265.506 203.268C266.062 203.053 266.716 202.739 267.468 202.324C268.224 201.905 268.778 201.543 269.129 201.237L269.929 201.853C269.505 202.217 268.874 202.625 268.035 203.076C267.197 203.527 266.499 203.842 265.943 204.02ZM281.646 204.354V198.64L279.444 198.783L279.349 197.942H279.506C279.638 197.942 279.866 197.938 280.189 197.929C280.581 197.437 280.987 196.903 281.406 196.329L279.376 194.429L279.991 193.827L280.265 194.073C280.889 193.244 281.345 192.506 281.632 191.858L282.603 192.187C282.083 193.062 281.511 193.87 280.887 194.613C281.251 194.937 281.602 195.26 281.939 195.584C282.582 194.668 283.045 193.934 283.327 193.383L284.271 193.759C283.345 195.185 282.325 196.562 281.208 197.888C282.101 197.842 282.903 197.79 283.614 197.73L283.259 196.698L284.072 196.5C284.291 197.083 284.558 197.858 284.872 198.824L284.031 199.057C283.995 198.911 283.933 198.706 283.847 198.441C283.541 198.482 283.14 198.523 282.644 198.564V204.354H281.646ZM285.159 197.724V196.924H288.044V194.559H284.975V193.738H288.044V192.016H289.158V193.738H292.597V194.559H289.158V196.924H292.228V197.724H285.159ZM290.696 203.698H286.588V204.238H285.542V199.098H291.77V204.238H290.696V203.698ZM286.588 202.878H290.696V199.897H286.588V202.878ZM280.189 203.254L279.349 203.083C279.69 201.898 279.889 200.754 279.943 199.651L280.887 199.768C280.704 201.504 280.472 202.666 280.189 203.254ZM284.346 199.651C284.382 200.371 284.487 201.215 284.66 202.181L283.771 202.297L283.457 199.754L284.346 199.651ZM293.492 203.931L293.13 203.145C293.918 202.917 294.827 202.529 295.857 201.982C296.887 201.431 297.824 200.786 298.667 200.048H293.588V199.193H299.316V197.963H294.688V192.433H305.182V197.963H300.39V199.193H306.098V200.048H300.984C302.702 201.506 304.63 202.507 306.768 203.049L306.282 203.944C305.239 203.657 304.165 203.206 303.062 202.591C301.964 201.976 301.073 201.331 300.39 200.656V204.389H299.316V200.704C298.747 201.224 298.193 201.661 297.655 202.017C297.118 202.372 296.443 202.739 295.632 203.117C294.825 203.495 294.112 203.767 293.492 203.931ZM304.115 193.232H300.39V194.853H304.115V193.232ZM299.316 193.232H295.734V194.853H299.316V193.232ZM304.115 195.618H300.39V197.163H304.115V195.618ZM299.316 195.618H295.734V197.163H299.316V195.618ZM313.439 192.467C313.307 192.9 313.118 193.367 312.872 193.868H319.503L319.448 194.818C319.435 195.092 319.318 195.623 319.1 196.411C318.958 196.917 318.783 197.425 318.573 197.936C318.368 198.446 318.097 198.975 317.76 199.521C317.423 200.068 317.015 200.583 316.536 201.066C316.062 201.549 315.508 201.992 314.875 202.393C314.242 202.789 313.508 203.142 312.674 203.452C311.844 203.762 310.942 204.013 309.967 204.204L309.563 203.22C312.193 202.709 314.194 201.768 315.565 200.396C316.942 199.025 317.805 197.181 318.156 194.866H312.332C311.794 195.75 311.127 196.589 310.329 197.382C309.536 198.17 308.707 198.815 307.841 199.316L307.198 198.558C308.406 197.792 309.459 196.817 310.356 195.632C311.254 194.442 311.863 193.333 312.182 192.303L313.439 192.467ZM320.747 193.055L319.961 193.376C319.656 192.665 319.33 192.036 318.983 191.489L319.701 191.154C320.061 191.71 320.41 192.344 320.747 193.055ZM318.744 193.308L317.965 193.656C317.669 192.986 317.34 192.362 316.98 191.783L317.726 191.448C318.127 192.073 318.466 192.692 318.744 193.308ZM334.986 198.77C334.403 200.014 333.501 201.098 332.279 202.023C331.062 202.944 329.859 203.568 328.67 203.896L328.171 203.432V192.788H329.319V202.44C330.071 202.217 330.887 201.755 331.767 201.053C332.651 200.351 333.439 199.389 334.132 198.168L334.986 198.77ZM325.259 196.336C325.259 197.411 325.211 198.289 325.115 198.968C325.02 199.642 324.801 200.305 324.459 200.957C324.122 201.604 323.696 202.197 323.181 202.734C322.666 203.272 322.112 203.696 321.52 204.006L321.014 203.138C321.583 202.787 322.11 202.324 322.593 201.75C323.076 201.176 323.447 200.497 323.707 199.713C323.967 198.929 324.097 197.728 324.097 196.11V193.226H325.259V196.336ZM347.592 198.975H336.285V197.963H347.592V198.975ZM360.471 194.005C360.302 196.078 359.887 197.776 359.227 199.098C358.57 200.419 357.481 201.527 355.959 202.42C354.437 203.313 352.557 203.874 350.319 204.102L350.039 203.069C352.423 202.841 354.503 202.099 356.28 200.841C358.062 199.583 359.051 197.418 359.247 194.347H349.882V193.335H359.814C359.723 193.148 359.675 192.936 359.671 192.699C359.671 192.298 359.817 191.959 360.108 191.681C360.405 191.403 360.771 191.259 361.209 191.25C361.619 191.25 361.968 191.389 362.255 191.667C362.547 191.945 362.697 192.296 362.706 192.72C362.706 193.125 362.56 193.467 362.269 193.745C361.977 194.023 361.624 194.167 361.209 194.176C360.936 194.176 360.689 194.119 360.471 194.005ZM361.182 193.69C361.446 193.69 361.676 193.597 361.872 193.41C362.073 193.223 362.173 192.995 362.173 192.727C362.173 192.453 362.075 192.218 361.879 192.022C361.688 191.826 361.455 191.729 361.182 191.729C360.917 191.729 360.687 191.826 360.491 192.022C360.295 192.214 360.197 192.442 360.197 192.706C360.197 192.97 360.293 193.201 360.484 193.396C360.68 193.592 360.913 193.69 361.182 193.69Z" fill="#0072BF"/>
<path d="M469 223H191V225H469V223Z" fill="#E3E7E8" mask="url(#path-23-inside-3_816_1518)"/>
</g>
<g clip-path="url(#clip3_816_1518)">
<g filter="url(#filter3_ii_816_1518)">
<rect x="190" y="44" width="248" height="32" fill="white"/>
<path d="M206.572 58.1836V56.8506H204.829V56.1055C204.241 56.5794 203.651 56.9805 203.059 57.3086L202.56 56.6797C204.296 55.6543 205.576 54.3828 206.401 52.8652H207.741C208.069 53.5033 208.664 54.1823 209.525 54.9023C210.391 55.6224 211.173 56.1442 211.87 56.4678L211.296 57.2402C210.699 56.9258 210.104 56.5384 209.512 56.0781V56.8506H207.611V58.1836H210.667V61.6084H207.885C208.65 62.9209 209.897 63.8962 211.624 64.5342L211.098 65.334C210.214 64.9876 209.421 64.5228 208.719 63.9395C208.021 63.3561 207.493 62.7227 207.133 62.0391C206.832 62.7363 206.29 63.3994 205.506 64.0283C204.727 64.6527 203.806 65.0924 202.744 65.3477L202.402 64.6367C203.359 64.3633 204.175 63.9622 204.85 63.4336C205.529 62.9004 206.016 62.292 206.312 61.6084H203.599V58.1836H206.572ZM204.877 56.0645H209.505C208.489 55.276 207.691 54.4717 207.112 53.6514C206.502 54.5492 205.757 55.3535 204.877 56.0645ZM209.683 58.9082H207.611V60.8633H209.683V58.9082ZM206.572 58.9082H204.583V60.8633H206.572V58.9082ZM198.69 62.2236L198.089 61.7246C198.535 61.1185 198.996 60.264 199.47 59.1611C199.948 58.0583 200.272 57.1172 200.44 56.3379H198.69V55.5381H200.55V52.8857H201.562V55.5381H202.778V56.3379H201.562V57.7803C201.858 58.1631 202.343 58.6735 203.018 59.3115L202.478 60.1113C202.213 59.8424 201.908 59.4688 201.562 58.9902V65.375H200.55V58.8604C200.007 60.2139 199.388 61.335 198.69 62.2236ZM218.357 65.3818V61.5605L212.759 61.793L212.629 60.8838C213.363 60.8838 214.933 60.8428 217.339 60.7607L217.455 60.665C216.963 60.2184 216.035 59.471 214.673 58.4229L215.343 57.7803C215.479 57.876 215.701 58.04 216.006 58.2725C216.544 57.7484 217.045 57.1901 217.51 56.5977H213.791V57.9854H212.8V55.8115H218.344V54.5811H213.531V53.7812H218.344V52.8857H219.444V53.7812H224.544V54.5811H219.444V55.8115H225.187V57.9375H224.154V56.5977H218.747C218.255 57.2266 217.567 57.958 216.683 58.792L218.221 59.9814C219.401 58.874 220.299 57.8942 220.914 57.042L221.926 57.541C221.083 58.498 219.996 59.5553 218.665 60.7129L221.133 60.6172L223.033 60.5215C222.618 60.0475 222.265 59.6579 221.974 59.3525L222.76 58.8125C223.557 59.5736 224.366 60.4622 225.187 61.4785L224.284 62.0391C224.161 61.8659 223.961 61.6152 223.683 61.2871C223.09 61.3281 221.682 61.401 219.458 61.5059V65.3818H218.357ZM224.797 65.0195C223.325 64.3906 222.078 63.6774 221.058 62.8799L221.741 62.2236C222.68 62.8936 223.908 63.5589 225.426 64.2197L224.797 65.0195ZM212.943 65.0195L212.506 64.2676C213.062 64.0534 213.716 63.7389 214.468 63.3242C215.224 62.9049 215.778 62.5426 216.129 62.2373L216.929 62.8525C216.505 63.2171 215.874 63.625 215.035 64.0762C214.197 64.5273 213.499 64.8418 212.943 65.0195ZM228.194 65.3408V58.0537C227.78 58.792 227.303 59.5075 226.766 60.2002L226.109 59.7148C226.752 58.8079 227.36 57.6937 227.935 56.3721C228.513 55.0459 228.914 53.8496 229.138 52.7832L230.19 52.9404C229.903 54.1481 229.427 55.4766 228.762 56.9258H229.247V65.3408H228.194ZM232.932 63.0645V56.0439H234.552L234.579 54.6699H230.402V53.8291H234.6L234.62 52.8857H235.7L235.673 53.8291H239.515V54.6699H235.646L235.604 56.0439H238.599V63.0645H232.932ZM237.587 58.0264V56.7822H233.93V58.0264H237.587ZM233.93 60.1387H237.587V58.7441H233.93V60.1387ZM233.93 62.3125H237.587V60.8564H233.93V62.3125ZM230.56 65.2793V56.2285H231.592V64.0967H239.617V64.8691H231.592V65.2793H230.56Z" fill="#333333"/>
<rect x="190.5" y="44.5" width="247" height="31" stroke="#E3E7E8"/>
</g>
</g>
<rect x="438.5" y="44.5" width="31" height="31" fill="#EEEEEE"/>
<path fill-rule="evenodd" clip-rule="evenodd" d="M457.103 64.5175C453.57 67.3477 448.397 67.1249 445.121 63.8492C441.607 60.3345 441.607 54.636 445.121 51.1213C448.636 47.6066 454.335 47.6066 457.849 51.1213C460.878 54.15 461.297 58.8002 459.106 62.2773L465.627 68.799L463.506 70.9203L457.103 64.5175ZM455.728 53.2426C458.071 55.5858 458.071 59.3848 455.728 61.7279C453.385 64.0711 449.586 64.0711 447.243 61.7279C444.9 59.3848 444.9 55.5858 447.243 53.2426C449.586 50.8995 453.385 50.8995 455.728 53.2426Z" fill="#888888"/>
<rect x="438.5" y="44.5" width="31" height="31" stroke="#E3E7E8"/>
<rect x="478.5" y="44.5" width="31" height="31" fill="#3498DB" stroke="#E3E7E8"/>
<path fill-rule="evenodd" clip-rule="evenodd" d="M502.636 67.6009C502.488 67.2984 501.271 66.5793 499.162 65.7753C499.047 65.7411 498.935 65.6966 498.828 65.6424C497.99 65.3652 497.168 65.0441 496.365 64.6803L496.252 64.6174C495.72 64.2627 495.601 63.5627 495.601 62.2348C495.619 61.6465 495.828 61.0806 496.195 60.6226C496.498 60.1239 496.687 59.5632 496.755 58.9327C496.822 58.5472 496.962 58.1783 497.138 57.9003C497.295 57.5985 497.404 57.2738 497.459 56.9382L497.488 56.8202C497.525 56.7062 497.525 56.5833 497.491 56.4777C497.422 56.2748 497.37 56.0664 497.335 55.8549L497.316 55.7412L497.331 55.6269C497.408 55.0067 497.47 54.4977 497.525 54.0647C497.537 53.3577 497.273 52.6738 496.784 52.1536C496.082 51.3931 495.068 50.9985 494.037 51.0837L493.903 51.0835C492.873 50.9952 491.859 51.3869 491.15 52.1522C490.664 52.6633 490.401 53.3459 490.412 53.9764C490.437 54.1917 490.461 54.4047 490.507 54.8173C490.545 55.1546 490.573 55.3873 490.601 55.6173L490.614 55.7194L490.6 55.8215C490.57 56.0502 490.514 56.2748 490.448 56.4467C490.41 56.5695 490.41 56.701 490.448 56.8238L490.471 56.9157C490.533 57.2552 490.649 57.5826 490.819 57.8934C490.998 58.231 491.112 58.5996 491.155 58.9812C491.219 59.5608 491.409 60.1191 491.713 60.6162C492.089 61.0703 492.306 61.6365 492.331 62.2583V62.5091C492.391 63.087 492.299 63.671 492.062 64.2022L491.973 64.4009L491.796 64.5271C491.308 64.8749 490.76 65.1297 490.241 65.2602L488.824 65.7478C486.561 66.5993 485.331 67.3431 485.289 67.5391C485.247 67.9051 485.219 68.2724 485.205 68.6404H502.701L502.636 67.6009ZM499.39 64.1474L499.532 64.2098C499.559 64.2248 499.587 64.2367 499.673 64.2644C502.5 65.339 503.964 66.226 504.205 67.2799L504.223 67.4079L504.4 70.2364H483.617L483.603 69.4532C483.59 68.7531 483.623 68.0529 483.713 67.2917C483.928 66.2201 485.396 65.3323 488.283 64.2463L489.783 63.7327C490.099 63.6516 490.401 63.5238 490.678 63.3539C490.748 63.1265 490.769 62.8863 490.741 62.6487L490.735 62.5535L490.736 62.2916C490.725 62.0406 490.63 61.8006 490.465 61.6111L490.391 61.5125C489.942 60.7993 489.66 59.9933 489.569 59.1568C489.549 58.9772 489.495 58.8029 489.414 58.6513C489.174 58.2118 489.003 57.7376 488.909 57.2458C488.791 56.8305 488.796 56.3879 488.938 55.932C488.966 55.857 488.988 55.7799 489.003 55.7015C488.979 55.4993 488.954 55.285 488.921 54.9965C488.875 54.583 488.851 54.3733 488.821 54.0871C488.795 52.9607 489.217 51.8698 489.986 51.06C491.008 49.9575 492.475 49.3801 493.972 49.488C495.47 49.3846 496.936 49.9657 497.952 51.0657C498.721 51.8839 499.14 52.9697 499.115 54.1709C499.059 54.6532 499.001 55.1324 498.93 55.7016C498.949 55.7911 498.974 55.8805 499.005 55.9727C499.141 56.3887 499.147 56.8358 499.024 57.2547C498.939 57.7364 498.779 58.2042 498.524 58.6904C498.426 58.8473 498.36 59.0217 498.335 59.1523C498.247 59.9893 497.969 60.7953 497.524 61.5095L497.457 61.6014C497.296 61.7924 497.204 62.0322 497.197 62.2583C497.197 62.698 497.219 63.0451 497.258 63.2797C497.962 63.6403 498.67 63.9112 499.39 64.1474Z" fill="white"/>
<line x1="219" y1="253" x2="219" y2="219" stroke="#282828" stroke-width="2"/>
<rect x="193" y="238" width="66" height="24" rx="2" fill="#282828"/>
<path d="M206.862 253H202.248V246.377H206.862V247.476H203.689V248.891H206.638V249.985H203.689V251.901H206.862V253ZM212.803 253H211.445V250.464C211.445 249.755 211.366 249.316 211.208 249.146C211.053 248.973 210.799 248.887 210.448 248.887C210.155 248.887 209.802 249.017 209.389 249.278V253H208.04V247.911H209.389V248.623C209.811 248.277 210.147 248.049 210.399 247.938C210.654 247.826 210.919 247.771 211.195 247.771C212.267 247.771 212.803 248.399 212.803 249.656V253ZM217.167 252.969C216.807 253.057 216.421 253.101 216.011 253.101C215.405 253.101 214.961 252.972 214.68 252.714C214.398 252.454 214.258 252.033 214.258 251.453V248.803H213.59V247.911H214.262V246.483H215.607V247.911H217.167V248.803H215.607V250.899C215.607 251.438 215.676 251.79 215.813 251.954C215.951 252.118 216.183 252.2 216.508 252.2C216.716 252.2 216.922 252.149 217.127 252.046H217.167V252.969ZM219.395 247.274H217.949V246.083H219.395V247.274ZM219.347 253H217.998V247.911H219.347V253ZM223.75 252.969C223.39 253.057 223.004 253.101 222.594 253.101C221.988 253.101 221.544 252.972 221.263 252.714C220.981 252.454 220.841 252.033 220.841 251.453V248.803H220.173V247.911H220.845V246.483H222.19V247.911H223.75V248.803H222.19V250.899C222.19 251.438 222.259 251.79 222.396 251.954C222.534 252.118 222.766 252.2 223.091 252.2C223.299 252.2 223.505 252.149 223.71 252.046H223.75V252.969ZM229.305 247.911L226.514 254.833H225.09L225.864 253.009L223.873 247.911H225.336L226.62 251.545L227.916 247.911H229.305ZM233.427 253H229.814V252.011H230.896V247.366H229.814V246.377H233.427V247.366H232.346V252.011H233.427V253ZM238.331 252.75C237.763 253.007 237.249 253.136 236.789 253.136C235.898 253.136 235.204 252.906 234.706 252.446C234.208 251.986 233.958 251.33 233.958 250.478C233.958 249.619 234.21 248.954 234.714 248.482C235.218 248.008 235.892 247.771 236.736 247.771C237.287 247.771 237.818 247.901 238.331 248.162V249.401H238.261C237.763 248.956 237.272 248.733 236.789 248.733C236.34 248.733 235.992 248.887 235.743 249.194C235.494 249.502 235.369 249.93 235.369 250.478C235.369 251.025 235.494 251.446 235.743 251.739C235.995 252.029 236.351 252.174 236.811 252.174C237.3 252.174 237.783 251.951 238.261 251.506H238.331V252.75ZM241.491 253.158C240.665 253.158 240.023 252.921 239.566 252.446C239.109 251.969 238.88 251.307 238.88 250.46C238.88 249.61 239.11 248.947 239.57 248.469C240.033 247.992 240.673 247.753 241.491 247.753C242.314 247.753 242.954 247.992 243.411 248.469C243.871 248.947 244.101 249.61 244.101 250.46C244.101 251.307 243.871 251.969 243.411 252.446C242.954 252.921 242.314 253.158 241.491 253.158ZM241.491 248.693C240.691 248.693 240.291 249.287 240.291 250.473C240.291 251.636 240.697 252.218 241.508 252.218C242.296 252.218 242.69 251.636 242.69 250.473C242.69 249.287 242.291 248.693 241.491 248.693ZM249.875 253H248.518V250.464C248.518 249.755 248.438 249.316 248.28 249.146C248.125 248.973 247.872 248.887 247.52 248.887C247.227 248.887 246.874 249.017 246.461 249.278V253H245.112V247.911H246.461V248.623C246.883 248.277 247.22 248.049 247.472 247.938C247.727 247.826 247.992 247.771 248.267 247.771C249.339 247.771 249.875 248.399 249.875 249.656V253Z" fill="white"/>
<rect x="45" y="187" width="107" height="24" rx="2" fill="#282828"/>
<path d="M53.7769 201.604V200.203H53.9263C54.2544 200.472 54.6309 200.686 55.0557 200.844C55.4834 201.002 55.8936 201.082 56.2861 201.082C56.6934 201.082 57.0215 201.008 57.2705 200.862C57.5195 200.715 57.644 200.512 57.644 200.251C57.644 200.049 57.584 199.888 57.4639 199.768C57.3467 199.647 57.1226 199.548 56.7915 199.469C56.5542 199.425 56.1484 199.338 55.5742 199.209C55.0029 199.081 54.5664 198.855 54.2646 198.533C53.9658 198.208 53.8164 197.793 53.8164 197.289C53.8164 196.688 54.0728 196.201 54.5854 195.826C55.0981 195.448 55.7573 195.259 56.563 195.259C57.3833 195.259 58.1538 195.408 58.8745 195.707V197.047H58.7295C58.1143 196.549 57.4082 196.3 56.6113 196.3C56.2334 196.3 55.9214 196.371 55.6753 196.511C55.4321 196.652 55.3105 196.844 55.3105 197.087C55.3105 197.295 55.3794 197.46 55.5171 197.583C55.6577 197.707 55.8965 197.808 56.2334 197.887C56.5703 197.948 56.9453 198.03 57.3584 198.133C57.7744 198.232 58.0835 198.345 58.2856 198.471C58.4907 198.597 58.6533 198.735 58.7734 198.884C58.8965 199.031 58.9873 199.195 59.0459 199.376C59.1074 199.558 59.1382 199.759 59.1382 199.979C59.1382 200.623 58.8745 201.142 58.3472 201.534C57.8228 201.927 57.127 202.123 56.2598 202.123C55.416 202.123 54.5884 201.95 53.7769 201.604ZM64.7148 199.667H61.1069C61.1655 200.686 61.7441 201.196 62.8428 201.196C63.417 201.196 63.9941 200.988 64.5742 200.572H64.6226V201.741C63.9341 202.004 63.2866 202.136 62.6802 202.136C61.7251 202.136 60.9971 201.909 60.4961 201.455C59.9951 201.001 59.7446 200.346 59.7446 199.491C59.7446 198.641 59.9819 197.973 60.4565 197.487C60.9312 196.998 61.5859 196.753 62.4209 196.753C63.9502 196.753 64.7148 197.566 64.7148 199.192V199.667ZM63.3657 198.902C63.354 198.026 62.998 197.588 62.2979 197.588C61.5537 197.588 61.1567 198.026 61.1069 198.902H63.3657ZM70.0278 202H68.6875V201.336C68.2744 201.691 67.939 201.912 67.6812 202C67.4263 202.091 67.1538 202.136 66.8638 202.136C66.4185 202.136 66.0493 201.993 65.7563 201.706C65.4634 201.416 65.3169 201.043 65.3169 200.589C65.3169 200.015 65.5322 199.58 65.9629 199.284C66.3965 198.988 67.3091 198.804 68.7007 198.73V198.594C68.7007 198.275 68.5908 198.043 68.3711 197.9C68.1514 197.756 67.7881 197.685 67.2812 197.685C66.9355 197.685 66.4404 197.816 65.7959 198.08H65.7476V197.012C66.4272 196.848 67.0425 196.766 67.5933 196.766C68.4517 196.766 69.0713 196.905 69.4521 197.184C69.8359 197.459 70.0278 197.898 70.0278 198.502V202ZM68.6875 200.761V199.478C67.8027 199.551 67.249 199.665 67.0264 199.82C66.8037 199.973 66.6924 200.185 66.6924 200.458C66.6924 200.748 66.77 200.95 66.9253 201.064C67.0806 201.178 67.3237 201.235 67.6548 201.235C68.0034 201.235 68.3477 201.077 68.6875 200.761ZM74.8223 198.287H74.7783C74.5967 198.24 74.3535 198.216 74.0488 198.216C73.5713 198.216 73.1318 198.292 72.7305 198.445V202H71.3813V196.911H72.7305V197.834C73.1436 197.462 73.4834 197.213 73.75 197.087C74.0166 196.958 74.2788 196.894 74.5366 196.894C74.604 196.894 74.6992 196.896 74.8223 196.902V198.287ZM79.5947 201.75C79.0264 202.007 78.5122 202.136 78.0522 202.136C77.1616 202.136 76.4673 201.906 75.9692 201.446C75.4712 200.986 75.2222 200.33 75.2222 199.478C75.2222 198.619 75.4741 197.954 75.978 197.482C76.4819 197.008 77.1558 196.771 77.9995 196.771C78.5503 196.771 79.082 196.901 79.5947 197.162V198.401H79.5244C79.0264 197.956 78.5356 197.733 78.0522 197.733C77.604 197.733 77.2554 197.887 77.0063 198.194C76.7573 198.502 76.6328 198.93 76.6328 199.478C76.6328 200.025 76.7573 200.446 77.0063 200.739C77.2583 201.029 77.6143 201.174 78.0742 201.174C78.5635 201.174 79.0469 200.951 79.5244 200.506H79.5947V201.75ZM85.2944 202H83.9365V199.464C83.9365 198.755 83.8574 198.316 83.6992 198.146C83.5439 197.973 83.2905 197.887 82.939 197.887C82.646 197.887 82.293 198.017 81.8799 198.278V202H80.5308V195.083H81.8799V197.623C82.3018 197.277 82.6387 197.049 82.8906 196.938C83.1455 196.826 83.4106 196.771 83.686 196.771C84.7583 196.771 85.2944 197.399 85.2944 198.656V202ZM92.853 202H91.0601L89.1177 199.491H88.1948V202H86.7446V195.377H89.2803C90.2002 195.377 90.8623 195.542 91.2666 195.87C91.6738 196.195 91.8774 196.637 91.8774 197.197C91.8774 198.073 91.4365 198.722 90.5547 199.144L92.853 202ZM88.186 196.419V198.48H88.8364C89.4604 198.48 89.8735 198.376 90.0757 198.168C90.2778 197.96 90.3789 197.688 90.3789 197.351C90.3789 197.052 90.2822 196.822 90.0889 196.661C89.8955 196.5 89.5146 196.419 88.9463 196.419H88.186ZM97.8145 199.667H94.2065C94.2651 200.686 94.8438 201.196 95.9424 201.196C96.5166 201.196 97.0938 200.988 97.6738 200.572H97.7222V201.741C97.0337 202.004 96.3862 202.136 95.7798 202.136C94.8247 202.136 94.0967 201.909 93.5957 201.455C93.0947 201.001 92.8442 200.346 92.8442 199.491C92.8442 198.641 93.0815 197.973 93.5562 197.487C94.0308 196.998 94.6855 196.753 95.5205 196.753C97.0498 196.753 97.8145 197.566 97.8145 199.192V199.667ZM96.4653 198.902C96.4536 198.026 96.0977 197.588 95.3975 197.588C94.6533 197.588 94.2563 198.026 94.2065 198.902H96.4653ZM98.4648 201.758V200.51H98.5176C99.124 201 99.7627 201.244 100.434 201.244C101.113 201.244 101.453 201.06 101.453 200.69C101.453 200.541 101.4 200.428 101.295 200.352C101.189 200.273 100.999 200.203 100.724 200.141C100.533 200.106 100.262 200.049 99.9106 199.97C99.5591 199.891 99.2822 199.781 99.0801 199.64C98.8809 199.5 98.7329 199.33 98.6362 199.13C98.5396 198.931 98.4912 198.701 98.4912 198.44C98.4912 197.945 98.7065 197.544 99.1372 197.236C99.5679 196.926 100.146 196.771 100.873 196.771C101.515 196.771 102.093 196.883 102.609 197.109V198.295H102.574C101.985 197.876 101.415 197.667 100.864 197.667C100.58 197.667 100.343 197.72 100.152 197.825C99.9619 197.931 99.8667 198.062 99.8667 198.221C99.8667 198.399 99.9253 198.53 100.042 198.612C100.163 198.691 100.362 198.763 100.64 198.827C100.995 198.892 101.348 198.969 101.699 199.06C102.051 199.151 102.328 199.312 102.53 199.543C102.732 199.772 102.833 200.068 102.833 200.431C102.833 200.95 102.613 201.364 102.174 201.675C101.737 201.985 101.147 202.141 100.403 202.141C99.6646 202.141 99.0186 202.013 98.4648 201.758ZM108.484 202H107.135V201.288C106.725 201.622 106.391 201.848 106.133 201.965C105.875 202.082 105.607 202.141 105.329 202.141C104.257 202.141 103.721 201.512 103.721 200.255V196.911H105.079V199.447C105.079 200.156 105.156 200.597 105.312 200.77C105.467 200.942 105.72 201.029 106.072 201.029C106.374 201.029 106.728 200.897 107.135 200.633V196.911H108.484V202ZM111.235 202H109.886V195.083H111.235V202ZM115.639 201.969C115.278 202.057 114.893 202.101 114.483 202.101C113.876 202.101 113.433 201.972 113.151 201.714C112.87 201.454 112.729 201.033 112.729 200.453V197.803H112.062V196.911H112.734V195.483H114.079V196.911H115.639V197.803H114.079V199.899C114.079 200.438 114.147 200.79 114.285 200.954C114.423 201.118 114.654 201.2 114.979 201.2C115.188 201.2 115.394 201.149 115.599 201.046H115.639V201.969ZM121.171 202H116.557V195.377H121.171V196.476H117.999V197.891H120.947V198.985H117.999V200.901H121.171V202ZM127.113 202H125.755V199.464C125.755 198.755 125.676 198.316 125.518 198.146C125.362 197.973 125.109 197.887 124.757 197.887C124.464 197.887 124.111 198.017 123.698 198.278V202H122.349V196.911H123.698V197.623C124.12 197.277 124.457 197.049 124.709 196.938C124.964 196.826 125.229 196.771 125.504 196.771C126.577 196.771 127.113 197.399 127.113 198.656V202ZM131.477 201.969C131.116 202.057 130.731 202.101 130.321 202.101C129.714 202.101 129.271 201.972 128.989 201.714C128.708 201.454 128.567 201.033 128.567 200.453V197.803H127.899V196.911H128.572V195.483H129.917V196.911H131.477V197.803H129.917V199.899C129.917 200.438 129.985 200.79 130.123 200.954C130.261 201.118 130.492 201.2 130.817 201.2C131.025 201.2 131.232 201.149 131.437 201.046H131.477V201.969ZM133.705 196.274H132.259V195.083H133.705V196.274ZM133.656 202H132.307V196.911H133.656V202ZM138.06 201.969C137.699 202.057 137.314 202.101 136.904 202.101C136.297 202.101 135.854 201.972 135.572 201.714C135.291 201.454 135.15 201.033 135.15 200.453V197.803H134.482V196.911H135.155V195.483H136.5V196.911H138.06V197.803H136.5V199.899C136.5 200.438 136.568 200.79 136.706 200.954C136.844 201.118 137.075 201.2 137.4 201.2C137.608 201.2 137.815 201.149 138.02 201.046H138.06V201.969ZM143.614 196.911L140.824 203.833H139.4L140.173 202.009L138.183 196.911H139.646L140.929 200.545L142.226 196.911H143.614Z" fill="white"/>
<rect x="311" y="238" width="70" height="24" rx="2" fill="#282828"/>
<path d="M324.752 253H320.138V246.377H324.752V247.476H321.58V248.891H324.528V249.985H321.58V251.901H324.752V253ZM330.694 253H329.336V250.464C329.336 249.755 329.257 249.316 329.099 249.146C328.943 248.973 328.69 248.887 328.338 248.887C328.045 248.887 327.692 249.017 327.279 249.278V253H325.93V247.911H327.279V248.623C327.701 248.277 328.038 248.049 328.29 247.938C328.545 247.826 328.81 247.771 329.085 247.771C330.158 247.771 330.694 248.399 330.694 249.656V253ZM335.058 252.969C334.697 253.057 334.312 253.101 333.902 253.101C333.295 253.101 332.852 252.972 332.57 252.714C332.289 252.454 332.148 252.033 332.148 251.453V248.803H331.48V247.911H332.153V246.483H333.498V247.911H335.058V248.803H333.498V250.899C333.498 251.438 333.566 251.79 333.704 251.954C333.842 252.118 334.073 252.2 334.398 252.2C334.606 252.2 334.813 252.149 335.018 252.046H335.058V252.969ZM337.286 247.274H335.84V246.083H337.286V247.274ZM337.237 253H335.888V247.911H337.237V253ZM341.641 252.969C341.28 253.057 340.895 253.101 340.485 253.101C339.878 253.101 339.435 252.972 339.153 252.714C338.872 252.454 338.731 252.033 338.731 251.453V248.803H338.063V247.911H338.736V246.483H340.081V247.911H341.641V248.803H340.081V250.899C340.081 251.438 340.149 251.79 340.287 251.954C340.425 252.118 340.656 252.2 340.981 252.2C341.189 252.2 341.396 252.149 341.601 252.046H341.641V252.969ZM347.195 247.911L344.405 254.833H342.981L343.754 253.009L341.764 247.911H343.227L344.51 251.545L345.807 247.911H347.195ZM352.605 253H348.008V246.377H349.458V251.901H352.605V253ZM357.667 253H356.327V252.336C355.914 252.691 355.579 252.912 355.321 253C355.066 253.091 354.793 253.136 354.503 253.136C354.058 253.136 353.689 252.993 353.396 252.706C353.103 252.416 352.957 252.043 352.957 251.589C352.957 251.015 353.172 250.58 353.603 250.284C354.036 249.988 354.949 249.804 356.34 249.73V249.594C356.34 249.275 356.23 249.043 356.011 248.9C355.791 248.756 355.428 248.685 354.921 248.685C354.575 248.685 354.08 248.816 353.436 249.08H353.387V248.012C354.067 247.848 354.682 247.766 355.233 247.766C356.091 247.766 356.711 247.905 357.092 248.184C357.476 248.459 357.667 248.898 357.667 249.502V253ZM356.327 251.761V250.478C355.442 250.551 354.889 250.665 354.666 250.82C354.443 250.973 354.332 251.185 354.332 251.458C354.332 251.748 354.41 251.95 354.565 252.064C354.72 252.178 354.963 252.235 355.294 252.235C355.643 252.235 355.987 252.077 356.327 251.761ZM360.375 252.64L360.287 253H359.021V246.083H360.37V248.592C360.763 248.261 361.082 248.042 361.328 247.933C361.577 247.825 361.839 247.771 362.115 247.771C362.712 247.771 363.174 248 363.499 248.46C363.827 248.92 363.991 249.566 363.991 250.398C363.991 251.213 363.783 251.874 363.367 252.38C362.951 252.887 362.433 253.141 361.812 253.141C361.366 253.141 360.887 252.974 360.375 252.64ZM360.37 249.172V251.994C360.669 252.105 360.943 252.161 361.192 252.161C362.126 252.161 362.594 251.585 362.594 250.434C362.594 249.353 362.203 248.812 361.42 248.812C361.101 248.812 360.751 248.932 360.37 249.172ZM369.599 250.667H365.991C366.049 251.686 366.628 252.196 367.727 252.196C368.301 252.196 368.878 251.988 369.458 251.572H369.506V252.741C368.818 253.004 368.17 253.136 367.564 253.136C366.609 253.136 365.881 252.909 365.38 252.455C364.879 252.001 364.628 251.346 364.628 250.491C364.628 249.641 364.866 248.973 365.34 248.487C365.815 247.998 366.47 247.753 367.305 247.753C368.834 247.753 369.599 248.566 369.599 250.192V250.667ZM368.25 249.902C368.238 249.026 367.882 248.588 367.182 248.588C366.438 248.588 366.041 249.026 365.991 249.902H368.25ZM371.945 253H370.596V246.083H371.945V253Z" fill="white"/>
<line x1="334" y1="242.013" x2="334" y2="204" stroke="#282828" stroke-width="2"/>
<line y1="-1" x2="19" y2="-1" transform="matrix(-1 0 0 1 170 152)" stroke="#282828" stroke-width="2"/>
<line y1="-1" x2="19" y2="-1" transform="matrix(-1 0 0 1 189 74)" stroke="#282828" stroke-width="2"/>
<line y1="-1" x2="156" y2="-1" transform="matrix(-6.47732e-08 -1 -1 2.94981e-08 170 230)" stroke="#282828" stroke-width="2"/>
<line y1="-1" x2="19" y2="-1" transform="matrix(-1 0 0 1 189 230)" stroke="#282828" stroke-width="2"/>
<line x1="180" y1="200.479" x2="151" y2="200.479" stroke="#282828" stroke-width="2"/>
<line y1="-1" x2="9.5" y2="-1" transform="matrix(-1 0 0 1 189 176)" stroke="#282828" stroke-width="2"/>
<line y1="-1" x2="49" y2="-1" transform="matrix(-1.03108e-07 -1 -1 1.85309e-08 179.5 225)" stroke="#282828" stroke-width="2"/>
<line y1="-1" x2="9.5" y2="-1" transform="matrix(-1 0 0 1 189 225)" stroke="#282828" stroke-width="2"/>
<rect x="15" y="139" width="137" height="24" rx="2" fill="#282828"/>
<path d="M23.8179 153.604V152.203H23.9673C24.2954 152.472 24.6719 152.686 25.0967 152.844C25.5244 153.002 25.9346 153.082 26.3271 153.082C26.7344 153.082 27.0625 153.008 27.3115 152.862C27.5605 152.715 27.6851 152.512 27.6851 152.251C27.6851 152.049 27.625 151.888 27.5049 151.768C27.3877 151.647 27.1636 151.548 26.8325 151.469C26.5952 151.425 26.1895 151.338 25.6152 151.209C25.0439 151.081 24.6074 150.855 24.3057 150.533C24.0068 150.208 23.8574 149.793 23.8574 149.289C23.8574 148.688 24.1138 148.201 24.6265 147.826C25.1392 147.448 25.7983 147.259 26.604 147.259C27.4243 147.259 28.1948 147.408 28.9155 147.707V149.047H28.7705C28.1553 148.549 27.4492 148.3 26.6523 148.3C26.2744 148.3 25.9624 148.371 25.7163 148.511C25.4731 148.652 25.3516 148.844 25.3516 149.087C25.3516 149.295 25.4204 149.46 25.5581 149.583C25.6987 149.707 25.9375 149.808 26.2744 149.887C26.6113 149.948 26.9863 150.03 27.3994 150.133C27.8154 150.232 28.1245 150.345 28.3267 150.471C28.5317 150.597 28.6943 150.735 28.8145 150.884C28.9375 151.031 29.0283 151.195 29.0869 151.376C29.1484 151.558 29.1792 151.759 29.1792 151.979C29.1792 152.623 28.9155 153.142 28.3882 153.534C27.8638 153.927 27.168 154.123 26.3008 154.123C25.457 154.123 24.6294 153.95 23.8179 153.604ZM34.7559 151.667H31.1479C31.2065 152.686 31.7852 153.196 32.8838 153.196C33.458 153.196 34.0352 152.988 34.6152 152.572H34.6636V153.741C33.9751 154.004 33.3276 154.136 32.7212 154.136C31.7661 154.136 31.0381 153.909 30.5371 153.455C30.0361 153.001 29.7856 152.346 29.7856 151.491C29.7856 150.641 30.0229 149.973 30.4976 149.487C30.9722 148.998 31.627 148.753 32.4619 148.753C33.9912 148.753 34.7559 149.566 34.7559 151.192V151.667ZM33.4067 150.902C33.395 150.026 33.0391 149.588 32.3389 149.588C31.5947 149.588 31.1978 150.026 31.1479 150.902H33.4067ZM40.0688 154H38.7285V153.336C38.3154 153.691 37.98 153.912 37.7222 154C37.4673 154.091 37.1948 154.136 36.9048 154.136C36.4595 154.136 36.0903 153.993 35.7974 153.706C35.5044 153.416 35.3579 153.043 35.3579 152.589C35.3579 152.015 35.5732 151.58 36.0039 151.284C36.4375 150.988 37.3501 150.804 38.7417 150.73V150.594C38.7417 150.275 38.6318 150.043 38.4121 149.9C38.1924 149.756 37.8291 149.685 37.3223 149.685C36.9766 149.685 36.4814 149.816 35.8369 150.08H35.7886V149.012C36.4683 148.848 37.0835 148.766 37.6343 148.766C38.4927 148.766 39.1123 148.905 39.4932 149.184C39.877 149.459 40.0688 149.898 40.0688 150.502V154ZM38.7285 152.761V151.478C37.8438 151.551 37.29 151.665 37.0674 151.82C36.8447 151.973 36.7334 152.185 36.7334 152.458C36.7334 152.748 36.811 152.95 36.9663 153.064C37.1216 153.178 37.3647 153.235 37.6958 153.235C38.0444 153.235 38.3887 153.077 38.7285 152.761ZM44.8633 150.287H44.8193C44.6377 150.24 44.3945 150.216 44.0898 150.216C43.6123 150.216 43.1729 150.292 42.7715 150.445V154H41.4224V148.911H42.7715V149.834C43.1846 149.462 43.5244 149.213 43.791 149.087C44.0576 148.958 44.3198 148.894 44.5776 148.894C44.645 148.894 44.7402 148.896 44.8633 148.902V150.287ZM49.6357 153.75C49.0674 154.007 48.5532 154.136 48.0933 154.136C47.2026 154.136 46.5083 153.906 46.0103 153.446C45.5122 152.986 45.2632 152.33 45.2632 151.478C45.2632 150.619 45.5151 149.954 46.019 149.482C46.5229 149.008 47.1968 148.771 48.0405 148.771C48.5913 148.771 49.123 148.901 49.6357 149.162V150.401H49.5654C49.0674 149.956 48.5767 149.733 48.0933 149.733C47.645 149.733 47.2964 149.887 47.0474 150.194C46.7983 150.502 46.6738 150.93 46.6738 151.478C46.6738 152.025 46.7983 152.446 47.0474 152.739C47.2993 153.029 47.6553 153.174 48.1152 153.174C48.6045 153.174 49.0879 152.951 49.5654 152.506H49.6357V153.75ZM55.3354 154H53.9775V151.464C53.9775 150.755 53.8984 150.316 53.7402 150.146C53.585 149.973 53.3315 149.887 52.98 149.887C52.687 149.887 52.334 150.017 51.9209 150.278V154H50.5718V147.083H51.9209V149.623C52.3428 149.277 52.6797 149.049 52.9316 148.938C53.1865 148.826 53.4517 148.771 53.7271 148.771C54.7993 148.771 55.3354 149.399 55.3354 150.656V154ZM62.894 154H61.1011L59.1587 151.491H58.2358V154H56.7856V147.377H59.3213C60.2412 147.377 60.9033 147.542 61.3076 147.87C61.7148 148.195 61.9185 148.637 61.9185 149.197C61.9185 150.073 61.4775 150.722 60.5957 151.144L62.894 154ZM58.2271 148.419V150.48H58.8774C59.5015 150.48 59.9146 150.376 60.1167 150.168C60.3188 149.96 60.4199 149.688 60.4199 149.351C60.4199 149.052 60.3232 148.822 60.1299 148.661C59.9365 148.5 59.5557 148.419 58.9873 148.419H58.2271ZM67.8555 151.667H64.2476C64.3062 152.686 64.8848 153.196 65.9834 153.196C66.5576 153.196 67.1348 152.988 67.7148 152.572H67.7632V153.741C67.0747 154.004 66.4272 154.136 65.8208 154.136C64.8657 154.136 64.1377 153.909 63.6367 153.455C63.1357 153.001 62.8853 152.346 62.8853 151.491C62.8853 150.641 63.1226 149.973 63.5972 149.487C64.0718 148.998 64.7266 148.753 65.5615 148.753C67.0908 148.753 67.8555 149.566 67.8555 151.192V151.667ZM66.5063 150.902C66.4946 150.026 66.1387 149.588 65.4385 149.588C64.6943 149.588 64.2974 150.026 64.2476 150.902H66.5063ZM68.5059 153.758V152.51H68.5586C69.165 153 69.8037 153.244 70.4746 153.244C71.1543 153.244 71.4941 153.06 71.4941 152.69C71.4941 152.541 71.4414 152.428 71.3359 152.352C71.2305 152.273 71.04 152.203 70.7646 152.141C70.5742 152.106 70.3032 152.049 69.9517 151.97C69.6001 151.891 69.3232 151.781 69.1211 151.64C68.9219 151.5 68.7739 151.33 68.6772 151.13C68.5806 150.931 68.5322 150.701 68.5322 150.44C68.5322 149.945 68.7476 149.544 69.1782 149.236C69.6089 148.926 70.1875 148.771 70.9141 148.771C71.5557 148.771 72.1343 148.883 72.6499 149.109V150.295H72.6147C72.0259 149.876 71.4561 149.667 70.9053 149.667C70.6211 149.667 70.3838 149.72 70.1934 149.825C70.0029 149.931 69.9077 150.062 69.9077 150.221C69.9077 150.399 69.9663 150.53 70.0835 150.612C70.2036 150.691 70.4028 150.763 70.6812 150.827C71.0356 150.892 71.3887 150.969 71.7402 151.06C72.0918 151.151 72.3687 151.312 72.5708 151.543C72.7729 151.772 72.874 152.068 72.874 152.431C72.874 152.95 72.6543 153.364 72.2148 153.675C71.7783 153.985 71.188 154.141 70.4438 154.141C69.7056 154.141 69.0596 154.013 68.5059 153.758ZM78.5254 154H77.1763V153.288C76.7661 153.622 76.4321 153.848 76.1743 153.965C75.9165 154.082 75.6484 154.141 75.3701 154.141C74.2979 154.141 73.7617 153.512 73.7617 152.255V148.911H75.1196V151.447C75.1196 152.156 75.1973 152.597 75.3525 152.77C75.5078 152.942 75.7612 153.029 76.1128 153.029C76.4146 153.029 76.769 152.897 77.1763 152.633V148.911H78.5254V154ZM81.2764 154H79.9272V147.083H81.2764V154ZM85.6797 153.969C85.3193 154.057 84.9341 154.101 84.5239 154.101C83.9175 154.101 83.4736 153.972 83.1924 153.714C82.9111 153.454 82.7705 153.033 82.7705 152.453V149.803H82.1025V148.911H82.7749V147.483H84.1196V148.911H85.6797V149.803H84.1196V151.899C84.1196 152.438 84.1885 152.79 84.3262 152.954C84.4639 153.118 84.6953 153.2 85.0205 153.2C85.2285 153.2 85.4351 153.149 85.6401 153.046H85.6797V153.969ZM91.2124 154H86.5981V147.377H91.2124V148.476H88.0396V149.891H90.9883V150.985H88.0396V152.901H91.2124V154ZM97.1538 154H95.7959V151.464C95.7959 150.755 95.7168 150.316 95.5586 150.146C95.4033 149.973 95.1499 149.887 94.7983 149.887C94.5054 149.887 94.1523 150.017 93.7393 150.278V154H92.3901V148.911H93.7393V149.623C94.1611 149.277 94.498 149.049 94.75 148.938C95.0049 148.826 95.27 148.771 95.5454 148.771C96.6177 148.771 97.1538 149.399 97.1538 150.656V154ZM101.518 153.969C101.157 154.057 100.772 154.101 100.362 154.101C99.7554 154.101 99.3115 153.972 99.0303 153.714C98.749 153.454 98.6084 153.033 98.6084 152.453V149.803H97.9404V148.911H98.6128V147.483H99.9575V148.911H101.518V149.803H99.9575V151.899C99.9575 152.438 100.026 152.79 100.164 152.954C100.302 153.118 100.533 153.2 100.858 153.2C101.066 153.2 101.273 153.149 101.478 153.046H101.518V153.969ZM103.746 148.274H102.3V147.083H103.746V148.274ZM103.697 154H102.348V148.911H103.697V154ZM108.101 153.969C107.74 154.057 107.355 154.101 106.945 154.101C106.338 154.101 105.895 153.972 105.613 153.714C105.332 153.454 105.191 153.033 105.191 152.453V149.803H104.523V148.911H105.196V147.483H106.541V148.911H108.101V149.803H106.541V151.899C106.541 152.438 106.609 152.79 106.747 152.954C106.885 153.118 107.116 153.2 107.441 153.2C107.649 153.2 107.856 153.149 108.061 153.046H108.101V153.969ZM113.655 148.911L110.865 155.833H109.441L110.214 154.009L108.224 148.911H109.687L110.97 152.545L112.267 148.911H113.655ZM115.918 151.746V154H114.468V147.377H116.973C117.832 147.377 118.483 147.553 118.929 147.905C119.374 148.253 119.597 148.765 119.597 149.438C119.597 150.142 119.351 150.703 118.858 151.122C118.366 151.538 117.725 151.746 116.934 151.746H115.918ZM115.91 148.419V150.695H116.296C117.023 150.695 117.503 150.596 117.738 150.396C117.975 150.194 118.094 149.885 118.094 149.469C118.094 149.126 117.979 148.866 117.751 148.687C117.525 148.508 117.077 148.419 116.406 148.419H115.91ZM122.563 154.158C121.737 154.158 121.095 153.921 120.638 153.446C120.181 152.969 119.953 152.307 119.953 151.46C119.953 150.61 120.183 149.947 120.643 149.469C121.105 148.992 121.746 148.753 122.563 148.753C123.386 148.753 124.026 148.992 124.483 149.469C124.943 149.947 125.173 150.61 125.173 151.46C125.173 152.307 124.943 152.969 124.483 153.446C124.026 153.921 123.386 154.158 122.563 154.158ZM122.563 149.693C121.763 149.693 121.363 150.287 121.363 151.473C121.363 152.636 121.769 153.218 122.581 153.218C123.369 153.218 123.763 152.636 123.763 151.473C123.763 150.287 123.363 149.693 122.563 149.693ZM127.533 153.64V155.833H126.184V148.911H127.533V149.592C127.926 149.261 128.245 149.042 128.491 148.933C128.74 148.825 129.002 148.771 129.278 148.771C129.873 148.771 130.334 148.999 130.662 149.456C130.99 149.913 131.154 150.552 131.154 151.372C131.154 152.178 130.946 152.831 130.53 153.332C130.114 153.83 129.596 154.079 128.975 154.079C128.541 154.079 128.061 153.933 127.533 153.64ZM127.533 150.172V152.976C127.773 153.076 128.047 153.125 128.355 153.125C129.29 153.125 129.757 152.559 129.757 151.425C129.757 150.35 129.366 149.812 128.583 149.812C128.264 149.812 127.914 149.932 127.533 150.172ZM136.902 154H135.553V153.288C135.143 153.622 134.809 153.848 134.551 153.965C134.293 154.082 134.025 154.141 133.747 154.141C132.675 154.141 132.139 153.512 132.139 152.255V148.911H133.497V151.447C133.497 152.156 133.574 152.597 133.729 152.77C133.885 152.942 134.138 153.029 134.49 153.029C134.792 153.029 135.146 152.897 135.553 152.633V148.911H136.902V154ZM139.653 153.64V155.833H138.304V148.911H139.653V149.592C140.046 149.261 140.365 149.042 140.611 148.933C140.86 148.825 141.123 148.771 141.398 148.771C141.993 148.771 142.454 148.999 142.782 149.456C143.11 149.913 143.274 150.552 143.274 151.372C143.274 152.178 143.066 152.831 142.65 153.332C142.234 153.83 141.716 154.079 141.095 154.079C140.661 154.079 140.181 153.933 139.653 153.64ZM139.653 150.172V152.976C139.894 153.076 140.167 153.125 140.475 153.125C141.41 153.125 141.877 152.559 141.877 151.425C141.877 150.35 141.486 149.812 140.704 149.812C140.384 149.812 140.034 149.932 139.653 150.172Z" fill="white"/>
<defs>
<filter id="filter0_d_816_1518" x="181" y="72" width="298" height="69" filterUnits="userSpaceOnUse" color-interpolation-filters="sRGB">
<feFlood flood-opacity="0" result="BackgroundImageFix"/>
<feColorMatrix in="SourceAlpha" type="matrix" values="0 0 0 0 0 0 0 0 0 0 0 0 0 0 0 0 0 0 127 0" result="hardAlpha"/>
<feOffset dy="5"/>
<feGaussianBlur stdDeviation="5"/>
<feComposite in2="hardAlpha" operator="out"/>
<feColorMatrix type="matrix" values="0 0 0 0 0.890196 0 0 0 0 0.905882 0 0 0 0 0.909804 0 0 0 1 0"/>
<feBlend mode="normal" in2="BackgroundImageFix" result="effect1_dropShadow_816_1518"/>
<feBlend mode="normal" in="SourceGraphic" in2="effect1_dropShadow_816_1518" result="shape"/>
</filter>
<filter id="filter1_d_816_1518" x="181" y="121" width="298" height="69" filterUnits="userSpaceOnUse" color-interpolation-filters="sRGB">
<feFlood flood-opacity="0" result="BackgroundImageFix"/>
<feColorMatrix in="SourceAlpha" type="matrix" values="0 0 0 0 0 0 0 0 0 0 0 0 0 0 0 0 0 0 127 0" result="hardAlpha"/>
<feOffset dy="5"/>
<feGaussianBlur stdDeviation="5"/>
<feComposite in2="hardAlpha" operator="out"/>
<feColorMatrix type="matrix" values="0 0 0 0 0.890196 0 0 0 0 0.905882 0 0 0 0 0.909804 0 0 0 1 0"/>
<feBlend mode="normal" in2="BackgroundImageFix" result="effect1_dropShadow_816_1518"/>
<feBlend mode="normal" in="SourceGraphic" in2="effect1_dropShadow_816_1518" result="shape"/>
</filter>
<filter id="filter2_d_816_1518" x="181" y="170" width="298" height="69" filterUnits="userSpaceOnUse" color-interpolation-filters="sRGB">
<feFlood flood-opacity="0" result="BackgroundImageFix"/>
<feColorMatrix in="SourceAlpha" type="matrix" values="0 0 0 0 0 0 0 0 0 0 0 0 0 0 0 0 0 0 127 0" result="hardAlpha"/>
<feOffset dy="5"/>
<feGaussianBlur stdDeviation="5"/>
<feComposite in2="hardAlpha" operator="out"/>
<feColorMatrix type="matrix" values="0 0 0 0 0.890196 0 0 0 0 0.905882 0 0 0 0 0.909804 0 0 0 1 0"/>
<feBlend mode="normal" in2="BackgroundImageFix" result="effect1_dropShadow_816_1518"/>
<feBlend mode="normal" in="SourceGraphic" in2="effect1_dropShadow_816_1518" result="shape"/>
</filter>
<filter id="filter3_ii_816_1518" x="188" y="42" width="252" height="36" filterUnits="userSpaceOnUse" color-interpolation-filters="sRGB">
<feFlood flood-opacity="0" result="BackgroundImageFix"/>
<feBlend mode="normal" in="SourceGraphic" in2="BackgroundImageFix" result="shape"/>
<feColorMatrix in="SourceAlpha" type="matrix" values="0 0 0 0 0 0 0 0 0 0 0 0 0 0 0 0 0 0 127 0" result="hardAlpha"/>
<feOffset dx="2" dy="2"/>
<feGaussianBlur stdDeviation="2"/>
<feComposite in2="hardAlpha" operator="arithmetic" k2="-1" k3="1"/>
<feColorMatrix type="matrix" values="0 0 0 0 0.960784 0 0 0 0 0.960784 0 0 0 0 0.960784 0 0 0 1 0"/>
<feBlend mode="darken" in2="shape" result="effect1_innerShadow_816_1518"/>
<feColorMatrix in="SourceAlpha" type="matrix" values="0 0 0 0 0 0 0 0 0 0 0 0 0 0 0 0 0 0 127 0" result="hardAlpha"/>
<feOffset dx="-2" dy="-2"/>
<feGaussianBlur stdDeviation="2"/>
<feComposite in2="hardAlpha" operator="arithmetic" k2="-1" k3="1"/>
<feColorMatrix type="matrix" values="0 0 0 0 0.960784 0 0 0 0 0.960784 0 0 0 0 0.960784 0 0 0 1 0"/>
<feBlend mode="darken" in2="effect1_innerShadow_816_1518" result="effect2_innerShadow_816_1518"/>
</filter>
<clipPath id="clip0_816_1518">
<rect width="48" height="48" fill="white" transform="translate(191 77)"/>
</clipPath>
<clipPath id="clip1_816_1518">
<rect width="48" height="48" fill="white" transform="translate(191 126)"/>
</clipPath>
<clipPath id="clip2_816_1518">
<rect width="48" height="48" fill="white" transform="translate(191 175)"/>
</clipPath>
<clipPath id="clip3_816_1518">
<rect width="248" height="32" fill="white" transform="translate(190 44)"/>
</clipPath>
</defs>
</svg>
