<svg width="568" height="218" viewBox="0 0 568 218" fill="none" xmlns="http://www.w3.org/2000/svg">
<rect width="568" height="218" fill="white"/>
<g clip-path="url(#clip0_903_1689)">
<g filter="url(#filter0_ii_903_1689)">
<rect x="189" y="26" width="248" height="32" fill="white"/>
<path d="M201.423 46.6846C200.265 46.6846 199.051 46.3975 197.779 45.8232V44.2715H197.868C198.916 45.1647 200.106 45.6113 201.437 45.6113C202.257 45.6113 202.899 45.445 203.364 45.1123C203.834 44.7751 204.068 44.3285 204.068 43.7725C204.068 43.3441 203.968 43.0091 203.768 42.7676C203.572 42.5215 203.228 42.3301 202.735 42.1934L200.438 41.7285C199.586 41.5508 198.939 41.2295 198.497 40.7646C198.06 40.2952 197.841 39.6868 197.841 38.9395C197.841 38.0918 198.183 37.3923 198.866 36.8408C199.55 36.2894 200.441 36.0137 201.539 36.0137C202.688 36.0137 203.836 36.2666 204.984 36.7725V38.2695H204.889C203.941 37.4811 202.824 37.0869 201.539 37.0869C200.828 37.0869 200.254 37.2441 199.816 37.5586C199.383 37.873 199.167 38.2855 199.167 38.7959C199.167 39.6481 199.664 40.1973 200.657 40.4434C201.231 40.5482 201.869 40.6803 202.571 40.8398C203.278 40.9948 203.781 41.1589 204.082 41.332C204.387 41.5007 204.633 41.6943 204.82 41.9131C205.012 42.1318 205.153 42.3802 205.244 42.6582C205.34 42.9362 205.388 43.2438 205.388 43.5811C205.388 44.4743 205.025 45.2148 204.301 45.8027C203.576 46.3906 202.617 46.6846 201.423 46.6846ZM211.711 44.6611V42.4189C210.011 42.4964 208.917 42.6855 208.43 42.9863C207.947 43.2826 207.705 43.6927 207.705 44.2168C207.705 45.1419 208.266 45.6045 209.387 45.6045C210.148 45.6045 210.923 45.29 211.711 44.6611ZM211.711 46.5V45.6387C211.068 46.1035 210.54 46.3975 210.125 46.5205C209.71 46.6481 209.289 46.7119 208.86 46.7119C208.172 46.7119 207.6 46.484 207.145 46.0283C206.689 45.5726 206.461 44.9938 206.461 44.292C206.461 43.3942 206.798 42.7197 207.473 42.2686C208.152 41.8128 209.564 41.5417 211.711 41.4551V41.2227C211.711 40.6849 211.551 40.2884 211.232 40.0332C210.913 39.7734 210.353 39.6436 209.551 39.6436C208.844 39.6436 208.058 39.8258 207.192 40.1904H207.138V38.9395C207.99 38.707 208.81 38.5908 209.599 38.5908C210.743 38.5908 211.579 38.805 212.107 39.2334C212.641 39.6572 212.907 40.318 212.907 41.2158V46.5H211.711ZM225.13 46.5V42.1729C225.13 41.3389 225.071 40.7829 224.952 40.5049C224.838 40.2223 224.66 40.0173 224.419 39.8896C224.182 39.7575 223.881 39.6914 223.517 39.6914C222.892 39.6914 222.156 40.0355 221.309 40.7236C221.336 40.9606 221.35 41.2637 221.35 41.6328V46.5H220.146V42.1729C220.146 41.3161 220.087 40.7533 219.969 40.4844C219.855 40.2109 219.679 40.0104 219.442 39.8828C219.21 39.7552 218.914 39.6914 218.554 39.6914C217.902 39.6914 217.175 40.0241 216.373 40.6895V46.5H215.17V38.7754H216.373V39.7051C217.289 38.9395 218.155 38.5566 218.971 38.5566C220.023 38.5566 220.734 38.9782 221.104 39.8213C222.097 38.9782 223.04 38.5566 223.934 38.5566C225.533 38.5566 226.333 39.5273 226.333 41.4688V46.5H225.13ZM229.812 46.0557V49.3506H228.609V38.7754H229.812V39.6299C230.692 38.9144 231.547 38.5566 232.376 38.5566C233.287 38.5566 234.012 38.9121 234.55 39.623C235.088 40.3294 235.356 41.3024 235.356 42.542C235.356 43.7588 235.031 44.7477 234.379 45.5088C233.727 46.2699 232.921 46.6504 231.959 46.6504C231.225 46.6504 230.51 46.4521 229.812 46.0557ZM229.812 40.6074V45.1191C230.496 45.4245 231.13 45.5771 231.713 45.5771C232.465 45.5771 233.053 45.3174 233.477 44.7979C233.9 44.2738 234.112 43.5355 234.112 42.583C234.112 40.6553 233.417 39.6914 232.027 39.6914C231.289 39.6914 230.551 39.9967 229.812 40.6074ZM238.344 46.5H237.141V35.7402H238.344V46.5ZM241.345 41.8379H245.877C245.84 40.3021 245.136 39.5342 243.765 39.5342C243.072 39.5342 242.511 39.7393 242.083 40.1494C241.655 40.5596 241.409 41.1224 241.345 41.8379ZM244.168 46.6777C242.883 46.6777 241.885 46.3314 241.174 45.6387C240.467 44.9414 240.114 43.957 240.114 42.6855C240.114 41.4232 240.454 40.4206 241.133 39.6777C241.812 38.9303 242.712 38.5566 243.833 38.5566C244.854 38.5566 245.645 38.862 246.205 39.4727C246.77 40.0833 247.053 40.9538 247.053 42.084V42.7471H241.345C241.345 43.6768 241.595 44.3923 242.097 44.8936C242.603 45.3903 243.3 45.6387 244.188 45.6387C245.073 45.6387 245.957 45.3311 246.841 44.7158H246.896V46.0215C245.797 46.459 244.888 46.6777 244.168 46.6777ZM256.172 46.5V37.3057H252.515V36.1982H261.101V37.3057H257.443V46.5H256.172ZM261.579 41.8379H266.111C266.075 40.3021 265.371 39.5342 263.999 39.5342C263.306 39.5342 262.746 39.7393 262.317 40.1494C261.889 40.5596 261.643 41.1224 261.579 41.8379ZM264.402 46.6777C263.117 46.6777 262.119 46.3314 261.408 45.6387C260.702 44.9414 260.349 43.957 260.349 42.6855C260.349 41.4232 260.688 40.4206 261.367 39.6777C262.046 38.9303 262.946 38.5566 264.067 38.5566C265.088 38.5566 265.879 38.862 266.439 39.4727C267.005 40.0833 267.287 40.9538 267.287 42.084V42.7471H261.579C261.579 43.6768 261.83 44.3923 262.331 44.8936C262.837 45.3903 263.534 45.6387 264.423 45.6387C265.307 45.6387 266.191 45.3311 267.075 44.7158H267.13V46.0215C266.032 46.459 265.122 46.6777 264.402 46.6777ZM275.333 46.5H273.877L271.696 43.499L269.461 46.5H268.114L271.054 42.665L268.142 38.7754H269.598L271.765 41.7559L273.979 38.7754H275.333L272.407 42.5898L275.333 46.5ZM279.216 46.6504C277.621 46.6504 276.823 45.7731 276.823 44.0186V39.7598H275.941V38.7754H276.83V36.5537H278.026V38.7754H280.733V39.7598H278.026V43.335C278.026 44.1462 278.081 44.6725 278.19 44.9141C278.304 45.151 278.475 45.3265 278.703 45.4404C278.931 45.5498 279.223 45.6045 279.578 45.6045C279.915 45.6045 280.287 45.5225 280.692 45.3584H280.733V46.4521C280.191 46.5843 279.685 46.6504 279.216 46.6504Z" fill="#333333"/>
<rect x="189.5" y="26.5" width="247" height="31" stroke="#E3E7E8"/>
</g>
</g>
<rect x="437.5" y="26.5" width="31" height="31" fill="#EEEEEE"/>
<path fill-rule="evenodd" clip-rule="evenodd" d="M456.103 46.5175C452.57 49.3477 447.397 49.1249 444.121 45.8492C440.607 42.3345 440.607 36.636 444.121 33.1213C447.636 29.6066 453.335 29.6066 456.849 33.1213C459.878 36.15 460.297 40.8002 458.106 44.2773L464.627 50.799L462.506 52.9203L456.103 46.5175ZM454.728 35.2426C457.071 37.5858 457.071 41.3848 454.728 43.7279C452.385 46.0711 448.586 46.0711 446.243 43.7279C443.9 41.3848 443.9 37.5858 446.243 35.2426C448.586 32.8995 452.385 32.8995 454.728 35.2426Z" fill="#888888"/>
<rect x="437.5" y="26.5" width="31" height="31" stroke="#E3E7E8"/>
<rect x="477.5" y="26.5" width="31" height="31" fill="#3498DB" stroke="#E3E7E8"/>
<path fill-rule="evenodd" clip-rule="evenodd" d="M501.636 49.6009C501.488 49.2984 500.271 48.5793 498.162 47.7753C498.047 47.7411 497.935 47.6966 497.828 47.6424C496.99 47.3652 496.168 47.0441 495.365 46.6803L495.252 46.6174C494.72 46.2627 494.601 45.5627 494.601 44.2348C494.619 43.6465 494.828 43.0806 495.195 42.6226C495.498 42.1239 495.687 41.5632 495.755 40.9327C495.822 40.5472 495.962 40.1783 496.138 39.9003C496.295 39.5985 496.404 39.2738 496.459 38.9382L496.488 38.8202C496.525 38.7062 496.525 38.5833 496.491 38.4777C496.422 38.2748 496.37 38.0664 496.335 37.8549L496.316 37.7412L496.331 37.6269C496.408 37.0067 496.47 36.4977 496.525 36.0647C496.537 35.3577 496.273 34.6738 495.784 34.1536C495.082 33.3931 494.068 32.9985 493.037 33.0837L492.903 33.0835C491.873 32.9952 490.859 33.3869 490.15 34.1522C489.664 34.6633 489.401 35.3459 489.412 35.9764C489.437 36.1917 489.461 36.4047 489.507 36.8173C489.545 37.1546 489.573 37.3873 489.601 37.6173L489.614 37.7194L489.6 37.8215C489.57 38.0502 489.514 38.2748 489.448 38.4467C489.41 38.5695 489.41 38.701 489.448 38.8238L489.471 38.9157C489.533 39.2552 489.649 39.5826 489.819 39.8934C489.998 40.231 490.112 40.5996 490.155 40.9812C490.219 41.5608 490.409 42.1191 490.713 42.6162C491.089 43.0703 491.306 43.6365 491.331 44.2583V44.5091C491.391 45.087 491.299 45.671 491.062 46.2022L490.973 46.4009L490.796 46.5271C490.308 46.8749 489.76 47.1297 489.241 47.2602L487.824 47.7478C485.561 48.5993 484.331 49.3431 484.289 49.5391C484.247 49.9051 484.219 50.2724 484.205 50.6404H501.701L501.636 49.6009ZM498.39 46.1474L498.532 46.2098C498.559 46.2248 498.587 46.2367 498.673 46.2644C501.5 47.339 502.964 48.226 503.205 49.2799L503.223 49.4079L503.4 52.2364H482.617L482.603 51.4532C482.59 50.7531 482.623 50.0529 482.713 49.2917C482.928 48.2201 484.396 47.3323 487.283 46.2463L488.783 45.7327C489.099 45.6516 489.401 45.5238 489.678 45.3539C489.748 45.1265 489.769 44.8863 489.741 44.6487L489.735 44.5535L489.736 44.2916C489.725 44.0406 489.63 43.8006 489.465 43.6111L489.391 43.5125C488.942 42.7993 488.66 41.9933 488.569 41.1568C488.549 40.9772 488.495 40.8029 488.414 40.6513C488.174 40.2118 488.003 39.7376 487.909 39.2458C487.791 38.8305 487.796 38.3879 487.938 37.932C487.966 37.857 487.988 37.7799 488.003 37.7015C487.979 37.4993 487.954 37.285 487.921 36.9965C487.875 36.583 487.851 36.3733 487.821 36.0871C487.795 34.9607 488.217 33.8698 488.986 33.06C490.008 31.9575 491.475 31.3801 492.972 31.488C494.47 31.3846 495.936 31.9657 496.952 33.0657C497.721 33.8839 498.14 34.9697 498.115 36.1709C498.059 36.6532 498.001 37.1324 497.93 37.7016C497.949 37.7911 497.974 37.8805 498.005 37.9727C498.141 38.3887 498.147 38.8358 498.024 39.2547C497.939 39.7364 497.779 40.2042 497.524 40.6904C497.426 40.8473 497.36 41.0217 497.335 41.1523C497.247 41.9893 496.969 42.7953 496.524 43.5095L496.457 43.6014C496.296 43.7924 496.204 44.0322 496.197 44.2583C496.197 44.698 496.219 45.0451 496.258 45.2797C496.962 45.6403 497.67 45.9112 498.39 46.1474Z" fill="white"/>
<g clip-path="url(#clip1_903_1689)">
<path d="M213.44 65.6082H188.56V90.5388H213.44V65.6082Z" fill="#717272"/>
<path d="M200.956 70.2416C202.804 70.2416 204.485 72.0343 204.456 74.5714C204.426 77.089 203.4 77.5788 202.823 78.6465C202.608 79.0482 202.55 80.302 202.96 80.5469C204.847 81.6931 206.695 82.5649 208.268 83.4857C208.963 83.8971 209.06 84.7494 209.06 85.3274C207.789 85.3274 204.358 85.3274 200.956 85.3274C197.554 85.3274 194.123 85.3274 192.852 85.3274C192.852 84.7494 192.95 83.8971 193.644 83.4857C195.218 82.5649 197.065 81.6931 198.952 80.5469C199.363 80.302 199.304 79.0482 199.089 78.6465C198.512 77.5788 197.486 77.0792 197.456 74.5714C197.427 72.0343 199.108 70.2416 200.956 70.2416Z" fill="white"/>
</g>
<path d="M223.529 73.9688C223.133 73.2487 222.586 72.4626 221.889 71.6104L222.757 71.0703C223.491 71.9772 224.067 72.7474 224.486 73.3809L223.529 73.9688ZM231.958 75.8008V76.7988H233.811V77.5234H231.958V78.7539H234.139V79.4922H225.19V78.7539H227.33V77.5234H225.56V76.7988H227.33V75.8008C226.77 75.7826 226.405 75.7598 226.236 75.7324C226.068 75.7005 225.913 75.6094 225.771 75.459C225.63 75.304 225.56 75.1126 225.56 74.8848V73.0254H228.13V71.8838H225.532V71.2686H228.957V73.5859H226.373V74.625C226.373 74.8346 226.437 74.9668 226.564 75.0215C226.697 75.0762 227.036 75.1035 227.583 75.1035C228.23 75.1035 228.592 75.0488 228.67 74.9395C228.747 74.8301 228.786 74.5726 228.786 74.167L229.47 74.2285V74.9395C229.47 75.459 229.18 75.7347 228.602 75.7666L228.328 75.7803V76.7988H230.939V75.7598L230.741 75.7393C230.55 75.721 230.377 75.6322 230.222 75.4727C230.071 75.3086 229.996 75.1126 229.996 74.8848V73.0254H232.696V71.8838H229.969V71.2686H233.51V73.5859H230.816V74.625C230.816 74.8346 230.88 74.9668 231.008 75.0215C231.135 75.0762 231.491 75.1035 232.074 75.1035C232.74 75.1035 233.116 75.0579 233.202 74.9668C233.293 74.8711 233.339 74.6045 233.339 74.167L234.029 74.2285V74.9395C234.029 75.1947 233.959 75.3906 233.817 75.5273C233.681 75.6641 233.464 75.7438 233.168 75.7666C232.872 75.7894 232.503 75.8008 232.061 75.8008H231.958ZM228.328 78.7539H230.939V77.5234H228.328V78.7539ZM225.833 81.6387L225.471 80.9688C226.451 80.6133 227.307 80.1735 228.041 79.6494L228.684 80.2236C228.378 80.4606 227.925 80.7249 227.323 81.0166C226.726 81.3083 226.229 81.5156 225.833 81.6387ZM233.284 81.6797C232.373 81.3971 231.468 80.9163 230.57 80.2373L231.213 79.6494C231.874 80.1325 232.74 80.5768 233.811 80.9824L233.284 81.6797ZM234.556 83.0674C233.544 83.0765 231.694 83.0811 229.005 83.0811C227.428 83.0811 226.248 82.9512 225.464 82.6914C224.685 82.4362 224.14 82.0374 223.83 81.4951C223.074 82.2699 222.326 82.8372 221.588 83.1973L221.219 82.2812C221.474 82.1673 221.823 81.9668 222.265 81.6797C222.711 81.388 223.033 81.151 223.229 80.9688V76.7852H221.417V75.9375H224.302V80.3262C224.302 80.7546 224.452 81.1055 224.753 81.3789C225.054 81.6478 225.407 81.8301 225.812 81.9258C226.218 82.0169 226.599 82.0876 226.954 82.1377C227.31 82.1878 228.342 82.2129 230.051 82.2129C232.257 82.2129 233.824 82.1833 234.754 82.124L234.556 83.0674ZM239.956 77.2842C239.66 77.4209 239.17 77.6009 238.486 77.8242V82.3496C238.486 82.6322 238.37 82.8623 238.138 83.04C237.91 83.2178 237.668 83.3066 237.413 83.3066H235.827L235.704 82.4385H236.941C237.288 82.4385 237.461 82.2812 237.461 81.9668V78.1455C236.663 78.387 236.009 78.5648 235.499 78.6787L235.301 77.7695C235.761 77.6829 236.481 77.5029 237.461 77.2295V74.3242H235.745V73.4971H237.461V70.8994H238.486V73.4971H239.86V74.3242H238.486V76.9287C239.133 76.7282 239.591 76.5755 239.86 76.4707L239.956 77.2842ZM248.754 82.5684L248.07 83.3682C245.979 81.8506 244.68 79.6562 244.174 76.7852H241.959C241.868 79.5697 241.161 81.7594 239.84 83.3545L239.129 82.7803C239.749 81.9873 240.204 80.9984 240.496 79.8135C240.792 78.6286 240.94 77.4505 240.94 76.2793V71.5283H247.756V76.7852H245.179C245.675 79.319 246.867 81.2467 248.754 82.5684ZM246.696 75.999V72.3555H242V75.999H246.696ZM253.642 83.3955L252.842 82.9375C253.662 81.8757 254.072 80.4561 254.072 78.6787V76.8877C253.753 76.9469 253.3 77.0404 252.712 77.168L252.432 76.3818C254.109 76.1038 255.515 75.68 256.649 75.1104C255.624 74.4632 254.756 73.6885 254.045 72.7861H252.869V71.959H256.93V70.8447H258.01V71.959H262.241V72.7861H260.977C260.348 73.5791 259.502 74.3402 258.44 75.0693C259.712 75.6208 261.127 76.0104 262.686 76.2383L262.296 77.0791C261.822 77.0062 261.35 76.9128 260.881 76.7988V83.252H259.814V80.5381H254.947C254.751 81.5726 254.316 82.5251 253.642 83.3955ZM257.518 74.6182C258.333 74.0941 259.053 73.4834 259.678 72.7861H255.234C255.882 73.5062 256.643 74.1169 257.518 74.6182ZM255.111 76.6348V77.5986H259.814V76.5049C259.008 76.2497 258.258 75.9535 257.565 75.6162C256.818 76.04 256 76.3796 255.111 76.6348ZM255.111 78.3711V78.4395C255.111 78.9316 255.093 79.3691 255.057 79.752H259.814V78.3711H255.111ZM251.728 73.8115C251.258 73.2965 250.616 72.6927 249.8 72L250.49 71.3438C251.265 71.9453 251.926 72.5355 252.473 73.1143L251.728 73.8115ZM251.229 77.0791C250.695 76.4958 250.073 75.9056 249.362 75.3086L250.046 74.6523C250.638 75.1217 251.285 75.6982 251.987 76.3818L251.229 77.0791ZM250.442 83.0537L249.602 82.4248C249.952 81.9372 250.331 81.2581 250.736 80.3877C251.146 79.5173 251.468 78.7288 251.7 78.0225L252.616 78.3506C252.411 79.0205 252.094 79.8271 251.666 80.7705C251.238 81.7093 250.83 82.4704 250.442 83.0537ZM276.713 77.9746L276.378 78.9863C275.767 78.7493 275.2 78.5397 274.676 78.3574C274.443 79.4603 274.063 80.39 273.534 81.1465C273.006 81.903 272.274 82.5684 271.34 83.1426L270.711 82.4316C272.333 81.3333 273.318 79.8613 273.664 78.0156C272.224 77.5645 270.882 77.2705 269.638 77.1338C268.362 80.5426 266.94 82.2471 265.372 82.2471C264.871 82.2471 264.454 82.0602 264.121 81.6865C263.788 81.3083 263.622 80.8525 263.622 80.3193C263.622 79.736 263.788 79.1276 264.121 78.4941C264.458 77.8561 264.992 77.3047 265.721 76.8398C266.45 76.3704 267.277 76.1335 268.202 76.1289C268.412 76.1289 268.628 76.1335 268.852 76.1426C269.193 75.0944 269.421 74.0531 269.535 73.0186H265.194V72.1504H270.554L270.766 72.376C270.592 73.7887 270.321 75.0762 269.952 76.2383C271.151 76.3796 272.434 76.653 273.801 77.0586C273.828 76.7259 273.842 75.9079 273.842 74.6045H274.908L274.915 75.7939C274.915 76.4274 274.89 76.9561 274.84 77.3799C275.259 77.5075 275.883 77.7057 276.713 77.9746ZM268.544 77.0518C268.334 77.0426 268.166 77.0381 268.038 77.0381C267.327 77.0381 266.703 77.2318 266.165 77.6191C265.632 78.002 265.24 78.4622 264.989 79C264.743 79.5378 264.62 79.9867 264.62 80.3467C264.62 80.5973 264.704 80.8138 264.873 80.9961C265.042 81.1784 265.247 81.2695 265.488 81.2695C265.967 81.2695 266.509 80.8252 267.115 79.9365C267.721 79.0433 268.198 78.0817 268.544 77.0518ZM289.113 73.0391H278.962V72.082H289.113V73.0391ZM289.585 75.459C289.535 76.2793 289.462 76.915 289.366 77.3662C289.271 77.8174 289.024 78.4486 288.628 79.2598C288.236 80.0664 287.669 80.7477 286.926 81.3037C286.183 81.8551 285.258 82.2835 284.15 82.5889C283.043 82.8988 281.737 83.0742 280.233 83.1152L280.035 82.124C282.628 82.0648 284.599 81.5726 285.948 80.6475C287.302 79.7178 288.099 78.3096 288.341 76.4229H278.415V75.459H289.585ZM304.918 81.0303L304.228 82.0557C302.961 80.7204 301.616 79.3418 300.194 77.9199C298.777 76.498 297.856 75.5957 297.433 75.2129C297.009 74.8301 296.77 74.6273 296.715 74.6045C296.66 74.5771 296.605 74.5635 296.551 74.5635C296.51 74.5635 296.451 74.5794 296.373 74.6113C296.296 74.6432 296.145 74.8005 295.922 75.083C295.699 75.361 294.969 76.3089 293.734 77.9268L291.854 80.374L291.068 79.6016C291.392 79.2324 291.811 78.7061 292.326 78.0225L295.211 74.1875C295.512 73.8001 295.929 73.6064 296.462 73.6064C296.694 73.6064 296.931 73.6497 297.173 73.7363C297.419 73.8229 297.72 74.0326 298.075 74.3652L300.14 76.3203C301.156 77.2865 302.749 78.8564 304.918 81.0303ZM303.653 74.0713L302.874 74.3926C302.582 73.7044 302.254 73.0755 301.89 72.5059L302.607 72.1709C302.967 72.7269 303.316 73.3604 303.653 74.0713ZM301.671 74.4951L300.885 74.8438C300.561 74.1146 300.229 73.4743 299.887 72.9229L300.632 72.5879C301.033 73.2077 301.379 73.8434 301.671 74.4951ZM318.986 77.7695C318.403 79.0137 317.501 80.0983 316.279 81.0234C315.062 81.944 313.859 82.5684 312.67 82.8965L312.171 82.4316V71.7881H313.319V81.4404C314.071 81.2171 314.887 80.7546 315.767 80.0527C316.651 79.3509 317.439 78.3893 318.132 77.168L318.986 77.7695ZM309.259 75.3359C309.259 76.4115 309.211 77.2887 309.115 77.9678C309.02 78.6423 308.801 79.3053 308.459 79.957C308.122 80.6042 307.696 81.1966 307.181 81.7344C306.666 82.2721 306.112 82.696 305.52 83.0059L305.014 82.1377C305.583 81.7868 306.11 81.3242 306.593 80.75C307.076 80.1758 307.447 79.4967 307.707 78.7129C307.967 77.929 308.097 76.7282 308.097 75.1104V72.2256H309.259V75.3359Z" fill="#333333"/>
<path fill-rule="evenodd" clip-rule="evenodd" d="M455.856 78L451.572 73.7167L451 73.1445L452.144 72L452.717 72.5722L457 76.8555L461.283 72.5722L461.856 72L463 73.1445L462.428 73.7167L458.144 78L462.428 82.2833L463 82.8555L461.856 84L461.283 83.4278L457 79.1445L452.717 83.4278L452.144 84L451 82.8555L451.572 82.2833L455.856 78Z" fill="#3498DB"/>
<path d="M469 89H189V91H469V89Z" fill="#E3E7E8" mask="url(#path-8-outside-1_903_1689)"/>
<g clip-path="url(#clip2_903_1689)">
<path d="M213 98H189V121.927H213V98Z" fill="#86BAC0"/>
<path d="M213 109.707L204.095 100.79L191.812 113.014L200.812 121.927H213V109.707Z" fill="#6C969B"/>
<path fill-rule="evenodd" clip-rule="evenodd" d="M201.086 98.0641C207.716 98.0641 213 103.422 213 110.032C213 116.642 207.716 122 201.086 122C194.456 122 189.081 116.642 189.081 110.032C189.081 103.422 194.456 98.0641 201.086 98.0641Z" fill="#86BAC0"/>
<path fill-rule="evenodd" clip-rule="evenodd" d="M212.987 110.506C212.734 116.663 207.904 121.65 201.75 121.987L194.139 114.399L207.862 105.336L212.992 110.451L212.987 110.506Z" fill="#6C969B"/>
<path d="M207.862 105.336H194.139V114.399H207.862V105.336Z" fill="#E5E5E4"/>
<path fill-rule="evenodd" clip-rule="evenodd" d="M194.139 114.399L201 108.362L207.862 114.399H194.139Z" fill="#CCCCCC"/>
<path fill-rule="evenodd" clip-rule="evenodd" d="M194.139 114.399L201 108.785L207.862 114.399H194.139Z" fill="#E5E5E4"/>
<path fill-rule="evenodd" clip-rule="evenodd" d="M194.139 105.336L201 111.365L207.862 105.336H194.139Z" fill="#CCCCCC"/>
<path fill-rule="evenodd" clip-rule="evenodd" d="M194.139 105.336L201 110.951L207.862 105.336H194.139Z" fill="white"/>
<path d="M213 98H189V121.927H213V98Z" fill="#9CC076"/>
<path fill-rule="evenodd" clip-rule="evenodd" d="M211.796 116.45H201.151C201.144 116.082 201.162 115.714 201.204 115.348C201.278 114.979 202.028 114.527 203.453 113.993L204.253 113.718C204.523 113.649 204.777 113.531 205.004 113.37C205.107 113.14 205.146 112.887 205.116 112.637V112.474C205.106 112.234 205.014 112.006 204.856 111.825C204.642 111.487 204.508 111.105 204.464 110.707C204.447 110.552 204.4 110.402 204.327 110.264C204.212 110.055 204.132 109.829 204.089 109.594C204.041 109.441 204.041 109.278 204.089 109.125C204.122 109.036 204.145 108.944 204.157 108.851C204.12 108.555 204.089 108.255 204.052 107.938C204.04 107.431 204.23 106.94 204.581 106.572C205.065 106.053 205.762 105.784 206.471 105.845C207.18 105.786 207.877 106.057 208.36 106.578C208.709 106.947 208.898 107.437 208.89 107.944C208.853 108.26 208.816 108.561 208.778 108.856C208.794 108.949 208.817 109.041 208.847 109.13C208.897 109.283 208.897 109.447 208.847 109.6C208.809 109.831 208.734 110.056 208.625 110.264C208.54 110.399 208.483 110.55 208.456 110.707C208.413 111.104 208.281 111.486 208.069 111.825C207.915 112.007 207.827 112.236 207.82 112.474C207.82 113.001 207.873 113.339 207.985 113.412C208.428 113.613 208.882 113.789 209.345 113.94C209.388 113.964 209.435 113.984 209.483 113.998C210.894 114.532 211.642 114.984 211.727 115.353L211.796 116.45Z" fill="#D4D7D8"/>
<path fill-rule="evenodd" clip-rule="evenodd" d="M201.001 116.45H190.356C190.35 116.082 190.367 115.714 190.409 115.348C190.483 114.979 191.233 114.527 192.659 113.993L193.458 113.718C193.728 113.649 193.983 113.531 194.21 113.37C194.313 113.14 194.351 112.887 194.321 112.637V112.474C194.311 112.234 194.22 112.006 194.062 111.825C193.848 111.487 193.714 111.105 193.67 110.707C193.653 110.552 193.606 110.402 193.532 110.264C193.418 110.055 193.337 109.829 193.294 109.594C193.247 109.441 193.247 109.278 193.294 109.125C193.327 109.036 193.351 108.944 193.363 108.851C193.326 108.555 193.294 108.255 193.257 107.938C193.246 107.431 193.436 106.94 193.786 106.572C194.27 106.053 194.967 105.784 195.676 105.845C196.386 105.786 197.083 106.057 197.566 106.578C197.914 106.947 198.104 107.437 198.095 107.944C198.058 108.26 198.021 108.561 197.984 108.856C197.999 108.949 198.022 109.041 198.053 109.13C198.103 109.283 198.103 109.447 198.053 109.6C198.014 109.831 197.939 110.056 197.831 110.264C197.746 110.399 197.688 110.55 197.661 110.707C197.619 111.104 197.487 111.486 197.275 111.825C197.121 112.007 197.033 112.236 197.026 112.474C197.026 113.001 197.079 113.339 197.19 113.412C197.634 113.613 198.088 113.789 198.55 113.94C198.594 113.964 198.64 113.984 198.688 113.998C200.1 114.532 200.848 114.984 200.932 115.353L201.001 116.45Z" fill="#D4D7D8"/>
<path fill-rule="evenodd" clip-rule="evenodd" d="M207.507 116.45H194.497C194.489 116 194.51 115.55 194.562 115.103C194.652 114.652 195.569 114.1 197.311 113.446L198.288 113.111C198.618 113.027 198.93 112.883 199.207 112.686C199.333 112.405 199.38 112.095 199.343 111.79V111.59C199.331 111.298 199.219 111.018 199.026 110.797C198.764 110.384 198.601 109.916 198.547 109.431C198.526 109.241 198.469 109.058 198.379 108.889C198.239 108.634 198.14 108.357 198.088 108.071C198.03 107.884 198.03 107.684 198.088 107.497C198.128 107.389 198.157 107.276 198.172 107.162C198.127 106.801 198.088 106.433 198.042 106.047C198.028 105.427 198.261 104.827 198.689 104.377C199.281 103.742 200.133 103.414 200.999 103.488C201.866 103.416 202.718 103.747 203.309 104.384C203.734 104.835 203.966 105.434 203.956 106.053C203.91 106.44 203.865 106.807 203.82 107.168C203.839 107.282 203.867 107.394 203.904 107.503C203.965 107.69 203.965 107.891 203.904 108.077C203.857 108.36 203.765 108.634 203.632 108.889C203.529 109.055 203.458 109.239 203.425 109.431C203.374 109.916 203.212 110.383 202.953 110.797C202.765 111.02 202.657 111.299 202.649 111.59C202.649 112.235 202.713 112.647 202.849 112.737C203.392 112.982 203.947 113.197 204.512 113.382C204.565 113.412 204.622 113.436 204.68 113.453C206.405 114.106 207.32 114.658 207.423 115.109L207.507 116.45Z" fill="white"/>
</g>
<path d="M227.439 103.467C227.307 103.9 227.118 104.367 226.872 104.868H233.503L233.448 105.818C233.435 106.092 233.318 106.623 233.1 107.411C232.958 107.917 232.783 108.425 232.573 108.936C232.368 109.446 232.097 109.975 231.76 110.521C231.423 111.068 231.015 111.583 230.536 112.066C230.062 112.549 229.508 112.992 228.875 113.393C228.242 113.789 227.508 114.142 226.674 114.452C225.844 114.762 224.942 115.013 223.967 115.204L223.563 114.22C226.193 113.709 228.194 112.768 229.565 111.396C230.942 110.025 231.805 108.181 232.156 105.866H226.332C225.794 106.75 225.127 107.589 224.329 108.382C223.536 109.17 222.707 109.815 221.841 110.316L221.198 109.558C222.406 108.792 223.459 107.817 224.356 106.632C225.254 105.442 225.863 104.333 226.182 103.303L227.439 103.467ZM234.747 104.055L233.961 104.376C233.656 103.665 233.33 103.036 232.983 102.489L233.701 102.154C234.061 102.71 234.41 103.344 234.747 104.055ZM232.744 104.308L231.965 104.656C231.669 103.986 231.34 103.362 230.98 102.783L231.726 102.448C232.127 103.073 232.466 103.692 232.744 104.308ZM248.986 109.77C248.403 111.014 247.501 112.098 246.279 113.023C245.062 113.944 243.859 114.568 242.67 114.896L242.171 114.432V103.788H243.319V113.44C244.071 113.217 244.887 112.755 245.767 112.053C246.651 111.351 247.439 110.389 248.132 109.168L248.986 109.77ZM239.259 107.336C239.259 108.411 239.211 109.289 239.115 109.968C239.02 110.642 238.801 111.305 238.459 111.957C238.122 112.604 237.696 113.197 237.181 113.734C236.666 114.272 236.112 114.696 235.52 115.006L235.014 114.138C235.583 113.787 236.11 113.324 236.593 112.75C237.076 112.176 237.447 111.497 237.707 110.713C237.967 109.929 238.097 108.728 238.097 107.11V104.226H239.259V107.336ZM261.592 109.975H250.285V108.963H261.592V109.975ZM274.471 105.005C274.302 107.078 273.887 108.776 273.227 110.098C272.57 111.419 271.481 112.527 269.959 113.42C268.437 114.313 266.557 114.874 264.319 115.102L264.039 114.069C266.423 113.841 268.503 113.099 270.28 111.841C272.062 110.583 273.051 108.418 273.247 105.347H263.882V104.335H273.814C273.723 104.148 273.675 103.936 273.671 103.699C273.671 103.298 273.817 102.959 274.108 102.681C274.405 102.403 274.771 102.259 275.209 102.25C275.619 102.25 275.968 102.389 276.255 102.667C276.547 102.945 276.697 103.296 276.706 103.72C276.706 104.125 276.56 104.467 276.269 104.745C275.977 105.023 275.624 105.167 275.209 105.176C274.936 105.176 274.689 105.119 274.471 105.005ZM275.182 104.69C275.446 104.69 275.676 104.597 275.872 104.41C276.073 104.223 276.173 103.995 276.173 103.727C276.173 103.453 276.075 103.218 275.879 103.022C275.688 102.826 275.455 102.729 275.182 102.729C274.917 102.729 274.687 102.826 274.491 103.022C274.295 103.214 274.197 103.442 274.197 103.706C274.197 103.97 274.293 104.201 274.484 104.396C274.68 104.592 274.913 104.69 275.182 104.69ZM284.301 114.5H278.818V113.557H280.965V106.475H278.818V105.641C279.657 105.636 280.256 105.518 280.616 105.285C280.976 105.048 281.179 104.674 281.225 104.164H282.195V113.557H284.301V114.5Z" fill="#333333"/>
<path fill-rule="evenodd" clip-rule="evenodd" d="M455.856 110L451.572 105.717L451 105.144L452.144 104L452.717 104.572L457 108.856L461.283 104.572L461.856 104L463 105.144L462.428 105.717L458.144 110L462.428 114.283L463 114.856L461.856 116L461.283 115.428L457 111.144L452.717 115.428L452.144 116L451 114.856L451.572 114.283L455.856 110Z" fill="#3498DB"/>
<path d="M469 121H189V123H469V121Z" fill="#E3E7E8" mask="url(#path-14-outside-2_903_1689)"/>
<g clip-path="url(#clip3_903_1689)">
<path d="M213 130H189V154H213V130Z" fill="#4F91C5"/>
<path fill-rule="evenodd" clip-rule="evenodd" d="M205 134H196.5V140.5H205V134ZM204 135H202.5V136.5H204V135ZM201.5 144.5H209V150.5H201.5V144.5ZM200.5 144.5H193V150.5H200.5V144.5ZM207 146H208V147H207V146ZM199.5 146H198.5V147H199.5V146Z" fill="#EFF3F4"/>
<path fill-rule="evenodd" clip-rule="evenodd" d="M201.5 140.5H200.5V142H196V143V144.5H197V143H204.5V144.5H205.5V143V142H201.5V140.5Z" fill="#A6B2B3"/>
</g>
<path d="M223.816 147.368V141.694L221.513 141.838L221.431 140.97H221.759C221.873 140.97 222.046 140.967 222.278 140.963C222.775 140.339 223.203 139.785 223.563 139.302L221.499 137.415L222.189 136.813L222.442 137.039C223.03 136.242 223.484 135.51 223.803 134.845L224.732 135.2C224.227 136.048 223.671 136.841 223.064 137.579C223.452 137.925 223.8 138.249 224.11 138.55C224.762 137.638 225.229 136.911 225.512 136.369L226.482 136.786C225.58 138.14 224.523 139.523 223.311 140.936C224.122 140.904 224.96 140.858 225.826 140.799C225.653 140.293 225.512 139.901 225.402 139.623L226.257 139.37C226.476 139.976 226.747 140.776 227.07 141.77L226.202 141.981C226.188 141.922 226.141 141.765 226.059 141.51C225.849 141.533 225.439 141.569 224.828 141.619V147.368H223.816ZM226.517 147.054V146.227H227.699V135.501H233.599V146.227H234.665V147.054H226.517ZM232.553 138.769V136.301H228.711V138.769H232.553ZM228.711 142.228H232.553V139.527H228.711V142.228ZM228.711 146.227H232.553V142.993H228.711V146.227ZM225.901 145.153C225.783 144.123 225.678 143.305 225.587 142.699L226.469 142.569C226.578 143.431 226.699 144.244 226.831 145.01L225.901 145.153ZM222.299 146.227L221.417 146.049C221.786 144.946 222.009 143.804 222.087 142.624L223.044 142.713C222.752 144.536 222.504 145.707 222.299 146.227ZM246.505 144.572C246.605 144.841 246.733 145.121 246.888 145.413C247.047 145.7 247.17 145.887 247.257 145.974C247.348 146.06 247.437 146.104 247.523 146.104C247.669 146.104 247.758 145.992 247.79 145.769C247.826 145.541 247.877 144.955 247.94 144.012L248.699 144.107C248.658 145.561 248.567 146.448 248.426 146.767C248.289 147.09 248.022 147.252 247.626 147.252C247.28 147.252 246.956 147.072 246.655 146.712C246.359 146.352 246.095 145.933 245.862 145.454C245.297 146.179 244.7 146.812 244.071 147.354L243.545 146.808C244.174 146.256 244.826 145.504 245.5 144.552C245.104 143.358 244.894 141.797 244.871 139.869H239.785V139.097H240.975L240.537 136.984H240.018V136.212H241.829V134.913H242.786V136.212H244.488V136.984H244.023L243.518 139.097H244.871V134.817H245.869V139.097H248.426V139.869H245.869C245.878 141.378 245.99 142.608 246.204 143.561C246.286 143.424 246.357 143.283 246.416 143.137C246.644 142.809 246.986 141.995 247.441 140.696L248.33 140.983C247.856 142.31 247.248 143.506 246.505 144.572ZM241.398 136.984L241.802 139.097H242.731L243.142 136.984H241.398ZM237.249 147.382V141.407L235.417 141.551L235.321 140.758C235.435 140.758 235.686 140.751 236.073 140.737C236.429 140.209 236.761 139.701 237.071 139.213C236.88 138.962 236.593 138.639 236.21 138.242C235.731 137.75 235.428 137.431 235.301 137.285L235.93 136.759L236.189 137.032C236.686 136.271 237.08 135.556 237.372 134.886L238.233 135.228C237.846 135.938 237.336 136.722 236.702 137.579C237.099 138.003 237.372 138.304 237.522 138.481C238.033 137.638 238.402 136.959 238.63 136.444L239.484 136.8C238.714 138.135 237.873 139.436 236.962 140.703C237.737 140.667 238.382 140.621 238.896 140.566C238.828 140.329 238.721 139.983 238.575 139.527L239.286 139.356C239.509 139.953 239.733 140.68 239.956 141.537L239.231 141.742C239.218 141.678 239.17 141.507 239.088 141.229L238.199 141.318V147.382H237.249ZM247.229 138.044L246.539 135.925L247.414 135.686L248.111 137.798L247.229 138.044ZM241.446 146.179V146.753H240.53V140.867H244.126V146.179H241.446ZM243.203 141.551H241.446V143.109H243.203V141.551ZM243.203 143.793H241.446V145.495H243.203V143.793ZM239.19 144.955C239.045 143.884 238.949 143.059 238.903 142.48L239.662 142.371L239.977 144.839L239.19 144.955ZM235.978 146.069L235.205 145.926C235.492 144.659 235.649 143.506 235.677 142.467L236.572 142.556C236.331 144.502 236.132 145.673 235.978 146.069ZM256.301 146.5H250.818V145.557H252.965V138.475H250.818V137.641C251.657 137.636 252.256 137.518 252.616 137.285C252.976 137.048 253.179 136.674 253.225 136.164H254.195V145.557H256.301V146.5Z" fill="#333333"/>
<path fill-rule="evenodd" clip-rule="evenodd" d="M455.867 142.061L451.567 137.717L451 137.144L452.133 136L452.7 136.572L457 140.916L461.301 136.572L461.867 136L463 137.144L462.434 137.717L458.133 142.061L462.313 146.283L462.88 146.856L461.747 148L461.18 147.428L457 143.205L452.82 147.428L452.253 148L451.12 146.856L451.687 146.283L455.867 142.061Z" fill="#3498DB"/>
<path d="M469 153H189V155H469V153Z" fill="#E3E7E8" mask="url(#path-31-outside-3_903_1689)"/>
<rect x="396" y="168" width="115" height="24" rx="2" fill="#282828"/>
<path d="M411.22 183H409.427L407.485 180.491H406.562V183H405.112V176.377H407.647C408.567 176.377 409.229 176.542 409.634 176.87C410.041 177.195 410.245 177.637 410.245 178.197C410.245 179.073 409.804 179.722 408.922 180.144L411.22 183ZM406.553 177.419V179.48H407.204C407.828 179.48 408.241 179.376 408.443 179.168C408.645 178.96 408.746 178.688 408.746 178.351C408.746 178.052 408.649 177.822 408.456 177.661C408.263 177.5 407.882 177.419 407.313 177.419H406.553ZM416.182 180.667H412.574C412.632 181.686 413.211 182.196 414.31 182.196C414.884 182.196 415.461 181.988 416.041 181.572H416.089V182.741C415.401 183.004 414.753 183.136 414.147 183.136C413.192 183.136 412.464 182.909 411.963 182.455C411.462 182.001 411.211 181.346 411.211 180.491C411.211 179.641 411.449 178.973 411.923 178.487C412.398 177.998 413.053 177.753 413.888 177.753C415.417 177.753 416.182 178.566 416.182 180.192V180.667ZM414.833 179.902C414.821 179.026 414.465 178.588 413.765 178.588C413.021 178.588 412.624 179.026 412.574 179.902H414.833ZM425.059 183H423.701V180.447C423.701 180.107 423.685 179.81 423.652 179.555C423.623 179.297 423.534 179.121 423.384 179.027C423.238 178.934 423.034 178.887 422.773 178.887C422.542 178.887 422.215 179.016 421.793 179.273V183H420.436V180.447C420.436 180.089 420.418 179.788 420.383 179.542C420.348 179.292 420.255 179.121 420.106 179.027C419.959 178.934 419.759 178.887 419.504 178.887C419.261 178.887 418.936 179.017 418.528 179.278V183H417.179V177.911H418.528V178.623C418.974 178.257 419.311 178.024 419.539 177.924C419.771 177.822 420.009 177.771 420.255 177.771C420.894 177.771 421.366 178.096 421.67 178.746C422.101 178.371 422.453 178.115 422.725 177.977C422.998 177.839 423.264 177.771 423.525 177.771C424.547 177.771 425.059 178.399 425.059 179.656V183ZM428.64 183.158C427.814 183.158 427.172 182.921 426.715 182.446C426.258 181.969 426.03 181.307 426.03 180.46C426.03 179.61 426.26 178.947 426.72 178.469C427.183 177.992 427.823 177.753 428.64 177.753C429.463 177.753 430.104 177.992 430.561 178.469C431.021 178.947 431.25 179.61 431.25 180.46C431.25 181.307 431.021 181.969 430.561 182.446C430.104 182.921 429.463 183.158 428.64 183.158ZM428.64 178.693C427.84 178.693 427.44 179.287 427.44 180.473C427.44 181.636 427.846 182.218 428.658 182.218C429.446 182.218 429.84 181.636 429.84 180.473C429.84 179.287 429.44 178.693 428.64 178.693ZM436.959 177.911L434.876 183H433.602L431.527 177.911H432.991L434.287 181.436L435.57 177.911H436.959ZM442.197 180.667H438.589C438.648 181.686 439.227 182.196 440.325 182.196C440.899 182.196 441.477 181.988 442.057 181.572H442.105V182.741C441.417 183.004 440.769 183.136 440.163 183.136C439.208 183.136 438.479 182.909 437.979 182.455C437.478 182.001 437.227 181.346 437.227 180.491C437.227 179.641 437.464 178.973 437.939 178.487C438.414 177.998 439.068 177.753 439.903 177.753C441.433 177.753 442.197 178.566 442.197 180.192V180.667ZM440.848 179.902C440.836 179.026 440.48 178.588 439.78 178.588C439.036 178.588 438.639 179.026 438.589 179.902H440.848ZM447.897 183H443.283V176.377H447.897V177.476H444.724V178.891H447.673V179.985H444.724V181.901H447.897V183ZM453.838 183H452.48V180.464C452.48 179.755 452.401 179.316 452.243 179.146C452.088 178.973 451.834 178.887 451.483 178.887C451.19 178.887 450.837 179.017 450.424 179.278V183H449.075V177.911H450.424V178.623C450.846 178.277 451.183 178.049 451.435 177.938C451.689 177.826 451.955 177.771 452.23 177.771C453.302 177.771 453.838 178.399 453.838 179.656V183ZM458.202 182.969C457.842 183.057 457.457 183.101 457.046 183.101C456.44 183.101 455.996 182.972 455.715 182.714C455.434 182.454 455.293 182.033 455.293 181.453V178.803H454.625V177.911H455.297V176.483H456.642V177.911H458.202V178.803H456.642V180.899C456.642 181.438 456.711 181.79 456.849 181.954C456.986 182.118 457.218 182.2 457.543 182.2C457.751 182.2 457.958 182.149 458.163 182.046H458.202V182.969ZM460.43 177.274H458.984V176.083H460.43V177.274ZM460.382 183H459.033V177.911H460.382V183ZM464.785 182.969C464.425 183.057 464.04 183.101 463.629 183.101C463.023 183.101 462.579 182.972 462.298 182.714C462.017 182.454 461.876 182.033 461.876 181.453V178.803H461.208V177.911H461.88V176.483H463.225V177.911H464.785V178.803H463.225V180.899C463.225 181.438 463.294 181.79 463.432 181.954C463.569 182.118 463.801 182.2 464.126 182.2C464.334 182.2 464.541 182.149 464.746 182.046H464.785V182.969ZM470.34 177.911L467.549 184.833H466.125L466.899 183.009L464.908 177.911H466.372L467.655 181.545L468.951 177.911H470.34ZM471.153 183V176.377H473.535C474.542 176.377 475.227 176.511 475.587 176.777C475.95 177.041 476.132 177.415 476.132 177.898C476.132 178.537 475.818 179.001 475.191 179.291V179.326C476.138 179.525 476.611 180.072 476.611 180.965C476.611 181.589 476.376 182.084 475.908 182.451C475.442 182.817 474.765 183 473.877 183H471.153ZM472.594 177.419V179.023H473.139C473.587 179.023 473.905 179 474.093 178.953C474.28 178.903 474.419 178.811 474.51 178.676C474.601 178.538 474.646 178.367 474.646 178.162C474.646 177.998 474.605 177.857 474.523 177.74C474.444 177.623 474.314 177.541 474.132 177.494C473.951 177.444 473.584 177.419 473.034 177.419H472.594ZM472.594 180.007V181.958H473.047C473.448 181.958 473.757 181.954 473.974 181.945C474.191 181.937 474.387 181.894 474.563 181.818C474.742 181.742 474.876 181.632 474.967 181.488C475.061 181.345 475.108 181.17 475.108 180.965C475.108 180.743 475.06 180.56 474.963 180.416C474.869 180.272 474.731 180.168 474.55 180.104C474.371 180.04 473.951 180.007 473.289 180.007H472.594ZM482.372 183H481.023V182.288C480.613 182.622 480.279 182.848 480.021 182.965C479.763 183.082 479.495 183.141 479.217 183.141C478.145 183.141 477.608 182.512 477.608 181.255V177.911H478.966V180.447C478.966 181.156 479.044 181.597 479.199 181.77C479.354 181.942 479.608 182.029 479.959 182.029C480.261 182.029 480.616 181.897 481.023 181.633V177.911H482.372V183ZM486.775 182.969C486.415 183.057 486.03 183.101 485.62 183.101C485.013 183.101 484.569 182.972 484.288 182.714C484.007 182.454 483.866 182.033 483.866 181.453V178.803H483.198V177.911H483.871V176.483H485.215V177.911H486.775V178.803H485.215V180.899C485.215 181.438 485.284 181.79 485.422 181.954C485.56 182.118 485.791 182.2 486.116 182.2C486.324 182.2 486.531 182.149 486.736 182.046H486.775V182.969ZM490.607 182.969C490.247 183.057 489.862 183.101 489.452 183.101C488.845 183.101 488.401 182.972 488.12 182.714C487.839 182.454 487.698 182.033 487.698 181.453V178.803H487.03V177.911H487.703V176.483H489.047V177.911H490.607V178.803H489.047V180.899C489.047 181.438 489.116 181.79 489.254 181.954C489.392 182.118 489.623 182.2 489.948 182.2C490.156 182.2 490.363 182.149 490.568 182.046H490.607V182.969ZM493.626 183.158C492.8 183.158 492.159 182.921 491.702 182.446C491.245 181.969 491.016 181.307 491.016 180.46C491.016 179.61 491.246 178.947 491.706 178.469C492.169 177.992 492.809 177.753 493.626 177.753C494.45 177.753 495.09 177.992 495.547 178.469C496.007 178.947 496.237 179.61 496.237 180.46C496.237 181.307 496.007 181.969 495.547 182.446C495.09 182.921 494.45 183.158 493.626 183.158ZM493.626 178.693C492.827 178.693 492.427 179.287 492.427 180.473C492.427 181.636 492.833 182.218 493.644 182.218C494.432 182.218 494.826 181.636 494.826 180.473C494.826 179.287 494.426 178.693 493.626 178.693ZM502.011 183H500.653V180.464C500.653 179.755 500.574 179.316 500.416 179.146C500.261 178.973 500.007 178.887 499.656 178.887C499.363 178.887 499.01 179.017 498.597 179.278V183H497.248V177.911H498.597V178.623C499.019 178.277 499.355 178.049 499.607 177.938C499.862 177.826 500.127 177.771 500.403 177.771C501.475 177.771 502.011 178.399 502.011 179.656V183Z" fill="white"/>
<rect x="237" y="168" width="70" height="24" rx="2" fill="#282828"/>
<path d="M250.752 183H246.138V176.377H250.752V177.476H247.58V178.891H250.528V179.985H247.58V181.901H250.752V183ZM256.694 183H255.336V180.464C255.336 179.755 255.257 179.316 255.099 179.146C254.943 178.973 254.69 178.887 254.338 178.887C254.045 178.887 253.692 179.017 253.279 179.278V183H251.93V177.911H253.279V178.623C253.701 178.277 254.038 178.049 254.29 177.938C254.545 177.826 254.81 177.771 255.085 177.771C256.158 177.771 256.694 178.399 256.694 179.656V183ZM261.058 182.969C260.697 183.057 260.312 183.101 259.902 183.101C259.295 183.101 258.852 182.972 258.57 182.714C258.289 182.454 258.148 182.033 258.148 181.453V178.803H257.48V177.911H258.153V176.483H259.498V177.911H261.058V178.803H259.498V180.899C259.498 181.438 259.566 181.79 259.704 181.954C259.842 182.118 260.073 182.2 260.398 182.2C260.606 182.2 260.813 182.149 261.018 182.046H261.058V182.969ZM263.286 177.274H261.84V176.083H263.286V177.274ZM263.237 183H261.888V177.911H263.237V183ZM267.641 182.969C267.28 183.057 266.895 183.101 266.485 183.101C265.878 183.101 265.435 182.972 265.153 182.714C264.872 182.454 264.731 182.033 264.731 181.453V178.803H264.063V177.911H264.736V176.483H266.081V177.911H267.641V178.803H266.081V180.899C266.081 181.438 266.149 181.79 266.287 181.954C266.425 182.118 266.656 182.2 266.981 182.2C267.189 182.2 267.396 182.149 267.601 182.046H267.641V182.969ZM273.195 177.911L270.405 184.833H268.981L269.754 183.009L267.764 177.911H269.227L270.51 181.545L271.807 177.911H273.195ZM278.605 183H274.008V176.377H275.458V181.901H278.605V183ZM283.667 183H282.327V182.336C281.914 182.691 281.579 182.912 281.321 183C281.066 183.091 280.793 183.136 280.503 183.136C280.058 183.136 279.689 182.993 279.396 182.706C279.103 182.416 278.957 182.043 278.957 181.589C278.957 181.015 279.172 180.58 279.603 180.284C280.036 179.988 280.949 179.804 282.34 179.73V179.594C282.34 179.275 282.23 179.043 282.011 178.9C281.791 178.756 281.428 178.685 280.921 178.685C280.575 178.685 280.08 178.816 279.436 179.08H279.387V178.012C280.067 177.848 280.682 177.766 281.233 177.766C282.091 177.766 282.711 177.905 283.092 178.184C283.476 178.459 283.667 178.898 283.667 179.502V183ZM282.327 181.761V180.478C281.442 180.551 280.889 180.665 280.666 180.82C280.443 180.973 280.332 181.185 280.332 181.458C280.332 181.748 280.41 181.95 280.565 182.064C280.72 182.178 280.963 182.235 281.294 182.235C281.643 182.235 281.987 182.077 282.327 181.761ZM286.375 182.64L286.287 183H285.021V176.083H286.37V178.592C286.763 178.261 287.082 178.042 287.328 177.933C287.577 177.825 287.839 177.771 288.115 177.771C288.712 177.771 289.174 178 289.499 178.46C289.827 178.92 289.991 179.566 289.991 180.398C289.991 181.213 289.783 181.874 289.367 182.38C288.951 182.887 288.433 183.141 287.812 183.141C287.366 183.141 286.887 182.974 286.375 182.64ZM286.37 179.172V181.994C286.669 182.105 286.943 182.161 287.192 182.161C288.126 182.161 288.594 181.585 288.594 180.434C288.594 179.353 288.203 178.812 287.42 178.812C287.101 178.812 286.751 178.932 286.37 179.172ZM295.599 180.667H291.991C292.049 181.686 292.628 182.196 293.727 182.196C294.301 182.196 294.878 181.988 295.458 181.572H295.506V182.741C294.818 183.004 294.17 183.136 293.564 183.136C292.609 183.136 291.881 182.909 291.38 182.455C290.879 182.001 290.628 181.346 290.628 180.491C290.628 179.641 290.866 178.973 291.34 178.487C291.815 177.998 292.47 177.753 293.305 177.753C294.834 177.753 295.599 178.566 295.599 180.192V180.667ZM294.25 179.902C294.238 179.026 293.882 178.588 293.182 178.588C292.438 178.588 292.041 179.026 291.991 179.902H294.25ZM297.945 183H296.596V176.083H297.945V183Z" fill="white"/>
<rect x="48" y="70" width="102" height="24" rx="2" fill="#282828"/>
<path d="M56.8608 84.6045V83.2026H57.0103C57.3384 83.4722 57.7148 83.686 58.1396 83.8442C58.5674 84.0024 58.9775 84.0815 59.3701 84.0815C59.7773 84.0815 60.1055 84.0083 60.3545 83.8618C60.6035 83.7153 60.728 83.5117 60.728 83.251C60.728 83.0488 60.668 82.8877 60.5479 82.7676C60.4307 82.6475 60.2065 82.5479 59.8755 82.4688C59.6382 82.4248 59.2324 82.3384 58.6582 82.2095C58.0869 82.0806 57.6504 81.855 57.3486 81.5327C57.0498 81.2075 56.9004 80.793 56.9004 80.2891C56.9004 79.6885 57.1567 79.2007 57.6694 78.8257C58.1821 78.4478 58.8413 78.2588 59.647 78.2588C60.4673 78.2588 61.2378 78.4082 61.9585 78.707V80.0474H61.8135C61.1982 79.5493 60.4922 79.3003 59.6953 79.3003C59.3174 79.3003 59.0054 79.3706 58.7593 79.5112C58.5161 79.6519 58.3945 79.8438 58.3945 80.0869C58.3945 80.2949 58.4634 80.4604 58.6011 80.5835C58.7417 80.7065 58.9805 80.8076 59.3174 80.8867C59.6543 80.9482 60.0293 81.0303 60.4424 81.1328C60.8584 81.2324 61.1675 81.3452 61.3696 81.4712C61.5747 81.5972 61.7373 81.7349 61.8574 81.8843C61.9805 82.0308 62.0713 82.1948 62.1299 82.3765C62.1914 82.5581 62.2222 82.7588 62.2222 82.9785C62.2222 83.623 61.9585 84.1416 61.4312 84.5342C60.9067 84.9268 60.2109 85.123 59.3438 85.123C58.5 85.123 57.6724 84.9502 56.8608 84.6045ZM67.7988 82.6665H64.1909C64.2495 83.686 64.8281 84.1958 65.9268 84.1958C66.501 84.1958 67.0781 83.9878 67.6582 83.5718H67.7065V84.7407C67.0181 85.0044 66.3706 85.1362 65.7642 85.1362C64.8091 85.1362 64.0811 84.9092 63.5801 84.4551C63.0791 84.001 62.8286 83.3462 62.8286 82.4907C62.8286 81.6411 63.0659 80.9731 63.5405 80.4868C64.0151 79.9976 64.6699 79.7529 65.5049 79.7529C67.0342 79.7529 67.7988 80.5659 67.7988 82.1919V82.6665ZM66.4497 81.9019C66.438 81.0259 66.082 80.5879 65.3818 80.5879C64.6377 80.5879 64.2407 81.0259 64.1909 81.9019H66.4497ZM70.1455 85H68.7964V78.083H70.1455V85ZM76.1309 82.6665H72.5229C72.5815 83.686 73.1602 84.1958 74.2588 84.1958C74.833 84.1958 75.4102 83.9878 75.9902 83.5718H76.0386V84.7407C75.3501 85.0044 74.7026 85.1362 74.0962 85.1362C73.1411 85.1362 72.4131 84.9092 71.9121 84.4551C71.4111 84.001 71.1606 83.3462 71.1606 82.4907C71.1606 81.6411 71.3979 80.9731 71.8726 80.4868C72.3472 79.9976 73.002 79.7529 73.8369 79.7529C75.3662 79.7529 76.1309 80.5659 76.1309 82.1919V82.6665ZM74.7817 81.9019C74.77 81.0259 74.4141 80.5879 73.7139 80.5879C72.9697 80.5879 72.5728 81.0259 72.5229 81.9019H74.7817ZM81.1143 84.7495C80.5459 85.0073 80.0317 85.1362 79.5718 85.1362C78.6812 85.1362 77.9868 84.9062 77.4888 84.4463C76.9907 83.9863 76.7417 83.3301 76.7417 82.4775C76.7417 81.6191 76.9937 80.9541 77.4976 80.4824C78.0015 80.0078 78.6753 79.7705 79.519 79.7705C80.0698 79.7705 80.6016 79.9009 81.1143 80.1616V81.4009H81.0439C80.5459 80.9556 80.0552 80.7329 79.5718 80.7329C79.1235 80.7329 78.7749 80.8867 78.5259 81.1943C78.2769 81.502 78.1523 81.9297 78.1523 82.4775C78.1523 83.0254 78.2769 83.4458 78.5259 83.7388C78.7778 84.0288 79.1338 84.1738 79.5938 84.1738C80.083 84.1738 80.5664 83.9512 81.0439 83.5059H81.1143V84.7495ZM85.0518 84.9692C84.6914 85.0571 84.3062 85.1011 83.896 85.1011C83.2896 85.1011 82.8457 84.9722 82.5645 84.7144C82.2832 84.4536 82.1426 84.0332 82.1426 83.4531V80.8032H81.4746V79.9111H82.147V78.4829H83.4917V79.9111H85.0518V80.8032H83.4917V82.8994C83.4917 83.4385 83.5605 83.79 83.6982 83.9541C83.8359 84.1182 84.0674 84.2002 84.3926 84.2002C84.6006 84.2002 84.8071 84.1489 85.0122 84.0464H85.0518V84.9692ZM90.4307 82.6665H86.8228C86.8813 83.686 87.46 84.1958 88.5586 84.1958C89.1328 84.1958 89.71 83.9878 90.29 83.5718H90.3384V84.7407C89.6499 85.0044 89.0024 85.1362 88.396 85.1362C87.4409 85.1362 86.7129 84.9092 86.2119 84.4551C85.7109 84.001 85.4604 83.3462 85.4604 82.4907C85.4604 81.6411 85.6978 80.9731 86.1724 80.4868C86.647 79.9976 87.3018 79.7529 88.1367 79.7529C89.666 79.7529 90.4307 80.5659 90.4307 82.1919V82.6665ZM89.0815 81.9019C89.0698 81.0259 88.7139 80.5879 88.0137 80.5879C87.2695 80.5879 86.8726 81.0259 86.8228 81.9019H89.0815ZM96.0205 85H94.6714V84.332C94.2319 84.6895 93.9009 84.9136 93.6782 85.0044C93.4556 85.0952 93.2168 85.1406 92.9619 85.1406C92.3789 85.1406 91.9146 84.9048 91.5688 84.4331C91.2231 83.9585 91.0503 83.314 91.0503 82.4995C91.0503 81.6909 91.2598 81.0347 91.6787 80.5308C92.0977 80.0239 92.6177 79.7705 93.2388 79.7705C93.4614 79.7705 93.665 79.7954 93.8496 79.8452C94.0342 79.895 94.3081 80.0151 94.6714 80.2056V78.083H96.0205V85ZM94.6714 83.6948V80.9395C94.3784 80.8135 94.106 80.7505 93.854 80.7505C92.9165 80.7505 92.4478 81.3218 92.4478 82.4644C92.4478 83.0415 92.5444 83.459 92.7378 83.7168C92.9312 83.9717 93.2344 84.0991 93.6475 84.0991C93.958 84.0991 94.2993 83.9644 94.6714 83.6948ZM102.125 85H97.5103V78.3774H102.125V79.4761H98.9517V80.8911H101.9V81.9854H98.9517V83.9014H102.125V85ZM108.066 85H106.708V82.4644C106.708 81.7554 106.629 81.3159 106.471 81.146C106.315 80.9731 106.062 80.8867 105.71 80.8867C105.417 80.8867 105.064 81.0171 104.651 81.2778V85H103.302V79.9111H104.651V80.623C105.073 80.2773 105.41 80.0488 105.662 79.9375C105.917 79.8262 106.182 79.7705 106.458 79.7705C107.53 79.7705 108.066 80.3989 108.066 81.6558V85ZM112.43 84.9692C112.069 85.0571 111.684 85.1011 111.274 85.1011C110.667 85.1011 110.224 84.9722 109.942 84.7144C109.661 84.4536 109.521 84.0332 109.521 83.4531V80.8032H108.853V79.9111H109.525V78.4829H110.87V79.9111H112.43V80.8032H110.87V82.8994C110.87 83.4385 110.938 83.79 111.076 83.9541C111.214 84.1182 111.445 84.2002 111.771 84.2002C111.979 84.2002 112.185 84.1489 112.39 84.0464H112.43V84.9692ZM114.658 79.2739H113.212V78.083H114.658V79.2739ZM114.609 85H113.26V79.9111H114.609V85ZM119.013 84.9692C118.652 85.0571 118.267 85.1011 117.857 85.1011C117.25 85.1011 116.807 84.9722 116.525 84.7144C116.244 84.4536 116.104 84.0332 116.104 83.4531V80.8032H115.436V79.9111H116.108V78.4829H117.453V79.9111H119.013V80.8032H117.453V82.8994C117.453 83.4385 117.521 83.79 117.659 83.9541C117.797 84.1182 118.028 84.2002 118.354 84.2002C118.562 84.2002 118.768 84.1489 118.973 84.0464H119.013V84.9692ZM124.567 79.9111L121.777 86.8325H120.353L121.126 85.0088L119.136 79.9111H120.599L121.882 83.5454L123.179 79.9111H124.567ZM129.977 85H125.38V78.3774H126.831V83.9014H129.977V85ZM132.122 79.2739H130.676V78.083H132.122V79.2739ZM132.073 85H130.724V79.9111H132.073V85ZM133.128 84.7583V83.5103H133.181C133.787 83.9995 134.426 84.2441 135.097 84.2441C135.776 84.2441 136.116 84.0596 136.116 83.6904C136.116 83.541 136.063 83.4282 135.958 83.3521C135.853 83.2729 135.662 83.2026 135.387 83.1411C135.196 83.106 134.925 83.0488 134.574 82.9697C134.222 82.8906 133.945 82.7808 133.743 82.6401C133.544 82.4995 133.396 82.3296 133.299 82.1304C133.203 81.9312 133.154 81.7012 133.154 81.4404C133.154 80.9453 133.37 80.5439 133.8 80.2363C134.231 79.9258 134.81 79.7705 135.536 79.7705C136.178 79.7705 136.756 79.8833 137.272 80.1089V81.2954H137.237C136.648 80.8765 136.078 80.667 135.527 80.667C135.243 80.667 135.006 80.7197 134.815 80.8252C134.625 80.9307 134.53 81.0625 134.53 81.2207C134.53 81.3994 134.588 81.5298 134.706 81.6118C134.826 81.6909 135.025 81.7627 135.303 81.8271C135.658 81.8916 136.011 81.9692 136.362 82.0601C136.714 82.1509 136.991 82.312 137.193 82.5435C137.395 82.772 137.496 83.0679 137.496 83.4312C137.496 83.9497 137.276 84.3643 136.837 84.6748C136.4 84.9854 135.81 85.1406 135.066 85.1406C134.328 85.1406 133.682 85.0132 133.128 84.7583ZM141.425 84.9692C141.064 85.0571 140.679 85.1011 140.269 85.1011C139.663 85.1011 139.219 84.9722 138.938 84.7144C138.656 84.4536 138.516 84.0332 138.516 83.4531V80.8032H137.848V79.9111H138.52V78.4829H139.865V79.9111H141.425V80.8032H139.865V82.8994C139.865 83.4385 139.934 83.79 140.071 83.9541C140.209 84.1182 140.44 84.2002 140.766 84.2002C140.974 84.2002 141.18 84.1489 141.385 84.0464H141.425V84.9692Z" fill="white"/>
<rect x="167" y="168" width="66" height="24" rx="2" fill="#282828"/>
<path d="M180.862 183H176.248V176.377H180.862V177.476H177.689V178.891H180.638V179.985H177.689V181.901H180.862V183ZM186.803 183H185.445V180.464C185.445 179.755 185.366 179.316 185.208 179.146C185.053 178.973 184.799 178.887 184.448 178.887C184.155 178.887 183.802 179.017 183.389 179.278V183H182.04V177.911H183.389V178.623C183.811 178.277 184.147 178.049 184.399 177.938C184.654 177.826 184.919 177.771 185.195 177.771C186.267 177.771 186.803 178.399 186.803 179.656V183ZM191.167 182.969C190.807 183.057 190.421 183.101 190.011 183.101C189.405 183.101 188.961 182.972 188.68 182.714C188.398 182.454 188.258 182.033 188.258 181.453V178.803H187.59V177.911H188.262V176.483H189.607V177.911H191.167V178.803H189.607V180.899C189.607 181.438 189.676 181.79 189.813 181.954C189.951 182.118 190.183 182.2 190.508 182.2C190.716 182.2 190.922 182.149 191.127 182.046H191.167V182.969ZM193.395 177.274H191.949V176.083H193.395V177.274ZM193.347 183H191.998V177.911H193.347V183ZM197.75 182.969C197.39 183.057 197.004 183.101 196.594 183.101C195.988 183.101 195.544 182.972 195.263 182.714C194.981 182.454 194.841 182.033 194.841 181.453V178.803H194.173V177.911H194.845V176.483H196.19V177.911H197.75V178.803H196.19V180.899C196.19 181.438 196.259 181.79 196.396 181.954C196.534 182.118 196.766 182.2 197.091 182.2C197.299 182.2 197.505 182.149 197.71 182.046H197.75V182.969ZM203.305 177.911L200.514 184.833H199.09L199.864 183.009L197.873 177.911H199.336L200.62 181.545L201.916 177.911H203.305ZM207.427 183H203.814V182.011H204.896V177.366H203.814V176.377H207.427V177.366H206.346V182.011H207.427V183ZM212.331 182.75C211.763 183.007 211.249 183.136 210.789 183.136C209.898 183.136 209.204 182.906 208.706 182.446C208.208 181.986 207.958 181.33 207.958 180.478C207.958 179.619 208.21 178.954 208.714 178.482C209.218 178.008 209.892 177.771 210.736 177.771C211.287 177.771 211.818 177.901 212.331 178.162V179.401H212.261C211.763 178.956 211.272 178.733 210.789 178.733C210.34 178.733 209.992 178.887 209.743 179.194C209.494 179.502 209.369 179.93 209.369 180.478C209.369 181.025 209.494 181.446 209.743 181.739C209.995 182.029 210.351 182.174 210.811 182.174C211.3 182.174 211.783 181.951 212.261 181.506H212.331V182.75ZM215.491 183.158C214.665 183.158 214.023 182.921 213.566 182.446C213.109 181.969 212.88 181.307 212.88 180.46C212.88 179.61 213.11 178.947 213.57 178.469C214.033 177.992 214.673 177.753 215.491 177.753C216.314 177.753 216.954 177.992 217.411 178.469C217.871 178.947 218.101 179.61 218.101 180.46C218.101 181.307 217.871 181.969 217.411 182.446C216.954 182.921 216.314 183.158 215.491 183.158ZM215.491 178.693C214.691 178.693 214.291 179.287 214.291 180.473C214.291 181.636 214.697 182.218 215.508 182.218C216.296 182.218 216.69 181.636 216.69 180.473C216.69 179.287 216.291 178.693 215.491 178.693ZM223.875 183H222.518V180.464C222.518 179.755 222.438 179.316 222.28 179.146C222.125 178.973 221.872 178.887 221.52 178.887C221.227 178.887 220.874 179.017 220.461 179.278V183H219.112V177.911H220.461V178.623C220.883 178.277 221.22 178.049 221.472 177.938C221.727 177.826 221.992 177.771 222.267 177.771C223.339 177.771 223.875 178.399 223.875 179.656V183Z" fill="white"/>
<line x1="201" y1="152" x2="201" y2="168" stroke="#282828" stroke-width="2"/>
<line x1="244" y1="149" x2="244" y2="169" stroke="#282828" stroke-width="2"/>
<line x1="457" y1="168" x2="457" y2="148" stroke="#282828" stroke-width="2"/>
<rect x="65" y="128" width="85" height="24" rx="2" fill="#282828"/>
<path d="M73.8423 142.604V141.203H73.9917C74.3198 141.472 74.6963 141.686 75.1211 141.844C75.5488 142.002 75.959 142.082 76.3516 142.082C76.7588 142.082 77.0869 142.008 77.3359 141.862C77.585 141.715 77.7095 141.512 77.7095 141.251C77.7095 141.049 77.6494 140.888 77.5293 140.768C77.4121 140.647 77.188 140.548 76.8569 140.469C76.6196 140.425 76.2139 140.338 75.6396 140.209C75.0684 140.081 74.6318 139.855 74.3301 139.533C74.0312 139.208 73.8818 138.793 73.8818 138.289C73.8818 137.688 74.1382 137.201 74.6509 136.826C75.1636 136.448 75.8228 136.259 76.6284 136.259C77.4487 136.259 78.2192 136.408 78.9399 136.707V138.047H78.7949C78.1797 137.549 77.4736 137.3 76.6768 137.3C76.2988 137.3 75.9868 137.371 75.7407 137.511C75.4976 137.652 75.376 137.844 75.376 138.087C75.376 138.295 75.4448 138.46 75.5825 138.583C75.7231 138.707 75.9619 138.808 76.2988 138.887C76.6357 138.948 77.0107 139.03 77.4238 139.133C77.8398 139.232 78.1489 139.345 78.3511 139.471C78.5562 139.597 78.7188 139.735 78.8389 139.884C78.9619 140.031 79.0527 140.195 79.1113 140.376C79.1729 140.558 79.2036 140.759 79.2036 140.979C79.2036 141.623 78.9399 142.142 78.4126 142.534C77.8882 142.927 77.1924 143.123 76.3252 143.123C75.4814 143.123 74.6538 142.95 73.8423 142.604ZM84.7803 140.667H81.1724C81.231 141.686 81.8096 142.196 82.9082 142.196C83.4824 142.196 84.0596 141.988 84.6396 141.572H84.688V142.741C83.9995 143.004 83.3521 143.136 82.7456 143.136C81.7905 143.136 81.0625 142.909 80.5615 142.455C80.0605 142.001 79.8101 141.346 79.8101 140.491C79.8101 139.641 80.0474 138.973 80.522 138.487C80.9966 137.998 81.6514 137.753 82.4863 137.753C84.0156 137.753 84.7803 138.566 84.7803 140.192V140.667ZM83.4312 139.902C83.4194 139.026 83.0635 138.588 82.3633 138.588C81.6191 138.588 81.2222 139.026 81.1724 139.902H83.4312ZM87.127 143H85.7778V136.083H87.127V143ZM93.1123 140.667H89.5044C89.563 141.686 90.1416 142.196 91.2402 142.196C91.8145 142.196 92.3916 141.988 92.9717 141.572H93.02V142.741C92.3315 143.004 91.6841 143.136 91.0776 143.136C90.1226 143.136 89.3945 142.909 88.8936 142.455C88.3926 142.001 88.1421 141.346 88.1421 140.491C88.1421 139.641 88.3794 138.973 88.854 138.487C89.3286 137.998 89.9834 137.753 90.8184 137.753C92.3477 137.753 93.1123 138.566 93.1123 140.192V140.667ZM91.7632 139.902C91.7515 139.026 91.3955 138.588 90.6953 138.588C89.9512 138.588 89.5542 139.026 89.5044 139.902H91.7632ZM98.0957 142.75C97.5273 143.007 97.0132 143.136 96.5532 143.136C95.6626 143.136 94.9683 142.906 94.4702 142.446C93.9722 141.986 93.7231 141.33 93.7231 140.478C93.7231 139.619 93.9751 138.954 94.479 138.482C94.9829 138.008 95.6567 137.771 96.5005 137.771C97.0513 137.771 97.583 137.901 98.0957 138.162V139.401H98.0254C97.5273 138.956 97.0366 138.733 96.5532 138.733C96.105 138.733 95.7563 138.887 95.5073 139.194C95.2583 139.502 95.1338 139.93 95.1338 140.478C95.1338 141.025 95.2583 141.446 95.5073 141.739C95.7593 142.029 96.1152 142.174 96.5752 142.174C97.0645 142.174 97.5479 141.951 98.0254 141.506H98.0957V142.75ZM102.033 142.969C101.673 143.057 101.288 143.101 100.877 143.101C100.271 143.101 99.8271 142.972 99.5459 142.714C99.2646 142.454 99.124 142.033 99.124 141.453V138.803H98.4561V137.911H99.1284V136.483H100.473V137.911H102.033V138.803H100.473V140.899C100.473 141.438 100.542 141.79 100.68 141.954C100.817 142.118 101.049 142.2 101.374 142.2C101.582 142.2 101.789 142.149 101.994 142.046H102.033V142.969ZM107.412 140.667H103.804C103.863 141.686 104.441 142.196 105.54 142.196C106.114 142.196 106.691 141.988 107.271 141.572H107.32V142.741C106.631 143.004 105.984 143.136 105.377 143.136C104.422 143.136 103.694 142.909 103.193 142.455C102.692 142.001 102.442 141.346 102.442 140.491C102.442 139.641 102.679 138.973 103.154 138.487C103.628 137.998 104.283 137.753 105.118 137.753C106.647 137.753 107.412 138.566 107.412 140.192V140.667ZM106.063 139.902C106.051 139.026 105.695 138.588 104.995 138.588C104.251 138.588 103.854 139.026 103.804 139.902H106.063ZM113.002 143H111.653V142.332C111.213 142.689 110.882 142.914 110.66 143.004C110.437 143.095 110.198 143.141 109.943 143.141C109.36 143.141 108.896 142.905 108.55 142.433C108.205 141.958 108.032 141.314 108.032 140.5C108.032 139.691 108.241 139.035 108.66 138.531C109.079 138.024 109.599 137.771 110.22 137.771C110.443 137.771 110.646 137.795 110.831 137.845C111.016 137.895 111.29 138.015 111.653 138.206V136.083H113.002V143ZM111.653 141.695V138.939C111.36 138.813 111.087 138.75 110.835 138.75C109.898 138.75 109.429 139.322 109.429 140.464C109.429 141.042 109.526 141.459 109.719 141.717C109.913 141.972 110.216 142.099 110.629 142.099C110.939 142.099 111.281 141.964 111.653 141.695ZM119.106 143H114.492V136.377H119.106V137.476H115.933V138.891H118.882V139.985H115.933V141.901H119.106V143ZM125.047 143H123.689V140.464C123.689 139.755 123.61 139.316 123.452 139.146C123.297 138.973 123.043 138.887 122.692 138.887C122.399 138.887 122.046 139.017 121.633 139.278V143H120.284V137.911H121.633V138.623C122.055 138.277 122.392 138.049 122.644 137.938C122.898 137.826 123.164 137.771 123.439 137.771C124.511 137.771 125.047 138.399 125.047 139.656V143ZM129.411 142.969C129.051 143.057 128.666 143.101 128.255 143.101C127.649 143.101 127.205 142.972 126.924 142.714C126.643 142.454 126.502 142.033 126.502 141.453V138.803H125.834V137.911H126.506V136.483H127.851V137.911H129.411V138.803H127.851V140.899C127.851 141.438 127.92 141.79 128.058 141.954C128.195 142.118 128.427 142.2 128.752 142.2C128.96 142.2 129.167 142.149 129.372 142.046H129.411V142.969ZM131.639 137.274H130.193V136.083H131.639V137.274ZM131.591 143H130.242V137.911H131.591V143ZM135.994 142.969C135.634 143.057 135.249 143.101 134.838 143.101C134.232 143.101 133.788 142.972 133.507 142.714C133.226 142.454 133.085 142.033 133.085 141.453V138.803H132.417V137.911H133.089V136.483H134.434V137.911H135.994V138.803H134.434V140.899C134.434 141.438 134.503 141.79 134.641 141.954C134.778 142.118 135.01 142.2 135.335 142.2C135.543 142.2 135.75 142.149 135.955 142.046H135.994V142.969ZM141.549 137.911L138.758 144.833H137.334L138.108 143.009L136.117 137.911H137.581L138.864 141.545L140.16 137.911H141.549Z" fill="white"/>
<line y1="-1" x2="22" y2="-1" transform="matrix(-1 0 0 1 165 83.5454)" stroke="#282828" stroke-width="2"/>
<line y1="-1" x2="22" y2="-1" transform="matrix(-1 0 0 1 187 67)" stroke="#282828" stroke-width="2"/>
<line y1="-1" x2="91" y2="-1" transform="matrix(-7.74956e-08 -1 -1 2.46554e-08 165 158)" stroke="#282828" stroke-width="2"/>
<line y1="-1" x2="22" y2="-1" transform="matrix(-1 0 0 1 187 158)" stroke="#282828" stroke-width="2"/>
<line x1="178" y1="140.938" x2="149" y2="140.938" stroke="#282828" stroke-width="2"/>
<line y1="-1" x2="9.5" y2="-1" transform="matrix(-1 0 0 1 187 127)" stroke="#282828" stroke-width="2"/>
<line y1="-1" x2="27" y2="-1" transform="matrix(-1.87123e-07 -1 -1 1.02109e-08 177.5 154)" stroke="#282828" stroke-width="2"/>
<line y1="-1" x2="9.5" y2="-1" transform="matrix(-1 0 0 1 187 154)" stroke="#282828" stroke-width="2"/>
<defs>
<filter id="filter0_ii_903_1689" x="187" y="24" width="252" height="36" filterUnits="userSpaceOnUse" color-interpolation-filters="sRGB">
<feFlood flood-opacity="0" result="BackgroundImageFix"/>
<feBlend mode="normal" in="SourceGraphic" in2="BackgroundImageFix" result="shape"/>
<feColorMatrix in="SourceAlpha" type="matrix" values="0 0 0 0 0 0 0 0 0 0 0 0 0 0 0 0 0 0 127 0" result="hardAlpha"/>
<feOffset dx="2" dy="2"/>
<feGaussianBlur stdDeviation="2"/>
<feComposite in2="hardAlpha" operator="arithmetic" k2="-1" k3="1"/>
<feColorMatrix type="matrix" values="0 0 0 0 0.960784 0 0 0 0 0.960784 0 0 0 0 0.960784 0 0 0 1 0"/>
<feBlend mode="darken" in2="shape" result="effect1_innerShadow_903_1689"/>
<feColorMatrix in="SourceAlpha" type="matrix" values="0 0 0 0 0 0 0 0 0 0 0 0 0 0 0 0 0 0 127 0" result="hardAlpha"/>
<feOffset dx="-2" dy="-2"/>
<feGaussianBlur stdDeviation="2"/>
<feComposite in2="hardAlpha" operator="arithmetic" k2="-1" k3="1"/>
<feColorMatrix type="matrix" values="0 0 0 0 0.960784 0 0 0 0 0.960784 0 0 0 0 0.960784 0 0 0 1 0"/>
<feBlend mode="darken" in2="effect1_innerShadow_903_1689" result="effect2_innerShadow_903_1689"/>
</filter>
<clipPath id="clip0_903_1689">
<rect width="248" height="32" fill="white" transform="translate(189 26)"/>
</clipPath>
<clipPath id="clip1_903_1689">
<rect width="24" height="24" fill="white" transform="translate(189 66)"/>
</clipPath>
<clipPath id="clip2_903_1689">
<rect width="24" height="24" fill="white" transform="translate(189 98)"/>
</clipPath>
<clipPath id="clip3_903_1689">
<rect width="24" height="24" fill="white" transform="translate(189 130)"/>
</clipPath>
</defs>
</svg>
