<svg width="483" height="325" viewBox="0 0 483 325" fill="none" xmlns="http://www.w3.org/2000/svg">
<g clip-path="url(#clip0_935_2965)">
<rect width="483" height="325" fill="white"/>
<path d="M228 151L228 271" stroke="#282828" stroke-width="2"/>
<path fill-rule="evenodd" clip-rule="evenodd" d="M231 84L231 110H216H215V111V117H217V112H231H233H307V117H309V111V110H308H233L233 84H231Z" fill="#282828"/>
<path fill-rule="evenodd" clip-rule="evenodd" d="M330.965 78L330.965 110H314.105H313.105V111V117H315.105V112H330.965H332.965H348.337V117H350.337V111V110H349.337H332.965L332.965 78H330.965Z" fill="#282828"/>
<path fill-rule="evenodd" clip-rule="evenodd" d="M199 119H198V120V133.127L112 133.127V135.127H198V149.996V150.996H199H209V148.996H200V121H209V119H199Z" fill="#282828"/>
<rect x="206" y="271" width="86" height="24" rx="2" fill="#282828"/>
<path d="M215.035 286V279.377H217.104C218.042 279.377 218.773 279.498 219.297 279.738C219.822 279.978 220.235 280.347 220.537 280.845C220.841 281.343 220.994 281.96 220.994 282.695C220.994 283.36 220.835 283.958 220.519 284.488C220.206 285.016 219.785 285.399 219.258 285.64C218.73 285.88 218.019 286 217.122 286H215.035ZM216.485 280.419V284.958H217.197C218.717 284.958 219.478 284.2 219.478 282.682C219.478 281.173 218.717 280.419 217.197 280.419H216.485ZM223.455 280.274H222.009V279.083H223.455V280.274ZM223.406 286H222.057V280.911H223.406V286ZM228.249 282.287H228.205C228.023 282.24 227.78 282.216 227.476 282.216C226.998 282.216 226.559 282.292 226.157 282.445V286H224.808V280.911H226.157V281.834C226.57 281.462 226.91 281.213 227.177 281.087C227.443 280.958 227.706 280.894 227.963 280.894C228.031 280.894 228.126 280.896 228.249 280.902V282.287ZM233.619 283.667H230.011C230.07 284.686 230.648 285.196 231.747 285.196C232.321 285.196 232.898 284.988 233.479 284.572H233.527V285.741C232.838 286.004 232.191 286.136 231.584 286.136C230.629 286.136 229.901 285.909 229.4 285.455C228.899 285.001 228.649 284.346 228.649 283.491C228.649 282.641 228.886 281.973 229.361 281.487C229.835 280.998 230.49 280.753 231.325 280.753C232.854 280.753 233.619 281.566 233.619 283.192V283.667ZM232.27 282.902C232.258 282.026 231.902 281.588 231.202 281.588C230.458 281.588 230.061 282.026 230.011 282.902H232.27ZM238.603 285.75C238.034 286.007 237.52 286.136 237.06 286.136C236.169 286.136 235.475 285.906 234.977 285.446C234.479 284.986 234.23 284.33 234.23 283.478C234.23 282.619 234.482 281.954 234.986 281.482C235.49 281.008 236.164 280.771 237.007 280.771C237.558 280.771 238.09 280.901 238.603 281.162V282.401H238.532C238.034 281.956 237.543 281.733 237.06 281.733C236.612 281.733 236.263 281.887 236.014 282.194C235.765 282.502 235.641 282.93 235.641 283.478C235.641 284.025 235.765 284.446 236.014 284.739C236.266 285.029 236.622 285.174 237.082 285.174C237.571 285.174 238.055 284.951 238.532 284.506H238.603V285.75ZM242.54 285.969C242.18 286.057 241.794 286.101 241.384 286.101C240.778 286.101 240.334 285.972 240.053 285.714C239.771 285.454 239.631 285.033 239.631 284.453V281.803H238.963V280.911H239.635V279.483H240.98V280.911H242.54V281.803H240.98V283.899C240.98 284.438 241.049 284.79 241.187 284.954C241.324 285.118 241.556 285.2 241.881 285.2C242.089 285.2 242.295 285.149 242.5 285.046H242.54V285.969ZM245.559 286.158C244.733 286.158 244.091 285.921 243.634 285.446C243.177 284.969 242.949 284.307 242.949 283.46C242.949 282.61 243.179 281.947 243.639 281.469C244.102 280.992 244.742 280.753 245.559 280.753C246.382 280.753 247.022 280.992 247.479 281.469C247.939 281.947 248.169 282.61 248.169 283.46C248.169 284.307 247.939 284.969 247.479 285.446C247.022 285.921 246.382 286.158 245.559 286.158ZM245.559 281.693C244.759 281.693 244.359 282.287 244.359 283.473C244.359 284.636 244.765 285.218 245.577 285.218C246.365 285.218 246.759 284.636 246.759 283.473C246.759 282.287 246.359 281.693 245.559 281.693ZM252.621 282.287H252.577C252.396 282.24 252.152 282.216 251.848 282.216C251.37 282.216 250.931 282.292 250.529 282.445V286H249.18V280.911H250.529V281.834C250.942 281.462 251.282 281.213 251.549 281.087C251.815 280.958 252.078 280.894 252.335 280.894C252.403 280.894 252.498 280.896 252.621 280.902V282.287ZM258.299 280.911L255.508 287.833H254.084L254.858 286.009L252.867 280.911H254.331L255.614 284.545L256.91 280.911H258.299ZM263.708 286H259.112V279.377H260.562V284.901H263.708V286ZM268.771 286H267.431V285.336C267.018 285.691 266.682 285.912 266.424 286C266.169 286.091 265.897 286.136 265.607 286.136C265.162 286.136 264.792 285.993 264.5 285.706C264.207 285.416 264.06 285.043 264.06 284.589C264.06 284.015 264.275 283.58 264.706 283.284C265.14 282.988 266.052 282.804 267.444 282.73V282.594C267.444 282.275 267.334 282.043 267.114 281.9C266.895 281.756 266.531 281.685 266.024 281.685C265.679 281.685 265.184 281.816 264.539 282.08H264.491V281.012C265.17 280.848 265.786 280.766 266.336 280.766C267.195 280.766 267.814 280.905 268.195 281.184C268.579 281.459 268.771 281.898 268.771 282.502V286ZM267.431 284.761V283.478C266.546 283.551 265.992 283.665 265.77 283.82C265.547 283.973 265.436 284.185 265.436 284.458C265.436 284.748 265.513 284.95 265.668 285.064C265.824 285.178 266.067 285.235 266.398 285.235C266.747 285.235 267.091 285.077 267.431 284.761ZM271.478 285.64L271.39 286H270.125V279.083H271.474V281.592C271.866 281.261 272.186 281.042 272.432 280.933C272.681 280.825 272.943 280.771 273.218 280.771C273.816 280.771 274.277 281 274.603 281.46C274.931 281.92 275.095 282.566 275.095 283.398C275.095 284.213 274.887 284.874 274.471 285.38C274.055 285.887 273.536 286.141 272.915 286.141C272.47 286.141 271.991 285.974 271.478 285.64ZM271.474 282.172V284.994C271.772 285.105 272.046 285.161 272.295 285.161C273.23 285.161 273.697 284.585 273.697 283.434C273.697 282.353 273.306 281.812 272.524 281.812C272.205 281.812 271.854 281.932 271.474 282.172ZM280.702 283.667H277.094C277.153 284.686 277.731 285.196 278.83 285.196C279.404 285.196 279.981 284.988 280.562 284.572H280.61V285.741C279.921 286.004 279.274 286.136 278.667 286.136C277.712 286.136 276.984 285.909 276.483 285.455C275.982 285.001 275.732 284.346 275.732 283.491C275.732 282.641 275.969 281.973 276.444 281.487C276.918 280.998 277.573 280.753 278.408 280.753C279.938 280.753 280.702 281.566 280.702 283.192V283.667ZM279.353 282.902C279.341 282.026 278.985 281.588 278.285 281.588C277.541 281.588 277.144 282.026 277.094 282.902H279.353ZM283.049 286H281.7V279.083H283.049V286Z" fill="white"/>
<rect x="104" y="123" width="85" height="24" rx="2" fill="#282828"/>
<path d="M112.895 138V131.377H114.965C115.902 131.377 116.633 131.498 117.158 131.738C117.682 131.978 118.095 132.347 118.397 132.845C118.702 133.343 118.854 133.96 118.854 134.695C118.854 135.36 118.696 135.958 118.379 136.488C118.066 137.016 117.646 137.399 117.118 137.64C116.591 137.88 115.879 138 114.982 138H112.895ZM114.345 132.419V136.958H115.057C116.578 136.958 117.338 136.2 117.338 134.682C117.338 133.173 116.578 132.419 115.057 132.419H114.345ZM121.315 132.274H119.869V131.083H121.315V132.274ZM121.267 138H119.917V132.911H121.267V138ZM126.109 134.287H126.065C125.884 134.24 125.641 134.216 125.336 134.216C124.858 134.216 124.419 134.292 124.018 134.445V138H122.668V132.911H124.018V133.834C124.431 133.462 124.771 133.213 125.037 133.087C125.304 132.958 125.566 132.894 125.824 132.894C125.891 132.894 125.986 132.896 126.109 132.902V134.287ZM131.479 135.667H127.872C127.93 136.686 128.509 137.196 129.607 137.196C130.182 137.196 130.759 136.988 131.339 136.572H131.387V137.741C130.699 138.004 130.051 138.136 129.445 138.136C128.49 138.136 127.762 137.909 127.261 137.455C126.76 137.001 126.509 136.346 126.509 135.491C126.509 134.641 126.747 133.973 127.221 133.487C127.696 132.998 128.351 132.753 129.186 132.753C130.715 132.753 131.479 133.566 131.479 135.192V135.667ZM130.13 134.902C130.119 134.026 129.763 133.588 129.062 133.588C128.318 133.588 127.921 134.026 127.872 134.902H130.13ZM136.463 137.75C135.895 138.007 135.38 138.136 134.92 138.136C134.03 138.136 133.335 137.906 132.837 137.446C132.339 136.986 132.09 136.33 132.09 135.478C132.09 134.619 132.342 133.954 132.846 133.482C133.35 133.008 134.024 132.771 134.868 132.771C135.418 132.771 135.95 132.901 136.463 133.162V134.401H136.393C135.895 133.956 135.404 133.733 134.92 133.733C134.472 133.733 134.124 133.887 133.875 134.194C133.625 134.502 133.501 134.93 133.501 135.478C133.501 136.025 133.625 136.446 133.875 136.739C134.126 137.029 134.482 137.174 134.942 137.174C135.432 137.174 135.915 136.951 136.393 136.506H136.463V137.75ZM140.4 137.969C140.04 138.057 139.655 138.101 139.245 138.101C138.638 138.101 138.194 137.972 137.913 137.714C137.632 137.454 137.491 137.033 137.491 136.453V133.803H136.823V132.911H137.496V131.483H138.84V132.911H140.4V133.803H138.84V135.899C138.84 136.438 138.909 136.79 139.047 136.954C139.185 137.118 139.416 137.2 139.741 137.2C139.949 137.2 140.156 137.149 140.361 137.046H140.4V137.969ZM143.419 138.158C142.593 138.158 141.952 137.921 141.495 137.446C141.038 136.969 140.809 136.307 140.809 135.46C140.809 134.61 141.039 133.947 141.499 133.469C141.962 132.992 142.602 132.753 143.419 132.753C144.243 132.753 144.883 132.992 145.34 133.469C145.8 133.947 146.03 134.61 146.03 135.46C146.03 136.307 145.8 136.969 145.34 137.446C144.883 137.921 144.243 138.158 143.419 138.158ZM143.419 133.693C142.62 133.693 142.22 134.287 142.22 135.473C142.22 136.636 142.625 137.218 143.437 137.218C144.225 137.218 144.619 136.636 144.619 135.473C144.619 134.287 144.219 133.693 143.419 133.693ZM150.481 134.287H150.438C150.256 134.24 150.013 134.216 149.708 134.216C149.23 134.216 148.791 134.292 148.39 134.445V138H147.041V132.911H148.39V133.834C148.803 133.462 149.143 133.213 149.409 133.087C149.676 132.958 149.938 132.894 150.196 132.894C150.263 132.894 150.358 132.896 150.481 132.902V134.287ZM156.159 132.911L153.369 139.833H151.945L152.718 138.009L150.728 132.911H152.191L153.474 136.545L154.771 132.911H156.159ZM162.685 138H161.288L158.317 133.144V138H156.972V131.377H158.73L161.34 135.658V131.377H162.685V138ZM166.394 138.158C165.568 138.158 164.926 137.921 164.469 137.446C164.012 136.969 163.784 136.307 163.784 135.46C163.784 134.61 164.014 133.947 164.474 133.469C164.937 132.992 165.577 132.753 166.394 132.753C167.217 132.753 167.857 132.992 168.314 133.469C168.774 133.947 169.004 134.61 169.004 135.46C169.004 136.307 168.774 136.969 168.314 137.446C167.857 137.921 167.217 138.158 166.394 138.158ZM166.394 133.693C165.594 133.693 165.194 134.287 165.194 135.473C165.194 136.636 165.6 137.218 166.412 137.218C167.2 137.218 167.594 136.636 167.594 135.473C167.594 134.287 167.194 133.693 166.394 133.693ZM174.607 138H173.258V137.332C172.819 137.689 172.488 137.914 172.265 138.004C172.042 138.095 171.804 138.141 171.549 138.141C170.966 138.141 170.501 137.905 170.156 137.433C169.81 136.958 169.637 136.314 169.637 135.5C169.637 134.691 169.847 134.035 170.266 133.531C170.685 133.024 171.205 132.771 171.826 132.771C172.048 132.771 172.252 132.795 172.437 132.845C172.621 132.895 172.895 133.015 173.258 133.206V131.083H174.607V138ZM173.258 136.695V133.939C172.965 133.813 172.693 133.75 172.441 133.75C171.503 133.75 171.035 134.322 171.035 135.464C171.035 136.042 171.131 136.459 171.325 136.717C171.518 136.972 171.821 137.099 172.234 137.099C172.545 137.099 172.886 136.964 173.258 136.695ZM180.593 135.667H176.985C177.043 136.686 177.622 137.196 178.721 137.196C179.295 137.196 179.872 136.988 180.452 136.572H180.5V137.741C179.812 138.004 179.165 138.136 178.558 138.136C177.603 138.136 176.875 137.909 176.374 137.455C175.873 137.001 175.623 136.346 175.623 135.491C175.623 134.641 175.86 133.973 176.334 133.487C176.809 132.998 177.464 132.753 178.299 132.753C179.828 132.753 180.593 133.566 180.593 135.192V135.667ZM179.244 134.902C179.232 134.026 178.876 133.588 178.176 133.588C177.432 133.588 177.035 134.026 176.985 134.902H179.244Z" fill="white"/>
<rect x="127" y="64" width="122" height="24" rx="2" fill="#282828"/>
<path d="M135.854 78.6045V77.2026H136.004C136.332 77.4722 136.708 77.686 137.133 77.8442C137.561 78.0024 137.971 78.0815 138.364 78.0815C138.771 78.0815 139.099 78.0083 139.348 77.8618C139.597 77.7153 139.722 77.5117 139.722 77.251C139.722 77.0488 139.662 76.8877 139.542 76.7676C139.424 76.6475 139.2 76.5479 138.869 76.4688C138.632 76.4248 138.226 76.3384 137.652 76.2095C137.081 76.0806 136.644 75.855 136.342 75.5327C136.043 75.2075 135.894 74.793 135.894 74.2891C135.894 73.6885 136.15 73.2007 136.663 72.8257C137.176 72.4478 137.835 72.2588 138.641 72.2588C139.461 72.2588 140.231 72.4082 140.952 72.707V74.0474H140.807C140.192 73.5493 139.486 73.3003 138.689 73.3003C138.311 73.3003 137.999 73.3706 137.753 73.5112C137.51 73.6519 137.388 73.8438 137.388 74.0869C137.388 74.2949 137.457 74.4604 137.595 74.5835C137.735 74.7065 137.974 74.8076 138.311 74.8867C138.648 74.9482 139.023 75.0303 139.436 75.1328C139.852 75.2324 140.161 75.3452 140.363 75.4712C140.568 75.5972 140.731 75.7349 140.851 75.8843C140.974 76.0308 141.065 76.1948 141.124 76.3765C141.185 76.5581 141.216 76.7588 141.216 76.9785C141.216 77.623 140.952 78.1416 140.425 78.5342C139.9 78.9268 139.205 79.123 138.337 79.123C137.494 79.123 136.666 78.9502 135.854 78.6045ZM146.792 76.6665H143.185C143.243 77.686 143.822 78.1958 144.92 78.1958C145.495 78.1958 146.072 77.9878 146.652 77.5718H146.7V78.7407C146.012 79.0044 145.364 79.1362 144.758 79.1362C143.803 79.1362 143.075 78.9092 142.574 78.4551C142.073 78.001 141.822 77.3462 141.822 76.4907C141.822 75.6411 142.06 74.9731 142.534 74.4868C143.009 73.9976 143.664 73.7529 144.499 73.7529C146.028 73.7529 146.792 74.5659 146.792 76.1919V76.6665ZM145.443 75.9019C145.432 75.0259 145.076 74.5879 144.375 74.5879C143.631 74.5879 143.234 75.0259 143.185 75.9019H145.443ZM149.139 79H147.79V72.083H149.139V79ZM155.125 76.6665H151.517C151.575 77.686 152.154 78.1958 153.252 78.1958C153.827 78.1958 154.404 77.9878 154.984 77.5718H155.032V78.7407C154.344 79.0044 153.696 79.1362 153.09 79.1362C152.135 79.1362 151.407 78.9092 150.906 78.4551C150.405 78.001 150.154 77.3462 150.154 76.4907C150.154 75.6411 150.392 74.9731 150.866 74.4868C151.341 73.9976 151.996 73.7529 152.831 73.7529C154.36 73.7529 155.125 74.5659 155.125 76.1919V76.6665ZM153.775 75.9019C153.764 75.0259 153.408 74.5879 152.708 74.5879C151.963 74.5879 151.566 75.0259 151.517 75.9019H153.775ZM160.108 78.7495C159.54 79.0073 159.025 79.1362 158.565 79.1362C157.675 79.1362 156.98 78.9062 156.482 78.4463C155.984 77.9863 155.735 77.3301 155.735 76.4775C155.735 75.6191 155.987 74.9541 156.491 74.4824C156.995 74.0078 157.669 73.7705 158.513 73.7705C159.063 73.7705 159.595 73.9009 160.108 74.1616V75.4009H160.038C159.54 74.9556 159.049 74.7329 158.565 74.7329C158.117 74.7329 157.769 74.8867 157.52 75.1943C157.271 75.502 157.146 75.9297 157.146 76.4775C157.146 77.0254 157.271 77.4458 157.52 77.7388C157.771 78.0288 158.127 78.1738 158.587 78.1738C159.077 78.1738 159.56 77.9512 160.038 77.5059H160.108V78.7495ZM164.045 78.9692C163.685 79.0571 163.3 79.1011 162.89 79.1011C162.283 79.1011 161.839 78.9722 161.558 78.7144C161.277 78.4536 161.136 78.0332 161.136 77.4531V74.8032H160.468V73.9111H161.141V72.4829H162.485V73.9111H164.045V74.8032H162.485V76.8994C162.485 77.4385 162.554 77.79 162.692 77.9541C162.83 78.1182 163.061 78.2002 163.386 78.2002C163.594 78.2002 163.801 78.1489 164.006 78.0464H164.045V78.9692ZM164.964 79V72.3774H167.034C167.971 72.3774 168.702 72.4976 169.227 72.7378C169.751 72.978 170.164 73.3472 170.466 73.8452C170.771 74.3433 170.923 74.96 170.923 75.6953C170.923 76.3604 170.765 76.958 170.448 77.4883C170.135 78.0156 169.714 78.3994 169.187 78.6396C168.66 78.8799 167.948 79 167.051 79H164.964ZM166.414 73.4189V77.9585H167.126C168.646 77.9585 169.407 77.1997 169.407 75.6821C169.407 74.1733 168.646 73.4189 167.126 73.4189H166.414ZM173.384 73.2739H171.938V72.083H173.384V73.2739ZM173.335 79H171.986V73.9111H173.335V79ZM178.178 75.2866H178.134C177.953 75.2397 177.709 75.2163 177.405 75.2163C176.927 75.2163 176.488 75.2925 176.086 75.4448V79H174.737V73.9111H176.086V74.834C176.5 74.4619 176.839 74.2129 177.106 74.0869C177.373 73.958 177.635 73.8936 177.893 73.8936C177.96 73.8936 178.055 73.8965 178.178 73.9023V75.2866ZM183.548 76.6665H179.94C179.999 77.686 180.578 78.1958 181.676 78.1958C182.25 78.1958 182.828 77.9878 183.408 77.5718H183.456V78.7407C182.768 79.0044 182.12 79.1362 181.514 79.1362C180.559 79.1362 179.831 78.9092 179.33 78.4551C178.829 78.001 178.578 77.3462 178.578 76.4907C178.578 75.6411 178.815 74.9731 179.29 74.4868C179.765 73.9976 180.419 73.7529 181.254 73.7529C182.784 73.7529 183.548 74.5659 183.548 76.1919V76.6665ZM182.199 75.9019C182.188 75.0259 181.832 74.5879 181.131 74.5879C180.387 74.5879 179.99 75.0259 179.94 75.9019H182.199ZM188.532 78.7495C187.963 79.0073 187.449 79.1362 186.989 79.1362C186.099 79.1362 185.404 78.9062 184.906 78.4463C184.408 77.9863 184.159 77.3301 184.159 76.4775C184.159 75.6191 184.411 74.9541 184.915 74.4824C185.419 74.0078 186.093 73.7705 186.937 73.7705C187.487 73.7705 188.019 73.9009 188.532 74.1616V75.4009H188.461C187.963 74.9556 187.473 74.7329 186.989 74.7329C186.541 74.7329 186.192 74.8867 185.943 75.1943C185.694 75.502 185.57 75.9297 185.57 76.4775C185.57 77.0254 185.694 77.4458 185.943 77.7388C186.195 78.0288 186.551 78.1738 187.011 78.1738C187.5 78.1738 187.984 77.9512 188.461 77.5059H188.532V78.7495ZM192.469 78.9692C192.109 79.0571 191.724 79.1011 191.313 79.1011C190.707 79.1011 190.263 78.9722 189.982 78.7144C189.701 78.4536 189.56 78.0332 189.56 77.4531V74.8032H188.892V73.9111H189.564V72.4829H190.909V73.9111H192.469V74.8032H190.909V76.8994C190.909 77.4385 190.978 77.79 191.116 77.9541C191.253 78.1182 191.485 78.2002 191.81 78.2002C192.018 78.2002 192.225 78.1489 192.43 78.0464H192.469V78.9692ZM195.488 79.1582C194.662 79.1582 194.021 78.9209 193.563 78.4463C193.106 77.9688 192.878 77.3066 192.878 76.46C192.878 75.6104 193.108 74.9468 193.568 74.4692C194.031 73.9917 194.671 73.7529 195.488 73.7529C196.312 73.7529 196.952 73.9917 197.409 74.4692C197.869 74.9468 198.099 75.6104 198.099 76.46C198.099 77.3066 197.869 77.9688 197.409 78.4463C196.952 78.9209 196.312 79.1582 195.488 79.1582ZM195.488 74.6934C194.688 74.6934 194.289 75.2866 194.289 76.4731C194.289 77.6362 194.694 78.2178 195.506 78.2178C196.294 78.2178 196.688 77.6362 196.688 76.4731C196.688 75.2866 196.288 74.6934 195.488 74.6934ZM202.55 75.2866H202.506C202.325 75.2397 202.082 75.2163 201.777 75.2163C201.299 75.2163 200.86 75.2925 200.458 75.4448V79H199.109V73.9111H200.458V74.834C200.872 74.4619 201.211 74.2129 201.478 74.0869C201.745 73.958 202.007 73.8936 202.265 73.8936C202.332 73.8936 202.427 73.8965 202.55 73.9023V75.2866ZM208.228 73.9111L205.438 80.8325H204.014L204.787 79.0088L202.796 73.9111H204.26L205.543 77.5454L206.839 73.9111H208.228ZM209.041 79V72.3774H211.423C212.431 72.3774 213.115 72.5107 213.475 72.7773C213.838 73.041 214.02 73.4146 214.02 73.8979C214.02 74.5366 213.707 75.001 213.08 75.291V75.3262C214.026 75.5254 214.499 76.0718 214.499 76.9653C214.499 77.5894 214.265 78.0845 213.796 78.4507C213.33 78.8169 212.653 79 211.766 79H209.041ZM210.482 73.4189V75.0229H211.027C211.476 75.0229 211.793 74.9995 211.981 74.9526C212.168 74.9028 212.308 74.8105 212.398 74.6758C212.489 74.5381 212.535 74.3667 212.535 74.1616C212.535 73.9976 212.494 73.8569 212.412 73.7397C212.333 73.6226 212.202 73.5405 212.021 73.4937C211.839 73.4438 211.473 73.4189 210.922 73.4189H210.482ZM210.482 76.0073V77.9585H210.935C211.336 77.9585 211.646 77.9541 211.862 77.9453C212.079 77.9365 212.275 77.894 212.451 77.8179C212.63 77.7417 212.765 77.6318 212.855 77.4883C212.949 77.3447 212.996 77.1704 212.996 76.9653C212.996 76.7427 212.948 76.5596 212.851 76.416C212.757 76.2725 212.62 76.1685 212.438 76.104C212.259 76.0396 211.839 76.0073 211.177 76.0073H210.482ZM220.26 79H218.911V78.2881C218.501 78.6221 218.167 78.8477 217.909 78.9648C217.651 79.082 217.383 79.1406 217.105 79.1406C216.033 79.1406 215.497 78.5122 215.497 77.2554V73.9111H216.854V76.4468C216.854 77.1558 216.932 77.5967 217.087 77.7695C217.243 77.9424 217.496 78.0288 217.848 78.0288C218.149 78.0288 218.504 77.897 218.911 77.6333V73.9111H220.26V79ZM224.664 78.9692C224.303 79.0571 223.918 79.1011 223.508 79.1011C222.901 79.1011 222.458 78.9722 222.176 78.7144C221.895 78.4536 221.754 78.0332 221.754 77.4531V74.8032H221.086V73.9111H221.759V72.4829H223.104V73.9111H224.664V74.8032H223.104V76.8994C223.104 77.4385 223.172 77.79 223.31 77.9541C223.448 78.1182 223.679 78.2002 224.004 78.2002C224.212 78.2002 224.419 78.1489 224.624 78.0464H224.664V78.9692ZM228.496 78.9692C228.135 79.0571 227.75 79.1011 227.34 79.1011C226.733 79.1011 226.29 78.9722 226.008 78.7144C225.727 78.4536 225.586 78.0332 225.586 77.4531V74.8032H224.918V73.9111H225.591V72.4829H226.936V73.9111H228.496V74.8032H226.936V76.8994C226.936 77.4385 227.004 77.79 227.142 77.9541C227.28 78.1182 227.511 78.2002 227.836 78.2002C228.044 78.2002 228.251 78.1489 228.456 78.0464H228.496V78.9692ZM231.515 79.1582C230.688 79.1582 230.047 78.9209 229.59 78.4463C229.133 77.9688 228.904 77.3066 228.904 76.46C228.904 75.6104 229.134 74.9468 229.594 74.4692C230.057 73.9917 230.697 73.7529 231.515 73.7529C232.338 73.7529 232.978 73.9917 233.435 74.4692C233.895 74.9468 234.125 75.6104 234.125 76.46C234.125 77.3066 233.895 77.9688 233.435 78.4463C232.978 78.9209 232.338 79.1582 231.515 79.1582ZM231.515 74.6934C230.715 74.6934 230.315 75.2866 230.315 76.4731C230.315 77.6362 230.721 78.2178 231.532 78.2178C232.32 78.2178 232.714 77.6362 232.714 76.4731C232.714 75.2866 232.314 74.6934 231.515 74.6934ZM239.899 79H238.542V76.4644C238.542 75.7554 238.462 75.3159 238.304 75.146C238.149 74.9731 237.896 74.8867 237.544 74.8867C237.251 74.8867 236.898 75.0171 236.485 75.2778V79H235.136V73.9111H236.485V74.623C236.907 74.2773 237.244 74.0488 237.496 73.9375C237.75 73.8262 238.016 73.7705 238.291 73.7705C239.363 73.7705 239.899 74.3989 239.899 75.6558V79Z" fill="white"/>
<rect x="256" y="64" width="191" height="24" rx="2" fill="#282828"/>
<path d="M270.056 78.5562C269.5 78.811 269.057 78.9707 268.729 79.0352C268.401 79.0996 268.084 79.1318 267.78 79.1318C266.766 79.1318 265.968 78.8301 265.385 78.2266C264.802 77.623 264.51 76.7808 264.51 75.6997C264.51 74.6392 264.805 73.7998 265.394 73.1816C265.985 72.5605 266.782 72.25 267.784 72.25C268.561 72.25 269.318 72.436 270.056 72.8081V74.166H269.902C269.214 73.5801 268.562 73.2871 267.947 73.2871C267.358 73.2871 266.892 73.498 266.549 73.9199C266.207 74.3389 266.035 74.9336 266.035 75.7041C266.035 76.4688 266.209 77.0591 266.558 77.4751C266.907 77.8882 267.373 78.0947 267.956 78.0947C268.26 78.0947 268.558 78.042 268.848 77.9365C269.138 77.8281 269.494 77.5894 269.916 77.2202H270.056V78.5562ZM273.264 79.1582C272.438 79.1582 271.796 78.9209 271.339 78.4463C270.882 77.9688 270.654 77.3066 270.654 76.46C270.654 75.6104 270.884 74.9468 271.344 74.4692C271.807 73.9917 272.447 73.7529 273.264 73.7529C274.087 73.7529 274.728 73.9917 275.185 74.4692C275.645 74.9468 275.875 75.6104 275.875 76.46C275.875 77.3066 275.645 77.9688 275.185 78.4463C274.728 78.9209 274.087 79.1582 273.264 79.1582ZM273.264 74.6934C272.464 74.6934 272.064 75.2866 272.064 76.4731C272.064 77.6362 272.47 78.2178 273.282 78.2178C274.07 78.2178 274.464 77.6362 274.464 76.4731C274.464 75.2866 274.064 74.6934 273.264 74.6934ZM278.234 79H276.885V72.083H278.234V79ZM280.985 79H279.636V72.083H280.985V79ZM286.703 79H285.362V78.3364C284.949 78.6909 284.614 78.9121 284.356 79C284.101 79.0908 283.829 79.1362 283.539 79.1362C283.093 79.1362 282.724 78.9927 282.431 78.7056C282.138 78.4155 281.992 78.0435 281.992 77.5894C281.992 77.0151 282.207 76.5801 282.638 76.2842C283.071 75.9883 283.984 75.8037 285.375 75.7305V75.5942C285.375 75.2749 285.266 75.0435 285.046 74.8999C284.826 74.7563 284.463 74.6846 283.956 74.6846C283.61 74.6846 283.115 74.8164 282.471 75.0801H282.422V74.0122C283.102 73.8481 283.717 73.7661 284.268 73.7661C285.126 73.7661 285.746 73.9053 286.127 74.1836C286.511 74.459 286.703 74.8984 286.703 75.502V79ZM285.362 77.7607V76.4775C284.478 76.5508 283.924 76.665 283.701 76.8203C283.479 76.9727 283.367 77.1851 283.367 77.4575C283.367 77.7476 283.445 77.9497 283.6 78.064C283.755 78.1782 283.999 78.2354 284.33 78.2354C284.678 78.2354 285.022 78.0771 285.362 77.7607ZM289.405 78.6396V80.8325H288.056V73.9111H289.405V74.5923C289.798 74.2612 290.117 74.0415 290.363 73.9331C290.612 73.8247 290.875 73.7705 291.15 73.7705C291.745 73.7705 292.206 73.999 292.534 74.4561C292.862 74.9131 293.026 75.5518 293.026 76.3721C293.026 77.1777 292.818 77.8311 292.402 78.332C291.986 78.8301 291.468 79.0791 290.847 79.0791C290.413 79.0791 289.933 78.9326 289.405 78.6396ZM289.405 75.1724V77.9761C289.646 78.0757 289.919 78.1255 290.227 78.1255C291.162 78.1255 291.629 77.5586 291.629 76.4248C291.629 75.3496 291.238 74.812 290.456 74.812C290.136 74.812 289.786 74.9321 289.405 75.1724ZM293.703 78.7583V77.5103H293.756C294.362 77.9995 295.001 78.2441 295.672 78.2441C296.352 78.2441 296.691 78.0596 296.691 77.6904C296.691 77.541 296.639 77.4282 296.533 77.3521C296.428 77.2729 296.237 77.2026 295.962 77.1411C295.771 77.106 295.5 77.0488 295.149 76.9697C294.797 76.8906 294.521 76.7808 294.318 76.6401C294.119 76.4995 293.971 76.3296 293.875 76.1304C293.778 75.9312 293.729 75.7012 293.729 75.4404C293.729 74.9453 293.945 74.5439 294.375 74.2363C294.806 73.9258 295.385 73.7705 296.111 73.7705C296.753 73.7705 297.332 73.8833 297.847 74.1089V75.2954H297.812C297.223 74.8765 296.653 74.667 296.103 74.667C295.818 74.667 295.581 74.7197 295.391 74.8252C295.2 74.9307 295.105 75.0625 295.105 75.2207C295.105 75.3994 295.164 75.5298 295.281 75.6118C295.401 75.6909 295.6 75.7627 295.878 75.8271C296.233 75.8916 296.586 75.9692 296.938 76.0601C297.289 76.1509 297.566 76.312 297.768 76.5435C297.97 76.772 298.071 77.0679 298.071 77.4312C298.071 77.9497 297.852 78.3643 297.412 78.6748C296.976 78.9854 296.385 79.1406 295.641 79.1406C294.903 79.1406 294.257 79.0132 293.703 78.7583ZM303.582 76.6665H299.974C300.033 77.686 300.611 78.1958 301.71 78.1958C302.284 78.1958 302.861 77.9878 303.441 77.5718H303.49V78.7407C302.801 79.0044 302.154 79.1362 301.547 79.1362C300.592 79.1362 299.864 78.9092 299.363 78.4551C298.862 78.001 298.612 77.3462 298.612 76.4907C298.612 75.6411 298.849 74.9731 299.324 74.4868C299.798 73.9976 300.453 73.7529 301.288 73.7529C302.817 73.7529 303.582 74.5659 303.582 76.1919V76.6665ZM302.233 75.9019C302.221 75.0259 301.865 74.5879 301.165 74.5879C300.421 74.5879 300.024 75.0259 299.974 75.9019H302.233ZM310.517 79H308.983L308.482 77.563H305.876L305.375 79H303.907L306.408 72.3774H308.016L310.517 79ZM308.117 76.5347L307.181 73.8628L306.245 76.5347H308.117ZM315.926 79H314.568V76.4644C314.568 75.7554 314.489 75.3159 314.331 75.146C314.176 74.9731 313.922 74.8867 313.571 74.8867C313.278 74.8867 312.925 75.0171 312.512 75.2778V79H311.163V73.9111H312.512V74.623C312.934 74.2773 313.271 74.0488 313.522 73.9375C313.777 73.8262 314.042 73.7705 314.318 73.7705C315.39 73.7705 315.926 74.3989 315.926 75.6558V79ZM321.881 79H320.532V78.332C320.092 78.6895 319.761 78.9136 319.539 79.0044C319.316 79.0952 319.077 79.1406 318.822 79.1406C318.239 79.1406 317.775 78.9048 317.429 78.4331C317.083 77.9585 316.911 77.314 316.911 76.4995C316.911 75.6909 317.12 75.0347 317.539 74.5308C317.958 74.0239 318.478 73.7705 319.099 73.7705C319.322 73.7705 319.525 73.7954 319.71 73.8452C319.895 73.895 320.168 74.0151 320.532 74.2056V72.083H321.881V79ZM320.532 77.6948V74.9395C320.239 74.8135 319.966 74.7505 319.714 74.7505C318.777 74.7505 318.308 75.3218 318.308 76.4644C318.308 77.0415 318.405 77.459 318.598 77.7168C318.792 77.9717 319.095 78.0991 319.508 78.0991C319.818 78.0991 320.16 77.9644 320.532 77.6948ZM327.985 79H323.371V72.3774H327.985V73.4761H324.812V74.8911H327.761V75.9854H324.812V77.9014H327.985V79ZM334.111 79H332.507L331.316 77.3169L330.107 79H328.587L330.534 76.46L328.613 73.9111H330.213L331.386 75.5635L332.568 73.9111H334.093L332.16 76.4204L334.111 79ZM336.286 78.6396V80.8325H334.937V73.9111H336.286V74.5923C336.679 74.2612 336.998 74.0415 337.244 73.9331C337.493 73.8247 337.755 73.7705 338.031 73.7705C338.625 73.7705 339.087 73.999 339.415 74.4561C339.743 74.9131 339.907 75.5518 339.907 76.3721C339.907 77.1777 339.699 77.8311 339.283 78.332C338.867 78.8301 338.349 79.0791 337.728 79.0791C337.294 79.0791 336.813 78.9326 336.286 78.6396ZM336.286 75.1724V77.9761C336.526 78.0757 336.8 78.1255 337.108 78.1255C338.042 78.1255 338.51 77.5586 338.51 76.4248C338.51 75.3496 338.119 74.812 337.336 74.812C337.017 74.812 336.667 74.9321 336.286 75.1724ZM345.247 79H343.906V78.3364C343.493 78.6909 343.158 78.9121 342.9 79C342.645 79.0908 342.373 79.1362 342.083 79.1362C341.637 79.1362 341.268 78.9927 340.975 78.7056C340.682 78.4155 340.536 78.0435 340.536 77.5894C340.536 77.0151 340.751 76.5801 341.182 76.2842C341.615 75.9883 342.528 75.8037 343.919 75.7305V75.5942C343.919 75.2749 343.81 75.0435 343.59 74.8999C343.37 74.7563 343.007 74.6846 342.5 74.6846C342.154 74.6846 341.659 74.8164 341.015 75.0801H340.966V74.0122C341.646 73.8481 342.261 73.7661 342.812 73.7661C343.67 73.7661 344.29 73.9053 344.671 74.1836C345.055 74.459 345.247 74.8984 345.247 75.502V79ZM343.906 77.7607V76.4775C343.021 76.5508 342.468 76.665 342.245 76.8203C342.022 76.9727 341.911 77.1851 341.911 77.4575C341.911 77.7476 341.989 77.9497 342.144 78.064C342.299 78.1782 342.542 78.2354 342.874 78.2354C343.222 78.2354 343.566 78.0771 343.906 77.7607ZM351.364 79H350.006V76.4644C350.006 75.7554 349.927 75.3159 349.769 75.146C349.613 74.9731 349.36 74.8867 349.008 74.8867C348.715 74.8867 348.362 75.0171 347.949 75.2778V79H346.6V73.9111H347.949V74.623C348.371 74.2773 348.708 74.0488 348.96 73.9375C349.215 73.8262 349.48 73.7705 349.755 73.7705C350.828 73.7705 351.364 74.3989 351.364 75.6558V79ZM357.318 79H355.969V78.332C355.53 78.6895 355.199 78.9136 354.976 79.0044C354.753 79.0952 354.515 79.1406 354.26 79.1406C353.677 79.1406 353.212 78.9048 352.867 78.4331C352.521 77.9585 352.348 77.314 352.348 76.4995C352.348 75.6909 352.558 75.0347 352.977 74.5308C353.396 74.0239 353.916 73.7705 354.537 73.7705C354.759 73.7705 354.963 73.7954 355.147 73.8452C355.332 73.895 355.606 74.0151 355.969 74.2056V72.083H357.318V79ZM355.969 77.6948V74.9395C355.676 74.8135 355.404 74.7505 355.152 74.7505C354.214 74.7505 353.746 75.3218 353.746 76.4644C353.746 77.0415 353.842 77.459 354.036 77.7168C354.229 77.9717 354.532 78.0991 354.945 78.0991C355.256 78.0991 355.597 77.9644 355.969 77.6948ZM363.932 78.5562C363.375 78.811 362.933 78.9707 362.605 79.0352C362.277 79.0996 361.96 79.1318 361.656 79.1318C360.642 79.1318 359.844 78.8301 359.261 78.2266C358.678 77.623 358.386 76.7808 358.386 75.6997C358.386 74.6392 358.681 73.7998 359.27 73.1816C359.861 72.5605 360.658 72.25 361.66 72.25C362.437 72.25 363.194 72.436 363.932 72.8081V74.166H363.778C363.09 73.5801 362.438 73.2871 361.823 73.2871C361.234 73.2871 360.768 73.498 360.425 73.9199C360.083 74.3389 359.911 74.9336 359.911 75.7041C359.911 76.4688 360.085 77.0591 360.434 77.4751C360.783 77.8882 361.249 78.0947 361.832 78.0947C362.136 78.0947 362.434 78.042 362.724 77.9365C363.014 77.8281 363.37 77.5894 363.792 77.2202H363.932V78.5562ZM369.68 79H368.322V76.4644C368.322 75.7554 368.243 75.3159 368.085 75.146C367.93 74.9731 367.676 74.8867 367.325 74.8867C367.032 74.8867 366.679 75.0171 366.266 75.2778V79H364.917V72.083H366.266V74.623C366.688 74.2773 367.024 74.0488 367.276 73.9375C367.531 73.8262 367.796 73.7705 368.072 73.7705C369.144 73.7705 369.68 74.3989 369.68 75.6558V79ZM372.44 73.2739H370.994V72.083H372.44V73.2739ZM372.392 79H371.042V73.9111H372.392V79ZM375.143 79H373.793V72.083H375.143V79ZM381.137 79H379.788V78.332C379.348 78.6895 379.017 78.9136 378.794 79.0044C378.572 79.0952 378.333 79.1406 378.078 79.1406C377.495 79.1406 377.031 78.9048 376.685 78.4331C376.339 77.9585 376.167 77.314 376.167 76.4995C376.167 75.6909 376.376 75.0347 376.795 74.5308C377.214 74.0239 377.734 73.7705 378.355 73.7705C378.578 73.7705 378.781 73.7954 378.966 73.8452C379.15 73.895 379.424 74.0151 379.788 74.2056V72.083H381.137V79ZM379.788 77.6948V74.9395C379.495 74.8135 379.222 74.7505 378.97 74.7505C378.033 74.7505 377.564 75.3218 377.564 76.4644C377.564 77.0415 377.661 77.459 377.854 77.7168C378.047 77.9717 378.351 78.0991 378.764 78.0991C379.074 78.0991 379.416 77.9644 379.788 77.6948ZM388.339 79H386.942L383.971 74.144V79H382.626V72.3774H384.384L386.995 76.6577V72.3774H388.339V79ZM392.048 79.1582C391.222 79.1582 390.581 78.9209 390.124 78.4463C389.667 77.9688 389.438 77.3066 389.438 76.46C389.438 75.6104 389.668 74.9468 390.128 74.4692C390.591 73.9917 391.231 73.7529 392.048 73.7529C392.872 73.7529 393.512 73.9917 393.969 74.4692C394.429 74.9468 394.659 75.6104 394.659 76.46C394.659 77.3066 394.429 77.9688 393.969 78.4463C393.512 78.9209 392.872 79.1582 392.048 79.1582ZM392.048 74.6934C391.249 74.6934 390.849 75.2866 390.849 76.4731C390.849 77.6362 391.254 78.2178 392.066 78.2178C392.854 78.2178 393.248 77.6362 393.248 76.4731C393.248 75.2866 392.848 74.6934 392.048 74.6934ZM400.262 79H398.913V78.332C398.473 78.6895 398.142 78.9136 397.919 79.0044C397.697 79.0952 397.458 79.1406 397.203 79.1406C396.62 79.1406 396.156 78.9048 395.81 78.4331C395.464 77.9585 395.292 77.314 395.292 76.4995C395.292 75.6909 395.501 75.0347 395.92 74.5308C396.339 74.0239 396.859 73.7705 397.48 73.7705C397.703 73.7705 397.906 73.7954 398.091 73.8452C398.275 73.895 398.549 74.0151 398.913 74.2056V72.083H400.262V79ZM398.913 77.6948V74.9395C398.62 74.8135 398.347 74.7505 398.095 74.7505C397.158 74.7505 396.689 75.3218 396.689 76.4644C396.689 77.0415 396.786 77.459 396.979 77.7168C397.172 77.9717 397.476 78.0991 397.889 78.0991C398.199 78.0991 398.541 77.9644 398.913 77.6948ZM406.247 76.6665H402.639C402.698 77.686 403.276 78.1958 404.375 78.1958C404.949 78.1958 405.526 77.9878 406.106 77.5718H406.155V78.7407C405.466 79.0044 404.819 79.1362 404.212 79.1362C403.257 79.1362 402.529 78.9092 402.028 78.4551C401.527 78.001 401.277 77.3462 401.277 76.4907C401.277 75.6411 401.514 74.9731 401.989 74.4868C402.463 73.9976 403.118 73.7529 403.953 73.7529C405.482 73.7529 406.247 74.5659 406.247 76.1919V76.6665ZM404.898 75.9019C404.886 75.0259 404.53 74.5879 403.83 74.5879C403.086 74.5879 402.689 75.0259 402.639 75.9019H404.898ZM407.333 79V72.3774H409.714C410.722 72.3774 411.406 72.5107 411.767 72.7773C412.13 73.041 412.312 73.4146 412.312 73.8979C412.312 74.5366 411.998 75.001 411.371 75.291V75.3262C412.317 75.5254 412.791 76.0718 412.791 76.9653C412.791 77.5894 412.556 78.0845 412.087 78.4507C411.622 78.8169 410.945 79 410.057 79H407.333ZM408.774 73.4189V75.0229H409.319C409.767 75.0229 410.085 74.9995 410.272 74.9526C410.46 74.9028 410.599 74.8105 410.69 74.6758C410.781 74.5381 410.826 74.3667 410.826 74.1616C410.826 73.9976 410.785 73.8569 410.703 73.7397C410.624 73.6226 410.494 73.5405 410.312 73.4937C410.13 73.4438 409.764 73.4189 409.213 73.4189H408.774ZM408.774 76.0073V77.9585H409.227C409.628 77.9585 409.937 77.9541 410.154 77.9453C410.371 77.9365 410.567 77.894 410.743 77.8179C410.921 77.7417 411.056 77.6318 411.147 77.4883C411.241 77.3447 411.288 77.1704 411.288 76.9653C411.288 76.7427 411.239 76.5596 411.143 76.416C411.049 76.2725 410.911 76.1685 410.729 76.104C410.551 76.0396 410.13 76.0073 409.468 76.0073H408.774ZM418.552 79H417.203V78.2881C416.792 78.6221 416.458 78.8477 416.201 78.9648C415.943 79.082 415.675 79.1406 415.396 79.1406C414.324 79.1406 413.788 78.5122 413.788 77.2554V73.9111H415.146V76.4468C415.146 77.1558 415.224 77.5967 415.379 77.7695C415.534 77.9424 415.788 78.0288 416.139 78.0288C416.441 78.0288 416.795 77.897 417.203 77.6333V73.9111H418.552V79ZM422.955 78.9692C422.595 79.0571 422.209 79.1011 421.799 79.1011C421.193 79.1011 420.749 78.9722 420.468 78.7144C420.187 78.4536 420.046 78.0332 420.046 77.4531V74.8032H419.378V73.9111H420.05V72.4829H421.395V73.9111H422.955V74.8032H421.395V76.8994C421.395 77.4385 421.464 77.79 421.602 77.9541C421.739 78.1182 421.971 78.2002 422.296 78.2002C422.504 78.2002 422.71 78.1489 422.916 78.0464H422.955V78.9692ZM426.787 78.9692C426.427 79.0571 426.042 79.1011 425.631 79.1011C425.025 79.1011 424.581 78.9722 424.3 78.7144C424.019 78.4536 423.878 78.0332 423.878 77.4531V74.8032H423.21V73.9111H423.882V72.4829H425.227V73.9111H426.787V74.8032H425.227V76.8994C425.227 77.4385 425.296 77.79 425.434 77.9541C425.571 78.1182 425.803 78.2002 426.128 78.2002C426.336 78.2002 426.542 78.1489 426.748 78.0464H426.787V78.9692ZM429.806 79.1582C428.98 79.1582 428.338 78.9209 427.881 78.4463C427.424 77.9688 427.196 77.3066 427.196 76.46C427.196 75.6104 427.426 74.9468 427.886 74.4692C428.349 73.9917 428.989 73.7529 429.806 73.7529C430.629 73.7529 431.27 73.9917 431.727 74.4692C432.187 74.9468 432.417 75.6104 432.417 76.46C432.417 77.3066 432.187 77.9688 431.727 78.4463C431.27 78.9209 430.629 79.1582 429.806 79.1582ZM429.806 74.6934C429.006 74.6934 428.606 75.2866 428.606 76.4731C428.606 77.6362 429.012 78.2178 429.824 78.2178C430.612 78.2178 431.006 77.6362 431.006 76.4731C431.006 75.2866 430.606 74.6934 429.806 74.6934ZM438.191 79H436.833V76.4644C436.833 75.7554 436.754 75.3159 436.596 75.146C436.44 74.9731 436.187 74.8867 435.835 74.8867C435.542 74.8867 435.189 75.0171 434.776 75.2778V79H433.427V73.9111H434.776V74.623C435.198 74.2773 435.535 74.0488 435.787 73.9375C436.042 73.8262 436.307 73.7705 436.583 73.7705C437.655 73.7705 438.191 74.3989 438.191 75.6558V79Z" fill="white"/>
<rect x="40" y="31" width="81" height="24" rx="2" fill="#282828"/>
<path d="M49.0176 46V39.3774H51.0874C52.0249 39.3774 52.7559 39.4976 53.2803 39.7378C53.8047 39.978 54.2178 40.3472 54.5195 40.8452C54.8242 41.3433 54.9766 41.96 54.9766 42.6953C54.9766 43.3604 54.8184 43.958 54.502 44.4883C54.1885 45.0156 53.7681 45.3994 53.2407 45.6396C52.7134 45.8799 52.0015 46 51.105 46H49.0176ZM50.4678 40.4189V44.9585H51.1797C52.7002 44.9585 53.4604 44.1997 53.4604 42.6821C53.4604 41.1733 52.7002 40.4189 51.1797 40.4189H50.4678ZM57.4375 40.2739H55.9917V39.083H57.4375V40.2739ZM57.3892 46H56.04V40.9111H57.3892V46ZM62.2319 42.2866H62.188C62.0063 42.2397 61.7632 42.2163 61.4585 42.2163C60.981 42.2163 60.5415 42.2925 60.1401 42.4448V46H58.791V40.9111H60.1401V41.834C60.5532 41.4619 60.8931 41.2129 61.1597 41.0869C61.4263 40.958 61.6885 40.8936 61.9463 40.8936C62.0137 40.8936 62.1089 40.8965 62.2319 40.9023V42.2866ZM67.6021 43.6665H63.9941C64.0527 44.686 64.6313 45.1958 65.73 45.1958C66.3042 45.1958 66.8813 44.9878 67.4614 44.5718H67.5098V45.7407C66.8213 46.0044 66.1738 46.1362 65.5674 46.1362C64.6123 46.1362 63.8843 45.9092 63.3833 45.4551C62.8823 45.001 62.6318 44.3462 62.6318 43.4907C62.6318 42.6411 62.8691 41.9731 63.3438 41.4868C63.8184 40.9976 64.4731 40.7529 65.3081 40.7529C66.8374 40.7529 67.6021 41.5659 67.6021 43.1919V43.6665ZM66.2529 42.9019C66.2412 42.0259 65.8853 41.5879 65.1851 41.5879C64.4409 41.5879 64.0439 42.0259 63.9941 42.9019H66.2529ZM72.5854 45.7495C72.0171 46.0073 71.5029 46.1362 71.043 46.1362C70.1523 46.1362 69.458 45.9062 68.96 45.4463C68.4619 44.9863 68.2129 44.3301 68.2129 43.4775C68.2129 42.6191 68.4648 41.9541 68.9688 41.4824C69.4727 41.0078 70.1465 40.7705 70.9902 40.7705C71.541 40.7705 72.0728 40.9009 72.5854 41.1616V42.4009H72.5151C72.0171 41.9556 71.5264 41.7329 71.043 41.7329C70.5947 41.7329 70.2461 41.8867 69.9971 42.1943C69.748 42.502 69.6235 42.9297 69.6235 43.4775C69.6235 44.0254 69.748 44.4458 69.9971 44.7388C70.249 45.0288 70.605 45.1738 71.0649 45.1738C71.5542 45.1738 72.0376 44.9512 72.5151 44.5059H72.5854V45.7495ZM76.5229 45.9692C76.1626 46.0571 75.7773 46.1011 75.3672 46.1011C74.7607 46.1011 74.3169 45.9722 74.0356 45.7144C73.7544 45.4536 73.6138 45.0332 73.6138 44.4531V41.8032H72.9458V40.9111H73.6182V39.4829H74.9629V40.9111H76.5229V41.8032H74.9629V43.8994C74.9629 44.4385 75.0317 44.79 75.1694 44.9541C75.3071 45.1182 75.5386 45.2002 75.8638 45.2002C76.0718 45.2002 76.2783 45.1489 76.4834 45.0464H76.5229V45.9692ZM79.542 46.1582C78.7158 46.1582 78.0742 45.9209 77.6172 45.4463C77.1602 44.9688 76.9316 44.3066 76.9316 43.46C76.9316 42.6104 77.1616 41.9468 77.6216 41.4692C78.0845 40.9917 78.7246 40.7529 79.542 40.7529C80.3652 40.7529 81.0054 40.9917 81.4624 41.4692C81.9224 41.9468 82.1523 42.6104 82.1523 43.46C82.1523 44.3066 81.9224 44.9688 81.4624 45.4463C81.0054 45.9209 80.3652 46.1582 79.542 46.1582ZM79.542 41.6934C78.7422 41.6934 78.3423 42.2866 78.3423 43.4731C78.3423 44.6362 78.748 45.2178 79.5596 45.2178C80.3477 45.2178 80.7417 44.6362 80.7417 43.4731C80.7417 42.2866 80.3418 41.6934 79.542 41.6934ZM86.604 42.2866H86.5601C86.3784 42.2397 86.1353 42.2163 85.8306 42.2163C85.353 42.2163 84.9136 42.2925 84.5122 42.4448V46H83.1631V40.9111H84.5122V41.834C84.9253 41.4619 85.2651 41.2129 85.5317 41.0869C85.7983 40.958 86.0605 40.8936 86.3184 40.8936C86.3857 40.8936 86.481 40.8965 86.604 40.9023V42.2866ZM92.2817 40.9111L89.4912 47.8325H88.0674L88.8408 46.0088L86.8501 40.9111H88.3135L89.5967 44.5454L90.8931 40.9111H92.2817ZM98.1836 40.4761H96.0083V46H94.5581V40.4761H92.3828V39.3774H98.1836V40.4761ZM101.519 42.2866H101.475C101.293 42.2397 101.05 42.2163 100.746 42.2163C100.268 42.2163 99.8286 42.2925 99.4272 42.4448V46H98.0781V40.9111H99.4272V41.834C99.8403 41.4619 100.18 41.2129 100.447 41.0869C100.713 40.958 100.976 40.8936 101.233 40.8936C101.301 40.8936 101.396 40.8965 101.519 40.9023V42.2866ZM106.889 43.6665H103.281C103.34 44.686 103.918 45.1958 105.017 45.1958C105.591 45.1958 106.168 44.9878 106.749 44.5718H106.797V45.7407C106.108 46.0044 105.461 46.1362 104.854 46.1362C103.899 46.1362 103.171 45.9092 102.67 45.4551C102.169 45.001 101.919 44.3462 101.919 43.4907C101.919 42.6411 102.156 41.9731 102.631 41.4868C103.105 40.9976 103.76 40.7529 104.595 40.7529C106.125 40.7529 106.889 41.5659 106.889 43.1919V43.6665ZM105.54 42.9019C105.528 42.0259 105.172 41.5879 104.472 41.5879C103.728 41.5879 103.331 42.0259 103.281 42.9019H105.54ZM112.47 43.6665H108.862C108.921 44.686 109.5 45.1958 110.598 45.1958C111.172 45.1958 111.75 44.9878 112.33 44.5718H112.378V45.7407C111.689 46.0044 111.042 46.1362 110.436 46.1362C109.48 46.1362 108.752 45.9092 108.251 45.4551C107.75 45.001 107.5 44.3462 107.5 43.4907C107.5 42.6411 107.737 41.9731 108.212 41.4868C108.687 40.9976 109.341 40.7529 110.176 40.7529C111.706 40.7529 112.47 41.5659 112.47 43.1919V43.6665ZM111.121 42.9019C111.109 42.0259 110.753 41.5879 110.053 41.5879C109.309 41.5879 108.912 42.0259 108.862 42.9019H111.121Z" fill="white"/>
<path fill-rule="evenodd" clip-rule="evenodd" d="M72 55V167.559V169.559H85V293.514V294.514H86H96V292.514H87V66.3414H96V64.3414H86H85V65.3414V167.559H74L74 55H72Z" fill="#282828"/>
<rect width="135" height="37" transform="translate(216 119)" fill="#D8E1E6"/>
<path d="M225.265 142V131.698H227.746C229.195 131.698 230.335 131.887 231.164 132.266C231.993 132.644 232.647 133.223 233.126 134.002C233.609 134.777 233.851 135.729 233.851 136.859C233.851 138.263 233.395 139.471 232.483 140.482C231.576 141.494 230.007 142 227.773 142H225.265ZM226.536 132.778V140.92H227.862C229.489 140.92 230.672 140.576 231.41 139.888C232.148 139.2 232.518 138.183 232.518 136.839C232.518 135.563 232.144 134.567 231.396 133.852C230.649 133.136 229.471 132.778 227.862 132.778H226.536ZM236.94 132.73H235.58V131.479H236.94V132.73ZM236.865 142H235.662V134.275H236.865V142ZM239.203 142V134.275H240.406V135.465C241.372 134.672 242.263 134.275 243.079 134.275C243.366 134.275 243.656 134.298 243.947 134.344V135.602H243.899C243.521 135.51 243.138 135.465 242.751 135.465C241.976 135.465 241.195 135.793 240.406 136.449V142H239.203ZM245.649 137.338H250.182C250.145 135.802 249.441 135.034 248.069 135.034C247.377 135.034 246.816 135.239 246.388 135.649C245.959 136.06 245.713 136.622 245.649 137.338ZM248.473 142.178C247.188 142.178 246.189 141.831 245.479 141.139C244.772 140.441 244.419 139.457 244.419 138.186C244.419 136.923 244.758 135.921 245.438 135.178C246.117 134.43 247.017 134.057 248.138 134.057C249.159 134.057 249.949 134.362 250.51 134.973C251.075 135.583 251.357 136.454 251.357 137.584V138.247H245.649C245.649 139.177 245.9 139.892 246.401 140.394C246.907 140.89 247.604 141.139 248.493 141.139C249.377 141.139 250.261 140.831 251.146 140.216H251.2V141.521C250.102 141.959 249.193 142.178 248.473 142.178ZM258.679 141.528C257.754 141.961 256.947 142.178 256.259 142.178C255.069 142.178 254.144 141.829 253.483 141.132C252.827 140.435 252.499 139.441 252.499 138.151C252.499 136.889 252.839 135.896 253.518 135.171C254.197 134.446 255.113 134.084 256.266 134.084C257.027 134.084 257.831 134.296 258.679 134.72V136.06H258.624C257.772 135.435 256.977 135.123 256.238 135.123C255.45 135.123 254.837 135.385 254.399 135.909C253.962 136.433 253.743 137.181 253.743 138.151C253.743 139.122 253.96 139.863 254.393 140.373C254.83 140.883 255.445 141.139 256.238 141.139C256.999 141.139 257.795 140.831 258.624 140.216H258.679V141.528ZM262.603 142.15C261.007 142.15 260.21 141.273 260.21 139.519V135.26H259.328V134.275H260.217V132.054H261.413V134.275H264.12V135.26H261.413V138.835C261.413 139.646 261.468 140.173 261.577 140.414C261.691 140.651 261.862 140.826 262.09 140.94C262.318 141.05 262.609 141.104 262.965 141.104C263.302 141.104 263.674 141.022 264.079 140.858H264.12V141.952C263.578 142.084 263.072 142.15 262.603 142.15ZM268.461 142.212C267.363 142.212 266.494 141.85 265.856 141.125C265.218 140.396 264.899 139.402 264.899 138.145C264.899 136.887 265.221 135.891 265.863 135.157C266.506 134.424 267.372 134.057 268.461 134.057C269.55 134.057 270.416 134.421 271.059 135.15C271.701 135.88 272.022 136.878 272.022 138.145C272.022 139.411 271.701 140.407 271.059 141.132C270.421 141.852 269.555 142.212 268.461 142.212ZM268.461 135.082C267.718 135.082 267.146 135.344 266.745 135.868C266.344 136.392 266.144 137.151 266.144 138.145C266.144 139.124 266.344 139.876 266.745 140.4C267.146 140.924 267.718 141.187 268.461 141.187C269.204 141.187 269.776 140.924 270.177 140.4C270.578 139.876 270.778 139.124 270.778 138.145C270.778 136.103 270.006 135.082 268.461 135.082ZM273.779 142V134.275H274.982V135.465C275.949 134.672 276.84 134.275 277.655 134.275C277.942 134.275 278.232 134.298 278.523 134.344V135.602H278.476C278.097 135.51 277.715 135.465 277.327 135.465C276.552 135.465 275.771 135.793 274.982 136.449V142H273.779ZM286.31 134.275L281.777 144.851H280.492L281.928 141.665L278.817 134.275H280.123L282.584 140.154L285.052 134.275H286.31ZM294.219 142H287.8V131.698H289.071V140.893H294.219V142ZM297.411 137.864H296.058V136.34H297.411V137.864ZM302.019 137.864H300.665V136.34H302.019V137.864ZM306.722 137.864H305.368V136.34H306.722V137.864Z" fill="#666666"/>
<path fill-rule="evenodd" clip-rule="evenodd" d="M333.081 133.641L334 134.266L327.855 141.359H326.145L320 134.266L320.919 133.641L326.726 140.283H327.274L333.081 133.641Z" fill="#666666"/>
<path d="M241.265 179V168.698H243.746C245.195 168.698 246.335 168.887 247.164 169.266C247.993 169.644 248.647 170.223 249.126 171.002C249.609 171.777 249.851 172.729 249.851 173.859C249.851 175.263 249.395 176.471 248.483 177.482C247.576 178.494 246.007 179 243.773 179H241.265ZM242.536 169.778V177.92H243.862C245.489 177.92 246.672 177.576 247.41 176.888C248.148 176.2 248.518 175.183 248.518 173.839C248.518 172.563 248.144 171.567 247.396 170.852C246.649 170.136 245.471 169.778 243.862 169.778H242.536ZM252.94 169.73H251.58V168.479H252.94V169.73ZM252.865 179H251.662V171.275H252.865V179ZM255.203 179V171.275H256.406V172.465C257.372 171.672 258.263 171.275 259.079 171.275C259.366 171.275 259.656 171.298 259.947 171.344V172.602H259.899C259.521 172.51 259.138 172.465 258.751 172.465C257.976 172.465 257.195 172.793 256.406 173.449V179H255.203ZM261.649 174.338H266.182C266.145 172.802 265.441 172.034 264.069 172.034C263.377 172.034 262.816 172.239 262.388 172.649C261.959 173.06 261.713 173.622 261.649 174.338ZM264.473 179.178C263.188 179.178 262.189 178.831 261.479 178.139C260.772 177.441 260.419 176.457 260.419 175.186C260.419 173.923 260.758 172.921 261.438 172.178C262.117 171.43 263.017 171.057 264.138 171.057C265.159 171.057 265.949 171.362 266.51 171.973C267.075 172.583 267.357 173.454 267.357 174.584V175.247H261.649C261.649 176.177 261.9 176.892 262.401 177.394C262.907 177.89 263.604 178.139 264.493 178.139C265.377 178.139 266.261 177.831 267.146 177.216H267.2V178.521C266.102 178.959 265.193 179.178 264.473 179.178ZM274.679 178.528C273.754 178.961 272.947 179.178 272.259 179.178C271.069 179.178 270.144 178.829 269.483 178.132C268.827 177.435 268.499 176.441 268.499 175.151C268.499 173.889 268.839 172.896 269.518 172.171C270.197 171.446 271.113 171.084 272.266 171.084C273.027 171.084 273.831 171.296 274.679 171.72V173.06H274.624C273.772 172.435 272.977 172.123 272.238 172.123C271.45 172.123 270.837 172.385 270.399 172.909C269.962 173.433 269.743 174.181 269.743 175.151C269.743 176.122 269.96 176.863 270.393 177.373C270.83 177.883 271.445 178.139 272.238 178.139C272.999 178.139 273.795 177.831 274.624 177.216H274.679V178.528ZM278.603 179.15C277.007 179.15 276.21 178.273 276.21 176.519V172.26H275.328V171.275H276.217V169.054H277.413V171.275H280.12V172.26H277.413V175.835C277.413 176.646 277.468 177.173 277.577 177.414C277.691 177.651 277.862 177.826 278.09 177.94C278.318 178.05 278.609 178.104 278.965 178.104C279.302 178.104 279.674 178.022 280.079 177.858H280.12V178.952C279.578 179.084 279.072 179.15 278.603 179.15ZM284.461 179.212C283.363 179.212 282.494 178.85 281.856 178.125C281.218 177.396 280.899 176.402 280.899 175.145C280.899 173.887 281.221 172.891 281.863 172.157C282.506 171.424 283.372 171.057 284.461 171.057C285.55 171.057 286.416 171.421 287.059 172.15C287.701 172.88 288.022 173.878 288.022 175.145C288.022 176.411 287.701 177.407 287.059 178.132C286.421 178.852 285.555 179.212 284.461 179.212ZM284.461 172.082C283.718 172.082 283.146 172.344 282.745 172.868C282.344 173.392 282.144 174.151 282.144 175.145C282.144 176.124 282.344 176.876 282.745 177.4C283.146 177.924 283.718 178.187 284.461 178.187C285.204 178.187 285.776 177.924 286.177 177.4C286.578 176.876 286.778 176.124 286.778 175.145C286.778 173.103 286.006 172.082 284.461 172.082ZM289.779 179V171.275H290.982V172.465C291.949 171.672 292.84 171.275 293.655 171.275C293.942 171.275 294.232 171.298 294.523 171.344V172.602H294.476C294.097 172.51 293.715 172.465 293.327 172.465C292.552 172.465 291.771 172.793 290.982 173.449V179H289.779ZM302.31 171.275L297.777 181.851H296.492L297.928 178.665L294.817 171.275H296.123L298.584 177.154L301.052 171.275H302.31ZM310.219 179H303.8V168.698H305.071V177.893H310.219V179ZM316.152 177.161V174.919C314.452 174.996 313.359 175.186 312.871 175.486C312.388 175.783 312.146 176.193 312.146 176.717C312.146 177.642 312.707 178.104 313.828 178.104C314.589 178.104 315.364 177.79 316.152 177.161ZM316.152 179V178.139C315.51 178.604 314.981 178.897 314.566 179.021C314.152 179.148 313.73 179.212 313.302 179.212C312.614 179.212 312.042 178.984 311.586 178.528C311.13 178.073 310.902 177.494 310.902 176.792C310.902 175.894 311.24 175.22 311.914 174.769C312.593 174.313 314.006 174.042 316.152 173.955V173.723C316.152 173.185 315.993 172.788 315.674 172.533C315.355 172.273 314.794 172.144 313.992 172.144C313.286 172.144 312.5 172.326 311.634 172.69H311.579V171.439C312.431 171.207 313.252 171.091 314.04 171.091C315.184 171.091 316.02 171.305 316.549 171.733C317.082 172.157 317.349 172.818 317.349 173.716V179H316.152ZM320.821 178.59L320.719 179H319.611V168.24H320.814V172.123C321.694 171.412 322.549 171.057 323.378 171.057C324.285 171.057 325.007 171.414 325.545 172.13C326.087 172.845 326.358 173.825 326.358 175.069C326.358 176.3 326.033 177.298 325.381 178.063C324.729 178.829 323.923 179.212 322.961 179.212C322.209 179.212 321.496 179.005 320.821 178.59ZM320.814 173.101V177.681C321.498 177.986 322.132 178.139 322.715 178.139C323.471 178.139 324.059 177.874 324.479 177.346C324.902 176.817 325.114 176.07 325.114 175.104C325.114 173.162 324.419 172.191 323.029 172.191C322.291 172.191 321.553 172.494 320.814 173.101ZM328.792 174.338H333.324C333.288 172.802 332.584 172.034 331.212 172.034C330.519 172.034 329.959 172.239 329.53 172.649C329.102 173.06 328.856 173.622 328.792 174.338ZM331.615 179.178C330.33 179.178 329.332 178.831 328.621 178.139C327.915 177.441 327.562 176.457 327.562 175.186C327.562 173.923 327.901 172.921 328.58 172.178C329.259 171.43 330.159 171.057 331.28 171.057C332.301 171.057 333.092 171.362 333.652 171.973C334.217 172.583 334.5 173.454 334.5 174.584V175.247H328.792C328.792 176.177 329.043 176.892 329.544 177.394C330.05 177.89 330.747 178.139 331.636 178.139C332.52 178.139 333.404 177.831 334.288 177.216H334.343V178.521C333.244 178.959 332.335 179.178 331.615 179.178ZM337.426 179H336.223V168.24H337.426V179Z" fill="#666666"/>
<path d="M241.265 216V205.698H243.746C245.195 205.698 246.335 205.887 247.164 206.266C247.993 206.644 248.647 207.223 249.126 208.002C249.609 208.777 249.851 209.729 249.851 210.859C249.851 212.263 249.395 213.471 248.483 214.482C247.576 215.494 246.007 216 243.773 216H241.265ZM242.536 206.778V214.92H243.862C245.489 214.92 246.672 214.576 247.41 213.888C248.148 213.2 248.518 212.183 248.518 210.839C248.518 209.563 248.144 208.567 247.396 207.852C246.649 207.136 245.471 206.778 243.862 206.778H242.536ZM252.94 206.73H251.58V205.479H252.94V206.73ZM252.865 216H251.662V208.275H252.865V216ZM255.203 216V208.275H256.406V209.465C257.372 208.672 258.263 208.275 259.079 208.275C259.366 208.275 259.656 208.298 259.947 208.344V209.602H259.899C259.521 209.51 259.138 209.465 258.751 209.465C257.976 209.465 257.195 209.793 256.406 210.449V216H255.203ZM261.649 211.338H266.182C266.145 209.802 265.441 209.034 264.069 209.034C263.377 209.034 262.816 209.239 262.388 209.649C261.959 210.06 261.713 210.622 261.649 211.338ZM264.473 216.178C263.188 216.178 262.189 215.831 261.479 215.139C260.772 214.441 260.419 213.457 260.419 212.186C260.419 210.923 260.758 209.921 261.438 209.178C262.117 208.43 263.017 208.057 264.138 208.057C265.159 208.057 265.949 208.362 266.51 208.973C267.075 209.583 267.357 210.454 267.357 211.584V212.247H261.649C261.649 213.177 261.9 213.892 262.401 214.394C262.907 214.89 263.604 215.139 264.493 215.139C265.377 215.139 266.261 214.831 267.146 214.216H267.2V215.521C266.102 215.959 265.193 216.178 264.473 216.178ZM274.679 215.528C273.754 215.961 272.947 216.178 272.259 216.178C271.069 216.178 270.144 215.829 269.483 215.132C268.827 214.435 268.499 213.441 268.499 212.151C268.499 210.889 268.839 209.896 269.518 209.171C270.197 208.446 271.113 208.084 272.266 208.084C273.027 208.084 273.831 208.296 274.679 208.72V210.06H274.624C273.772 209.435 272.977 209.123 272.238 209.123C271.45 209.123 270.837 209.385 270.399 209.909C269.962 210.433 269.743 211.181 269.743 212.151C269.743 213.122 269.96 213.863 270.393 214.373C270.83 214.883 271.445 215.139 272.238 215.139C272.999 215.139 273.795 214.831 274.624 214.216H274.679V215.528ZM278.603 216.15C277.007 216.15 276.21 215.273 276.21 213.519V209.26H275.328V208.275H276.217V206.054H277.413V208.275H280.12V209.26H277.413V212.835C277.413 213.646 277.468 214.173 277.577 214.414C277.691 214.651 277.862 214.826 278.09 214.94C278.318 215.05 278.609 215.104 278.965 215.104C279.302 215.104 279.674 215.022 280.079 214.858H280.12V215.952C279.578 216.084 279.072 216.15 278.603 216.15ZM284.461 216.212C283.363 216.212 282.494 215.85 281.856 215.125C281.218 214.396 280.899 213.402 280.899 212.145C280.899 210.887 281.221 209.891 281.863 209.157C282.506 208.424 283.372 208.057 284.461 208.057C285.55 208.057 286.416 208.421 287.059 209.15C287.701 209.88 288.022 210.878 288.022 212.145C288.022 213.411 287.701 214.407 287.059 215.132C286.421 215.852 285.555 216.212 284.461 216.212ZM284.461 209.082C283.718 209.082 283.146 209.344 282.745 209.868C282.344 210.392 282.144 211.151 282.144 212.145C282.144 213.124 282.344 213.876 282.745 214.4C283.146 214.924 283.718 215.187 284.461 215.187C285.204 215.187 285.776 214.924 286.177 214.4C286.578 213.876 286.778 213.124 286.778 212.145C286.778 210.103 286.006 209.082 284.461 209.082ZM289.779 216V208.275H290.982V209.465C291.949 208.672 292.84 208.275 293.655 208.275C293.942 208.275 294.232 208.298 294.523 208.344V209.602H294.476C294.097 209.51 293.715 209.465 293.327 209.465C292.552 209.465 291.771 209.793 290.982 210.449V216H289.779ZM302.31 208.275L297.777 218.851H296.492L297.928 215.665L294.817 208.275H296.123L298.584 214.154L301.052 208.275H302.31ZM310.219 216H303.8V205.698H305.071V214.893H310.219V216ZM316.152 214.161V211.919C314.452 211.996 313.359 212.186 312.871 212.486C312.388 212.783 312.146 213.193 312.146 213.717C312.146 214.642 312.707 215.104 313.828 215.104C314.589 215.104 315.364 214.79 316.152 214.161ZM316.152 216V215.139C315.51 215.604 314.981 215.897 314.566 216.021C314.152 216.148 313.73 216.212 313.302 216.212C312.614 216.212 312.042 215.984 311.586 215.528C311.13 215.073 310.902 214.494 310.902 213.792C310.902 212.894 311.24 212.22 311.914 211.769C312.593 211.313 314.006 211.042 316.152 210.955V210.723C316.152 210.185 315.993 209.788 315.674 209.533C315.355 209.273 314.794 209.144 313.992 209.144C313.286 209.144 312.5 209.326 311.634 209.69H311.579V208.439C312.431 208.207 313.252 208.091 314.04 208.091C315.184 208.091 316.02 208.305 316.549 208.733C317.082 209.157 317.349 209.818 317.349 210.716V216H316.152ZM320.821 215.59L320.719 216H319.611V205.24H320.814V209.123C321.694 208.412 322.549 208.057 323.378 208.057C324.285 208.057 325.007 208.414 325.545 209.13C326.087 209.845 326.358 210.825 326.358 212.069C326.358 213.3 326.033 214.298 325.381 215.063C324.729 215.829 323.923 216.212 322.961 216.212C322.209 216.212 321.496 216.005 320.821 215.59ZM320.814 210.101V214.681C321.498 214.986 322.132 215.139 322.715 215.139C323.471 215.139 324.059 214.874 324.479 214.346C324.902 213.817 325.114 213.07 325.114 212.104C325.114 210.162 324.419 209.191 323.029 209.191C322.291 209.191 321.553 209.494 320.814 210.101ZM328.792 211.338H333.324C333.288 209.802 332.584 209.034 331.212 209.034C330.519 209.034 329.959 209.239 329.53 209.649C329.102 210.06 328.856 210.622 328.792 211.338ZM331.615 216.178C330.33 216.178 329.332 215.831 328.621 215.139C327.915 214.441 327.562 213.457 327.562 212.186C327.562 210.923 327.901 209.921 328.58 209.178C329.259 208.43 330.159 208.057 331.28 208.057C332.301 208.057 333.092 208.362 333.652 208.973C334.217 209.583 334.5 210.454 334.5 211.584V212.247H328.792C328.792 213.177 329.043 213.892 329.544 214.394C330.05 214.89 330.747 215.139 331.636 215.139C332.52 215.139 333.404 214.831 334.288 214.216H334.343V215.521C333.244 215.959 332.335 216.178 331.615 216.178ZM337.426 216H336.223V205.24H337.426V216Z" fill="#666666"/>
<path d="M225.265 253V242.698H227.746C229.195 242.698 230.335 242.887 231.164 243.266C231.993 243.644 232.647 244.223 233.126 245.002C233.609 245.777 233.851 246.729 233.851 247.859C233.851 249.263 233.395 250.471 232.483 251.482C231.576 252.494 230.007 253 227.773 253H225.265ZM226.536 243.778V251.92H227.862C229.489 251.92 230.672 251.576 231.41 250.888C232.148 250.2 232.518 249.183 232.518 247.839C232.518 246.563 232.144 245.567 231.396 244.852C230.649 244.136 229.471 243.778 227.862 243.778H226.536ZM236.94 243.73H235.58V242.479H236.94V243.73ZM236.865 253H235.662V245.275H236.865V253ZM239.203 253V245.275H240.406V246.465C241.372 245.672 242.263 245.275 243.079 245.275C243.366 245.275 243.656 245.298 243.947 245.344V246.602H243.899C243.521 246.51 243.138 246.465 242.751 246.465C241.976 246.465 241.195 246.793 240.406 247.449V253H239.203ZM245.649 248.338H250.182C250.145 246.802 249.441 246.034 248.069 246.034C247.377 246.034 246.816 246.239 246.388 246.649C245.959 247.06 245.713 247.622 245.649 248.338ZM248.473 253.178C247.188 253.178 246.189 252.831 245.479 252.139C244.772 251.441 244.419 250.457 244.419 249.186C244.419 247.923 244.758 246.921 245.438 246.178C246.117 245.43 247.017 245.057 248.138 245.057C249.159 245.057 249.949 245.362 250.51 245.973C251.075 246.583 251.357 247.454 251.357 248.584V249.247H245.649C245.649 250.177 245.9 250.892 246.401 251.394C246.907 251.89 247.604 252.139 248.493 252.139C249.377 252.139 250.261 251.831 251.146 251.216H251.2V252.521C250.102 252.959 249.193 253.178 248.473 253.178ZM258.679 252.528C257.754 252.961 256.947 253.178 256.259 253.178C255.069 253.178 254.144 252.829 253.483 252.132C252.827 251.435 252.499 250.441 252.499 249.151C252.499 247.889 252.839 246.896 253.518 246.171C254.197 245.446 255.113 245.084 256.266 245.084C257.027 245.084 257.831 245.296 258.679 245.72V247.06H258.624C257.772 246.435 256.977 246.123 256.238 246.123C255.45 246.123 254.837 246.385 254.399 246.909C253.962 247.433 253.743 248.181 253.743 249.151C253.743 250.122 253.96 250.863 254.393 251.373C254.83 251.883 255.445 252.139 256.238 252.139C256.999 252.139 257.795 251.831 258.624 251.216H258.679V252.528ZM262.603 253.15C261.007 253.15 260.21 252.273 260.21 250.519V246.26H259.328V245.275H260.217V243.054H261.413V245.275H264.12V246.26H261.413V249.835C261.413 250.646 261.468 251.173 261.577 251.414C261.691 251.651 261.862 251.826 262.09 251.94C262.318 252.05 262.609 252.104 262.965 252.104C263.302 252.104 263.674 252.022 264.079 251.858H264.12V252.952C263.578 253.084 263.072 253.15 262.603 253.15ZM268.461 253.212C267.363 253.212 266.494 252.85 265.856 252.125C265.218 251.396 264.899 250.402 264.899 249.145C264.899 247.887 265.221 246.891 265.863 246.157C266.506 245.424 267.372 245.057 268.461 245.057C269.55 245.057 270.416 245.421 271.059 246.15C271.701 246.88 272.022 247.878 272.022 249.145C272.022 250.411 271.701 251.407 271.059 252.132C270.421 252.852 269.555 253.212 268.461 253.212ZM268.461 246.082C267.718 246.082 267.146 246.344 266.745 246.868C266.344 247.392 266.144 248.151 266.144 249.145C266.144 250.124 266.344 250.876 266.745 251.4C267.146 251.924 267.718 252.187 268.461 252.187C269.204 252.187 269.776 251.924 270.177 251.4C270.578 250.876 270.778 250.124 270.778 249.145C270.778 247.103 270.006 246.082 268.461 246.082ZM273.779 253V245.275H274.982V246.465C275.949 245.672 276.84 245.275 277.655 245.275C277.942 245.275 278.232 245.298 278.523 245.344V246.602H278.476C278.097 246.51 277.715 246.465 277.327 246.465C276.552 246.465 275.771 246.793 274.982 247.449V253H273.779ZM286.31 245.275L281.777 255.851H280.492L281.928 252.665L278.817 245.275H280.123L282.584 251.154L285.052 245.275H286.31ZM294.219 253H287.8V242.698H289.071V251.893H294.219V253ZM300.152 251.161V248.919C298.452 248.996 297.359 249.186 296.871 249.486C296.388 249.783 296.146 250.193 296.146 250.717C296.146 251.642 296.707 252.104 297.828 252.104C298.589 252.104 299.364 251.79 300.152 251.161ZM300.152 253V252.139C299.51 252.604 298.981 252.897 298.566 253.021C298.152 253.148 297.73 253.212 297.302 253.212C296.614 253.212 296.042 252.984 295.586 252.528C295.13 252.073 294.902 251.494 294.902 250.792C294.902 249.894 295.24 249.22 295.914 248.769C296.593 248.313 298.006 248.042 300.152 247.955V247.723C300.152 247.185 299.993 246.788 299.674 246.533C299.355 246.273 298.794 246.144 297.992 246.144C297.286 246.144 296.5 246.326 295.634 246.69H295.579V245.439C296.431 245.207 297.252 245.091 298.04 245.091C299.184 245.091 300.02 245.305 300.549 245.733C301.082 246.157 301.349 246.818 301.349 247.716V253H300.152ZM304.821 252.59L304.719 253H303.611V242.24H304.814V246.123C305.694 245.412 306.549 245.057 307.378 245.057C308.285 245.057 309.007 245.414 309.545 246.13C310.087 246.845 310.358 247.825 310.358 249.069C310.358 250.3 310.033 251.298 309.381 252.063C308.729 252.829 307.923 253.212 306.961 253.212C306.209 253.212 305.496 253.005 304.821 252.59ZM304.814 247.101V251.681C305.498 251.986 306.132 252.139 306.715 252.139C307.471 252.139 308.059 251.874 308.479 251.346C308.902 250.817 309.114 250.07 309.114 249.104C309.114 247.162 308.419 246.191 307.029 246.191C306.291 246.191 305.553 246.494 304.814 247.101ZM312.792 248.338H317.324C317.288 246.802 316.584 246.034 315.212 246.034C314.519 246.034 313.959 246.239 313.53 246.649C313.102 247.06 312.856 247.622 312.792 248.338ZM315.615 253.178C314.33 253.178 313.332 252.831 312.621 252.139C311.915 251.441 311.562 250.457 311.562 249.186C311.562 247.923 311.901 246.921 312.58 246.178C313.259 245.43 314.159 245.057 315.28 245.057C316.301 245.057 317.092 245.362 317.652 245.973C318.217 246.583 318.5 247.454 318.5 248.584V249.247H312.792C312.792 250.177 313.043 250.892 313.544 251.394C314.05 251.89 314.747 252.139 315.636 252.139C316.52 252.139 317.404 251.831 318.288 251.216H318.343V252.521C317.244 252.959 316.335 253.178 315.615 253.178ZM321.426 253H320.223V242.24H321.426V253Z" fill="#666666"/>
</g>
<defs>
<clipPath id="clip0_935_2965">
<rect width="483" height="325" fill="white"/>
</clipPath>
</defs>
</svg>
