<svg width="160" height="48" viewBox="0 0 160 48" fill="none" xmlns="http://www.w3.org/2000/svg">
<mask id="path-1-inside-1_3059_1570" fill="white">
<path d="M0 0H160V48H0V0Z"/>
</mask>
<path d="M0 0H160V48H0V0Z" fill="white"/>
<path d="M67.2188 29.9922V23.5078L64.5859 23.6719L64.4922 22.6797H64.8672C64.9974 22.6797 65.1953 22.6771 65.4609 22.6719C66.0286 21.9583 66.5182 21.3255 66.9297 20.7734L64.5703 18.6172L65.3594 17.9297L65.6484 18.1875C66.3203 17.276 66.8385 16.4401 67.2031 15.6797L68.2656 16.0859C67.6875 17.0547 67.0521 17.9609 66.3594 18.8047C66.8021 19.2005 67.2005 19.5703 67.5547 19.9141C68.2995 18.8724 68.8333 18.0417 69.1562 17.4219L70.2656 17.8984C69.2344 19.4453 68.026 21.026 66.6406 22.6406C67.5677 22.6042 68.526 22.5521 69.5156 22.4844C69.3177 21.9062 69.1562 21.4583 69.0312 21.1406L70.0078 20.8516C70.2578 21.5443 70.5677 22.4583 70.9375 23.5938L69.9453 23.8359C69.9297 23.7682 69.875 23.5885 69.7812 23.2969C69.5417 23.3229 69.0729 23.3646 68.375 23.4219V29.9922H67.2188ZM70.3047 29.6328V28.6875H71.6562V16.4297H78.3984V28.6875H79.6172V29.6328H70.3047ZM77.2031 20.1641V17.3438H72.8125V20.1641H77.2031ZM72.8125 24.1172H77.2031V21.0312H72.8125V24.1172ZM72.8125 28.6875H77.2031V24.9922H72.8125V28.6875ZM69.6016 27.4609C69.4661 26.2839 69.3464 25.349 69.2422 24.6562L70.25 24.5078C70.375 25.4922 70.513 26.4219 70.6641 27.2969L69.6016 27.4609ZM65.4844 28.6875L64.4766 28.4844C64.8984 27.224 65.1536 25.9193 65.2422 24.5703L66.3359 24.6719C66.0026 26.7552 65.7188 28.0938 65.4844 28.6875ZM93.1484 26.7969C93.263 27.1042 93.4089 27.4245 93.5859 27.7578C93.7682 28.0859 93.9089 28.2995 94.0078 28.3984C94.112 28.4974 94.2135 28.5469 94.3125 28.5469C94.4792 28.5469 94.5807 28.4193 94.6172 28.1641C94.6589 27.9036 94.7161 27.2344 94.7891 26.1562L95.6562 26.2656C95.6094 27.9271 95.5052 28.9401 95.3438 29.3047C95.1875 29.6745 94.8828 29.8594 94.4297 29.8594C94.0339 29.8594 93.6641 29.6536 93.3203 29.2422C92.9818 28.8307 92.6797 28.3516 92.4141 27.8047C91.7682 28.6328 91.0859 29.3568 90.3672 29.9766L89.7656 29.3516C90.4844 28.7214 91.2292 27.862 92 26.7734C91.5469 25.4089 91.3073 23.625 91.2812 21.4219H85.4688V20.5391H86.8281L86.3281 18.125H85.7344V17.2422H87.8047V15.7578H88.8984V17.2422H90.8438V18.125H90.3125L89.7344 20.5391H91.2812V15.6484H92.4219V20.5391H95.3438V21.4219H92.4219C92.4323 23.1458 92.5599 24.5521 92.8047 25.6406C92.8984 25.4844 92.9792 25.3229 93.0469 25.1562C93.3073 24.7812 93.6979 23.8516 94.2188 22.3672L95.2344 22.6953C94.6927 24.2109 93.9974 25.5781 93.1484 26.7969ZM87.3125 18.125L87.7734 20.5391H88.8359L89.3047 18.125H87.3125ZM82.5703 30.0078V23.1797L80.4766 23.3438L80.3672 22.4375C80.4974 22.4375 80.7839 22.4297 81.2266 22.4141C81.6328 21.8099 82.013 21.2292 82.3672 20.6719C82.1484 20.3854 81.8203 20.0156 81.3828 19.5625C80.8359 19 80.4896 18.6354 80.3438 18.4688L81.0625 17.8672L81.3594 18.1797C81.9271 17.3099 82.3776 16.4922 82.7109 15.7266L83.6953 16.1172C83.2526 16.9297 82.6693 17.8255 81.9453 18.8047C82.3984 19.2891 82.7109 19.6328 82.8828 19.8359C83.4661 18.8724 83.888 18.0964 84.1484 17.5078L85.125 17.9141C84.2448 19.4401 83.2839 20.9271 82.2422 22.375C83.1276 22.3333 83.8646 22.2812 84.4531 22.2188C84.375 21.9479 84.2526 21.5521 84.0859 21.0312L84.8984 20.8359C85.1536 21.5182 85.4089 22.349 85.6641 23.3281L84.8359 23.5625C84.8203 23.4896 84.7656 23.2943 84.6719 22.9766L83.6562 23.0781V30.0078H82.5703ZM93.9766 19.3359L93.1875 16.9141L94.1875 16.6406L94.9844 19.0547L93.9766 19.3359ZM87.3672 28.6328V29.2891H86.3203V22.5625H90.4297V28.6328H87.3672ZM89.375 23.3438H87.3672V25.125H89.375V23.3438ZM89.375 25.9062H87.3672V27.8516H89.375V25.9062ZM84.7891 27.2344C84.6224 26.0104 84.513 25.0677 84.4609 24.4062L85.3281 24.2812L85.6875 27.1016L84.7891 27.2344ZM81.1172 28.5078L80.2344 28.3438C80.5625 26.8958 80.7422 25.5781 80.7734 24.3906L81.7969 24.4922C81.5208 26.7161 81.2943 28.0547 81.1172 28.5078Z" fill="#333333"/>
<path d="M160 0H161V-1H160V0ZM0 1H160V-1H0V1ZM159 0V48H161V0H159Z" fill="#888888" fill-opacity="0.2" mask="url(#path-1-inside-1_3059_1570)"/>
</svg>
