<svg width="318" height="48" viewBox="0 0 318 48" fill="none" xmlns="http://www.w3.org/2000/svg">
<g clip-path="url(#clip0_939_4173)">
<path d="M64.5866 7.47754H31.4135V40.7184H64.5866V7.47754Z" fill="#717272"/>
<path d="M47.9413 13.6555C50.4049 13.6555 52.6468 16.0457 52.6077 19.4286C52.5686 22.7853 51.2 23.4384 50.4309 24.862C50.1442 25.3976 50.066 27.0694 50.6134 27.3959C53.1291 28.9241 55.5926 30.0865 57.6912 31.3143C58.6167 31.8629 58.747 32.9992 58.747 33.7698C57.0525 33.7698 52.4774 33.7698 47.9413 33.7698C43.4053 33.7698 38.8301 33.7698 37.1356 33.7698C37.1356 32.9992 37.266 31.8629 38.1914 31.3143C40.29 30.0865 42.7535 28.9241 45.2692 27.3959C45.8167 27.0694 45.7385 25.3976 45.4517 24.862C44.6827 23.4384 43.314 22.7723 43.2749 19.4286C43.2358 16.0457 45.4778 13.6555 47.9413 13.6555Z" fill="white"/>
</g>
<path d="M69.4453 28.5V16.7266H72.9141C73.4453 16.7266 73.8958 16.737 74.2656 16.7578C74.6406 16.7786 75.0234 16.8464 75.4141 16.9609C75.8099 17.0755 76.1484 17.25 76.4297 17.4844C76.7109 17.7135 76.9193 17.9844 77.0547 18.2969C77.1901 18.6094 77.2578 18.9661 77.2578 19.3672C77.2578 20.4089 76.7318 21.2109 75.6797 21.7734V21.8359C76.4766 22.0026 77.099 22.3542 77.5469 22.8906C77.9948 23.4219 78.2188 24.0833 78.2188 24.875C78.2188 25.9948 77.8151 26.8802 77.0078 27.5312C76.2057 28.1771 75.0599 28.5 73.5703 28.5H69.4453ZM70.8984 17.9609V21.5391H73C74.0156 21.5391 74.7266 21.375 75.1328 21.0469C75.5391 20.7188 75.7422 20.2135 75.7422 19.5312C75.7422 19.0573 75.5807 18.6771 75.2578 18.3906C74.9349 18.1042 74.1224 17.9609 72.8203 17.9609H70.8984ZM70.8984 22.7422V27.2656H73.0156C74.5104 27.2656 75.4974 27.0599 75.9766 26.6484C76.4609 26.2318 76.7031 25.6719 76.7031 24.9688C76.7031 24.5104 76.6146 24.1198 76.4375 23.7969C76.2604 23.4688 75.9818 23.2109 75.6016 23.0234C75.2266 22.8359 74.4948 22.7422 73.4062 22.7422H70.8984ZM80.8516 23.1719H86.0312C85.9896 21.4167 85.1849 20.5391 83.6172 20.5391C82.8255 20.5391 82.1849 20.7734 81.6953 21.2422C81.2057 21.7109 80.9245 22.3542 80.8516 23.1719ZM84.0781 28.7031C82.6094 28.7031 81.4688 28.3073 80.6562 27.5156C79.849 26.7188 79.4453 25.5938 79.4453 24.1406C79.4453 22.6979 79.8333 21.5521 80.6094 20.7031C81.3854 19.849 82.4141 19.4219 83.6953 19.4219C84.862 19.4219 85.7656 19.7708 86.4062 20.4688C87.0521 21.1667 87.375 22.1615 87.375 23.4531V24.2109H80.8516C80.8516 25.2734 81.138 26.0911 81.7109 26.6641C82.2891 27.2318 83.0859 27.5156 84.1016 27.5156C85.112 27.5156 86.1224 27.1641 87.1328 26.4609H87.1953V27.9531C85.9401 28.4531 84.901 28.7031 84.0781 28.7031ZM90.7188 28.5H89.3438V16.2031H90.7188V28.5ZM96.8125 28.7422C95.5573 28.7422 94.5651 28.3281 93.8359 27.5C93.1068 26.6667 92.7422 25.5312 92.7422 24.0938C92.7422 22.6562 93.1094 21.5182 93.8438 20.6797C94.5781 19.8411 95.5677 19.4219 96.8125 19.4219C98.0573 19.4219 99.0469 19.8385 99.7812 20.6719C100.516 21.5052 100.883 22.6458 100.883 24.0938C100.883 25.5417 100.516 26.6797 99.7812 27.5078C99.0521 28.3307 98.0625 28.7422 96.8125 28.7422ZM96.8125 20.5938C95.9635 20.5938 95.3099 20.8932 94.8516 21.4922C94.3932 22.0911 94.1641 22.9583 94.1641 24.0938C94.1641 25.2135 94.3932 26.0729 94.8516 26.6719C95.3099 27.2708 95.9635 27.5703 96.8125 27.5703C97.6615 27.5703 98.3151 27.2708 98.7734 26.6719C99.2318 26.0729 99.4609 25.2135 99.4609 24.0938C99.4609 21.7604 98.5781 20.5938 96.8125 20.5938ZM110.188 28.5H108.812V23.5547C108.812 22.4089 108.661 21.651 108.359 21.2812C108.057 20.9062 107.56 20.7188 106.867 20.7188C106.049 20.7188 105.182 21.099 104.266 21.8594V28.5H102.891V19.6719H104.266V20.7344C105.302 19.8594 106.326 19.4219 107.336 19.4219C108.247 19.4219 108.951 19.7083 109.445 20.2812C109.94 20.849 110.188 21.6719 110.188 22.75V28.5ZM119.836 27.5C119.836 30.3958 118.464 31.8438 115.719 31.8438C114.818 31.8438 113.922 31.7214 113.031 31.4766V30.0547H113.094C114.005 30.4297 114.906 30.6172 115.797 30.6172C116.698 30.6172 117.367 30.4141 117.805 30.0078C118.242 29.6068 118.461 28.9557 118.461 28.0547V27.1797C117.518 27.9714 116.531 28.3672 115.5 28.3672C114.453 28.3672 113.633 27.9818 113.039 27.2109C112.445 26.4401 112.148 25.3724 112.148 24.0078C112.148 22.6432 112.513 21.5391 113.242 20.6953C113.977 19.8464 114.885 19.4219 115.969 19.4219C116.823 19.4219 117.654 19.6536 118.461 20.1172L118.562 19.6719H119.836V27.5ZM118.461 26.0703V21.1875C117.685 20.8281 116.961 20.6484 116.289 20.6484C115.43 20.6484 114.76 20.9323 114.281 21.5C113.807 22.0677 113.57 22.8802 113.57 23.9375C113.57 26.0417 114.352 27.0938 115.914 27.0938C116.742 27.0938 117.591 26.7526 118.461 26.0703ZM123.258 23.1719H128.438C128.396 21.4167 127.591 20.5391 126.023 20.5391C125.232 20.5391 124.591 20.7734 124.102 21.2422C123.612 21.7109 123.331 22.3542 123.258 23.1719ZM126.484 28.7031C125.016 28.7031 123.875 28.3073 123.062 27.5156C122.255 26.7188 121.852 25.5938 121.852 24.1406C121.852 22.6979 122.24 21.5521 123.016 20.7031C123.792 19.849 124.82 19.4219 126.102 19.4219C127.268 19.4219 128.172 19.7708 128.812 20.4688C129.458 21.1667 129.781 22.1615 129.781 23.4531V24.2109H123.258C123.258 25.2734 123.544 26.0911 124.117 26.6641C124.695 27.2318 125.492 27.5156 126.508 27.5156C127.518 27.5156 128.529 27.1641 129.539 26.4609H129.602V27.9531C128.346 28.4531 127.307 28.7031 126.484 28.7031ZM137.438 26.4062V21.1797C136.667 20.8255 135.945 20.6484 135.273 20.6484C134.409 20.6484 133.734 20.9531 133.25 21.5625C132.766 22.1667 132.523 23.0182 132.523 24.1172C132.523 26.3359 133.318 27.4453 134.906 27.4453C135.797 27.4453 136.641 27.099 137.438 26.4062ZM137.438 28.5V27.5234C136.432 28.3359 135.458 28.7422 134.516 28.7422C133.474 28.7422 132.643 28.3333 132.023 27.5156C131.409 26.6979 131.102 25.5807 131.102 24.1641C131.102 22.763 131.474 21.6224 132.219 20.7422C132.964 19.862 133.883 19.4219 134.977 19.4219C135.742 19.4219 136.562 19.6536 137.438 20.1172V16.2031H138.812V28.5H137.438ZM149.25 28.5H141.586V16.7266H149.25V17.9922H143.039V21.4219H149.094V22.6875H143.039V27.2344H149.25V28.5ZM158.656 28.5H157.281V23.5547C157.281 22.4089 157.13 21.651 156.828 21.2812C156.526 20.9062 156.029 20.7188 155.336 20.7188C154.518 20.7188 153.651 21.099 152.734 21.8594V28.5H151.359V19.6719H152.734V20.7344C153.771 19.8594 154.794 19.4219 155.805 19.4219C156.716 19.4219 157.419 19.7083 157.914 20.2812C158.409 20.849 158.656 21.6719 158.656 22.75V28.5ZM164.039 28.6719C162.216 28.6719 161.305 27.6693 161.305 25.6641V20.7969H160.297V19.6719H161.312V17.1328H162.68V19.6719H165.773V20.7969H162.68V24.8828C162.68 25.8099 162.742 26.4115 162.867 26.6875C162.997 26.9583 163.193 27.1589 163.453 27.2891C163.714 27.4141 164.047 27.4766 164.453 27.4766C164.839 27.4766 165.263 27.3828 165.727 27.1953H165.773V28.4453C165.154 28.5964 164.576 28.6719 164.039 28.6719ZM168.789 17.9062H167.234V16.4766H168.789V17.9062ZM168.703 28.5H167.328V19.6719H168.703V28.5ZM174.164 28.6719C172.341 28.6719 171.43 27.6693 171.43 25.6641V20.7969H170.422V19.6719H171.438V17.1328H172.805V19.6719H175.898V20.7969H172.805V24.8828C172.805 25.8099 172.867 26.4115 172.992 26.6875C173.122 26.9583 173.318 27.1589 173.578 27.2891C173.839 27.4141 174.172 27.4766 174.578 27.4766C174.964 27.4766 175.388 27.3828 175.852 27.1953H175.898V28.4453C175.279 28.5964 174.701 28.6719 174.164 28.6719ZM184.852 19.6719L179.672 31.7578H178.203L179.844 28.1172L176.289 19.6719H177.781L180.594 26.3906L183.414 19.6719H184.852ZM193.891 28.5H186.555V16.7266H188.008V27.2344H193.891V28.5ZM200.672 26.3984V23.8359C198.729 23.9245 197.479 24.1406 196.922 24.4844C196.37 24.8229 196.094 25.2917 196.094 25.8906C196.094 26.9479 196.734 27.4766 198.016 27.4766C198.885 27.4766 199.771 27.1172 200.672 26.3984ZM200.672 28.5V27.5156C199.938 28.0469 199.333 28.3828 198.859 28.5234C198.385 28.6693 197.904 28.7422 197.414 28.7422C196.628 28.7422 195.974 28.4818 195.453 27.9609C194.932 27.4401 194.672 26.7786 194.672 25.9766C194.672 24.9505 195.057 24.1797 195.828 23.6641C196.604 23.1432 198.219 22.8333 200.672 22.7344V22.4688C200.672 21.8542 200.49 21.401 200.125 21.1094C199.76 20.8125 199.12 20.6641 198.203 20.6641C197.396 20.6641 196.497 20.8724 195.508 21.2891H195.445V19.8594C196.419 19.5938 197.357 19.4609 198.258 19.4609C199.565 19.4609 200.521 19.7057 201.125 20.1953C201.734 20.6797 202.039 21.4349 202.039 22.4609V28.5H200.672ZM206.008 28.0312L205.891 28.5H204.625V16.2031H206V20.6406C207.005 19.8281 207.982 19.4219 208.93 19.4219C209.966 19.4219 210.792 19.8307 211.406 20.6484C212.026 21.4661 212.336 22.5859 212.336 24.0078C212.336 25.4141 211.964 26.5547 211.219 27.4297C210.474 28.3047 209.552 28.7422 208.453 28.7422C207.594 28.7422 206.779 28.5052 206.008 28.0312ZM206 21.7578V26.9922C206.781 27.3411 207.505 27.5156 208.172 27.5156C209.036 27.5156 209.708 27.2135 210.188 26.6094C210.672 26.0052 210.914 25.151 210.914 24.0469C210.914 21.8281 210.12 20.7188 208.531 20.7188C207.688 20.7188 206.844 21.0651 206 21.7578ZM215.117 23.1719H220.297C220.255 21.4167 219.451 20.5391 217.883 20.5391C217.091 20.5391 216.451 20.7734 215.961 21.2422C215.471 21.7109 215.19 22.3542 215.117 23.1719ZM218.344 28.7031C216.875 28.7031 215.734 28.3073 214.922 27.5156C214.115 26.7188 213.711 25.5938 213.711 24.1406C213.711 22.6979 214.099 21.5521 214.875 20.7031C215.651 19.849 216.68 19.4219 217.961 19.4219C219.128 19.4219 220.031 19.7708 220.672 20.4688C221.318 21.1667 221.641 22.1615 221.641 23.4531V24.2109H215.117C215.117 25.2734 215.404 26.0911 215.977 26.6641C216.555 27.2318 217.352 27.5156 218.367 27.5156C219.378 27.5156 220.388 27.1641 221.398 26.4609H221.461V27.9531C220.206 28.4531 219.167 28.7031 218.344 28.7031ZM224.984 28.5H223.609V16.2031H224.984V28.5Z" fill="#333333"/>
<defs>
<clipPath id="clip0_939_4173">
<rect width="32" height="32" fill="white" transform="translate(32 8)"/>
</clipPath>
</defs>
</svg>
