<svg width="160" height="48" viewBox="0 0 160 48" fill="none" xmlns="http://www.w3.org/2000/svg">
<rect x="0.5" y="0.5" width="159" height="47" fill="#0072BF"/>
<path d="M69.6797 27.4609V17.5078H72.1875L72.9609 15.6797L74.25 15.9375L73.3984 17.5078H77.8438V21.5391H70.8281V23.1406H78.4141V27.4609H69.6797ZM76.6875 18.3906H70.8281V20.6562H76.6875V18.3906ZM77.2422 24.0312H70.8281V26.5781H77.2422V24.0312ZM66.8906 19.2344C66.4323 18.4167 65.8073 17.526 65.0156 16.5625L66.0078 15.9375C66.8255 16.9479 67.4844 17.8307 67.9844 18.5859L66.8906 19.2344ZM79.4922 29.6328L75.1328 29.6562C72.9922 29.6562 71.6484 29.6302 71.1016 29.5781C70.5547 29.526 70.0208 29.4427 69.5 29.3281C68.9792 29.2135 68.5156 29.0182 68.1094 28.7422C67.7031 28.4661 67.4115 28.1693 67.2344 27.8516C66.3698 28.737 65.5156 29.3854 64.6719 29.7969L64.25 28.7344C64.5417 28.6146 64.9401 28.388 65.4453 28.0547C65.9557 27.7214 66.3229 27.4479 66.5469 27.2344V22.4688H64.4766V21.5078H67.7734V26.5156C67.7734 27.0104 67.9531 27.4141 68.3125 27.7266C68.6719 28.0391 69.0703 28.2448 69.5078 28.3438C69.9505 28.4427 70.3828 28.5234 70.8047 28.5859C71.2318 28.6484 72.4115 28.6797 74.3438 28.6797C76.7812 28.6797 78.5729 28.6432 79.7188 28.5703L79.4922 29.6328ZM83.9922 21.0156C83.9922 22.6562 83.737 24.2865 83.2266 25.9062C82.7214 27.5208 81.9818 28.888 81.0078 30.0078L80.1641 29.3828C81.0026 28.388 81.6458 27.1432 82.0938 25.6484C82.5469 24.1536 82.7734 22.5208 82.7734 20.75V19.7422H80.7812V18.7969H82.7734V15.7266H83.9922V18.7969H87.6641V20.9453L87.6562 23.25C87.651 24.0521 87.6198 24.8828 87.5625 25.7422C87.5104 26.6016 87.4167 27.3177 87.2812 27.8906C87.151 28.4635 87 28.8646 86.8281 29.0938C86.6615 29.3229 86.4479 29.5 86.1875 29.625C85.9271 29.75 85.638 29.8125 85.3203 29.8125H83.6172L83.4766 28.7188H84.7109C85.0026 28.7188 85.237 28.6849 85.4141 28.6172C85.5911 28.5443 85.7344 28.4271 85.8438 28.2656C85.9531 28.1042 86.0443 27.8698 86.1172 27.5625C86.1953 27.2552 86.2604 26.8516 86.3125 26.3516C86.3698 25.8516 86.4062 25.3542 86.4219 24.8594C86.4375 24.3594 86.4453 23.2109 86.4453 21.4141V19.7422H83.9922V21.0156ZM93.5938 28.5859H90.5547V29.7422H89.3359V16.9531H94.8125V29.6328H93.5938V28.5859ZM90.5547 27.5703H93.5938V17.9297H90.5547V27.5703Z" fill="white"/>
<rect x="0.5" y="0.5" width="159" height="47" fill="#D4D7D7"/>
<path d="M69.6797 27.4609V17.5078H72.1875L72.9609 15.6797L74.25 15.9375L73.3984 17.5078H77.8438V21.5391H70.8281V23.1406H78.4141V27.4609H69.6797ZM76.6875 18.3906H70.8281V20.6562H76.6875V18.3906ZM77.2422 24.0312H70.8281V26.5781H77.2422V24.0312ZM66.8906 19.2344C66.4323 18.4167 65.8073 17.526 65.0156 16.5625L66.0078 15.9375C66.8255 16.9479 67.4844 17.8307 67.9844 18.5859L66.8906 19.2344ZM79.4922 29.6328L75.1328 29.6562C72.9922 29.6562 71.6484 29.6302 71.1016 29.5781C70.5547 29.526 70.0208 29.4427 69.5 29.3281C68.9792 29.2135 68.5156 29.0182 68.1094 28.7422C67.7031 28.4661 67.4115 28.1693 67.2344 27.8516C66.3698 28.737 65.5156 29.3854 64.6719 29.7969L64.25 28.7344C64.5417 28.6146 64.9401 28.388 65.4453 28.0547C65.9557 27.7214 66.3229 27.4479 66.5469 27.2344V22.4688H64.4766V21.5078H67.7734V26.5156C67.7734 27.0104 67.9531 27.4141 68.3125 27.7266C68.6719 28.0391 69.0703 28.2448 69.5078 28.3438C69.9505 28.4427 70.3828 28.5234 70.8047 28.5859C71.2318 28.6484 72.4115 28.6797 74.3438 28.6797C76.7812 28.6797 78.5729 28.6432 79.7188 28.5703L79.4922 29.6328ZM83.9922 21.0156C83.9922 22.6562 83.737 24.2865 83.2266 25.9062C82.7214 27.5208 81.9818 28.888 81.0078 30.0078L80.1641 29.3828C81.0026 28.388 81.6458 27.1432 82.0938 25.6484C82.5469 24.1536 82.7734 22.5208 82.7734 20.75V19.7422H80.7812V18.7969H82.7734V15.7266H83.9922V18.7969H87.6641V20.9453L87.6562 23.25C87.651 24.0521 87.6198 24.8828 87.5625 25.7422C87.5104 26.6016 87.4167 27.3177 87.2812 27.8906C87.151 28.4635 87 28.8646 86.8281 29.0938C86.6615 29.3229 86.4479 29.5 86.1875 29.625C85.9271 29.75 85.638 29.8125 85.3203 29.8125H83.6172L83.4766 28.7188H84.7109C85.0026 28.7188 85.237 28.6849 85.4141 28.6172C85.5911 28.5443 85.7344 28.4271 85.8438 28.2656C85.9531 28.1042 86.0443 27.8698 86.1172 27.5625C86.1953 27.2552 86.2604 26.8516 86.3125 26.3516C86.3698 25.8516 86.4062 25.3542 86.4219 24.8594C86.4375 24.3594 86.4453 23.2109 86.4453 21.4141V19.7422H83.9922V21.0156ZM93.5938 28.5859H90.5547V29.7422H89.3359V16.9531H94.8125V29.6328H93.5938V28.5859ZM90.5547 27.5703H93.5938V17.9297H90.5547V27.5703Z" fill="#888888"/>
<rect x="0.5" y="0.5" width="159" height="47" stroke="#E3E7E8"/>
<rect x="0.5" y="0.5" width="159" height="47" stroke="#E3E7E8"/>
</svg>
