<svg width="128" height="48" viewBox="0 0 128 48" fill="none" xmlns="http://www.w3.org/2000/svg">
<g filter="url(#filter0_i_909_2063)">
<mask id="path-1-inside-1_909_2063" fill="white">
<path d="M0 0H128V48H0V0Z"/>
</mask>
<path d="M0 0H128V48H0V0Z" fill="#D4D7D7"/>
<path d="M51.2188 29.9922V23.5078L48.5859 23.6719L48.4922 22.6797H48.8672C48.9974 22.6797 49.1953 22.6771 49.4609 22.6719C50.0286 21.9583 50.5182 21.3255 50.9297 20.7734L48.5703 18.6172L49.3594 17.9297L49.6484 18.1875C50.3203 17.276 50.8385 16.4401 51.2031 15.6797L52.2656 16.0859C51.6875 17.0547 51.0521 17.9609 50.3594 18.8047C50.8021 19.2005 51.2005 19.5703 51.5547 19.9141C52.2995 18.8724 52.8333 18.0417 53.1562 17.4219L54.2656 17.8984C53.2344 19.4453 52.026 21.026 50.6406 22.6406C51.5677 22.6042 52.526 22.5521 53.5156 22.4844C53.3177 21.9062 53.1562 21.4583 53.0312 21.1406L54.0078 20.8516C54.2578 21.5443 54.5677 22.4583 54.9375 23.5938L53.9453 23.8359C53.9297 23.7682 53.875 23.5885 53.7812 23.2969C53.5417 23.3229 53.0729 23.3646 52.375 23.4219V29.9922H51.2188ZM54.3047 29.6328V28.6875H55.6562V16.4297H62.3984V28.6875H63.6172V29.6328H54.3047ZM61.2031 20.1641V17.3438H56.8125V20.1641H61.2031ZM56.8125 24.1172H61.2031V21.0312H56.8125V24.1172ZM56.8125 28.6875H61.2031V24.9922H56.8125V28.6875ZM53.6016 27.4609C53.4661 26.2839 53.3464 25.349 53.2422 24.6562L54.25 24.5078C54.375 25.4922 54.513 26.4219 54.6641 27.2969L53.6016 27.4609ZM49.4844 28.6875L48.4766 28.4844C48.8984 27.224 49.1536 25.9193 49.2422 24.5703L50.3359 24.6719C50.0026 26.7552 49.7188 28.0938 49.4844 28.6875ZM77.1484 26.7969C77.263 27.1042 77.4089 27.4245 77.5859 27.7578C77.7682 28.0859 77.9089 28.2995 78.0078 28.3984C78.112 28.4974 78.2135 28.5469 78.3125 28.5469C78.4792 28.5469 78.5807 28.4193 78.6172 28.1641C78.6589 27.9036 78.7161 27.2344 78.7891 26.1562L79.6562 26.2656C79.6094 27.9271 79.5052 28.9401 79.3438 29.3047C79.1875 29.6745 78.8828 29.8594 78.4297 29.8594C78.0339 29.8594 77.6641 29.6536 77.3203 29.2422C76.9818 28.8307 76.6797 28.3516 76.4141 27.8047C75.7682 28.6328 75.0859 29.3568 74.3672 29.9766L73.7656 29.3516C74.4844 28.7214 75.2292 27.862 76 26.7734C75.5469 25.4089 75.3073 23.625 75.2812 21.4219H69.4688V20.5391H70.8281L70.3281 18.125H69.7344V17.2422H71.8047V15.7578H72.8984V17.2422H74.8438V18.125H74.3125L73.7344 20.5391H75.2812V15.6484H76.4219V20.5391H79.3438V21.4219H76.4219C76.4323 23.1458 76.5599 24.5521 76.8047 25.6406C76.8984 25.4844 76.9792 25.3229 77.0469 25.1562C77.3073 24.7812 77.6979 23.8516 78.2188 22.3672L79.2344 22.6953C78.6927 24.2109 77.9974 25.5781 77.1484 26.7969ZM71.3125 18.125L71.7734 20.5391H72.8359L73.3047 18.125H71.3125ZM66.5703 30.0078V23.1797L64.4766 23.3438L64.3672 22.4375C64.4974 22.4375 64.7839 22.4297 65.2266 22.4141C65.6328 21.8099 66.013 21.2292 66.3672 20.6719C66.1484 20.3854 65.8203 20.0156 65.3828 19.5625C64.8359 19 64.4896 18.6354 64.3438 18.4688L65.0625 17.8672L65.3594 18.1797C65.9271 17.3099 66.3776 16.4922 66.7109 15.7266L67.6953 16.1172C67.2526 16.9297 66.6693 17.8255 65.9453 18.8047C66.3984 19.2891 66.7109 19.6328 66.8828 19.8359C67.4661 18.8724 67.888 18.0964 68.1484 17.5078L69.125 17.9141C68.2448 19.4401 67.2839 20.9271 66.2422 22.375C67.1276 22.3333 67.8646 22.2812 68.4531 22.2188C68.375 21.9479 68.2526 21.5521 68.0859 21.0312L68.8984 20.8359C69.1536 21.5182 69.4089 22.349 69.6641 23.3281L68.8359 23.5625C68.8203 23.4896 68.7656 23.2943 68.6719 22.9766L67.6562 23.0781V30.0078H66.5703ZM77.9766 19.3359L77.1875 16.9141L78.1875 16.6406L78.9844 19.0547L77.9766 19.3359ZM71.3672 28.6328V29.2891H70.3203V22.5625H74.4297V28.6328H71.3672ZM73.375 23.3438H71.3672V25.125H73.375V23.3438ZM73.375 25.9062H71.3672V27.8516H73.375V25.9062ZM68.7891 27.2344C68.6224 26.0104 68.513 25.0677 68.4609 24.4062L69.3281 24.2812L69.6875 27.1016L68.7891 27.2344ZM65.1172 28.5078L64.2344 28.3438C64.5625 26.8958 64.7422 25.5781 64.7734 24.3906L65.7969 24.4922C65.5208 26.7161 65.2943 28.0547 65.1172 28.5078Z" fill="#333333"/>
<path d="M0 0V-1H-1V0H0ZM128 0H129V-1H128V0ZM0 1H128V-1H0V1ZM127 0V48H129V0H127ZM1 48V0H-1V48H1Z" fill="#C7CBCB" mask="url(#path-1-inside-1_909_2063)"/>
</g>
<defs>
<filter id="filter0_i_909_2063" x="0" y="0" width="129" height="48" filterUnits="userSpaceOnUse" color-interpolation-filters="sRGB">
<feFlood flood-opacity="0" result="BackgroundImageFix"/>
<feBlend mode="normal" in="SourceGraphic" in2="BackgroundImageFix" result="shape"/>
<feColorMatrix in="SourceAlpha" type="matrix" values="0 0 0 0 0 0 0 0 0 0 0 0 0 0 0 0 0 0 127 0" result="hardAlpha"/>
<feOffset dx="1"/>
<feGaussianBlur stdDeviation="1.5"/>
<feComposite in2="hardAlpha" operator="arithmetic" k2="-1" k3="1"/>
<feColorMatrix type="matrix" values="0 0 0 0 0.780392 0 0 0 0 0.796078 0 0 0 0 0.796078 0 0 0 1 0"/>
<feBlend mode="normal" in2="shape" result="effect1_innerShadow_909_2063"/>
</filter>
</defs>
</svg>
