<svg width="119" height="37" viewBox="0 0 119 37" fill="none" xmlns="http://www.w3.org/2000/svg">
<rect width="119" height="37" fill="#D8E1E6"/>
<path d="M15.6836 23H9.26465V12.6982H10.5361V21.8926H15.6836V23ZM21.6172 21.1611V18.9189C19.9173 18.9964 18.8236 19.1855 18.3359 19.4863C17.8529 19.7826 17.6113 20.1927 17.6113 20.7168C17.6113 21.6419 18.1719 22.1045 19.293 22.1045C20.054 22.1045 20.8288 21.79 21.6172 21.1611ZM21.6172 23V22.1387C20.9746 22.6035 20.446 22.8975 20.0312 23.0205C19.6165 23.1481 19.195 23.2119 18.7666 23.2119C18.0785 23.2119 17.5065 22.984 17.0508 22.5283C16.5951 22.0726 16.3672 21.4938 16.3672 20.792C16.3672 19.8942 16.7044 19.2197 17.3789 18.7686C18.0579 18.3128 19.4707 18.0417 21.6172 17.9551V17.7227C21.6172 17.1849 21.4577 16.7884 21.1387 16.5332C20.8197 16.2734 20.2591 16.1436 19.457 16.1436C18.7507 16.1436 17.9645 16.3258 17.0986 16.6904H17.0439V15.4395C17.8962 15.207 18.7165 15.0908 19.5049 15.0908C20.6488 15.0908 21.485 15.305 22.0137 15.7334C22.5469 16.1572 22.8135 16.818 22.8135 17.7158V23H21.6172ZM26.2861 22.5898L26.1836 23H25.0762V12.2402H26.2793V16.123C27.1589 15.4121 28.0133 15.0566 28.8428 15.0566C29.7497 15.0566 30.472 15.4144 31.0098 16.1299C31.5521 16.8454 31.8232 17.8252 31.8232 19.0693C31.8232 20.2998 31.4974 21.2979 30.8457 22.0635C30.194 22.8291 29.3874 23.2119 28.4258 23.2119C27.6738 23.2119 26.9606 23.0046 26.2861 22.5898ZM26.2793 17.1006V21.6807C26.9629 21.986 27.5964 22.1387 28.1797 22.1387C28.9362 22.1387 29.5241 21.8743 29.9434 21.3457C30.3672 20.8171 30.5791 20.0697 30.5791 19.1035C30.5791 17.1621 29.8841 16.1914 28.4941 16.1914C27.7559 16.1914 27.0176 16.4945 26.2793 17.1006ZM34.2568 18.3379H38.7891C38.7526 16.8021 38.0485 16.0342 36.6768 16.0342C35.984 16.0342 35.4235 16.2393 34.9951 16.6494C34.5667 17.0596 34.3206 17.6224 34.2568 18.3379ZM37.0801 23.1777C35.7949 23.1777 34.7969 22.8314 34.0859 22.1387C33.3796 21.4414 33.0264 20.457 33.0264 19.1855C33.0264 17.9232 33.3659 16.9206 34.0449 16.1777C34.724 15.4303 35.624 15.0566 36.7451 15.0566C37.766 15.0566 38.5566 15.362 39.1172 15.9727C39.6823 16.5833 39.9648 17.4538 39.9648 18.584V19.2471H34.2568C34.2568 20.1768 34.5075 20.8923 35.0088 21.3936C35.5146 21.8903 36.2119 22.1387 37.1006 22.1387C37.9847 22.1387 38.8688 21.8311 39.7529 21.2158H39.8076V22.5215C38.7093 22.959 37.8001 23.1777 37.0801 23.1777ZM42.8906 23H41.6875V12.2402H42.8906V23Z" fill="#666666"/>
<path fill-rule="evenodd" clip-rule="evenodd" d="M91.141 12.4191L91.7664 11.5L98.8591 17.6446V19.3554L91.7664 25.5L91.141 24.5809L97.783 18.7741V18.2259L91.141 12.4191Z" fill="#666666"/>
</svg>
