<svg width="160" height="54" viewBox="0 0 160 54" fill="none" xmlns="http://www.w3.org/2000/svg">
<mask id="path-1-inside-1_3025_762" fill="white">
<path d="M0 3H160V51H0V3Z"/>
</mask>
<path d="M0 3H160V51H0V3Z" fill="white"/>
<rect x="2" y="2" width="156" height="50" rx="2" stroke="white" stroke-width="4"/>
<rect x="1" y="3" width="158" height="48" rx="3" stroke="#005FCC" stroke-width="2"/>
<path d="M67.2188 32.9922V26.5078L64.5859 26.6719L64.4922 25.6797H64.8672C64.9974 25.6797 65.1953 25.6771 65.4609 25.6719C66.0286 24.9583 66.5182 24.3255 66.9297 23.7734L64.5703 21.6172L65.3594 20.9297L65.6484 21.1875C66.3203 20.276 66.8385 19.4401 67.2031 18.6797L68.2656 19.0859C67.6875 20.0547 67.0521 20.9609 66.3594 21.8047C66.8021 22.2005 67.2005 22.5703 67.5547 22.9141C68.2995 21.8724 68.8333 21.0417 69.1562 20.4219L70.2656 20.8984C69.2344 22.4453 68.026 24.026 66.6406 25.6406C67.5677 25.6042 68.526 25.5521 69.5156 25.4844C69.3177 24.9062 69.1562 24.4583 69.0312 24.1406L70.0078 23.8516C70.2578 24.5443 70.5677 25.4583 70.9375 26.5938L69.9453 26.8359C69.9297 26.7682 69.875 26.5885 69.7812 26.2969C69.5417 26.3229 69.0729 26.3646 68.375 26.4219V32.9922H67.2188ZM70.3047 32.6328V31.6875H71.6562V19.4297H78.3984V31.6875H79.6172V32.6328H70.3047ZM77.2031 23.1641V20.3438H72.8125V23.1641H77.2031ZM72.8125 27.1172H77.2031V24.0312H72.8125V27.1172ZM72.8125 31.6875H77.2031V27.9922H72.8125V31.6875ZM69.6016 30.4609C69.4661 29.2839 69.3464 28.349 69.2422 27.6562L70.25 27.5078C70.375 28.4922 70.513 29.4219 70.6641 30.2969L69.6016 30.4609ZM65.4844 31.6875L64.4766 31.4844C64.8984 30.224 65.1536 28.9193 65.2422 27.5703L66.3359 27.6719C66.0026 29.7552 65.7188 31.0938 65.4844 31.6875ZM93.1484 29.7969C93.263 30.1042 93.4089 30.4245 93.5859 30.7578C93.7682 31.0859 93.9089 31.2995 94.0078 31.3984C94.112 31.4974 94.2135 31.5469 94.3125 31.5469C94.4792 31.5469 94.5807 31.4193 94.6172 31.1641C94.6589 30.9036 94.7161 30.2344 94.7891 29.1562L95.6562 29.2656C95.6094 30.9271 95.5052 31.9401 95.3438 32.3047C95.1875 32.6745 94.8828 32.8594 94.4297 32.8594C94.0339 32.8594 93.6641 32.6536 93.3203 32.2422C92.9818 31.8307 92.6797 31.3516 92.4141 30.8047C91.7682 31.6328 91.0859 32.3568 90.3672 32.9766L89.7656 32.3516C90.4844 31.7214 91.2292 30.862 92 29.7734C91.5469 28.4089 91.3073 26.625 91.2812 24.4219H85.4688V23.5391H86.8281L86.3281 21.125H85.7344V20.2422H87.8047V18.7578H88.8984V20.2422H90.8438V21.125H90.3125L89.7344 23.5391H91.2812V18.6484H92.4219V23.5391H95.3438V24.4219H92.4219C92.4323 26.1458 92.5599 27.5521 92.8047 28.6406C92.8984 28.4844 92.9792 28.3229 93.0469 28.1562C93.3073 27.7812 93.6979 26.8516 94.2188 25.3672L95.2344 25.6953C94.6927 27.2109 93.9974 28.5781 93.1484 29.7969ZM87.3125 21.125L87.7734 23.5391H88.8359L89.3047 21.125H87.3125ZM82.5703 33.0078V26.1797L80.4766 26.3438L80.3672 25.4375C80.4974 25.4375 80.7839 25.4297 81.2266 25.4141C81.6328 24.8099 82.013 24.2292 82.3672 23.6719C82.1484 23.3854 81.8203 23.0156 81.3828 22.5625C80.8359 22 80.4896 21.6354 80.3438 21.4688L81.0625 20.8672L81.3594 21.1797C81.9271 20.3099 82.3776 19.4922 82.7109 18.7266L83.6953 19.1172C83.2526 19.9297 82.6693 20.8255 81.9453 21.8047C82.3984 22.2891 82.7109 22.6328 82.8828 22.8359C83.4661 21.8724 83.888 21.0964 84.1484 20.5078L85.125 20.9141C84.2448 22.4401 83.2839 23.9271 82.2422 25.375C83.1276 25.3333 83.8646 25.2812 84.4531 25.2188C84.375 24.9479 84.2526 24.5521 84.0859 24.0312L84.8984 23.8359C85.1536 24.5182 85.4089 25.349 85.6641 26.3281L84.8359 26.5625C84.8203 26.4896 84.7656 26.2943 84.6719 25.9766L83.6562 26.0781V33.0078H82.5703ZM93.9766 22.3359L93.1875 19.9141L94.1875 19.6406L94.9844 22.0547L93.9766 22.3359ZM87.3672 31.6328V32.2891H86.3203V25.5625H90.4297V31.6328H87.3672ZM89.375 26.3438H87.3672V28.125H89.375V26.3438ZM89.375 28.9062H87.3672V30.8516H89.375V28.9062ZM84.7891 30.2344C84.6224 29.0104 84.513 28.0677 84.4609 27.4062L85.3281 27.2812L85.6875 30.1016L84.7891 30.2344ZM81.1172 31.5078L80.2344 31.3438C80.5625 29.8958 80.7422 28.5781 80.7734 27.3906L81.7969 27.4922C81.5208 29.7161 81.2943 31.0547 81.1172 31.5078Z" fill="#333333"/>
<path d="M160 3H161V2H160V3ZM0 4H160V2H0V4ZM159 3V51H161V3H159Z" fill="#888888" fill-opacity="0.2" mask="url(#path-1-inside-1_3025_762)"/>
</svg>
