<svg width="106" height="30" viewBox="0 0 106 30" fill="none" xmlns="http://www.w3.org/2000/svg">
<rect x="2" y="6" width="18" height="18" rx="1" fill="white" stroke="#3498DB" stroke-width="2"/>
<path fill-rule="evenodd" clip-rule="evenodd" d="M5.7619 15.4763L7.19047 13.5715L10.0476 15.9525L14.8095 10.7144L16.2381 12.1429L10.0476 18.8096L5.7619 15.4763Z" fill="#3498DB"/>
<path d="M38.9707 14.1484C38.7109 13.6335 38.1686 13.376 37.3438 13.376C36.9427 13.3805 36.585 13.5469 36.2705 13.875C35.9561 14.2031 35.8011 14.57 35.8057 14.9756C35.8057 15.4176 35.9287 15.7731 36.1748 16.042C36.4209 16.3109 36.7559 16.4453 37.1797 16.4453C37.7174 16.4453 38.1458 16.2699 38.4648 15.9189C38.7884 15.568 38.957 15.1077 38.9707 14.5381V14.1484ZM44.3711 11.373H40.0576V14.0049C40.3584 14.5335 40.5088 15.2581 40.5088 16.1787C40.5042 17.3818 40.0576 18.3936 39.1689 19.2139C38.2848 20.0296 37.1911 20.4785 35.8877 20.5605L35.6074 19.7061C36.7012 19.6286 37.6195 19.2526 38.3623 18.5781C39.1097 17.9036 39.4834 17.0674 39.4834 16.0693C39.4834 15.9007 39.4743 15.748 39.4561 15.6113C39.3421 16.14 39.0755 16.557 38.6562 16.8623C38.237 17.1631 37.7334 17.3135 37.1455 17.3135C36.4801 17.3135 35.9173 17.1038 35.457 16.6846C34.9967 16.2607 34.7666 15.7298 34.7666 15.0918C34.7666 14.3581 35.0241 13.7474 35.5391 13.2598C36.0586 12.7676 36.6943 12.5215 37.4463 12.5215C38.0114 12.5215 38.515 12.6878 38.957 13.0205V11.373H32.1074V10.4775H38.957V8.84375H40.0576V10.4775H44.3711V11.373ZM58.918 18.585L58.1592 19.4941C57.4027 18.8971 56.6758 18.25 55.9785 17.5527C55.2812 16.8555 53.9619 15.4268 52.0205 13.2666L50.9883 12.0361C50.9062 11.945 50.7992 11.8994 50.667 11.8994C50.5029 11.8994 50.3685 11.9632 50.2637 12.0908C49.6758 12.9932 48.9899 13.9593 48.2061 14.9893C47.4268 16.0146 46.6657 16.9238 45.9229 17.7168L45.2393 16.9648C46.4287 15.7389 47.6387 14.2168 48.8691 12.3984C49.0879 12.0384 49.2702 11.7559 49.416 11.5508C49.5664 11.3457 49.7441 11.1885 49.9492 11.0791C50.1543 10.9697 50.3867 10.915 50.6465 10.915C51.0977 10.915 51.4987 11.1156 51.8496 11.5166C52.6562 12.4964 53.7432 13.7041 55.1104 15.1396C56.4775 16.5752 57.7467 17.7236 58.918 18.585ZM57.0996 11.2227L56.3135 11.5439C56.0081 10.8376 55.6823 10.2064 55.3359 9.65039L56.0605 9.30176C56.375 9.78939 56.7214 10.4297 57.0996 11.2227ZM55.1104 11.6396L54.3242 11.9883C53.9961 11.2546 53.6657 10.6165 53.333 10.0742L54.0713 9.73926C54.4678 10.3545 54.8141 10.988 55.1104 11.6396ZM71.7832 11.1064H68.3584C67.5244 11.4619 66.7132 12.1136 65.9248 13.0615C65.1364 14.0049 64.7422 14.987 64.7422 16.0078C64.7422 16.7962 64.9518 17.4548 65.3711 17.9834C65.7904 18.5075 66.3486 18.8926 67.0459 19.1387C67.7477 19.3802 68.6797 19.501 69.8418 19.501C70.1061 19.501 70.3796 19.4941 70.6621 19.4805L70.5938 20.4922H70.5596C69.7165 20.4922 69.0169 20.4762 68.4609 20.4443C67.9095 20.417 67.3239 20.3053 66.7041 20.1094C66.0889 19.918 65.5465 19.624 65.0771 19.2275C64.6077 18.8311 64.2591 18.373 64.0312 17.8535C63.8034 17.334 63.6895 16.7461 63.6895 16.0898C63.6895 15.1738 63.9697 14.2669 64.5303 13.3691C65.0908 12.4668 65.8268 11.7035 66.7383 11.0791H59.8818V10.1699H71.7832V11.1064ZM75.5293 11.4688C75.1328 10.7487 74.5859 9.96257 73.8887 9.11035L74.7568 8.57031C75.4906 9.47721 76.0671 10.2474 76.4863 10.8809L75.5293 11.4688ZM83.958 13.3008V14.2988H85.8105V15.0234H83.958V16.2539H86.1387V16.9922H77.1904V16.2539H79.3301V15.0234H77.5596V14.2988H79.3301V13.3008C78.7695 13.2826 78.4049 13.2598 78.2363 13.2324C78.0677 13.2005 77.9128 13.1094 77.7715 12.959C77.6302 12.804 77.5596 12.6126 77.5596 12.3848V10.5254H80.1299V9.38379H77.5322V8.76855H80.957V11.0859H78.373V12.125C78.373 12.3346 78.4368 12.4668 78.5645 12.5215C78.6966 12.5762 79.0361 12.6035 79.583 12.6035C80.2301 12.6035 80.5924 12.5488 80.6699 12.4395C80.7474 12.3301 80.7861 12.0726 80.7861 11.667L81.4697 11.7285V12.4395C81.4697 12.959 81.1803 13.2347 80.6016 13.2666L80.3281 13.2803V14.2988H82.9395V13.2598L82.7412 13.2393C82.5498 13.221 82.3766 13.1322 82.2217 12.9727C82.0713 12.8086 81.9961 12.6126 81.9961 12.3848V10.5254H84.6963V9.38379H81.9688V8.76855H85.5098V11.0859H82.8164V12.125C82.8164 12.3346 82.8802 12.4668 83.0078 12.5215C83.1354 12.5762 83.4909 12.6035 84.0742 12.6035C84.7396 12.6035 85.1156 12.5579 85.2021 12.4668C85.2933 12.3711 85.3389 12.1045 85.3389 11.667L86.0293 11.7285V12.4395C86.0293 12.6947 85.9587 12.8906 85.8174 13.0273C85.6807 13.1641 85.4642 13.2438 85.168 13.2666C84.8717 13.2894 84.5026 13.3008 84.0605 13.3008H83.958ZM80.3281 16.2539H82.9395V15.0234H80.3281V16.2539ZM77.833 19.1387L77.4707 18.4688C78.4505 18.1133 79.3073 17.6735 80.041 17.1494L80.6836 17.7236C80.3783 17.9606 79.9248 18.2249 79.3232 18.5166C78.7262 18.8083 78.2295 19.0156 77.833 19.1387ZM85.2842 19.1797C84.3727 18.8971 83.4681 18.4163 82.5703 17.7373L83.2129 17.1494C83.8737 17.6325 84.7396 18.0768 85.8105 18.4824L85.2842 19.1797ZM86.5557 20.5674C85.5439 20.5765 83.6937 20.5811 81.0049 20.5811C79.4281 20.5811 78.2477 20.4512 77.4639 20.1914C76.6846 19.9362 76.14 19.5374 75.8301 18.9951C75.0736 19.7699 74.3262 20.3372 73.5879 20.6973L73.2188 19.7812C73.474 19.6673 73.8226 19.4668 74.2646 19.1797C74.7113 18.888 75.0326 18.651 75.2285 18.4688V14.2852H73.417V13.4375H76.3018V17.8262C76.3018 18.2546 76.4521 18.6055 76.7529 18.8789C77.0537 19.1478 77.4069 19.3301 77.8125 19.4258C78.2181 19.5169 78.5986 19.5876 78.9541 19.6377C79.3096 19.6878 80.3418 19.7129 82.0508 19.7129C84.2565 19.7129 85.8242 19.6833 86.7539 19.624L86.5557 20.5674ZM91.9561 14.7842C91.6598 14.9209 91.1699 15.1009 90.4863 15.3242V19.8496C90.4863 20.1322 90.3701 20.3623 90.1377 20.54C89.9098 20.7178 89.6683 20.8066 89.4131 20.8066H87.8271L87.7041 19.9385H88.9414C89.2878 19.9385 89.4609 19.7812 89.4609 19.4668V15.6455C88.6634 15.887 88.0094 16.0648 87.499 16.1787L87.3008 15.2695C87.7611 15.1829 88.4811 15.0029 89.4609 14.7295V11.8242H87.7451V10.9971H89.4609V8.39941H90.4863V10.9971H91.8604V11.8242H90.4863V14.4287C91.1335 14.2282 91.5915 14.0755 91.8604 13.9707L91.9561 14.7842ZM100.754 20.0684L100.07 20.8682C97.9785 19.3506 96.6797 17.1562 96.1738 14.2852H93.959C93.8678 17.0697 93.1615 19.2594 91.8398 20.8545L91.1289 20.2803C91.7487 19.4873 92.2044 18.4984 92.4961 17.3135C92.7923 16.1286 92.9404 14.9505 92.9404 13.7793V9.02832H99.7559V14.2852H97.1787C97.6755 16.819 98.8672 18.7467 100.754 20.0684ZM98.6963 13.499V9.85547H94V13.499H98.6963Z" fill="#333333"/>
</svg>
